<?xml version="1.0" encoding="UTF-8"?>
<svg version="1.1" xmlns="http://www.w3.org/2000/svg" width="512" height="512">
<path d="M0 0 C4.35141397 2.28857987 8.57334605 4.77914212 12.78173828 7.31933594 C15.6663978 9.05063817 18.57666083 10.73042181 21.49609375 12.40234375 C23.45648022 13.53385602 25.41613335 14.66663992 27.375 15.80078125 C28.28749512 16.32696045 29.19999023 16.85313965 30.14013672 17.39526367 C39.89121661 23.14360223 45.28303381 28.31804379 50.625 38.36328125 C51.76261914 40.43843494 52.9019982 42.51262461 54.04296875 44.5859375 C54.91381104 46.17946045 54.91381104 46.17946045 55.80224609 47.80517578 C58.59444847 52.85437614 61.51422805 57.82668354 64.4375 62.80078125 C71.23336228 74.40651766 77.95840831 86.05222725 84.67138672 97.70605469 C87.79930148 103.13488067 90.93108448 108.56147406 94.0625 113.98828125 C95.31251879 116.15493708 96.56251878 118.32160375 97.8125 120.48828125 C98.43125 121.56078125 99.05 122.63328125 99.6875 123.73828125 C150.3125 211.48828125 150.3125 211.48828125 152.1887207 214.74047852 C153.4345577 216.8998752 154.68048818 219.05921794 155.92651367 221.21850586 C159.11598953 226.74595722 162.30366885 232.27443246 165.48828125 237.8046875 C166.78385353 240.05338578 168.07942644 242.3020837 169.375 244.55078125 C169.99721436 245.63198242 170.61942871 246.71318359 171.26049805 247.82714844 C174.029812 252.63186574 176.81158166 257.42694013 179.65625 262.1875 C180.1205542 262.96601318 180.5848584 263.74452637 181.06323242 264.54663086 C181.90185107 265.94776237 182.74530423 267.34601889 183.5949707 268.74047852 C189.95571604 279.36313269 190.26134898 291.53669022 187.72265625 303.51953125 C183.38514547 320.72388994 174.31920519 335.14832974 158.98828125 344.4765625 C153.97704329 347.42191316 148.91128092 350.26470714 143.82220459 353.07313538 C137.68583095 356.45955906 131.62477886 359.97154302 125.5625 363.48828125 C123.3961616 364.73885007 121.22949414 365.98884905 119.0625 367.23828125 C117.99 367.85703125 116.9175 368.47578125 115.8125 369.11328125 C80.0625 389.73828125 80.0625 389.73828125 76.81201172 391.61352539 C74.64692929 392.86263643 72.48189018 394.11182254 70.31689453 395.36108398 C64.87634294 398.50030434 59.43502784 401.63818688 53.9921875 404.7734375 C43.54043801 410.79575454 33.09950452 416.83497462 22.6875 422.92578125 C13.41750223 428.34749303 4.10418248 433.6903304 -5.22595215 439.00750732 C-14.3503284 444.20873254 -23.43882774 449.46856003 -32.50439453 454.77172852 C-43.02834625 460.92594867 -53.59130137 467.01198121 -64.15527344 473.09716797 C-68.50315847 475.60227935 -72.84959746 478.10989227 -77.19580078 480.61791992 C-79.3475591 481.85941868 -81.49957515 483.10047085 -83.65185547 484.34106445 C-88.67926193 487.23938217 -93.70455292 490.14117068 -98.72192383 493.05682373 C-100.48725211 494.08243753 -102.25328471 495.10682789 -104.01953125 496.13085938 C-106.2266632 497.41099591 -108.43248923 498.69338791 -110.63671875 499.97851562 C-112.63140863 501.13420982 -114.63251629 502.27891543 -116.640625 503.41113281 C-118.43659424 504.42387385 -120.21942155 505.46049231 -121.984375 506.52636719 C-128.40206838 510.16697749 -134.11584583 511.40181674 -141.4375 509.98828125 C-145.96943553 508.14822591 -149.99434474 505.71763968 -154.125 503.11328125 C-155.83481675 502.07788067 -157.54463649 501.04248405 -159.25535583 500.00857544 C-160.9407334 498.98492761 -162.61837939 497.94858527 -164.29589844 496.91210938 C-167.08165871 495.20618841 -169.88777714 493.55697516 -172.7265625 491.94140625 C-173.88925659 491.27794189 -173.88925659 491.27794189 -175.07543945 490.60107422 C-176.4732925 489.80539499 -177.87274389 489.01251368 -179.27416992 488.22314453 C-185.34546657 484.69654616 -190.04759908 480.56346712 -192.703125 474.01171875 C-193.68212424 469.98115806 -193.91750489 466.12643703 -194 461.98828125 C-194.02682861 461.26044434 -194.05365723 460.53260742 -194.08129883 459.78271484 C-193.96867511 442.43127728 -184.86082817 424.27050702 -179.25735855 408.11783981 C-178.314631 405.39821783 -177.37487452 402.67757311 -176.43513966 399.95691586 C-170.31509599 382.23871901 -164.15907264 364.53299771 -157.97119141 346.83837891 C-153.09696179 332.898574 -148.2632018 318.94495288 -143.4375 304.98828125 C-137.98145532 289.20930569 -132.50823493 273.43661381 -127 257.67578125 C-121.27454831 241.29299177 -115.59811987 224.89357799 -109.9375 208.48828125 C-103.97982298 191.22206984 -97.99968222 173.96414608 -91.97363281 156.72167969 C-87.15450022 142.93114567 -82.36557177 129.13035897 -77.59124756 115.32424927 C-74.57410391 106.60042175 -71.55370527 97.87772031 -68.53363037 89.15490723 C-67.45245736 86.03149178 -66.37194539 82.90784824 -65.29150391 79.78417969 C-63.5978242 74.88881069 -61.90044568 69.99473792 -60.20043945 65.1015625 C-59.58108025 63.31714615 -58.96285953 61.5323341 -58.34594727 59.74707031 C-55.27432917 50.86036936 -52.13133355 42.00479358 -48.78125 33.21875 C-48.50976639 32.49388397 -48.23828278 31.76901794 -47.95857239 31.02218628 C-42.90083962 17.95601853 -33.76071743 6.93243734 -21.5625 -0.07421875 C-13.87830747 -3.40640718 -7.62296794 -3.70327658 0 0 Z " fill="#F8C83E" transform="translate(258.4375,2.01171875)"/>
<path d="M0 0 C4.35141397 2.28857987 8.57334605 4.77914212 12.78173828 7.31933594 C15.6663978 9.05063817 18.57666083 10.73042181 21.49609375 12.40234375 C23.45648022 13.53385602 25.41613335 14.66663992 27.375 15.80078125 C28.28749512 16.32696045 29.19999023 16.85313965 30.14013672 17.39526367 C39.89121661 23.14360223 45.28303381 28.31804379 50.625 38.36328125 C51.76261914 40.43843494 52.9019982 42.51262461 54.04296875 44.5859375 C54.91381104 46.17946045 54.91381104 46.17946045 55.80224609 47.80517578 C58.59444847 52.85437614 61.51422805 57.82668354 64.4375 62.80078125 C71.23336228 74.40651766 77.95840831 86.05222725 84.67138672 97.70605469 C87.79930148 103.13488067 90.93108448 108.56147406 94.0625 113.98828125 C95.31251879 116.15493708 96.56251878 118.32160375 97.8125 120.48828125 C98.43125 121.56078125 99.05 122.63328125 99.6875 123.73828125 C150.3125 211.48828125 150.3125 211.48828125 152.1887207 214.74047852 C153.4345577 216.8998752 154.68048818 219.05921794 155.92651367 221.21850586 C159.11598953 226.74595722 162.30366885 232.27443246 165.48828125 237.8046875 C166.78385353 240.05338578 168.07942644 242.3020837 169.375 244.55078125 C169.99721436 245.63198242 170.61942871 246.71318359 171.26049805 247.82714844 C174.029812 252.63186574 176.81158166 257.42694013 179.65625 262.1875 C180.1205542 262.96601318 180.5848584 263.74452637 181.06323242 264.54663086 C181.90185107 265.94776237 182.74530423 267.34601889 183.5949707 268.74047852 C189.95571604 279.36313269 190.26134898 291.53669022 187.72265625 303.51953125 C183.38514547 320.72388994 174.31920519 335.14832974 158.98828125 344.4765625 C153.97704329 347.42191316 148.91128092 350.26470714 143.82220459 353.07313538 C137.68583095 356.45955906 131.62477886 359.97154302 125.5625 363.48828125 C123.3961616 364.73885007 121.22949414 365.98884905 119.0625 367.23828125 C117.99 367.85703125 116.9175 368.47578125 115.8125 369.11328125 C80.0625 389.73828125 80.0625 389.73828125 76.81201172 391.61352539 C74.64692929 392.86263643 72.48189018 394.11182254 70.31689453 395.36108398 C64.87634294 398.50030434 59.43502784 401.63818688 53.9921875 404.7734375 C43.54043801 410.79575454 33.09950452 416.83497462 22.6875 422.92578125 C13.41750223 428.34749303 4.10418248 433.6903304 -5.22595215 439.00750732 C-14.3503284 444.20873254 -23.43882774 449.46856003 -32.50439453 454.77172852 C-43.02834625 460.92594867 -53.59130137 467.01198121 -64.15527344 473.09716797 C-68.50315847 475.60227935 -72.84959746 478.10989227 -77.19580078 480.61791992 C-79.3475591 481.85941868 -81.49957515 483.10047085 -83.65185547 484.34106445 C-88.67926193 487.23938217 -93.70455292 490.14117068 -98.72192383 493.05682373 C-100.48725211 494.08243753 -102.25328471 495.10682789 -104.01953125 496.13085938 C-106.2266632 497.41099591 -108.43248923 498.69338791 -110.63671875 499.97851562 C-112.63140863 501.13420982 -114.63251629 502.27891543 -116.640625 503.41113281 C-118.43659424 504.42387385 -120.21942155 505.46049231 -121.984375 506.52636719 C-128.40206838 510.16697749 -134.11584583 511.40181674 -141.4375 509.98828125 C-145.96943553 508.14822591 -149.99434474 505.71763968 -154.125 503.11328125 C-155.83481675 502.07788067 -157.54463649 501.04248405 -159.25535583 500.00857544 C-160.9407334 498.98492761 -162.61837939 497.94858527 -164.29589844 496.91210938 C-167.08165871 495.20618841 -169.88777714 493.55697516 -172.7265625 491.94140625 C-173.88925659 491.27794189 -173.88925659 491.27794189 -175.07543945 490.60107422 C-176.4732925 489.80539499 -177.87274389 489.01251368 -179.27416992 488.22314453 C-185.34546657 484.69654616 -190.04759908 480.56346712 -192.703125 474.01171875 C-193.68212424 469.98115806 -193.91750489 466.12643703 -194 461.98828125 C-194.02682861 461.26044434 -194.05365723 460.53260742 -194.08129883 459.78271484 C-193.96867511 442.43127728 -184.86082817 424.27050702 -179.25735855 408.11783981 C-178.314631 405.39821783 -177.37487452 402.67757311 -176.43513966 399.95691586 C-170.31509599 382.23871901 -164.15907264 364.53299771 -157.97119141 346.83837891 C-153.09696179 332.898574 -148.2632018 318.94495288 -143.4375 304.98828125 C-137.98145532 289.20930569 -132.50823493 273.43661381 -127 257.67578125 C-121.27454831 241.29299177 -115.59811987 224.89357799 -109.9375 208.48828125 C-103.97982298 191.22206984 -97.99968222 173.96414608 -91.97363281 156.72167969 C-87.15450022 142.93114567 -82.36557177 129.13035897 -77.59124756 115.32424927 C-74.57410391 106.60042175 -71.55370527 97.87772031 -68.53363037 89.15490723 C-67.45245736 86.03149178 -66.37194539 82.90784824 -65.29150391 79.78417969 C-63.5978242 74.88881069 -61.90044568 69.99473792 -60.20043945 65.1015625 C-59.58108025 63.31714615 -58.96285953 61.5323341 -58.34594727 59.74707031 C-55.27432917 50.86036936 -52.13133355 42.00479358 -48.78125 33.21875 C-48.50976639 32.49388397 -48.23828278 31.76901794 -47.95857239 31.02218628 C-42.90083962 17.95601853 -33.76071743 6.93243734 -21.5625 -0.07421875 C-13.87830747 -3.40640718 -7.62296794 -3.70327658 0 0 Z M13.27285767 48.65002441 C9.79432188 54.11326619 7.63663843 59.7075737 5.5859375 65.83203125 C5.22305634 66.88892151 4.86017517 67.94581177 4.48629761 69.034729 C3.29372595 72.51603725 2.11560164 76.00205244 0.9375 79.48828125 C0.09819557 81.94723547 -0.74198915 84.40588937 -1.58300781 86.86425781 C-3.99741118 93.93178155 -6.39596178 101.00459878 -8.79081726 108.07876587 C-9.8388422 111.17335866 -10.88870759 114.26732661 -11.93847656 117.36132812 C-15.16167474 126.86194692 -18.38412761 136.36281207 -21.59912109 145.86621094 C-26.50341832 160.35367398 -31.49518895 174.80712604 -36.56555176 189.23718262 C-43.09974953 207.85233018 -49.39394687 226.54774921 -55.69739151 245.24189377 C-61.67156905 262.95847718 -67.66696416 280.66439683 -73.875 298.30078125 C-80.8388481 318.08498577 -87.53069437 337.95922554 -94.22818756 357.83472824 C-100.35200206 376.00710258 -106.48874064 394.17218922 -112.83908081 412.26702881 C-113.73413507 414.81806389 -114.62648096 417.37002875 -115.51782227 419.92236328 C-115.94143791 421.13510422 -115.94143791 421.13510422 -116.37361145 422.37234497 C-116.92457645 423.94970632 -117.47551112 425.52707826 -118.02641296 427.10446167 C-119.3835097 430.98662357 -120.74724834 434.86626464 -122.12207031 438.7421875 C-123.47751055 442.56622693 -124.81303092 446.39670095 -126.13485718 450.23248291 C-126.61542872 451.6160011 -127.10285864 452.99716301 -127.59829712 454.37542725 C-130.71966328 463.06869076 -134.00769436 473.11995529 -130.59936523 482.22802734 C-129.3989492 484.29481726 -129.3989492 484.29481726 -126.4375 485.98828125 C-119.18550325 486.08433419 -113.66610176 481.99082416 -107.625 478.36328125 C-106.47272395 477.68302585 -105.31971411 477.00401205 -104.16601562 476.32617188 C-101.77236256 474.91851922 -99.38193892 473.50560426 -96.99365234 472.08886719 C-91.50403778 468.83843015 -85.96843453 465.66769526 -80.4375 462.48828125 C-78.27061897 461.23865288 -76.1039529 459.98865171 -73.9375 458.73828125 C17.0625 406.23828125 17.0625 406.23828125 20.31298828 404.36303711 C22.47807071 403.11392607 24.64310982 401.86473996 26.80810547 400.61547852 C32.24865706 397.47625816 37.68997216 394.33837562 43.1328125 391.203125 C53.58456199 385.18080796 64.02549548 379.14158788 74.4375 373.05078125 C83.11512452 367.97552878 91.82863537 362.96583572 100.5625 357.98828125 C110.31587128 352.4291362 120.04907994 346.83763292 129.72827148 341.14990234 C134.84110902 338.14649119 139.97261199 335.18586563 145.14453125 332.28515625 C146.22895508 331.67043457 147.31337891 331.05571289 148.43066406 330.42236328 C150.49214622 329.2548623 152.56011628 328.09870948 154.63574219 326.95654297 C162.84262892 322.27960631 169.37191627 316.4708677 172.90258789 307.51000977 C175.29932764 298.35132502 173.77132983 290.87319272 169.09399414 282.82250977 C168.15027954 281.29581665 168.15027954 281.29581665 167.1875 279.73828125 C166.54482178 278.64765381 165.90214355 277.55702637 165.23999023 276.43334961 C163.37096471 273.27022173 161.46902143 270.12889521 159.5625 266.98828125 C158.28867564 264.83036159 157.0259553 262.66632567 155.7644043 260.5012207 C154.59651087 258.50201338 153.41639529 256.51041449 152.234375 254.51953125 C148.90248092 248.8896027 145.64102327 243.21908955 142.375 237.55078125 C141.73699463 236.44355713 141.09898926 235.33633301 140.44165039 234.19555664 C139.13360523 231.92491057 137.82574552 229.65415767 136.51806641 227.38330078 C133.36917946 221.91658145 130.21566736 216.45253238 127.0625 210.98828125 C125.8124765 208.82162814 124.56247653 206.65496146 123.3125 204.48828125 C122.69375 203.41578125 122.075 202.34328125 121.4375 201.23828125 C100.8125 165.48828125 100.8125 165.48828125 98.93725586 162.23779297 C97.68814482 160.07271054 96.43895871 157.90767143 95.18969727 155.74267578 C92.05047691 150.30212419 88.91259437 144.86080909 85.77734375 139.41796875 C79.73194841 128.92596031 73.67139781 118.44346449 67.5625 107.98828125 C62.72581864 99.71045578 57.91454219 91.41847182 53.125 83.11328125 C52.20412598 81.5190332 52.20412598 81.5190332 51.26464844 79.89257812 C48.30633432 74.7668934 45.35794784 69.63603559 42.43785095 64.48849487 C41.0644021 62.06889458 39.68586405 59.65221303 38.30685425 57.23577881 C37.33178741 55.52217733 36.36417943 53.8043385 35.39672852 52.08642578 C34.80690186 51.05372559 34.2170752 50.02102539 33.609375 48.95703125 C32.83352051 47.58708008 32.83352051 47.58708008 32.04199219 46.18945312 C30.59507085 43.7347384 30.59507085 43.7347384 27.5625 41.98828125 C21.31893726 40.99498718 17.02200719 43.81913182 13.27285767 48.65002441 Z " fill="#F7C84C" transform="translate(258.4375,2.01171875)"/>
<path d="M0 0 C3.13608066 2.69027094 5.11688987 5.58864955 7.14453125 9.1640625 C8.02443726 10.70344482 8.02443726 10.70344482 8.92211914 12.27392578 C9.54594482 13.37978027 10.16977051 14.48563477 10.8125 15.625 C11.47644453 16.79059378 12.14108941 17.95578888 12.80639648 19.12060547 C14.18813926 21.5410872 15.5668567 23.96325342 16.94335938 26.38671875 C20.12377669 31.98107954 23.34421102 37.55236959 26.5625 43.125 C27.18294189 44.20088379 27.80338379 45.27676758 28.44262695 46.38525391 C32.60698966 53.60275914 36.79623241 60.80538621 41 68 C47.74701194 79.54729516 54.43339318 91.12902027 61.10888672 102.71777344 C64.23680148 108.14659942 67.36858448 113.57319281 70.5 119 C71.75001879 121.16665583 73.00001878 123.3333225 74.25 125.5 C75.178125 127.10875 75.178125 127.10875 76.125 128.75 C88 149.33333333 99.875 169.91666667 111.75 190.5 C112.36931396 191.5734668 112.98862793 192.64693359 113.62670898 193.75292969 C114.87104998 195.90980903 116.11535364 198.06670992 117.35961914 200.22363281 C119.90185705 204.63048946 122.44423058 209.03726702 124.98779297 213.44335938 C125.31915756 214.01736984 125.65052216 214.59138031 125.9919281 215.18278503 C126.98898852 216.90956962 127.98655788 218.6360603 128.98413086 220.36254883 C130.27124302 222.59460497 131.55470178 224.82877242 132.83422852 227.06518555 C135.38794061 231.52348849 137.93822605 235.96375861 140.71875 240.28515625 C145.51150559 247.81047393 147.83630102 254.01761186 146 263 C141.68945648 275.83859725 132.97451084 281.85145387 121.5 288.0625 C119.4405284 289.20153922 117.38196193 290.34221625 115.32421875 291.484375 C114.27411621 292.06509766 113.22401367 292.64582031 112.14208984 293.24414062 C107.15741522 296.02967131 102.23562459 298.91999998 97.3125 301.8125 C88.57446674 306.93333724 79.7998443 311.98647278 71 317 C61.27865901 322.53968899 51.59104908 328.13375063 41.93310547 333.78344727 C31.40915375 339.93766742 20.84619863 346.02369996 10.28222656 352.10888672 C4.85340058 355.23680148 -0.57319281 358.36858448 -6 361.5 C-8.16665583 362.75001879 -10.3333225 364.00001878 -12.5 365.25 C-13.5725 365.86875 -14.645 366.4875 -15.75 367.125 C-45 384 -74.25 400.875 -103.5 417.75 C-104.57419189 418.3699585 -105.64838379 418.98991699 -106.75512695 419.62866211 C-108.90389021 420.86786686 -111.05345694 422.10567954 -113.20385742 423.34204102 C-118.2892253 426.26810723 -123.36512993 429.20784548 -128.4133606 432.19747925 C-130.80092635 433.61027903 -133.19310826 435.01515512 -135.58569336 436.41943359 C-137.27458564 437.41514698 -138.95672027 438.42229429 -140.63867188 439.4296875 C-142.17297852 440.32880859 -142.17297852 440.32880859 -143.73828125 441.24609375 C-145.08466675 442.04551392 -145.08466675 442.04551392 -146.45825195 442.86108398 C-149.24831395 444.11126545 -150.97896392 444.3780682 -154 444 C-157.06341555 441.44715371 -158.83150724 439.53884053 -159.27137756 435.52151489 C-159.57684038 425.89582253 -157.20946512 417.97778173 -154.05859375 409.0546875 C-153.53776641 407.5333731 -153.01868306 406.01146067 -152.5012207 404.48899841 C-151.12166318 400.44609397 -149.71803628 396.41195099 -148.30933762 392.37912369 C-146.83960676 388.1577093 -145.39297463 383.92838904 -143.94360352 379.69995117 C-140.88787299 370.79867629 -137.80233023 361.90796708 -134.70446777 353.02127838 C-133.71187853 350.17331392 -132.72126266 347.32466368 -131.73046875 344.47607422 C-129.41438644 337.82298195 -127.09255444 331.17196579 -124.75366211 324.52685547 C-118.67884098 307.23795746 -112.85218123 289.86516118 -107 272.5 C-100.29271496 252.59762614 -93.56092846 232.70852363 -86.58740234 212.89746094 C-80.40429496 195.31700176 -74.45430581 177.65886538 -68.5 160 C-61.95827175 140.59914211 -55.39291052 121.21024526 -48.58721924 101.89993286 C-44.67723298 90.80087385 -40.86403703 79.67195834 -37.11890602 68.51635933 C-36.3714586 66.29014917 -35.62317014 64.06422327 -34.87467957 61.83836365 C-32.64355142 55.20145098 -30.41551179 48.56360488 -28.20453358 41.91994858 C-27.28439859 39.1599248 -26.35823344 36.40194934 -25.43069649 33.64440536 C-24.79453553 31.74653584 -24.16604751 29.8460997 -23.53782654 27.94558716 C-16.55774471 7.24143675 -16.55774471 7.24143675 -8.625 1.1875 C-5.43045565 -0.25765102 -3.46937367 -0.51671523 0 0 Z M-8 23 C-13.30104111 36.59189629 -17.91949625 50.41100012 -22.56677246 64.2364502 C-24.91576309 71.22401929 -27.27547829 78.20796866 -29.63671875 85.19140625 C-29.8714603 85.88582195 -30.10620186 86.58023766 -30.34805679 87.29569626 C-34.24089931 98.80694445 -38.21415277 110.28812395 -42.25 121.75 C-49.46735372 142.25896315 -56.39145043 162.86572754 -63.33187485 183.46956253 C-69.92419283 203.03881295 -76.54165133 222.59459068 -83.40234375 242.07177734 C-89.76732575 260.15844565 -95.8766216 278.33052346 -102 296.5 C-108.60313676 316.09236402 -115.21530255 335.67868445 -122.0625 355.1875 C-122.49515671 356.42051346 -122.49515671 356.42051346 -122.93655396 357.67843628 C-123.221185 358.48958893 -123.50581604 359.30074158 -123.79907227 360.13647461 C-128.05258595 372.26046938 -132.25407258 384.40153929 -136.41036987 396.55923462 C-137.08937998 398.54461845 -137.7694761 400.52963123 -138.45071411 402.51425171 C-139.38561164 405.23892071 -140.3164799 407.96493076 -141.24609375 410.69140625 C-141.52649506 411.50676849 -141.80689636 412.32213074 -142.09579468 413.16220093 C-143.49531121 416.99389033 -143.49531121 416.99389033 -144 421 C-140.36367377 419.62551133 -137.02935879 417.99565142 -133.640625 416.09375 C-132.61654541 415.52019775 -131.59246582 414.94664551 -130.53735352 414.35571289 C-129.45252686 413.74332764 -128.3677002 413.13094238 -127.25 412.5 C-125.55991821 411.54951782 -125.55991821 411.54951782 -123.83569336 410.57983398 C-117.04626123 406.75080572 -110.29252686 402.86903332 -103.58911133 398.89160156 C-97.23613425 395.1238481 -90.83883127 391.43489228 -84.4375 387.75 C-75.98329026 382.88233204 -67.54473423 377.98954641 -59.125 373.0625 C-49.85509144 367.64063758 -40.54168091 362.29794995 -31.21154785 356.98077393 C-22.0871716 351.77954871 -12.99867226 346.51972122 -3.93310547 341.21655273 C6.59084625 335.06233258 17.15380137 328.97630004 27.71777344 322.89111328 C33.14659942 319.76319852 38.57319281 316.63141552 44 313.5 C46.16665583 312.24998121 48.3333225 310.99998122 50.5 309.75 C51.5725 309.13125 52.645 308.5125 53.75 307.875 C63.5 302.25 63.5 302.25 66.75097656 300.37451172 C68.91447476 299.12628966 71.07788643 297.87791761 73.24121094 296.62939453 C78.70565017 293.47594744 84.17163645 290.32523904 89.640625 287.1796875 C103.4833929 279.21352792 117.27150141 271.1615945 131 263 C127.15618294 255.09464461 123.04462732 247.43491929 118.5625 239.875 C117.32231764 237.76597714 116.08275562 235.65658939 114.84375 233.546875 C114.20953125 232.46857422 113.5753125 231.39027344 112.921875 230.27929688 C109.77515892 224.91005267 106.66841381 219.51791809 103.5625 214.125 C102.94060791 213.04589355 102.31871582 211.96678711 101.67797852 210.85498047 C100.41550269 208.66417049 99.15321444 206.4732524 97.89111328 204.28222656 C94.76319852 198.85340058 91.63141552 193.42680719 88.5 188 C87.24998121 185.83334417 85.99998122 183.6666775 84.75 181.5 C84.13125 180.4275 83.5125 179.355 82.875 178.25 C32.25 90.5 32.25 90.5 30.37451172 87.24902344 C29.12628966 85.08552524 27.87791761 82.92211357 26.62939453 80.75878906 C23.47594744 75.29434983 20.32523904 69.82836355 17.1796875 64.359375 C11.03243886 53.67595668 4.86477627 43.00469966 -1.375 32.375 C-1.92881348 31.42592773 -2.48262695 30.47685547 -3.05322266 29.49902344 C-3.8119165 28.2117334 -3.8119165 28.2117334 -4.5859375 26.8984375 C-5.0298584 26.14224121 -5.4737793 25.38604492 -5.93115234 24.60693359 C-6.46023193 23.81150146 -6.46023193 23.81150146 -7 23 C-7.33 23 -7.66 23 -8 23 Z " fill="#564784" transform="translate(286,44)"/>
<path d="M0 0 C3.93574357 3.19114343 6.36850064 6.90551298 7.3125 11.875 C7.40482642 13.44086048 7.44722818 15.01007421 7.45294189 16.5786438 C7.45865204 17.52049026 7.46436218 18.46233673 7.47024536 19.432724 C7.47136322 20.4592659 7.47248108 21.4858078 7.47363281 22.54345703 C7.48108017 24.17346901 7.48108017 24.17346901 7.48867798 25.83641052 C7.50329445 29.43521761 7.51010168 33.03398059 7.515625 36.6328125 C7.52137799 39.13662721 7.52713571 41.64044191 7.53289795 44.14425659 C7.54206418 48.726805 7.5483643 53.30934079 7.5513947 57.89189732 C7.55542274 63.94850867 7.5676668 70.0049646 7.59375 76.06152344 C7.62134273 82.56951272 7.63414642 89.07736874 7.63607025 95.58541489 C7.63908953 98.06122827 7.64709348 100.53704095 7.66025543 103.0128212 C7.6773951 106.48542783 7.67541581 109.95754349 7.66894531 113.43017578 C7.68276749 114.95177055 7.68276749 114.95177055 7.6968689 116.50410461 C7.6197528 129.78013643 2.57970513 142.77441427 -6.6875 152.4375 C-11.18762403 156.53088205 -15.46369578 159.97228963 -21.75 160.4375 C-26.59650702 159.74514185 -28.36783263 158.42627207 -31.6875 154.875 C-35.36730201 149.31907766 -35.12534269 144.09320651 -35.10742188 137.65991211 C-35.11589142 136.53875 -35.12436096 135.41758789 -35.13308716 134.26245117 C-35.15646796 130.55896626 -35.15747861 126.85589688 -35.15625 123.15234375 C-35.16335359 120.56889175 -35.17105288 117.98544133 -35.17932129 115.4019928 C-35.19277062 109.98417137 -35.19451578 104.56651144 -35.18847656 99.14868164 C-35.18185564 92.91607217 -35.20462497 86.68405749 -35.24179029 80.45156854 C-35.27638904 74.42766899 -35.28280749 68.40408109 -35.27870178 62.38006783 C-35.28038751 59.83136797 -35.28997684 57.28265991 -35.30784607 54.73402214 C-35.43059799 35.05267222 -33.8014497 20.31292626 -19.6875 5.5 C-13.88243961 -0.02967802 -7.9872054 -3.34348133 0 0 Z " fill="#57488A" transform="translate(295.6875,137.125)"/>
<path d="M0 0 C4.42813942 2.44960904 6.08344116 5.40025878 8 10 C9.79581865 24.11596989 7.1522642 37.45757953 -1.375 49.0625 C-6.72271384 55.2520934 -12.46184337 61.48762748 -20.875 62.4375 C-24.61842953 62.31899292 -27.00707691 61.28763803 -29.74609375 58.5859375 C-35.31752714 51.53920244 -34.87119444 42.52586401 -34 34 C-31.30804102 21.93170079 -24.88365474 10.37764946 -15.0625 2.6875 C-10.12154443 -0.40636938 -5.71327628 -1.2707465 0 0 Z " fill="#4C3F75" transform="translate(295,302)"/>
</svg>
