<?xml version="1.0" encoding="UTF-8"?>
<svg version="1.1" xmlns="http://www.w3.org/2000/svg" width="512" height="512">
<path d="M0 0 C5.96367849 1.97238665 14.33503291 6.31291474 17.67138708 11.72032428 C18.55333891 13.95328031 18.75780784 15.52201302 18.76561928 17.91231155 C18.77308477 18.72145673 18.78055026 19.53060191 18.78824198 20.36426663 C18.78533988 21.68916675 18.78533988 21.68916675 18.78237915 23.04083252 C18.78817155 23.98346726 18.79396395 24.926102 18.79993188 25.89730144 C18.81696932 29.06340465 18.81981163 32.22936242 18.82275391 35.39550781 C18.83204949 37.66208251 18.8422176 39.92865377 18.85319519 42.19522095 C18.88055089 48.35593733 18.89566112 54.51663078 18.90862322 60.67739201 C18.92422939 67.11297812 18.9510276 73.54851722 18.97665405 79.98406982 C19.01816197 90.78819531 19.0527437 101.59231959 19.08203125 112.39648438 C19.11221633 123.52475836 19.1465664 134.65300663 19.18652344 145.78125 C19.19021576 146.81018713 19.19021576 146.81018713 19.19398268 147.85991088 C19.20635727 151.30116498 19.2188138 154.74241877 19.23131108 158.18367243 C19.33488058 186.73178697 19.42393588 215.27993514 19.50390625 243.828125 C19.9620874 243.21904297 20.42026855 242.60996094 20.89233398 241.98242188 C21.50536377 241.17869141 22.11839355 240.37496094 22.75 239.546875 C23.35255615 238.75216797 23.9551123 237.95746094 24.57592773 237.13867188 C28.15958516 232.84391008 32.16956318 229.74156359 37.37890625 227.703125 C45.10804954 228.01229073 51.8298029 232.41567262 58.37890625 236.203125 C59.02142334 236.56583496 59.66394043 236.92854492 60.32592773 237.30224609 C65.30800436 240.28402779 68.52588097 243.60164986 70.26171875 249.328125 C72.02224004 267.50124796 62.23826515 282.58501353 54.02197266 297.98144531 C51.83205771 302.08797608 49.66864794 306.20828903 47.50390625 310.328125 C46.69142012 311.86979898 45.87891992 313.41146554 45.06640625 314.953125 C41.68870635 321.37075481 38.34052278 327.80377479 34.98901367 334.23510742 C31.18998375 341.52187242 27.37047209 348.79764826 23.53710938 356.06640625 C23.15103516 356.79859375 22.76496094 357.53078125 22.3671875 358.28515625 C22.02985596 358.92428955 21.69252441 359.56342285 21.3449707 360.22192383 C19.54573736 363.65796335 19.3931652 366.24759456 19.31591797 370.15136719 C19.03252231 381.81298687 17.49386382 391.57857853 8.76171875 399.98486328 C4.11755461 403.77632514 -1.19588467 406.5138523 -6.43359375 409.390625 C-7.68744712 410.09100603 -8.94052829 410.79277112 -10.19287109 411.49584961 C-12.10661401 412.57006803 -14.02075186 413.64348508 -15.93731689 414.71266174 C-21.87782168 418.02741078 -27.75470701 421.44652957 -33.62109375 424.890625 C-45.12364737 431.62219506 -56.66534362 438.28469171 -68.21386719 444.93701172 C-73.64269317 448.06492648 -79.06928656 451.19670948 -84.49609375 454.328125 C-86.66274958 455.57814379 -88.82941625 456.82814378 -90.99609375 458.078125 C-92.06859375 458.696875 -93.14109375 459.315625 -94.24609375 459.953125 C-129.99609375 480.578125 -129.99609375 480.578125 -133.25 482.45532227 C-135.40371095 483.69788519 -137.55735742 484.94055989 -139.7109375 486.18334961 C-144.73293637 489.08127123 -149.75552182 491.97815849 -154.78051758 494.87088013 C-156.54654897 495.88759698 -158.31236806 496.90468158 -160.078125 497.921875 C-162.2834353 499.19213373 -164.48913591 500.46171518 -166.6953125 501.73046875 C-167.70207031 502.31054688 -168.70882812 502.890625 -169.74609375 503.48828125 C-170.71071533 504.04386719 -171.67533691 504.59945313 -172.66918945 505.171875 C-176.25680761 507.27381831 -179.78957394 509.46055148 -183.30932617 511.67407227 C-187.18855849 513.72131254 -190.2981335 514.04625387 -194.49609375 512.828125 C-207.08128338 506.57224311 -207.08128338 506.57224311 -210.49609375 500.828125 C-211.59572808 497.43943115 -211.62449904 494.26663457 -211.63031483 490.71875858 C-211.63477267 489.45782228 -211.63923051 488.19688597 -211.64382344 486.89773947 C-211.64373415 485.49571485 -211.6435443 484.09369024 -211.64326477 482.69166565 C-211.64656432 481.20429972 -211.65029008 479.71693469 -211.65440625 478.22957081 C-211.66442437 474.1363351 -211.66814275 470.04311407 -211.67079556 465.94986784 C-211.67469926 461.53723568 -211.68427768 457.12461512 -211.69300842 452.71199036 C-211.71277276 442.05128608 -211.7228398 431.39058086 -211.73173621 420.72986284 C-211.73611987 415.70821804 -211.74148654 410.6865743 -211.74672508 405.66493034 C-211.76373866 388.96873601 -211.77823187 372.27254234 -211.78547382 355.57634068 C-211.78738369 351.24335797 -211.78930403 346.91037527 -211.79125977 342.57739258 C-211.79174351 341.50046207 -211.79222725 340.42353157 -211.79272565 339.3139668 C-211.80102233 321.87628219 -211.82635258 304.43866625 -211.85884044 287.00101162 C-211.89193126 269.09351432 -211.90992448 251.18605189 -211.91311806 233.27852386 C-211.91528147 223.22606552 -211.92400521 213.17370728 -211.94957924 203.12127876 C-211.97131399 194.55819442 -211.97932307 185.99523449 -211.96961246 177.4321257 C-211.96507557 173.06594059 -211.96691819 168.70001203 -211.9863739 164.3338623 C-212.00406267 160.3294974 -212.00296199 156.32557511 -211.98747661 152.32120513 C-211.98510914 150.87964395 -211.98937904 149.43805166 -212.00130526 147.99653787 C-212.09411595 136.02833786 -210.71441329 124.21362063 -202.64306641 114.81738281 C-198.47959531 110.95975687 -193.65550778 108.38030948 -188.68359375 105.703125 C-186.94000768 104.73140312 -185.19643769 103.75965084 -183.45388794 102.78607178 C-181.65648976 101.78484416 -179.85475426 100.79179804 -178.05224609 99.79980469 C-172.48560313 96.72629566 -166.99561722 93.51961469 -161.49609375 90.328125 C-159.32977716 89.0775184 -157.16310944 87.82751984 -154.99609375 86.578125 C-153.92359375 85.959375 -152.85109375 85.340625 -151.74609375 84.703125 C-63.99609375 34.078125 -63.99609375 34.078125 -60.74267578 32.20117188 C-58.58738064 30.9577199 -56.43210702 29.71423064 -54.27685547 28.47070312 C-49.27271701 25.58349625 -44.26838855 22.6966207 -39.26324463 19.81115723 C-37.51268134 18.80193396 -35.76218964 17.79258664 -34.01171875 16.78320312 C-31.8321721 15.5264484 -29.65249543 14.26991914 -27.47265625 13.01367188 C-25.9721875 12.14838867 -25.9721875 12.14838867 -24.44140625 11.265625 C-23.46671387 10.70488281 -22.49202148 10.14414063 -21.48779297 9.56640625 C-19.392489 8.3489618 -17.30626084 7.11582473 -15.22705078 5.87109375 C-14.16599121 5.23816406 -13.10493164 4.60523438 -12.01171875 3.953125 C-10.58134277 3.09074219 -10.58134277 3.09074219 -9.12207031 2.2109375 C-5.99597945 0.56476991 -3.52863398 -0.28592983 0 0 Z " fill="#F4F2F9" transform="translate(326.49609375,-0.828125)"/>
<path d="M0 0 C0.73669922 0.41314453 1.47339844 0.82628906 2.23242188 1.25195312 C7.56674467 4.37930226 11.08532259 7.55145081 12.9453125 13.6875 C14.70583379 31.86062296 4.9218589 46.94438853 -3.29443359 62.34082031 C-5.48434854 66.44735108 -7.64775831 70.56766403 -9.8125 74.6875 C-10.62498613 76.22917398 -11.43748633 77.77084054 -12.25 79.3125 C-15.6276999 85.73012981 -18.97588347 92.16314979 -22.32739258 98.59448242 C-26.1264225 105.88124742 -29.94593416 113.15702326 -33.77929688 120.42578125 C-34.16537109 121.15796875 -34.55144531 121.89015625 -34.94921875 122.64453125 C-35.28655029 123.28366455 -35.62388184 123.92279785 -35.97143555 124.58129883 C-36.59752359 125.77695435 -37.20891432 126.98032864 -37.8125 128.1875 C-38.4725 128.1875 -39.1325 128.1875 -39.8125 128.1875 C-40.04839844 128.98671875 -40.28429687 129.7859375 -40.52734375 130.609375 C-44.92835327 142.86264162 -52.25518002 159.09572675 -64.375 165.375 C-70.98231557 166.93672914 -76.05688298 165.48771713 -81.74707031 162.15429688 C-82.42866211 161.73212891 -83.11025391 161.30996094 -83.8125 160.875 C-84.90836426 160.21274414 -84.90836426 160.21274414 -86.02636719 159.53710938 C-94.01544103 154.6096548 -101.41909236 148.95374249 -108.8125 143.1875 C-110.58839231 141.82004397 -112.36696544 140.45614272 -114.14599609 139.09277344 C-115.7552633 137.85647147 -117.35822454 136.61197449 -118.9609375 135.3671875 C-121.98362931 133.05669157 -125.06958709 130.8574065 -128.2265625 128.734375 C-131.5432427 125.49938643 -132.70180996 122.05272714 -133.28125 117.5234375 C-133.38047436 104.94675035 -130.56367389 94.67850743 -121.8125 85.1875 C-116.97983859 80.56715216 -113.91350487 77.83133178 -106.94775391 77.92871094 C-103.45040773 78.35258322 -100.96051529 79.97208654 -98 81.8125 C-96.79360397 82.54531758 -95.5865633 83.2770749 -94.37890625 84.0078125 C-93.78480957 84.37422852 -93.19071289 84.74064453 -92.57861328 85.11816406 C-89.91359978 86.73176085 -87.17906904 88.20882148 -84.4375 89.6875 C-83.54289062 90.1721875 -82.64828125 90.656875 -81.7265625 91.15625 C-81.09492188 91.4965625 -80.46328125 91.836875 -79.8125 92.1875 C-79.55452637 91.34251953 -79.29655273 90.49753906 -79.03076172 89.62695312 C-77.73508416 85.96893601 -76.10818902 82.58909985 -74.3203125 79.15625 C-73.80736633 78.15982986 -73.80736633 78.15982986 -73.28405762 77.14328003 C-72.17306258 74.98898085 -71.05548565 72.83817848 -69.9375 70.6875 C-69.16312137 69.18968171 -68.38887105 67.69179707 -67.61474609 66.19384766 C-62.87682576 57.04759175 -58.00963539 47.98335415 -53.00170898 38.98168945 C-48.88222191 31.50136198 -45.21921042 23.82672498 -41.72705078 16.03466797 C-37.11387049 6.0042082 -30.81505059 -3.32420872 -20.375 -7.875 C-13.00987639 -7.69536284 -6.18822269 -3.66400606 0 0 Z " fill="#4AE3C4" transform="translate(383.8125,234.8125)"/>
<path d="M0 0 C3.23611005 1.72691499 6.13043814 3.72063171 9 6 C8.16722534 6.40992188 8.16722534 6.40992188 7.31762695 6.828125 C-0.8237676 10.94470499 -8.74748214 15.51073087 -16.6875 20 C-18.16899536 20.83748779 -18.16899536 20.83748779 -19.68041992 21.69189453 C-27.76162596 26.27309445 -35.79257062 30.93713304 -43.80981445 35.62915039 C-54.41811048 41.837196 -65.06716947 47.97379721 -75.71777344 54.10888672 C-81.14659942 57.23680148 -86.57319281 60.36858448 -92 63.5 C-94.16665583 64.75001879 -96.3333225 66.00001878 -98.5 67.25 C-99.5725 67.86875 -100.645 68.4875 -101.75 69.125 C-105 71 -108.25 72.875 -111.5 74.75 C-112.57290283 75.3689917 -113.64580566 75.9879834 -114.7512207 76.62573242 C-116.91378583 77.8733474 -119.07638339 79.12090616 -121.23901367 80.3684082 C-126.71870371 83.52943449 -132.19779358 86.69149309 -137.67578125 89.85546875 C-139.8879929 91.13286088 -142.10023226 92.41020501 -144.3125 93.6875 C-145.38846436 94.30890869 -146.46442871 94.93031738 -147.57299805 95.57055664 C-153.57925529 99.03646096 -159.59580024 102.48323024 -165.62548828 105.90820312 C-169.01282244 107.83608439 -172.39125428 109.77921754 -175.76855469 111.72460938 C-177.82851344 112.90198624 -179.90046118 114.05455341 -181.9765625 115.203125 C-191.24211804 120.51565571 -196.04158169 126.06764931 -199.34713674 136.17638671 C-200.68869898 141.97860163 -200.41070772 147.92300574 -200.38095093 153.8473053 C-200.38441135 155.35080204 -200.3891785 156.85429623 -200.39513266 158.35778517 C-200.40761937 162.4722486 -200.40148296 166.58650243 -200.39217401 170.70096648 C-200.38537434 175.14477983 -200.39586925 179.58855764 -200.40411377 184.03236389 C-200.41744317 192.7307781 -200.41457699 201.42911459 -200.40587585 210.12753183 C-200.39909703 217.1972402 -200.39818344 224.26692681 -200.4014473 231.3366375 C-200.401907 232.3433398 -200.40236669 233.35004209 -200.40284032 234.38725052 C-200.40379951 236.43241887 -200.40477215 238.47758722 -200.4057581 240.52275556 C-200.41430956 259.69319941 -200.40448145 278.8636002 -200.388357 298.03403699 C-200.374952 314.48047655 -200.37728389 330.92685259 -200.39111328 347.37329102 C-200.40716987 366.47731444 -200.41348776 385.58130015 -200.40427649 404.68532938 C-200.40332085 406.72261234 -200.40237774 408.7598953 -200.4014473 410.79717827 C-200.40098447 411.79953382 -200.40052164 412.80188937 -200.40004479 413.83461933 C-200.3974553 420.89573243 -200.40182499 427.95682159 -200.40888596 435.01793098 C-200.41730193 443.62312174 -200.41501865 452.2282304 -200.39904372 460.83341176 C-200.39116266 465.22326397 -200.38806665 469.61297933 -200.39799118 474.00283051 C-200.40694184 478.02272116 -200.40199917 482.04234833 -200.38605852 486.06221514 C-200.38271232 487.51496988 -200.38440121 488.96774696 -200.39168589 490.42048729 C-200.42655506 497.95307889 -200.28469466 504.14668868 -197 511 C-200.42648086 509.71052929 -203.52240983 508.2582825 -206.625 506.3125 C-207.38039063 505.85488281 -208.13578125 505.39726562 -208.9140625 504.92578125 C-212.62160619 501.50289915 -213.82353748 497.9162165 -214.27681434 492.99405742 C-214.39103282 489.16195915 -214.40511478 485.33590175 -214.38768005 481.5027771 C-214.39185511 480.0128189 -214.39733358 478.52286389 -214.40399987 477.03291476 C-214.41845144 472.94639493 -214.41421062 468.86007684 -214.40683305 464.77354598 C-214.40210278 460.36299863 -214.41461022 455.95249501 -214.42485046 451.54196167 C-214.4420485 442.90309587 -214.44287612 434.26430278 -214.43763756 425.62542431 C-214.4335953 418.60099991 -214.43504009 411.57659699 -214.44038582 404.55217361 C-214.44113424 403.55219467 -214.44188266 402.55221573 -214.44265376 401.5219344 C-214.44418526 399.49038564 -214.44572361 397.45883688 -214.44726873 395.42728813 C-214.46099824 376.37306621 -214.45555366 357.31888535 -214.44408352 338.26466437 C-214.43415801 320.84656203 -214.44707921 303.42856602 -214.47101771 286.01048009 C-214.49542451 268.11643829 -214.50501224 250.22244597 -214.49836498 232.32838786 C-214.49487534 222.28604646 -214.49708766 212.24378677 -214.51461601 202.20145798 C-214.52935805 193.64941173 -214.52994765 185.09750467 -214.5125451 176.5454611 C-214.50404784 172.18534107 -214.50185408 167.82546946 -214.51719666 163.46536255 C-214.5310927 159.46665235 -214.52621803 155.46840221 -214.50695742 151.46971829 C-214.50321197 150.03027235 -214.50607702 148.59078911 -214.51656907 147.15137653 C-214.59747847 135.19207362 -213.21179347 123.37789833 -205.14697266 113.98925781 C-200.98350156 110.13163187 -196.15941403 107.55218448 -191.1875 104.875 C-189.44391393 103.90327812 -187.70034394 102.93152584 -185.95779419 101.95794678 C-184.16039601 100.95671916 -182.35866051 99.96367304 -180.55615234 98.97167969 C-174.98950938 95.89817066 -169.49952347 92.69148969 -164 89.5 C-161.83368341 88.2493934 -159.66701569 86.99939484 -157.5 85.75 C-156.4275 85.13125 -155.355 84.5125 -154.25 83.875 C-66.5 33.25 -66.5 33.25 -63.24658203 31.37304688 C-61.09128689 30.1295949 -58.93601327 28.88610564 -56.78076172 27.64257812 C-51.77662326 24.75537125 -46.7722948 21.8684957 -41.76715088 18.98303223 C-40.01658759 17.97380896 -38.26609589 16.96446164 -36.515625 15.95507812 C-34.33607835 14.6983234 -32.15640168 13.44179414 -29.9765625 12.18554688 C-28.47609375 11.32026367 -28.47609375 11.32026367 -26.9453125 10.4375 C-25.48266968 9.59674927 -25.48266968 9.59674927 -23.99047852 8.73901367 C-21.89756671 7.52195018 -19.81551184 6.28611178 -17.74194336 5.03637695 C-16.68370361 4.40175537 -15.62546387 3.76713379 -14.53515625 3.11328125 C-13.11021851 2.2476355 -13.11021851 2.2476355 -11.65649414 1.36450195 C-7.65268952 -0.69204285 -4.33336227 -1.28137056 0 0 Z " fill="#C1B4EE" transform="translate(329,0)"/>
<path d="M0 0 C1.53123685 1.53123685 1.24307107 2.93212824 1.3125 5.0625 C1.21427435 10.21934676 0.1037682 13.87093976 -3 18 C-9.75026629 23.42954158 -17.77871988 27.47098483 -25.25 31.8125 C-26.52710618 32.55740834 -27.8040395 33.3026131 -29.08081055 34.0480957 C-31.73014243 35.59470831 -34.38020723 37.14005401 -37.03076172 38.68457031 C-42.69168486 41.98485858 -48.34204615 45.30313427 -53.99328613 48.6199646 C-64.28711415 54.66050003 -74.59163439 60.68255427 -84.90356445 66.69213867 C-92.77652915 71.28203198 -100.63928856 75.88916979 -108.5 80.5 C-130.12968279 93.18609988 -130.12968279 93.18609988 -138.5637207 98.08032227 C-143.24528674 100.7976617 -147.90731606 103.53963282 -152.53515625 106.34765625 C-153.40640137 106.8698877 -154.27764648 107.39211914 -155.17529297 107.93017578 C-156.79997253 108.90498352 -158.41803617 109.8909415 -160.02783203 110.89013672 C-165.26023636 114.00698832 -165.26023636 114.00698832 -168.89453125 113.97265625 C-171 113 -171 113 -173 110 C-173.33612718 104.11777426 -171.93287198 99.42448098 -168 95 C-161.02833724 89.76248477 -153.27595037 85.56078372 -145.75 81.1875 C-144.47289382 80.44259166 -143.1959605 79.6973869 -141.91918945 78.9519043 C-139.26985757 77.40529169 -136.61979277 75.85994599 -133.96923828 74.31542969 C-128.30831514 71.01514142 -122.65795385 67.69686573 -117.00671387 64.3800354 C-106.70920202 58.33733826 -96.40077779 52.3135041 -86.08544922 46.30126953 C-78.32129218 41.77442785 -70.5654409 37.23351152 -62.8125 32.6875 C-62.21049774 32.33454865 -61.60849548 31.98159729 -60.98825073 31.61795044 C-54.7098849 27.93687071 -48.43240493 24.25428731 -42.15657043 20.56889343 C-39.57788686 19.05474948 -36.99884744 17.54121223 -34.41976929 16.02774048 C-33.20997506 15.31757602 -32.0003513 14.60712107 -30.79092407 13.89633179 C-27.99344297 12.25224379 -25.19334876 10.6131657 -22.38720703 8.98388672 C-19.98123016 7.57470638 -17.59618953 6.14655992 -15.21826172 4.69189453 C-13.96722456 3.94156141 -12.71608792 3.19139412 -11.46484375 2.44140625 C-10.34585693 1.75892822 -9.22687012 1.0764502 -8.07397461 0.37329102 C-4.72223196 -1.12409223 -3.4041134 -1.22634331 0 0 Z " fill="#453A6D" transform="translate(322,240)"/>
<path d="M0 0 C2.5625 0.1875 2.5625 0.1875 4.5625 2.1875 C5.51230025 7.51079906 4.76849663 12.56597371 2.03955078 17.23022461 C-2.82630551 23.67808741 -12.29993825 27.52972776 -19.1875 31.5 C-21.32442844 32.73922182 -23.46113762 33.97882177 -25.59765625 35.21875 C-27.27239014 36.18941406 -27.27239014 36.18941406 -28.98095703 37.1796875 C-34.26601872 40.24963716 -39.53816398 43.34148494 -44.80960083 46.43475342 C-46.63712243 47.50711325 -48.46488765 48.57905669 -50.29272461 49.65087891 C-54.00783635 51.82943451 -57.7226913 54.00842771 -61.4375 56.1875 C-78.11968832 65.97311678 -94.80818893 75.74754009 -111.51806641 85.48583984 C-115.4898079 87.80086228 -119.46083588 90.11710476 -123.43115234 92.43457031 C-125.41862515 93.59341835 -127.40721459 94.75035364 -129.39697266 95.90527344 C-134.66106409 98.96407883 -139.89748757 102.06131092 -145.10546875 105.21484375 C-146.19666016 105.86904297 -147.28785156 106.52324219 -148.41210938 107.19726562 C-150.51041196 108.45624717 -152.6019327 109.72662097 -154.68554688 111.00976562 C-155.62849609 111.57244141 -156.57144531 112.13511719 -157.54296875 112.71484375 C-158.78276489 113.46882446 -158.78276489 113.46882446 -160.04760742 114.23803711 C-163.0027645 115.41206979 -164.46784449 115.26575475 -167.4375 114.1875 C-169.943377 110.4286845 -169.59063652 108.76693962 -168.95703125 104.45703125 C-167.44401104 97.84752191 -162.83197848 94.63798565 -157.48046875 91.0703125 C-153.55142425 88.63924774 -149.54007001 86.37643885 -145.49658203 84.14379883 C-138.77077853 80.41849245 -132.16735503 76.49743709 -125.5625 72.5625 C-116.55936383 67.20220584 -107.52443605 61.90512437 -98.4375 56.6875 C-89.56213888 51.58997373 -80.73364175 46.42052752 -71.9375 41.1875 C-63.18104267 35.97903691 -54.39514821 30.82821693 -45.5625 25.75 C-36.47126856 20.52269996 -27.39853677 15.26548241 -18.34832764 9.96749878 C-17.03863599 9.20092954 -15.72862077 8.43491283 -14.41827393 7.66946411 C-12.5995222 6.60676206 -10.78199376 5.54200046 -8.96484375 4.4765625 C-7.92062256 3.86506348 -6.87640137 3.25356445 -5.80053711 2.62353516 C-1.69841904 0.13064762 -1.69841904 0.13064762 0 0 Z " fill="#453A6D" transform="translate(318.4375,123.8125)"/>
<path d="M0 0 C2.38370909 2.38370909 2.29588602 2.9936599 2.3125 6.25 C2.16982524 11.20398474 1.21538457 14.77996371 -2.39526367 18.39819336 C-7.0112705 22.43694285 -11.88511745 25.4305744 -17.25 28.375 C-19.12748976 29.42626711 -21.00373105 30.47976613 -22.87890625 31.53515625 C-24.36801514 32.37264404 -24.36801514 32.37264404 -25.88720703 33.22705078 C-31.3650565 36.34706199 -36.77298725 39.58423478 -42.1875 42.8125 C-51.19126377 48.17101528 -60.22814752 53.4662811 -69.3125 58.6875 C-78.18331444 63.78611158 -87.01701788 68.94123238 -95.81811523 74.15917969 C-105.48825524 79.890022 -115.20115028 85.54685739 -124.91503906 91.203125 C-130.19497009 94.27848844 -135.47233884 97.35824342 -140.75 100.4375 C-146.40582637 103.73681189 -146.40582637 103.73681189 -149.16992188 105.33544922 C-151.18189384 106.51881921 -153.17641642 107.73207732 -155.15820312 108.96533203 C-156.20427734 109.60712402 -157.25035156 110.24891602 -158.328125 110.91015625 C-159.27075195 111.50062744 -160.21337891 112.09109863 -161.18457031 112.69946289 C-164.37689487 114.17409981 -166.52266084 114.32823423 -170 114 C-171.77572281 112.22427719 -171.29730614 109.78350971 -171.375 107.375 C-171.44847656 105.83972656 -171.44847656 105.83972656 -171.5234375 104.2734375 C-170.81499575 99.84303312 -169.16999769 97.06472413 -166 94 C-162.18267454 91.32234199 -158.153876 89.10431715 -154.0625 86.875 C-152.89042801 86.2206386 -151.71937982 85.56444033 -150.54931641 84.90649414 C-148.17170306 83.57020209 -145.79081602 82.24005093 -143.40771484 80.91357422 C-138.51614049 78.16675091 -133.69355928 75.30988149 -128.875 72.4375 C-121.4135793 68.01086738 -113.93428117 63.61648119 -106.4375 59.25 C-97.55473798 54.07568797 -88.68007527 48.88778026 -79.8125 43.6875 C-78.90546326 43.15562576 -78.90546326 43.15562576 -77.98010254 42.61300659 C-73.65318461 40.07570778 -69.32655526 37.53791715 -65 35 C-50.88141761 26.71817065 -36.76233936 18.43728738 -22.625 10.1875 C-21.65071045 9.61878174 -20.6764209 9.05006348 -19.67260742 8.46411133 C-17.89925412 7.42998221 -16.12491956 6.39753297 -14.34936523 5.3671875 C-12.85780167 4.49918834 -11.36986432 3.62490363 -9.88696289 2.7421875 C-4.05585436 -0.69528932 -4.05585436 -0.69528932 0 0 Z " fill="#453A6D" transform="translate(321,182)"/>
<path d="M0 0 C-2.27639689 1.14796839 -4.5549838 2.25336217 -6.875 3.3125 C-17.7395243 9.17934312 -22.04380918 19.84049426 -27.5 30.4375 C-28.01280518 31.4270166 -28.52561035 32.4165332 -29.05395508 33.43603516 C-30.14746971 35.54668465 -31.23964474 37.65802866 -32.33056641 39.77001953 C-33.98045443 42.96218369 -35.63579237 46.15145796 -37.29296875 49.33984375 C-46.57420543 67.20306428 -55.78897778 85.10050717 -65 103 C-68.47690749 103 -69.11292052 102.43327704 -71.79296875 100.375 C-72.50517578 99.83359375 -73.21738281 99.2921875 -73.95117188 98.734375 C-75.0581543 97.87585938 -75.0581543 97.87585938 -76.1875 97 C-77.31188477 96.14148438 -77.31188477 96.14148438 -78.45898438 95.265625 C-80.31099235 93.85007751 -82.15763549 92.42806196 -84 91 C-76.95003866 75.79319933 -69.32199631 60.98616618 -61.34765625 46.24609375 C-60.3723124 44.44038209 -59.39756241 42.63435272 -58.42340088 40.82800293 C-57.76730029 39.61149748 -57.1106858 38.39526906 -56.45355225 37.17932129 C-52.39545577 29.66012335 -48.54711396 22.0871146 -45 14.3125 C-40.22887966 3.95581077 -34.43555845 -5.3229617 -23.5625 -10.0625 C-14.76521459 -9.84793206 -7.24455794 -4.47421937 0 0 Z " fill="#13C2A4" transform="translate(387,237)"/>
<path d="M0 0 C2.38370909 2.38370909 2.29588602 2.9936599 2.3125 6.25 C2.17026134 11.1888424 1.21762867 14.74517085 -2.35351562 18.3762207 C-7.29840263 22.73737785 -12.6652348 25.85207273 -18.4375 29 C-20.50605976 30.14820704 -22.57374172 31.29799663 -24.640625 32.44921875 C-25.69701172 33.03622559 -26.75339844 33.62323242 -27.84179688 34.22802734 C-32.82792702 37.0255948 -37.75749776 39.91751372 -42.6875 42.8125 C-52.7107743 48.68567991 -62.77822716 54.47748502 -72.88012695 60.21411133 C-78.21265727 63.24504997 -83.52802975 66.29651326 -88.78515625 69.45703125 C-89.65422607 69.97563721 -90.5232959 70.49424316 -91.41870117 71.02856445 C-92.99975349 71.97568723 -94.57471485 72.93309222 -96.1418457 73.90307617 C-100.27061271 76.36651463 -103.03634703 77.56016146 -108 77 C-109.25324477 74.49351047 -109.27456761 72.61301866 -109.375 69.8125 C-109.42398438 68.89082031 -109.47296875 67.96914062 -109.5234375 67.01953125 C-108.58342968 61.59694882 -105.94765263 58.37834781 -101.5703125 55.28051758 C-98.52632672 53.43392034 -95.4380077 51.70496835 -92.3125 50 C-91.14798785 49.34925046 -89.98443037 48.69678994 -88.82177734 48.04272461 C-86.41132522 46.68839014 -83.99696987 45.34143822 -81.57958984 43.99951172 C-76.05442716 40.92401844 -70.5940092 37.73637354 -65.125 34.5625 C-58.36141101 30.65560767 -51.59073918 26.76129674 -44.80859375 22.88671875 C-44.20837906 22.54379288 -43.60816437 22.200867 -42.98976135 21.84754944 C-40.00118848 20.14072971 -37.0113991 18.43608602 -34.01977539 16.73461914 C-28.71623387 13.71413596 -23.42789904 10.67585113 -18.1875 7.546875 C-17.31279053 7.02770508 -16.43808105 6.50853516 -15.53686523 5.97363281 C-13.94225918 5.02394932 -12.35277109 4.0655924 -10.76977539 3.09667969 C-4.2009851 -0.80460856 -4.2009851 -0.80460856 0 0 Z " fill="#453A6D" transform="translate(259,96)"/>
<path d="M0 0 C0.33 0 0.66 0 1 0 C1.14695313 1.32064453 1.14695313 1.32064453 1.296875 2.66796875 C1.44640625 3.82941406 1.5959375 4.99085938 1.75 6.1875 C1.88921875 7.33605469 2.0284375 8.48460937 2.171875 9.66796875 C3.54028257 15.17387278 6.44849637 17.84509978 11.16162109 20.79394531 C16.33907614 24.19057585 21.13999145 28.1961726 26.03710938 31.98046875 C33.97890775 38.07894299 42.16343165 43.6052294 50.75 48.75 C51.38292969 49.13542969 52.01585937 49.52085937 52.66796875 49.91796875 C56.02458617 51.93473057 59.31136457 53.67659645 63 55 C59.65278153 60.71816489 55.01475469 65.99262266 49 69 C42.5687826 69.81006572 39.51652432 68.56175072 34.40258789 64.68164062 C33.63035889 64.06482422 32.85812988 63.44800781 32.0625 62.8125 C31.2470874 62.18408203 30.4316748 61.55566406 29.59155273 60.90820312 C27.89656205 59.60051266 26.20721894 58.28547114 24.5234375 56.96337891 C22.08400085 55.06535747 19.6142216 53.21878181 17.125 51.38671875 C15.60399397 50.25804519 14.08315335 49.12914868 12.5625 48 C11.85939697 47.48542236 11.15629395 46.97084473 10.43188477 46.44067383 C5.49500736 42.71243218 2.00427912 39.01283736 0 33 C-0.0846817 30.48631945 -0.11601885 28.00130626 -0.09765625 25.48828125 C-0.0962413 24.76005661 -0.09482635 24.03183197 -0.09336853 23.28153992 C-0.08777659 20.95848461 -0.07522562 18.63552612 -0.0625 16.3125 C-0.05748396 14.73632952 -0.05292123 13.16015752 -0.04882812 11.58398438 C-0.0378098 7.72261902 -0.02055074 3.86132592 0 0 Z " fill="#C5BDE3" transform="translate(250,346)"/>
<path d="M0 0 C2.6817677 0.99314775 5.0174947 2.36282372 7.4375 3.875 C8.37239258 4.42220703 8.37239258 4.42220703 9.32617188 4.98046875 C13.84134802 7.68269604 13.84134802 7.68269604 15 10 C14.43152344 10.1959375 13.86304688 10.391875 13.27734375 10.59375 C3.12959574 14.52409647 -1.12938384 21.58169898 -5.8359375 31.0703125 C-7.85039217 36.14024875 -8.17260382 41.08226757 -8.25 46.5 C-8.27578125 47.5828125 -8.3015625 48.665625 -8.328125 49.78125 C-7.85673399 54.40537129 -6.68123158 57.43220872 -3.22705078 60.65332031 C-1.00744048 62.45968066 1.25990899 64.17576921 3.5625 65.875 C5.18656578 67.10368058 6.81026589 68.33284465 8.43359375 69.5625 C9.21718262 70.1503125 10.00077148 70.738125 10.80810547 71.34375 C13.62311619 73.47084208 16.37763739 75.66129775 19.125 77.875 C19.89070313 78.49117188 20.65640625 79.10734375 21.4453125 79.7421875 C21.95835937 80.15726562 22.47140625 80.57234375 23 81 C22.01 81.495 22.01 81.495 21 82 C11.45567519 77.89253164 3.35715435 70.77937246 -4.70703125 64.3828125 C-8.16259428 61.64232428 -11.66694387 59.00869717 -15.25 56.4375 C-26.31389123 48.44974443 -26.31389123 48.44974443 -28 43 C-29.36190704 29.91135654 -27.01850058 19.17936989 -18.6171875 8.75390625 C-13.04095303 2.706251 -8.58513215 -1.08877096 0 0 Z " fill="#1DB19D" transform="translate(279,313)"/>
<path d="M0 0 C3.36591866 1.44253657 5.51047079 3.33264727 8 6 C4.22454612 4.90931332 1.52956528 4.0916909 -1 1 C-0.67 0.67 -0.34 0.34 0 0 Z " fill="#369393" transform="translate(294,389)"/>
</svg>
