<?xml version="1.0" encoding="UTF-8"?>
<svg version="1.1" xmlns="http://www.w3.org/2000/svg" width="512" height="512">
<path d="M0 0 C0.8730629 0.28861404 1.74612579 0.57722809 2.64564514 0.87458801 C7.01628588 2.43066623 11.35757825 4.04345968 15.68115234 5.72607422 C16.66511993 6.10550674 17.64908752 6.48493927 18.66287231 6.87586975 C21.90860947 8.12843182 25.1522875 9.38623799 28.39599609 10.64404297 C30.71072049 11.53843702 33.0255835 12.43247244 35.34057617 13.32617188 C40.20844195 15.20604964 45.07548783 17.08802813 49.94189453 18.97167969 C57.10437384 21.74372465 64.26933247 24.50930975 71.43505859 27.27294922 C80.92662995 30.93393495 90.41757562 34.59653382 99.90771484 38.26123047 C113.03067193 43.32869981 126.1543355 48.39433685 139.27822876 53.4593811 C142.83208169 54.83099708 146.38589578 56.20271365 149.93969727 57.57446289 C161.91424515 62.19652747 173.88917041 66.81761076 185.86474609 71.43701172 C208.24503618 80.07036055 230.62351742 88.70837545 252.99145508 97.37368774 C255.16288121 98.21480622 257.33442903 99.05561061 259.50610352 99.89608765 C262.47889752 101.04676715 265.45119515 102.19871882 268.42333984 103.35107422 C269.30368393 103.69159821 270.18402802 104.03212219 271.09104919 104.38296509 C271.89027298 104.69317596 272.68949677 105.00338684 273.51293945 105.32299805 C274.20705429 105.59195389 274.90116913 105.86090973 275.61631775 106.13801575 C277.33349609 106.83154297 277.33349609 106.83154297 279.33349609 107.83154297 C279.33349609 133.24154297 279.33349609 158.65154297 279.33349609 184.83154297 C244.79071086 199.80008324 244.79071086 199.80008324 229.45849609 206.14404297 C227.86075174 206.80724222 226.2630958 207.47065449 224.66552734 208.13427734 C220.88917958 209.70244547 217.11171311 211.26788419 213.33349609 212.83154297 C215.9134453 214.55150911 218.00947526 215.58653152 220.86499023 216.69506836 C221.77926285 217.05206314 222.69353546 217.40905792 223.63551331 217.77687073 C224.61994919 218.15713913 225.60438507 218.53740753 226.61865234 218.92919922 C227.63068222 219.32352646 228.6427121 219.7178537 229.68540955 220.12413025 C232.92096721 221.38415199 236.15839456 222.63928333 239.39599609 223.89404297 C242.63680802 225.15327917 245.87722616 226.41351865 249.11729431 227.67466736 C251.13449248 228.45948325 253.15219069 229.2430153 255.17042542 230.02516174 C256.08154587 230.37900436 256.99266632 230.73284698 257.93139648 231.09741211 C258.73509171 231.40892715 259.53878693 231.7204422 260.36683655 232.04139709 C262.33349609 232.83154297 262.33349609 232.83154297 264.33349609 233.83154297 C264.33349609 259.24154297 264.33349609 284.65154297 264.33349609 310.83154297 C230.12378224 325.65575231 230.12378224 325.65575231 215.12939453 331.95874023 C210.34444378 333.97025655 205.56176588 335.9871673 200.77880859 338.00341797 C199.81372375 338.41011719 198.84863892 338.81681641 197.85430908 339.23583984 C188.33870522 343.24740066 178.83530281 347.28743713 169.33349609 351.33154297 C153.41803094 358.10356695 137.48982282 364.84502916 121.55249023 371.56542969 C119.67479843 372.35724427 117.79711291 373.14907377 115.91943359 373.94091797 C114.98411301 374.33534088 114.04879242 374.72976379 113.08512878 375.13613892 C106.99441952 377.70571718 100.90698707 380.2829248 94.82154846 382.86495972 C90.64493652 384.63693538 86.46743741 386.40681411 82.28988647 388.17657471 C80.29011568 389.02445019 78.29078081 389.87335462 76.29190063 390.72332764 C73.52432356 391.90005777 70.75525576 393.07321096 67.98583984 394.24560547 C67.16511993 394.59568665 66.34440002 394.94576782 65.49880981 395.30645752 C64.74163666 395.62620544 63.9844635 395.94595337 63.2043457 396.27539062 C62.22213295 396.69239731 62.22213295 396.69239731 61.22007751 397.11782837 C57.02798196 398.70374444 55.02013418 399.0372932 50.81103516 397.21459961 C49.90870148 396.83053955 49.0063678 396.44647949 48.07669067 396.05078125 C47.09409271 395.61878418 46.11149475 395.18678711 45.09912109 394.74169922 C44.05940155 394.29544189 43.01968201 393.84918457 41.94845581 393.3894043 C38.48879301 391.90154975 35.03630475 390.39772726 31.58349609 388.89404297 C29.14500662 387.84205584 26.70612666 386.79103245 24.26660156 385.74145508 C19.16681969 383.54572456 14.07005962 381.34311989 8.97509766 379.13623047 C1.74570703 376.00573186 -5.49369161 372.89888942 -12.73681641 369.80029297 C-13.87658936 369.31265976 -15.0163623 368.82502655 -16.19067383 368.32261658 C-18.48846449 367.33961339 -20.78627533 366.35665738 -23.08410645 365.37374878 C-28.92293965 362.87483001 -34.75953526 360.3706977 -40.59619141 357.86669922 C-53.45331581 352.35139907 -66.31205373 346.83987054 -79.17126465 341.32943726 C-82.66227811 339.83335394 -86.15317797 338.33700585 -89.64404297 336.84057617 C-100.23552414 332.30049026 -110.827592 327.76179443 -121.42230225 323.22924805 C-151.88201516 310.19805622 -182.29611037 297.06991964 -212.66650391 283.83154297 C-212.66650391 258.42154297 -212.66650391 233.01154297 -212.66650391 206.83154297 C-178.12371867 191.8630027 -178.12371867 191.8630027 -164.29150391 186.01904297 C-162.83832977 185.40392467 -161.38520502 184.78868966 -159.93212891 184.17333984 C-156.51081047 182.72475621 -153.08886836 181.27765394 -149.66650391 179.83154297 C-152.32087959 177.72286298 -154.82635132 176.17675952 -157.94433594 174.85449219 C-158.77845001 174.49757294 -159.61256409 174.14065369 -160.47195435 173.7729187 C-161.36373383 173.39781158 -162.25551331 173.02270447 -163.17431641 172.63623047 C-164.55706253 172.04686203 -164.55706253 172.04686203 -165.96774292 171.44558716 C-168.90684261 170.19409935 -171.84906088 168.95014697 -174.79150391 167.70654297 C-177.74035827 166.45413193 -180.68857055 165.20021944 -183.63668823 163.94607544 C-185.47019143 163.16676884 -187.30426254 162.3887968 -189.13894653 161.61227417 C-190.38066116 161.08635178 -190.38066116 161.08635178 -191.64746094 160.54980469 C-192.37708038 160.24130585 -193.10669983 159.93280701 -193.85842896 159.61495972 C-195.14455693 159.05769621 -196.41281565 158.45838709 -197.66650391 157.83154297 C-197.66650391 132.42154297 -197.66650391 107.01154297 -197.66650391 80.83154297 C-163.29161078 65.93575595 -163.29161078 65.93575595 -148.74859619 59.81887817 C-145.95093245 58.64215997 -143.15410424 57.46347244 -140.35742188 56.28442383 C-136.41338046 54.62185849 -132.46904253 52.96000013 -128.52441406 51.29882812 C-119.11169759 47.33470629 -109.70119025 43.36535142 -100.29150391 39.39404297 C-99.37427551 39.00698181 -98.45704712 38.61992065 -97.51202393 38.22113037 C-84.70001816 32.81363884 -71.89677059 27.38585497 -59.10229492 21.93701172 C-55.06969474 20.21985033 -51.03497474 18.50783173 -46.99829102 16.80029297 C-38.71873099 13.29380181 -30.45728343 9.77069793 -22.28369141 6.02294922 C-21.08446045 5.48283203 -19.88522949 4.94271484 -18.6496582 4.38623047 C-16.55320019 3.4370082 -14.46714725 2.46419383 -12.39624023 1.46044922 C-7.83194208 -0.58616682 -4.84400199 -1.61956692 0 0 Z " fill="#52CC7B" transform="translate(222.66650390625,57.16845703125)"/>
<path d="M0 0 C1.23568726 0.4466375 1.23568726 0.4466375 2.49633789 0.90229797 C5.12487644 1.87192662 7.73674148 2.87843599 10.34765625 3.89453125 C11.33162384 4.27396378 12.31559143 4.6533963 13.32937622 5.04432678 C16.57511338 6.29688886 19.8187914 7.55469503 23.0625 8.8125 C25.3772244 9.70689406 27.6920874 10.60092947 30.00708008 11.49462891 C34.87494586 13.37450667 39.74199173 15.25648517 44.60839844 17.14013672 C51.77087775 19.91218168 58.93583638 22.67776678 66.1015625 25.44140625 C75.59313385 29.10239198 85.08407952 32.76499085 94.57421875 36.4296875 C106.51425707 41.04036921 118.45483032 45.64966307 130.39575195 50.25805664 C135.10927481 52.07718269 139.82264508 53.89670326 144.53588867 55.71655273 C155.59278705 59.98547373 166.65067405 64.25178397 177.71203613 68.50912476 C182.26103326 70.25998529 186.80953566 72.01212947 191.35793304 73.76454735 C194.4451605 74.95388882 197.5327438 76.14228541 200.62084961 77.3293457 C213.81282775 82.40050726 226.96812322 87.52883516 240 93 C237.04262806 95.39197927 234.15876891 96.94537305 230.6640625 98.43359375 C229.56247803 98.90651855 228.46089355 99.37944336 227.32592773 99.86669922 C226.72835663 100.12030212 226.13078552 100.37390503 225.5151062 100.63519287 C223.55880207 101.46559952 221.60539418 102.30251592 219.65258789 103.14111328 C217.48247841 104.07302201 215.31221873 105.00456161 213.14118958 105.93432617 C204.51586801 109.62934165 195.91387251 113.37776377 187.31072998 117.12405396 C182.38363575 119.26921083 177.45549736 121.41196575 172.52734375 123.5546875 C171.51254944 123.9959346 170.49775513 124.4371817 169.45220947 124.89179993 C157.47082561 130.10072189 145.48536125 135.30023807 133.5 140.5 C109.32774073 150.98715426 85.1627363 161.49092658 61 172 C53.41 175.3 45.82 178.6 38 182 C37.67 206.75 37.34 231.5 37 257 C26.86360567 253.62120189 26.86360567 253.62120189 22.5625 251.7734375 C21.64855469 251.3815625 20.73460937 250.9896875 19.79296875 250.5859375 C18.87128906 250.18632812 17.94960937 249.78671875 17 249.375 C16.04738281 248.96765625 15.09476563 248.5603125 14.11328125 248.140625 C7.13375235 245.13375235 7.13375235 245.13375235 6 244 C5.90505267 241.62699131 5.87440681 239.28321297 5.88647461 236.90991211 C5.88632858 236.16849472 5.88618256 235.42707733 5.8860321 234.66319275 C5.88673135 232.20121379 5.89452426 229.73930957 5.90234375 227.27734375 C5.90420789 225.57483461 5.90563181 223.87232493 5.90663147 222.16981506 C5.91045698 217.68006927 5.92028753 213.19035562 5.93133545 208.70062256 C5.94154887 204.12268509 5.94612894 199.54474244 5.95117188 194.96679688 C5.96190978 185.97785043 5.97898659 176.98892788 6 168 C5.25455933 167.86578644 4.50911865 167.73157288 3.74108887 167.59329224 C1.36578086 167.07917107 -0.63032847 166.44974547 -2.85742188 165.50732422 C-3.58909073 165.20029572 -4.32075958 164.89326721 -5.07460022 164.57693481 C-5.86466965 164.2395932 -6.65473907 163.90225159 -7.46875 163.5546875 C-8.31517563 163.19744598 -9.16160126 162.84020447 -10.03367615 162.47213745 C-12.85793836 161.27810859 -15.67902284 160.0767675 -18.5 158.875 C-20.51369292 158.02101657 -22.52744754 157.16717861 -24.54125977 156.31347656 C-40.81730132 149.40182116 -57.03889366 142.36547415 -73.2517395 135.30712891 C-90.61297786 127.7488577 -108.01055427 120.28048447 -125.4375 112.875 C-142.96490683 105.42664783 -160.46865856 97.93073286 -177.93115234 90.33154297 C-185.94057298 86.85633373 -193.97097521 83.42961655 -202 80 C-199.90834911 77.7043656 -198.10329525 76.40785568 -195.24267578 75.21679688 C-194.48542709 74.89720001 -193.72817841 74.57760315 -192.94798279 74.24832153 C-191.709161 73.73868362 -191.709161 73.73868362 -190.4453125 73.21875 C-189.13766685 72.67031937 -189.13766685 72.67031937 -187.80360413 72.11080933 C-184.91351535 70.90043501 -182.0192624 69.70035594 -179.125 68.5 C-177.09122488 67.65003536 -175.05778248 66.79927419 -173.0246582 65.94775391 C-168.79231455 64.17590761 -164.5585499 62.40752205 -160.32373047 60.64160156 C-151.53291225 56.97306511 -142.75844903 53.26592376 -133.98455811 49.55712891 C-131.16793249 48.36673013 -128.35086676 47.17737838 -125.53369141 45.98828125 C-112.53901218 40.50235253 -99.55503803 34.9915423 -86.57608032 29.46853638 C-70.79561782 22.75387315 -54.99805328 16.08001649 -39.1953125 9.41796875 C-37.84363983 8.84712051 -37.84363983 8.84712051 -36.46466064 8.26473999 C-34.7126965 7.52692594 -32.95910674 6.79295832 -31.20379639 6.06314087 C-27.39615041 4.47397873 -23.63646648 2.85264099 -19.94238281 1.01318359 C-19.32324005 0.71522385 -18.70409729 0.4172641 -18.06619263 0.11027527 C-16.46767484 -0.66665819 -14.88543932 -1.47686334 -13.30517578 -2.2902832 C-8.33949479 -3.35655848 -4.66807776 -1.74381565 0 0 Z " fill="#93E571" transform="translate(228,59)"/>
<path d="M0 0 C1.41816826 0.50257424 2.83343162 1.01340081 4.24609375 1.53125 C5.23512695 1.87929688 5.23512695 1.87929688 6.24414062 2.234375 C14.51691492 5.20681086 22.54199292 8.67882613 30.68359375 12.03125 C30.68359375 37.44125 30.68359375 62.85125 30.68359375 89.03125 C-3.52612011 103.85545934 -3.52612011 103.85545934 -18.52050781 110.15844727 C-23.30545857 112.16996358 -28.08813647 114.18687433 -32.87109375 116.203125 C-33.83617859 116.60982422 -34.80126343 117.01652344 -35.79559326 117.43554688 C-45.31119712 121.44710769 -54.81459953 125.48714416 -64.31640625 129.53125 C-80.2318714 136.30327398 -96.16007953 143.04473619 -112.09741211 149.76513672 C-113.97510392 150.5569513 -115.85278943 151.3487808 -117.73046875 152.140625 C-118.66578934 152.53504791 -119.60110992 152.92947083 -120.56477356 153.33584595 C-126.65548282 155.90542421 -132.74291527 158.48263183 -138.82835388 161.06466675 C-143.00496583 162.83664241 -147.18246494 164.60652114 -151.36001587 166.37628174 C-153.35978666 167.22415722 -155.35912154 168.07306165 -157.35800171 168.92303467 C-160.12557878 170.0997648 -162.89464659 171.27291799 -165.6640625 172.4453125 C-166.48478241 172.79539368 -167.30550232 173.14547485 -168.15109253 173.50616455 C-169.28685226 173.98578644 -169.28685226 173.98578644 -170.44555664 174.47509766 C-171.10036514 174.75310211 -171.75517365 175.03110657 -172.42982483 175.3175354 C-178.00280147 177.42585405 -181.00246254 176.24596493 -186.36328125 173.84765625 C-187.52008392 173.34612282 -187.52008392 173.34612282 -188.70025635 172.8344574 C-191.16046194 171.76489968 -193.613352 170.67959502 -196.06640625 169.59375 C-197.7339175 168.86548801 -199.40188145 168.13826165 -201.0703125 167.41210938 C-205.15769244 165.63046086 -209.23858346 163.83465922 -213.31640625 162.03125 C-212.32640625 161.70125 -211.33640625 161.37125 -210.31640625 161.03125 C-208.99640625 161.69125 -207.67640625 162.35125 -206.31640625 163.03125 C-206.31640625 138.28125 -206.31640625 113.53125 -206.31640625 88.03125 C-192.83341305 81.2897534 -192.83341305 81.2897534 -186.9296875 78.796875 C-186.28199905 78.52168533 -185.63431061 78.24649567 -184.96699524 77.96296692 C-183.57876114 77.37329299 -182.18986791 76.78516867 -180.800354 76.19851685 C-176.95147146 74.572665 -173.10856555 72.93280572 -169.265625 71.29296875 C-168.45734253 70.94822006 -167.64906006 70.60347137 -166.81628418 70.24827576 C-157.49477166 66.26487494 -148.2181406 62.18007163 -138.94140625 58.09375 C-125.68885793 52.25929378 -112.42277244 46.45848807 -99.12890625 40.71875 C-98.35878204 40.38622223 -97.58865784 40.05369446 -96.79519653 39.71109009 C-93.03233233 38.08660303 -89.26916152 36.4628277 -85.50585938 34.83935547 C-66.90377356 26.8130181 -48.32369395 18.73558108 -29.74240112 10.66125488 C-27.63141311 9.74400725 -25.52034991 8.82693263 -23.40921021 7.91003418 C-20.44574521 6.62286285 -17.48259551 5.33496849 -14.51953125 4.046875 C-13.61893478 3.65584595 -12.71833832 3.26481689 -11.79045105 2.86193848 C-10.96531509 2.50305542 -10.14017914 2.14417236 -9.29003906 1.77441406 C-8.56778137 1.46054749 -7.84552368 1.14668091 -7.10137939 0.82330322 C-3.16347667 -0.92407799 -3.16347667 -0.92407799 0 0 Z " fill="#3D9979" transform="translate(456.31640625,278.96875)"/>
<path d="M0 0 C1.77843108 0.771863 3.5588777 1.53909473 5.34106445 2.30224609 C6.26698395 2.69885437 7.19290344 3.09546265 8.1468811 3.50408936 C28.20028386 11.98339518 45.07460809 15.08973048 66.70878601 14.2199707 C77.09839191 13.92928588 87.29433979 16.64555649 97.08203125 19.96875 C97.83581055 20.22406494 98.58958984 20.47937988 99.36621094 20.74243164 C110.34745505 24.63858458 118.60176147 30.30930935 124.70703125 40.28125 C125.9287073 43.4711819 126.0739236 45.83225717 125.83203125 49.21875 C126.36755615 49.36497803 126.90308105 49.51120605 127.45483398 49.66186523 C135.0579888 51.83385998 142.4101367 54.60729113 149.77612305 57.4621582 C151.91876453 58.29061991 154.06564911 59.10737444 156.21289062 59.92382812 C157.57709363 60.44981926 158.94103615 60.97648659 160.3046875 61.50390625 C161.53453369 61.97707275 162.76437988 62.45023926 164.03149414 62.93774414 C166.83203125 64.21875 166.83203125 64.21875 167.83203125 66.21875 C147.17793074 74.96330919 126.4930048 83.62432526 105.73266602 92.11376953 C91.42411761 97.96607992 77.14236448 103.88199881 62.8659668 109.81225586 C62.02959183 110.15958267 61.19321686 110.50690948 60.33149719 110.86476135 C58.7721825 111.51240146 57.21299955 112.16035886 55.65397644 112.80870056 C54.30023429 113.37107966 52.94569161 113.93153781 51.59014893 114.48956299 C50.06313752 115.12289766 48.54464593 115.77669917 47.02783203 116.43408203 C43.03621126 117.86048509 39.50321423 116.93021377 35.67578125 115.30078125 C34.08659689 114.53571783 32.50158416 113.76194718 30.92016602 112.98095703 C19.27760716 107.30299936 9.49427231 106.34586698 -3.28613281 106.28759766 C-22.60913306 105.82596719 -45.99384059 101.55395587 -60.60546875 87.94921875 C-64.80669546 83.42539785 -67.89643596 79.55748602 -68.41122437 73.22770691 C-68.86005831 70.09952529 -68.86005831 70.09952529 -71.29116821 68.64424133 C-72.22713837 68.25802109 -73.16310852 67.87180084 -74.12744141 67.47387695 C-75.18589264 67.02353592 -76.24434387 66.57319489 -77.33486938 66.10920715 C-78.4889328 65.64648911 -79.64299622 65.18377106 -80.83203125 64.70703125 C-82.60288589 63.96467476 -82.60288589 63.96467476 -84.40951538 63.20732117 C-87.55160294 61.89040508 -90.70469933 60.60220197 -93.86096191 59.31970215 C-97.04972394 58.01836811 -100.22753703 56.69088023 -103.40625 55.36523438 C-108.07567874 53.42086855 -112.75085513 51.49113453 -117.43212891 49.57543945 C-121.69559161 47.82971373 -125.94150735 46.05213784 -130.16796875 44.21875 C-128.64311366 41.16903982 -126.3004055 40.82355541 -123.1875 39.5234375 C-122.56066315 39.25940628 -121.93382629 38.99537506 -121.28799438 38.7233429 C-119.18804826 37.84056086 -117.08427671 36.96728427 -114.98046875 36.09375 C-113.48873957 35.46850839 -111.99728974 34.84259992 -110.50610352 34.21606445 C-107.34371107 32.88849094 -104.1797996 31.56463491 -101.01464844 30.24365234 C-95.54151079 27.9586743 -90.07457426 25.65908214 -84.60916138 23.35569763 C-80.70314478 21.70955294 -76.79586286 20.06660549 -72.88525391 18.43139648 C-65.21626011 15.22001819 -57.56791491 11.97121752 -49.96092224 8.61515808 C-46.31316304 7.0068493 -42.65915398 5.41300527 -39.00491333 3.81948853 C-37.25589251 3.05158101 -35.51008611 2.27630487 -33.76779175 1.49325562 C-31.3399359 0.40257276 -28.90213499 -0.66224416 -26.4609375 -1.72265625 C-25.39924347 -2.21194611 -25.39924347 -2.21194611 -24.31610107 -2.71112061 C-15.49161464 -6.47247582 -8.33626798 -3.81059094 0 0 Z " fill="#93E571" transform="translate(231.16796875,93.78125)"/>
<path d="M0 0 C22.92314386 9.16925754 22.92314386 9.16925754 31.6484375 13.00390625 C32.64874496 13.44016327 33.64905243 13.87642029 34.67967224 14.32589722 C36.80931075 15.25473365 38.93843015 16.18476115 41.06704712 17.11593628 C46.88631806 19.66069629 52.7105821 22.19396892 58.53515625 24.7265625 C59.73530869 25.2484465 60.93546112 25.77033051 62.17198181 26.30802917 C74.69268071 31.74602177 87.24900248 37.09928689 99.8125 42.4375 C104.28260889 44.33710596 108.75269009 46.23677695 113.22265625 48.13671875 C114.33842041 48.61093765 115.45418457 49.08515656 116.60375977 49.57374573 C125.05295528 53.16689805 133.49504147 56.77647572 141.93359375 60.39453125 C142.55585657 60.66132124 143.17811939 60.92811123 143.81923866 61.20298576 C150.39695541 64.02339989 156.97373004 66.84600546 163.55004883 69.66967773 C178.67909442 76.16306854 193.83119804 82.60005224 209 89 C209.00808685 89.94769257 209.01617371 90.89538513 209.02450562 91.87179565 C209.10188516 100.78927695 209.18960338 109.70660413 209.28752708 118.6238842 C209.33753993 123.20869782 209.38386933 127.79348784 209.421875 132.37841797 C209.45866504 136.80053679 209.50500746 141.22246046 209.55806351 145.64441299 C209.57664098 147.33412387 209.59173646 149.02387662 209.60334396 150.71364975 C209.62014942 153.07476674 209.64916958 155.43543351 209.68115234 157.79638672 C209.68331253 158.49985229 209.68547272 159.20331787 209.68769836 159.92810059 C209.65730678 163.9083553 209.65730678 163.9083553 212 167 C208.49087423 166.39511603 205.44677049 165.47424686 202.18041992 164.06420898 C201.23813034 163.66028427 200.29584076 163.25635956 199.32499695 162.8401947 C198.30380264 162.39664139 197.28260834 161.95308807 196.23046875 161.49609375 C195.14768143 161.03042496 194.0648941 160.56475616 192.94929504 160.0849762 C189.9820304 158.80790882 187.01663166 157.52661943 184.05194092 156.24359131 C180.90274262 154.88203495 177.75110032 153.5261611 174.59960938 152.16992188 C170.00346972 150.19149855 165.40798738 148.2115636 160.8133564 146.22963905 C149.36532139 141.29172483 137.90512911 136.38227885 126.44396973 131.47491455 C121.81573037 129.49282466 117.18822656 127.50902063 112.56069946 125.52526855 C103.06331779 121.45395493 93.56485314 117.38518889 84.06454468 113.32070923 C55.99860227 101.31322984 27.96734827 89.23571487 0 77 C0 51.59 0 26.18 0 0 Z " fill="#52CC7A" transform="translate(10,264)"/>
<path d="M0 0 C0 25.41 0 50.82 0 77 C-35.14916918 92.23130665 -35.14916918 92.23130665 -47.78442383 97.54199219 C-50.12890293 98.52792467 -52.47169456 99.51779956 -54.81445312 100.5078125 C-61.26979818 103.2288782 -67.72163091 105.92616045 -74.27734375 108.3984375 C-82.78657806 111.62880112 -91.12859606 115.25679469 -99.49432373 118.83831787 C-104.7050742 121.06895714 -109.91915523 123.29179038 -115.1328125 125.515625 C-116.73632065 126.19992081 -116.73632065 126.19992081 -118.3722229 126.89804077 C-131.22268595 132.37953406 -144.09528347 137.80845952 -156.97021484 143.23217773 C-165.67224647 146.89913849 -174.3683066 150.57858586 -183.046875 154.30078125 C-184.6036432 154.96704185 -186.16044559 155.63322258 -187.71728516 156.29931641 C-190.57885927 157.52369599 -193.4374308 158.75474399 -196.29443359 159.98974609 C-197.55294039 160.52859951 -198.81155943 161.06719088 -200.0703125 161.60546875 C-201.15070801 162.07106201 -202.23110352 162.53665527 -203.34423828 163.01635742 C-206 164 -206 164 -209 164 C-209.11576015 154.2731547 -209.20464711 144.54647277 -209.25906086 134.8190794 C-209.28517464 130.30239755 -209.32060447 125.78618634 -209.37719727 121.26977539 C-209.43145462 116.91256386 -209.46140711 112.55580546 -209.47438622 108.19828224 C-209.4836375 106.53441036 -209.50170321 104.87056377 -209.52865028 103.20688438 C-209.56485964 100.87915501 -209.56994912 98.55330668 -209.56762695 96.2253418 C-209.58560333 95.53482224 -209.60357971 94.84430267 -209.62210083 94.13285828 C-209.60127258 92.20805359 -209.60127258 92.20805359 -209 89 C-206.63442993 87.12841797 -206.63442993 87.12841797 -204 86 C-203.10289307 85.57759033 -202.20578613 85.15518066 -201.28149414 84.7199707 C-200.29270264 84.29288818 -199.30391113 83.86580566 -198.28515625 83.42578125 C-196.57416748 82.68473145 -196.57416748 82.68473145 -194.82861328 81.92871094 C-193.57332629 81.38977803 -192.31795223 80.85104787 -191.0625 80.3125 C-189.73156347 79.73871022 -188.40067273 79.16481422 -187.06982422 78.59082031 C-175.00592114 73.39723126 -162.89947212 68.30436467 -150.78955078 63.21923828 C-139.3260449 58.40521264 -127.87753889 53.5570127 -116.4375 48.6875 C-102.23825001 42.6450659 -88.0296259 36.62525517 -73.8125 30.625 C-72.42840942 30.04075256 -72.42840942 30.04075256 -71.01635742 29.44470215 C-61.17497779 25.29062753 -51.33233819 21.13955358 -41.48805237 16.99237061 C-37.31053682 15.23224629 -33.13343712 13.47113644 -28.95639038 11.7098999 C-26.95727429 10.86731379 -24.95794843 10.02522518 -22.95840454 9.18365479 C-20.18921714 8.01815133 -17.42071097 6.85104371 -14.65234375 5.68359375 C-13.83162384 5.33867386 -13.01090393 4.99375397 -12.16531372 4.63838196 C-11.02955399 4.15887337 -11.02955399 4.15887337 -9.87084961 3.66967773 C-9.21604111 3.39389389 -8.5612326 3.11811005 -7.88658142 2.83396912 C-6.53048606 2.23450299 -5.19763073 1.58142159 -3.8830719 0.89564514 C-2 0 -2 0 0 0 Z " fill="#3D997A" transform="translate(502,165)"/>
<path d="M0 0 C1.40379305 0.6228815 2.80808662 1.24463626 4.21289062 1.86523438 C7.62696561 3.37636798 11.03400306 4.90266449 14.4375 6.4375 C12.04036809 9.19541587 9.70641247 10.35336728 6.33203125 11.69921875 C5.34912109 12.09560547 4.36621094 12.49199219 3.35351562 12.90039062 C2.32935547 13.30451172 1.30519531 13.70863281 0.25 14.125 C-0.78576172 14.54072266 -1.82152344 14.95644531 -2.88867188 15.38476562 C-5.44395399 16.40923357 -8.0018667 17.42649844 -10.5625 18.4375 C-7.92126765 19.62567521 -5.27868933 20.81074194 -2.63476562 21.99291992 C-0.26606721 23.05221055 2.10108854 24.11495656 4.46679688 25.1809082 C11.41030164 28.29367249 18.39330375 31.2444862 25.47265625 34.03515625 C27.72402969 34.93722675 29.974361 35.84184955 32.22439575 36.74725342 C33.6933514 37.32986077 35.16710463 37.90052152 36.64547729 38.45880127 C48.42579475 42.91312515 48.42579475 42.91312515 50.94116211 46.703125 C51.67849701 48.9628273 52.09771821 51.08999279 52.4375 53.4375 C57.92619524 64.82526022 68.25526803 69.98324343 79.66015625 74.15625 C92.59543477 78.54381086 106.61950209 80.57864195 120.29296875 80.4296875 C131.8119489 80.39281201 140.31079424 82.83915381 150.66113281 88.01953125 C156.06634987 90.6849085 159.41970401 92.3143043 165.4375 90.4375 C170.14381434 88.58659315 174.75067179 86.52653046 179.34375 84.41210938 C185.27247477 81.83457999 188.17836453 81.06731267 194.4375 83.4375 C199.81891793 83.02988453 204.39233789 80.96519266 209.28515625 78.8515625 C210.15258453 78.4831575 211.02001282 78.1147525 211.91372681 77.73518372 C214.77842028 76.51696673 217.6391461 75.28970343 220.5 74.0625 C222.5209514 73.20122625 224.54219671 72.34064184 226.5637207 71.48071289 C230.76722389 69.69204489 234.96944176 67.900403 239.17089844 66.10693359 C245.08914312 63.58297966 251.01545329 61.07855713 256.9453125 58.58203125 C257.87363388 58.19096191 258.80195526 57.79989258 259.75840759 57.39697266 C263.47334422 55.83232014 267.1884988 54.26820283 270.90518188 52.70770264 C281.40675022 48.29806546 291.87214993 43.82228321 302.28515625 39.20703125 C305.16179739 37.94111199 308.03911286 36.67673863 310.91665649 35.41287231 C312.74311341 34.60514365 314.56628367 33.78993584 316.38583374 32.96676636 C318.90052363 31.82917483 321.42517629 30.7171199 323.953125 29.609375 C324.68237686 29.27086014 325.41162872 28.93234528 326.16297913 28.58357239 C333.98366924 25.21752475 340.68819725 26.79538322 348.4375 29.875 C349.55125 30.30683594 350.665 30.73867188 351.8125 31.18359375 C354.4375 32.4375 354.4375 32.4375 355.4375 34.4375 C340.21101815 41.34226573 324.94064254 48.12705595 309.5625 54.6875 C297.2279717 59.95032782 284.91474922 65.25837404 272.625 70.625 C271.82339447 70.9749704 271.02178894 71.3249408 270.19589233 71.68551636 C266.87653659 73.13472521 263.55720846 74.58399723 260.23799133 76.03352356 C250.12192032 80.45034019 239.99842241 84.85006578 229.875 89.25 C227.96044723 90.08218945 226.04589646 90.91438346 224.13134766 91.74658203 C221.22715661 93.0089338 218.32295732 94.27126661 215.41873169 95.53353882 C208.12508178 98.70366969 200.83198149 101.87506303 193.5390625 105.046875 C190.38005987 106.42069431 187.22105159 107.79450061 184.06204224 109.16830444 C182.03896589 110.04814919 180.01591448 110.92805129 177.9928894 111.80801392 C175.18413515 113.02973037 172.37528123 114.2512174 169.56640625 115.47265625 C168.3304924 116.01034637 168.3304924 116.01034637 167.0696106 116.55889893 C166.29584076 116.8953241 165.52207092 117.23174927 164.72485352 117.57836914 C164.06195816 117.86668106 163.39906281 118.15499298 162.71607971 118.45204163 C159.62653979 119.78823056 156.53143798 121.11152658 153.4375 122.4375 C153.1075 147.1875 152.7775 171.9375 152.4375 197.4375 C144.88766952 195.55004238 138.55283476 193.94892544 131.6875 190.75 C130.97851562 190.42966797 130.26953125 190.10933594 129.5390625 189.77929688 C127.83447242 189.00762434 126.13533116 188.22393194 124.4375 187.4375 C124.4375 186.7775 124.4375 186.1175 124.4375 185.4375 C123.4475 185.1075 122.4575 184.7775 121.4375 184.4375 C121.4375 159.3575 121.4375 134.2775 121.4375 108.4375 C119.7875 108.1075 118.1375 107.7775 116.4375 107.4375 C114.81386116 106.83659225 113.20740949 106.18786941 111.61791992 105.50170898 C110.67563034 105.09778427 109.73334076 104.69385956 108.76249695 104.2776947 C107.74130264 103.83414139 106.72010834 103.39058807 105.66796875 102.93359375 C104.04378777 102.23509056 104.04378777 102.23509056 102.38679504 101.5224762 C99.4195304 100.24540882 96.45413166 98.96411943 93.48944092 97.68109131 C90.34024262 96.31953495 87.18860032 94.9636611 84.03710938 93.60742188 C79.44096972 91.62899855 74.84548738 89.6490636 70.2508564 87.66713905 C58.80244634 82.72906306 47.34189543 77.81941501 35.88037109 72.91186523 C30.09286288 70.43343933 24.30624493 67.95293654 18.51953125 65.47265625 C16.1896201 64.47411125 13.85970472 63.47557614 11.52978516 62.47705078 C-21.16764323 48.46386719 -53.86507161 34.45068359 -86.5625 20.4375 C-83.47158273 17.07085639 -79.85809771 15.66122296 -75.6953125 13.9609375 C-74.91221207 13.63388321 -74.12911163 13.30682892 -73.32228088 12.96986389 C-70.78034978 11.91002638 -68.23423924 10.86072562 -65.6875 9.8125 C-62.21651209 8.37595067 -58.74686373 6.93618412 -55.27734375 5.49609375 C-54.42801773 5.14448685 -53.57869171 4.79287994 -52.70362854 4.43061829 C-47.99677469 2.47549096 -43.32823919 0.46349264 -38.69140625 -1.65234375 C-37.74571777 -2.08015137 -36.8000293 -2.50795898 -35.82568359 -2.94873047 C-34.17372977 -3.70314881 -32.52869752 -4.47302434 -30.89306641 -5.26220703 C-19.77916066 -10.2860981 -10.29651174 -4.64882091 0 0 Z " fill="#93E571" transform="translate(97.5625,244.5625)"/>
<path d="M0 0 C1.77843108 0.771863 3.5588777 1.53909473 5.34106445 2.30224609 C6.26698395 2.69885437 7.19290344 3.09546265 8.1468811 3.50408936 C28.20028386 11.98339518 45.07460809 15.08973048 66.70878601 14.2199707 C77.09839191 13.92928588 87.29433979 16.64555649 97.08203125 19.96875 C97.83581055 20.22406494 98.58958984 20.47937988 99.36621094 20.74243164 C110.34745505 24.63858458 118.60176147 30.30930935 124.70703125 40.28125 C125.9287073 43.4711819 126.0739236 45.83225717 125.83203125 49.21875 C126.36755615 49.36497803 126.90308105 49.51120605 127.45483398 49.66186523 C135.0579888 51.83385998 142.4101367 54.60729113 149.77612305 57.4621582 C151.91876453 58.29061991 154.06564911 59.10737444 156.21289062 59.92382812 C157.57709363 60.44981926 158.94103615 60.97648659 160.3046875 61.50390625 C161.53453369 61.97707275 162.76437988 62.45023926 164.03149414 62.93774414 C166.83203125 64.21875 166.83203125 64.21875 167.83203125 66.21875 C147.17793074 74.96330919 126.4930048 83.62432526 105.73266602 92.11376953 C91.42411761 97.96607992 77.14236448 103.88199881 62.8659668 109.81225586 C62.02959183 110.15958267 61.19321686 110.50690948 60.33149719 110.86476135 C58.7721825 111.51240146 57.21299955 112.16035886 55.65397644 112.80870056 C54.30023429 113.37107966 52.94569161 113.93153781 51.59014893 114.48956299 C50.06313752 115.12289766 48.54464593 115.77669917 47.02783203 116.43408203 C43.03621126 117.86048509 39.50321423 116.93021377 35.67578125 115.30078125 C34.08659689 114.53571783 32.50158416 113.76194718 30.92016602 112.98095703 C19.27760716 107.30299936 9.49427231 106.34586698 -3.28613281 106.28759766 C-22.60913306 105.82596719 -45.99384059 101.55395587 -60.60546875 87.94921875 C-64.80669546 83.42539785 -67.89643596 79.55748602 -68.41122437 73.22770691 C-68.86005831 70.09952529 -68.86005831 70.09952529 -71.29116821 68.64424133 C-72.22713837 68.25802109 -73.16310852 67.87180084 -74.12744141 67.47387695 C-75.18589264 67.02353592 -76.24434387 66.57319489 -77.33486938 66.10920715 C-78.4889328 65.64648911 -79.64299622 65.18377106 -80.83203125 64.70703125 C-82.60288589 63.96467476 -82.60288589 63.96467476 -84.40951538 63.20732117 C-87.55160294 61.89040508 -90.70469933 60.60220197 -93.86096191 59.31970215 C-97.04972394 58.01836811 -100.22753703 56.69088023 -103.40625 55.36523438 C-108.07567874 53.42086855 -112.75085513 51.49113453 -117.43212891 49.57543945 C-121.69559161 47.82971373 -125.94150735 46.05213784 -130.16796875 44.21875 C-128.64311366 41.16903982 -126.3004055 40.82355541 -123.1875 39.5234375 C-122.56066315 39.25940628 -121.93382629 38.99537506 -121.28799438 38.7233429 C-119.18804826 37.84056086 -117.08427671 36.96728427 -114.98046875 36.09375 C-113.48873957 35.46850839 -111.99728974 34.84259992 -110.50610352 34.21606445 C-107.34371107 32.88849094 -104.1797996 31.56463491 -101.01464844 30.24365234 C-95.54151079 27.9586743 -90.07457426 25.65908214 -84.60916138 23.35569763 C-80.70314478 21.70955294 -76.79586286 20.06660549 -72.88525391 18.43139648 C-65.21626011 15.22001819 -57.56791491 11.97121752 -49.96092224 8.61515808 C-46.31316304 7.0068493 -42.65915398 5.41300527 -39.00491333 3.81948853 C-37.25589251 3.05158101 -35.51008611 2.27630487 -33.76779175 1.49325562 C-31.3399359 0.40257276 -28.90213499 -0.66224416 -26.4609375 -1.72265625 C-25.39924347 -2.21194611 -25.39924347 -2.21194611 -24.31610107 -2.71112061 C-15.49161464 -6.47247582 -8.33626798 -3.81059094 0 0 Z M9.83203125 25.21875 C8.83171875 25.42282471 7.83140625 25.62689941 6.80078125 25.8371582 C-16.59655833 30.73951928 -43.01873918 38.72358862 -58.01171875 58.671875 C-60.78096593 63.19497872 -62.04615404 66.85206211 -61.16796875 72.21875 C-58.7179487 80.32638212 -52.81249823 84.6102779 -45.6640625 88.625 C-8.92136377 106.58566346 38.81467002 99.01830061 75.99316406 86.48681641 C92.38304287 80.7143631 109.87594096 72.67586827 117.83203125 56.21875 C118.81505061 50.90366599 118.94173074 45.13082801 116.01953125 40.40625 C109.92495635 33.46988299 101.62802642 29.85487891 93.08203125 26.90625 C92.04816284 26.54261353 92.04816284 26.54261353 90.9934082 26.17163086 C77.93992089 21.96700888 64.26212288 21.87023436 50.68994141 21.90307617 C47.96736604 21.906238 45.24587983 21.88267053 42.5234375 21.85742188 C31.29031775 21.81654504 20.80591582 22.84787581 9.83203125 25.21875 Z " fill="#53CC7B" transform="translate(231.16796875,93.78125)"/>
<path d="M0 0 C1.81979138 0.63319264 3.62046868 1.3238428 5.3984375 2.06640625 C6.37167969 2.46923828 7.34492188 2.87207031 8.34765625 3.28710938 C9.34667969 3.70798828 10.34570312 4.12886719 11.375 4.5625 C12.39722656 4.98724609 13.41945313 5.41199219 14.47265625 5.84960938 C16.98417905 6.89412119 19.49312619 7.94439049 22 9 C19.04262806 11.39197927 16.15876891 12.94537305 12.6640625 14.43359375 C11.56247803 14.90651855 10.46089355 15.37944336 9.32592773 15.86669922 C8.72835663 16.12030212 8.13078552 16.37390503 7.5151062 16.63519287 C5.55880207 17.46559952 3.60539418 18.30251592 1.65258789 19.14111328 C-0.51752159 20.07302201 -2.68778127 21.00456161 -4.85881042 21.93432617 C-13.48413199 25.62934165 -22.08612749 29.37776377 -30.68927002 33.12405396 C-35.61636425 35.26921083 -40.54450264 37.41196575 -45.47265625 39.5546875 C-46.48745056 39.9959346 -47.50224487 40.4371817 -48.54779053 40.89179993 C-60.52917439 46.10072189 -72.51463875 51.30023807 -84.5 56.5 C-108.67225927 66.98715426 -132.8372637 77.49092658 -157 88 C-164.59 91.3 -172.18 94.6 -180 98 C-180.33 122.75 -180.66 147.5 -181 173 C-191.13639433 169.62120189 -191.13639433 169.62120189 -195.4375 167.7734375 C-196.35144531 167.3815625 -197.26539063 166.9896875 -198.20703125 166.5859375 C-199.12871094 166.18632812 -200.05039063 165.78671875 -201 165.375 C-201.95261719 164.96765625 -202.90523437 164.5603125 -203.88671875 164.140625 C-210.86624765 161.13375235 -210.86624765 161.13375235 -212 160 C-212.09492722 157.65746218 -212.12559791 155.34453896 -212.11352539 153.00170898 C-212.11367142 152.27004517 -212.11381744 151.53838135 -212.1139679 150.7845459 C-212.11326867 148.35503216 -212.10547585 145.92559417 -212.09765625 143.49609375 C-212.0957921 141.81600486 -212.09436819 140.13591543 -212.09336853 138.45582581 C-212.08954307 134.02526357 -212.07971256 129.5947339 -212.06866455 125.16418457 C-212.05845103 120.64657024 -212.05387104 116.12895066 -212.04882812 111.61132812 C-212.03809031 102.74087107 -212.02101356 93.87043824 -212 85 C-206.15055359 82.00431532 -200.30616105 79.1765625 -194.1953125 76.7578125 C-193.48673096 76.47300522 -192.77814941 76.18819794 -192.0480957 75.89476013 C-190.53098364 75.28522675 -189.01316488 74.67744976 -187.49468994 74.07131958 C-183.36754016 72.42317035 -179.24640003 70.76012017 -175.125 69.09765625 C-174.27874054 68.75655319 -173.43248108 68.41545013 -172.56057739 68.06401062 C-164.05433228 64.62955971 -155.58694156 61.10440839 -147.125 57.5625 C-134.7070462 52.36826638 -122.26973572 47.22431472 -109.8125 42.125 C-92.15867398 34.89673118 -74.53285359 27.60229408 -56.91549683 20.28564453 C-50.40232865 17.58101278 -43.88703646 14.88153345 -37.37109375 12.18359375 C-34.52340166 11.00417762 -31.67573079 9.82471028 -28.82806396 8.64523315 C-26.99421541 7.88582777 -25.16027272 7.12664966 -23.32623291 6.3677063 C-20.79143337 5.31871434 -18.25700437 4.26883201 -15.72265625 3.21875 C-14.96641464 2.90606674 -14.21017303 2.59338348 -13.43101501 2.27122498 C-5.23473165 -1.12707059 -5.23473165 -1.12707059 0 0 Z " fill="#F3F4F3" transform="translate(446,143)"/>
<path d="M0 0 C1.11375 0.43183594 2.2275 0.86367188 3.375 1.30859375 C6 2.5625 6 2.5625 7 4.5625 C-8.22648185 11.46726573 -23.49685746 18.25205595 -38.875 24.8125 C-51.2095283 30.07532782 -63.52275078 35.38337404 -75.8125 40.75 C-76.61410553 41.0999704 -77.41571106 41.4499408 -78.24160767 41.81051636 C-81.56096341 43.25972521 -84.88029154 44.70899723 -88.19950867 46.15852356 C-98.31557968 50.57534019 -108.43907759 54.97506578 -118.5625 59.375 C-120.47705277 60.20718945 -122.39160354 61.03938346 -124.30615234 61.87158203 C-127.21034339 63.1339338 -130.11454268 64.39626661 -133.01876831 65.65853882 C-140.31241822 68.82866969 -147.60551851 72.00006303 -154.8984375 75.171875 C-158.05744013 76.54569431 -161.21644841 77.91950061 -164.37545776 79.29330444 C-166.39853411 80.17314919 -168.42158552 81.05305129 -170.4446106 81.93301392 C-173.25336485 83.15473037 -176.06221877 84.3762174 -178.87109375 85.59765625 C-179.69503632 85.95611633 -180.51897888 86.31457642 -181.3678894 86.68389893 C-182.14165924 87.0203241 -182.91542908 87.35674927 -183.71264648 87.70336914 C-184.37554184 87.99168106 -185.03843719 88.27999298 -185.72142029 88.57704163 C-188.81096021 89.91323056 -191.90606202 91.23652658 -195 92.5625 C-195.33 117.3125 -195.66 142.0625 -196 167.5625 C-203.54983048 165.67504238 -209.88466524 164.07392544 -216.75 160.875 C-217.45898438 160.55466797 -218.16796875 160.23433594 -218.8984375 159.90429688 C-220.60302758 159.13262434 -222.30216884 158.34893194 -224 157.5625 C-224 156.9025 -224 156.2425 -224 155.5625 C-224.99 155.2325 -225.98 154.9025 -227 154.5625 C-227 129.8125 -227 105.0625 -227 79.5625 C-218.00022201 75.062611 -218.00022201 75.062611 -214.05957031 73.44360352 C-213.17795227 73.07964981 -212.29633423 72.71569611 -211.38800049 72.3407135 C-210.46074158 71.96144211 -209.53348267 71.58217072 -208.578125 71.19140625 C-207.1062674 70.58509621 -207.1062674 70.58509621 -205.60467529 69.96653748 C-202.48760267 68.68320175 -199.368857 67.40399224 -196.25 66.125 C-193.15200947 64.85116157 -190.05436216 63.57649292 -186.95687866 62.30142212 C-184.97176574 61.48522804 -182.98595719 60.67072353 -180.99942017 59.85800171 C-176.98677103 58.21496446 -172.97909294 56.5690885 -169.00927734 54.82470703 C-167.94660645 54.3604834 -166.88393555 53.89625977 -165.7890625 53.41796875 C-164.93006348 53.0314917 -164.07106445 52.64501465 -163.18603516 52.24682617 C-159.7415467 51.16854818 -157.2537289 52.26100844 -154 53.5625 C-148.61967661 53.15983328 -144.04350243 51.0894757 -139.15234375 48.9765625 C-138.28491547 48.6081575 -137.41748718 48.2397525 -136.52377319 47.86018372 C-133.65907972 46.64196673 -130.7983539 45.41470343 -127.9375 44.1875 C-125.9165486 43.32622625 -123.89530329 42.46564184 -121.8737793 41.60571289 C-117.67027611 39.81704489 -113.46805824 38.025403 -109.26660156 36.23193359 C-103.34835688 33.70797966 -97.42204671 31.20355713 -91.4921875 28.70703125 C-90.56386612 28.31596191 -89.63554474 27.92489258 -88.67909241 27.52197266 C-84.96415578 25.95732014 -81.2490012 24.39320283 -77.53231812 22.83270264 C-67.03074978 18.42306546 -56.56535007 13.94728321 -46.15234375 9.33203125 C-43.27570261 8.06611199 -40.39838714 6.80173863 -37.52084351 5.53787231 C-35.69438659 4.73014365 -33.87121633 3.91493584 -32.05166626 3.09176636 C-29.53697637 1.95417483 -27.01232371 0.8421199 -24.484375 -0.265625 C-23.75512314 -0.60413986 -23.02587128 -0.94265472 -22.27452087 -1.29142761 C-14.45383076 -4.65747525 -7.74930275 -3.07961678 0 0 Z " fill="#F3F4F3" transform="translate(446,274.4375)"/>
<path d="M0 0 C0.71921631 0.28439941 1.43843262 0.56879883 2.17944336 0.86181641 C3.67237234 1.45624298 5.15968334 2.0649687 6.64111328 2.6875 C8.85214153 3.61540694 11.07572293 4.50111682 13.30859375 5.375 C16.84339996 6.7618892 20.3622909 8.18310194 23.875 9.625 C23.875 10.285 23.875 10.945 23.875 11.625 C10.74555944 17.47591251 -2.4224452 23.21317165 -15.6875 28.75 C-27.56063366 33.70603476 -39.41226982 38.70995841 -51.25 43.75 C-66.64285474 50.30206279 -82.04939387 56.82104976 -97.46377563 63.32229614 C-109.41597086 68.36377391 -121.36185106 73.41963211 -133.29736328 78.50048828 C-136.67355098 79.93764334 -140.05079503 81.37226246 -143.42919922 82.80419922 C-145.0296401 83.48270563 -146.63006366 84.16125291 -148.23046875 84.83984375 C-148.99685669 85.16476807 -149.76324463 85.48969238 -150.55285645 85.82446289 C-155.29300629 87.83742076 -160.01874576 89.88058652 -164.73828125 91.94140625 C-165.8574292 92.42407959 -166.97657715 92.90675293 -168.12963867 93.40405273 C-170.12595489 94.26515056 -172.11754863 95.13733429 -174.1027832 96.02368164 C-174.95831787 96.38969482 -175.81385254 96.75570801 -176.6953125 97.1328125 C-177.41477051 97.44879395 -178.13422852 97.76477539 -178.87548828 98.09033203 C-183.83107958 99.26818583 -188.24590727 97.33538385 -192.7421875 95.33984375 C-194.26972656 94.66791992 -194.26972656 94.66791992 -195.828125 93.98242188 C-196.87484375 93.51384766 -197.9215625 93.04527344 -199 92.5625 C-200.06992187 92.09005859 -201.13984375 91.61761719 -202.2421875 91.13085938 C-204.8725638 89.96832699 -207.49997517 88.79955398 -210.125 87.625 C-210.125 86.965 -210.125 86.305 -210.125 85.625 C-187.65017311 75.73948094 -165.16628189 65.87748557 -142.62744141 56.13867188 C-136.79183076 53.61665975 -130.95829913 51.0898531 -125.125 48.5625 C-123.91626221 48.03881836 -122.70752441 47.51513672 -121.4621582 46.97558594 C-105.07735928 39.87500909 -88.70345296 32.74933729 -72.32807922 25.62705994 C-64.97324632 22.42832987 -57.61761244 19.23144602 -50.26171875 16.03515625 C-47.1245813 14.67183095 -43.98745852 13.30847188 -40.8503418 11.94509888 C-38.84486263 11.07361479 -36.83932985 10.20225404 -34.83374023 9.33102417 C-32.03875237 8.11685493 -29.24396547 6.90222418 -26.44921875 5.6875 C-25.63555344 5.33418106 -24.82188812 4.98086212 -23.98356628 4.61683655 C-22.8232061 4.1123423 -22.8232061 4.1123423 -21.6394043 3.59765625 C-20.52266327 3.11587418 -20.52266327 3.11587418 -19.38336182 2.62435913 C-17.80761935 1.92706935 -16.24357582 1.2029965 -14.68939209 0.45889282 C-13.89978088 0.08525604 -13.11016968 -0.28838074 -12.29663086 -0.67333984 C-11.24069984 -1.18760025 -11.24069984 -1.18760025 -10.16343689 -1.71224976 C-6.42174933 -2.92877226 -3.46266537 -1.5161283 0 0 Z " fill="#94E571" transform="translate(476.125,154.375)"/>
<path d="M0 0 C1.4366713 0.51095924 2.87008894 1.031125 4.30078125 1.55859375 C5.05157959 1.82945801 5.80237793 2.10032227 6.57592773 2.37939453 C13.9903269 5.07935939 21.31434074 8.0000221 28.61328125 10.99609375 C28.61328125 11.65609375 28.61328125 12.31609375 28.61328125 12.99609375 C7.40232015 22.49925949 -14.02648815 31.48228198 -35.44824219 40.49658203 C-44.88868355 44.46938465 -54.32550115 48.45077127 -63.76171875 52.43359375 C-64.68248199 52.82213531 -65.60324524 53.21067688 -66.5519104 53.61099243 C-82.13917067 60.18937201 -97.70865688 66.80901769 -113.27355957 73.44009399 C-127.17460637 79.36159204 -141.08571952 85.25850652 -155.01171875 91.12109375 C-155.82003143 91.46151703 -156.62834412 91.80194031 -157.46115112 92.15267944 C-159.71993018 93.10371825 -161.97902185 94.05400918 -164.23828125 95.00390625 C-164.89430832 95.28000229 -165.55033539 95.55609833 -166.22624207 95.84056091 C-167.94501209 96.56238791 -169.66578525 97.27944007 -171.38671875 97.99609375 C-172.25603027 98.40843262 -173.1253418 98.82077148 -174.02099609 99.24560547 C-178.73367753 100.74062949 -182.75952324 98.55517634 -187.125 96.7109375 C-188.19169922 96.26298828 -189.25839844 95.81503906 -190.35742188 95.35351562 C-191.46021484 94.88494141 -192.56300781 94.41636719 -193.69921875 93.93359375 C-194.82134766 93.46115234 -195.94347656 92.98871094 -197.09960938 92.50195312 C-199.86376152 91.33748052 -202.62602275 90.16873103 -205.38671875 88.99609375 C-205.38671875 88.33609375 -205.38671875 87.67609375 -205.38671875 86.99609375 C-184.18969437 77.66425487 -162.98052609 68.36295417 -141.71582031 59.1862793 C-129.11739273 53.74897365 -116.53168526 48.28272637 -103.94921875 42.80859375 C-91.43179051 37.36319987 -78.91366693 31.91955676 -66.38671875 26.49609375 C-54.19448347 21.21646371 -42.00715227 15.92557088 -29.82177734 10.63012695 C-27.70695201 9.71115218 -25.59204381 8.79236806 -23.47705078 7.8737793 C-20.51441184 6.58696942 -17.55208569 5.2994422 -14.58984375 4.01171875 C-13.23901703 3.42520538 -13.23901703 3.42520538 -11.86090088 2.82684326 C-10.62312897 2.28848846 -10.62312897 2.28848846 -9.36035156 1.73925781 C-8.63809387 1.42539124 -7.91583618 1.11152466 -7.17169189 0.78814697 C-3.23468095 -0.95883853 -3.23468095 -0.95883853 0 0 Z " fill="#94E571" transform="translate(456.38671875,279.00390625)"/>
<path d="M0 0 C0.33 0.66 0.66 1.32 1 2 C3.97 2.99 6.94 3.98 10 5 C16.6 7.97 23.2 10.94 30 14 C30 38.75 30 63.5 30 89 C22.45016952 87.11254238 16.11533476 85.51142544 9.25 82.3125 C8.54101562 81.99216797 7.83203125 81.67183594 7.1015625 81.34179688 C5.39697242 80.57012434 3.69783116 79.78643194 2 79 C2 78.34 2 77.68 2 77 C1.01 76.67 0.02 76.34 -1 76 C-1.02312446 66.23849012 -1.04091561 56.4769867 -1.05181217 46.71545506 C-1.05704078 42.18325906 -1.06413801 37.65108173 -1.07543945 33.11889648 C-1.08626914 28.7487717 -1.09227701 24.37866492 -1.09487724 20.00852776 C-1.09673135 18.33749037 -1.10035168 16.66645403 -1.10573006 14.99542427 C-1.11294159 12.66302449 -1.1139909 10.33070007 -1.11352539 7.99829102 C-1.11712067 7.3005809 -1.12071594 6.60287079 -1.12442017 5.88401794 C-1.11405216 1.11405216 -1.11405216 1.11405216 0 0 Z " fill="#E3E5E4" transform="translate(220,353)"/>
<path d="M0 0 C0.33 0.66 0.66 1.32 1 2 C3.97 2.99 6.94 3.98 10 5 C16.6 7.97 23.2 10.94 30 14 C30 38.75 30 63.5 30 89 C19.86360567 85.62120189 19.86360567 85.62120189 15.5625 83.7734375 C14.64855469 83.3815625 13.73460937 82.9896875 12.79296875 82.5859375 C11.41044922 81.98652344 11.41044922 81.98652344 10 81.375 C9.04738281 80.96765625 8.09476563 80.5603125 7.11328125 80.140625 C0.13375235 77.13375235 0.13375235 77.13375235 -1 76 C-1.10023555 73.66285675 -1.13619203 71.35525675 -1.12939453 69.01757812 C-1.13114685 68.2875206 -1.13289917 67.55746307 -1.13470459 66.80528259 C-1.13912299 64.38058122 -1.13618517 61.95595218 -1.1328125 59.53125 C-1.13348554 57.85355617 -1.13445557 56.17586244 -1.13571167 54.49816895 C-1.13718863 50.97744826 -1.13503416 47.4567529 -1.13037109 43.93603516 C-1.1246738 39.41289504 -1.12795282 34.88981426 -1.13394356 30.36667633 C-1.13754923 26.90097605 -1.13641056 23.43528993 -1.13381577 19.96958923 C-1.13314651 18.30134575 -1.13397486 16.63310101 -1.13629532 14.96485901 C-1.13882195 12.63734506 -1.13498113 10.30992852 -1.12939453 7.98242188 C-1.13141876 7.28628281 -1.13344299 6.59014374 -1.13552856 5.87290955 C-1.11426274 1.11426274 -1.11426274 1.11426274 0 0 Z " fill="#E5E5E5" transform="translate(235,227)"/>
<path d="M0 0 C9.76426029 3.75548473 19.41555602 7.80680576 29 12 C29.33 37.41 29.66 62.82 30 89 C24.45801119 87.1526704 19.30539378 85.37861219 13.99609375 83.08203125 C13.08296165 82.68886971 13.08296165 82.68886971 12.15138245 82.2877655 C10.24524275 81.46612685 8.34134946 80.6394294 6.4375 79.8125 C5.12970392 79.24770722 3.82176222 78.68325152 2.51367188 78.11914062 C-0.65923901 76.74997252 -3.83015975 75.37626474 -7 74 C-5.515 73.505 -5.515 73.505 -4 73 C-2.68 73.66 -1.36 74.32 0 75 C0 50.25 0 25.5 0 0 Z " fill="#51CB7B" transform="translate(250,367)"/>
<path d="M0 0 C2.65494735 2.38264506 3.76199956 4.04799823 4.625 7.5 C3.8119834 10.75206639 2.06049437 11.56309854 -0.55078125 13.48046875 C-2.42012527 15.4405087 -2.6244812 16.9127031 -3.0625 19.5625 C-3.63634323 23.00555939 -3.86387068 23.84915399 -6.3125 26.5625 C-9.29621298 28.1584395 -10.68655193 28.67968165 -14 28 C-17.58588774 25.23374375 -18.238563 23.40359251 -20 19 C-25.28 19 -30.56 19 -36 19 C-36.23084394 21.1205318 -36.23084394 21.1205318 -34.5 22.5625 C-32.212022 26.28046425 -32.34181531 29.74768315 -33 34 C-36.01689055 40.14981534 -40.60669474 43.230586 -46.88671875 45.61328125 C-52.92404694 47.57791084 -58.84600421 47.2143002 -65.125 47 C-75.45139506 46.62137782 -75.45139506 46.62137782 -85 50 C-88.6875 50.5 -88.6875 50.5 -92 50 C-94.69500656 47.58140437 -95.80636871 45.99236035 -96.5 42.4375 C-95.84146046 39.22711973 -94.53365397 38.01201933 -92 36 C-91.34 36 -90.68 36 -90 36 C-90.0825 34.96875 -90.165 33.9375 -90.25 32.875 C-89.90523588 27.53115608 -87.76184345 24.88334989 -84.1875 21.0625 C-80.85318005 19.44297317 -78.51734349 20.1046762 -75 21 C-73.125 22.125 -73.125 22.125 -72 24 C-71.63290915 26.32826112 -71.29700447 28.66176479 -71 31 C-68.22890693 31.05392397 -65.45886182 31.09363455 -62.6875 31.125 C-61.50897461 31.15013672 -61.50897461 31.15013672 -60.30664062 31.17578125 C-59.54931641 31.18222656 -58.79199219 31.18867188 -58.01171875 31.1953125 C-56.96697388 31.21102295 -56.96697388 31.21102295 -55.90112305 31.22705078 C-53.668827 31.10574595 -53.668827 31.10574595 -51 29 C-51.825 28.195625 -52.65 27.39125 -53.5 26.5625 C-56.31748059 23.17510169 -56.7000573 20.44046846 -56.40234375 16.10546875 C-55.74368923 12.65872324 -54.67378558 11.29181621 -52 9 C-45.44002961 5.10605468 -39.67595922 2.7861166 -31.98046875 3.0078125 C-31.04009766 3.02457031 -30.09972656 3.04132813 -29.13085938 3.05859375 C-27.1801397 3.10260468 -25.22958251 3.15459315 -23.27929688 3.21484375 C-15.16975643 3.33662524 -7.73937998 -1.19067384 0 0 Z " fill="#53CC7A" transform="translate(304,127)"/>
<path d="M0 0 C4.20287096 0.57143183 7.72903686 1.5501859 11.61547852 3.23730469 C12.69422745 3.70158875 13.77297638 4.1658728 14.88441467 4.64422607 C16.614188 5.40041229 16.614188 5.40041229 18.37890625 6.171875 C20.21890408 6.96591621 22.05890301 7.75995487 23.89896297 8.55385208 C26.47230962 9.66608799 29.04299426 10.78440621 31.6137085 11.90270996 C36.08104492 13.84500581 40.55182745 15.77933934 45.02366638 17.71124268 C47.39809461 18.73775227 49.7712784 19.76714722 52.14295959 20.79998779 C58.72451474 23.65123736 65.3449967 26.33873045 72.05497742 28.87367249 C76.83354846 30.70124287 81.543636 32.68268457 86.25 34.6875 C87.18457031 35.07744141 88.11914062 35.46738281 89.08203125 35.86914062 C90.41041016 36.4347168 90.41041016 36.4347168 91.765625 37.01171875 C92.55743164 37.34647217 93.34923828 37.68122559 94.16503906 38.02612305 C96 39 96 39 97 41 C86.66543537 43.08264903 76.56974373 43.34092195 66.0637207 43.31567383 C63.3343869 43.31252525 60.60615299 43.33601452 57.87695312 43.36132812 C37.56773507 43.43494424 15.35355739 41.36749828 -1 28 C-4.9089416 23.98010591 -6.3146048 20.13262199 -6.6875 14.5625 C-6.44198934 8.50092645 -3.79214918 4.5708941 0 0 Z " fill="#93E571" transform="translate(162,274)"/>
</svg>
