<?xml version="1.0" encoding="UTF-8"?>
<svg version="1.1" xmlns="http://www.w3.org/2000/svg" width="512" height="512">
<path d="M0 0 C1.77263255 0.84679136 3.51122465 1.76687045 5.21875 2.73828125 C6.22333252 3.30538818 7.22791504 3.87249512 8.26293945 4.45678711 C9.33116943 5.06917236 10.39939941 5.68155762 11.5 6.3125 C13.15938599 7.25331421 13.15938599 7.25331421 14.85229492 8.21313477 C18.23872916 10.13538784 21.61964189 12.06708643 25 14 C26.96458406 15.11764411 28.92941289 16.23485811 30.89453125 17.3515625 C34.40772643 19.3492861 37.91343738 21.35924906 41.4140625 23.37890625 C44.22011753 24.99484681 47.03902035 26.57045142 49.8984375 28.08984375 C50.98382813 28.67894531 52.06921875 29.26804688 53.1875 29.875 C54.53908203 30.58269531 54.53908203 30.58269531 55.91796875 31.3046875 C59.56549709 34.27471995 59.87083338 37.93011044 60.4140625 42.4296875 C60.48367188 43.56664062 60.55328125 44.70359375 60.625 45.875 C60.73714844 47.60363281 60.73714844 47.60363281 60.8515625 49.3671875 C60.90054687 50.23601562 60.94953125 51.10484375 61 52 C61.83273437 52.23976562 62.66546875 52.47953125 63.5234375 52.7265625 C67.55026898 54.2015592 70.96927126 56.15936757 74.625 58.375 C76.1197741 59.27216468 77.6145666 60.16929872 79.109375 61.06640625 C79.89634766 61.54094238 80.68332031 62.01547852 81.49414062 62.50439453 C84.13289395 64.07931687 86.790574 65.61803225 89.453125 67.15234375 C91.26051847 68.20555448 93.06781203 69.25893668 94.875 70.3125 C95.73689941 70.80347168 96.59879883 71.29444336 97.48681641 71.80029297 C98.6960376 72.51209717 98.6960376 72.51209717 99.9296875 73.23828125 C101.00065674 73.8576355 101.00065674 73.8576355 102.09326172 74.48950195 C104.67340915 76.53346766 105.70374017 77.92981884 107 81 C107.41254455 84.5843178 107.37252815 88.13803511 107.328125 91.7421875 C107.32625183 92.7839212 107.32437866 93.82565491 107.32244873 94.8989563 C107.31573568 97.09949957 107.30183606 99.30003106 107.28125 101.50048828 C107.2501768 104.85590816 107.24028352 108.21085689 107.234375 111.56640625 C107.22520064 113.70833901 107.2148235 115.85026703 107.203125 117.9921875 C107.19887512 118.99031464 107.19462524 119.98844177 107.19024658 121.01681519 C107.14887575 125.08316922 107.07146194 129.03494423 106.43017578 133.05541992 C105.94797821 136.35609238 106.38561745 137.20676976 108 140 C109.33861309 149.60377064 106.75593755 158.45995803 101.1875 166.3125 C96.41734599 172.19367722 91.08479348 177.43658021 83.375 178.5 C77.83168267 178.33390809 73.03917959 175.68197324 69 172 C67.47043098 169.41459998 66.19799712 166.75291476 65 164 C46.85091211 173.98222937 46.85091211 173.98222937 29.16015625 184.7421875 C27 186 27 186 25 186 C25.20625 187.11375 25.4125 188.2275 25.625 189.375 C26.75571334 198.97762523 23.31763287 207.13506838 18 215 C12.90195322 221.2665646 8.17903455 224.96419309 0.1875 226.5625 C-5.4785233 225.56261354 -10.9060457 222.35275764 -14.73828125 218.046875 C-15.99869609 216.00211533 -16.58001694 214.35190514 -17 212 C-17.62648438 212.01160156 -18.25296875 212.02320313 -18.8984375 212.03515625 C-19.71570313 212.04417969 -20.53296875 212.05320312 -21.375 212.0625 C-22.18710937 212.07410156 -22.99921875 212.08570313 -23.8359375 212.09765625 C-26 212 -26 212 -28 211 C-28.2475 211.61875 -28.495 212.2375 -28.75 212.875 C-30 215 -30 215 -32 215.8125 C-32.66 216.204375 -33.32 216.59625 -34 217 C-34.185625 218.0725 -34.37125 219.145 -34.5625 220.25 C-35.22563545 223.23410952 -35.9264294 223.94639856 -38.4609375 225.79296875 C-46.07556413 230 -46.07556413 230 -50 230 C-51.36145317 231.30460753 -52.69090317 232.64286292 -54 234 C-55.64976681 235.15978867 -57.33923615 236.2650259 -59.0625 237.3125 C-59.91972656 237.84488281 -60.77695313 238.37726563 -61.66015625 238.92578125 C-64 240 -64 240 -67 239 C-67.21785156 239.59296875 -67.43570313 240.1859375 -67.66015625 240.796875 C-69.44506479 243.73182665 -71.41519333 244.66057976 -74.4375 246.25 C-75.40558594 246.77078125 -76.37367188 247.2915625 -77.37109375 247.828125 C-80 249 -80 249 -83 249 C-84.14405977 250.17770859 -85.28638516 251.35717383 -86.41796875 252.546875 C-89.5300911 255.40541701 -93.03384639 257.54504418 -97 259 C-100.85066743 258.35822209 -102.76104625 257.1593025 -106 255 C-110.10042337 255.45280749 -113.26565259 257.88724563 -116.68359375 260.0390625 C-119.63539385 261.26358666 -120.98207242 260.97004815 -124 260 C-126.45703125 258.80859375 -126.45703125 258.80859375 -128.8125 257.4375 C-129.60269531 256.98246094 -130.39289063 256.52742188 -131.20703125 256.05859375 C-131.79871094 255.70925781 -132.39039063 255.35992187 -133 255 C-133.21875 252.70703125 -133.21875 252.70703125 -133 250 C-131.46875 248.19921875 -131.46875 248.19921875 -129.5 246.6875 C-128.8503125 246.17574219 -128.200625 245.66398438 -127.53125 245.13671875 C-126.77328125 244.57404297 -126.77328125 244.57404297 -126 244 C-134.14852017 238.83707123 -142.44919225 233.93522012 -150.79083252 229.09207153 C-151.9700028 228.4068187 -153.14819048 227.71987218 -154.32537842 227.03121948 C-156.00697311 226.04836138 -157.69287552 225.072885 -159.37890625 224.09765625 C-160.3644751 223.52539307 -161.35004395 222.95312988 -162.36547852 222.36352539 C-164.65800741 221.177002 -166.4498971 220.32400411 -169 220 C-171.45200202 221.23267204 -171.45200202 221.23267204 -173.875 223 C-178.62206155 225.97732369 -178.62206155 225.97732369 -182.125 226.1875 C-186.08819506 224.55052813 -189.74784094 222.8376682 -193 220 C-193.875 217.5 -193.875 217.5 -193 215 C-191.12099722 213.13710296 -189.10372025 211.62161769 -187 210 C-187 209.34 -187 208.68 -187 208 C-193.435 204.535 -193.435 204.535 -200 201 C-200 199.02 -200 197.04 -200 195 C-197.76953125 192.8828125 -197.76953125 192.8828125 -194.8125 191.125 C-193.36810547 190.23167969 -193.36810547 190.23167969 -191.89453125 189.3203125 C-188.94987204 187.97713461 -187.18593602 187.70878099 -184 188 C-183.814375 187.43023437 -183.62875 186.86046875 -183.4375 186.2734375 C-181.35277856 182.97640523 -178.31269586 181.50008794 -175 179.625 C-174.32952637 179.22563232 -173.65905273 178.82626465 -172.96826172 178.41479492 C-169.9616243 176.63349728 -167.01328111 175.00595529 -163.8203125 173.57421875 C-161.02321733 172.26485391 -159.06451195 171.3090555 -157 169 C-156.54975304 165.72886407 -156.54975304 165.72886407 -156.6875 162.125 C-156.66038 155.66366003 -156.66038 155.66366003 -153.640625 152.62890625 C-150.8100851 150.91332292 -147.95880399 149.41964386 -144.96484375 148.01220703 C-142.84899727 146.92220958 -140.95565806 145.66378884 -139 144.30859375 C-131.19318464 139.04829616 -131.19318464 139.04829616 -127 138 C-122.16950503 138.94395044 -118.85533008 141.0141971 -115 144 C-113.515 144.99 -113.515 144.99 -112 146 C-111.67 145.01 -111.34 144.02 -111 143 C-109.26586914 141.74145508 -109.26586914 141.74145508 -107.03515625 140.51953125 C-106.23529297 140.07802734 -105.43542969 139.63652344 -104.61132812 139.18164062 C-103.77021484 138.72982422 -102.92910156 138.27800781 -102.0625 137.8125 C-101.22525391 137.34908203 -100.38800781 136.88566406 -99.52539062 136.40820312 C-93.28622054 133 -93.28622054 133 -91 133 C-91.03330917 131.42265579 -91.03330917 131.42265579 -91.06729126 129.81344604 C-91.2701244 119.89702568 -91.41996371 109.98102663 -91.51812172 100.06300163 C-91.57028486 94.96397244 -91.64101114 89.86661916 -91.75439453 84.76855469 C-91.86316299 79.84711422 -91.92286279 74.92728373 -91.94877243 70.00473404 C-91.96723153 68.12824268 -92.00328219 66.25183829 -92.05730057 64.37603378 C-92.46071394 49.78524217 -92.46071394 49.78524217 -88.88299561 45.41265869 C-86.16303258 43.61791839 -84.21585996 42.53921525 -81 42 C-76.64328192 43.33561932 -72.91047824 45.69971868 -69 48 C-68.84144531 47.10796875 -68.68289062 46.2159375 -68.51953125 45.296875 C-68.28621094 44.12640625 -68.05289063 42.9559375 -67.8125 41.75 C-67.48185547 40.00976562 -67.48185547 40.00976562 -67.14453125 38.234375 C-65.17885975 32.6795081 -60.25286543 30.43169279 -55.30078125 27.63671875 C-53.62798096 26.68744507 -53.62798096 26.68744507 -51.92138672 25.71899414 C-50.71843911 25.04180344 -49.51547653 24.36463933 -48.3125 23.6875 C-46.43983468 22.62703292 -44.56807155 21.56498534 -42.6963501 20.50285339 C-41.41061955 19.7733656 -40.12460585 19.04437665 -38.83831787 18.31587219 C-30.86390358 13.79708323 -22.9342878 9.2009416 -15.0012207 4.61010742 C-13.97730225 4.01818604 -12.95338379 3.42626465 -11.8984375 2.81640625 C-10.99786621 2.29506104 -10.09729492 1.77371582 -9.16943359 1.23657227 C-5.45799807 -0.87893763 -4.18413327 -1.13641725 0 0 Z M-57 40 C-57.34019152 41.39417773 -57.67181779 42.79044658 -58 44.1875 C-58.185625 44.96480469 -58.37125 45.74210937 -58.5625 46.54296875 C-59.03340603 49.18761066 -59.35372639 51.32740059 -59 54 C-57.29198815 55.77066859 -57.29198815 55.77066859 -54.9375 57.0625 C-53.80634766 57.76052734 -53.80634766 57.76052734 -52.65234375 58.47265625 C-49.90545017 60.12849172 -49.90545017 60.12849172 -46.390625 61.51049805 C-44.13504148 62.81094968 -43.1851892 63.44990976 -42.34584045 65.94313049 C-42.09106566 68.43768111 -42.0568632 70.85207941 -42.09765625 73.359375 C-42.08536484 74.26375305 -42.07307343 75.1681311 -42.06040955 76.09991455 C-42.02865479 78.98409966 -42.04496282 81.86573447 -42.0625 84.75 C-42.04939255 86.70705504 -42.03315349 88.66409179 -42.01367188 90.62109375 C-41.97279538 95.41460742 -41.97501354 100.20639538 -42 105 C-41.10394043 104.54834473 -40.20788086 104.09668945 -39.28466797 103.63134766 C-38.06223428 103.01713356 -36.83973624 102.40304756 -35.6171875 101.7890625 C-34.97917206 101.46757233 -34.34115662 101.14608215 -33.68380737 100.81484985 C-30.05734366 98.99651913 -26.41066316 97.27989057 -22.6953125 95.6484375 C-15.62743546 92.29582553 -15.62743546 92.29582553 -10 87 C-7.89175238 80.20025073 -8.87280927 72.91825355 -10 66 C-21.55352148 59.36377222 -33.13338857 52.77516817 -44.75 46.25 C-45.85077881 45.6297998 -46.95155762 45.00959961 -48.08569336 44.37060547 C-49.1041333 43.79971191 -50.12257324 43.22881836 -51.171875 42.640625 C-52.0803418 42.13047852 -52.98880859 41.62033203 -53.92480469 41.09472656 C-55.75637187 39.92223553 -55.75637187 39.92223553 -57 40 Z " fill="#4D4C4C" transform="translate(302,126)"/>
<path d="M0 0 C1.93656847 1.13818289 3.86985063 2.28196599 5.80078125 3.4296875 C9.0300403 5.45314548 9.0300403 5.45314548 12.67578125 6.8515625 C16.64025291 8.66861201 19.17920563 10.05121187 22.05078125 13.359375 C22.94362874 17.56358695 22.80708163 21.78564389 22.3034668 26.03759766 C22.09726679 28.85413299 22.02162161 30.71259417 23.05078125 33.359375 C25.78612034 34.90600269 25.78612034 34.90600269 29.04296875 36.1953125 C32.35864258 37.86450195 32.35864258 37.86450195 35.05078125 40.359375 C37.05905304 46.81837355 36.00077236 54.26718602 35.61328125 60.921875 C34.7304675 71.22102565 34.7304675 71.22102565 36.05078125 81.359375 C39.30506716 84.79334934 42.49577775 86.22771733 47.05078125 87.359375 C47.20825195 90.22705078 47.20825195 90.22705078 47.05078125 93.359375 C44.53125 95.4765625 44.53125 95.4765625 41.23828125 97.234375 C39.61986328 98.12769531 39.61986328 98.12769531 37.96875 99.0390625 C35.05078125 100.359375 35.05078125 100.359375 32.05078125 100.359375 C30.68932808 101.66398253 29.35987808 103.00223792 28.05078125 104.359375 C26.40101444 105.51916367 24.7115451 106.6244009 22.98828125 107.671875 C22.13105469 108.20425781 21.27382812 108.73664063 20.390625 109.28515625 C18.05078125 110.359375 18.05078125 110.359375 15.05078125 109.359375 C14.83292969 109.95234375 14.61507812 110.5453125 14.390625 111.15625 C12.60571646 114.09120165 10.63558792 115.01995476 7.61328125 116.609375 C6.64519531 117.13015625 5.67710937 117.6509375 4.6796875 118.1875 C2.05078125 119.359375 2.05078125 119.359375 -0.94921875 119.359375 C-2.09327852 120.53708359 -3.23560391 121.71654883 -4.3671875 122.90625 C-7.47930985 125.76479201 -10.98306514 127.90441918 -14.94921875 129.359375 C-18.79988618 128.71759709 -20.710265 127.5186775 -23.94921875 125.359375 C-28.04964212 125.81218249 -31.21487134 128.24662063 -34.6328125 130.3984375 C-37.5846126 131.62296166 -38.93129117 131.32942315 -41.94921875 130.359375 C-44.40625 129.16796875 -44.40625 129.16796875 -46.76171875 127.796875 C-47.55191406 127.34183594 -48.34210938 126.88679688 -49.15625 126.41796875 C-49.74792969 126.06863281 -50.33960938 125.71929687 -50.94921875 125.359375 C-51.16796875 123.06640625 -51.16796875 123.06640625 -50.94921875 120.359375 C-49.41796875 118.55859375 -49.41796875 118.55859375 -47.44921875 117.046875 C-46.79953125 116.53511719 -46.14984375 116.02335937 -45.48046875 115.49609375 C-44.97515625 115.12097656 -44.46984375 114.74585938 -43.94921875 114.359375 C-52.09773892 109.19644623 -60.398411 104.29459512 -68.74005127 99.45144653 C-69.91922155 98.7661937 -71.09740923 98.07924718 -72.27459717 97.39059448 C-73.95619186 96.40773638 -75.64209427 95.43226 -77.328125 94.45703125 C-78.31369385 93.88476807 -79.2992627 93.31250488 -80.31469727 92.72290039 C-82.60722616 91.536377 -84.39911585 90.68337911 -86.94921875 90.359375 C-89.40122077 91.59204704 -89.40122077 91.59204704 -91.82421875 93.359375 C-96.5712803 96.33669869 -96.5712803 96.33669869 -100.07421875 96.546875 C-104.03741381 94.90990313 -107.69705969 93.1970432 -110.94921875 90.359375 C-111.82421875 87.859375 -111.82421875 87.859375 -110.94921875 85.359375 C-109.07021597 83.49647796 -107.052939 81.98099269 -104.94921875 80.359375 C-104.94921875 79.699375 -104.94921875 79.039375 -104.94921875 78.359375 C-111.38421875 74.894375 -111.38421875 74.894375 -117.94921875 71.359375 C-117.94921875 69.379375 -117.94921875 67.399375 -117.94921875 65.359375 C-115.71875 63.2421875 -115.71875 63.2421875 -112.76171875 61.484375 C-111.79878906 60.88882813 -110.83585937 60.29328125 -109.84375 59.6796875 C-106.89909079 58.33650961 -105.13515477 58.06815599 -101.94921875 58.359375 C-101.76359375 57.78960937 -101.57796875 57.21984375 -101.38671875 56.6328125 C-99.30199731 53.33578023 -96.26191461 51.85946294 -92.94921875 49.984375 C-92.27874512 49.58500732 -91.60827148 49.18563965 -90.91748047 48.77416992 C-87.91084305 46.99287228 -84.96249986 45.36533029 -81.76953125 43.93359375 C-78.97243608 42.62422891 -77.0137307 41.6684305 -74.94921875 39.359375 C-74.49897179 36.08823907 -74.49897179 36.08823907 -74.63671875 32.484375 C-74.60959875 26.02303503 -74.60959875 26.02303503 -71.58984375 22.98828125 C-68.75930385 21.27269792 -65.90802274 19.77901886 -62.9140625 18.37158203 C-60.79821602 17.28158458 -58.90487681 16.02316384 -56.94921875 14.66796875 C-49.14240339 9.40767116 -49.14240339 9.40767116 -44.94921875 8.359375 C-40.11872378 9.30332544 -36.80454883 11.3735721 -32.94921875 14.359375 C-31.95921875 15.019375 -30.96921875 15.679375 -29.94921875 16.359375 C-29.45421875 14.874375 -29.45421875 14.874375 -28.94921875 13.359375 C-27.31030273 12.16430664 -27.31030273 12.16430664 -25.1953125 11.01953125 C-24.42251953 10.59607422 -23.64972656 10.17261719 -22.85351562 9.73632812 C-21.63245117 9.08567383 -21.63245117 9.08567383 -20.38671875 8.421875 C-19.59974609 7.99197266 -18.81277344 7.56207031 -18.00195312 7.11914062 C-16.42710322 6.2635544 -14.84591617 5.41952765 -13.25854492 4.58740234 C-11.74553812 3.78283271 -10.24947485 2.9453579 -8.7746582 2.07275391 C-3.70893317 -0.80564906 -3.70893317 -0.80564906 0 0 Z " fill="#E6B76B" transform="translate(219.94921875,255.640625)"/>
<path d="M0 0 C5.05624747 1.45582358 9.16552092 3.67223752 13.625 6.375 C15.1197741 7.27216468 16.6145666 8.16929872 18.109375 9.06640625 C18.89634766 9.54094238 19.68332031 10.01547852 20.49414062 10.50439453 C23.13289395 12.07931687 25.790574 13.61803225 28.453125 15.15234375 C30.26051847 16.20555448 32.06781203 17.25893668 33.875 18.3125 C34.73689941 18.80347168 35.59879883 19.29444336 36.48681641 19.80029297 C37.6960376 20.51209717 37.6960376 20.51209717 38.9296875 21.23828125 C39.64366699 21.65118408 40.35764648 22.06408691 41.09326172 22.48950195 C43.67340915 24.53346766 44.70374017 25.92981884 46 29 C46.41254455 32.5843178 46.37252815 36.13803511 46.328125 39.7421875 C46.32625183 40.7839212 46.32437866 41.82565491 46.32244873 42.8989563 C46.31573568 45.09949957 46.30183606 47.30003106 46.28125 49.50048828 C46.2501768 52.85590816 46.24028352 56.21085689 46.234375 59.56640625 C46.22520064 61.70833901 46.2148235 63.85026703 46.203125 65.9921875 C46.19887512 66.99031464 46.19462524 67.98844177 46.19024658 69.01681519 C46.14887575 73.08316922 46.07146194 77.03494423 45.43017578 81.05541992 C44.94797821 84.35609238 45.38561745 85.20676976 47 88 C48.33861309 97.60377064 45.75593755 106.45995803 40.1875 114.3125 C35.41734599 120.19367722 30.08479348 125.43658021 22.375 126.5 C16.83168267 126.33390809 12.03917959 123.68197324 8 120 C6.47043098 117.41459998 5.19799712 114.75291476 4 112 C-14.14908789 121.98222937 -14.14908789 121.98222937 -31.83984375 132.7421875 C-34 134 -34 134 -36 134 C-35.79375 135.11375 -35.5875 136.2275 -35.375 137.375 C-34.24428666 146.97762523 -37.68236713 155.13506838 -43 163 C-48.09804678 169.2665646 -52.82096545 172.96419309 -60.8125 174.5625 C-66.4785233 173.56261354 -71.9060457 170.35275764 -75.73828125 166.046875 C-76.99869609 164.00211533 -77.58001694 162.35190514 -78 160 C-78.60328125 160.03480469 -79.2065625 160.06960938 -79.828125 160.10546875 C-83.34249728 160.22450394 -86.20810876 160.3167565 -89.5 159 C-91.85386047 155.86151938 -91.74564685 152.87888556 -92 149 C-93.051875 148.62875 -93.051875 148.62875 -94.125 148.25 C-97.66152205 146.71238172 -100.10845518 145.62023084 -103 143 C-103.8572259 139.4457459 -103.69775683 135.96576224 -103.5859375 132.328125 C-103.57744781 131.29057068 -103.56895813 130.25301636 -103.56021118 129.184021 C-103.52663641 125.87162229 -103.45134541 122.56166222 -103.375 119.25 C-103.34490586 117.00394142 -103.3175291 114.75784466 -103.29296875 112.51171875 C-103.22683222 107.00698112 -103.12644303 101.50366475 -103 96 C-97.57941135 97.70671493 -93.01550522 100.03187578 -88.125 102.875 C-87.34125 103.30941406 -86.5575 103.74382812 -85.75 104.19140625 C-85.01007813 104.62066406 -84.27015625 105.04992187 -83.5078125 105.4921875 C-82.83379395 105.87745605 -82.15977539 106.26272461 -81.46533203 106.65966797 C-80.73999268 107.32313232 -80.73999268 107.32313232 -80 108 C-80 109.32 -80 110.64 -80 112 C-79.45923828 111.67950684 -78.91847656 111.35901367 -78.36132812 111.02880859 C-68.61713272 105.25621002 -58.86843545 99.49157137 -49.08300781 93.7890625 C-47.10314445 92.6334341 -45.12594164 91.47323602 -43.15136719 90.30859375 C-37.91891967 87.23208477 -32.65506221 84.26382299 -27.2890625 81.42578125 C-25.64719971 80.53330688 -25.64719971 80.53330688 -23.97216797 79.62280273 C-21.88605565 78.49123143 -19.78402088 77.38834159 -17.66455078 76.32055664 C-12.17894283 73.30127728 -9.48151594 70.99942021 -7.41796875 64.98046875 C-6.90206201 62.99773203 -6.42419781 61.00436046 -6 59 C-5.56880859 57.17275391 -5.56880859 57.17275391 -5.12890625 55.30859375 C-4.74694666 53.37245374 -4.37209899 51.43489889 -4.00390625 49.49609375 C-3 47 -3 47 -0.4296875 45.4609375 C2.19742991 44.26693027 2.19742991 44.26693027 2.55859375 41.85546875 C2.49865234 40.53482422 2.49865234 40.53482422 2.4375 39.1875 C2.37369141 37.60388672 2.37369141 37.60388672 2.30859375 35.98828125 C1.88078155 30.01614828 1.32811662 24.04995344 0.71264648 18.09448242 C0.10174381 12.03911971 -0.11851008 6.08516352 0 0 Z " fill="#FDC23A" transform="translate(363,178)"/>
<path d="M0 0 C6.6773557 1.33547114 6.6773557 1.33547114 9 4 C9.13332838 6.77262425 9.06827538 8.97318969 8.75 11.6875 C8.61754883 12.97889893 8.48509766 14.27029785 8.34863281 15.60083008 C8.23358398 16.72255615 8.11853516 17.84428223 8 19 C9.14412354 19.4427124 10.28824707 19.8854248 11.46704102 20.34155273 C16.27382349 22.52101423 20.63768245 24.8402999 24 29 C26.72164414 36.55572662 25.42791744 45.20595631 24.9375 53.0625 C24.85318091 55.38478838 24.7777287 57.70741486 24.7109375 60.03027344 C24.5744239 64.6217331 24.40525653 69.20997982 24.21044922 73.79931641 C23.91297763 81.47990185 24.13349548 89.07431964 24.5 96.75 C24.92807043 106.28078891 24.97101378 115.70913641 24.71484375 125.24609375 C24.64663009 128.48754203 24.58196306 131.72904504 24.51806641 134.97058105 C24.46476987 137.098647 24.39327518 139.22634252 24.30273438 141.35314941 C23.19381003 152.65003256 23.19381003 152.65003256 27.20898438 162.54321289 C29.85757401 164.17890069 29.85757401 164.17890069 32.67358398 165.05761719 C35 166 35 166 36.10571289 167.90332031 C36.625 170.0625 36.625 170.0625 37 174 C37.144375 174.928125 37.28875 175.85625 37.4375 176.8125 C37 179 37 179 34.8125 180.875 C31.41623358 182.23350657 30.41393978 182.27030317 27 181 C23.97531358 179.6827291 21.39910624 178.28757316 19 176 C17.96892283 172.90134178 18.20484213 170.01847027 18.421875 166.7890625 C18.45798595 164.96876869 18.49311159 163.14845511 18.52734375 161.328125 C18.62899029 158.47416505 18.75011527 155.62270019 18.89306641 152.77050781 C19.47973629 143.78524271 19.47973629 143.78524271 18 135 C15.04682067 132.27989598 12.38686611 131.02427522 8.69824219 129.48925781 C6 128 6 128 5.01269531 125.62792969 C4.82206631 122.85321865 4.93971758 120.32520692 5.25 117.5625 C5.30414063 116.64017578 5.35828125 115.71785156 5.4140625 114.76757812 C5.5549347 112.50188359 5.75093765 110.25593014 6 108 C4.89857666 107.58874878 4.89857666 107.58874878 3.77490234 107.16918945 C1.16587164 106.06988908 -1.02709631 104.82793933 -3.3984375 103.29296875 C-4.20796875 102.78958984 -5.0175 102.28621094 -5.8515625 101.76757812 C-7.53711858 100.71214866 -9.21173407 99.63904696 -10.875 98.54882812 C-11.68710938 98.05189453 -12.49921875 97.55496094 -13.3359375 97.04296875 C-14.06345215 96.57914795 -14.7909668 96.11532715 -15.54052734 95.63745117 C-19.257385 94.67410837 -21.61131144 96.44064575 -25 98 C-25.23183666 87.02145626 -25.40944852 76.04349577 -25.51812172 65.06300163 C-25.57028486 59.96397244 -25.64101114 54.86661916 -25.75439453 49.76855469 C-25.86316299 44.84711422 -25.92286279 39.92728373 -25.94877243 35.00473404 C-25.96723153 33.12824268 -26.00328219 31.25183829 -26.05730057 29.37603378 C-26.46071394 14.78524217 -26.46071394 14.78524217 -22.88299561 10.41265869 C-20.16303258 8.61791839 -18.21585996 7.53921525 -15 7 C-10.64328192 8.33561932 -6.91047824 10.69971868 -3 13 C-2.01 8.71 -1.02 4.42 0 0 Z " fill="#454545" transform="translate(236,161)"/>
<path d="M0 0 C2.796875 1.828125 2.796875 1.828125 5.25 3.75 C5.95253906 4.16580322 6.65507812 4.58160645 7.37890625 5.01000977 C9.25 6.75 9.25 6.75 9.70410156 9.38549805 C9.6831543 10.41715088 9.66220703 11.44880371 9.640625 12.51171875 C9.62773437 13.62998047 9.61484375 14.74824219 9.6015625 15.90039062 C9.56804687 17.06763672 9.53453125 18.23488281 9.5 19.4375 C9.48195313 20.61634766 9.46390625 21.79519531 9.4453125 23.00976562 C9.39811859 25.92398926 9.33229077 28.83659031 9.25 31.75 C11.23 32.41 13.21 33.07 15.25 33.75 C13.54270762 35.93154027 12.23562948 36.75547448 9.625 37.75 C5.91708838 37.75 4.67347966 37.07698268 1.5390625 35.25 C0.7342041 34.7859375 -0.0706543 34.321875 -0.89990234 33.84375 C-1.51043457 33.4828125 -2.1209668 33.121875 -2.75 32.75 C-2.78758423 33.8781311 -2.78758423 33.8781311 -2.82592773 35.02905273 C-2.94150514 38.41539196 -3.06440345 41.80142613 -3.1875 45.1875 C-3.22681641 46.37150391 -3.26613281 47.55550781 -3.30664062 48.77539062 C-3.34853516 49.90009766 -3.39042969 51.02480469 -3.43359375 52.18359375 C-3.47025146 53.22572021 -3.50690918 54.26784668 -3.54467773 55.34155273 C-3.75 57.75 -3.75 57.75 -4.75 58.75 C-4.69779297 59.65105469 -4.69779297 59.65105469 -4.64453125 60.5703125 C-4.54525255 63.3595713 -4.69579643 65.14377452 -5.75 67.75 C-9.46836247 70.67688246 -13.47554161 72.74493732 -17.75 74.75 C-6.30170906 81.72098904 5.29866971 88.42042136 16.91796875 95.1015625 C23.04387336 98.6251699 29.1499298 102.18186643 35.25 105.75 C32.96447942 108.09734637 30.75747889 109.87246084 27.9375 111.5625 C27.19886719 112.02269531 26.46023437 112.48289062 25.69921875 112.95703125 C22.12124695 114.11544955 20.69226035 113.30160982 17.25 111.75 C13.648781 109.80624581 10.13781734 107.72345068 6.625 105.625 C4.46424569 104.34906743 2.30275748 103.07437705 0.140625 101.80078125 C-0.98794922 101.1351416 -2.11652344 100.46950195 -3.27929688 99.78369141 C-9.02945308 96.4048776 -14.82941326 93.11250582 -20.625 89.8125 C-22.98598348 88.46668271 -25.34659117 87.12020762 -27.70703125 85.7734375 C-28.29082047 85.44038101 -28.87460968 85.10732452 -29.47608948 84.76417542 C-46.27935129 75.17204648 -63.00963134 65.45134617 -79.75 55.75 C-75.84515314 51.76038502 -71.43798374 48.02999831 -65.75 47.4375 C-65.09 47.540625 -64.43 47.64375 -63.75 47.75 C-63.564375 47.18023437 -63.37875 46.61046875 -63.1875 46.0234375 C-61.10277856 42.72640523 -58.06269586 41.25008794 -54.75 39.375 C-54.07952637 38.97563232 -53.40905273 38.57626465 -52.71826172 38.16479492 C-49.7116243 36.38349728 -46.76328111 34.75595529 -43.5703125 33.32421875 C-40.77321733 32.01485391 -38.81451195 31.0590555 -36.75 28.75 C-36.29975304 25.47886407 -36.29975304 25.47886407 -36.4375 21.875 C-36.41038 15.41366003 -36.41038 15.41366003 -33.390625 12.37890625 C-30.5600851 10.66332292 -27.70880399 9.16964386 -24.71484375 7.76220703 C-22.59899727 6.67220958 -20.70565806 5.41378884 -18.75 4.05859375 C-7.34178884 -3.63065319 -7.34178884 -3.63065319 0 0 Z " fill="#EDCB93" transform="translate(181.75,266.25)"/>
<path d="M0 0 C1.17792636 8.18976021 2.34939316 16.38041474 3.51269531 24.57226562 C3.80242016 26.61020996 4.09307957 28.64802235 4.38574219 30.68554688 C4.67853667 32.72719487 4.96468272 34.76979366 5.25 36.8125 C5.39953125 37.87082031 5.5490625 38.92914063 5.703125 40.01953125 C6.03607535 43.36217749 6.05054434 46.64301364 6 50 C1.68955489 48.43256542 -2.04467696 46.29213067 -6 44 C-5.95174072 44.95253662 -5.90348145 45.90507324 -5.85375977 46.88647461 C-4.71687743 72.81144114 -4.71687743 72.81144114 -8.24560547 79.28515625 C-11.48729337 82.51772975 -15.46461398 83.81949677 -19.76074219 85.16601562 C-23.89112359 86.70432601 -27.44474342 89.29653855 -31.125 91.6875 C-38.0393055 96.17693156 -38.0393055 96.17693156 -41.56640625 95.52734375 C-42.36949219 95.02332031 -43.17257812 94.51929688 -44 94 C-45.64935547 93.03707031 -45.64935547 93.03707031 -47.33203125 92.0546875 C-48.49468772 91.33213263 -49.65481343 90.60549119 -50.8125 89.875 C-51.40998047 89.50246094 -52.00746094 89.12992187 -52.62304688 88.74609375 C-54.08426251 87.8342952 -55.54244585 86.91764024 -57 86 C-56.51388113 75.56848511 -55.0258458 65.60833856 -53.0625 55.375 C-52.66145278 53.24612183 -52.26261268 51.11686007 -51.86624146 48.98710632 C-51.60560489 47.60396627 -51.33817408 46.2220878 -51.06369019 44.84162903 C-50.45425169 41.73407768 -49.97817555 38.70956215 -49.74072266 35.54956055 C-49.12429724 28.11371215 -49.12429724 28.11371215 -45.95141602 24.97070312 C-43.13417083 23.09341364 -40.28330082 21.5653008 -37.25 20.0625 C-35.07463916 18.8961742 -32.90018113 17.7281632 -30.7265625 16.55859375 C-29.61442383 15.97706543 -28.50228516 15.39553711 -27.35644531 14.79638672 C-21.99905542 11.92908421 -16.82258697 8.76987898 -11.625 5.625 C-9.80767188 4.52889081 -7.98761107 3.43729149 -6.1640625 2.3515625 C-5.40561035 1.89604004 -4.6471582 1.44051758 -3.86572266 0.97119141 C-2 0 -2 0 0 0 Z " fill="#D96603" transform="translate(354,174)"/>
<path d="M0 0 C0.79607666 0.41354736 1.59215332 0.82709473 2.41235352 1.25317383 C3.07517334 1.49181152 3.73799316 1.73044922 4.42089844 1.97631836 C6.45445769 2.87053911 7.85503879 3.65623416 9.41235352 5.25317383 C10.18427234 8.55744723 9.91153413 11.7588311 9.72485352 15.12817383 C9.47099095 22.03337915 9.47099095 22.03337915 12.64282227 27.83129883 C15.19556124 29.25708816 17.6668094 30.27126048 20.41235352 31.25317383 C22.99652015 36.42150709 21.89531509 44.41939116 21.98217773 50.16430664 C22.01883089 52.0501601 22.07339605 53.93575414 22.14624023 55.82055664 C22.73572416 71.31012963 22.73572416 71.31012963 19.81274414 75.60180664 C17.42288291 77.23462432 15.10964396 78.2064641 12.41235352 79.25317383 C10.34175112 80.42262151 8.28507451 81.61695564 6.24047852 82.83129883 C4.04990309 84.05907044 1.85715714 85.28297676 -0.33764648 86.50317383 C-1.4475293 87.12708008 -2.55741211 87.75098633 -3.70092773 88.39379883 C-8.26492925 90.94217031 -12.68810802 93.40609907 -17.58764648 95.25317383 C-17.53938721 94.08858643 -17.49112793 92.92399902 -17.44140625 91.72412109 C-17.28115727 87.368469 -17.22152264 83.01604632 -17.19091797 78.65771484 C-17.16395976 76.77855047 -17.11035723 74.89956029 -17.02880859 73.02197266 C-16.2193242 62.63051665 -16.2193242 62.63051665 -20.12982178 53.48138428 C-24.217771 50.19851547 -28.72089092 48.12992541 -33.58764648 46.25317383 C-31.89639421 44.20586844 -30.73125673 43.30370771 -28.20092773 42.41333008 C-24.95106269 42.21416047 -23.52904757 43.00545077 -20.77514648 44.69067383 C-19.98495117 45.16375977 -19.19475586 45.6368457 -18.38061523 46.12426758 C-17.78893555 46.49680664 -17.19725586 46.8693457 -16.58764648 47.25317383 C-16.46474488 43.04312107 -16.453695 38.83984826 -16.46264648 34.62817383 C-16.42655273 33.43836914 -16.39045898 32.24856445 -16.35327148 31.02270508 C-16.39264553 27.49872835 -16.53240461 24.62075231 -17.58764648 21.25317383 C-20.59931353 18.40761485 -23.7482622 16.75872916 -27.58764648 15.25317383 C-23.69109586 11.00464065 -18.60650494 8.39147523 -13.71264648 5.44067383 C-12.2218457 4.50578125 -12.2218457 4.50578125 -10.70092773 3.55200195 C-9.2565332 2.68285156 -9.2565332 2.68285156 -7.78295898 1.79614258 C-6.90655762 1.26013428 -6.03015625 0.72412598 -5.12719727 0.171875 C-2.58764648 -0.74682617 -2.58764648 -0.74682617 0 0 Z " fill="#EDCB93" transform="translate(232.587646484375,263.746826171875)"/>
<path d="M0 0 C1.44787384 10.12303578 2.57113057 20.23728945 3.43261719 30.42602539 C3.62578517 32.69672976 3.82824986 34.96648404 4.03125 37.23632812 C4.6037164 43.77848414 5.1128889 50.33038853 5.3359375 56.89453125 C5.36993652 57.8172583 5.40393555 58.73998535 5.43896484 59.69067383 C5 62 5 62 3.10400391 63.8190918 C1 65 1 65 -1 65 C-1.09796875 65.72703125 -1.1959375 66.4540625 -1.296875 67.203125 C-1.78530973 70.48742748 -2.37377576 73.73918737 -3 77 C-3.18691406 78.051875 -3.37382812 79.10375 -3.56640625 80.1875 C-4.69736091 84.82974322 -5.76986411 88.04604503 -9.62939453 91.0390625 C-10.68239746 91.64492187 -11.73540039 92.25078125 -12.8203125 92.875 C-13.39430283 93.21082092 -13.96829315 93.54664185 -14.55967712 93.89263916 C-16.36476783 94.94374928 -18.18131838 95.97262366 -20 97 C-21.11044678 97.64163086 -22.22089355 98.28326172 -23.36499023 98.94433594 C-26.7550495 100.89601483 -30.15731817 102.82484349 -33.5625 104.75 C-52.09925114 115.26991185 -52.09925114 115.26991185 -70.24804688 126.43994141 C-70.96541016 126.89933105 -71.68277344 127.3587207 -72.421875 127.83203125 C-73.0622168 128.24815674 -73.70255859 128.66428223 -74.36230469 129.09301758 C-76 130 -76 130 -78 130 C-77.38091026 124.12984458 -76.63670753 118.31086674 -75.6953125 112.484375 C-75.5706662 111.70668762 -75.4460199 110.92900024 -75.31759644 110.12774658 C-75.05485434 108.49399374 -74.79093487 106.86042983 -74.52587891 105.22705078 C-74.12833398 102.77060081 -73.73782664 100.31309937 -73.34765625 97.85546875 C-72.0509161 89.78523302 -70.57104641 81.84199754 -68.65185547 73.89160156 C-67.65317869 69.46151626 -67.06930951 65.00185805 -66.5 60.5 C-63.41754477 37.8178592 -63.41754477 37.8178592 -59 34 C-57.08870337 32.80548377 -55.14345149 31.66473788 -53.1796875 30.55859375 C-52.60824509 30.23468155 -52.03680267 29.91076935 -51.44804382 29.57704163 C-50.22583949 28.88486861 -49.00240638 28.19486161 -47.77786255 27.50683594 C-45.21982548 26.06931699 -42.66800475 24.62093588 -40.11592102 23.17288208 C-38.84544641 22.45205853 -37.57468504 21.73174015 -36.30363464 21.01193237 C-31.36615145 18.21451102 -26.45164004 15.38099647 -21.5625 12.5 C-20.90620605 12.11336182 -20.24991211 11.72672363 -19.57373047 11.32836914 C-14.11526425 8.09632758 -8.719969 4.76522811 -3.34375 1.3984375 C-1 0 -1 0 0 0 Z M-13.671875 16.60546875 C-14.64898437 17.17845703 -15.62609375 17.75144531 -16.6328125 18.34179688 C-18.17582031 19.25541992 -18.17582031 19.25541992 -19.75 20.1875 C-20.70132813 20.74630859 -21.65265625 21.30511719 -22.6328125 21.88085938 C-24.76631245 23.13545607 -26.88413575 24.41691218 -28.98974609 25.71777344 C-32.07519201 27.56115261 -35.24064523 29.01604804 -38.52978516 30.46191406 C-49.06855014 35.25957621 -49.06855014 35.25957621 -56.51000977 43.75704956 C-59.26214669 51.3994338 -60.04024153 59.34127564 -60.875 67.375 C-61.19940546 69.76294862 -61.53268203 72.14970956 -61.875 74.53515625 C-62.72455566 80.679267 -63.48646304 86.81801186 -64 93 C-64.0622728 93.71637131 -64.12454559 94.43274261 -64.18870544 95.17082214 C-64.32683947 97.92633186 -64.36461394 99.54223044 -62.6105957 101.74438477 C-61.97210693 102.13940186 -61.33361816 102.53441895 -60.67578125 102.94140625 C-59.97646484 103.37904297 -59.27714844 103.81667969 -58.55664062 104.26757812 C-57.44579102 104.90856445 -57.44579102 104.90856445 -56.3125 105.5625 C-55.2306543 106.25569336 -55.2306543 106.25569336 -54.12695312 106.96289062 C-51.19363082 108.77643711 -51.19363082 108.77643711 -48 110 C-44.2943742 108.91211329 -41.04316478 106.99771906 -37.69140625 105.1015625 C-36.69689453 104.53953125 -35.70238281 103.9775 -34.67773438 103.3984375 C-33.13569336 102.52058594 -33.13569336 102.52058594 -31.5625 101.625 C-30.53833984 101.0475 -29.51417969 100.47 -28.45898438 99.875 C-24.21206382 97.46752579 -24.21206382 97.46752579 -20 95 C-18.91436768 94.43168457 -17.82873535 93.86336914 -16.71020508 93.27783203 C-13.67256944 91.19341685 -13.67256944 91.19341685 -13.22705078 87.51660156 C-13.18631567 86.14183872 -13.17747647 84.76587555 -13.1953125 83.390625 C-13.18160614 82.66381531 -13.16789978 81.93700562 -13.15377808 81.18817139 C-13.11649199 78.87481711 -13.120191 76.56361196 -13.125 74.25 C-13.10687182 72.67835189 -13.08606873 71.10673219 -13.0625 69.53515625 C-13.01066374 65.68974431 -12.99556796 61.84574214 -13 58 C-12.30132812 58.433125 -11.60265625 58.86625 -10.8828125 59.3125 C-9.97273438 59.869375 -9.06265625 60.42625 -8.125 61 C-7.22007812 61.556875 -6.31515625 62.11375 -5.3828125 62.6875 C-3.16142533 64.16082329 -3.16142533 64.16082329 -1 64 C-0.69361343 57.05523785 -1.84554839 50.35393268 -2.875 43.5 C-3.2426963 40.99486629 -3.60988783 38.48965844 -3.9765625 35.984375 C-4.24194824 34.18323242 -4.24194824 34.18323242 -4.51269531 32.34570312 C-5.12363418 28.15116093 -5.69862932 23.95274065 -6.25 19.75 C-6.39953125 18.61046875 -6.5490625 17.4709375 -6.703125 16.296875 C-6.80109375 15.53890625 -6.8990625 14.7809375 -7 14 C-9.79500578 14 -11.2648586 15.18716178 -13.671875 16.60546875 Z " fill="#3A3835" transform="translate(361,160)"/>
<path d="M0 0 C0.99 0.495 0.99 0.495 2 1 C1.97268799 2.21059082 1.94537598 3.42118164 1.91723633 4.66845703 C1.83016936 9.17526972 1.81580351 13.67993326 1.82299805 18.1875 C1.81603713 20.13526162 1.78955492 22.08305775 1.74291992 24.03027344 C1.39086688 33.12292913 1.39086688 33.12292913 3 42 C6.27449035 45.42307217 9.43172365 46.88210481 14 48 C14.1574707 50.86767578 14.1574707 50.86767578 14 54 C11.48046875 56.1171875 11.48046875 56.1171875 8.1875 57.875 C7.10855469 58.47054687 6.02960938 59.06609375 4.91796875 59.6796875 C2 61 2 61 -1 61 C-2.36145317 62.30460753 -3.69090317 63.64286292 -5 65 C-6.64976681 66.15978867 -8.33923615 67.2650259 -10.0625 68.3125 C-10.91972656 68.84488281 -11.77695313 69.37726563 -12.66015625 69.92578125 C-15 71 -15 71 -18 70 C-18.21785156 70.59296875 -18.43570313 71.1859375 -18.66015625 71.796875 C-20.44506479 74.73182665 -22.41519333 75.66057976 -25.4375 77.25 C-26.40558594 77.77078125 -27.37367188 78.2915625 -28.37109375 78.828125 C-31 80 -31 80 -34 80 C-35.14405977 81.17770859 -36.28638516 82.35717383 -37.41796875 83.546875 C-40.5300911 86.40541701 -44.03384639 88.54504418 -48 90 C-51.85066743 89.35822209 -53.76104625 88.1593025 -57 86 C-61.10042337 86.45280749 -64.26565259 88.88724563 -67.68359375 91.0390625 C-70.63539385 92.26358666 -71.98207242 91.97004815 -75 91 C-77.45703125 89.80859375 -77.45703125 89.80859375 -79.8125 88.4375 C-80.60269531 87.98246094 -81.39289063 87.52742188 -82.20703125 87.05859375 C-82.79871094 86.70925781 -83.39039063 86.35992187 -84 86 C-84.21875 83.70703125 -84.21875 83.70703125 -84 81 C-82.46875 79.19921875 -82.46875 79.19921875 -80.5 77.6875 C-79.8503125 77.17574219 -79.200625 76.66398437 -78.53125 76.13671875 C-78.0259375 75.76160156 -77.520625 75.38648438 -77 75 C-85.14852017 69.83707123 -93.44919225 64.93522012 -101.79083252 60.09207153 C-102.9700028 59.4068187 -104.14819048 58.71987218 -105.32537842 58.03121948 C-107.00697311 57.04836138 -108.69287552 56.072885 -110.37890625 55.09765625 C-111.3644751 54.52539307 -112.35004395 53.95312988 -113.36547852 53.36352539 C-115.65800741 52.177002 -117.4498971 51.32400411 -120 51 C-122.45200202 52.23267204 -122.45200202 52.23267204 -124.875 54 C-129.62206155 56.97732369 -129.62206155 56.97732369 -133.125 57.1875 C-137.08819506 55.55052813 -140.74784094 53.8376682 -144 51 C-144.875 48.5 -144.875 48.5 -144 46 C-142.12099722 44.13710296 -140.10372025 42.62161769 -138 41 C-138 40.34 -138 39.68 -138 39 C-142.29 36.69 -146.58 34.38 -151 32 C-151 30.35 -151 28.7 -151 27 C-146.46875604 28.65412401 -142.38135943 30.89701726 -138.1875 33.25 C-137.40761719 33.68546143 -136.62773437 34.12092285 -135.82421875 34.56958008 C-127.26393311 39.3738732 -118.7988596 44.34097382 -110.328125 49.30078125 C-102.91707536 53.63842501 -95.48886304 57.94625649 -88.03808594 62.21533203 C-82.76156011 65.23964361 -77.50343452 68.28481876 -72.28717041 71.41168213 C-69.73488473 72.93843648 -67.17342864 74.44938313 -64.61071777 75.95855713 C-63.37985627 76.68881338 -62.1532616 77.42631457 -60.93127441 78.17132568 C-59.23096405 79.20697779 -57.5141878 80.21544855 -55.796875 81.22265625 C-54.82073242 81.80797119 -53.84458984 82.39328613 -52.83886719 82.99633789 C-49.16362372 84.29569512 -47.49362828 83.56452717 -44 82 C-41.91694872 80.9789725 -41.91694872 80.9789725 -40.125 79.875 C-39.09375 79.25625 -38.0625 78.6375 -37 78 C-43.31507641 74.00169718 -49.7264323 70.19459203 -56.1875 66.4375 C-57.22455078 65.83341309 -58.26160156 65.22932617 -59.33007812 64.60693359 C-69.52036377 58.68015196 -79.75185259 52.82604593 -90 47 C-89.505 46.01 -89.505 46.01 -89 45 C-84.54741698 45.53481659 -81.42393619 46.61275832 -77.5703125 48.88671875 C-76.02355835 49.79127808 -76.02355835 49.79127808 -74.44555664 50.71411133 C-72.8018811 51.69093872 -72.8018811 51.69093872 -71.125 52.6875 C-69.98474365 53.34709717 -68.8444873 54.00669434 -67.66967773 54.6862793 C-61.79341943 58.09034809 -56.02332963 61.60246076 -50.33984375 65.3203125 C-48.75502197 66.3263855 -48.75502197 66.3263855 -47.13818359 67.3527832 C-45.12806237 68.63356135 -43.14094101 69.95137362 -41.18212891 71.30932617 C-38.38334302 73.06762631 -36.23841073 74.31734556 -33 75 C-28.82649403 73.65008073 -25.59462882 71.45710312 -22 69 C-21.34 69 -20.68 69 -20 69 C-20 68.34 -20 67.68 -20 67 C-20.886875 66.731875 -21.77375 66.46375 -22.6875 66.1875 C-25.7909666 65.0749365 -28.31110685 63.89804222 -31 62 C-31 61.34 -31 60.68 -31 60 C-29.75126099 59.2886792 -29.75126099 59.2886792 -28.47729492 58.56298828 C-25.38487116 56.80106568 -22.29326594 55.03771113 -19.2019043 53.27392578 C-17.86456176 52.51116563 -16.52699841 51.7487925 -15.18920898 50.98681641 C-13.26487796 49.89066944 -11.34134879 48.79312707 -9.41796875 47.6953125 C-8.82098679 47.3556546 -8.22400482 47.0159967 -7.6089325 46.66604614 C-5.01106735 45.18165182 -2.49122138 43.66081425 0 42 C0.43582749 40.10911563 0.43582749 40.10911563 0.34057617 37.91748047 C0.34023628 36.65639969 0.34023628 36.65639969 0.33988953 35.36984253 C0.32440567 34.46146637 0.30892181 33.55309021 0.29296875 32.6171875 C0.28872391 31.68778351 0.28447906 30.75837952 0.28010559 29.80081177 C0.26328012 26.82524944 0.22562103 23.85035844 0.1875 20.875 C0.17245816 18.86068685 0.15876888 16.84636311 0.14648438 14.83203125 C0.11336394 9.88776121 0.06155529 4.94399451 0 0 Z " fill="#CB871E" transform="translate(253,295)"/>
<path d="M0 0 C2.40234375 0.9921875 2.40234375 0.9921875 3.40234375 2.9921875 C-8.47765625 9.9221875 -8.47765625 9.9221875 -20.59765625 16.9921875 C-16.16467038 20.72013181 -16.16467038 20.72013181 -13.30957031 22.3684082 C-11.59765625 23.9921875 -11.59765625 23.9921875 -11.14355469 26.71948242 C-11.16450195 27.79302979 -11.18544922 28.86657715 -11.20703125 29.97265625 C-11.21992188 31.13603516 -11.2328125 32.29941406 -11.24609375 33.49804688 C-11.27960938 34.71298828 -11.313125 35.92792969 -11.34765625 37.1796875 C-11.36570313 38.40623047 -11.38375 39.63277344 -11.40234375 40.89648438 C-11.44954501 43.92916509 -11.51537948 46.96028837 -11.59765625 49.9921875 C-10.87320313 49.54746094 -10.14875 49.10273438 -9.40234375 48.64453125 C-8.43554688 48.07863281 -7.46875 47.51273437 -6.47265625 46.9296875 C-5.52132812 46.36121094 -4.57 45.79273438 -3.58984375 45.20703125 C0.03043668 43.73717849 1.68031419 43.90594825 5.40234375 44.9921875 C8.16870117 46.30810547 8.16870117 46.30810547 11.0078125 47.984375 C12.06524658 48.60207764 13.12268066 49.21978027 14.2121582 49.85620117 C15.32679443 50.51982666 16.44143066 51.18345215 17.58984375 51.8671875 C18.74973249 52.54945456 19.91013796 53.23084389 21.07104492 53.91137695 C23.40612619 55.28126775 25.7385337 56.65555791 28.06933594 58.03271484 C31.0880506 59.80741481 34.11867528 61.5576617 37.16015625 63.29296875 C38.45143433 64.03087646 38.45143433 64.03087646 39.76879883 64.78369141 C41.35328017 65.68797969 42.93898074 66.59013633 44.52612305 67.48974609 C48.42420825 69.72951515 51.96942448 72.05835669 55.40234375 74.9921875 C53.54357866 76.2253488 51.66451291 77.42794951 49.77734375 78.6171875 C48.73320312 79.29007812 47.6890625 79.96296875 46.61328125 80.65625 C43.40234375 81.9921875 43.40234375 81.9921875 40.66796875 81.5859375 C35.88824434 79.25324903 31.34167961 76.59378349 26.77734375 73.8671875 C24.61658944 72.59125493 22.45510123 71.31656455 20.29296875 70.04296875 C19.16439453 69.3773291 18.03582031 68.71168945 16.87304688 68.02587891 C11.12289067 64.6470651 5.32293049 61.35469332 -0.47265625 58.0546875 C-2.83363973 56.70887021 -5.19424742 55.36239512 -7.5546875 54.015625 C-8.13847672 53.68256851 -8.72226593 53.34951202 -9.32374573 53.00636292 C-26.12700754 43.41423398 -42.85728759 33.69353367 -59.59765625 23.9921875 C-55.69280939 20.00257252 -51.28563999 16.27218581 -45.59765625 15.6796875 C-44.60765625 15.834375 -44.60765625 15.834375 -43.59765625 15.9921875 C-43.35015625 15.3734375 -43.10265625 14.7546875 -42.84765625 14.1171875 C-41.33942881 11.55320086 -40.42129567 10.87961703 -37.59765625 9.9921875 C-34.10882061 10.33256171 -32.56946592 11.01098105 -29.59765625 12.9921875 C-25.71359896 12.66191729 -23.00802429 11.26206614 -19.7265625 9.234375 C-18.82228516 8.69167969 -17.91800781 8.14898437 -16.98632812 7.58984375 C-15.10157495 6.441017 -13.22134056 5.2847439 -11.34570312 4.12109375 C-4.42013904 -0.00959856 -4.42013904 -0.00959856 0 0 Z " fill="#E8BB73" transform="translate(161.59765625,298.0078125)"/>
<path d="M0 0 C4.75 0.875 4.75 0.875 7 2 C6.55739836 9.20372319 5.47598274 16.15976705 4.08666992 23.2277832 C3.40805412 26.71217441 2.81260208 30.15118892 2.5 33.6875 C2.18766604 37.08723381 1.48596529 40.26976843 0.6640625 43.58203125 C-1.38471781 52.31382524 -2.73506648 61.14374023 -4.125 70 C-4.5214052 72.50058776 -4.91908677 75.0009675 -5.31759644 77.5012207 C-5.56284306 79.04248785 -5.80667947 80.58398031 -6.04885864 82.12573242 C-6.62443953 85.76818935 -7.24189916 89.39083847 -8 93 C-11.65391361 92.4324329 -14.25748039 91.48194387 -17.390625 89.53125 C-18.18210937 89.04269531 -18.97359375 88.55414063 -19.7890625 88.05078125 C-20.60117187 87.53902344 -21.41328125 87.02726562 -22.25 86.5 C-23.07757813 85.98824219 -23.90515625 85.47648437 -24.7578125 84.94921875 C-30.8128382 81.1871618 -30.8128382 81.1871618 -32 80 C-32.17260085 77.65902958 -32.28395826 75.34471114 -32.3515625 73 C-32.37471527 72.29029053 -32.39786804 71.58058105 -32.42172241 70.84936523 C-32.46946623 69.33959358 -32.51468726 67.82974042 -32.55761719 66.31982422 C-32.6239227 64.03708862 -32.70202001 61.75497508 -32.78125 59.47265625 C-32.87680616 56.57847382 -32.93608171 53.68739919 -32.95947266 50.79174805 C-32.98302004 48.58864949 -33.04565591 46.38396598 -33.20849609 44.18676758 C-33.25404252 41.67126531 -33.15299944 40.24204115 -32 38 C-28.4541941 34.92811144 -24.52332047 32.84394897 -20.375 30.6875 C-19.29347656 30.09388672 -18.21195312 29.50027344 -17.09765625 28.88867188 C-8.68279251 24.28053221 -8.68279251 24.28053221 -5.69799805 23.05419922 C-3.51221821 22.2027242 -3.51221821 22.2027242 -1 20 C-0.02115314 16.57672091 -0.02033476 13.29188017 -0.0625 9.75 C-0.03833008 8.34621094 -0.03833008 8.34621094 -0.01367188 6.9140625 C0.02162671 4.60788815 0.02509478 2.3061784 0 0 Z " fill="#392C1D" transform="translate(292,193)"/>
<path d="M0 0 C-0.00333092 0.84847755 -0.00333092 0.84847755 -0.00672913 1.71409607 C-0.22503131 36.60898131 -0.22503131 36.60898131 0.6640625 71.48730469 C0.99058749 79.76136416 0.9372006 87.96796773 0.71484375 96.24609375 C0.64663009 99.48754203 0.58196306 102.72904504 0.51806641 105.97058105 C0.46476987 108.098647 0.39327518 110.22634252 0.30273438 112.35314941 C-0.80618997 123.65003256 -0.80618997 123.65003256 3.20898438 133.54321289 C5.85757401 135.17890069 5.85757401 135.17890069 8.67358398 136.05761719 C11 137 11 137 12.10571289 138.90332031 C12.625 141.0625 12.625 141.0625 13 145 C13.144375 145.928125 13.28875 146.85625 13.4375 147.8125 C13 150 13 150 10.8125 151.875 C7.41623358 153.23350657 6.41393978 153.27030317 3 152 C-0.02534412 150.6831717 -2.59672024 149.283179 -5 147 C-6.09089966 143.88190439 -5.93483003 140.95610747 -5.7890625 137.68359375 C-5.78570892 136.79011734 -5.78235535 135.89664093 -5.77890015 134.97608948 C-5.76537006 132.1279749 -5.70009497 129.28461044 -5.625 126.4375 C-5.56054374 123.58723445 -5.50812738 120.73917033 -5.49252319 117.88819885 C-5.48207117 116.11705977 -5.44327443 114.34580801 -5.37295532 112.57603455 C-5.36670135 111.7716243 -5.36044739 110.96721405 -5.35400391 110.13842773 C-5.33431549 109.43403061 -5.31462708 108.72963348 -5.29434204 108.00389099 C-5.88191115 105.63360724 -5.88191115 105.63360724 -8.99383545 104.31080627 C-12 102 -12 102 -12.5623455 100.14090633 C-12.76813041 97.70643243 -12.78767274 95.33166456 -12.74462891 92.88867188 C-12.75193024 91.96792374 -12.75923157 91.0471756 -12.76675415 90.098526 C-12.78296851 87.05451703 -12.75574878 84.01263678 -12.7265625 80.96875 C-12.72552529 78.85412599 -12.72656072 76.73950003 -12.72958374 74.62487793 C-12.72940428 70.19282241 -12.70854512 65.76149442 -12.67236328 61.32958984 C-12.62698734 55.64630345 -12.62590001 49.96408021 -12.63939857 44.28066254 C-12.64607915 39.91402728 -12.63281643 35.54763476 -12.61314011 31.18104553 C-12.60543745 29.08546723 -12.60313913 26.98986191 -12.6063118 24.89427185 C-12.60705296 21.96609994 -12.58182179 19.03929482 -12.54931641 16.11132812 C-12.55427124 15.24367325 -12.55922607 14.37601837 -12.56433105 13.48207092 C-12.46009518 7.60393064 -12.46009518 7.60393064 -10.12582397 4.53991699 C-3.85856124 0 -3.85856124 0 0 0 Z " fill="#302F2C" transform="translate(260,190)"/>
<path d="M0 0 C3.140625 1.390625 3.140625 1.390625 6.25 3.25 C7.80460937 4.15492188 7.80460937 4.15492188 9.390625 5.078125 C12.02457805 7.01810239 13.02227341 7.93453957 14 11 C15.33861309 20.60377064 12.75593755 29.45995803 7.1875 37.3125 C2.41734599 43.19367722 -2.91520652 48.43658021 -10.625 49.5 C-16.17531933 49.36462636 -20.79276507 46.44500054 -25 43 C-28.63250795 38.02539287 -28.74777289 33.96518828 -28 28 C-25.6368651 18.12547201 -20.69653293 9.18314925 -12.1875 3.4375 C-7.82215217 0.78523187 -5.22665529 -0.42513464 0 0 Z " fill="#171C1F" transform="translate(396,255)"/>
<path d="M0 0 C5.24100988 2.43695243 9.86046011 5.02743682 13 10 C15.39741294 19.22081901 12.4108535 27.41012756 7.76953125 35.3828125 C2.67970678 42.91080895 -2.81571697 47.76314339 -11.8125 49.5625 C-17.48978915 48.56062544 -22.98878833 45.34791006 -26.75 40.95703125 C-29.97176341 35.9129579 -28.9863736 30.53090777 -27.859375 24.94921875 C-25.72749236 17.63298513 -21.88009374 10.90007812 -16 6 C-15.40316406 5.46375 -14.80632812 4.9275 -14.19140625 4.375 C-9.77338913 0.65456453 -5.88575756 -1.62365726 0 0 Z " fill="#171C1F" transform="translate(314,303)"/>
<path d="M0 0 C0.79607666 0.41354736 1.59215332 0.82709473 2.41235352 1.25317383 C3.07517334 1.49181152 3.73799316 1.73044922 4.42089844 1.97631836 C6.45445769 2.87053911 7.85503879 3.65623416 9.41235352 5.25317383 C10.18426167 8.55740156 9.91183465 11.75887682 9.72485352 15.12817383 C9.46244 22.04777611 9.46244 22.04777611 12.67797852 27.83129883 C15.21711461 29.2356255 17.70275722 30.24014872 20.41235352 31.25317383 C20.41235352 31.91317383 20.41235352 32.57317383 20.41235352 33.25317383 C19.60604492 33.71167725 18.79973633 34.17018066 17.96899414 34.64257812 C14.94153431 36.36519581 11.91494766 38.08932876 8.88891602 39.81445312 C7.58587062 40.55691217 6.28249266 41.2987879 4.97875977 42.04003906 C3.7124355 42.76011532 2.4465607 43.48098264 1.18115234 44.20266724 C-0.05630571 44.9083987 -1.29474539 45.61241183 -2.53417969 46.31466675 C-5.83094579 48.1951239 -8.99392675 50.18418425 -12.11889648 52.33520508 C-15.58764648 54.25317383 -15.58764648 54.25317383 -18.68920898 54.28833008 C-22.055413 53.08611436 -24.9125684 51.55461043 -27.96264648 49.69067383 C-29.55206055 48.72967773 -29.55206055 48.72967773 -31.17358398 47.74926758 C-31.97022461 47.25555664 -32.76686523 46.7618457 -33.58764648 46.25317383 C-31.91501619 44.22841084 -30.7988715 43.32167924 -28.27514648 42.50317383 C-24.94177304 42.19309258 -23.60102223 42.96140658 -20.77514648 44.69067383 C-19.98495117 45.16375977 -19.19475586 45.6368457 -18.38061523 46.12426758 C-17.78893555 46.49680664 -17.19725586 46.8693457 -16.58764648 47.25317383 C-16.46474488 43.04312107 -16.453695 38.83984826 -16.46264648 34.62817383 C-16.42655273 33.43836914 -16.39045898 32.24856445 -16.35327148 31.02270508 C-16.39264553 27.49872835 -16.53240461 24.62075231 -17.58764648 21.25317383 C-20.59931353 18.40761485 -23.7482622 16.75872916 -27.58764648 15.25317383 C-23.69109586 11.00464065 -18.60650494 8.39147523 -13.71264648 5.44067383 C-12.2218457 4.50578125 -12.2218457 4.50578125 -10.70092773 3.55200195 C-9.2565332 2.68285156 -9.2565332 2.68285156 -7.78295898 1.79614258 C-6.90655762 1.26013428 -6.03015625 0.72412598 -5.12719727 0.171875 C-2.58764648 -0.74682617 -2.58764648 -0.74682617 0 0 Z " fill="#EECE99" transform="translate(232.587646484375,263.746826171875)"/>
<path d="M0 0 C0.92039062 0.58523437 1.84078125 1.17046875 2.7890625 1.7734375 C7.41709434 5.08716423 7.41709434 5.08716423 9.375 7.625 C9.72398973 10.58428279 9.84284199 13.15953521 9.765625 16.109375 C9.75996521 16.92496887 9.75430542 17.74056274 9.74847412 18.58087158 C9.72612727 21.17951772 9.67593622 23.77677242 9.625 26.375 C9.60493271 28.13930297 9.58668234 29.9036276 9.5703125 31.66796875 C9.5262683 35.98751328 9.45725422 40.30602093 9.375 44.625 C4.93070203 43.28963383 1.17327395 41.52514628 -2.828125 39.18359375 C-3.6739212 38.69198509 -3.6739212 38.69198509 -4.5368042 38.19044495 C-6.31928355 37.15297298 -8.09721264 36.1079876 -9.875 35.0625 C-11.08302801 34.35689888 -12.29135877 33.65181582 -13.5 32.94726562 C-15.70374736 31.66216182 -17.90604905 30.3745735 -20.10644531 29.08374023 C-21.59025824 28.2243197 -23.09129744 27.39185128 -24.625 26.625 C-24.97754162 4.51560386 -24.97754162 4.51560386 -19.41015625 -1.9453125 C-11.83492637 -6.84358144 -7.23162906 -4.66491002 0 0 Z " fill="#E9902B" transform="translate(327.625,200.375)"/>
<path d="M0 0 C1.53140625 0.90492188 1.53140625 0.90492188 3.09375 1.828125 C4.1353125 2.42109375 5.176875 3.0140625 6.25 3.625 C7.0234375 4.10453125 7.796875 4.5840625 8.59375 5.078125 C8.59375 6.398125 8.59375 7.718125 8.59375 9.078125 C-2.79125 15.513125 -2.79125 15.513125 -14.40625 22.078125 C-10.7073789 25.10470084 -10.7073789 25.10470084 -7.1796875 26.4375 C-3.8030014 29.65248564 -3.96542802 30.62704828 -3.8203125 35.15625 C-3.86016794 37.54757668 -3.93168394 39.93853961 -4.03125 42.328125 C-4.05832031 43.55015625 -4.08539063 44.7721875 -4.11328125 46.03125 C-4.18400162 49.04865241 -4.28265884 52.0625007 -4.40625 55.078125 C-13.05442009 52.32441281 -22.58243629 48.20040818 -29.40625 42.078125 C-31.25525818 37.97576079 -31.01012984 35.48163816 -30.40625 31.078125 C-30.5149354 29.6280778 -30.6512625 28.17995318 -30.80859375 26.734375 C-31.18333727 21.97885486 -31.4216095 17.50283199 -29.40625 13.078125 C-25.10752434 8.69864294 -19.32882893 6.32728037 -13.71240234 4.06640625 C-11.42235483 3.08502658 -9.37091784 1.9045502 -7.22265625 0.6484375 C-4.04969082 -0.96437113 -3.67514176 -0.99464846 0 0 Z " fill="#E8BD75" transform="translate(220.40625,255.921875)"/>
<path d="M0 0 C4.53124396 1.65412401 8.61864057 3.89701726 12.8125 6.25 C13.59238281 6.68546143 14.37226562 7.12092285 15.17578125 7.56958008 C23.73606689 12.3738732 32.2011404 17.34097382 40.671875 22.30078125 C47.01804554 26.01515754 53.3805991 29.70062438 59.75 33.375 C60.80630615 33.98448486 61.8626123 34.59396973 62.95092773 35.22192383 C68.90317424 38.65190308 74.86369846 42.06686345 80.83203125 45.46875 C81.48019806 45.83835846 82.12836487 46.20796692 82.7961731 46.58877563 C85.95556961 48.39012983 89.1160148 50.18959722 92.27832031 51.98583984 C93.40463867 52.62730957 94.53095703 53.2687793 95.69140625 53.9296875 C96.69373291 54.49929199 97.69605957 55.06889648 98.72875977 55.65576172 C101 57 101 57 102 58 C102.04063832 59.66617115 102.042721 61.33388095 102 63 C101.46890625 62.69964844 100.9378125 62.39929688 100.390625 62.08984375 C99.33101562 61.51943359 99.33101562 61.51943359 98.25 60.9375 C97.55390625 60.55464844 96.8578125 60.17179687 96.140625 59.77734375 C93.53741585 58.8320178 92.55750288 59.00182897 90 60 C87.72436039 61.27826625 85.52500002 62.64860868 83.31640625 64.0390625 C80.36460615 65.26358666 79.01792758 64.97004815 76 64 C73.54296875 62.80859375 73.54296875 62.80859375 71.1875 61.4375 C70.39730469 60.98246094 69.60710937 60.52742188 68.79296875 60.05859375 C68.20128906 59.70925781 67.60960937 59.35992187 67 59 C66.78125 56.70703125 66.78125 56.70703125 67 54 C68.53125 52.19921875 68.53125 52.19921875 70.5 50.6875 C71.1496875 50.17574219 71.799375 49.66398437 72.46875 49.13671875 C72.9740625 48.76160156 73.479375 48.38648438 74 48 C65.85147983 42.83707123 57.55080775 37.93522012 49.20916748 33.09207153 C48.0299972 32.4068187 46.85180952 31.71987218 45.67462158 31.03121948 C43.99302689 30.04836138 42.30712448 29.072885 40.62109375 28.09765625 C39.6355249 27.52539307 38.64995605 26.95312988 37.63452148 26.36352539 C35.34199259 25.177002 33.5501029 24.32400411 31 24 C28.54799798 25.23267204 28.54799798 25.23267204 26.125 27 C21.37793845 29.97732369 21.37793845 29.97732369 17.875 30.1875 C13.91180494 28.55052813 10.25215906 26.8376682 7 24 C6.125 21.5 6.125 21.5 7 19 C8.87900278 17.13710296 10.89627975 15.62161769 13 14 C13 13.34 13 12.68 13 12 C8.71 9.69 4.42 7.38 0 5 C0 3.35 0 1.7 0 0 Z " fill="#C47C1E" transform="translate(102,322)"/>
<path d="M0 0 C0.33 0.66 0.66 1.32 1 2 C1.84175781 2.27328125 2.68351562 2.5465625 3.55078125 2.828125 C7.81639992 4.27737257 11.35359052 6.41646589 15.1875 8.75 C16.68928729 9.64980229 18.1918934 10.54823936 19.6953125 11.4453125 C20.42524414 11.88133789 21.15517578 12.31736328 21.90722656 12.76660156 C26.20469833 15.29936257 30.59522906 17.65966814 35 20 C35 18.35 35 16.7 35 15 C35.33 15 35.66 15 36 15 C36.29638672 17.78564453 36.29638672 17.78564453 36 21 C34.01220703 22.87451172 34.01220703 22.87451172 31.2578125 24.4296875 C30.27425781 24.996875 29.29070312 25.5640625 28.27734375 26.1484375 C27.23707031 26.71820313 26.19679688 27.28796875 25.125 27.875 C24.09246094 28.46796875 23.05992187 29.0609375 21.99609375 29.671875 C14.36702549 34 14.36702549 34 12 34 C12 37.3 12 40.6 12 44 C7.95698825 42.51481201 4.38853744 40.57122002 0.6875 38.375 C-0.38113281 37.74335938 -1.44976562 37.11171875 -2.55078125 36.4609375 C-3.35902344 35.97882813 -4.16726563 35.49671875 -5 35 C-4.59903832 23.07139013 -2.40190128 11.66065486 0 0 Z " fill="#E37901" transform="translate(302,225)"/>
<path d="M0 0 C5.08951419 1.45978314 9.20520603 3.71210095 13.6875 6.4375 C15.17915066 7.33162538 16.67136133 8.224817 18.1640625 9.1171875 C18.94426758 9.58479492 19.72447266 10.05240234 20.52832031 10.53417969 C23.11780737 12.06986521 25.72346548 13.57408714 28.3359375 15.0703125 C29.20774658 15.56990479 30.07955566 16.06949707 30.9777832 16.58422852 C32.68585769 17.56112386 34.39530906 18.53561612 36.10620117 19.50756836 C36.87681885 19.94979736 37.64743652 20.39202637 38.44140625 20.84765625 C39.12920166 21.23961182 39.81699707 21.63156738 40.52563477 22.03540039 C41.25544556 22.5128772 41.25544556 22.5128772 42 23 C42 23.33 42 23.66 42 24 C41.44675049 24.09071777 40.89350098 24.18143555 40.32348633 24.27490234 C34.35260271 25.40492228 29.82032732 27.42720528 24.6875 30.625 C23.95982422 31.06505371 23.23214844 31.50510742 22.48242188 31.95849609 C16.92331314 35.34798785 11.4902719 38.91293807 6.125 42.6015625 C4 44 4 44 3 44 C2.56693681 39.34149932 2.13994429 34.68249388 1.71826172 30.02294922 C1.57437003 28.44207212 1.42889878 26.86133788 1.28173828 25.28076172 C0.49588824 16.82886438 -0.20438828 8.49914593 0 0 Z " fill="#FCB22C" transform="translate(363,178)"/>
<path d="M0 0 C0.93690674 0.55316895 1.87381348 1.10633789 2.83911133 1.67626953 C4.42526245 2.60282349 4.42526245 2.60282349 6.04345703 3.5480957 C7.15809326 4.21172119 8.27272949 4.87534668 9.42114258 5.55908203 C10.58103132 6.24134909 11.74143679 6.92273842 12.90234375 7.60327148 C15.23742501 8.97316228 17.56983253 10.34745244 19.90063477 11.72460938 C22.91934943 13.49930934 25.9499741 15.24955624 28.99145508 16.98486328 C29.85230713 17.47680176 30.71315918 17.96874023 31.60009766 18.47558594 C33.184579 19.37987422 34.77027957 20.28203086 36.35742188 21.18164062 C40.25550708 23.42140968 43.80072331 25.75025122 47.23364258 28.68408203 C45.37487749 29.91724333 43.49581174 31.11984404 41.60864258 32.30908203 C40.56450195 32.98197266 39.52036133 33.65486328 38.44458008 34.34814453 C35.23364258 35.68408203 35.23364258 35.68408203 32.51489258 35.28564453 C27.647302 32.90979675 23.01004015 30.20587713 18.35864258 27.43408203 C16.22593034 26.17609953 14.09311459 24.91829252 11.96020508 23.66064453 C10.86095703 23.00999023 9.76170898 22.35933594 8.62915039 21.68896484 C3.01120387 18.37183968 -2.62844197 15.09213387 -8.26635742 11.80908203 C-10.29770913 10.62436057 -12.32896866 9.43948103 -14.36010742 8.25439453 C-15.21282227 7.75697754 -16.06553711 7.25956055 -16.9440918 6.74707031 C-17.54543945 6.39628418 -18.14678711 6.04549805 -18.76635742 5.68408203 C-17.57416862 2.10751563 -16.7649825 1.74862562 -13.57885742 -0.06591797 C-12.82217773 -0.51451172 -12.06549805 -0.96310547 -11.28588867 -1.42529297 C-7.16875538 -2.88065171 -3.8694007 -1.8406204 0 0 Z " fill="#DCA955" transform="translate(169.766357421875,344.31591796875)"/>
<path d="M0 0 C5.38938319 1.69985816 9.94348199 3.99403178 14.8125 6.8125 C15.97555664 7.45155273 15.97555664 7.45155273 17.16210938 8.10351562 C22.76485827 11.34360051 22.76485827 11.34360051 24.01171875 14.82421875 C24.00785156 15.54222656 24.00398438 16.26023437 24 17 C23.2575 17.350625 22.515 17.70125 21.75 18.0625 C17.31605253 21.18641753 14.98145761 25.64703171 14 31 C13.90720479 33.12343447 13.86931539 35.24953996 13.8671875 37.375 C13.86589844 38.60734375 13.86460937 39.8396875 13.86328125 41.109375 C13.86714844 42.39328125 13.87101562 43.6771875 13.875 45 C13.87113281 46.28390625 13.86726563 47.5678125 13.86328125 48.890625 C13.86521484 50.73914063 13.86521484 50.73914063 13.8671875 52.625 C13.86831543 53.75164062 13.86944336 54.87828125 13.87060547 56.0390625 C13.9802478 58.54801004 14.26705271 60.61264438 15 63 C12 61 12 61 11.48828125 59.0546875 C11.24414062 56.02734375 11.24414062 56.02734375 11 53 C10.29875 52.7525 9.5975 52.505 8.875 52.25 C5.33847795 50.71238172 2.89154482 49.62023084 0 47 C-0.8572259 43.4457459 -0.69775683 39.96576224 -0.5859375 36.328125 C-0.57744781 35.29057068 -0.56895813 34.25301636 -0.56021118 33.184021 C-0.52663641 29.87162229 -0.45134541 26.56166222 -0.375 23.25 C-0.34490586 21.00394142 -0.3175291 18.75784466 -0.29296875 16.51171875 C-0.22683222 11.00698112 -0.12644303 5.50366475 0 0 Z " fill="#FCB12C" transform="translate(260,274)"/>
<path d="M0 0 C1.17792636 8.18976021 2.34939316 16.38041474 3.51269531 24.57226562 C3.80242016 26.61020996 4.09307957 28.64802235 4.38574219 30.68554688 C4.67853667 32.72719487 4.96468272 34.76979366 5.25 36.8125 C5.39953125 37.87082031 5.5490625 38.92914063 5.703125 40.01953125 C6.03607535 43.36217749 6.05054434 46.64301364 6 50 C4.3024406 49.41646396 2.64455275 48.71949183 1 48 C0.31421875 47.73960937 -0.3715625 47.47921875 -1.078125 47.2109375 C-3.57502835 46.03433916 -5.1754559 45.09016986 -7 43 C-7.41796875 40.0625 -7.41796875 40.0625 -7.4375 36.6875 C-7.49978058 31.80730313 -7.49978058 31.80730313 -9.6875 27.5859375 C-14.87430715 22.92141301 -20.90717719 19.35804848 -27 16 C-24.60372619 13.36385202 -22.02308875 11.67417495 -18.96484375 9.86328125 C-17.99095703 9.28642578 -17.01707031 8.70957031 -16.01367188 8.11523438 C-14.99853516 7.52033203 -13.98339844 6.92542969 -12.9375 6.3125 C-11.91849609 5.70599609 -10.89949219 5.09949219 -9.84960938 4.47460938 C-2.25435004 0 -2.25435004 0 0 0 Z " fill="#FAB02C" transform="translate(354,174)"/>
<path d="M0 0 C2.9375 1.93359375 2.9375 1.93359375 5 3.5625 C5 3.8925 5 4.2225 5 4.5625 C4.17773926 4.80033203 4.17773926 4.80033203 3.33886719 5.04296875 C-2.54053639 6.85664075 -7.52181149 9.34806222 -12.75 12.5625 C-13.47832031 13.00078125 -14.20664063 13.4390625 -14.95703125 13.890625 C-16.35574759 14.73340871 -17.75053785 15.58275532 -19.140625 16.43969727 C-20.72474264 17.39628301 -22.35113471 18.28227988 -23.984375 19.15234375 C-24.64953125 19.61769531 -25.3146875 20.08304687 -26 20.5625 C-26.66676878 24.10500051 -26.66676878 24.10500051 -26 27.5625 C-24.515 28.5525 -24.515 28.5525 -23 29.5625 C-24.76707377 34.86372131 -30.56280265 36.67701419 -35.25 39.3125 C-36.30058594 39.92738281 -37.35117188 40.54226563 -38.43359375 41.17578125 C-39.45066406 41.75199219 -40.46773437 42.32820313 -41.515625 42.921875 C-42.44665039 43.45264648 -43.37767578 43.98341797 -44.33691406 44.53027344 C-47.45345935 45.73826331 -48.86673509 45.62878061 -52 44.5625 C-54.8125 42.5 -54.8125 42.5 -57 40.5625 C-56.39937744 40.2722998 -55.79875488 39.98209961 -55.17993164 39.68310547 C-45.53900812 34.96377917 -45.53900812 34.96377917 -37 28.5625 C-35.81179572 24.61596436 -36.02494522 21.83086973 -36.3203125 17.75390625 C-36 14.5625 -36 14.5625 -33.6796875 12.21484375 C-30.83541154 10.49114398 -27.97314081 8.98888349 -24.96484375 7.57470703 C-22.84899727 6.48470958 -20.95565806 5.22628884 -19 3.87109375 C-7.58505987 -3.81486521 -7.58505987 -3.81486521 0 0 Z " fill="#EFD2A2" transform="translate(182,266.4375)"/>
<path d="M0 0 C0.66 0 1.32 0 2 0 C1.87496094 0.75023437 1.74992188 1.50046875 1.62109375 2.2734375 C1.39793626 6.04337462 1.61998853 8.45978821 3 12 C7.08456604 15.93379811 12.544102 18.23315227 17.56884766 20.73388672 C20.02432112 22.01266613 22.35482864 23.4073279 24.69921875 24.87890625 C25.8284375 25.58345947 25.8284375 25.58345947 26.98046875 26.30224609 C28.42193624 27.20699018 29.85840848 28.11975586 31.2890625 29.04150391 C34.62921091 31.07538083 36.30364882 32.03543562 40.30078125 31.83203125 C42.20771973 31.24421953 44.10692227 30.63102591 46 30 C48.69921875 31.21484375 48.69921875 31.21484375 51.6875 32.9375 C52.68136719 33.50339844 53.67523438 34.06929688 54.69921875 34.65234375 C55.45847656 35.09707031 56.21773438 35.54179687 57 36 C57 36.66 57 37.32 57 38 C54.76171875 39.9375 54.76171875 39.9375 51.6875 42 C50.20830078 43.051875 50.20830078 43.051875 48.69921875 44.125 C43.54931182 45.3431406 41.36153389 43.535925 36.96899414 40.86132812 C35.98922607 40.24708984 35.00945801 39.63285156 34 39 C32.0243761 37.89002916 30.04249478 36.79112651 28.0546875 35.703125 C18.3506419 30.28843065 8.65380735 24.86267535 -0.9375 19.25 C-1.63439941 18.84426758 -2.33129883 18.43853516 -3.04931641 18.02050781 C-5.62350428 16.50211099 -7.87745564 15.12254436 -10 13 C-9.36191406 12.731875 -8.72382813 12.46375 -8.06640625 12.1875 C-3.13868047 10.05585382 -3.13868047 10.05585382 -0.1796875 5.88671875 C0.13603269 3.44522138 0.13603269 3.44522138 0 0 Z " fill="#DCA954" transform="translate(176,326)"/>
<path d="M0 0 C2.19049405 1.73728838 2.84912773 3.1859529 3.35546875 5.91796875 C3.8685584 13.75298638 0.28932986 19.63754677 -4 25.9375 C-7.48640851 29.53285877 -9.73539801 30.93780646 -14.8125 31.1875 C-15.864375 31.125625 -16.91625 31.06375 -18 31 C-20.4631119 26.58816102 -20.73738026 22.96761439 -20 18 C-17.55361734 10.53568826 -13.31192294 5.55628874 -7 1 C-4.4254716 -0.2872642 -2.85291355 -0.34791629 0 0 Z " fill="#BFBFC0" transform="translate(400,265)"/>
<path d="M0 0 C2.86185139 4.29277708 2.59800816 7.9606873 2 13 C-0.41816049 20.91511294 -4.61986609 27.01472769 -12 31 C-15.1875 31.5 -15.1875 31.5 -18 31 C-20.80483628 28.75613098 -20.99337649 27.04121293 -21.5625 23.5 C-21.28237567 16.7006185 -17.63712785 9.88828288 -13.11328125 4.93359375 C-8.64705703 1.04788505 -5.90878361 -0.49239863 0 0 Z " fill="#BFBFC0" transform="translate(318,313)"/>
<path d="M0 0 C4.75 0.875 4.75 0.875 7 2 C6.43708547 11.16191918 4.79203512 20.01728306 3 29 C2.18474854 29.15299561 2.18474854 29.15299561 1.35302734 29.30908203 C-1.59356048 30.1742868 -3.9785096 31.53579325 -6.6484375 33.0546875 C-7.73640625 33.66957031 -8.824375 34.28445312 -9.9453125 34.91796875 C-11.07710938 35.56378906 -12.20890625 36.20960938 -13.375 36.875 C-15.61128587 38.14445127 -17.84824398 39.41271918 -20.0859375 40.6796875 C-21.0764209 41.24413574 -22.0669043 41.80858398 -23.08740234 42.39013672 C-26.02055819 44.01136301 -28.99241531 45.5221688 -32 47 C-32.76700276 43.77029647 -32.93664511 41.2079936 -32 38 C-28.57460452 34.80938146 -24.57776364 32.82355958 -20.4375 30.6875 C-19.35146484 30.09388672 -18.26542969 29.50027344 -17.14648438 28.88867188 C-8.73073079 24.29965609 -8.73073079 24.29965609 -5.69360352 23.05419922 C-3.50859383 22.20301553 -3.50859383 22.20301553 -1 20 C-0.02150171 16.5765985 -0.02033429 13.29191988 -0.0625 9.75 C-0.03833008 8.34621094 -0.03833008 8.34621094 -0.01367188 6.9140625 C0.02162671 4.60788815 0.02509478 2.3061784 0 0 Z " fill="#FAB02B" transform="translate(292,193)"/>
<path d="M0 0 C2.375 1 2.375 1 4 2 C4 2.66 4 3.32 4 4 C3.21496094 4.32871094 2.42992187 4.65742188 1.62109375 4.99609375 C-8.75866038 9.69563887 -13.90851005 15.53813921 -18.2734375 25.95703125 C-21.01527925 33.66661854 -20.12014893 39.58964629 -17 47 C-21.43970742 45.60466338 -23.90515679 43.43871468 -27 40 C-29.66510155 34.66979689 -28.23946326 27.91359048 -26.4375 22.5 C-21.90492302 11.29534292 -13.3184368 -0.79910621 0 0 Z " fill="#13110D" transform="translate(396,255)"/>
<path d="M0 0 C2.5 1 2.5 1 4 2 C4 2.66 4 3.32 4 4 C3.12988281 4.23783203 3.12988281 4.23783203 2.2421875 4.48046875 C-7.30003686 7.33053906 -11.26817393 11.92460872 -16.484375 20.18359375 C-20.68853059 27.99595503 -21.27871006 36.20483727 -19 44.75 C-18.67 45.4925 -18.34 46.235 -18 47 C-27.00855359 42.35663627 -27.00855359 42.35663627 -28.72265625 37.203125 C-29.9342874 27.57833668 -26.31535207 18.80733757 -21 11 C-18.625 8.1875 -18.625 8.1875 -16 6 C-15.40316406 5.46375 -14.80632812 4.9275 -14.19140625 4.375 C-9.3076204 0.26233823 -6.36534348 -0.84871246 0 0 Z " fill="#100F0D" transform="translate(314,303)"/>
<path d="M0 0 C0.33 0 0.66 0 1 0 C1.37363093 4.81888093 1.64401931 9.62922819 1.82397461 14.45922852 C1.89898847 16.09678912 2.00106951 17.73335828 2.1315918 19.36743164 C2.97230507 30.17142146 2.97230507 30.17142146 1 35 C-2.48466858 39.0010106 -7.35592025 41.07561115 -12.13565063 43.16055298 C-14.59876027 44.26959943 -16.83711941 45.65213678 -19.11328125 47.1015625 C-20.51280988 47.94305928 -21.91253903 48.78422268 -23.3125 49.625 C-24.03888672 50.06972656 -24.76527344 50.51445312 -25.51367188 50.97265625 C-27.30693504 52.04360969 -29.1496243 53.03106047 -31 54 C-31.66 53.67 -32.32 53.34 -33 53 C-33.27537478 49.43711523 -33.12185148 46.40937677 -32 43 C-28.9169997 39.94861249 -25.33080794 38.10951648 -21.5 36.125 C-20.530625 35.58359375 -19.56125 35.0421875 -18.5625 34.484375 C-12.80577614 31.31198685 -7.03760786 28.68338127 -1 26 C-0.67 17.42 -0.34 8.84 0 0 Z " fill="#D06304" transform="translate(346,216)"/>
<path d="M0 0 C0.99 0.33 1.98 0.66 3 1 C-6.64897005 7.11361868 -16.53665612 12.79422736 -26.44482422 18.47509766 C-33.34656287 22.44082047 -40.17057014 26.48687301 -46.875 30.77734375 C-49 32 -49 32 -51 32 C-50.58994384 23.80966773 -50.0946225 15.95956551 -48 8 C-42.38658482 9.62036727 -38.38140438 12.34928592 -33.68359375 15.734375 C-31.10335558 17.3225262 -31.10335558 17.3225262 -28.6706543 16.26464844 C-25.90456028 14.95480594 -23.24746017 13.54251292 -20.5859375 12.03125 C-19.07386719 11.17466797 -19.07386719 11.17466797 -17.53125 10.30078125 C-16.4896875 9.70652344 -15.448125 9.11226563 -14.375 8.5 C-13.32570313 7.90574219 -12.27640625 7.31148438 -11.1953125 6.69921875 C-5.51632231 3.48275027 -5.51632231 3.48275027 0 0 Z " fill="#3B2E1D" transform="translate(344,252)"/>
<path d="M0 0 C2.9375 1.93359375 2.9375 1.93359375 5 3.5625 C5 3.8925 5 4.2225 5 4.5625 C4.17991455 4.79924438 4.17991455 4.79924438 3.34326172 5.04077148 C-2.58057416 6.86645549 -7.60434044 9.39201507 -12.875 12.625 C-13.62007812 13.07166016 -14.36515625 13.51832031 -15.1328125 13.97851562 C-18.13329635 15.78366283 -21.08575525 17.61967016 -24 19.5625 C-29.42024894 19.36175004 -31.95033081 18.02768085 -36 14.5625 C-32.98620716 12.66855826 -29.96073832 10.79867752 -26.91015625 8.96484375 C-24.20651817 7.3328071 -21.5954724 5.60927703 -18.99609375 3.81640625 C-7.51971106 -3.78199838 -7.51971106 -3.78199838 0 0 Z " fill="#EFD3A3" transform="translate(182,266.4375)"/>
<path d="M0 0 C2.92706622 1.58711902 5.65272471 3.3873763 8.38232422 5.29174805 C4.51401462 8.64428303 0.3459362 11.1905397 -4.05517578 13.7644043 C-6.40183205 15.16309729 -8.65986371 16.64890684 -10.93017578 18.16674805 C-13.10180397 19.50180091 -14.62665831 20.29399368 -17.11767578 20.91674805 C-21.10438067 19.92007182 -24.26992092 17.61773158 -27.61767578 15.29174805 C-23.72112516 11.04321487 -18.63653424 8.43004945 -13.74267578 5.47924805 C-12.74880859 4.85598633 -11.75494141 4.23272461 -10.73095703 3.59057617 C-9.2865625 2.72142578 -9.2865625 2.72142578 -7.81298828 1.8347168 C-6.93658691 1.2987085 -6.06018555 0.7627002 -5.15722656 0.21044922 C-2.61767578 -0.70825195 -2.61767578 -0.70825195 0 0 Z " fill="#F1D7AD" transform="translate(232.61767578125,263.708251953125)"/>
<path d="M0 0 C0.96292969 0.59167969 1.92585938 1.18335938 2.91796875 1.79296875 C3.89378906 2.37691406 4.86960938 2.96085937 5.875 3.5625 C6.61105469 4.03042969 7.34710938 4.49835938 8.10546875 4.98046875 C4.35874798 9.0611907 -0.46080868 11.4723109 -5.20703125 14.23046875 C-6.6137207 15.08125 -6.6137207 15.08125 -8.04882812 15.94921875 C-14.99623674 19.98351382 -14.99623674 19.98351382 -19.3515625 19.96875 C-22.54858534 18.72628183 -25.1417829 17.0122592 -27.89453125 14.98046875 C-24.44820701 11.05076397 -20.48854916 8.86754953 -15.95703125 6.41796875 C-14.55175997 5.64642201 -13.14680468 4.87429941 -11.7421875 4.1015625 C-11.07485596 3.74408936 -10.40752441 3.38661621 -9.7199707 3.01831055 C-7.70002927 1.91802898 -7.70002927 1.91802898 -5.25390625 0.02734375 C-2.89453125 -1.01953125 -2.89453125 -1.01953125 0 0 Z " fill="#F0D3A3" transform="translate(167.89453125,301.01953125)"/>
<path d="M0 0 C1.36298077 12.28365385 1.36298077 12.28365385 -1.6875 16.125 C-4.05116024 17.70077349 -6.40440269 18.85080424 -9 20 C-9.73089844 20.47695313 -10.46179688 20.95390625 -11.21484375 21.4453125 C-13.6010394 22.88652289 -15.22175059 23.67684336 -18 24 C-22.04545769 22.53083249 -25.47553405 20.4506567 -29 18 C-26.0726589 14.83394868 -23.12152201 12.70184371 -19.39453125 10.546875 C-18.32912109 9.928125 -17.26371094 9.309375 -16.16601562 8.671875 C-15.05935547 8.03765625 -13.95269531 7.4034375 -12.8125 6.75 C-11.69423828 6.1003125 -10.57597656 5.450625 -9.42382812 4.78125 C-1.15206473 0 -1.15206473 0 0 0 Z " fill="#EFD2A3" transform="translate(191,273)"/>
<path d="M0 0 C0.54414551 0.27569824 1.08829102 0.55139648 1.64892578 0.83544922 C2.3654834 1.19654785 3.08204102 1.55764648 3.8203125 1.9296875 C4.52945801 2.28788574 5.23860352 2.64608398 5.96923828 3.01513672 C8.11267363 4.0874554 8.11267363 4.0874554 10.875 5.125 C13 6 13 6 15 8 C14.34 8 13.68 8 13 8 C12.90203125 8.72703125 12.8040625 9.4540625 12.703125 10.203125 C9.84349322 29.43168355 9.84349322 29.43168355 5.18359375 33.640625 C3.25 34.75 3.25 34.75 0 36 C-1.53937439 32.92125123 -1.00296786 29.73263303 -0.87890625 26.3671875 C-0.84348976 25.23943405 -0.84348976 25.23943405 -0.80735779 24.08889771 C-0.7306938 21.68407434 -0.64668156 19.27957082 -0.5625 16.875 C-0.50928203 15.24610948 -0.45654161 13.61720328 -0.40429688 11.98828125 C-0.27507502 7.9919844 -0.13926173 3.99595908 0 0 Z " fill="#534839" transform="translate(347,217)"/>
<path d="M0 0 C2.9719385 1.12451727 5.33440687 2.22293791 8 4 C8.2487793 5.87939453 8.2487793 5.87939453 8.07421875 8.1328125 C8.01943359 8.93847656 7.96464844 9.74414062 7.90820312 10.57421875 C7.83537109 11.41597656 7.76253906 12.25773437 7.6875 13.125 C7.5956543 14.39923828 7.5956543 14.39923828 7.50195312 15.69921875 C7.34848609 17.80053665 7.17602278 19.90045124 7 22 C1.92365174 20.2010497 -2.63713611 17.50973545 -7.3125 14.875 C-8.14845703 14.40707031 -8.98441406 13.93914062 -9.84570312 13.45703125 C-11.89866233 12.3073741 -13.95002202 11.15496198 -16 10 C-12.09515314 6.01038502 -7.68798374 2.27999831 -2 1.6875 C-1.34 1.790625 -0.68 1.89375 0 2 C0 1.34 0 0.68 0 0 Z " fill="#DCA954" transform="translate(118,312)"/>
<path d="M0 0 C1.95898438 1.11328125 1.95898438 1.11328125 4.95898438 3.36328125 C3.22209777 8.57394106 -2.2235374 10.42482888 -6.79101562 13.11328125 C-8.29535156 14.03560547 -8.29535156 14.03560547 -9.83007812 14.9765625 C-10.80203125 15.55277344 -11.77398437 16.12898438 -12.77539062 16.72265625 C-13.66452148 17.25342773 -14.55365234 17.78419922 -15.46972656 18.33105469 C-18.53107462 19.56001211 -19.93789074 19.36149829 -23.04101562 18.36328125 C-25.85351562 16.92578125 -25.85351562 16.92578125 -28.04101562 15.36328125 C-28.04101562 14.70328125 -28.04101562 14.04328125 -28.04101562 13.36328125 C-25.20931239 11.77701984 -22.37535585 10.19482532 -19.54101562 8.61328125 C-18.74953125 8.16984375 -17.95804688 7.72640625 -17.14257812 7.26953125 C-15.55648938 6.38548178 -13.96662815 5.50816626 -12.37304688 4.63769531 C-10.84125212 3.80059642 -9.31740594 2.94875267 -7.80273438 2.08105469 C-2.55653577 -0.7975413 -2.55653577 -0.7975413 0 0 Z " fill="#F0D7AD" transform="translate(219.041015625,255.63671875)"/>
<path d="M0 0 C17.10833367 9.26339556 17.10833367 9.26339556 21 15 C21.71370971 19.11521981 21.557097 22.87335557 21 27 C20.67 27 20.34 27 20 27 C20 23.7 20 20.4 20 17 C17.03 18.65 14.06 20.3 11 22 C10.60425781 21.24976563 10.20851563 20.49953125 9.80078125 19.7265625 C5.81873587 13.69734845 -1.49073139 9.91204122 -8 7 C-6.5361389 2.60841671 -4.02168662 2.12052567 0 0 Z " fill="#E57B02" transform="translate(326,189)"/>
<path d="M0 0 C2.39497478 1.29023129 4.61162309 2.58003933 6.875 4.0625 C7.46796875 4.43955078 8.0609375 4.81660156 8.671875 5.20507812 C10.12027322 6.12784796 11.56096031 7.06270263 13 8 C2.93375777 16.18744017 2.93375777 16.18744017 -1.41796875 15.765625 C-4.1541777 14.95428316 -6.34896352 13.87149885 -8.8125 12.4375 C-9.60269531 11.98246094 -10.39289063 11.52742188 -11.20703125 11.05859375 C-11.79871094 10.70925781 -12.39039063 10.35992187 -13 10 C-13.38137276 5.53031124 -13.38137276 5.53031124 -11.6796875 3.1640625 C-11.08414063 2.65617187 -10.48859375 2.14828125 -9.875 1.625 C-9.29492188 1.10164063 -8.71484375 0.57828125 -8.1171875 0.0390625 C-5.00269345 -1.48945303 -3.30678612 -0.95232198 0 0 Z " fill="#6B6B68" transform="translate(182,371)"/>
<path d="M0 0 C3.479226 1.18839842 6.43092999 2.99943025 9.5 4.98046875 C10.09748047 5.35751953 10.69496094 5.73457031 11.31054688 6.12304688 C12.77386577 7.04786441 14.23129523 7.9819894 15.6875 8.91796875 C11.68342677 13.07066478 7.83141086 16.85107703 1.75 16.98046875 C-2.38338737 15.5464364 -5.99115557 13.80079827 -9.3125 10.91796875 C-10.25 8.48046875 -10.25 8.48046875 -9.3125 5.91796875 C-4.216334 -0.1495659 -4.216334 -0.1495659 0 0 Z " fill="#6B6A67" transform="translate(118.3125,335.08203125)"/>
<path d="M0 0 C0.66 0.33 1.32 0.66 2 1 C2 1.66 2 2.32 2 3 C-0.15551758 4.48046875 -0.15551758 4.48046875 -3.14453125 6.1875 C-4.21380859 6.80367188 -5.28308594 7.41984375 -6.38476562 8.0546875 C-7.51591797 8.69664062 -8.64707031 9.33859375 -9.8125 10 C-12.02770484 11.27020381 -14.24256427 12.54101025 -16.45703125 13.8125 C-17.44678955 14.37582031 -18.43654785 14.93914062 -19.45629883 15.51953125 C-21.34206237 16.61707133 -23.18454741 17.78969827 -25 19 C-25.73606499 22.56769552 -25.73606499 22.56769552 -26 26 C-31.875 24.125 -31.875 24.125 -33 23 C-33.4140625 19.68359375 -33.4140625 19.68359375 -33 16 C-30.6484375 13.84765625 -30.6484375 13.84765625 -27.375 12.0625 C-26.79613037 11.73894531 -26.21726074 11.41539062 -25.62084961 11.08203125 C-24.39018718 10.39530346 -23.15387777 9.71861408 -21.91259766 9.05126953 C-19.9828812 7.99059056 -18.10697536 6.86672486 -16.23046875 5.71484375 C-5.78196463 -0.5989949 -5.78196463 -0.5989949 0 0 Z " fill="#AF976F" transform="translate(188,271)"/>
<path d="M0 0 C0.66 0.33 1.32 0.66 2 1 C1.97268799 2.21059082 1.94537598 3.42118164 1.91723633 4.66845703 C1.83016936 9.17526972 1.81580351 13.67993326 1.82299805 18.1875 C1.81603713 20.13526162 1.78955492 22.08305775 1.74291992 24.03027344 C1.39086688 33.12292913 1.39086688 33.12292913 3 42 C6.27449035 45.42307217 9.43172365 46.88210481 14 48 C6.17498304 55.93097863 6.17498304 55.93097863 0.125 56.0625 C-4.23580452 54.57982646 -8.06402104 52.370334 -12 50 C-8.11033975 46.69968221 -4.5698923 44.61136703 0 42 C0 28.14 0 14.28 0 0 Z " fill="#D4A65B" transform="translate(253,295)"/>
<path d="M0 0 C-1.14888661 8.37220563 -2.4077483 16.69996456 -4 25 C-5.64703306 24.18993474 -7.29259506 23.3768779 -8.9375 22.5625 C-9.85402344 22.11003906 -10.77054687 21.65757812 -11.71484375 21.19140625 C-14 20 -14 20 -15 19 C-15.97626793 15.08805315 -16.17258357 11.87775443 -15 8 C-11.18120641 4.61372171 -5.30490844 0 0 0 Z " fill="#DE7702" transform="translate(293,230)"/>
<path d="M0 0 C1.98 0.99 3.96 1.98 6 3 C4.70899085 6.87302745 3.48067745 7.07195051 -0.09375 8.890625 C-1.12371094 9.43589844 -2.15367187 9.98117187 -3.21484375 10.54296875 C-5.39858964 11.6776857 -7.588727 12.80018903 -9.78515625 13.91015625 C-15.24310043 16.51195493 -15.24310043 16.51195493 -18.94140625 20.98242188 C-19.3147037 23.10530124 -19.3147037 23.10530124 -19 26 C-20.98 25.01 -22.96 24.02 -25 23 C-26.031665 18.79231921 -26.031665 18.79231921 -25 16 C-21.36100498 12.97346972 -17.23875086 10.88540252 -13.0625 8.6875 C-10.82203517 7.46623698 -8.58363612 6.24117395 -6.34765625 5.01171875 C-5.34742432 4.48022217 -4.34719238 3.94872559 -3.31665039 3.40112305 C-0.882907 2.21072851 -0.882907 2.21072851 0 0 Z " fill="#B09871" transform="translate(224,259)"/>
<path d="M0 0 C1.299375 0.433125 1.299375 0.433125 2.625 0.875 C2.955 1.535 3.285 2.195 3.625 2.875 C-0.3292265 5.21534723 -4.28903506 7.5460785 -8.25 9.875 C-9.37792969 10.54273438 -10.50585938 11.21046875 -11.66796875 11.8984375 C-12.74433594 12.53007812 -13.82070312 13.16171875 -14.9296875 13.8125 C-15.92468262 14.39902344 -16.91967773 14.98554688 -17.94482422 15.58984375 C-20.375 16.875 -20.375 16.875 -22.375 16.875 C-22.375 19.185 -22.375 21.495 -22.375 23.875 C-24.875 22.8125 -24.875 22.8125 -27.375 20.875 C-28.03515625 17.578125 -28.03515625 17.578125 -27.375 13.875 C-25.00238886 11.5781601 -22.23406939 10.18815723 -19.3125 8.6875 C-18.56033203 8.27564453 -17.80816406 7.86378906 -17.03320312 7.43945312 C-15.54005843 6.6237178 -14.04004751 5.82041595 -12.53320312 5.03027344 C-10.4886919 3.9358586 -8.51215333 2.76464315 -6.52734375 1.56640625 C-3.375 -0.125 -3.375 -0.125 0 0 Z " fill="#AF9770" transform="translate(161.375,298.125)"/>
<path d="M0 0 C2.76287929 1.5343758 5.39680976 3.20948082 8 5 C4.6018135 8.66874275 0.62273894 11.11970299 -4 13 C-6.5625 12.625 -6.5625 12.625 -9 11 C-10.43729128 10.12465719 -11.87480589 9.24968103 -13.3125 8.375 C-14.54418995 7.58726484 -15.77422398 6.79690649 -17 6 C-6.62633452 -2.29893238 -6.62633452 -2.29893238 0 0 Z " fill="#DCA955" transform="translate(242,348)"/>
<path d="M0 0 C3.79049707 1.42749981 7.27122456 3.16236542 10.8125 5.125 C12.27623047 5.93324219 12.27623047 5.93324219 13.76953125 6.7578125 C14.87361328 7.37269531 14.87361328 7.37269531 16 8 C16 11.3 16 14.6 16 18 C9.95889479 15.70236258 4.11994781 12.98395939 -1 9 C-1.82492345 5.12920536 -1.74340905 3.4868181 0 0 Z " fill="#E68E2B" transform="translate(298,251)"/>
<path d="M0 0 C1.62741744 0.78668518 3.25186131 1.5795241 4.875 2.375 C5.77992188 2.81585938 6.68484375 3.25671875 7.6171875 3.7109375 C10 5 10 5 12 7 C12.1953125 9.8203125 12.1953125 9.8203125 12.125 13.125 C12.10695313 14.22070312 12.08890625 15.31640625 12.0703125 16.4453125 C12.03550781 17.70988281 12.03550781 17.70988281 12 19 C7.32112994 17.66317998 3.43191003 16.51362217 0 13 C-0.52036508 8.62568106 -0.34211809 4.38417991 0 0 Z " fill="#4B4B48" transform="translate(255,324)"/>
<path d="M0 0 C2.49986 1.27770622 4.05310739 2.28713126 5.8125 4.4375 C5.008125 4.72625 4.20375 5.015 3.375 5.3125 C0.2773498 7.88128309 0.36201905 8.74700809 0 12.625 C-0.0848586 14.22813941 -0.15437531 15.83245804 -0.1875 17.4375 C-3.27260827 16.23773567 -6.23797042 14.93747444 -9.1875 13.4375 C-9.53793662 10.03696691 -9.69591623 6.82694151 -9.1875 3.4375 C-6.01192375 0.11070584 -4.57065049 -0.80658538 0 0 Z " fill="#B0956B" transform="translate(199.1875,301.5625)"/>
<path d="M0 0 C3.80715044 0.52877089 6.21618261 1.29999647 9 4 C9.20703125 6.3046875 9.20703125 6.3046875 8.8125 8.875 C8.68617188 9.75671875 8.55984375 10.6384375 8.4296875 11.546875 C7.49817518 16.8649635 7.49817518 16.8649635 7 19 C3.59687262 17.94124926 0.98646769 16.99097846 -2 15 C-1.03644647 4.44191344 -1.03644647 4.44191344 0 0 Z " fill="#2B2B2B" transform="translate(236,161)"/>
<path d="M0 0 C0 2.64 0 5.28 0 8 C1.98 8.66 3.96 9.32 6 10 C4.32533946 12.13984402 2.96393133 13.0149553 0.4375 14.0625 C-4.93669177 13.96478742 -8.65146642 10.96490926 -13 8 C-3.57142857 0 -3.57142857 0 0 0 Z " fill="#F0D3A3" transform="translate(191,290)"/>
<path d="M0 0 C1.82312056 0.87401661 3.63330341 1.77505917 5.4375 2.6875 C6.44683594 3.18636719 7.45617187 3.68523437 8.49609375 4.19921875 C11 6 11 6 11.91015625 8.39453125 C12.00371908 11.10785344 11.67467923 13.37624746 11 16 C9.35296694 15.18993474 7.70740494 14.3768779 6.0625 13.5625 C5.14597656 13.11003906 4.22945313 12.65757812 3.28515625 12.19140625 C1 11 1 11 0 10 C-0.07205511 8.31391034 -0.08386068 6.62499341 -0.0625 4.9375 C-0.05347656 4.01839844 -0.04445313 3.09929687 -0.03515625 2.15234375 C-0.02355469 1.44207031 -0.01195312 0.73179687 0 0 Z " fill="#E78F2B" transform="translate(278,239)"/>
<path d="M0 0 C4.61396512 1.31827575 8.41313814 2.75474403 12 6 C12 8.64 12 11.28 12 14 C7.05 11.69 2.1 9.38 -3 7 C-2.67 6.34 -2.34 5.68 -2 5 C-1.34 5.33 -0.68 5.66 0 6 C0 4.02 0 2.04 0 0 Z " fill="#E7BC76" transform="translate(162,291)"/>
<path d="M0 0 C3 2 3 2 3.65234375 3.8125 C4.6342739 11.34511482 2.73016174 17.10918979 -1.6171875 23.3046875 C-4.90114211 27.2892191 -7.98028363 30.36313597 -13 32 C-15.875 31.6875 -15.875 31.6875 -18 31 C-18 30.67 -18 30.34 -18 30 C-16.948125 29.7525 -15.89625 29.505 -14.8125 29.25 C-9.05426417 27.54685983 -6.18193061 24.59769788 -3.25 19.4375 C-0.72704441 14.70296624 0.12039733 11.19695215 0.0625 5.8125 C0.05347656 4.72582031 0.04445313 3.63914062 0.03515625 2.51953125 C0.02355469 1.68808594 0.01195312 0.85664063 0 0 Z " fill="#535354" transform="translate(319,314)"/>
<path d="M0 0 C0.74765625 0.45632813 1.4953125 0.91265625 2.265625 1.3828125 C3.25046875 1.95773437 4.2353125 2.53265625 5.25 3.125 C6.71179688 3.99511719 6.71179688 3.99511719 8.203125 4.8828125 C10.878121 6.29135541 10.878121 6.29135541 13.20703125 5.31640625 C15.16409178 3.92455967 15.16409178 3.92455967 17.4375 1.8125 C20 0 20 0 22.75 0.125 C25 1 25 1 26 3 C24.11542462 4.20528665 22.21682415 5.38866449 20.3125 6.5625 C19.25675781 7.22378906 18.20101562 7.88507813 17.11328125 8.56640625 C13.63345512 10.16878541 12.53449863 10.28527223 9 9 C6.54296875 7.80859375 6.54296875 7.80859375 4.1875 6.4375 C3.39730469 5.98246094 2.60710937 5.52742188 1.79296875 5.05859375 C1.20128906 4.70925781 0.60960937 4.35992187 0 4 C0 2.68 0 1.36 0 0 Z " fill="#4D4C49" transform="translate(169,377)"/>
<path d="M0 0 C1.65 0.66 3.3 1.32 5 2 C1.68655997 5.71105283 -1.51805937 7.91357936 -6 10 C-11.2307168 10.11129185 -16.10514427 7.42035554 -20 4 C-20 3.01 -20 2.02 -20 1 C-17.15500144 2.08779357 -14.59047816 3.23401248 -11.9375 4.75 C-9.18546285 6.27950891 -9.18546285 6.27950891 -6.9375 5.4375 C-4.57263423 3.68292217 -2.26230417 1.88525347 0 0 Z " fill="#4B4B49" transform="translate(129,342)"/>
<path d="M0 0 C0.66 0 1.32 0 2 0 C4.63813388 4.64057286 4.71240758 8.77317804 4 14 C1.61153591 21.47644805 -2.70085533 26.4529353 -9 31 C-11.70879335 32.35439668 -14.00933268 32.06501451 -17 32 C-17.33 31.34 -17.66 30.68 -18 30 C-16.783125 29.773125 -15.56625 29.54625 -14.3125 29.3125 C-7.50240851 27.57400833 -4.52120425 22.56930059 -1.015625 16.8671875 C0.72007064 13.67617783 1.13689053 11.06715864 1.125 7.5 C1.12757813 6.7265625 1.13015625 5.953125 1.1328125 5.15625 C1.08145813 2.81552983 1.08145813 2.81552983 0 0 Z " fill="#4D4E4E" transform="translate(401,266)"/>
<path d="M0 0 C5 2 5 2 10 4 C9.67 6.64 9.34 9.28 9 12 C4.545 12.495 4.545 12.495 0 13 C0 8.71 0 4.42 0 0 Z " fill="#E8BD76" transform="translate(146,282)"/>
<path d="M0 0 C-2.79196011 3.28465896 -6.23196817 5.01321958 -10 7 C-10.66 7 -11.32 7 -12 7 C-12 9.31 -12 11.62 -12 14 C-14.5 12.875 -14.5 12.875 -17 11 C-17.3125 7.8125 -17.3125 7.8125 -17 5 C-16.4328125 4.88914062 -15.865625 4.77828125 -15.28125 4.6640625 C-11.91192982 3.68326724 -9.18591891 1.80017576 -6.21875 -0.0390625 C-3.63766589 -1.15692639 -2.58460001 -0.97509909 0 0 Z " fill="#AD956F" transform="translate(151,308)"/>
<path d="M0 0 C0.66 0.33 1.32 0.66 2 1 C-0.22055318 4.16001798 -1.5905405 5.82337041 -5.1875 7.375 C-6.115625 7.91125 -7.04375 8.4475 -8 9 C-8.97873538 12.59385054 -8.97873538 12.59385054 -9 16 C-11.5 14.875 -11.5 14.875 -14 13 C-14.3125 9.8125 -14.3125 9.8125 -14 7 C-13.0409375 6.6596875 -13.0409375 6.6596875 -12.0625 6.3125 C-8.51750911 4.79321819 -5.29709486 2.89994735 -1.98828125 0.92578125 C-1.33214844 0.62027344 -0.67601562 0.31476563 0 0 Z " fill="#AB926B" transform="translate(214,269)"/>
<path d="M0 0 C4.75 1.875 4.75 1.875 7 3 C7 5.97 7 8.94 7 12 C3 11 3 11 0 9 C-0.29296875 6.8359375 -0.29296875 6.8359375 -0.1875 4.375 C-0.16042969 3.55773437 -0.13335937 2.74046875 -0.10546875 1.8984375 C-0.05326172 0.95871094 -0.05326172 0.95871094 0 0 Z " fill="#9B7F57" transform="translate(191,306)"/>
<path d="M0 0 C0.99 0.33 1.98 0.66 3 1 C-4.35028622 5.57635211 -11.74341907 10.07782084 -19.1875 14.5 C-19.92991943 14.94520996 -20.67233887 15.39041992 -21.43725586 15.84912109 C-26.76803863 19 -26.76803863 19 -29 19 C-29 18.34 -29 17.68 -29 17 C-28.22809326 16.5560791 -27.45618652 16.1121582 -26.66088867 15.65478516 C-23.79225346 14.00439667 -20.92414857 12.35309407 -18.05639648 10.70117188 C-16.81604751 9.98693827 -15.57548941 9.2730677 -14.3347168 8.55957031 C-12.5494134 7.53285999 -10.7648707 6.50483853 -8.98046875 5.4765625 C-7.37014771 4.549646 -7.37014771 4.549646 -5.72729492 3.60400391 C-3.78300181 2.46050684 -1.8767966 1.25119773 0 0 Z " fill="#4E381C" transform="translate(344,252)"/>
<path d="M0 0 C0.66 0.33 1.32 0.66 2 1 C1.875 2.765625 1.875 2.765625 1 5 C-1.6875 6.921875 -1.6875 6.921875 -5 8.75 C-6.6396875 9.67039062 -6.6396875 9.67039062 -8.3125 10.609375 C-11 12 -11 12 -12 12 C-12.3671875 9.7421875 -12.3671875 9.7421875 -12 7 C-9.4453125 4.9453125 -9.4453125 4.9453125 -6.125 3.125 C-5.03445312 2.50882812 -3.94390625 1.89265625 -2.8203125 1.2578125 C-1.88960937 0.84273438 -0.95890625 0.42765625 0 0 Z " fill="#D18D1C" transform="translate(216,373)"/>
<path d="M0 0 C5.83752107 0.29936005 10.79800768 3.01277618 15 7 C15 8.32 15 9.64 15 11 C11.47351217 9.30523158 8.1232876 7.35497316 4.75 5.375 C3.67234375 4.74335938 2.5946875 4.11171875 1.484375 3.4609375 C0.66453125 2.97882813 -0.1553125 2.49671875 -1 2 C-0.67 1.34 -0.34 0.68 0 0 Z " fill="#C58020" transform="translate(239,345)"/>
<path d="M0 0 C2.44463558 1.16917354 4.82513213 2.36206528 7.1875 3.6875 C7.88488281 4.07550781 8.58226562 4.46351563 9.30078125 4.86328125 C10.875 6.375 10.875 6.375 11.10546875 9.04296875 C11.02941406 9.81253906 10.95335937 10.58210938 10.875 11.375 C10.12734375 10.89289063 9.3796875 10.41078125 8.609375 9.9140625 C7.62453125 9.28242188 6.6396875 8.65078125 5.625 8 C4.65046875 7.37351562 3.6759375 6.74703125 2.671875 6.1015625 C0.43978385 4.72365148 -1.75587422 3.49187358 -4.125 2.375 C-4.125 1.715 -4.125 1.055 -4.125 0.375 C-2.125 -0.625 -2.125 -0.625 0 0 Z " fill="#C57F20" transform="translate(226.125,354.625)"/>
<path d="M0 0 C0.33 0.66 0.66 1.32 1 2 C-6.35296586 11.15857583 -6.35296586 11.15857583 -12 13 C-14.875 12.6875 -14.875 12.6875 -17 12 C-17 11.67 -17 11.34 -17 11 C-15.948125 10.7525 -14.89625 10.505 -13.8125 10.25 C-7.89247442 8.5466526 -4.20739345 4.32760469 0 0 Z " fill="#4B4C4C" transform="translate(318,333)"/>
<path d="M0 0 C1.82086605 0.8999338 3.63152033 1.82055314 5.4375 2.75 C6.44683594 3.26046875 7.45617187 3.7709375 8.49609375 4.296875 C11 6 11 6 11.84765625 8.203125 C11.92306641 9.09257812 11.92306641 9.09257812 12 10 C7.69235185 8.43358249 3.93828536 6.31663844 0 4 C0 2.68 0 1.36 0 0 Z " fill="#31312F" transform="translate(169,377)"/>
<path d="M0 0 C4.30764815 1.56641751 8.06171464 3.68336156 12 6 C12 6.99 12 7.98 12 9 C7.39874735 7.68535639 3.77578157 5.96668552 0 3 C0 2.01 0 1.02 0 0 Z " fill="#30302F" transform="translate(109,343)"/>
<path d="M0 0 C2.475 0.99 2.475 0.99 5 2 C5 4.31 5 6.62 5 9 C2.525 8.01 2.525 8.01 0 7 C0 4.69 0 2.38 0 0 Z " fill="#9D8158" transform="translate(156,288)"/>
<path d="M0 0 C2.5 1.125 2.5 1.125 5 3 C5.3125 6.1875 5.3125 6.1875 5 9 C2.5 7.875 2.5 7.875 0 6 C-0.3125 2.8125 -0.3125 2.8125 0 0 Z " fill="#9B8057" transform="translate(134,313)"/>
<path d="M0 0 C4.75 1.875 4.75 1.875 7 3 C7 4.32 7 5.64 7 7 C4.08482708 5.92598892 2.22189824 5.22189824 0 3 C0 2.01 0 1.02 0 0 Z " fill="#C5801F" transform="translate(118,312)"/>
<path d="M0 0 C0 2.31 0 4.62 0 7 C-2.475 6.01 -2.475 6.01 -5 5 C-5 4.01 -5 3.02 -5 2 C-1.125 0 -1.125 0 0 0 Z " fill="#DDA755" transform="translate(125,308)"/>
<path d="M0 0 C1.98 0.99 3.96 1.98 6 3 C4.71034824 4.37562854 3.37310707 5.70766393 2 7 C1.34 7 0.68 7 0 7 C0 4.69 0 2.38 0 0 Z " fill="#686866" transform="translate(255,330)"/>
<path d="M0 0 C1.98 0.99 1.98 0.99 4 2 C4 3.98 4 5.96 4 8 C2.68 7.34 1.36 6.68 0 6 C0 4.02 0 2.04 0 0 Z " fill="#9C8057" transform="translate(200,276)"/>
<path d="M0 0 C0 0.66 0 1.32 0 2 C-2.70879335 3.35439668 -5.00933268 3.06501451 -8 3 C-8.33 2.34 -8.66 1.68 -9 1 C-5.94152152 0.45627049 -3.11227195 0 0 0 Z " fill="#545556" transform="translate(392,295)"/>
</svg>
