<?xml version="1.0" encoding="UTF-8"?>
<svg version="1.1" xmlns="http://www.w3.org/2000/svg" width="512" height="512">
<path d="M0 0 C9.74243926 0.14365527 17.20500841 4.42947244 25.4765625 9.10546875 C26.476875 9.66234375 27.4771875 10.21921875 28.5078125 10.79296875 C38.92953011 16.81998617 45.74869201 23.63345349 49.3515625 35.35546875 C54.99604892 61.39402218 46.79666873 87.34988237 34.4765625 110.10546875 C33.98285156 111.02070313 33.48914063 111.9359375 32.98046875 112.87890625 C27.06250886 123.23952725 19.5154182 132.32963472 11.2265625 140.85546875 C10.66783447 141.44481201 10.10910645 142.03415527 9.53344727 142.64135742 C6.47063379 145.70587034 4.20790883 147.84325614 0.04525757 149.33570862 C-4.43533516 151.02360579 -7.88415073 153.00662613 -10.5234375 157.10546875 C-13.08839173 166.35921153 -12.23567662 176.55706938 -12.01315546 186.09049773 C-11.93848799 189.97128226 -11.94689461 193.85185653 -11.94723511 197.73323059 C-11.93611156 205.07924017 -11.85730541 212.42276463 -11.75091922 219.76795226 C-11.56299589 232.92535318 -11.49946256 246.08381438 -11.44743526 259.24235708 C-11.4266216 263.85675837 -11.37910508 268.46990025 -11.30864453 273.08380353 C-11.26772 275.95422107 -11.24257514 278.82464166 -11.22071266 281.695261 C-11.20033531 283.65514849 -11.15940036 285.61478865 -11.11781311 287.57434082 C-11.06009208 298.29044577 -11.06009208 298.29044577 -15.5234375 303.10546875 C-17.46313477 304.76000977 -17.46313477 304.76000977 -19.52734375 306.046875 C-20.71287842 306.79155029 -20.71287842 306.79155029 -21.92236328 307.55126953 C-26.74162291 310.43088346 -31.58473088 313.26073213 -36.4609375 316.04296875 C-38.18867391 317.03434336 -39.91640768 318.0257226 -41.64398193 319.01737976 C-43.42567369 320.03957675 -45.20811985 321.06044744 -46.99072266 322.08105469 C-52.54996059 325.26511532 -58.09916656 328.46657898 -63.6484375 331.66796875 C-64.72617432 332.28929687 -65.80391113 332.910625 -66.91430664 333.55078125 C-74.08984607 337.69082654 -81.24784371 341.86001974 -88.3984375 346.04296875 C-97.66843527 351.46468053 -106.98175502 356.8075179 -116.31188965 362.12469482 C-125.43342041 367.32429801 -134.51980181 372.58128342 -143.58154297 377.88452148 C-152.00119736 382.80984462 -160.44969207 387.68408035 -168.90966797 392.53979492 C-174.2518215 395.61292586 -179.56859361 398.71927915 -184.84375 401.90625 C-185.84390137 402.50816162 -186.84405273 403.11007324 -187.87451172 403.73022461 C-189.75354784 404.86470414 -191.62790502 406.00698437 -193.49658203 407.15844727 C-201.72457359 412.11941894 -201.72457359 412.11941894 -206.5234375 412.10546875 C-208.9453125 411.13671875 -208.9453125 411.13671875 -211.2734375 409.60546875 C-212.41039062 408.8784375 -212.41039062 408.8784375 -213.5703125 408.13671875 C-215.27427351 406.96468208 -216.97419 405.78661872 -218.66259766 404.59228516 C-225.12376312 400.02653243 -231.71832411 395.71816568 -238.3984375 391.48046875 C-240.62537145 390.06178083 -242.85192966 388.64250293 -245.078125 387.22265625 C-246.7192627 386.17609863 -246.7192627 386.17609863 -248.39355469 385.10839844 C-252.78567383 382.29771626 -257.15644996 379.4549841 -261.5234375 376.60546875 C-268.99775173 371.73157717 -276.50373896 366.9090239 -284.0234375 362.10546875 C-294.1373191 355.64407897 -304.21260645 349.1260414 -314.26806641 342.57421875 C-317.7460814 340.30925466 -321.22732954 338.04932014 -324.7109375 335.79296875 C-325.69803711 335.15355347 -325.69803711 335.15355347 -326.70507812 334.5012207 C-331.16256851 331.61902416 -335.63173985 328.7553477 -340.10546875 325.8984375 C-340.67613571 325.53386948 -341.24680267 325.16930145 -341.83476257 324.79368591 C-344.69233243 322.96832871 -347.55083608 321.14446279 -350.41088867 319.32299805 C-351.96706909 318.32973511 -351.96706909 318.32973511 -353.5546875 317.31640625 C-354.48861328 316.72134277 -355.42253906 316.1262793 -356.38476562 315.51318359 C-358.5234375 314.10546875 -358.5234375 314.10546875 -359.5234375 313.10546875 C-359.984375 310.81640625 -359.984375 310.81640625 -359.5234375 308.10546875 C-357.40146169 306.34249791 -355.52172889 305.08089928 -353.1484375 303.73046875 C-352.11299805 303.112323 -352.11299805 303.112323 -351.05664062 302.48168945 C-348.55808563 301.00051817 -346.04201064 299.55233701 -343.5234375 298.10546875 C-341.33319457 296.83617691 -339.14309895 295.56663086 -336.953125 294.296875 C-332.45356122 291.69114038 -327.94376383 289.10398106 -323.4296875 286.5234375 C-321.4595957 285.38643637 -319.49073379 284.24729998 -317.5234375 283.10546875 C-316.69070313 282.6254541 -315.85796875 282.14543945 -315 281.65087891 C-310.73074161 279.28108364 -310.73074161 279.28108364 -308.5234375 275.10546875 C-306.66699219 273.74951172 -306.66699219 273.74951172 -304.1953125 272.34765625 C-303.26549561 271.81350098 -302.33567871 271.2793457 -301.37768555 270.72900391 C-300.35328369 270.1519873 -299.32888184 269.5749707 -298.2734375 268.98046875 C-296.06606102 267.71544596 -293.8590451 266.44979386 -291.65234375 265.18359375 C-290.47414267 264.51102991 -289.2959197 263.83850442 -288.11767578 263.16601562 C-282.72875687 260.08370413 -277.37681845 256.9383252 -272.02380371 253.79421997 C-270.20752248 252.72846489 -268.38960122 251.66555724 -266.57128906 250.60327148 C-260.30397721 246.93796979 -254.06364566 243.23341111 -247.85546875 239.46875 C-246.00578819 238.35256112 -244.15563211 237.23716474 -242.30532837 236.12200928 C-241.12787137 235.40898928 -239.95282491 234.69197163 -238.78036499 233.97076416 C-237.15896469 232.97344284 -235.52887399 231.9902918 -233.8984375 231.0078125 C-232.97804688 230.44570068 -232.05765625 229.88358887 -231.109375 229.30444336 C-228.5234375 228.10546875 -228.5234375 228.10546875 -226 228.11157227 C-222.49907923 228.10294421 -221.16972774 227.42324593 -218.5234375 225.10546875 C-217.75607455 221.99041404 -217.87526705 218.90555062 -217.92749023 215.7121582 C-217.92140244 214.26774101 -217.92140244 214.26774101 -217.91519165 212.79414368 C-217.90966596 210.70049851 -217.9157066 208.60679859 -217.93185234 206.51320839 C-217.95720445 203.19608757 -217.95249511 199.8802138 -217.93995667 196.56303406 C-217.91916717 189.51454312 -217.93889794 182.46643451 -217.9609375 175.41796875 C-217.98204898 167.26713332 -217.98655953 159.1166989 -217.96043587 150.96587181 C-217.95708049 147.70411908 -217.97828528 144.44313464 -218.00083923 141.18147278 C-217.99832661 139.16956416 -217.99476522 137.15765648 -217.98999023 135.14575195 C-218.00287582 134.24415344 -218.01576141 133.34255493 -218.02903748 132.41363525 C-217.98241172 126.50034442 -216.85466056 122.05024216 -213.5234375 117.10546875 C-210.2687288 113.9866922 -206.60147285 111.87675967 -202.68359375 109.671875 C-200.97985596 108.70701172 -200.97985596 108.70701172 -199.24169922 107.72265625 C-198.0231303 107.03772783 -196.80454268 106.35283267 -195.5859375 105.66796875 C-193.06746989 104.24489902 -190.55099037 102.81834453 -188.03515625 101.390625 C-187.40426086 101.03292023 -186.77336548 100.67521545 -186.12335205 100.30667114 C-179.0512192 96.28650783 -172.06492232 92.12209105 -165.10180664 87.91625977 C-164.2586792 87.41151123 -163.41555176 86.9067627 -162.546875 86.38671875 C-161.81388184 85.94392578 -161.08088867 85.50113281 -160.32568359 85.04492188 C-158.5234375 84.10546875 -158.5234375 84.10546875 -156.5234375 84.10546875 C-156.39388672 82.95739746 -156.39388672 82.95739746 -156.26171875 81.78613281 C-155.36325266 78.52384523 -154.54984414 77.95271498 -151.7109375 76.21484375 C-150.89496094 75.71017578 -150.07898438 75.20550781 -149.23828125 74.68554688 C-144.36481111 71.84911713 -139.46300102 69.07527593 -134.5234375 66.35546875 C-126.67410095 61.99700784 -118.86169553 57.59816395 -111.14233398 53.01367188 C-103.39845971 48.42056019 -95.58849745 43.94190418 -87.78149414 39.45727539 C-86.72824951 38.85133545 -85.67500488 38.24539551 -84.58984375 37.62109375 C-83.56906738 37.03521484 -82.54829102 36.44933594 -81.49658203 35.84570312 C-77.83188025 33.70068799 -74.2369584 31.4510153 -70.65991211 29.16308594 C-68.5234375 28.10546875 -68.5234375 28.10546875 -64.5234375 28.10546875 C-64.5234375 28.76546875 -64.5234375 29.42546875 -64.5234375 30.10546875 C-63.81960938 29.69820557 -63.11578125 29.29094238 -62.390625 28.87133789 C-56.10749505 25.23710909 -49.82056705 21.60963541 -43.52864075 17.99066162 C-40.24247793 16.09944944 -36.96354854 14.19659817 -33.69140625 12.28125 C-23.07169033 6.11021498 -12.46788341 0.52110349 0 0 Z " fill="#FDFDFD" transform="translate(410.5234375,49.89453125)"/>
<path d="M0 0 C11.25280856 0.16592613 22.03564131 5.86807004 30.4765625 13.10546875 C29.7959375 12.94691406 29.1153125 12.78835937 28.4140625 12.625 C12.47393307 9.80580158 -1.30055257 14.22333777 -14.5234375 23.10546875 C-34.56927659 37.31867472 -46.90506045 56.33221835 -57.5234375 78.10546875 C-58.20212891 79.48798828 -58.20212891 79.48798828 -58.89453125 80.8984375 C-66.59904552 98.31603591 -69.42658845 121.74135248 -64.5234375 140.10546875 C-63.10240285 143.19319563 -61.5391103 146.06311344 -59.765625 148.9609375 C-58.5234375 151.10546875 -58.5234375 151.10546875 -58.5234375 153.10546875 C-65.3962898 152.13763393 -70.96356192 148.00363164 -75.50390625 142.86328125 C-76.91445498 140.98031597 -78.25694265 139.08758468 -79.5234375 137.10546875 C-83.57476396 138.60193011 -87.18893069 140.53564587 -90.92578125 142.6953125 C-91.52596573 143.0405043 -92.12615021 143.38569611 -92.74452209 143.74134827 C-94.65179091 144.83880516 -96.55652388 145.94056588 -98.4609375 147.04296875 C-100.36209023 148.14124615 -102.26379681 149.2385336 -104.16664124 150.33387756 C-105.89610327 151.32973467 -107.6237627 152.32872035 -109.35131836 153.32788086 C-112.35859773 155.01309606 -115.4401043 156.56380215 -118.5234375 158.10546875 C-118.5234375 151.83546875 -118.5234375 145.56546875 -118.5234375 139.10546875 C-116.56019531 137.98527344 -114.59695313 136.86507812 -112.57421875 135.7109375 C-110.66113916 134.61886507 -108.74816707 133.52660458 -106.83520508 132.43432617 C-105.51142404 131.67859576 -104.18753233 130.92305918 -102.86352539 130.16772461 C-100.95429425 129.07847916 -99.0454696 127.98852432 -97.13671875 126.8984375 C-96.55005936 126.56394089 -95.96339996 126.22944427 -95.35896301 125.8848114 C-93.74477863 124.96245142 -92.13401058 124.0341202 -90.5234375 123.10546875 C-89.5744458 122.61763916 -88.6254541 122.12980957 -87.64770508 121.62719727 C-85.37910466 120.32349249 -85.37910466 120.32349249 -84.91162109 118.16699219 C-84.91500488 117.4402832 -84.91838867 116.71357422 -84.921875 115.96484375 C-84.90145142 114.73979126 -84.90145142 114.73979126 -84.88061523 113.48999023 C-84.88649658 112.62059814 -84.89237793 111.75120605 -84.8984375 110.85546875 C-84.74993179 102.93588154 -83.90999337 95.68884439 -82.14453125 87.9765625 C-81.4177196 85.106357 -81.4177196 85.106357 -81.5234375 82.10546875 C-93.34903411 88.74235127 -105.13610057 95.43646527 -116.8359375 102.29296875 C-119.79242817 104.0177681 -122.74988418 105.74089353 -125.70800781 107.46289062 C-127.55598321 108.54103652 -129.40176729 109.62294902 -131.24511719 110.70898438 C-133.72592034 112.1676262 -136.21663261 113.60757419 -138.7109375 115.04296875 C-139.43514893 115.47440186 -140.15936035 115.90583496 -140.90551758 116.3503418 C-143.76858518 117.97809135 -145.92994363 119.10462211 -149.26171875 119.109375 C-151.97561871 117.90475965 -153.48283869 116.23237688 -155.5234375 114.10546875 C-156.63416626 114.74778442 -156.63416626 114.74778442 -157.76733398 115.40307617 C-160.55702465 117.01582185 -163.34711024 118.62788167 -166.13745117 120.23950195 C-167.33715018 120.93259356 -168.53669868 121.62594575 -169.73608398 122.31958008 C-171.47598847 123.32574614 -173.21646123 124.33092328 -174.95703125 125.3359375 C-175.99915771 125.93817139 -177.04128418 126.54040527 -178.11499023 127.16088867 C-182.23195836 129.50969256 -186.38005131 131.80358753 -190.5234375 134.10546875 C-190.5234375 215.94546875 -190.5234375 297.78546875 -190.5234375 382.10546875 C-173.57746457 372.42205565 -156.64001645 362.72908027 -139.74121094 352.96435547 C-134.33673105 349.8422227 -128.92996338 346.72405671 -123.5234375 343.60546875 C-121.35676 342.35548753 -119.19009333 341.10548754 -117.0234375 339.85546875 C-78.0234375 317.35546875 -78.0234375 317.35546875 -74.76782227 315.47729492 C-72.61979704 314.23800608 -70.47184675 312.99858734 -68.32397461 311.7590332 C-63.23688201 308.82344308 -58.14901903 305.88921203 -53.0585022 302.95956421 C-50.64800002 301.5721878 -48.23792374 300.18407251 -45.82788086 298.79589844 C-44.12199782 297.8137306 -42.41549764 296.8326349 -40.70898438 295.8515625 C-39.16500977 294.96210937 -39.16500977 294.96210937 -37.58984375 294.0546875 C-36.68177979 293.53221436 -35.77371582 293.00974121 -34.83813477 292.47143555 C-33.03217549 291.40568909 -31.26822621 290.26866123 -29.5234375 289.10546875 C-29.06025332 286.78784004 -29.06025332 286.78784004 -29.12471008 284.04354858 C-29.11217194 282.97220169 -29.09963379 281.9008548 -29.0867157 280.79704285 C-29.08815079 279.61668961 -29.08958588 278.43633636 -29.09106445 277.22021484 C-29.0808728 275.98121933 -29.07068115 274.74222382 -29.06018066 273.46568298 C-29.03511307 270.06289174 -29.02331541 266.66053258 -29.01732659 263.25768614 C-29.00796384 259.70351212 -28.98176228 256.14946398 -28.95732117 252.59536743 C-28.91359442 245.86288353 -28.88508552 239.13042396 -28.86199778 232.3978411 C-28.83497908 224.73402318 -28.79106563 217.07033149 -28.74570906 209.40660357 C-28.65277443 193.63962345 -28.58113423 177.87261956 -28.5234375 162.10546875 C-26.06629203 161.26848489 -23.60784893 160.43574451 -21.1484375 159.60546875 C-20.44976562 159.36699219 -19.75109375 159.12851563 -19.03125 158.8828125 C-13.75 157.10546875 -13.75 157.10546875 -11.5234375 157.10546875 C-11.42996936 175.25553566 -11.35944619 193.40554005 -11.31618881 211.55579567 C-11.29556921 219.98340529 -11.26746022 228.41086531 -11.22167969 236.83837891 C-11.18179337 244.18436165 -11.1560003 251.53023604 -11.14708352 258.87632406 C-11.14187177 262.76557223 -11.12963514 266.65451044 -11.10051727 270.54365921 C-11.07331956 274.20609485 -11.06500114 277.86809354 -11.07100677 281.53062057 C-11.06938571 283.51192555 -11.04788568 285.49318318 -11.02575684 287.47436523 C-11.07597454 298.30786905 -11.07597454 298.30786905 -15.5234375 303.10546875 C-17.46313477 304.76000977 -17.46313477 304.76000977 -19.52734375 306.046875 C-20.71287842 306.79155029 -20.71287842 306.79155029 -21.92236328 307.55126953 C-26.74162291 310.43088346 -31.58473088 313.26073213 -36.4609375 316.04296875 C-38.18867391 317.03434336 -39.91640768 318.0257226 -41.64398193 319.01737976 C-43.42567369 320.03957675 -45.20811985 321.06044744 -46.99072266 322.08105469 C-52.54996059 325.26511532 -58.09916656 328.46657898 -63.6484375 331.66796875 C-64.72617432 332.28929687 -65.80391113 332.910625 -66.91430664 333.55078125 C-74.08984607 337.69082654 -81.24784371 341.86001974 -88.3984375 346.04296875 C-97.66843527 351.46468053 -106.98175502 356.8075179 -116.31188965 362.12469482 C-125.43342041 367.32429801 -134.51980181 372.58128342 -143.58154297 377.88452148 C-152.00119736 382.80984462 -160.44969207 387.68408035 -168.90966797 392.53979492 C-174.2518215 395.61292586 -179.56859361 398.71927915 -184.84375 401.90625 C-185.84390137 402.50816162 -186.84405273 403.11007324 -187.87451172 403.73022461 C-189.75354784 404.86470414 -191.62790502 406.00698437 -193.49658203 407.15844727 C-201.72457359 412.11941894 -201.72457359 412.11941894 -206.5234375 412.10546875 C-208.9453125 411.13671875 -208.9453125 411.13671875 -211.2734375 409.60546875 C-212.41039062 408.8784375 -212.41039062 408.8784375 -213.5703125 408.13671875 C-215.27427351 406.96468208 -216.97419 405.78661872 -218.66259766 404.59228516 C-225.12376312 400.02653243 -231.71832411 395.71816568 -238.3984375 391.48046875 C-240.62537145 390.06178083 -242.85192966 388.64250293 -245.078125 387.22265625 C-246.7192627 386.17609863 -246.7192627 386.17609863 -248.39355469 385.10839844 C-252.78567383 382.29771626 -257.15644996 379.4549841 -261.5234375 376.60546875 C-268.99775173 371.73157717 -276.50373896 366.9090239 -284.0234375 362.10546875 C-294.1373191 355.64407897 -304.21260645 349.1260414 -314.26806641 342.57421875 C-317.7460814 340.30925466 -321.22732954 338.04932014 -324.7109375 335.79296875 C-325.69803711 335.15355347 -325.69803711 335.15355347 -326.70507812 334.5012207 C-331.16256851 331.61902416 -335.63173985 328.7553477 -340.10546875 325.8984375 C-340.67613571 325.53386948 -341.24680267 325.16930145 -341.83476257 324.79368591 C-344.69233243 322.96832871 -347.55083608 321.14446279 -350.41088867 319.32299805 C-351.96706909 318.32973511 -351.96706909 318.32973511 -353.5546875 317.31640625 C-354.48861328 316.72134277 -355.42253906 316.1262793 -356.38476562 315.51318359 C-358.5234375 314.10546875 -358.5234375 314.10546875 -359.5234375 313.10546875 C-359.984375 310.81640625 -359.984375 310.81640625 -359.5234375 308.10546875 C-357.40146169 306.34249791 -355.52172889 305.08089928 -353.1484375 303.73046875 C-352.11299805 303.112323 -352.11299805 303.112323 -351.05664062 302.48168945 C-348.55808563 301.00051817 -346.04201064 299.55233701 -343.5234375 298.10546875 C-341.33319457 296.83617691 -339.14309895 295.56663086 -336.953125 294.296875 C-332.45356122 291.69114038 -327.94376383 289.10398106 -323.4296875 286.5234375 C-321.4595957 285.38643637 -319.49073379 284.24729998 -317.5234375 283.10546875 C-316.69070313 282.6254541 -315.85796875 282.14543945 -315 281.65087891 C-310.73074161 279.28108364 -310.73074161 279.28108364 -308.5234375 275.10546875 C-306.66699219 273.74951172 -306.66699219 273.74951172 -304.1953125 272.34765625 C-303.26549561 271.81350098 -302.33567871 271.2793457 -301.37768555 270.72900391 C-300.35328369 270.1519873 -299.32888184 269.5749707 -298.2734375 268.98046875 C-296.06606102 267.71544596 -293.8590451 266.44979386 -291.65234375 265.18359375 C-290.47414267 264.51102991 -289.2959197 263.83850442 -288.11767578 263.16601562 C-282.72875687 260.08370413 -277.37681845 256.9383252 -272.02380371 253.79421997 C-270.20752248 252.72846489 -268.38960122 251.66555724 -266.57128906 250.60327148 C-260.30397721 246.93796979 -254.06364566 243.23341111 -247.85546875 239.46875 C-246.00578819 238.35256112 -244.15563211 237.23716474 -242.30532837 236.12200928 C-241.12787137 235.40898928 -239.95282491 234.69197163 -238.78036499 233.97076416 C-237.15896469 232.97344284 -235.52887399 231.9902918 -233.8984375 231.0078125 C-232.97804688 230.44570068 -232.05765625 229.88358887 -231.109375 229.30444336 C-228.5234375 228.10546875 -228.5234375 228.10546875 -226 228.11157227 C-222.49907923 228.10294421 -221.16972774 227.42324593 -218.5234375 225.10546875 C-217.75607455 221.99041404 -217.87526705 218.90555062 -217.92749023 215.7121582 C-217.92140244 214.26774101 -217.92140244 214.26774101 -217.91519165 212.79414368 C-217.90966596 210.70049851 -217.9157066 208.60679859 -217.93185234 206.51320839 C-217.95720445 203.19608757 -217.95249511 199.8802138 -217.93995667 196.56303406 C-217.91916717 189.51454312 -217.93889794 182.46643451 -217.9609375 175.41796875 C-217.98204898 167.26713332 -217.98655953 159.1166989 -217.96043587 150.96587181 C-217.95708049 147.70411908 -217.97828528 144.44313464 -218.00083923 141.18147278 C-217.99832661 139.16956416 -217.99476522 137.15765648 -217.98999023 135.14575195 C-218.00287582 134.24415344 -218.01576141 133.34255493 -218.02903748 132.41363525 C-217.98241172 126.50034442 -216.85466056 122.05024216 -213.5234375 117.10546875 C-210.2687288 113.9866922 -206.60147285 111.87675967 -202.68359375 109.671875 C-200.97985596 108.70701172 -200.97985596 108.70701172 -199.24169922 107.72265625 C-198.0231303 107.03772783 -196.80454268 106.35283267 -195.5859375 105.66796875 C-193.06746989 104.24489902 -190.55099037 102.81834453 -188.03515625 101.390625 C-187.40426086 101.03292023 -186.77336548 100.67521545 -186.12335205 100.30667114 C-179.0512192 96.28650783 -172.06492232 92.12209105 -165.10180664 87.91625977 C-164.2586792 87.41151123 -163.41555176 86.9067627 -162.546875 86.38671875 C-161.81388184 85.94392578 -161.08088867 85.50113281 -160.32568359 85.04492188 C-158.5234375 84.10546875 -158.5234375 84.10546875 -156.5234375 84.10546875 C-156.39388672 82.95739746 -156.39388672 82.95739746 -156.26171875 81.78613281 C-155.36325266 78.52384523 -154.54984414 77.95271498 -151.7109375 76.21484375 C-150.89496094 75.71017578 -150.07898438 75.20550781 -149.23828125 74.68554688 C-144.36481111 71.84911713 -139.46300102 69.07527593 -134.5234375 66.35546875 C-126.67410095 61.99700784 -118.86169553 57.59816395 -111.14233398 53.01367188 C-103.39845971 48.42056019 -95.58849745 43.94190418 -87.78149414 39.45727539 C-86.72824951 38.85133545 -85.67500488 38.24539551 -84.58984375 37.62109375 C-83.56906738 37.03521484 -82.54829102 36.44933594 -81.49658203 35.84570312 C-77.83188025 33.70068799 -74.2369584 31.4510153 -70.65991211 29.16308594 C-68.5234375 28.10546875 -68.5234375 28.10546875 -64.5234375 28.10546875 C-64.5234375 28.76546875 -64.5234375 29.42546875 -64.5234375 30.10546875 C-63.81960938 29.69820557 -63.11578125 29.29094238 -62.390625 28.87133789 C-56.10749505 25.23710909 -49.82056705 21.60963541 -43.52864075 17.99066162 C-40.24247793 16.09944944 -36.96354854 14.19659817 -33.69140625 12.28125 C-23.07169033 6.11021498 -12.46788341 0.52110349 0 0 Z " fill="#515250" transform="translate(410.5234375,49.89453125)"/>
<path d="M0 0 C0.68062178 3.19649159 0.84643301 5.82267001 0 9 C-3.05298553 11.99778217 -6.71394679 13.74974708 -10.5 15.6875 C-12.69297336 16.88883925 -14.88567352 18.09067732 -17.078125 19.29296875 C-18.21572266 19.90060059 -19.35332031 20.50823242 -20.52539062 21.13427734 C-26.15694225 24.15818948 -31.70610049 27.31908104 -37.25 30.5 C-38.77463867 31.34437622 -38.77463867 31.34437622 -40.33007812 32.20581055 C-41.27818359 32.74633057 -42.22628906 33.28685059 -43.203125 33.84375 C-44.03489258 34.30974609 -44.86666016 34.77574219 -45.72363281 35.25585938 C-49.41733005 38.08595087 -51.66653223 40.79063399 -52.3647809 45.41682887 C-52.50507883 48.45246858 -52.5135737 51.4644844 -52.48101807 54.50326538 C-52.48614462 56.25054851 -52.48614462 56.25054851 -52.49137473 58.03313029 C-52.49681712 61.25786183 -52.48434416 64.4819476 -52.46426249 67.70660281 C-52.44696788 71.18710198 -52.4528356 74.66757175 -52.45587158 78.14810181 C-52.45796768 84.17548101 -52.44543144 90.20268684 -52.42292023 96.23002243 C-52.39039422 104.94447783 -52.37999261 113.65884951 -52.37496826 122.37335904 C-52.36621654 136.51246265 -52.33960433 150.65147388 -52.30175781 164.79052734 C-52.26503452 178.5242466 -52.23672432 192.25794076 -52.21972656 205.99169922 C-52.21867567 206.83842962 -52.21762477 207.68516003 -52.21654204 208.55754893 C-52.21132184 212.8054012 -52.20626702 217.05325365 -52.20129442 221.30110621 C-52.15983623 256.53413666 -52.08939117 291.7670598 -52 327 C-53.44555319 326.20449718 -54.89019225 325.40733309 -56.33444214 324.60946655 C-57.13902296 324.16572378 -57.94360378 323.72198101 -58.77256584 323.26479149 C-61.23540236 321.86633279 -63.5329037 320.3331971 -65.8203125 318.6640625 C-71.37887736 314.69610895 -77.10911121 311.0327357 -82.875 307.375 C-85.10193395 305.95631208 -87.32849216 304.53703418 -89.5546875 303.1171875 C-91.1958252 302.07062988 -91.1958252 302.07062988 -92.87011719 301.00292969 C-97.26223633 298.19224751 -101.63301246 295.34951535 -106 292.5 C-113.47431423 287.62610842 -120.98030146 282.80355515 -128.5 278 C-138.6138816 271.53861022 -148.68916895 265.02057265 -158.74462891 258.46875 C-162.2226439 256.20378591 -165.70389204 253.94385139 -169.1875 251.6875 C-170.17459961 251.04808472 -170.17459961 251.04808472 -171.18164062 250.39575195 C-175.63913101 247.51355541 -180.10830235 244.64987895 -184.58203125 241.79296875 C-185.43803169 241.24611671 -185.43803169 241.24611671 -186.31132507 240.68821716 C-189.16889493 238.86285996 -192.02739858 237.03899404 -194.88745117 235.2175293 C-196.44363159 234.22426636 -196.44363159 234.22426636 -198.03125 233.2109375 C-199.43213867 232.31834229 -199.43213867 232.31834229 -200.86132812 231.40771484 C-203 230 -203 230 -204 229 C-204.4609375 226.7109375 -204.4609375 226.7109375 -204 224 C-201.87802419 222.23702916 -199.99829139 220.97543053 -197.625 219.625 C-196.93470703 219.21290283 -196.24441406 218.80080566 -195.53320312 218.3762207 C-193.03464813 216.89504942 -190.51857314 215.44686826 -188 214 C-185.80975707 212.73070816 -183.61966145 211.46116211 -181.4296875 210.19140625 C-176.93012372 207.58567163 -172.42032633 204.99851231 -167.90625 202.41796875 C-165.9361582 201.28096762 -163.96729629 200.14183123 -162 199 C-161.16726562 198.51998535 -160.33453125 198.0399707 -159.4765625 197.54541016 C-155.20730411 195.17561489 -155.20730411 195.17561489 -153 191 C-151.14355469 189.64404297 -151.14355469 189.64404297 -148.671875 188.2421875 C-147.74205811 187.70803223 -146.81224121 187.17387695 -145.85424805 186.62353516 C-144.82984619 186.04651855 -143.80544434 185.46950195 -142.75 184.875 C-140.54262352 183.60997721 -138.3356076 182.34432511 -136.12890625 181.078125 C-134.95070517 180.40556116 -133.7724822 179.73303567 -132.59423828 179.06054688 C-127.20531937 175.97823538 -121.85338095 172.83285645 -116.50036621 169.68875122 C-114.68408498 168.62299614 -112.86616372 167.56008849 -111.04785156 166.49780273 C-104.78053971 162.83250104 -98.54020816 159.12794236 -92.33203125 155.36328125 C-90.48235069 154.24709237 -88.63219461 153.13169599 -86.78189087 152.01654053 C-85.60443387 151.30352053 -84.42938741 150.58650288 -83.25692749 149.86529541 C-81.63552719 148.86797409 -80.00543649 147.88482305 -78.375 146.90234375 C-77.45460938 146.34023193 -76.53421875 145.77812012 -75.5859375 145.19897461 C-73 144 -73 144 -70.4765625 144.00610352 C-66.97564173 143.99747546 -65.64629024 143.31777718 -63 141 C-62.23263705 137.88494529 -62.35182955 134.80008187 -62.40405273 131.60668945 C-62.39796494 130.16227226 -62.39796494 130.16227226 -62.39175415 128.68867493 C-62.38622846 126.59502976 -62.3922691 124.50132984 -62.40841484 122.40773964 C-62.43376695 119.09061882 -62.42905761 115.77474505 -62.41651917 112.45756531 C-62.39572967 105.40907437 -62.41546044 98.36096576 -62.4375 91.3125 C-62.45861148 83.16166457 -62.46312203 75.01123015 -62.43699837 66.86040306 C-62.43364299 63.59865033 -62.45484778 60.33766589 -62.47740173 57.07600403 C-62.47488911 55.06409541 -62.47132772 53.05218773 -62.46655273 51.0402832 C-62.47943832 50.13868469 -62.49232391 49.23708618 -62.50559998 48.3081665 C-62.45897422 42.39487567 -61.33122306 37.94477341 -58 33 C-54.7452913 29.88122345 -51.07803535 27.77129092 -47.16015625 25.56640625 C-45.45653931 24.60154297 -45.45653931 24.60154297 -43.71850586 23.6171875 C-42.49988003 22.93221553 -41.28121051 22.24732129 -40.0625 21.5625 C-37.54271658 20.13945492 -35.02487308 18.71301123 -32.5078125 17.28515625 C-31.87671066 16.92745148 -31.24560883 16.5697467 -30.59538269 16.20120239 C-23.54647079 12.1939493 -16.58963043 8.03093035 -9.66625977 3.81079102 C-8.82635498 3.30604248 -7.9864502 2.80129395 -7.12109375 2.28125 C-6.02945923 1.61706055 -6.02945923 1.61706055 -4.91577148 0.93945312 C-3 0 -3 0 0 0 Z " fill="#000000" transform="translate(255,134)"/>
<path d="M0 0 C8.71374374 8.22852367 12.08322121 18.86040655 12.59375 30.56640625 C13.16597831 53.44556935 7.13671717 73.44486322 -3.6875 93.4375 C-4.18121094 94.35273438 -4.67492187 95.26796875 -5.18359375 96.2109375 C-18.00149573 118.6513438 -37.15862483 138.10645233 -62.34765625 145.40234375 C-72.20948716 147.94293821 -80.68531646 147.16823931 -89.6875 142.4375 C-90.85539062 141.82455078 -90.85539062 141.82455078 -92.046875 141.19921875 C-97.49550545 138.07881514 -97.49550545 138.07881514 -98.25 135.55859375 C-98.394375 134.85863281 -98.53875 134.15867188 -98.6875 133.4375 C-99.47611052 131.94545988 -100.29116807 130.46724728 -101.125 129 C-109.5256324 112.44152805 -106.32845196 89.80047594 -101.125 72.5625 C-96.06486994 58.79739524 -89.49944344 45.18675793 -80.6875 33.4375 C-80.08808594 32.61765625 -79.48867188 31.7978125 -78.87109375 30.953125 C-67.06200748 15.47064863 -49.82624232 -1.49383231 -29.9375 -5.3515625 C-19.24122288 -6.35433848 -8.84682184 -6.77424752 0 0 Z " fill="#018BD6" transform="translate(448.6875,66.5625)"/>
<path d="M0 0 C11.25280856 0.16592613 22.03564131 5.86807004 30.4765625 13.10546875 C29.7959375 12.94691406 29.1153125 12.78835937 28.4140625 12.625 C12.47393307 9.80580158 -1.30055257 14.22333777 -14.5234375 23.10546875 C-34.56927659 37.31867472 -46.90506045 56.33221835 -57.5234375 78.10546875 C-57.97589844 79.02714844 -58.42835938 79.94882813 -58.89453125 80.8984375 C-66.59904552 98.31603591 -69.42658845 121.74135248 -64.5234375 140.10546875 C-63.10240285 143.19319563 -61.5391103 146.06311344 -59.765625 148.9609375 C-58.5234375 151.10546875 -58.5234375 151.10546875 -58.5234375 153.10546875 C-65.3962898 152.13763393 -70.96356192 148.00363164 -75.50390625 142.86328125 C-76.91445498 140.98031597 -78.25694265 139.08758468 -79.5234375 137.10546875 C-83.57476396 138.60193011 -87.18893069 140.53564587 -90.92578125 142.6953125 C-91.52596573 143.0405043 -92.12615021 143.38569611 -92.74452209 143.74134827 C-94.65179091 144.83880516 -96.55652388 145.94056588 -98.4609375 147.04296875 C-100.36209023 148.14124615 -102.26379681 149.2385336 -104.16664124 150.33387756 C-105.89610327 151.32973467 -107.6237627 152.32872035 -109.35131836 153.32788086 C-112.35859773 155.01309606 -115.4401043 156.56380215 -118.5234375 158.10546875 C-118.5234375 151.83546875 -118.5234375 145.56546875 -118.5234375 139.10546875 C-116.56019531 137.98527344 -114.59695313 136.86507812 -112.57421875 135.7109375 C-110.66113916 134.61886507 -108.74816707 133.52660458 -106.83520508 132.43432617 C-105.51142404 131.67859576 -104.18753233 130.92305918 -102.86352539 130.16772461 C-100.95429425 129.07847916 -99.0454696 127.98852432 -97.13671875 126.8984375 C-96.55005936 126.56394089 -95.96339996 126.22944427 -95.35896301 125.8848114 C-93.74477863 124.96245142 -92.13401058 124.0341202 -90.5234375 123.10546875 C-89.5744458 122.61763916 -88.6254541 122.12980957 -87.64770508 121.62719727 C-85.37910466 120.32349249 -85.37910466 120.32349249 -84.91162109 118.16699219 C-84.91669678 117.07692871 -84.91669678 117.07692871 -84.921875 115.96484375 C-84.90825928 115.14814209 -84.89464355 114.33144043 -84.88061523 113.48999023 C-84.88649658 112.62059814 -84.89237793 111.75120605 -84.8984375 110.85546875 C-84.74993179 102.93588154 -83.90999337 95.68884439 -82.14453125 87.9765625 C-81.4177196 85.106357 -81.4177196 85.106357 -81.5234375 82.10546875 C-93.34903411 88.74235127 -105.13610057 95.43646527 -116.8359375 102.29296875 C-119.79242817 104.0177681 -122.74988418 105.74089353 -125.70800781 107.46289062 C-127.55598321 108.54103652 -129.40176729 109.62294902 -131.24511719 110.70898438 C-133.72592034 112.1676262 -136.21663261 113.60757419 -138.7109375 115.04296875 C-139.43514893 115.47440186 -140.15936035 115.90583496 -140.90551758 116.3503418 C-143.75058795 117.96785932 -145.9565543 119.09172123 -149.26171875 119.171875 C-152.39518382 117.6944381 -153.61618566 115.99514811 -155.5234375 113.10546875 C-156.35578919 108.54492249 -156.41690194 103.95833187 -156.52709961 99.33105469 C-156.58581662 97.11004123 -156.69237546 94.8947574 -156.80273438 92.67578125 C-156.84926137 91.25660275 -156.89297592 89.83732867 -156.93359375 88.41796875 C-156.97621338 87.13535156 -157.01883301 85.85273438 -157.06274414 84.53125 C-156.36904966 80.12476697 -154.97111237 78.85730446 -151.5234375 76.10546875 C-148.7980957 74.30712891 -148.7980957 74.30712891 -145.82421875 72.64453125 C-144.71095215 72.01603271 -143.59768555 71.38753418 -142.45068359 70.73999023 C-141.24578156 70.07012576 -140.04086583 69.40028592 -138.8359375 68.73046875 C-137.57840909 68.02315775 -136.32141861 67.31488959 -135.06494141 66.60571289 C-132.48088257 65.14760763 -129.89504954 63.69272538 -127.30810547 62.23974609 C-121.64529467 59.05312196 -116.02218136 55.79788954 -110.3984375 52.54296875 C-108.28003108 51.31886649 -106.16154114 50.09490875 -104.04296875 48.87109375 C-102.98674316 48.26072266 -101.93051758 47.65035156 -100.84228516 47.02148438 C-97.30409153 44.97883736 -93.76362061 42.9401818 -90.22265625 40.90234375 C-88.4250271 39.86727071 -86.6274506 38.83210632 -84.82989502 37.79690552 C-83.12314057 36.81438529 -81.41582449 35.83284089 -79.70849609 34.85131836 C-78.67934082 34.25843018 -77.65018555 33.66554199 -76.58984375 33.0546875 C-75.68177979 32.53221436 -74.77371582 32.00974121 -73.83813477 31.47143555 C-72.03217549 30.40568909 -70.26822621 29.26866123 -68.5234375 28.10546875 C-67.2034375 28.10546875 -65.8834375 28.10546875 -64.5234375 28.10546875 C-64.5234375 28.76546875 -64.5234375 29.42546875 -64.5234375 30.10546875 C-63.81960938 29.69820557 -63.11578125 29.29094238 -62.390625 28.87133789 C-56.10749505 25.23710909 -49.82056705 21.60963541 -43.52864075 17.99066162 C-40.24247793 16.09944944 -36.96354854 14.19659817 -33.69140625 12.28125 C-23.07169033 6.11021498 -12.46788341 0.52110349 0 0 Z " fill="#003970" transform="translate(410.5234375,49.89453125)"/>
<path d="M0 0 C0.66902344 0.57363281 1.33804688 1.14726563 2.02734375 1.73828125 C1.34671875 1.57972656 0.66609375 1.42117187 -0.03515625 1.2578125 C-15.97528568 -1.56138592 -29.74977132 2.85615027 -42.97265625 11.73828125 C-63.01849534 25.95148722 -75.3542792 44.96503085 -85.97265625 66.73828125 C-86.42511719 67.65996094 -86.87757813 68.58164063 -87.34375 69.53125 C-95.04826427 86.94884841 -97.8758072 110.37416498 -92.97265625 128.73828125 C-91.5516216 131.82600813 -89.98832905 134.69592594 -88.21484375 137.59375 C-86.97265625 139.73828125 -86.97265625 139.73828125 -86.97265625 141.73828125 C-93.84550855 140.77044643 -99.41278067 136.63644414 -103.953125 131.49609375 C-105.36367373 129.61312847 -106.7061614 127.72039718 -107.97265625 125.73828125 C-112.02398271 127.23474261 -115.63814944 129.16845837 -119.375 131.328125 C-119.97518448 131.6733168 -120.57536896 132.01850861 -121.19374084 132.37416077 C-123.10100966 133.47161766 -125.00574263 134.57337838 -126.91015625 135.67578125 C-128.81130898 136.77405865 -130.71301556 137.8713461 -132.61585999 138.96669006 C-134.34532202 139.96254717 -136.07298145 140.96153285 -137.80053711 141.96069336 C-140.80781648 143.64590856 -143.88932305 145.19661465 -146.97265625 146.73828125 C-146.97265625 140.46828125 -146.97265625 134.19828125 -146.97265625 127.73828125 C-145.00941406 126.61808594 -143.04617188 125.49789062 -141.0234375 124.34375 C-139.11035791 123.25167757 -137.19738582 122.15941708 -135.28442383 121.06713867 C-133.96064279 120.31140826 -132.63675108 119.55587168 -131.31274414 118.80053711 C-129.403513 117.71129166 -127.49468835 116.62133682 -125.5859375 115.53125 C-124.99927811 115.19675339 -124.41261871 114.86225677 -123.80818176 114.5176239 C-122.19399738 113.59526392 -120.58322933 112.6669327 -118.97265625 111.73828125 C-118.02293945 111.24682617 -117.07322266 110.75537109 -116.09472656 110.24902344 C-113.84010838 108.96299987 -113.84010838 108.96299987 -113.37670898 106.87915039 C-113.39133179 105.83682251 -113.39133179 105.83682251 -113.40625 104.7734375 C-113.39819336 103.98324219 -113.39013672 103.19304687 -113.38183594 102.37890625 C-113.39118164 101.528125 -113.40052734 100.67734375 -113.41015625 99.80078125 C-113.10878349 84.7869383 -110.66064568 70.29166036 -103.97265625 56.73828125 C-103.3664525 55.4521691 -102.76103628 54.16568557 -102.15625 52.87890625 C-92.73165249 33.14095222 -79.32716784 14.09948293 -60.97265625 1.73828125 C-60.38097656 1.10019531 -59.78929687 0.46210937 -59.1796875 -0.1953125 C-56.52013323 -2.68540844 -53.92094834 -3.90711784 -50.59765625 -5.38671875 C-49.49679687 -5.88429688 -48.3959375 -6.381875 -47.26171875 -6.89453125 C-29.95738624 -14.08754357 -14.69562992 -11.18103774 0 0 Z " fill="#006DBD" transform="translate(438.97265625,61.26171875)"/>
<path d="M0 0 C7.15566756 3.3026158 13.51127226 7.54440695 20 12 C19.40830044 15.5655361 18.45891093 18.46556587 16.85791016 21.70068359 C16.41299225 22.60708588 15.96807434 23.51348816 15.50967407 24.44735718 C15.02437225 25.42121368 14.53907043 26.39507019 14.0390625 27.3984375 C13.53386078 28.42442047 13.02865906 29.45040344 12.50814819 30.50747681 C10.88592681 33.79939664 9.25580609 37.08732581 7.625 40.375 C5.51080057 44.65255125 3.39971657 48.93163596 1.2890625 53.2109375 C0.76449966 54.27330124 0.23993683 55.33566498 -0.30052185 56.43022156 C-5.2291214 66.42771688 -10.04183658 76.47893847 -14.83044434 86.54406738 C-16.44651801 89.93763655 -18.07219022 93.32651285 -19.69921875 96.71484375 C-20.20517578 97.76865234 -20.71113281 98.82246094 -21.23242188 99.90820312 C-21.71259766 100.90787109 -22.19277344 101.90753906 -22.6875 102.9375 C-23.21021484 104.02611328 -23.73292969 105.11472656 -24.27148438 106.23632812 C-25.51416446 108.8242949 -26.75699882 111.41218744 -28 114 C-31 114 -31 114 -33.19921875 112.05859375 C-34.02035156 111.19363281 -34.84148437 110.32867187 -35.6875 109.4375 C-38.6420386 106.38930168 -41.56594755 103.42289313 -44.8125 100.6875 C-49.18121837 96.95680947 -53.16508611 92.86786155 -57.19555664 88.78051758 C-60.84168767 85.10121558 -64.58235495 81.63279619 -68.609375 78.3671875 C-70 77 -70 77 -71 74 C-69.82836914 71.1809082 -69.82836914 71.1809082 -68.03515625 67.80078125 C-67.56691689 66.90820869 -67.56691689 66.90820869 -67.08921814 65.99760437 C-66.08965123 64.0974649 -65.07632937 62.20506147 -64.0625 60.3125 C-63.38254499 59.02587564 -62.70349696 57.73877152 -62.02539062 56.45117188 C-60.36075023 53.29514571 -58.68369541 50.14591015 -57 47 C-53.43235715 48.51376081 -51.16293713 50.60513129 -48.453125 53.3515625 C-47.60878906 54.20234375 -46.76445312 55.053125 -45.89453125 55.9296875 C-45.02183594 56.81914062 -44.14914062 57.70859375 -43.25 58.625 C-41.91775391 59.97078125 -41.91775391 59.97078125 -40.55859375 61.34375 C-38.36783031 63.55807004 -36.18187237 65.77692435 -34 68 C-32.12434011 65.18651017 -30.64097866 62.4113995 -29.12890625 59.390625 C-28.55986572 58.25447754 -27.9908252 57.11833008 -27.40454102 55.94775391 C-26.79035142 54.71525692 -26.17634186 53.48267021 -25.5625 52.25 C-25.25142303 51.62695984 -24.94034607 51.00391968 -24.61984253 50.36199951 C-19.88909746 40.88473971 -15.2621995 31.3619127 -10.71777344 21.79370117 C-7.24203057 14.4787947 -3.66683258 7.22103207 0 0 Z " fill="#FCFDFE" transform="translate(425,78)"/>
<path d="M0 0 C0.68062178 3.19649159 0.84643301 5.82267001 0 9 C-3.05298553 11.99778217 -6.71394679 13.74974708 -10.5 15.6875 C-12.69297336 16.88883925 -14.88567352 18.09067732 -17.078125 19.29296875 C-18.78452148 20.2044165 -18.78452148 20.2044165 -20.52539062 21.13427734 C-26.15694225 24.15818948 -31.70610049 27.31908104 -37.25 30.5 C-38.26642578 31.06291748 -39.28285156 31.62583496 -40.33007812 32.20581055 C-41.27818359 32.74633057 -42.22628906 33.28685059 -43.203125 33.84375 C-44.03489258 34.30974609 -44.86666016 34.77574219 -45.72363281 35.25585938 C-49.41733005 38.08595087 -51.66653223 40.79063399 -52.3647809 45.41682887 C-52.50507883 48.45246858 -52.5135737 51.4644844 -52.48101807 54.50326538 C-52.48443577 55.6681208 -52.48785347 56.83297622 -52.49137473 58.03313029 C-52.49681712 61.25786183 -52.48434416 64.4819476 -52.46426249 67.70660281 C-52.44696788 71.18710198 -52.4528356 74.66757175 -52.45587158 78.14810181 C-52.45796768 84.17548101 -52.44543144 90.20268684 -52.42292023 96.23002243 C-52.39039422 104.94447783 -52.37999261 113.65884951 -52.37496826 122.37335904 C-52.36621654 136.51246265 -52.33960433 150.65147388 -52.30175781 164.79052734 C-52.26503452 178.5242466 -52.23672432 192.25794076 -52.21972656 205.99169922 C-52.21867567 206.83842962 -52.21762477 207.68516003 -52.21654204 208.55754893 C-52.21132184 212.8054012 -52.20626702 217.05325365 -52.20129442 221.30110621 C-52.15983623 256.53413666 -52.08939117 291.7670598 -52 327 C-53.48754006 326.26674793 -54.96486192 325.51273922 -56.4375 324.75 C-57.26121094 324.33234375 -58.08492187 323.9146875 -58.93359375 323.484375 C-61 322 -61 322 -61.77676743 320.12786603 C-62.02064774 317.80318451 -62.12921588 315.54252825 -62.13422108 313.20414352 C-62.13867892 312.23621235 -62.14313676 311.26828117 -62.14772969 310.27101874 C-62.14754533 309.21033439 -62.14736097 308.14965003 -62.14717102 307.05682373 C-62.15084771 305.92790655 -62.1545244 304.79898938 -62.1583125 303.63586259 C-62.16935839 299.83894289 -62.17319471 296.04205055 -62.17700195 292.24511719 C-62.18273379 289.5284756 -62.18989973 286.81183812 -62.19691467 284.09519958 C-62.2166648 275.93361837 -62.22674279 267.77203593 -62.23564246 259.6104368 C-62.24002715 255.76615148 -62.24539344 251.92186754 -62.25063133 248.07758331 C-62.26764105 235.29740052 -62.28213554 222.51721858 -62.28938007 209.73702621 C-62.29128993 206.42152658 -62.29321027 203.10602695 -62.29516602 199.79052734 C-62.29564976 198.96648754 -62.2961335 198.14244774 -62.2966319 197.29343703 C-62.30493348 183.94244257 -62.33027369 170.59153767 -62.36274669 157.24058232 C-62.39581973 143.53110481 -62.41382899 129.82167281 -62.41702431 116.1121552 C-62.41918903 108.41566363 -62.42793214 100.71930272 -62.45348549 93.02285004 C-62.47519574 86.46883187 -62.48324131 79.91497611 -62.47351871 73.36092606 C-62.46897497 70.01801491 -62.47304703 66.67571044 -62.49028015 63.33279991 C-62.50793456 59.70528682 -62.50092352 56.0786241 -62.48774719 52.45111084 C-62.49871644 51.39934937 -62.50968568 50.3475879 -62.52098733 49.26395488 C-62.46606531 43.00194521 -61.62097978 38.2138979 -58 33 C-54.7452913 29.88122345 -51.07803535 27.77129092 -47.16015625 25.56640625 C-46.02441162 24.92316406 -44.88866699 24.27992188 -43.71850586 23.6171875 C-42.49988003 22.93221553 -41.28121051 22.24732129 -40.0625 21.5625 C-37.54271658 20.13945492 -35.02487308 18.71301123 -32.5078125 17.28515625 C-31.87671066 16.92745148 -31.24560883 16.5697467 -30.59538269 16.20120239 C-23.54647079 12.1939493 -16.58963043 8.03093035 -9.66625977 3.81079102 C-8.82635498 3.30604248 -7.9864502 2.80129395 -7.12109375 2.28125 C-6.3933374 1.83845703 -5.66558105 1.39566406 -4.91577148 0.93945312 C-3 0 -3 0 0 0 Z " fill="#171715" transform="translate(255,134)"/>
<path d="M0 0 C4.02418232 47.78906606 4.02418232 47.78906606 -2.04931641 56.70703125 C-7.36026246 61.84914075 -13.74372389 63.98568859 -20.75341797 65.95898438 C-25.94377585 67.62327119 -30.29273608 70.48013443 -34.875 73.375 C-42.63496685 78 -42.63496685 78 -45 78 C-45.56212472 70.83624127 -45.94454623 63.6781905 -46.20849609 56.49731445 C-46.31854451 54.06188821 -46.46828336 51.6278973 -46.65966797 49.19750977 C-47.8945068 33.10168274 -47.8945068 33.10168274 -45 26 C-39.86843416 20.14782769 -32.72085313 17.14753891 -25.6776123 14.16519165 C-22.25406248 12.6753973 -19.23487091 10.87054839 -16.07421875 8.88671875 C-15.15705078 8.34208984 -14.23988281 7.79746094 -13.29492188 7.23632812 C-11.47370684 6.15451275 -9.65347185 5.07104653 -7.83398438 3.98632812 C-6.94388672 3.45845703 -6.05378906 2.93058594 -5.13671875 2.38671875 C-4.36030029 1.92483154 -3.58388184 1.46294434 -2.78393555 0.98706055 C-1 0 -1 0 0 0 Z " fill="#A8AAAD" transform="translate(277,259)"/>
<path d="M0 0 C0 17.49 0 34.98 0 53 C-5.94 56.3 -11.88 59.6 -18 63 C-23.37579248 66.11838556 -28.73522321 69.25972546 -34.08398438 72.42382812 C-35.07591797 73.00712891 -36.06785156 73.59042969 -37.08984375 74.19140625 C-37.96503662 74.70904541 -38.84022949 75.22668457 -39.74194336 75.76000977 C-42 77 -42 77 -45 78 C-45 60.51 -45 43.02 -45 25 C-39.06 21.7 -33.12 18.4 -27 15 C-22.65692237 12.49343774 -18.32158209 9.98010622 -14 7.4375 C-11.93779952 6.22735403 -9.875315 5.01769192 -7.8125 3.80859375 C-6.93207031 3.29095459 -6.05164063 2.77331543 -5.14453125 2.23999023 C-1.27052569 0 -1.27052569 0 0 0 Z " fill="#A8AAAD" transform="translate(277,329)"/>
<path d="M0 0 C0.22847266 7.29512218 0.3859144 14.58932075 0.49438477 21.88720703 C0.53960555 24.36867749 0.60099528 26.84990867 0.67895508 29.33056641 C0.78833135 32.90066499 0.8392093 36.46759258 0.87890625 40.0390625 C0.92535782 41.14553131 0.97180939 42.25200012 1.01966858 43.39199829 C1.02458612 50.91991431 1.02458612 50.91991431 -1.85270691 53.95306396 C-4.16834343 55.52468424 -6.48048559 56.78665952 -9 58 C-10.04212646 58.61746094 -11.08425293 59.23492187 -12.15795898 59.87109375 C-13.09454346 60.38800781 -14.03112793 60.90492188 -14.99609375 61.4375 C-16.57680664 62.31535156 -16.57680664 62.31535156 -18.18945312 63.2109375 C-19.26130859 63.80132812 -20.33316406 64.39171875 -21.4375 65 C-28.42103416 68.86054152 -35.35759234 72.75427083 -42.15649414 76.93359375 C-44 78 -44 78 -45 78 C-45 60.51 -45 43.02 -45 25 C-38.5340625 21.3184375 -38.5340625 21.3184375 -31.9375 17.5625 C-22.70923888 12.30407194 -13.52463701 6.99677302 -4.4921875 1.40625 C-2 0 -2 0 0 0 Z " fill="#A8AAAD" transform="translate(277,190)"/>
<path d="M0 0 C0.24453905 2.88012653 0.42157916 5.739478 0.5625 8.625 C0.63791016 9.43324219 0.71332031 10.24148438 0.79101562 11.07421875 C0.88466844 13.63406227 0.78811006 15.55768841 0 18 C-2.60544494 20.71135734 -5.68896802 22.27031665 -9 24 C-10.91710181 25.09819906 -12.83374942 26.19719129 -14.75 27.296875 C-16.83161359 28.45102385 -18.91501374 29.60195514 -21 30.75 C-28.22912323 34.7646015 -35.44804074 38.78487795 -42.5625 43 C-43.20251953 43.37914551 -43.84253906 43.75829102 -44.50195312 44.14892578 C-45.86880898 44.95937129 -47.23550104 45.77009312 -48.60205078 46.58105469 C-53.7248991 49.6124123 -58.86240359 52.61873076 -64 55.625 C-65.07064697 56.2540625 -66.14129395 56.883125 -67.24438477 57.53125 C-68.73216431 58.40136719 -68.73216431 58.40136719 -70.25 59.2890625 C-71.14203125 59.81193848 -72.0340625 60.33481445 -72.953125 60.87353516 C-75 62 -75 62 -76 62 C-76 55.73 -76 49.46 -76 43 C-73.35906032 41.47638095 -70.71811539 39.952771 -68.07714844 38.42919922 C-65.74437958 37.08332027 -63.41168522 35.7373131 -61.07910156 34.39111328 C-55.14074008 30.96416634 -49.20113928 27.53942626 -43.2578125 24.12109375 C-41.08845762 22.87254185 -38.91918574 21.62384573 -36.75 20.375 C-35.68668457 19.76317871 -34.62336914 19.15135742 -33.52783203 18.52099609 C-28.180238 15.43713255 -22.85029965 12.32726691 -17.546875 9.16796875 C-16.01788574 8.25748779 -16.01788574 8.25748779 -14.45800781 7.32861328 C-12.52780456 6.17616278 -10.59995149 5.01976421 -8.67480469 3.85888672 C-7.39718262 3.09535889 -7.39718262 3.09535889 -6.09375 2.31640625 C-5.34802734 1.86724854 -4.60230469 1.41809082 -3.83398438 0.95532227 C-2 0 -2 0 0 0 Z " fill="#043B79" transform="translate(368,306)"/>
<path d="M0 0 C1.34654731 15.85933504 1.34654731 15.85933504 -1.37109375 20.1796875 C-3.81695478 21.79119048 -6.29980756 22.85878659 -9 24 C-10.97095576 25.0486188 -12.90982946 26.14649457 -14.85180664 27.24780273 C-17.15341114 28.55149456 -19.47002523 29.82526205 -21.7890625 31.09765625 C-27.55747862 34.28838777 -33.24880597 37.60724559 -38.9375 40.9375 C-39.94570801 41.52740723 -40.95391602 42.11731445 -41.99267578 42.72509766 C-44.00834248 43.90508701 -46.02380683 45.08542209 -48.0390625 46.26611328 C-52.66756886 48.97650676 -57.30049707 51.67917161 -61.9375 54.375 C-63.14490845 55.08064087 -63.14490845 55.08064087 -64.37670898 55.80053711 C-69.88537586 59 -69.88537586 59 -71 59 C-71 52.73 -71 46.46 -71 40 C-68.35864935 38.47614386 -65.71729542 36.95229341 -63.07592773 35.4284668 C-60.74726036 34.08497317 -58.4186393 32.74139965 -56.09008789 31.39770508 C-50.08870082 27.9347526 -44.08647456 24.47327607 -38.08203125 21.015625 C-35.8671674 19.73961822 -33.65232329 18.46357719 -31.4375 17.1875 C-30.36129395 16.56794434 -29.28508789 15.94838867 -28.17626953 15.31005859 C-23.32181539 12.51127534 -18.47640685 9.70004726 -13.66015625 6.8359375 C-12.86359619 6.36260986 -12.06703613 5.88928223 -11.24633789 5.40161133 C-9.7938606 4.5357448 -8.34365882 3.66604464 -6.89624023 2.79174805 C-2.21802943 0 -2.21802943 0 0 0 Z " fill="#033A79" transform="translate(363,229)"/>
<path d="M0 0 C0.37350696 4.96132163 0.64398215 9.91436278 0.82397461 14.88647461 C0.89900562 16.57249411 1.00109767 18.25754991 1.1315918 19.94018555 C1.97419709 31.09231448 1.97419709 31.09231448 0 36 C-3.49748972 40.0429466 -8.36829957 42.14923886 -13.20010376 44.21481323 C-15.40451641 45.17646625 -17.41681267 46.35944261 -19.45703125 47.62890625 C-21.11798828 48.58603516 -21.11798828 48.58603516 -22.8125 49.5625 C-23.95332031 50.22378906 -25.09414062 50.88507813 -26.26953125 51.56640625 C-29 53 -29 53 -31 53 C-31 41.12 -31 29.24 -31 17 C-17.6875 9.625 -17.6875 9.625 -13.4987793 7.30712891 C-12.40992432 6.70304199 -11.32106934 6.09895508 -10.19921875 5.4765625 C-8.52605591 4.549646 -8.52605591 4.549646 -6.8190918 3.60400391 C-0.48493151 0 -0.48493151 0 0 0 Z " fill="#FEFEFE" transform="translate(270,202)"/>
<path d="M0 0 C0 11.88 0 23.76 0 36 C-4.558125 38.619375 -9.11625 41.23875 -13.8125 43.9375 C-15.96422729 45.17681274 -15.96422729 45.17681274 -18.15942383 46.44116211 C-19.28888428 47.08835205 -20.41834473 47.73554199 -21.58203125 48.40234375 C-22.17125366 48.74269653 -22.76047607 49.08304932 -23.36755371 49.43371582 C-25.89840307 50.8803 -28.22437699 52.07479233 -31 53 C-31 41.12 -31 29.24 -31 17 C-18.1875 9.625 -18.1875 9.625 -14.15698242 7.30712891 C-12.58460815 6.40099854 -12.58460815 6.40099854 -10.98046875 5.4765625 C-9.37014771 4.549646 -9.37014771 4.549646 -7.72729492 3.60400391 C-1.59939117 0 -1.59939117 0 0 0 Z " fill="#FEFEFE" transform="translate(270,272)"/>
<path d="M0 0 C0.32329201 4.97984471 0.55799957 9.95351535 0.71411133 14.94140625 C0.77919461 16.63389455 0.86770958 18.3256597 0.98071289 20.015625 C1.70825958 31.18231449 1.70825958 31.18231449 0 36 C-3.79675927 39.96804955 -7.99217928 41.87727128 -13 44 C-14.58066601 44.89185273 -16.14970108 45.80506545 -17.69921875 46.75 C-19.02716003 47.50262762 -20.35652975 48.25274198 -21.6875 49 C-22.71907227 49.58974609 -22.71907227 49.58974609 -23.77148438 50.19140625 C-28.75747223 53 -28.75747223 53 -31 53 C-31.32338703 48.16258928 -31.55803078 43.33154061 -31.71411133 38.48583984 C-31.77918099 36.84182169 -31.86768697 35.19854747 -31.98071289 33.55712891 C-32.70758439 22.72312568 -32.70758439 22.72312568 -31 18 C-27.20096309 14.07030278 -22.96761537 12.15423869 -18 10 C-16.33271343 9.03803885 -14.67911319 8.05155008 -13.046875 7.03125 C-11.61536586 6.18617305 -10.18309983 5.34237661 -8.75 4.5 C-7.63431641 3.83871094 -7.63431641 3.83871094 -6.49609375 3.1640625 C-1.12111801 0 -1.12111801 0 0 0 Z " fill="#FEFEFE" transform="translate(270,341)"/>
<path d="M0 0 C1.32 5.28 2.64 10.56 4 16 C1.39351563 17.50240234 1.39351563 17.50240234 -1.265625 19.03515625 C-2.99350208 20.03147247 -4.7213778 21.02779105 -6.44921875 22.02416992 C-8.20040015 23.03390074 -9.95175998 24.04332207 -11.703125 25.05273438 C-12.8375 25.70693359 -13.971875 26.36113281 -15.140625 27.03515625 C-16.8412207 28.01572998 -16.8412207 28.01572998 -18.57617188 29.01611328 C-20.88930203 30.35642244 -23.19829876 31.70177612 -25.50195312 33.05810547 C-26.58927734 33.6976416 -27.67660156 34.33717773 -28.796875 34.99609375 C-30.26398926 35.8631897 -30.26398926 35.8631897 -31.76074219 36.74780273 C-34 38 -34 38 -35 38 C-35 31.73 -35 25.46 -35 19 C-33.03675781 17.87980469 -31.07351563 16.75960937 -29.05078125 15.60546875 C-27.13770166 14.51339632 -25.22472957 13.42113583 -23.31176758 12.32885742 C-21.98798654 11.57312701 -20.66409483 10.81759043 -19.34008789 10.06225586 C-17.43085675 8.97301041 -15.5220321 7.88305557 -13.61328125 6.79296875 C-12.73329216 6.29122383 -12.73329216 6.29122383 -11.83552551 5.77934265 C-9.26731195 4.31184151 -6.72256643 2.82716576 -4.21166992 1.26293945 C-2 0 -2 0 0 0 Z " fill="#033B79" transform="translate(327,170)"/>
<path d="M0 0 C0.66 0.33 1.32 0.66 2 1 C1.32195312 1.53367188 0.64390625 2.06734375 -0.0546875 2.6171875 C-11.23460266 11.44041815 -11.23460266 11.44041815 -20.48828125 22.15234375 C-23.2027693 25.47005136 -27.09573672 26.41566128 -31 28 C-31 24.7 -31 21.4 -31 18 C-30.23856689 17.56131592 -29.47713379 17.12263184 -28.69262695 16.6706543 C-25.85030036 15.03282451 -23.00820408 13.39459648 -20.16625977 11.75610352 C-18.93946294 11.04891404 -17.71257625 10.34188043 -16.4855957 9.63500977 C-14.71541709 8.61516264 -12.94556931 7.59474343 -11.17578125 6.57421875 C-10.11270752 5.96151123 -9.04963379 5.34880371 -7.9543457 4.7175293 C-6.02252817 3.59445382 -4.11527171 2.42773124 -2.23901367 1.21411133 C-1.50013916 0.81345459 -0.76126465 0.41279785 0 0 Z " fill="#151716" transform="translate(377,62)"/>
<path d="M0 0 C0.66 0.33 1.32 0.66 2 1 C0.85821872 2.66944521 -0.28852905 4.3354948 -1.4375 6 C-2.07558594 6.928125 -2.71367187 7.85625 -3.37109375 8.8125 C-3.90863281 9.534375 -4.44617188 10.25625 -5 11 C-5.33 11 -5.66 11 -6 11 C-6.375 7.75 -6.375 7.75 -6 4 C-3 1.5625 -3 1.5625 0 0 Z " fill="#4B4F4F" transform="translate(352,86)"/>
<path d="M0 0 C0.66 0.33 1.32 0.66 2 1 C-2.455 4.465 -2.455 4.465 -7 8 C-7.33 7.34 -7.66 6.68 -8 6 C-5.63404067 3.38499232 -3.13950774 1.61000397 0 0 Z " fill="#141D21" transform="translate(377,62)"/>
</svg>
