<?xml version="1.0" encoding="UTF-8"?>
<svg version="1.1" xmlns="http://www.w3.org/2000/svg" width="512" height="512">
<path d="M0 0 C5.39718178 2.23740799 10.3584425 5.36934448 15.33984375 8.39501953 C19.21864243 10.73525655 23.14599069 12.98960418 27.06860352 15.25537109 C30.15617547 17.04435016 33.23365644 18.84956096 36.30859375 20.66015625 C39.76514975 22.69542154 43.23193259 24.70755572 46.72265625 26.68359375 C48.0651401 27.45566668 49.40759105 28.22779685 50.75 29 C52.44382812 29.9590625 52.44382812 29.9590625 54.171875 30.9375 C59.49268271 34.81786805 61.29905752 39.18066331 62.59840429 45.38763297 C63.33555336 50.18276365 63.2777484 54.9658014 63.26069641 59.80778503 C63.26452196 60.96940936 63.26834751 62.13103368 63.27228898 63.32785875 C63.28078403 66.52999252 63.28039992 69.7319785 63.27610838 72.93411601 C63.273632 76.39643774 63.28266674 79.85873301 63.29014587 83.32104492 C63.30287081 90.09638014 63.30468923 96.87167568 63.30234561 103.64702084 C63.30055939 109.15822764 63.30231861 114.66942245 63.30657005 120.18062782 C63.30716524 120.96634425 63.30776043 121.75206067 63.30837366 122.56158668 C63.30958547 124.15803764 63.31079961 125.7544886 63.31201603 127.35093955 C63.32288362 142.31106727 63.32073311 157.27117242 63.31463119 172.2313014 C63.30946586 185.89477001 63.32070871 199.55816723 63.33972941 213.22162171 C63.35913851 227.27255517 63.36735823 241.32345492 63.36360615 255.37440187 C63.36169836 263.25430132 63.36414012 271.13414008 63.37832069 279.01402855 C63.39027489 285.72438122 63.39159456 292.43463587 63.37953053 299.14498999 C63.37366928 302.56347546 63.37246512 305.98178199 63.38453293 309.4002552 C63.47631659 341.86702304 63.47631659 341.86702304 56.375 355.25 C56.02872559 355.91765381 55.68245117 356.58530762 55.32568359 357.27319336 C47.8364701 371.13410236 35.82724658 378.64840417 22.375 386.0625 C20.33382408 387.20167245 18.29348498 388.3423454 16.25390625 389.484375 C15.21637207 390.06509766 14.17883789 390.64582031 13.10986328 391.24414062 C8.14603002 394.04676967 3.22914889 396.92813699 -1.6875 399.8125 C-10.42590292 404.93271395 -19.20014905 409.98646899 -28 415 C-37.72134099 420.53968899 -47.40895092 426.13375063 -57.06689453 431.78344727 C-67.59084625 437.93766742 -78.15380137 444.02369996 -88.71777344 450.10888672 C-94.14659942 453.23680148 -99.57319281 456.36858448 -105 459.5 C-107.16665583 460.75001879 -109.3333225 462.00001878 -111.5 463.25 C-112.5725 463.86875 -113.645 464.4875 -114.75 465.125 C-124.5 470.75 -124.5 470.75 -127.75048828 472.62524414 C-129.91557071 473.87435518 -132.08060982 475.12354129 -134.24560547 476.37280273 C-139.68615706 479.51202309 -145.12747216 482.64990563 -150.5703125 485.78515625 C-152.75524168 487.04421297 -154.94013771 488.30332722 -157.125 489.5625 C-158.185979 490.17367676 -159.24695801 490.78485352 -160.34008789 491.41455078 C-165.85898178 494.5974116 -171.36787902 497.79625898 -176.86328125 501.01953125 C-178.5191626 501.99007446 -178.5191626 501.99007446 -180.20849609 502.98022461 C-182.3157837 504.2167783 -184.42164697 505.45576341 -186.52587891 506.69750977 C-187.4647998 507.24850342 -188.4037207 507.79949707 -189.37109375 508.3671875 C-190.19536865 508.85300293 -191.01964355 509.33881836 -191.86889648 509.83935547 C-197.05835175 512.66564374 -202.23781051 512.77220493 -208 512 C-212.17549507 510.40355023 -215.87671854 508.19662279 -219.6875 505.875 C-220.75677734 505.24916016 -221.82605469 504.62332031 -222.92773438 503.97851562 C-225.1664228 502.6657288 -227.3992927 501.34297315 -229.62646484 500.01074219 C-232.94867946 498.0305888 -236.29128636 496.09112344 -239.64453125 494.1640625 C-255.39152763 485.09274635 -255.39152763 485.09274635 -262.03125 480.84375 C-262.73830078 480.39193359 -263.44535156 479.94011719 -264.17382812 479.47460938 C-269.00739858 475.57156585 -270.23005078 469.89710235 -271 464 C-271.14971948 460.1843887 -271.14349985 456.37115098 -271.14044189 452.55297852 C-271.14341302 451.39391747 -271.14638414 450.23485641 -271.1494453 449.0406723 C-271.1566085 445.83179985 -271.15930329 442.62296008 -271.16004276 439.41408086 C-271.16189832 435.94966744 -271.16944829 432.48526551 -271.17617798 429.02085876 C-271.18974282 421.4482031 -271.19578345 413.87555275 -271.20018864 406.30288696 C-271.20295481 401.56992481 -271.20719291 396.83696469 -271.21169281 392.10400391 C-271.22388425 378.98747893 -271.23418304 365.87095557 -271.2375679 352.75442505 C-271.23778747 351.91538844 -271.23800703 351.07635183 -271.23823325 350.21188986 C-271.23845153 349.37089472 -271.23866981 348.52989957 -271.2388947 347.66341972 C-271.23933816 345.95936966 -271.23978472 344.25531959 -271.24023438 342.55126953 C-271.2404558 341.70600968 -271.24067723 340.86074982 -271.24090537 339.98987603 C-271.24484976 326.30682097 -271.26229335 312.62381928 -271.2855939 298.94078481 C-271.30934949 284.8763908 -271.3217717 270.81202352 -271.32293582 256.74760914 C-271.32385034 248.85759893 -271.32954615 240.96765822 -271.34775543 233.07766724 C-271.36321348 226.35626917 -271.36824352 219.63496208 -271.36001733 212.9135496 C-271.35613057 209.48900431 -271.35694263 206.06464192 -271.37107468 202.64011955 C-271.48246117 170.14455689 -271.48246117 170.14455689 -264.375 156.75 C-264.02872559 156.08234619 -263.68245117 155.41469238 -263.32568359 154.72680664 C-255.54597459 140.32825348 -242.90960636 132.83033392 -228.9375 125.1875 C-226.70496153 123.95190683 -224.47319114 122.71492483 -222.2421875 121.4765625 C-221.16678711 120.88004883 -220.09138672 120.28353516 -218.98339844 119.66894531 C-215.1434998 117.52086454 -211.34507176 115.30961937 -207.5625 113.0625 C-200.59245682 108.92656271 -193.58498582 104.85878699 -186.5625 100.8125 C-185.45527588 100.17449463 -184.34805176 99.53648926 -183.20727539 98.87915039 C-180.93662932 97.57110523 -178.66587642 96.26324552 -176.39501953 94.95556641 C-170.9283002 91.80667946 -165.46425113 88.65316736 -160 85.5 C-157.83334689 84.2499765 -155.66668021 82.99997653 -153.5 81.75 C-152.4275 81.13125 -151.355 80.5125 -150.25 79.875 C-140.5 74.25 -140.5 74.25 -137.24951172 72.37475586 C-135.08442929 71.12564482 -132.91939018 69.87645871 -130.75439453 68.62719727 C-125.31384294 65.48797691 -119.87252784 62.35009437 -114.4296875 59.21484375 C-103.97793801 53.19252671 -93.53700452 47.15330663 -83.125 41.0625 C-73.86114374 35.64438019 -64.55534027 30.30254552 -55.22967529 24.99185181 C-45.71442134 19.57256046 -36.24203549 14.0830635 -26.8125 8.515625 C-8.86041024 -2.03249554 -8.86041024 -2.03249554 0 0 Z " fill="#F8F6FC" transform="translate(360,0)"/>
<path d="M0 0 C5.39718178 2.23740799 10.3584425 5.36934448 15.33984375 8.39501953 C19.21864243 10.73525655 23.14599069 12.98960418 27.06860352 15.25537109 C30.15617547 17.04435016 33.23365644 18.84956096 36.30859375 20.66015625 C39.76514975 22.69542154 43.23193259 24.70755572 46.72265625 26.68359375 C48.0651401 27.45566668 49.40759105 28.22779685 50.75 29 C52.44382812 29.9590625 52.44382812 29.9590625 54.171875 30.9375 C59.43652556 34.77691367 61.31256529 39.12075053 62.60241699 45.2741394 C63.39111856 50.68153985 63.2413671 56.1133843 63.1953125 61.56640625 C63.19106766 63.47836037 63.19106766 63.47836037 63.18673706 65.42893982 C63.1774899 68.7876054 63.15957871 72.1459896 63.1373291 75.50457764 C63.11672468 78.94378248 63.10770441 82.38301661 63.09765625 85.82226562 C63.07568358 92.54825361 63.04227195 99.27411059 63 106 C62.36512161 106.35780548 61.73024323 106.71561096 61.0761261 107.08425903 C44.57424357 116.37932797 44.57424357 116.37932797 28.1875 125.875 C19.80980048 130.78185908 11.41375536 135.65522364 3 140.5 C-5.30820712 145.28459589 -13.59998685 150.09573699 -21.875 154.9375 C-31.14494037 160.35930863 -40.45831855 165.70204974 -49.78845215 171.01922607 C-58.9128284 176.22045129 -68.00132774 181.48027878 -77.06689453 186.78344727 C-87.59084625 192.93766742 -98.15380137 199.02369996 -108.71777344 205.10888672 C-114.14659942 208.23680148 -119.57319281 211.36858448 -125 214.5 C-127.16665583 215.75001879 -129.3333225 217.00001878 -131.5 218.25 C-132.5725 218.86875 -133.645 219.4875 -134.75 220.125 C-146.66666667 227 -158.58333333 233.875 -170.5 240.75 C-171.57419189 241.37003906 -172.64838379 241.99007812 -173.75512695 242.62890625 C-175.90360846 243.86778687 -178.05317184 245.10479334 -180.20385742 246.33984375 C-185.29485216 249.26644065 -190.37247734 252.21126278 -195.4133606 255.2232666 C-197.79980558 256.64765487 -200.19246681 258.06140853 -202.58569336 259.47436523 C-204.27619838 260.47843869 -205.95756038 261.49785518 -207.63867188 262.51757812 C-208.66154297 263.12021484 -209.68441406 263.72285156 -210.73828125 264.34375 C-211.63587158 264.88193359 -212.53346191 265.42011719 -213.45825195 265.97460938 C-216.55647296 267.22449202 -217.85769743 267.04877007 -221 266 C-223.46582031 264.83935547 -223.46582031 264.83935547 -226.078125 263.3671875 C-227.06304932 262.8196582 -228.04797363 262.27212891 -229.06274414 261.70800781 C-231.23712656 260.45750891 -233.39739655 259.18222586 -235.54467773 257.88574219 C-241.3314964 254.42817509 -246.67061871 251.6486014 -253.20703125 249.7734375 C-259.80938274 247.54847093 -266.13131368 245.29747722 -270.06256104 239.17877197 C-278.50094763 219.56648692 -274.10238973 182.20444216 -267.09851074 162.45843506 C-266.27810871 160.49555128 -265.37200319 158.62892914 -264.375 156.75 C-264.02872559 156.08234619 -263.68245117 155.41469238 -263.32568359 154.72680664 C-255.54597459 140.32825348 -242.90960636 132.83033392 -228.9375 125.1875 C-226.70496153 123.95190683 -224.47319114 122.71492483 -222.2421875 121.4765625 C-221.16678711 120.88004883 -220.09138672 120.28353516 -218.98339844 119.66894531 C-215.1434998 117.52086454 -211.34507176 115.30961937 -207.5625 113.0625 C-200.59245682 108.92656271 -193.58498582 104.85878699 -186.5625 100.8125 C-185.45527588 100.17449463 -184.34805176 99.53648926 -183.20727539 98.87915039 C-180.93662932 97.57110523 -178.66587642 96.26324552 -176.39501953 94.95556641 C-170.9283002 91.80667946 -165.46425113 88.65316736 -160 85.5 C-157.83334689 84.2499765 -155.66668021 82.99997653 -153.5 81.75 C-152.4275 81.13125 -151.355 80.5125 -150.25 79.875 C-140.5 74.25 -140.5 74.25 -137.24951172 72.37475586 C-135.08442929 71.12564482 -132.91939018 69.87645871 -130.75439453 68.62719727 C-125.31384294 65.48797691 -119.87252784 62.35009437 -114.4296875 59.21484375 C-103.97793801 53.19252671 -93.53700452 47.15330663 -83.125 41.0625 C-73.86114374 35.64438019 -64.55534027 30.30254552 -55.22967529 24.99185181 C-45.71442134 19.57256046 -36.24203549 14.0830635 -26.8125 8.515625 C-8.86041024 -2.03249554 -8.86041024 -2.03249554 0 0 Z " fill="#FE6E7A" transform="translate(360,0)"/>
<path d="M0 0 C5.38935491 2.23416335 10.34368857 5.36050949 15.31787109 8.38183594 C18.24110453 10.14546157 21.18911616 11.86118994 24.14453125 13.5703125 C30.11098446 17.02234163 36.06255485 20.49832302 42 24 C42.97066406 24.56783203 43.94132812 25.13566406 44.94140625 25.72070312 C45.85792969 26.26146484 46.77445312 26.80222656 47.71875 27.359375 C48.9552832 28.08592285 48.9552832 28.08592285 50.21679688 28.82714844 C50.80525391 29.21418945 51.39371094 29.60123047 52 30 C52 30.33 52 30.66 52 31 C51.21455811 31.06098877 50.42911621 31.12197754 49.61987305 31.18481445 C40.30400302 32.21929769 33.74192029 35.3397253 25.8125 40.1875 C24.59467542 40.91080178 23.3755706 41.63195184 22.15527344 42.35107422 C19.65257535 43.82890928 17.15630871 45.31678541 14.66455078 46.81298828 C9.07220782 50.16279047 3.40594002 53.38423915 -2.25 56.625 C-10.47500353 61.36745593 -18.67947618 66.14432739 -26.875 70.9375 C-36.14505515 76.35911495 -45.4583165 81.70204857 -54.78845215 87.01922607 C-63.9128284 92.22045129 -73.00132774 97.48027878 -82.06689453 102.78344727 C-92.59084625 108.93766742 -103.15380137 115.02369996 -113.71777344 121.10888672 C-118.06499362 123.61361504 -122.41075471 126.12086779 -126.75634766 128.62841797 C-128.91472469 129.87379795 -131.0732528 131.11891614 -133.23193359 132.36376953 C-138.75096756 135.5466428 -144.26787279 138.73311807 -149.78125 141.92578125 C-152.02071263 143.2215628 -154.26029455 144.5171382 -156.5 145.8125 C-157.58152344 146.43833984 -158.66304688 147.06417969 -159.77734375 147.70898438 C-166.14435813 151.38346085 -172.55105632 154.97179841 -179 158.5 C-185.29660532 161.96362234 -191.30091096 165.59809168 -197 170 C-197.6909375 170.49242187 -198.381875 170.98484375 -199.09375 171.4921875 C-209.60804541 179.62054665 -214.20193939 192.4454919 -217 205 C-217.53041253 209.91151599 -217.60456841 214.77366503 -217.609375 219.7109375 C-217.62440866 221.05858289 -217.64114634 222.40621023 -217.65948486 223.7538147 C-217.70259105 227.24874867 -217.72302871 230.7434346 -217.73822021 234.23858643 C-217.75799983 237.82587014 -217.79994375 241.41289365 -217.83984375 245 C-217.91452804 251.99989966 -217.96518977 258.9997788 -218 266 C-221.51014603 266 -222.84709349 265.17331165 -225.8828125 263.46484375 C-226.87418213 262.9140918 -227.86555176 262.36333984 -228.88696289 261.79589844 C-231.08764427 260.53286695 -233.27405364 259.24470688 -235.44702148 257.93457031 C-241.34757015 254.41363397 -246.55402081 251.67999985 -253.21484375 249.76953125 C-259.81512452 247.54631772 -266.13279473 245.29517207 -270.06256104 239.17877197 C-278.50094763 219.56648692 -274.10238973 182.20444216 -267.09851074 162.45843506 C-266.27810871 160.49555128 -265.37200319 158.62892914 -264.375 156.75 C-264.02872559 156.08234619 -263.68245117 155.41469238 -263.32568359 154.72680664 C-255.54597459 140.32825348 -242.90960636 132.83033392 -228.9375 125.1875 C-226.70496153 123.95190683 -224.47319114 122.71492483 -222.2421875 121.4765625 C-221.16678711 120.88004883 -220.09138672 120.28353516 -218.98339844 119.66894531 C-215.1434998 117.52086454 -211.34507176 115.30961937 -207.5625 113.0625 C-200.59245682 108.92656271 -193.58498582 104.85878699 -186.5625 100.8125 C-185.45527588 100.17449463 -184.34805176 99.53648926 -183.20727539 98.87915039 C-180.93662932 97.57110523 -178.66587642 96.26324552 -176.39501953 94.95556641 C-170.9283002 91.80667946 -165.46425113 88.65316736 -160 85.5 C-157.83334689 84.2499765 -155.66668021 82.99997653 -153.5 81.75 C-152.4275 81.13125 -151.355 80.5125 -150.25 79.875 C-140.5 74.25 -140.5 74.25 -137.24951172 72.37475586 C-135.08442929 71.12564482 -132.91939018 69.87645871 -130.75439453 68.62719727 C-125.31384294 65.48797691 -119.87252784 62.35009437 -114.4296875 59.21484375 C-103.97793801 53.19252671 -93.53700452 47.15330663 -83.125 41.0625 C-73.86114374 35.64438019 -64.55534027 30.30254552 -55.22967529 24.99185181 C-45.71442134 19.57256046 -36.24203549 14.0830635 -26.8125 8.515625 C-8.86041024 -2.03249554 -8.86041024 -2.03249554 0 0 Z " fill="#EE7D86" transform="translate(360,0)"/>
<path d="M0 0 C1.60313651 0.79723775 3.20577916 1.59546866 4.80821228 2.39411926 C6.14699889 3.06073184 6.14699889 3.06073184 7.51283169 3.74081135 C10.27459973 5.1390227 12.96044657 6.6305095 15.62890625 8.19921875 C17.07583862 9.04661621 17.07583862 9.04661621 18.55200195 9.91113281 C19.54546631 10.49733398 20.53893066 11.08353516 21.5625 11.6875 C23.12327271 12.60354004 23.12327271 12.60354004 24.71557617 13.53808594 C26.81576143 14.77122816 28.91514061 16.00574436 31.01367188 17.24169922 C33.75167095 18.85378795 36.49232826 20.46121506 39.234375 22.06640625 C40.76050609 22.96078492 42.2865539 23.85530573 43.8125 24.75 C44.50480713 25.15565186 45.19711426 25.56130371 45.91040039 25.97924805 C48.65517432 27.59347223 51.34964892 29.23309928 54 31 C54.2897355 33.94714365 54.38217715 36.68345045 54.3473053 39.63243103 C54.34845744 40.53701083 54.34960958 41.44159063 54.35079664 42.37358195 C54.35105604 45.42365101 54.32981863 48.47320177 54.30883789 51.52319336 C54.30471992 53.70265498 54.30194909 55.8821195 54.3004303 58.06158447 C54.29432157 62.76577006 54.27877044 67.46979856 54.25605965 72.17393303 C54.22034314 79.61640302 54.20629894 87.05881612 54.19541931 94.50135803 C54.17797529 104.94177707 54.15148854 115.38213522 54.11645508 125.82250977 C54.11423395 126.48540044 54.11201283 127.14829112 54.10972439 127.83126939 C54.10071068 130.51646209 54.0916748 133.20165471 54.08260826 135.88684722 C54.01856065 154.9418686 53.96643574 173.99691546 53.93383402 193.05201823 C53.92046553 200.44516302 53.89660284 207.8381771 53.8644315 215.23126304 C53.84627204 219.84246215 53.83641208 224.45365316 53.82866478 229.06488037 C53.82334146 231.19691198 53.81455318 233.32893832 53.80196381 235.46093941 C52.90951276 254.27834306 52.90951276 254.27834306 60 271 C60.33 271.66 60.66 272.32 61 273 C57.36367377 271.62551133 54.02935879 269.99565142 50.640625 268.09375 C49.10245117 267.23233398 49.10245117 267.23233398 47.53320312 266.35351562 C46.44974609 265.74185547 45.36628906 265.13019531 44.25 264.5 C43.13560547 263.87287109 42.02121094 263.24574219 40.87304688 262.59960938 C32.41795977 257.82869855 23.98266135 253.02790912 15.67431641 248.00488281 C14.1620216 247.09724131 12.63455012 246.21500452 11.10546875 245.3359375 C5.83081185 242.1489881 2.84217742 238.96514592 1 233 C-0.0777674 227.85034043 -0.13786163 222.89394234 -0.12025452 217.66067505 C-0.12110894 216.72858211 -0.12196337 215.79648918 -0.12284368 214.836151 C-0.12448876 211.71773337 -0.11899301 208.5993697 -0.11352539 205.48095703 C-0.11324328 203.24364727 -0.11340171 201.00633742 -0.1139679 198.76902771 C-0.11425495 192.6972545 -0.108373 186.62550102 -0.10139394 180.5537324 C-0.09514517 174.20760606 -0.09455539 167.86147928 -0.09336853 161.51535034 C-0.09061299 150.86439634 -0.08436561 140.21345014 -0.07543945 129.5625 C-0.06625626 118.59342485 -0.05917986 107.62435166 -0.05493164 96.65527344 C-0.05466892 95.97880178 -0.05440619 95.30233013 -0.05413551 94.60535933 C-0.05283044 91.21159897 -0.05156674 87.81783861 -0.05032361 84.42407823 C-0.03996192 56.28271378 -0.02227864 28.14135734 0 0 Z " fill="#E1DBF4" transform="translate(89,237)"/>
<path d="M0 0 C4.2101884 3.88632775 5.13816203 7.89002604 5.375 13.4375 C5.14777894 32.32209458 -2.83899942 56.41941293 -16.078125 70.15625 C-20.03086196 73.72835303 -23.53159605 76.6848846 -28.9375 77.375 C-32.78465622 76.90391965 -34.28305891 75.71694109 -37 73 C-38.98781632 69.78565871 -39.35773121 66.9917631 -39.625 63.25 C-39.69976562 62.26515625 -39.77453125 61.2803125 -39.8515625 60.265625 C-39.90054688 59.51796875 -39.94953125 58.7703125 -40 58 C-40.27972656 58.92039062 -40.55945313 59.84078125 -40.84765625 60.7890625 C-45.4474378 75.50797132 -51.21108786 88.63688549 -63 99 C-67.12667091 101.05101704 -70.38793068 101.57650867 -75 101 C-77.63016161 98.8272578 -79.47336894 97.05326212 -81 94 C-82.22452402 80.5101616 -78.75275669 67.83037085 -75 55 C-75.33 55.66 -75.66 56.32 -76 57 C-76.99 57 -77.98 57 -79 57 C-78.61644621 51.56496124 -76.47363353 48.54744863 -72.9375 44.625 C-72.43871338 44.05773193 -71.93992676 43.49046387 -71.42602539 42.90600586 C-69.96471486 41.25736588 -68.48536805 39.62695516 -67 38 C-66.2884375 37.20464844 -65.576875 36.40929687 -64.84375 35.58984375 C-59.36719566 29.76539354 -53.19900191 24.75719707 -45.1875 23.3125 C-41.1535264 24.18257274 -39.77066228 26.04117729 -37 29 C-36.40574219 28.18917969 -35.81148438 27.37835938 -35.19921875 26.54296875 C-13.74859628 -2.29143271 -13.74859628 -2.29143271 0 0 Z " fill="#D7CFE9" transform="translate(364,256)"/>
<path d="M0 0 C4.49450068 4.49450068 4.40828551 9.93058777 4.453125 15.98461914 C4.02096912 34.96415737 -4.90958163 58.30691932 -18.6640625 71.609375 C-22.89076766 75.31554997 -26.35590801 76.40740416 -31.99609375 76.35546875 C-35.4250568 75.74721215 -36.95649153 73.66275346 -39 71 C-43.18407609 58.44777172 -37.58206176 43.21450791 -34 31 C-34.99 31.66 -35.98 32.32 -37 33 C-37.71484375 31.32421875 -37.71484375 31.32421875 -38 29 C-31.54522815 17.32256375 -15.17069727 -4.29359357 0 0 Z " fill="#D7CFE8" transform="translate(407,232)"/>
<path d="M0 0 C2.30275556 1.8670991 3.67823871 3.35647741 5 6 C6.46226295 27.69422908 1.18190383 50.9817154 -13 68 C-17.43939954 72.98078973 -21.72272977 77.1551529 -28.625 77.5625 C-32.16433265 77.40757972 -32.77448009 77.20860592 -35.5 74.6875 C-41.18888828 64.4949085 -37.84736996 51.90655161 -34.86669922 41.34765625 C-34.44193069 39.88323375 -34.01136744 38.42046721 -33.57250977 36.96020508 C-32.99543946 34.98438525 -32.48662455 32.99982309 -32 31 C-32.33 31.66 -32.66 32.32 -33 33 C-33.99 33 -34.98 33 -36 33 C-35.51320868 28.30594087 -33.36491124 25.33486386 -30.5 21.75 C-29.82614258 20.89619751 -29.82614258 20.89619751 -29.13867188 20.02514648 C-10.98741916 -2.61605218 -10.98741916 -2.61605218 0 0 Z " fill="#D7CFE9" transform="translate(279,304)"/>
<path d="M0 0 C2.10285671 2.10285671 1.2129677 6.69621546 1.23828125 9.6015625 C1.246353 10.47138763 1.25442474 11.34121277 1.26274109 12.23739624 C1.27660354 14.08516434 1.28731598 15.93295829 1.29516602 17.78076172 C1.3123027 20.59262694 1.35615899 23.40329315 1.40039062 26.21484375 C1.41052401 28.01040802 1.41903809 29.8059823 1.42578125 31.6015625 C1.44328934 32.43724762 1.46079742 33.27293274 1.47883606 34.13394165 C1.45756377 39.92959587 0.47822727 43.30689473 -3 48 C-5.76147461 50.17163086 -5.76147461 50.17163086 -8.90234375 51.96484375 C-10.60874023 52.94614258 -10.60874023 52.94614258 -12.34960938 53.94726562 C-12.93895264 54.27380127 -13.5282959 54.60033691 -14.13549805 54.93676758 C-15.94135778 55.9396424 -17.72764399 56.97206112 -19.51367188 58.00976562 C-29.62003549 63.73498916 -29.62003549 63.73498916 -34 63 C-36.54605476 59.18091786 -36.32356502 56.03545933 -36.3359375 51.60546875 C-36.3425943 50.78049393 -36.3492511 49.9555191 -36.35610962 49.10554504 C-36.36623325 47.35969267 -36.37092673 45.61380162 -36.37060547 43.86791992 C-36.37496719 41.20751402 -36.4112559 38.54878296 -36.44921875 35.88867188 C-36.45508944 34.19010982 -36.45905714 32.49153991 -36.4609375 30.79296875 C-36.47530853 30.00214401 -36.48967957 29.21131927 -36.50448608 28.39653015 C-36.46131922 23.130491 -35.51075223 20.1514251 -32 16 C-27.03960805 11.53930971 -21.20654916 8.47539191 -15.4375 5.1875 C-14.39658203 4.57712891 -13.35566406 3.96675781 -12.28320312 3.33789062 C-11.28095703 2.76619141 -10.27871094 2.19449219 -9.24609375 1.60546875 C-8.33529053 1.08106201 -7.4244873 0.55665527 -6.48608398 0.01635742 C-3.73794601 -1.10713255 -2.69986857 -1.12896686 0 0 Z " fill="#D7D1EB" transform="translate(237,393)"/>
<path d="M0 0 C4.70588235 0.70588235 4.70588235 0.70588235 6 2 C6.13847156 4.88689322 6.21320611 7.74808684 6.23828125 10.63671875 C6.246353 11.50891556 6.25442474 12.38111237 6.26274109 13.27973938 C6.27660206 15.13170371 6.28731517 16.9836938 6.29516602 18.83569336 C6.31232398 21.65854049 6.35618434 24.48019988 6.40039062 27.30273438 C6.41052208 29.10155388 6.41903677 30.90038336 6.42578125 32.69921875 C6.44328934 33.54006516 6.46079742 34.38091156 6.47883606 35.24723816 C6.45897495 40.65892857 5.57141257 43.68827471 2 48 C-0.72886394 50.39607566 -3.89229911 52.12966228 -7 54 C-7.65887207 54.40895508 -8.31774414 54.81791016 -8.99658203 55.23925781 C-11.23963836 56.63149967 -13.49310583 58.00531862 -15.75 59.375 C-16.48307373 59.82842773 -17.21614746 60.28185547 -17.97143555 60.74902344 C-24.95741138 64.91332558 -24.95741138 64.91332558 -29 64 C-31.54605476 60.18091786 -31.32356502 57.03545933 -31.3359375 52.60546875 C-31.3425943 51.78049393 -31.3492511 50.9555191 -31.35610962 50.10554504 C-31.36623325 48.35969267 -31.37092673 46.61380162 -31.37060547 44.86791992 C-31.37496719 42.20751402 -31.4112559 39.54878296 -31.44921875 36.88867188 C-31.45508944 35.19010982 -31.45905714 33.49153991 -31.4609375 31.79296875 C-31.47530853 31.00214401 -31.48967957 30.21131927 -31.50448608 29.39653015 C-31.46131279 24.12970628 -30.43376482 21.20781824 -27 17 C-22.45683476 12.6532498 -16.7027729 9.86266784 -11.25 6.8125 C-9.33777798 5.73703383 -7.42627868 4.66028126 -5.515625 3.58203125 C-4.25153809 2.87397339 -4.25153809 2.87397339 -2.96191406 2.15161133 C-1.06483235 1.14878659 -1.06483235 1.14878659 0 0 Z " fill="#FF979E" transform="translate(190,304)"/>
<path d="M0 0 C1.76855469 0.76977539 1.76855469 0.76977539 2.76855469 2.76977539 C2.90429475 5.61638488 2.98130131 8.43728871 3.00683594 11.28540039 C3.01490768 12.13398621 3.02297943 12.98257202 3.03129578 13.85687256 C3.0451391 15.65578161 3.05586014 17.45471696 3.0637207 19.25366211 C3.08090083 21.99522267 3.12477952 24.73556695 3.16894531 27.47680664 C3.17907529 29.2254957 3.18759044 30.974195 3.19433594 32.72290039 C3.21184402 33.53873596 3.22935211 34.35457153 3.24739075 35.19512939 C3.22719941 40.53634719 2.27593115 43.50864589 -1.23144531 47.76977539 C-3.96030926 50.16585105 -7.12374442 51.89943767 -10.23144531 53.76977539 C-10.89031738 54.17873047 -11.54918945 54.58768555 -12.22802734 55.0090332 C-14.47108368 56.40127506 -16.72455114 57.77509402 -18.98144531 59.14477539 C-19.71451904 59.59820312 -20.44759277 60.05163086 -21.20288086 60.51879883 C-28.03769341 64.59299336 -28.03769341 64.59299336 -32.23144531 63.76977539 C-34.81152088 61.18969982 -34.48975168 59.42128339 -34.5349884 55.90338135 C-34.534077 55.10132263 -34.53316559 54.29926392 -34.53222656 53.47290039 C-34.53651169 52.64651062 -34.54079681 51.82012085 -34.54521179 50.96868896 C-34.55096153 49.21684689 -34.55145063 47.46498093 -34.54711914 45.71313477 C-34.54397397 43.04409411 -34.56735767 40.3761777 -34.59277344 37.70727539 C-34.59504798 36.00415179 -34.59574921 34.30102521 -34.59472656 32.59790039 C-34.60393631 31.8039386 -34.61314606 31.00997681 -34.62263489 30.19195557 C-34.57624201 24.57695456 -33.69878738 20.24760909 -29.56640625 16.09765625 C-24.03787285 12.21236635 -18.34009606 8.69832157 -12.48144531 5.33227539 C-11.54945313 4.77862305 -10.61746094 4.2249707 -9.65722656 3.65454102 C-8.30951172 2.87820313 -8.30951172 2.87820313 -6.93457031 2.08618164 C-6.12665039 1.61639893 -5.31873047 1.14661621 -4.48632812 0.66259766 C-2.23144531 -0.23022461 -2.23144531 -0.23022461 0 0 Z " fill="#FE969E" transform="translate(193.2314453125,360.230224609375)"/>
<path d="M0 0 C1.60356144 3.20712288 1.20556108 6.70166075 1.23828125 10.2265625 C1.246353 11.04820892 1.25442474 11.86985535 1.26274109 12.71640015 C1.27658675 14.45983774 1.28730675 16.20330249 1.29516602 17.94677734 C1.31229911 20.59396092 1.35616941 23.23986924 1.40039062 25.88671875 C1.41052491 27.58332418 1.41903871 29.2799402 1.42578125 30.9765625 C1.44328934 31.76020172 1.46079742 32.54384094 1.47883606 33.35122681 C1.45698261 38.98144345 0.3297088 43.3861043 -3 48 C-5.76147461 50.28515625 -5.76147461 50.28515625 -8.90234375 52.0625 C-10.60874023 53.03896484 -10.60874023 53.03896484 -12.34960938 54.03515625 C-12.93895264 54.35758301 -13.5282959 54.68000977 -14.13549805 55.01220703 C-15.94325476 56.00315455 -17.72854559 57.02753576 -19.51367188 58.05859375 C-29.42781003 63.63564713 -29.42781003 63.63564713 -34 63 C-36.58007557 60.41992443 -36.25830637 58.651508 -36.30354309 55.13360596 C-36.30263168 54.33154724 -36.30172028 53.52948853 -36.30078125 52.703125 C-36.30506638 51.87673523 -36.3093515 51.05034546 -36.31376648 50.19891357 C-36.31951621 48.44707149 -36.32000532 46.69520554 -36.31567383 44.94335938 C-36.31252866 42.27431871 -36.33591236 39.60640231 -36.36132812 36.9375 C-36.36360267 35.23437639 -36.36430389 33.53124982 -36.36328125 31.828125 C-36.372491 31.03416321 -36.38170074 30.24020142 -36.39118958 29.42218018 C-36.35098399 24.55603643 -35.76602528 21.16997836 -33 17 C-28.249236 12.64329731 -22.57276394 9.54673911 -17.0625 6.25 C-15.59780273 5.34701172 -15.59780273 5.34701172 -14.10351562 4.42578125 C-13.15283203 3.85730469 -12.20214844 3.28882813 -11.22265625 2.703125 C-10.36422119 2.18395508 -9.50578613 1.66478516 -8.62133789 1.12988281 C-5.57085794 -0.18497434 -3.28835443 -0.20779301 0 0 Z " fill="#FE969E" transform="translate(195,417)"/>
<path d="M0 0 C2.1068347 2.1068347 1.21300425 6.72483243 1.23828125 9.63671875 C1.246353 10.50891556 1.25442474 11.38111237 1.26274109 12.27973938 C1.27660206 14.13170371 1.28731517 15.9836938 1.29516602 17.83569336 C1.31232398 20.65854049 1.35618434 23.48019988 1.40039062 26.30273438 C1.41052208 28.10155388 1.41903677 29.90038336 1.42578125 31.69921875 C1.44328934 32.54006516 1.46079742 33.38091156 1.47883606 34.24723816 C1.45897206 39.6597174 0.56940883 42.68614438 -3 47 C-5.71225702 49.42998593 -8.86857354 51.15253889 -12 53 C-12.69125977 53.41427246 -13.38251953 53.82854492 -14.09472656 54.25537109 C-16.46875386 55.66929177 -18.85665537 57.05655793 -21.25 58.4375 C-22.42103271 59.13020996 -22.42103271 59.13020996 -23.61572266 59.83691406 C-24.36644043 60.26069336 -25.1171582 60.68447266 -25.890625 61.12109375 C-26.56125977 61.5070874 -27.23189453 61.89308105 -27.92285156 62.29077148 C-30.59297447 63.20246719 -32.31907768 62.73792474 -35 62 C-35.09922655 56.14677826 -35.17163763 50.29405123 -35.21972656 44.44018555 C-35.23978337 42.45084092 -35.26703585 40.46155482 -35.30175781 38.47241211 C-35.35053771 35.60515869 -35.37302827 32.73868789 -35.390625 29.87109375 C-35.41127014 28.98852402 -35.43191528 28.10595428 -35.45318604 27.19664001 C-35.45532186 21.25594114 -34.31076786 17.9362845 -31 13 C-31 12.67 -31 12.34 -31 12 C-30.41992188 11.90203125 -29.83984375 11.8040625 -29.2421875 11.703125 C-23.37169968 10.57940126 -18.83371192 8.96605561 -14.578125 4.51171875 C-10.59126167 0.69261947 -5.41521836 -2.13326784 0 0 Z " fill="#D7D1EA" transform="translate(279,369)"/>
<path d="M0 0 C2.10474182 2.10474182 1.18859889 6.72810574 1.203125 9.63671875 C1.20882507 10.50891556 1.21452515 11.38111237 1.22039795 12.27973938 C1.22986604 14.13171164 1.23638908 15.98370089 1.24023438 17.83569336 C1.24990016 20.65834459 1.28088942 23.48025548 1.3125 26.30273438 C1.31903385 28.10155817 1.32428282 29.90038719 1.328125 31.69921875 C1.3404718 32.54006516 1.3528186 33.38091156 1.36553955 34.24723816 C1.34676921 39.23300082 0.84492619 42.72399944 -2 47 C-3.91674805 48.68969727 -3.91674805 48.68969727 -6.07421875 50.00390625 C-6.87005371 50.49777832 -7.66588867 50.99165039 -8.48583984 51.50048828 C-9.3155127 51.99532715 -10.14518555 52.49016602 -11 53 C-11.80775879 53.50128418 -12.61551758 54.00256836 -13.44775391 54.51904297 C-15.88588444 56.02201348 -18.34488234 57.48354289 -20.8125 58.9375 C-22.06063477 59.69643555 -22.06063477 59.69643555 -23.33398438 60.47070312 C-24.53958008 61.17936523 -24.53958008 61.17936523 -25.76953125 61.90234375 C-26.48729736 62.33023193 -27.20506348 62.75812012 -27.94458008 63.19897461 C-30.421728 64.1643532 -31.55154493 63.94447534 -34 63 C-36.13084114 60.86915886 -35.21330414 56.09583081 -35.23828125 53.14453125 C-35.246353 52.2501384 -35.25442474 51.35574554 -35.26274109 50.43424988 C-35.27660227 48.5352066 -35.28731528 46.63613819 -35.29516602 44.73706055 C-35.31232635 41.84179781 -35.35618714 38.94769237 -35.40039062 36.05273438 C-35.41052184 34.20834174 -35.4190366 32.36393938 -35.42578125 30.51953125 C-35.44328934 29.65681107 -35.46079742 28.79409088 -35.47883606 27.90522766 C-35.45541703 21.36382106 -33.70235191 17.70235191 -29 13 C-27.57732636 12.51645867 -26.13670537 12.0845092 -24.6875 11.6875 C-20.26450593 10.29039552 -18.25198999 8.33130682 -15 5 C-10.13590348 2.02974472 -5.83207261 -0.51638143 0 0 Z " fill="#D7D1EA" transform="translate(321,344)"/>
<path d="M0 0 C2.13084114 2.13084114 1.21330414 6.90416919 1.23828125 9.85546875 C1.246353 10.7498616 1.25442474 11.64425446 1.26274109 12.56575012 C1.27660227 14.4647934 1.28731528 16.36386181 1.29516602 18.26293945 C1.31232635 21.15820219 1.35618714 24.05230763 1.40039062 26.94726562 C1.41052184 28.79165826 1.4190366 30.63606062 1.42578125 32.48046875 C1.44328934 33.34318893 1.46079742 34.20590912 1.47883606 35.09477234 C1.45931009 40.54876848 0.73494506 43.74727726 -3 48 C-5.54614258 49.95043945 -5.54614258 49.95043945 -8.39453125 51.61328125 C-9.43287109 52.22107422 -10.47121094 52.82886719 -11.54101562 53.45507812 C-12.62060547 54.06802734 -13.70019531 54.68097656 -14.8125 55.3125 C-16.41448242 56.26092773 -16.41448242 56.26092773 -18.04882812 57.22851562 C-27.97872462 62.95801063 -27.97872462 62.95801063 -34 63 C-36.13084114 60.86915886 -35.21330414 56.09583081 -35.23828125 53.14453125 C-35.246353 52.2501384 -35.25442474 51.35574554 -35.26274109 50.43424988 C-35.27660227 48.5352066 -35.28731528 46.63613819 -35.29516602 44.73706055 C-35.31232635 41.84179781 -35.35618714 38.94769237 -35.40039062 36.05273438 C-35.41052184 34.20834174 -35.4190366 32.36393938 -35.42578125 30.51953125 C-35.44328934 29.65681107 -35.46079742 28.79409088 -35.47883606 27.90522766 C-35.45931394 22.45230768 -34.68100091 19.29567622 -31 15 C-27.90625 13.0234375 -27.90625 13.0234375 -24.5 11.375 C-20.23498288 9.29140219 -17.28725407 7.38829671 -14 4 C-11.5625 2.48046875 -11.5625 2.48046875 -9 1.1875 C-8.154375 0.74792969 -7.30875 0.30835938 -6.4375 -0.14453125 C-3.74279233 -1.09027 -2.61687634 -1.04558229 0 0 Z " fill="#D7D1EB" transform="translate(363,320)"/>
<path d="M0 0 C2.1068347 2.1068347 1.21300425 6.72483243 1.23828125 9.63671875 C1.246353 10.50891556 1.25442474 11.38111237 1.26274109 12.27973938 C1.27660206 14.13170371 1.28731517 15.9836938 1.29516602 17.83569336 C1.31232398 20.65854049 1.35618434 23.48019988 1.40039062 26.30273438 C1.41052208 28.10155388 1.41903677 29.90038336 1.42578125 31.69921875 C1.44328934 32.54006516 1.46079742 33.38091156 1.47883606 34.24723816 C1.45897206 39.6597174 0.56940883 42.68614438 -3 47 C-5.71225702 49.42998593 -8.86857354 51.15253889 -12 53 C-12.69125977 53.41427246 -13.38251953 53.82854492 -14.09472656 54.25537109 C-16.46875386 55.66929177 -18.85665537 57.05655793 -21.25 58.4375 C-22.42103271 59.13020996 -22.42103271 59.13020996 -23.61572266 59.83691406 C-24.36644043 60.26069336 -25.1171582 60.68447266 -25.890625 61.12109375 C-26.56125977 61.5070874 -27.23189453 61.89308105 -27.92285156 62.29077148 C-30.59297447 63.20246719 -32.31907768 62.73792474 -35 62 C-35.07426628 56.25255142 -35.12865726 50.5053834 -35.16479492 44.75756836 C-35.17986301 42.80309177 -35.20032124 40.84864888 -35.22631836 38.89428711 C-35.26278865 36.08178377 -35.27974622 33.26972826 -35.29296875 30.45703125 C-35.30845261 29.58601273 -35.32393646 28.7149942 -35.33988953 27.81758118 C-35.34120735 23.04587497 -35.17247731 19.81741963 -32 16 C-27.03171991 11.54551982 -21.20766202 8.47602615 -15.4375 5.1875 C-14.39658203 4.57712891 -13.35566406 3.96675781 -12.28320312 3.33789062 C-11.28095703 2.76619141 -10.27871094 2.19449219 -9.24609375 1.60546875 C-8.33529053 1.08106201 -7.4244873 0.55665527 -6.48608398 0.01635742 C-3.73794601 -1.10713255 -2.69986857 -1.12896686 0 0 Z " fill="#D7D1EB" transform="translate(237,337)"/>
<path d="M0 0 C2.10869192 2.10869192 1.18861981 6.75674411 1.203125 9.671875 C1.20882507 10.54644348 1.21452515 11.42101196 1.22039795 12.32208252 C1.22986503 14.17825098 1.23638868 16.03443638 1.24023438 17.890625 C1.24991209 20.72426001 1.28090737 23.55716129 1.3125 26.390625 C1.31903261 28.19270402 1.32428207 29.99478824 1.328125 31.796875 C1.3404718 32.64288269 1.3528186 33.48889038 1.36553955 34.36053467 C1.34771179 39.09637882 0.99811786 42.09947835 -2 46 C-1.34 46.66 -0.68 47.32 0 48 C-1.299375 48.185625 -2.59875 48.37125 -3.9375 48.5625 C-9.80918549 49.84056403 -13.53378685 53.16571758 -18 57 C-22.44477999 60.53410138 -27.32752807 62.36972534 -33 63 C-36.05707435 59.94292565 -35.32514176 56.36829763 -35.3359375 52.265625 C-35.3425943 51.39484314 -35.3492511 50.52406128 -35.35610962 49.62689209 C-35.36624741 47.7809053 -35.37092629 45.93488178 -35.37060547 44.08886719 C-35.37496166 41.27476751 -35.41122083 38.4622577 -35.44921875 35.6484375 C-35.45509022 33.85417202 -35.4590574 32.0598991 -35.4609375 30.265625 C-35.48249405 29.00906097 -35.48249405 29.00906097 -35.50448608 27.72711182 C-35.46266431 22.3310765 -34.55283585 19.30211875 -31 15 C-28.28777878 12.57004615 -25.13244551 10.84568997 -22 9 C-21.30342285 8.58572754 -20.6068457 8.17145508 -19.88916016 7.74462891 C-17.49865084 6.33248632 -15.0956954 4.94424358 -12.6875 3.5625 C-11.50389893 2.86979004 -11.50389893 2.86979004 -10.29638672 2.16308594 C-9.54244629 1.73930664 -8.78850586 1.31552734 -8.01171875 0.87890625 C-7.33584717 0.4929126 -6.65997559 0.10691895 -5.96362305 -0.29077148 C-3.55576783 -1.16044939 -2.36739499 -0.88845102 0 0 Z " fill="#D7D0EA" transform="translate(363,208)"/>
<path d="M0 0 C1.66579913 3.33159827 1.20627229 7.06933815 1.23828125 10.734375 C1.246353 11.60515686 1.25442474 12.47593872 1.26274109 13.37310791 C1.27658507 15.21909594 1.28730582 17.0651096 1.29516602 18.91113281 C1.31234801 21.72510835 1.35622668 24.53789952 1.40039062 27.3515625 C1.4105204 29.1458247 1.41903561 30.94009689 1.42578125 32.734375 C1.44328934 33.57208435 1.46079742 34.4097937 1.47883606 35.27288818 C1.45895906 40.66697811 0.59494767 43.72698422 -3 48 C-5.7421875 50.0546875 -5.7421875 50.0546875 -8.875 51.875 C-9.43437256 52.20234131 -9.99374512 52.52968262 -10.57006836 52.86694336 C-11.75781473 53.55964455 -12.94891076 54.24662991 -14.14306641 54.92822266 C-16.05516643 56.03184073 -17.94009171 57.17358117 -19.82421875 58.32421875 C-21.06979375 59.07117822 -22.31587422 59.81729554 -23.5625 60.5625 C-24.14563965 60.92134277 -24.7287793 61.28018555 -25.32958984 61.64990234 C-29.4399313 64.05329535 -29.4399313 64.05329535 -32.33984375 63.77734375 C-34 63 -34 63 -35 62 C-35.13847156 59.11310678 -35.21320611 56.25191316 -35.23828125 53.36328125 C-35.246353 52.49108444 -35.25442474 51.61888763 -35.26274109 50.72026062 C-35.27660206 48.86829629 -35.28731517 47.0163062 -35.29516602 45.16430664 C-35.31232398 42.34145951 -35.35618434 39.51980012 -35.40039062 36.69726562 C-35.41052208 34.89844612 -35.41903677 33.09961664 -35.42578125 31.30078125 C-35.44328934 30.45993484 -35.46079742 29.61908844 -35.47883606 28.75276184 C-35.45897206 23.3402826 -34.56940883 20.31385562 -31 16 C-25.73898876 11.28651482 -18.81141487 8.1044693 -12.6875 4.625 C-11.50389893 3.9448584 -11.50389893 3.9448584 -10.29638672 3.25097656 C-9.54244629 2.83041992 -8.78850586 2.40986328 -8.01171875 1.9765625 C-7.33584717 1.59580566 -6.65997559 1.21504883 -5.96362305 0.82275391 C-4 0 -4 0 0 0 Z " fill="#D7D1EB" transform="translate(363,151)"/>
<path d="M0 0 C2.13084114 2.13084114 1.21330414 6.90416919 1.23828125 9.85546875 C1.246353 10.7498616 1.25442474 11.64425446 1.26274109 12.56575012 C1.27660227 14.4647934 1.28731528 16.36386181 1.29516602 18.26293945 C1.31232635 21.15820219 1.35618714 24.05230763 1.40039062 26.94726562 C1.41052184 28.79165826 1.4190366 30.63606062 1.42578125 32.48046875 C1.44328934 33.34318893 1.46079742 34.20590912 1.47883606 35.09477234 C1.45930441 40.55035455 0.69208016 43.71173901 -3 48 C-4.87182617 49.51977539 -4.87182617 49.51977539 -6.79296875 50.59765625 C-7.50163086 51.0045166 -8.21029297 51.41137695 -8.94042969 51.83056641 C-9.68196289 52.23710449 -10.42349609 52.64364258 -11.1875 53.0625 C-11.94836914 53.49224121 -12.70923828 53.92198242 -13.49316406 54.36474609 C-14.98952599 55.20824896 -16.48894671 56.04635368 -17.99169922 56.87841797 C-19.65762192 57.80879104 -21.30253103 58.77667521 -22.94140625 59.75390625 C-23.70324219 60.20636719 -24.46507812 60.65882813 -25.25 61.125 C-25.87390625 61.49882812 -26.4978125 61.87265625 -27.140625 62.2578125 C-29.50143124 63.20015112 -31.4825721 63.13021179 -34 63 C-35.63477142 59.73045716 -35.20592625 56.11464122 -35.23828125 52.51953125 C-35.25038887 51.25021004 -35.25038887 51.25021004 -35.26274109 49.95524597 C-35.27658588 48.16053314 -35.28730627 46.36579394 -35.29516602 44.57104492 C-35.31232427 41.84046603 -35.35619894 39.11111531 -35.40039062 36.38085938 C-35.41052259 34.63542555 -35.41903712 32.88998145 -35.42578125 31.14453125 C-35.44328934 30.33385696 -35.46079742 29.52318268 -35.47883606 28.6879425 C-35.45720056 22.96525946 -34.42189631 19.64028257 -31 15 C-28.23852539 12.82836914 -28.23852539 12.82836914 -25.09765625 11.03515625 C-23.96005859 10.38095703 -22.82246094 9.72675781 -21.65039062 9.05273438 C-21.06104736 8.72619873 -20.4717041 8.39966309 -19.86450195 8.06323242 C-18.05864222 7.0603576 -16.27235601 6.02793888 -14.48632812 4.99023438 C-4.71654396 -0.54431794 -4.71654396 -0.54431794 0 0 Z " fill="#D7D1EB" transform="translate(405,127)"/>
<path d="M0 0 C0.78375 0.2475 1.5675 0.495 2.375 0.75 C3.9564044 3.91280879 3.55912406 7.31883569 3.578125 10.79296875 C3.58382507 11.5947908 3.58952515 12.39661285 3.59539795 13.22273254 C3.60485407 14.92329589 3.61138436 16.62387761 3.61523438 18.32446289 C3.62489723 20.91000052 3.65589607 23.4947286 3.6875 26.08007812 C3.69403454 27.73437029 3.69928324 29.38866814 3.703125 31.04296875 C3.7154718 31.80989548 3.7278186 32.5768222 3.74053955 33.36698914 C3.71930625 38.55863762 2.89576346 42.17479479 0.375 46.75 C-1.54174805 48.53735352 -1.54174805 48.53735352 -3.69921875 49.81640625 C-4.89297119 50.5436792 -4.89297119 50.5436792 -6.11083984 51.28564453 C-7.35534912 52.01050049 -7.35534912 52.01050049 -8.625 52.75 C-9.43275879 53.24999512 -10.24051758 53.74999023 -11.07275391 54.26513672 C-13.5098571 55.77136474 -15.96916798 57.23312197 -18.4375 58.6875 C-19.68563477 59.44643555 -19.68563477 59.44643555 -20.95898438 60.22070312 C-22.16458008 60.92936523 -22.16458008 60.92936523 -23.39453125 61.65234375 C-24.11229736 62.08023193 -24.83006348 62.50812012 -25.56958008 62.94897461 C-28.046728 63.9143532 -29.17654493 63.69447534 -31.625 62.75 C-33.75750321 60.61749679 -32.81379155 55.81376413 -32.828125 52.859375 C-32.83382507 51.96261047 -32.83952515 51.06584595 -32.84539795 50.14190674 C-32.8548652 48.23865952 -32.86138874 46.33539578 -32.86523438 44.43212891 C-32.87491316 41.52607315 -32.90590889 38.6207325 -32.9375 35.71484375 C-32.94403249 33.86719171 -32.94928199 32.01953459 -32.953125 30.171875 C-32.9654718 29.30399353 -32.9778186 28.43611206 -32.99053955 27.54193115 C-32.97316313 22.81006403 -32.82927459 19.49907007 -29.625 15.75 C-27.12890625 13.92895508 -27.12890625 13.92895508 -24.1875 12.26953125 C-23.12789062 11.66302734 -22.06828125 11.05652344 -20.9765625 10.43164062 C-19.87054688 9.81482422 -18.76453125 9.19800781 -17.625 8.5625 C-15.43724574 7.31945781 -13.24973457 6.07598765 -11.0625 4.83203125 C-10.09183594 4.28780518 -9.12117188 3.7435791 -8.12109375 3.18286133 C-2.20981388 -0.21045846 -2.20981388 -0.21045846 0 0 Z " fill="#D7D1EB" transform="translate(234.625,280.25)"/>
<path d="M0 0 C2.10285671 2.10285671 1.2129677 6.69621546 1.23828125 9.6015625 C1.246353 10.47138763 1.25442474 11.34121277 1.26274109 12.23739624 C1.27660354 14.08516434 1.28731598 15.93295829 1.29516602 17.78076172 C1.3123027 20.59262694 1.35615899 23.40329315 1.40039062 26.21484375 C1.41052401 28.01040802 1.41903809 29.8059823 1.42578125 31.6015625 C1.44328934 32.43724762 1.46079742 33.27293274 1.47883606 34.13394165 C1.45764302 39.90800452 0.33898141 43.25802386 -3 48 C-5.3671875 49.6015625 -5.3671875 49.6015625 -7.875 50.625 C-11.10643004 52.06642506 -13.24132801 53.20110667 -16 55.5 C-21.25502389 59.87918657 -27.00154116 63.43662399 -34 63 C-35.66579913 59.66840173 -35.20627229 55.93066185 -35.23828125 52.265625 C-35.246353 51.39484314 -35.25442474 50.52406128 -35.26274109 49.62689209 C-35.27658507 47.78090406 -35.28730582 45.9348904 -35.29516602 44.08886719 C-35.31234801 41.27489165 -35.35622668 38.46210048 -35.40039062 35.6484375 C-35.4105204 33.8541753 -35.41903561 32.05990311 -35.42578125 30.265625 C-35.44328934 29.42791565 -35.46079742 28.5902063 -35.47883606 27.72711182 C-35.45898254 22.33939207 -34.62882748 19.2414554 -31 15 C-29.14404297 13.49609375 -29.14404297 13.49609375 -27.2421875 12.4375 C-26.53860107 12.03571533 -25.83501465 11.63393066 -25.11010742 11.2199707 C-24.37252197 10.81738037 -23.63493652 10.41479004 -22.875 10 C-21.34725985 9.14002674 -19.81991438 8.27935196 -18.29296875 7.41796875 C-17.5561084 7.00724121 -16.81924805 6.59651367 -16.06005859 6.17333984 C-12.612985 4.21000307 -9.29563005 2.04013938 -5.98046875 -0.13671875 C-3.53776937 -1.20148515 -2.44496875 -0.95995519 0 0 Z " fill="#D7D1EA" transform="translate(321,232)"/>
<path d="M0 0 C1.60830775 3.21661551 1.18432249 6.72709198 1.203125 10.26171875 C1.20882507 11.08573685 1.21452515 11.90975494 1.22039795 12.75874329 C1.22985454 14.50638544 1.23638454 16.25404548 1.24023438 18.00170898 C1.24989879 20.65966574 1.28089804 23.31683555 1.3125 25.97460938 C1.31903436 27.67447459 1.32428313 29.37434532 1.328125 31.07421875 C1.3404718 31.86301926 1.3528186 32.65181976 1.36553955 33.46452332 C1.344666 38.70746223 0.48515672 42.35512816 -2 47 C-4.48828125 48.8203125 -4.48828125 48.8203125 -7.3125 50.125 C-10.61963523 51.75911388 -13.14700744 53.1225062 -16 55.5 C-20.22267935 59.01889946 -24.88768018 61.94580503 -30 64 C-32.2004152 63.73534525 -33.42789228 63.57210772 -35 62 C-35.13851404 59.04038492 -35.21321937 56.10584728 -35.23828125 53.14453125 C-35.246353 52.2501384 -35.25442474 51.35574554 -35.26274109 50.43424988 C-35.27660227 48.5352066 -35.28731528 46.63613819 -35.29516602 44.73706055 C-35.31232635 41.84179781 -35.35618714 38.94769237 -35.40039062 36.05273438 C-35.41052184 34.20834174 -35.4190366 32.36393938 -35.42578125 30.51953125 C-35.44328934 29.65681107 -35.46079742 28.79409088 -35.47883606 27.90522766 C-35.45931472 22.4525241 -34.75123542 19.23881 -31 15 C-28.23852539 12.94189453 -28.23852539 12.94189453 -25.09765625 11.1328125 C-23.96005859 10.47539062 -22.82246094 9.81796875 -21.65039062 9.140625 C-21.06104736 8.80998047 -20.4717041 8.47933594 -19.86450195 8.13867188 C-18.060522 7.12388733 -16.27330143 6.08344531 -14.48632812 5.0390625 C-4.87971526 -0.44111055 -4.87971526 -0.44111055 0 0 Z " fill="#D7D1EA" transform="translate(279,256)"/>
<path d="M0 0 C2.13084114 2.13084114 1.21330414 6.90416919 1.23828125 9.85546875 C1.246353 10.7498616 1.25442474 11.64425446 1.26274109 12.56575012 C1.27660227 14.4647934 1.28731528 16.36386181 1.29516602 18.26293945 C1.31232635 21.15820219 1.35618714 24.05230763 1.40039062 26.94726562 C1.41052184 28.79165826 1.4190366 30.63606062 1.42578125 32.48046875 C1.44328934 33.34318893 1.46079742 34.20590912 1.47883606 35.09477234 C1.45930472 40.55026785 0.66146229 43.68597064 -3 48 C-5.33203125 49.46875 -5.33203125 49.46875 -7.8125 50.5 C-11.17088626 52.02965914 -13.79854984 53.48463548 -16.5 56 C-20.41902878 59.58390993 -24.95686333 62.30205951 -30 64 C-32.23828125 63.75390625 -32.23828125 63.75390625 -34 63 C-35.63908061 59.72183878 -35.20596251 56.089181 -35.23828125 52.484375 C-35.246353 51.63578918 -35.25442474 50.78720337 -35.26274109 49.91290283 C-35.27658441 48.11399378 -35.28730546 46.31505843 -35.29516602 44.51611328 C-35.31234614 41.77455272 -35.35622484 39.03420844 -35.40039062 36.29296875 C-35.41052061 34.54427969 -35.41903575 32.79558039 -35.42578125 31.046875 C-35.44328934 30.23103943 -35.46079742 29.41520386 -35.47883606 28.574646 C-35.45864472 23.2334282 -34.50737646 20.2611295 -31 16 C-28.27113606 13.60392434 -25.10770089 11.87033772 -22 10 C-21.34112793 9.59104492 -20.68225586 9.18208984 -20.00341797 8.76074219 C-17.76036164 7.36850033 -15.50689417 5.99468138 -13.25 4.625 C-12.51692627 4.17157227 -11.78385254 3.71814453 -11.02856445 3.25097656 C-4.32778463 -0.74332179 -4.32778463 -0.74332179 0 0 Z " fill="#D7D1EA" transform="translate(405,183)"/>
<path d="M0 0 C1.62109375 1.08203125 1.62109375 1.08203125 3 3 C5.75113515 21.34090102 -1.32987958 41.80820179 -11.89453125 56.6640625 C-14.77010993 60.10974501 -17.73444175 63.40041566 -22 65 C-25.625 65 -25.625 65 -29 64 C-33.06940032 58.61819448 -32.67383732 53.47469776 -32 47 C-30.92410528 41.91587003 -29.51208171 36.96981695 -28 32 C-27.69191406 30.95199219 -27.38382812 29.90398437 -27.06640625 28.82421875 C-26.39248561 26.54449676 -25.70510588 24.27022727 -25 22 C-26.98 22.99 -26.98 22.99 -29 24 C-24.9548131 14.7659608 -11.20187426 -1.43613773 0 0 Z " fill="#D7CFE9" transform="translate(319,286)"/>
<path d="M0 0 C4.49450068 4.49450068 4.40828551 9.93058777 4.453125 15.98461914 C4.02096912 34.96415737 -4.90958163 58.30691932 -18.6640625 71.609375 C-22.89076766 75.31554997 -26.35590801 76.40740416 -31.99609375 76.35546875 C-35.4250568 75.74721215 -36.95649153 73.66275346 -39 71 C-43.18407609 58.44777172 -37.58206176 43.21450791 -34 31 C-34.99 31.66 -35.98 32.32 -37 33 C-37.71484375 31.32421875 -37.71484375 31.32421875 -38 29 C-31.54522815 17.32256375 -15.17069727 -4.29359357 0 0 Z M-25 18 C-27.1396165 20.5789628 -29.11951402 23.22720499 -31 26 C-30.34 26.33 -29.68 26.66 -29 27 C-29.176521 27.6705542 -29.35304199 28.3411084 -29.53491211 29.03198242 C-30.33728499 32.0834268 -31.13741389 35.13545527 -31.9375 38.1875 C-32.35418945 39.77014648 -32.35418945 39.77014648 -32.77929688 41.38476562 C-33.18051758 42.91713867 -33.18051758 42.91713867 -33.58984375 44.48046875 C-33.83597412 45.41785889 -34.08210449 46.35524902 -34.33569336 47.32104492 C-35.97931896 53.94930797 -37.26102062 59.9845159 -34.5625 66.4375 C-33.23099846 68.84753488 -33.23099846 68.84753488 -32 70 C-28.07610119 70.38469596 -25.5798407 70.27784034 -22 68.5625 C-8.27407223 56.83827003 -1.22700197 35.87211011 0.2265625 18.25390625 C0.38324921 13.46071727 0.44828453 9.68609726 -3 6 C-10.59904933 2.09191749 -20.11839589 13.08243563 -25 18 Z " fill="#FD5060" transform="translate(407,232)"/>
<path d="M0 0 C4.2101884 3.88632775 5.13816203 7.89002604 5.375 13.4375 C5.14777894 32.32209458 -2.83899942 56.41941293 -16.078125 70.15625 C-20.03086196 73.72835303 -23.53159605 76.6848846 -28.9375 77.375 C-32.78465622 76.90391965 -34.28305891 75.71694109 -37 73 C-41.71944485 65.44228762 -39.05013391 54.9528733 -37.25 46.75 C-35.79516018 40.48797709 -34.17702847 34.63666342 -31 29 C-30.01 28.67 -29.02 28.34 -28 28 C-28.53581769 32.66222974 -29.495181 36.92391035 -30.8671875 41.40771484 C-33.20869535 49.08503238 -35.58931882 56.92096264 -34 65 C-32.81166007 67.32117015 -32.81166007 67.32117015 -31 69 C-27.16474638 69.63920894 -24.7137087 69.81959981 -21.203125 68.140625 C-10.08439197 59.87808027 -3.82001222 41.72126289 -1.34765625 28.515625 C-0.95579463 24.55297938 -0.85287664 20.66601674 -0.875 16.6875 C-0.87113281 15.97271484 -0.86726563 15.25792969 -0.86328125 14.52148438 C-0.80184467 10.63288454 -0.80184467 10.63288454 -2 7 C-6.53098797 6.4336265 -9.07419536 6.66453879 -12.8125 9.375 C-21.23926831 16.3185267 -28.39874698 24.3335505 -35 33 C-35.66 32.67 -36.32 32.34 -37 32 C-36.56603721 27.11791859 -34.13540718 24.28592881 -31 20.75 C-30.5052417 20.18152344 -30.0104834 19.61304688 -29.50073242 19.02734375 C-11.15183122 -1.85863854 -11.15183122 -1.85863854 0 0 Z " fill="#FD505F" transform="translate(364,256)"/>
<path d="M0 0 C3.03276605 2.79737085 4.24854644 5.00421416 4.53125 9.046875 C4.54851189 10.6145229 4.53653383 12.1826828 4.5 13.75 C4.48078491 15.00756104 4.48078491 15.00756104 4.46118164 16.29052734 C3.8411476 35.82619933 -3.22294191 57.18073023 -17.1796875 71.1875 C-21.20376795 74.84307491 -23.81621523 76.75735725 -29.375 77.375 C-33 77 -33 77 -35.875 74.625 C-40.33388425 69.11696651 -39.62140983 62.83242417 -39 56 C-37.66137678 47.52922096 -35.40477367 39.2217262 -33 31 C-33.33 31.66 -33.66 32.32 -34 33 C-34.99 33 -35.98 33 -37 33 C-36.61644621 27.56496124 -34.47363353 24.54744863 -30.9375 20.625 C-30.43871338 20.05773193 -29.93992676 19.49046387 -29.42602539 18.90600586 C-27.96471486 17.25736588 -26.48536805 15.62695516 -25 14 C-24.2884375 13.20464844 -23.576875 12.40929687 -22.84375 11.58984375 C-17.03793788 5.41521979 -9.04278125 -1.98941188 0 0 Z M-32 28 C-31.67 28.66 -31.34 29.32 -31 30 C-30.01 29.34 -29.02 28.68 -28 28 C-28.50660156 29.57587891 -28.50660156 29.57587891 -29.0234375 31.18359375 C-35.71047075 49.36896418 -35.71047075 49.36896418 -33.6875 67.79296875 C-32.08875229 70.31915713 -32.08875229 70.31915713 -28.6875 71.0625 C-22.70010717 70.96101877 -19.58051533 67.78605461 -15.5625 63.6875 C-3.99392669 49.79499695 0.6113447 29.80674316 0.46875 12.125 C0.22383031 9.06852737 0.22383031 9.06852737 -1.21875 7.0625 C-11.76989781 0.76883289 -26.56696983 20.99658348 -32 28 Z " fill="#FD4F5F" transform="translate(322,280)"/>
<path d="M0 0 C2.30275556 1.8670991 3.67823871 3.35647741 5 6 C6.46226295 27.69422908 1.18190383 50.9817154 -13 68 C-17.43939954 72.98078973 -21.72272977 77.1551529 -28.625 77.5625 C-32.16433265 77.40757972 -32.77448009 77.20860592 -35.5 74.6875 C-41.18888828 64.4949085 -37.84736996 51.90655161 -34.86669922 41.34765625 C-34.44193069 39.88323375 -34.01136744 38.42046721 -33.57250977 36.96020508 C-32.99543946 34.98438525 -32.48662455 32.99982309 -32 31 C-32.33 31.66 -32.66 32.32 -33 33 C-33.99 33 -34.98 33 -36 33 C-35.51320868 28.30594087 -33.36491124 25.33486386 -30.5 21.75 C-29.82614258 20.89619751 -29.82614258 20.89619751 -29.13867188 20.02514648 C-10.98741916 -2.61605218 -10.98741916 -2.61605218 0 0 Z M-30 27 C-29.67 27.66 -29.34 28.32 -29 29 C-27.63813173 33.08560482 -29.04135024 35.90022425 -30.375 39.8125 C-33.43738662 48.9407678 -36.83100441 60.11151082 -32.4375 69.25 C-29.02764598 71.69810032 -27.11884703 71.63913144 -23 71 C-12.55233197 66.21148549 -7.67231283 53.24526287 -3.76367188 43.10107422 C0.15178166 32.32857004 2.28165152 21.49015494 1 10 C0.34 9.01 -0.32 8.02 -1 7 C-13.19113223 4.86120487 -23.32548543 18.10064723 -30 27 Z " fill="#FD4F5F" transform="translate(279,304)"/>
<path d="M0 0 C0.66 0.33 1.32 0.66 2 1 C1.67386719 1.69222656 1.34773438 2.38445312 1.01171875 3.09765625 C-2.66012098 11.31867794 -4.51585258 19.16751292 -6 28 C-6.66 28 -7.32 28 -8 28 C-7.34 20.08 -6.68 12.16 -6 4 C-4.68 3.67 -3.36 3.34 -2 3 C-1.34 2.01 -0.68 1.02 0 0 Z " fill="#F0BECC" transform="translate(332,284)"/>
<path d="M0 0 C0.33 0.66 0.66 1.32 1 2 C-0.7325 2.5878125 -0.7325 2.5878125 -2.5 3.1875 C-6.50548953 4.66283155 -9.83745526 6.68413233 -13.3359375 9.109375 C-13.88507813 9.40328125 -14.43421875 9.6971875 -15 10 C-15.66 9.67 -16.32 9.34 -17 9 C-15.75482035 7.86966702 -14.50363348 6.74594964 -13.25 5.625 C-12.55390625 4.99851562 -11.8578125 4.37203125 -11.140625 3.7265625 C-7.38758331 0.69947413 -4.83049779 -0.26836099 0 0 Z " fill="#FAEFF4" transform="translate(319,286)"/>
<path d="M0 0 C0.33 0 0.66 0 1 0 C1.20767256 5.08797784 0.93209735 9.25757922 -1 14 C-2.87435003 15.97903447 -4.76750538 17.39842777 -7 19 C-5.58632741 14.65328707 -4.02739359 10.3864361 -2.375 6.125 C-1.92898438 4.97257812 -1.48296875 3.82015625 -1.0234375 2.6328125 C-0.68570312 1.76398438 -0.34796875 0.89515625 0 0 Z " fill="#DDCBE2" transform="translate(406,270)"/>
<path d="M0 0 C0.33 0 0.66 0 1 0 C1.38628493 4.82856166 1.45837619 8.11485977 -0.8125 12.5 C-3 15 -3 15 -6 16 C-4.27933894 10.55123997 -2.15294651 5.28830549 0 0 Z " fill="#DBC7E0" transform="translate(279,345)"/>
<path d="M0 0 C-3.16048777 2.10699184 -6.34946495 4.16212147 -9.5625 6.1875 C-10.15224609 6.56841797 -10.74199219 6.94933594 -11.34960938 7.34179688 C-12.86245426 8.29012171 -14.4284544 9.15249538 -16 10 C-16.66 9.67 -17.32 9.34 -18 9 C-16.73113036 7.87278564 -15.45982438 6.74831342 -14.1875 5.625 C-13.47980469 4.99851562 -12.77210938 4.37203125 -12.04296875 3.7265625 C-7.8148654 0.15328969 -5.47455505 -0.20658698 0 0 Z " fill="#FAF0F4" transform="translate(277,311)"/>
<path d="M0 0 C0.33 0 0.66 0 1 0 C1.28951652 5.59731932 1.18452849 9.1683016 -2 14 C-4.6875 16.375 -4.6875 16.375 -7 18 C-5.64474464 13.78224268 -4.09799886 9.70578678 -2.375 5.625 C-1.92898438 4.56539063 -1.48296875 3.50578125 -1.0234375 2.4140625 C-0.68570312 1.61742187 -0.34796875 0.82078125 0 0 Z " fill="#DDC8DF" transform="translate(363,297)"/>
<path d="M0 0 C-3.1198191 2.39531135 -6.33073142 4.60117791 -9.625 6.75 C-10.58664062 7.38421875 -11.54828125 8.0184375 -12.5390625 8.671875 C-13.35117187 9.11015625 -14.16328125 9.5484375 -15 10 C-15.66 9.67 -16.32 9.34 -17 9 C-15.54405245 7.68485396 -14.08516421 6.37296283 -12.625 5.0625 C-11.81289063 4.33160156 -11.00078125 3.60070312 -10.1640625 2.84765625 C-6.65571513 -0.1477378 -4.54770683 -0.09886319 0 0 Z " fill="#FBF1F4" transform="translate(361,262)"/>
<path d="M0 0 C-2.80078034 1.86718689 -5.62725376 3.54204238 -8.5625 5.1875 C-9.53316406 5.73792969 -10.50382812 6.28835937 -11.50390625 6.85546875 C-12.32761719 7.23316406 -13.15132813 7.61085937 -14 8 C-14.66 7.67 -15.32 7.34 -16 7 C-14.92130607 6.03644756 -13.83681257 5.07938583 -12.75 4.125 C-11.84507812 3.32449219 -11.84507812 3.32449219 -10.921875 2.5078125 C-7.00865197 -0.56231776 -4.86469308 -1.35130363 0 0 Z " fill="#FBECF0" transform="translate(404,238)"/>
<path d="M0 0 C0.33 0 0.66 0 1 0 C1.4501614 6.41479997 0.76280927 9.73206703 -3 15 C-3.99 15.33 -4.98 15.66 -6 16 C-4.27933894 10.55123997 -2.15294651 5.28830549 0 0 Z " fill="#DBC7DF" transform="translate(321,321)"/>
<path d="M0 0 C0.33 0.66 0.66 1.32 1 2 C0.2578125 4.20703125 0.2578125 4.20703125 -0.875 6.8125 C-2.3455877 10.21130585 -3.3829229 13.34348995 -4 17 C-4.33 17 -4.66 17 -5 17 C-5 12.71 -5 8.42 -5 4 C-4.01 4 -3.02 4 -2 4 C-1.34 2.68 -0.68 1.36 0 0 Z " fill="#E3C1D5" transform="translate(248,333)"/>
<path d="M0 0 C0.66 0.33 1.32 0.66 2 1 C-0.88406243 4.40843742 -2.3708265 5.86591384 -6.8125 6.8125 C-8.3903125 6.9053125 -8.3903125 6.9053125 -10 7 C-7.20283196 3.70921407 -3.80471422 1.93694542 0 0 Z " fill="#F5E7F0" transform="translate(261,368)"/>
<path d="M0 0 C0.66 0.33 1.32 0.66 2 1 C-2.30972626 5.09949571 -4.85310727 6.63118644 -11 7 C-7.54143152 4.05004453 -4.19978515 1.77324262 0 0 Z " fill="#F5EAF2" transform="translate(388,295)"/>
<path d="M0 0 C0.66 0.33 1.32 0.66 2 1 C-4.07439825 6.88183807 -4.07439825 6.88183807 -7.9375 7.375 C-8.618125 7.25125 -9.29875 7.1275 -10 7 C-7.20283196 3.70921407 -3.80471422 1.93694542 0 0 Z " fill="#F5EAF3" transform="translate(346,319)"/>
<path d="M0 0 C0.66 0.33 1.32 0.66 2 1 C-4.07439825 6.88183807 -4.07439825 6.88183807 -7.9375 7.375 C-8.618125 7.25125 -9.29875 7.1275 -10 7 C-6.81404865 4.36021174 -3.69029454 1.89501612 0 0 Z " fill="#F4EEF7" transform="translate(304,343)"/>
<path d="M0 0 C1.13643966 3.40931897 0.86747764 4.00335456 -0.4375 7.1875 C-0.86869141 8.26064453 -0.86869141 8.26064453 -1.30859375 9.35546875 C-1.53675781 9.89816406 -1.76492188 10.44085938 -2 11 C-2.33 11 -2.66 11 -3 11 C-3 8.36 -3 5.72 -3 3 C-2.34 3 -1.68 3 -1 3 C-0.67 2.01 -0.34 1.02 0 0 Z " fill="#DAC3DC" transform="translate(289,310)"/>
<path d="M0 0 C1 2 1 2 0.44140625 4.1640625 C0.15136719 4.97617187 -0.13867188 5.78828125 -0.4375 6.625 C-0.72496094 7.44226563 -1.01242187 8.25953125 -1.30859375 9.1015625 C-1.53675781 9.72804688 -1.76492188 10.35453125 -2 11 C-2.33 11 -2.66 11 -3 11 C-3.36923077 3.49230769 -3.36923077 3.49230769 -1.5 1 C-1.005 0.67 -0.51 0.34 0 0 Z " fill="#D9C9E2" transform="translate(373,262)"/>
</svg>
