<?xml version="1.0" encoding="UTF-8"?>
<svg version="1.1" xmlns="http://www.w3.org/2000/svg" width="512" height="512">
<path d="M0 0 C1.89309646 0.89462472 3.64870953 1.90052774 5.43457031 2.99243164 C6.34432617 3.50193359 6.34432617 3.50193359 7.27246094 4.02172852 C11.13458061 6.29481325 13.15182359 8.31643865 15.12207031 12.30493164 C15.50107783 14.88159305 15.50107783 14.88159305 15.50683117 17.68346882 C15.51628771 18.75585971 15.52574425 19.8282506 15.53548735 20.93313819 C15.53063978 22.10531321 15.5257922 23.27748824 15.52079773 24.48518372 C15.52744456 25.73493931 15.53409138 26.9846949 15.54093963 28.27232188 C15.55897481 31.73856455 15.55840672 35.20459308 15.55481017 38.67087162 C15.5541867 42.40977691 15.57080275 46.14861011 15.58532715 49.88748169 C15.60812768 56.36443934 15.62000076 62.84134315 15.62445641 69.31833839 C15.6309143 78.68297634 15.65384532 88.04751692 15.6807997 97.41211566 C15.72408362 112.60545925 15.75404121 127.79879874 15.77563477 142.9921875 C15.79663965 157.75132257 15.82391045 172.51042411 15.85961914 187.26953125 C15.86181797 188.17925128 15.86401679 189.08897132 15.86628225 190.02625863 C15.87735178 194.59004744 15.88854461 199.15383594 15.89979875 203.71762431 C15.99300658 241.58003115 16.06459402 279.44245454 16.12207031 317.30493164 C16.31268416 316.75730472 16.503298 316.20967781 16.69968802 315.64545614 C17.57842471 313.13942139 18.47216478 310.63898827 19.3662262 308.13838196 C19.66579428 307.2768742 19.96536237 306.41536645 20.27400827 305.5277524 C22.90125791 298.23505668 26.43607448 293.57329342 32.12207031 288.30493164 C33.13180053 287.28982184 34.13561482 286.26880519 35.134552 285.24307251 C38.60028615 281.68635046 42.11122925 278.17641513 45.62597656 274.66821289 C46.91688844 273.37662549 48.207652 272.08488984 49.49827576 270.79301453 C52.18692868 268.10289738 54.87735592 265.4145713 57.5690918 262.72753906 C61.00064888 259.30169003 64.42768004 255.87135413 67.85339451 252.43966389 C70.51201488 249.77741314 73.17303313 247.11756939 75.83476067 244.45842552 C77.09883723 243.19501079 78.362186 241.93086739 79.62475777 240.66594887 C91.5095672 228.76388649 91.5095672 228.76388649 97.55490112 223.64505005 C100.0577513 221.50481171 102.35933969 219.19959291 104.68457031 216.86743164 C105.15362793 216.39716553 105.62268555 215.92689941 106.10595703 215.44238281 C108.76478027 212.75381371 111.30134579 210.00009535 113.74707031 207.11743164 C119.68017619 200.25419515 125.07937482 195.41899778 133.70019531 192.43383789 C137.35467236 190.73038004 139.67410103 188.05906333 142.39160156 185.14086914 C146.09692064 181.20971798 149.66332704 179.73185556 155.06738281 179.24243164 C159.92335885 179.39014194 163.23066222 181.36660734 166.49707031 184.80493164 C169.23929101 189.02373271 169.45827657 192.34588939 169.12207031 197.30493164 C167.16637726 202.05630395 164.62133556 205.1368066 160.93457031 208.67993164 C160.03351563 209.55391602 159.13246094 210.42790039 158.20410156 211.32836914 C157.51703125 211.98063477 156.82996094 212.63290039 156.12207031 213.30493164 C157.32991958 215.88459161 158.40278475 217.62574814 160.30957031 219.80493164 C162.12207031 222.30493164 162.12207031 222.30493164 162.07223511 224.10003662 C160.65625334 227.38587838 158.23820753 229.60547774 155.73193359 232.08325195 C155.17089935 232.64954315 154.60986511 233.21583435 154.03182983 233.79928589 C152.17615592 235.668159 150.30972811 237.5258506 148.44238281 239.38305664 C147.15018482 240.67727509 145.85843248 241.97193864 144.56710815 243.26702881 C141.85997708 245.97858291 139.14749303 248.68463565 136.43115234 251.38696289 C132.9448461 254.85616042 129.47220222 258.33867348 126.00343513 261.82539749 C123.33919243 264.50046389 120.66786651 267.16836438 117.99431992 269.83412933 C116.71065703 271.11578719 115.42922936 272.39968771 114.15005875 273.68582916 C112.364183 275.47929778 110.56901861 277.26291004 108.77099609 279.04418945 C108.24101013 279.58024811 107.71102417 280.11630676 107.16497803 280.66860962 C103.46486754 284.30493164 103.46486754 284.30493164 100.12207031 284.30493164 C99.73535156 282.21899414 99.73535156 282.21899414 100.12207031 279.30493164 C101.91128549 276.81645648 104.08700975 274.7802154 106.30957031 272.67993164 C107.17678711 271.82141602 107.17678711 271.82141602 108.06152344 270.94555664 C110.45506309 268.6196311 112.60648111 266.60248011 115.51269531 264.92529297 C118.51159864 263.06304359 120.72405194 260.92869257 123.20410156 258.41821289 C123.66314377 257.95634079 124.12218597 257.49446869 124.59513855 257.01860046 C126.04641945 255.55621026 127.49055236 254.08699038 128.93457031 252.61743164 C129.92303678 251.61892341 130.91196468 250.62087175 131.90136719 249.62329102 C134.31284305 247.18828856 136.71951988 244.74873574 139.12207031 242.30493164 C137.63707031 240.81993164 137.63707031 240.81993164 136.12207031 239.30493164 C135.69745294 239.73415798 135.27283556 240.16338432 134.83535099 240.60561752 C124.48195446 251.06964394 114.11456836 261.51966336 103.73165989 271.95440292 C98.71079619 277.0010008 93.6946931 282.05216254 88.68969727 287.11450195 C84.32512589 291.52905523 79.95170814 295.93461958 75.567635 300.32980943 C73.24856704 302.65537123 70.93541342 304.9863468 68.63009834 307.32555389 C66.04989638 309.9421626 63.45435188 312.54259001 60.85473633 315.13989258 C60.10163177 315.91097351 59.34852722 316.68205444 58.57260132 317.47650146 C53.81929655 322.18437691 49.40407661 325.027639 43.12207031 327.30493164 C42.00775635 327.75771484 40.89344238 328.21049805 39.74536133 328.67700195 C36.39307244 329.97310488 33.04014307 331.2673499 29.68457031 332.55493164 C28.50185547 333.01383789 27.31914062 333.47274414 26.10058594 333.94555664 C24.97458984 334.37868164 23.84859375 334.81180664 22.68847656 335.25805664 C21.15622437 335.84828613 21.15622437 335.84828613 19.59301758 336.45043945 C17.12207031 337.30493164 17.12207031 337.30493164 15.12207031 337.30493164 C15.14301758 338.54992432 15.16396484 339.79491699 15.18554688 341.07763672 C15.2585133 345.7423938 15.30407419 350.40710151 15.34179688 355.07226562 C15.36178424 357.08276889 15.38898357 359.09321497 15.42382812 361.10351562 C15.86978097 387.51310514 15.86978097 387.51310514 5.55859375 398.21411133 C0.9069725 402.20574303 -4.38122093 405.03420347 -9.75292969 407.92993164 C-10.99730734 408.61805756 -12.24061582 409.30812008 -13.48291016 410 C-16.03219094 411.41837422 -18.58538815 412.82926944 -21.14160156 414.23510742 C-26.80977284 417.36268292 -32.40389854 420.61823077 -38.00292969 423.86743164 C-40.15114473 425.10870213 -42.29958232 426.34958755 -44.44824219 427.59008789 C-45.50817383 428.20255371 -46.56810547 428.81501953 -47.66015625 429.44604492 C-53.06463614 432.56817769 -58.47140381 435.68634368 -63.87792969 438.80493164 C-66.04460719 440.05491286 -68.21127386 441.30491285 -70.37792969 442.55493164 C-83.37792968 450.05493164 -83.37792968 450.05493164 -86.62841797 451.93017578 C-88.79350039 453.17928682 -90.95853951 454.42847293 -93.12353516 455.67773438 C-98.56408675 458.81695473 -104.00540184 461.95483727 -109.44824219 465.09008789 C-119.89999278 471.11240556 -130.34083971 477.15176995 -140.75292969 483.24243164 C-149.74563091 488.50042206 -158.77061596 493.69979802 -167.81542969 498.86743164 C-168.40652527 499.20531708 -168.99762085 499.54320251 -169.60662842 499.8913269 C-172.37272251 501.47188992 -175.14078185 503.0488617 -177.91162109 504.62109375 C-179.79743694 505.69158526 -181.68028523 506.7673345 -183.55908203 507.85009766 C-184.35137207 508.3018335 -185.14366211 508.75356934 -185.95996094 509.21899414 C-186.63389893 509.60651855 -187.30783691 509.99404297 -188.00219727 510.39331055 C-191.50259127 512.09453028 -194.2329075 512.39290622 -197.87792969 511.30493164 C-212.30881625 504.01227196 -212.30881625 504.01227196 -214.87792969 496.30493164 C-214.97385721 494.29380187 -215.008882 492.27958792 -215.01215076 490.26617432 C-215.01660861 488.99554547 -215.02106645 487.72491663 -215.02565938 486.41578388 C-215.02557008 484.99764823 -215.02538022 483.57951258 -215.02510071 482.16137695 C-215.02839927 480.6610743 -215.03212482 479.16077254 -215.03624219 477.66047192 C-215.04627152 473.52691093 -215.04998049 469.39336447 -215.0526315 465.25979304 C-215.05653188 460.80559975 -215.06611052 456.35141799 -215.07484436 451.89723206 C-215.09461811 441.13378391 -215.10467693 430.37033481 -215.11357215 419.60687304 C-215.11795427 414.53864512 -215.12332134 409.47041825 -215.12856102 404.40219116 C-215.14557554 387.55419634 -215.16006917 370.70620217 -215.16730976 353.85820007 C-215.16921968 349.48481241 -215.17114 345.11142475 -215.1730957 340.73803711 C-215.17357944 339.65104464 -215.17406318 338.56405216 -215.17456158 337.44412053 C-215.18285979 319.84012511 -215.20819218 302.23619769 -215.24067638 284.63223195 C-215.27375315 266.55979417 -215.29175915 248.48739093 -215.294954 230.41492271 C-215.29711871 220.26749838 -215.30586153 210.12017315 -215.33141518 199.97277832 C-215.35313073 191.32946369 -215.36116843 182.68627222 -215.35144839 174.0429334 C-215.34690595 169.63447343 -215.34878659 165.22626755 -215.36820984 160.81784248 C-215.38585869 156.77715176 -215.38483001 152.73690016 -215.36931255 148.69620466 C-215.36693905 147.23917155 -215.37124662 145.7821079 -215.3831412 144.3251214 C-215.46770374 133.27711273 -214.08862462 122.96122989 -206.83496094 114.17211914 C-203.07942735 110.58899528 -198.67390512 108.14758198 -194.17431641 105.60571289 C-191.49278917 104.08676997 -188.8280005 102.54033437 -186.16308594 100.99243164 C-181.14447807 98.08168553 -176.11754066 95.18578332 -171.08627319 92.29698181 C-165.0115848 88.80870275 -158.94465515 85.30703455 -152.87792969 81.80493164 C-150.71129828 80.55487052 -148.54463155 79.30487064 -146.37792969 78.05493164 C-145.30542969 77.43618164 -144.23292969 76.81743164 -143.12792969 76.17993164 C-113.87792969 59.30493164 -84.62792969 42.42993164 -55.37792969 25.55493164 C-53.76700439 24.6249939 -53.76700439 24.6249939 -52.12353516 23.67626953 C-49.97281775 22.43621771 -47.82081295 21.19839584 -45.66748047 19.96289062 C-40.600308 17.05193723 -35.5489436 14.12059336 -30.54193115 11.10745239 C-28.18553272 9.69128407 -25.82161904 8.28793864 -23.45703125 6.88549805 C-21.7981961 5.89447476 -20.15037136 4.8850942 -18.50292969 3.87524414 C-7.35254313 -2.72135859 -7.35254313 -2.72135859 0 0 Z " fill="#F4F2F9" transform="translate(278.8779296875,0.695068359375)"/>
<path d="M0 0 C2.96875 1.3125 2.96875 1.3125 5.5 3 C6.3559375 3.556875 7.211875 4.11375 8.09375 4.6875 C8.7228125 5.120625 9.351875 5.55375 10 6 C9.44352783 6.27392578 8.88705566 6.54785156 8.3137207 6.83007812 C-10.8428089 16.51648626 -29.39097538 27.58236208 -47.90234375 38.43359375 C-54.25046615 42.15334912 -60.62362113 45.82895249 -67 49.5 C-75.34809759 54.30832078 -83.68243316 59.1390576 -92 64 C-103.55005358 70.74878398 -115.13485913 77.43634997 -126.7265625 84.11328125 C-129.9647516 85.9796838 -133.20139438 87.84873763 -136.4375 89.71875 C-137.50000977 90.33250488 -138.56251953 90.94625977 -139.65722656 91.57861328 C-141.79485931 92.81350977 -143.93223106 94.04885817 -146.06933594 95.28466797 C-151.89071651 98.64627306 -157.72555725 101.98218413 -163.578125 105.2890625 C-165.47801735 106.36517376 -167.37772271 107.44161452 -169.27740479 108.51809692 C-171.07052292 109.53170536 -172.86695688 110.53924208 -174.66357422 111.54663086 C-186.9371111 118.07691858 -186.9371111 118.07691858 -195.4375 128.625 C-195.91058594 129.54539063 -196.38367188 130.46578125 -196.87109375 131.4140625 C-198.7807198 135.78836162 -199.12604627 139.41148172 -199.13142776 144.18859577 C-199.13526891 145.46716585 -199.13911005 146.74573594 -199.1430676 148.06305057 C-199.14228735 149.48493029 -199.14140857 150.90680997 -199.14044189 152.32868958 C-199.14302548 153.83683065 -199.14603862 155.34497105 -199.1494453 156.85311049 C-199.15751923 161.00353825 -199.15930509 165.15394872 -199.16004276 169.3043834 C-199.16189261 173.77824946 -199.16943956 178.25210653 -199.17617798 182.72596741 C-199.18976419 192.51101122 -199.19578635 202.29605094 -199.20018864 212.08110261 C-199.20295033 218.1892539 -199.20718753 224.2974036 -199.21169281 230.40555382 C-199.22388539 247.31278922 -199.23418503 264.22002336 -199.2375679 281.12726307 C-199.23778747 282.20950737 -199.23800703 283.29175167 -199.23823325 284.40679125 C-199.23845153 285.4916416 -199.23866981 286.57649195 -199.2388947 287.69421655 C-199.23933817 289.89257991 -199.23978473 292.09094328 -199.24023438 294.28930664 C-199.2404558 295.37977347 -199.24067723 296.4702403 -199.24090537 297.59375157 C-199.24485447 315.26827069 -199.26231195 332.9427486 -199.2855939 350.61725179 C-199.30929678 368.75750294 -199.32176925 386.8977334 -199.32293582 405.03800029 C-199.32385313 415.22550398 -199.3296196 425.41295397 -199.34775543 435.60044289 C-199.36314201 444.27421058 -199.36828538 452.94790799 -199.36001733 461.62168673 C-199.35610583 466.04784211 -199.35706479 470.47385587 -199.37107468 474.8999939 C-199.38378347 478.95209293 -199.38264278 483.0039435 -199.37048396 487.05604204 C-199.36852173 488.52171936 -199.37162969 489.9874141 -199.38032833 491.45306692 C-199.51894464 501.64678762 -199.51894464 501.64678762 -196 511 C-199.44942395 509.70798962 -202.52093942 508.23403872 -205.625 506.25 C-206.38039063 505.78078125 -207.13578125 505.3115625 -207.9140625 504.828125 C-211.33822008 501.82717791 -212.82523751 498.42373942 -213.37719816 493.92707568 C-213.37822729 492.82653344 -213.37925642 491.7259912 -213.38031673 490.59209919 C-213.38875668 489.3154972 -213.39719662 488.03889521 -213.40589231 486.72360831 C-213.40009753 485.3142983 -213.39401653 483.90498944 -213.38768005 482.49568176 C-213.39185384 480.99278687 -213.3973316 479.48989512 -213.40399987 477.98700923 C-213.41846805 473.86016483 -213.41420544 469.73351992 -213.40683305 465.60666454 C-213.40210692 461.15455614 -213.41460649 456.70249123 -213.42485046 452.25039673 C-213.44205625 443.5285115 -213.44287458 434.80669826 -213.43763756 426.08480046 C-213.43359699 418.9940688 -213.43503809 411.90335843 -213.44038582 404.81262779 C-213.44113424 403.80360983 -213.44188266 402.79459187 -213.44265376 401.75499761 C-213.44418524 399.70516485 -213.44572359 397.6553321 -213.44726873 395.60549935 C-213.46100087 376.37632285 -213.45555166 357.14718702 -213.44408352 337.91801145 C-213.43415624 320.33359838 -213.44708181 302.74929061 -213.47101771 285.16489378 C-213.49541415 267.10591158 -213.50501488 249.04697841 -213.49836498 230.98798007 C-213.49487323 220.85067254 -213.49710169 210.71344595 -213.51461601 200.57615089 C-213.52934503 191.94387446 -213.52996456 183.31173592 -213.5125451 174.67946217 C-213.50403741 170.2770671 -213.50187972 165.87491826 -213.51719666 161.47253609 C-213.5310613 157.4375001 -213.526258 153.40292087 -213.50695742 149.36791118 C-213.50320243 147.91299325 -213.50610491 146.45803857 -213.51656907 145.00315342 C-213.59027661 133.96484835 -212.20400915 123.64819722 -204.95703125 114.8671875 C-201.20149766 111.28406364 -196.79597544 108.84265034 -192.29638672 106.30078125 C-189.61485948 104.78183833 -186.95007081 103.23540273 -184.28515625 101.6875 C-179.26654838 98.77675389 -174.23961098 95.88085168 -169.20834351 92.99205017 C-163.13365511 89.5037711 -157.06672546 86.00210291 -151 82.5 C-148.83336859 81.24993888 -146.66670186 79.999939 -144.5 78.75 C-143.4275 78.13125 -142.355 77.5125 -141.25 76.875 C-112 60 -82.75 43.125 -53.5 26.25 C-51.88907471 25.32006226 -51.88907471 25.32006226 -50.24560547 24.37133789 C-48.09488806 23.13128607 -45.94288326 21.8934642 -43.78955078 20.65795898 C-38.72237831 17.74700559 -33.67101392 14.81566172 -28.66400146 11.80252075 C-26.30760303 10.38635243 -23.94368935 8.983007 -21.57910156 7.58056641 C-19.92026642 6.58954312 -18.27244167 5.58016256 -16.625 4.5703125 C-10.79264733 1.11987485 -6.81348105 -1.13065358 0 0 Z " fill="#C1B4EE" transform="translate(277,0)"/>
<path d="M0 0 C3.59121699 3.76222732 4.47059754 6.05157299 4.9375 11.1875 C4.35811175 17.79252611 1.10429892 21.64002441 -3.5625 26.125 C-4.46355469 26.99898437 -5.36460937 27.87296875 -6.29296875 28.7734375 C-6.98003906 29.42570312 -7.66710937 30.07796875 -8.375 30.75 C-7.16715074 33.32965997 -6.09428556 35.0708165 -4.1875 37.25 C-2.375 39.75 -2.375 39.75 -2.42483521 41.54510498 C-3.84081698 44.83094673 -6.25886278 47.0505461 -8.76513672 49.52832031 C-9.32617096 50.09461151 -9.8872052 50.66090271 -10.46524048 51.24435425 C-12.32091439 53.11322736 -14.1873422 54.97091896 -16.0546875 56.828125 C-17.34688549 58.12234345 -18.63863783 59.417007 -19.92996216 60.71209717 C-22.63709324 63.42365127 -25.34957728 66.12970401 -28.06591797 68.83203125 C-31.55222421 72.30122878 -35.02486809 75.78374184 -38.49363518 79.27046585 C-41.15787788 81.94553225 -43.82920381 84.61343274 -46.5027504 87.27919769 C-47.78641328 88.56085555 -49.06784096 89.84475607 -50.34701157 91.13089752 C-52.13288732 92.92436614 -53.92805171 94.7079784 -55.72607422 96.48925781 C-56.25606018 97.02531647 -56.78604614 97.56137512 -57.33209229 98.11367798 C-61.03220277 101.75 -61.03220277 101.75 -64.375 101.75 C-64.76171875 99.6640625 -64.76171875 99.6640625 -64.375 96.75 C-62.58578482 94.26152484 -60.41006056 92.22528376 -58.1875 90.125 C-57.60935547 89.55265625 -57.03121094 88.9803125 -56.43554688 88.390625 C-54.04200722 86.06469946 -51.89058921 84.04754847 -48.984375 82.37036133 C-45.98547167 80.50811194 -43.77301838 78.37376093 -41.29296875 75.86328125 C-40.60440544 75.1704731 -40.60440544 75.1704731 -39.90193176 74.46366882 C-38.45065086 73.00127862 -37.00651796 71.53205874 -35.5625 70.0625 C-34.57403354 69.06399177 -33.58510563 68.06594011 -32.59570312 67.06835938 C-30.18422726 64.63335692 -27.77755043 62.1938041 -25.375 59.75 C-26.365 58.76 -27.355 57.77 -28.375 56.75 C-29.01607413 57.3952222 -29.01607413 57.3952222 -29.67009926 58.05347919 C-40.07835991 68.52804443 -50.4949608 78.99426319 -60.92084694 89.45128345 C-65.9625661 94.50845972 -71.00144492 99.56840598 -76.03369141 104.63500977 C-80.42071711 109.05197319 -84.81302253 113.46360593 -89.2117008 117.86896628 C-91.53975923 120.20092956 -93.8643127 122.53621838 -96.18416214 124.87635231 C-98.77680396 127.49075922 -101.37867122 130.09563839 -103.98291016 132.69848633 C-105.12874573 133.86050064 -105.12874573 133.86050064 -106.29772949 135.04598999 C-111.50020993 140.21846499 -116.08136845 144.16004538 -123.75 144.25 C-130.41475023 144.03267119 -134.40259203 141.82390483 -138.9765625 137.09375 C-142.74130984 132.13017251 -142.99371776 127.17505515 -143.13671875 121.09375 C-141.48540411 113.84490213 -135.19676173 108.27659996 -130.03759766 103.16967773 C-129.43509689 102.56527863 -128.83259613 101.96087952 -128.21183777 101.33816528 C-126.2424133 99.36507216 -124.26594356 97.39921358 -122.2890625 95.43359375 C-120.90396173 94.04968737 -119.51923294 92.66540861 -118.13485718 91.28077698 C-115.2414284 88.38890646 -112.34469089 85.50040714 -109.4453125 82.61450195 C-105.74629132 78.93246135 -102.05387793 75.24388144 -98.36371803 71.5529623 C-95.50712349 68.69664093 -92.64792044 65.84294275 -89.78785324 62.99009895 C-88.4262351 61.63164198 -87.06520328 60.27259703 -85.70479202 58.91293144 C-72.88195583 46.10481714 -72.88195583 46.10481714 -66.90769958 41.05688477 C-64.41420303 38.93075862 -62.12616089 36.63305705 -59.8125 34.3125 C-59.34344238 33.84223389 -58.87438477 33.37196777 -58.39111328 32.88745117 C-55.73229005 30.19888207 -53.19572452 27.44516371 -50.75 24.5625 C-44.81689412 17.69926351 -39.4176955 12.86406614 -30.796875 9.87890625 C-27.14446216 8.17641059 -24.82561733 5.51357067 -22.12109375 2.5859375 C-16.16745367 -3.674042 -7.11606609 -5.54634563 0 0 Z " fill="#BB3D48" transform="translate(443.375,183.25)"/>
<path d="M0 0 C2.5625 0.9375 2.5625 0.9375 3.5625 2.9375 C4.10727058 9.25683879 3.39269329 13.78013112 -0.4375 18.9375 C-6.4637298 23.74585761 -13.52339924 27.40860589 -20.1875 31.25 C-22.31792666 32.48530062 -24.44812485 33.72099534 -26.578125 34.95703125 C-27.69380859 35.60365723 -28.80949219 36.2502832 -29.95898438 36.91650391 C-35.34820267 40.04410047 -40.72032147 43.20090649 -46.09387207 46.35531616 C-56.49946718 52.46325512 -66.91511909 58.55366294 -77.33984375 64.62890625 C-85.8330831 69.58047607 -94.31445901 74.55213357 -102.79421997 79.5267334 C-112.11692957 84.99561359 -121.44557177 90.45412741 -130.79248047 95.8815918 C-135.7550875 98.76797179 -140.69437079 101.68685471 -145.60546875 104.66015625 C-146.60586182 105.2624707 -147.60625488 105.86478516 -148.63696289 106.48535156 C-150.53295662 107.62899194 -152.42439522 108.78023212 -154.31030273 109.94042969 C-158.68042082 112.56988292 -162.21799374 114.620907 -167.4375 114.9375 C-169.76063154 112.51757131 -170.42134106 111.04253308 -170.9375 107.6875 C-170.17215989 101.94744914 -167.60179187 97.90102268 -163.33203125 94.02734375 C-159.49291191 91.25550995 -155.44457978 88.99183185 -151.3125 86.6875 C-142.89452265 81.93739278 -134.55392669 77.07166338 -126.25 72.125 C-117.35123777 66.82752326 -108.41838855 61.595024 -99.4375 56.4375 C-90.56217686 51.33990947 -81.73359658 46.17060473 -72.9375 40.9375 C-64.03704863 35.64244108 -55.10365943 30.41136108 -46.125 25.25 C-37.82852591 20.48031127 -29.5524429 15.67930146 -21.3125 10.8125 C-20.43037842 10.29212158 -19.54825684 9.77174316 -18.6394043 9.2355957 C-14.075776 6.53346481 -9.58048607 3.77476879 -5.17602539 0.81860352 C-3.4375 -0.0625 -3.4375 -0.0625 0 0 Z " fill="#453A6D" transform="translate(268.4375,239.0625)"/>
<path d="M0 0 C2.50400495 3.75600743 2.59822442 6.6570461 2 11 C-1.12122482 22.20708239 -13.86419708 26.75229515 -23.1875 32.0625 C-25.51226289 33.39489799 -27.83659728 34.72800723 -30.16015625 36.0625 C-30.74061707 36.39560684 -31.32107788 36.72871368 -31.91912842 37.07191467 C-37.34760054 40.19101228 -42.7407235 43.36789496 -48.125 46.5625 C-55.58742618 50.98745284 -63.06568029 55.3835506 -70.5625 59.75 C-79.55050033 64.98503602 -88.52842938 70.23688304 -97.5 75.5 C-117.43383769 87.1932286 -117.43383769 87.1932286 -126.8605957 92.65844727 C-131.85021204 95.55590051 -136.81819551 98.48417781 -141.75485229 101.47079468 C-144.40966003 103.0751607 -147.07093171 104.66863348 -149.73266602 106.26147461 C-151.0262428 107.03968859 -152.31667792 107.82315103 -153.60375977 108.61206055 C-155.39873566 109.71176789 -157.20369796 110.79300983 -159.01171875 111.87109375 C-160.04772217 112.49943115 -161.08372559 113.12776855 -162.15112305 113.77514648 C-165.38474122 115.16541663 -166.74481782 115.27714437 -170 114 C-172.53762859 110.19355712 -172.51942559 108.52642303 -172 104 C-168.73815197 96.77541097 -163.57470031 92.74930565 -156.7734375 88.890625 C-155.75572266 88.30925781 -154.73800781 87.72789062 -153.68945312 87.12890625 C-152.04879883 86.19884766 -152.04879883 86.19884766 -150.375 85.25 C-148.01664541 83.90380184 -145.66047413 82.553811 -143.3046875 81.203125 C-142.39798309 80.6837738 -142.39798309 80.6837738 -141.47296143 80.15393066 C-135.1093763 76.50207294 -128.8034297 72.75455964 -122.5 69 C-112.68270353 63.15976802 -102.81797761 57.40981694 -92.91455078 51.71704102 C-83.476566 46.28746402 -74.08076921 40.78808597 -64.69165039 35.2746582 C-63.47803103 34.56200544 -62.26440801 33.84935891 -61.05078125 33.13671875 C-60.45592422 32.78738785 -59.8610672 32.43805695 -59.2481842 32.07814026 C-53.36072937 28.62207972 -47.46192549 25.18557902 -41.5625 21.75 C-33.59133697 17.1050011 -25.63257329 12.43949598 -17.6875 7.75 C-16.28963257 6.92580566 -16.28963257 6.92580566 -14.86352539 6.08496094 C-14.0049292 5.57739258 -13.14633301 5.06982422 -12.26171875 4.546875 C-11.50850342 4.10182617 -10.75528809 3.65677734 -9.97924805 3.19824219 C-3.87566987 -0.49688075 -3.87566987 -0.49688075 0 0 Z " fill="#453A6D" transform="translate(270,124)"/>
<path d="M0 0 C2 2 2 2 2.375 5.625 C2.21632551 10.4910178 0.80171878 14.04874606 -2 18 C-7.81050769 23.33341173 -14.99065133 27.02382367 -21.8125 30.875 C-24.14275709 32.20430575 -26.47230317 33.53477596 -28.80078125 34.8671875 C-29.69357285 35.37726349 -29.69357285 35.37726349 -30.60440063 35.89764404 C-36.94530591 39.52704205 -43.22351131 43.26052353 -49.5 47 C-59.36320136 52.86890671 -69.27815624 58.63920703 -79.23046875 64.35546875 C-87.02514942 68.84046595 -94.77148742 73.40203824 -102.5 78 C-112.46525853 83.92853428 -122.47410126 89.77400221 -132.53808594 95.53344727 C-137.83448007 98.57022522 -143.09696363 101.64770681 -148.30859375 104.828125 C-149.31043701 105.43567627 -150.31228027 106.04322754 -151.34448242 106.66918945 C-153.22780422 107.81538723 -155.10474368 108.97216489 -156.97387695 110.14135742 C-165.06389309 115.05007243 -165.06389309 115.05007243 -170 114 C-172.52672455 110.20991318 -172.44341245 108.50802658 -172 104 C-169.4167052 94.60787819 -160.70667308 90.47716327 -152.765625 85.9296875 C-150.92959189 84.90694193 -149.09094818 83.88887173 -147.25 82.875 C-139.46334454 78.53032217 -131.72786317 74.11795552 -124.0625 69.5625 C-116.5386967 65.0937517 -108.99984864 60.65325057 -101.4375 56.25 C-91.32806658 50.36134568 -81.23045409 44.45279292 -71.1394043 38.53271484 C-69.90674064 37.80956629 -68.67407462 37.08642177 -67.44140625 36.36328125 C-66.82841171 36.00365295 -66.21541718 35.64402466 -65.58384705 35.27349854 C-61.87015413 33.09528271 -58.15467836 30.92014781 -54.43753052 28.74783325 C-51.9821384 27.31280063 -49.52739811 25.87665462 -47.07263184 24.44055176 C-45.86293521 23.73333577 -44.65289569 23.02670596 -43.44250488 22.32067871 C-36.86173605 18.48200865 -30.31489287 14.5998111 -23.83203125 10.59765625 C-22.68012088 9.89061201 -21.52810462 9.18374025 -20.37597656 8.47705078 C-18.22369501 7.15225266 -16.07806265 5.81656853 -13.94042969 4.46826172 C-12.98168945 3.87932129 -12.02294922 3.29038086 -11.03515625 2.68359375 C-10.2037915 2.16337646 -9.37242676 1.64315918 -8.51586914 1.10717773 C-5.46617919 -0.2349226 -3.29904494 -0.3436326 0 0 Z " fill="#453A6D" transform="translate(270,182)"/>
<path d="M0 0 C3.59121699 3.76222732 4.47059754 6.05157299 4.9375 11.1875 C4.35811175 17.79252611 1.10429892 21.64002441 -3.5625 26.125 C-4.91408203 27.43597656 -4.91408203 27.43597656 -6.29296875 28.7734375 C-6.98003906 29.42570312 -7.66710937 30.07796875 -8.375 30.75 C-7.16715074 33.32965997 -6.09428556 35.0708165 -4.1875 37.25 C-2.375 39.75 -2.375 39.75 -2.42483521 41.54510498 C-3.84081698 44.83094673 -6.25886278 47.0505461 -8.76513672 49.52832031 C-9.32617096 50.09461151 -9.8872052 50.66090271 -10.46524048 51.24435425 C-12.32091439 53.11322736 -14.1873422 54.97091896 -16.0546875 56.828125 C-17.34688549 58.12234345 -18.63863783 59.417007 -19.92996216 60.71209717 C-22.63709324 63.42365127 -25.34957728 66.12970401 -28.06591797 68.83203125 C-31.55222421 72.30122878 -35.02486809 75.78374184 -38.49363518 79.27046585 C-41.15787788 81.94553225 -43.82920381 84.61343274 -46.5027504 87.27919769 C-47.78641328 88.56085555 -49.06784096 89.84475607 -50.34701157 91.13089752 C-52.13288732 92.92436614 -53.92805171 94.7079784 -55.72607422 96.48925781 C-56.25606018 97.02531647 -56.78604614 97.56137512 -57.33209229 98.11367798 C-61.03220277 101.75 -61.03220277 101.75 -64.375 101.75 C-64.76171875 99.6640625 -64.76171875 99.6640625 -64.375 96.75 C-62.58578482 94.26152484 -60.41006056 92.22528376 -58.1875 90.125 C-57.3202832 89.26648438 -57.3202832 89.26648438 -56.43554688 88.390625 C-54.04200722 86.06469946 -51.89058921 84.04754847 -48.984375 82.37036133 C-45.98547167 80.50811194 -43.77301838 78.37376093 -41.29296875 75.86328125 C-40.60440544 75.1704731 -40.60440544 75.1704731 -39.90193176 74.46366882 C-38.45065086 73.00127862 -37.00651796 71.53205874 -35.5625 70.0625 C-34.57403354 69.06399177 -33.58510563 68.06594011 -32.59570312 67.06835938 C-30.18422726 64.63335692 -27.77755043 62.1938041 -25.375 59.75 C-26.035 58.1 -26.695 56.45 -27.375 54.75 C-27.91382813 55.07226562 -28.45265625 55.39453125 -29.0078125 55.7265625 C-33.56332583 57.69610787 -38.51621109 57.27174914 -43.375 56.75 C-49.29492395 53.9514905 -53.82064433 48.80098477 -56.375 42.75 C-56.67578125 40.63671875 -56.67578125 40.63671875 -56.6875 38.4375 C-56.71263672 37.36048828 -56.71263672 37.36048828 -56.73828125 36.26171875 C-55.7980489 29.76097248 -52.67746188 25.53703427 -48.0625 21.0625 C-47.13824219 20.15113281 -46.21398437 19.23976562 -45.26171875 18.30078125 C-41.36063648 14.85368149 -37.58275681 11.85249323 -32.5 10.5 C-27.98440674 8.94587613 -25.40564086 6.04919132 -22.19140625 2.62109375 C-16.15645898 -3.59555086 -7.18606036 -5.60089998 0 0 Z " fill="#E7E3F5" transform="translate(443.375,183.25)"/>
<path d="M0 0 C2.33760576 2.33760576 2.34295127 2.93258983 2.4375 6.125 C2.28080311 11.54845358 0.53024003 14.95728949 -3 19 C-9.44751855 24.02685 -16.85441461 27.89615146 -23.9375 31.9375 C-25.6673456 32.92992138 -27.39718843 33.92234765 -29.12686157 34.91506958 C-30.90939872 35.93764091 -32.69268197 36.95890134 -34.47607422 37.97998047 C-39.99189777 41.13969905 -45.49522288 44.32109067 -51 47.5 C-53.14837493 48.73969178 -55.29681272 49.97927462 -57.4453125 51.21875 C-59.05067871 52.14494141 -59.05067871 52.14494141 -60.68847656 53.08984375 C-63.53639191 54.73258112 -66.38453768 56.37491736 -69.23284912 58.01696777 C-70.98341241 59.02619104 -72.73390411 60.03553836 -74.484375 61.04492188 C-76.66392165 62.3016766 -78.84359832 63.55820586 -81.0234375 64.81445312 C-82.52390625 65.67973633 -82.52390625 65.67973633 -84.0546875 66.5625 C-85.03147461 67.12195313 -86.00826172 67.68140625 -87.01464844 68.2578125 C-89.09770076 69.47343741 -91.16233501 70.72093749 -93.21191406 71.9921875 C-94.25831055 72.63414062 -95.30470703 73.27609375 -96.3828125 73.9375 C-97.31754395 74.52402344 -98.25227539 75.11054688 -99.21533203 75.71484375 C-102.43201093 77.19937801 -104.49779587 77.47838592 -108 77 C-110.52672455 73.20991318 -110.44341245 71.50802658 -110 67 C-107.69661358 58.62554509 -101.33336753 55.05675719 -94.1640625 50.94775391 C-91.30698191 49.33499967 -88.43789436 47.74541817 -85.55957031 46.17089844 C-79.18175848 42.68202681 -72.89474022 39.05413451 -66.625 35.375 C-56.54336007 29.46675434 -46.42236179 23.63186481 -36.26391602 17.85693359 C-30.73366003 14.71195512 -25.21570484 11.55006995 -19.734375 8.3203125 C-18.77168701 7.75715332 -17.80899902 7.19399414 -16.81713867 6.61376953 C-15.0334832 5.56883798 -13.25463764 4.51563413 -11.48168945 3.45263672 C-10.30159302 2.76451904 -10.30159302 2.76451904 -9.09765625 2.0625 C-8.08457397 1.46115234 -8.08457397 1.46115234 -7.05102539 0.84765625 C-4.53041468 -0.19407216 -2.70295854 -0.28971214 0 0 Z " fill="#453B6D" transform="translate(208,96)"/>
<path d="M0 0 C2.4375 2.0625 2.4375 2.0625 4 5 C3.83177773 9.62611253 2.58408147 13.67017731 1 18 C1.47050781 17.44570313 1.94101563 16.89140625 2.42578125 16.3203125 C3.04839844 15.59585937 3.67101562 14.87140625 4.3125 14.125 C5.23482422 13.04605469 5.23482422 13.04605469 6.17578125 11.9453125 C8.72172979 9.23036095 10.31081726 8.05625982 14.0625 7.75 C17 8 17 8 19 10 C19.21656848 13.89823257 19.03218914 17.25108903 18 21 C18.77923828 20.02546875 18.77923828 20.02546875 19.57421875 19.03125 C20.27160156 18.1959375 20.96898437 17.360625 21.6875 16.5 C22.37199219 15.6646875 23.05648437 14.829375 23.76171875 13.96875 C26 12 26 12 28.64453125 11.59375 C31 12 31 12 33 14 C33.50624683 17.74939056 33.27208706 19.54589173 31.3125 22.81640625 C20.66093601 35.46513849 20.66093601 35.46513849 12.1875 36.4375 C9 36 9 36 6 34 C6 33.34 6 32.68 6 32 C5.34 32 4.68 32 4 32 C3.79375 32.66 3.5875 33.32 3.375 34 C1.03747797 39.10004808 -2.15007319 43.43467732 -6.4375 47.0625 C-10.07006801 48.3914883 -12.30583477 48.07466625 -16 47 C-18.92180213 44.1550874 -20.14808062 41.91715871 -21 38 C-21.62660522 39.17357056 -21.62660522 39.17357056 -22.26586914 40.37084961 C-23.83251949 43.27651365 -25.42042059 46.16823276 -27.02416992 49.0534668 C-27.7127307 50.30284924 -28.39254726 51.55709347 -29.06323242 52.81616211 C-30.03107097 54.62933707 -31.02940009 56.42248666 -32.03515625 58.21484375 C-32.92279663 59.84087524 -32.92279663 59.84087524 -33.82836914 61.49975586 C-36 64 -36 64 -39.62280273 64.98657227 C-40.73727783 64.99100342 -41.85175293 64.99543457 -43 65 C-43.66 64.34 -44.32 63.68 -45 63 C-44.90671061 56.45278097 -41.97414061 51.7690178 -38.6875 46.25 C-38.15205566 45.33476562 -37.61661133 44.41953125 -37.06494141 43.4765625 C-35.39421877 40.64009449 -33.70215697 37.81770322 -32 35 C-31.47841309 34.13568359 -30.95682617 33.27136719 -30.41943359 32.38085938 C-9.74869223 -1.62478204 -9.74869223 -1.62478204 0 0 Z " fill="#463C6E" transform="translate(238,318)"/>
<path d="M0 0 C0 3 0 3 -0.97265625 4.890625 C-2.8652995 8.77666058 -2.61924005 12.79169519 -2 17 C0.12145219 22.13707018 3.34701449 25.93882532 8 29 C13.21973243 30.73991081 17.45100036 30.71712946 22.375 28.4375 C23.24125 27.963125 24.1075 27.48875 25 27 C25.66 27.33 26.32 27.66 27 28 C22.42083962 32.6554048 17.82981661 37.29886534 13.23046875 41.93432617 C11.66815889 43.51169561 10.10855561 45.09175068 8.55175781 46.67456055 C6.3098527 48.95297178 4.0582994 51.22145596 1.8046875 53.48828125 C1.1138205 54.19463211 0.42295349 54.90098297 -0.28884888 55.6287384 C-5.35087719 60.69250402 -9.90822176 64.41241316 -17.375 64.5 C-24.03975023 64.28267119 -28.02759203 62.07390483 -32.6015625 57.34375 C-36.36630984 52.38017251 -36.61871776 47.42505515 -36.76171875 41.34375 C-35.03064181 33.74476612 -28.25666889 27.97212012 -22.8515625 22.65625 C-22.19417084 22.00168823 -21.53677917 21.34712646 -20.85946655 20.67272949 C-18.78601329 18.61035267 -16.7056716 16.55509155 -14.625 14.5 C-13.20656711 13.09161313 -11.78859402 11.68276302 -10.37109375 10.2734375 C-6.91934876 6.84358627 -3.46141335 3.42009252 0 0 Z " fill="#BA3D49" transform="translate(337,263)"/>
<path d="M0 0 C2 2 2 2 2.734375 4.75 C2 8 2 8 0.25195312 9.48046875 C-2.36586333 11.09576327 -5.03263263 12.55834326 -7.75 14 C-15.70166983 18.44220851 -23.33018648 23.08777621 -30.75 28.375 C-31.53342773 28.93316406 -32.31685547 29.49132812 -33.12402344 30.06640625 C-33.88231445 30.60910156 -34.64060547 31.15179688 -35.421875 31.7109375 C-36.16501953 32.24170898 -36.90816406 32.77248047 -37.67382812 33.31933594 C-39.33544745 34.51985939 -40.98383115 35.73878906 -42.62304688 36.96972656 C-43.93112305 37.93217285 -43.93112305 37.93217285 -45.265625 38.9140625 C-46.05227539 39.50396973 -46.83892578 40.09387695 -47.64941406 40.70166016 C-50.37337276 42.20623144 -51.93408038 42.41843054 -55 42 C-57 40 -57 40 -57.30859375 37.56640625 C-56.83231486 33.60545396 -54.84299164 32.5707031 -51.84765625 30.140625 C-40.30443477 21.46341599 -28.39843315 13.40466663 -16 6 C-14.92105469 5.35546875 -13.84210938 4.7109375 -12.73046875 4.046875 C-4.70189567 -0.5531642 -4.70189567 -0.5531642 0 0 Z " fill="#473C6E" transform="translate(269,352)"/>
<path d="M0 0 C3.59121699 3.76222732 4.47059754 6.05157299 4.9375 11.1875 C4.57925748 15.27146468 4.00552254 17.40239018 1.625 20.75 C-3.04085149 24.14430188 -7.59118426 25.60686159 -13.375 24.75 C-17.18922234 22.69618797 -20.37510435 20.64453363 -22.375 16.75 C-22.90379518 13.75867827 -23.1872167 10.78043397 -23.375 7.75 C-24.695 8.74 -26.015 9.73 -27.375 10.75 C-28.035 10.42 -28.695 10.09 -29.375 9.75 C-27.98568357 8.30620057 -26.58823422 6.87022488 -25.1875 5.4375 C-24.41019531 4.63699219 -23.63289063 3.83648437 -22.83203125 3.01171875 C-16.28480508 -3.01506019 -7.68470378 -5.98954853 0 0 Z " fill="#E8E3F6" transform="translate(443.375,183.25)"/>
<path d="M0 0 C5 2 5 2 6.875 3.4375 C9.05868815 5.19908028 9.05868815 5.19908028 12.3125 6.1875 C16.97706204 8.09572993 20.42061651 11.71932101 23 16 C23.40475358 19.12408414 23.34121732 20.51726003 21.50163269 23.11982727 C20.8000856 23.81931992 20.09853851 24.51881256 19.37573242 25.23950195 C18.58458542 26.03995438 17.79343842 26.8404068 16.97831726 27.66511536 C16.11277725 28.5142601 15.24723724 29.36340485 14.35546875 30.23828125 C13.03437859 31.55943184 13.03437859 31.55943184 11.68659973 32.90727234 C9.8217071 34.76680149 7.9527968 36.62074694 6.07495117 38.46704102 C3.66689759 40.83535942 1.2769539 43.22100038 -1.10754871 45.61300373 C-3.38272345 47.89198242 -5.67012692 50.15858206 -7.95703125 52.42578125 C-8.81649857 53.28504715 -9.67596588 54.14431305 -10.56147766 55.02961731 C-11.36208115 55.81430893 -12.16268463 56.59900055 -12.98754883 57.4074707 C-13.6914827 58.10298538 -14.39541656 58.79850006 -15.12068176 59.51509094 C-17 61 -17 61 -20 61 C-20.38671875 58.9140625 -20.38671875 58.9140625 -20 56 C-18.21078482 53.51152484 -16.03506056 51.47528376 -13.8125 49.375 C-12.9452832 48.51648438 -12.9452832 48.51648438 -12.06054688 47.640625 C-9.66700722 45.31469946 -7.51558921 43.29754847 -4.609375 41.62036133 C-1.61047167 39.75811194 0.60198162 37.62376093 3.08203125 35.11328125 C3.77059456 34.4204731 3.77059456 34.4204731 4.47306824 33.71366882 C5.92434914 32.25127862 7.36848204 30.78205874 8.8125 29.3125 C9.80096646 28.31399177 10.78989437 27.31594011 11.77929688 26.31835938 C14.19077274 23.88335692 16.59744957 21.4438041 19 19 C18.34 17.35 17.68 15.7 17 14 C16.46117187 14.32226562 15.92234375 14.64453125 15.3671875 14.9765625 C10.81644512 16.94404518 5.8536453 16.5327964 1 16 C-3.46061942 13.80881853 -4.97900153 12.02799795 -8 8 C-5.36 5.36 -2.72 2.72 0 0 Z " fill="#C4B9EA" transform="translate(399,224)"/>
<path d="M0 0 C0.33 0 0.66 0 1 0 C1.01417969 0.6290625 1.02835937 1.258125 1.04296875 1.90625 C1.40366131 8.3792192 2.61861634 13.09783172 7 18 C11.56557923 21.83242052 16.17328878 22.59110798 22 23 C19.67120043 25.32879957 17.84037652 25.9713436 14.765625 27.12890625 C13.71632813 27.52400391 12.66703125 27.91910156 11.5859375 28.32617188 C10.48507812 28.73416016 9.38421875 29.14214844 8.25 29.5625 C7.16460937 29.97435547 6.07921875 30.38621094 4.9609375 30.81054688 C3.90648437 31.20435547 2.85203125 31.59816406 1.765625 32.00390625 C0.80430664 32.36299072 -0.15701172 32.7220752 -1.14746094 33.09204102 C-4.08977299 34.02857461 -6.94644728 34.56591652 -10 35 C-11.32784412 31.01646765 -10.05036338 28.49172504 -8.69140625 24.70703125 C-8.44583481 24.00100266 -8.20026337 23.29497406 -7.94725037 22.56755066 C-7.16080661 20.31279578 -6.36184404 18.06270986 -5.5625 15.8125 C-5.02716453 14.2847959 -4.49264905 12.75680418 -3.95898438 11.22851562 C-2.64881528 7.48227317 -1.32740152 3.74016943 0 0 Z " fill="#D8CFEA" transform="translate(300,304)"/>
<path d="M0 0 C0 3 0 3 -0.97265625 4.890625 C-2.8652995 8.77666058 -2.61924005 12.79169519 -2 17 C0.12145219 22.13707018 3.34701449 25.93882532 8 29 C13.21973243 30.73991081 17.45100036 30.71712946 22.375 28.4375 C23.24125 27.963125 24.1075 27.48875 25 27 C25.66 27.33 26.32 27.66 27 28 C25.94751683 29.13437667 24.88247933 30.25711115 23.8125 31.375 C22.92498047 32.31472656 22.92498047 32.31472656 22.01953125 33.2734375 C17.14955232 37.43693979 12.03051263 37.43319633 5.875 37.3125 C0.5471915 36.73339038 -2.32980297 33.87695605 -5.75 30.0625 C-9.53423803 24.91173156 -10.9502928 20.42635503 -10 14 C-8.03719467 8.0558225 -4.5699088 4.15446255 0 0 Z " fill="#DCD2EA" transform="translate(337,263)"/>
<path d="M0 0 C1.40302346 0.6333793 2.79502521 1.29204386 4.171875 1.98046875 C8.99800443 2.25889929 12.67095326 1.73692602 17.171875 -0.01953125 C13.43403598 4.65276752 9.38837483 8.75995082 4.984375 12.79296875 C4.46133789 13.27290283 3.93830078 13.75283691 3.39941406 14.24731445 C-0.91909034 18.16017899 -3.42402097 20.26221124 -9.328125 20.23046875 C-10.76671875 20.23820312 -10.76671875 20.23820312 -12.234375 20.24609375 C-14.828125 19.98046875 -14.828125 19.98046875 -17.828125 17.98046875 C-16.92931403 12.87110637 -13.62389568 10.22450594 -10.078125 6.66796875 C-9.14613281 5.68086914 -9.14613281 5.68086914 -8.1953125 4.67382812 C-3.54121297 -0.02445589 -3.54121297 -0.02445589 0 0 Z " fill="#AB99EB" transform="translate(425.828125,205.01953125)"/>
<path d="M0 0 C1.12796345 2.2559269 1.19822994 3.80825755 1.375 6.3125 C1.75941807 10.21970006 2.61912184 12.79099031 5 16 C4.5153125 16.4125 4.030625 16.825 3.53125 17.25 C-1.54338286 21.62199139 -6.3146122 26.21562513 -11 31 C-11.66 31.66 -12.32 32.32 -13 33 C-16.22949389 29.97234948 -17.38724801 27.51780086 -17.6875 23.1875 C-17.40221165 16.95717053 -14.36864978 14.11528345 -10 10 C-8.18629018 8.16786352 -6.37381508 6.33450403 -4.5625 4.5 C-3.04414831 2.99748805 -1.52419005 1.49658903 0 0 Z " fill="#D3CBEB" transform="translate(420,189)"/>
<path d="M0 0 C0.66 0.33 1.32 0.66 2 1 C1.505 1.804375 1.01 2.60875 0.5 3.4375 C-1.58639572 8.39268984 -1.96990256 12.95651265 -0.3203125 18.1328125 C0.38283579 19.78688514 1.18261807 21.39929372 2 23 C0.73427767 24.15147661 -0.53777906 25.29599314 -1.8125 26.4375 C-2.52019531 27.07558594 -3.22789062 27.71367187 -3.95703125 28.37109375 C-6 30 -6 30 -9 31 C-12.13789422 25.90092189 -12.70584596 21.82067178 -12 16 C-10.10892757 8.93999628 -5.26382502 4.86655521 0 0 Z " fill="#D6CDEA" transform="translate(399,201)"/>
<path d="M0 0 C4.45770545 1.78308218 8.01576661 3.39492432 12 6 C12.6875 8 12.6875 8 13 10 C14.97901574 12.22977996 14.97901574 12.22977996 17 14 C12.00571779 16.98701089 6.63957726 16.61907006 1 16 C-3.46061942 13.80881853 -4.97900153 12.02799795 -8 8 C-5.36 5.36 -2.72 2.72 0 0 Z " fill="#A994E8" transform="translate(399,224)"/>
<path d="M0 0 C0.89976562 0.31710937 1.79953125 0.63421875 2.7265625 0.9609375 C6.5516142 2.17509472 10.01936098 2.58820976 14 3 C11.67120043 5.32879957 9.84037652 5.9713436 6.765625 7.12890625 C5.19167969 7.72155273 5.19167969 7.72155273 3.5859375 8.32617188 C2.48507812 8.73416016 1.38421875 9.14214844 0.25 9.5625 C-1.37808594 10.1802832 -1.37808594 10.1802832 -3.0390625 10.81054688 C-4.09351563 11.20435547 -5.14796875 11.59816406 -6.234375 12.00390625 C-7.67635254 12.54253296 -7.67635254 12.54253296 -9.14746094 13.09204102 C-12.08977299 14.02857461 -14.94644728 14.56591652 -18 15 C-19.39195915 10.82412255 -17.82323219 8.86525224 -16 5 C-14 8 -14 8 -14 10 C-9.31808451 9.54261927 -7.36895826 7.80889606 -4.1875 4.4375 C-3.39730469 3.61121094 -2.60710937 2.78492188 -1.79296875 1.93359375 C-1.20128906 1.29550781 -0.60960937 0.65742188 0 0 Z " fill="#BFB2EA" transform="translate(308,324)"/>
<path d="M0 0 C4 2 4 2 5 4 C4.5153125 4.4125 4.030625 4.825 3.53125 5.25 C-1.54338286 9.62199139 -6.3146122 14.21562513 -11 19 C-11.66 19.66 -12.32 20.32 -13 21 C-13.99 19.35 -14.98 17.7 -16 16 C-10.72 10.72 -5.44 5.44 0 0 Z " fill="#C3B8EB" transform="translate(420,201)"/>
<path d="M0 0 C0.66 0.33 1.32 0.66 2 1 C0.94751683 2.13437667 -0.11752067 3.25711115 -1.1875 4.375 C-1.77917969 5.00148438 -2.37085938 5.62796875 -2.98046875 6.2734375 C-7.07291931 9.77220568 -10.91278226 10.27620978 -16.1875 10.25 C-17.23292969 10.25515625 -18.27835937 10.2603125 -19.35546875 10.265625 C-22 10 -22 10 -24 8 C-23.21625 7.38125 -22.4325 6.7625 -21.625 6.125 C-19.03162353 4.10141339 -19.03162353 4.10141339 -17 2 C-16.01 2.33 -15.02 2.66 -14 3 C-8.18195617 3.38151107 -5.19594577 2.84539887 0 0 Z " fill="#C4B7E6" transform="translate(362,290)"/>
<path d="M0 0 C5.625 2.25 5.625 2.25 8 5 C7.278125 5.391875 6.55625 5.78375 5.8125 6.1875 C2.772674 8.14649898 0.47872273 10.37963597 -2 13 C-5.16115776 11.63016497 -5.9927092 11.0109362 -8 8 C-5.36 5.36 -2.72 2.72 0 0 Z " fill="#BBAEEB" transform="translate(399,224)"/>
<path d="M0 0 C1.01320313 0.45439453 1.01320313 0.45439453 2.046875 0.91796875 C-3.953125 6.91796875 -9.953125 12.91796875 -15.953125 18.91796875 C-16.613125 18.58796875 -17.273125 18.25796875 -17.953125 17.91796875 C-17.05431403 12.80860637 -13.74889568 10.16200594 -10.203125 6.60546875 C-9.27113281 5.61836914 -9.27113281 5.61836914 -8.3203125 4.61132812 C-3.65186441 -0.10144068 -3.65186441 -0.10144068 0 0 Z " fill="#B6A7EB" transform="translate(425.953125,205.08203125)"/>
<path d="M0 0 C1.67915882 0.45629316 3.35168261 0.94248088 5 1.5 C2.3927098 4.1072902 -0.5359257 4.98026787 -3.9375 6.1875 C-4.88786133 6.54424805 -4.88786133 6.54424805 -5.85742188 6.90820312 C-10.63553144 8.62148952 -10.63553144 8.62148952 -14 7.5 C-9.90894368 2.03744343 -7.14510638 -1.38650188 0 0 Z " fill="#B3A2E9" transform="translate(317,325.5)"/>
<path d="M0 0 C0.33 0.66 0.66 1.32 1 2 C-0.74525551 4.66921431 -2.68645047 6.64487098 -5.125 8.65625 C-9.2863786 12.18002843 -13.10838628 15.99703596 -16.9375 19.875 C-17.62134766 20.56335938 -18.30519531 21.25171875 -19.00976562 21.9609375 C-20.67551464 23.63833511 -22.3388622 25.31803791 -24 27 C-24 24 -24 24 -21.796875 21.45629883 C-20.78891569 20.44881485 -19.77269078 19.44955807 -18.75 18.45703125 C-18.21729492 17.92857101 -17.68458984 17.40011078 -17.13574219 16.8556366 C-15.43072971 15.16743265 -13.71558873 13.48994855 -12 11.8125 C-10.84306822 10.67061222 -9.68680935 9.52804224 -8.53125 8.38476562 C-5.69525089 5.58186459 -2.85012324 2.7885348 0 0 Z " fill="#E25E6C" transform="translate(329,271)"/>
<path d="M0 0 C0.66 0.33 1.32 0.66 2 1 C-5.43436992 9.01283674 -5.43436992 9.01283674 -10 10 C-12.3125 9.625 -12.3125 9.625 -14 9 C-11.03321331 4.22734315 -8.10823683 3.03701593 -2.92578125 1.578125 C-1.01121251 1.16919117 -1.01121251 1.16919117 0 0 Z " fill="#A886C8" transform="translate(362,290)"/>
<path d="M0 0 C0.66 0.33 1.32 0.66 2 1 C0.52278578 4.45201639 -1.43794001 6.64961936 -4.125 9.25 C-4.84945313 9.95640625 -5.57390625 10.6628125 -6.3203125 11.390625 C-6.87460937 11.92171875 -7.42890625 12.4528125 -8 13 C-9.32 12.34 -10.64 11.68 -12 11 C-11.46890625 10.54109375 -10.9378125 10.0821875 -10.390625 9.609375 C-6.81675301 6.50506283 -3.28145941 3.41818688 0 0 Z " fill="#C8BDEA" transform="translate(306,322)"/>
<path d="M0 0 C0.99 0.33 1.98 0.66 3 1 C1.61811547 4.21043882 0.07578097 6.04936365 -2.625 8.25 C-3.25664062 8.77078125 -3.88828125 9.2915625 -4.5390625 9.828125 C-5.02117187 10.21484375 -5.50328125 10.6015625 -6 11 C-6.66 10.01 -7.32 9.02 -8 8 C-5.36 5.36 -2.72 2.72 0 0 Z " fill="#C4BAEA" transform="translate(399,224)"/>
<path d="M0 0 C2 3 2 3 2 5 C3.32 5.33 4.64 5.66 6 6 C6 6.66 6 7.32 6 8 C3.36 8.66 0.72 9.32 -2 10 C-3.39195915 5.82412255 -1.82323219 3.86525224 0 0 Z " fill="#B3A2EC" transform="translate(292,329)"/>
<path d="M0 0 C0.99 0.33 1.98 0.66 3 1 C1.25904321 2.82200133 -0.49177132 4.63229575 -2.25 6.4375 C-2.98669922 7.2119043 -2.98669922 7.2119043 -3.73828125 8.00195312 C-8.30164195 12.65658104 -8.30164195 12.65658104 -12 13 C-8.19524578 8.43969176 -4.25030379 4.14910608 0 0 Z " fill="#AB99EA" transform="translate(392,267)"/>
<path d="M0 0 C0.85851562 0.36931641 0.85851562 0.36931641 1.734375 0.74609375 C0.50038437 2.11486491 -0.75343123 3.46578541 -2.015625 4.80859375 C-3.05976563 5.93974609 -3.05976563 5.93974609 -4.125 7.09375 C-6.265625 8.74609375 -6.265625 8.74609375 -8.53125 8.4921875 C-9.10359375 8.24597656 -9.6759375 7.99976563 -10.265625 7.74609375 C-9.03163437 6.37732259 -7.77781877 5.02640209 -6.515625 3.68359375 C-5.81953125 2.92949219 -5.1234375 2.17539063 -4.40625 1.3984375 C-2.265625 -0.25390625 -2.265625 -0.25390625 0 0 Z " fill="#AF9EE9" transform="translate(406.265625,229.25390625)"/>
<path d="M0 0 C0.66 0.33 1.32 0.66 2 1 C0.58791833 2.60820412 -0.82986036 4.21140708 -2.25 5.8125 C-3.03890625 6.70582031 -3.8278125 7.59914062 -4.640625 8.51953125 C-6.65879445 10.64128225 -8.59916705 12.34254423 -11 14 C-9.61085525 9.70281047 -7.61968015 7.29312243 -4.375 4.1875 C-3.55773437 3.39730469 -2.74046875 2.60710937 -1.8984375 1.79296875 C-0.95871094 0.90544922 -0.95871094 0.90544922 0 0 Z " fill="#DFCBE2" transform="translate(399,201)"/>
<path d="M0 0 C-1.15173355 2.46800047 -2.04783565 4.04783565 -4 6 C-6.625 6.125 -6.625 6.125 -9 6 C-4.5 0 -4.5 0 0 0 Z " fill="#BAADEB" transform="translate(352,294)"/>
<path d="M0 0 C2.00841268 0.01421885 4.01537247 0.13420475 6.01953125 0.265625 C3.70658305 2.5785732 2.5404825 2.76143475 -0.60546875 3.390625 C-1.42273438 3.55820312 -2.24 3.72578125 -3.08203125 3.8984375 C-4.02175781 4.08019531 -4.02175781 4.08019531 -4.98046875 4.265625 C-3.72152968 1.74774686 -2.88459378 0.38688832 0 0 Z " fill="#A997EB" transform="translate(315.98046875,326.734375)"/>
<path d="M0 0 C0 3.57870074 -0.64872567 4.39680342 -3 7 C-5.1875 8.25 -5.1875 8.25 -7 9 C-5.44499019 5.18315774 -2.96404505 2.80804268 0 0 Z " fill="#E9B4C4" transform="translate(337,263)"/>
</svg>
