<?xml version="1.0" encoding="UTF-8"?>
<svg version="1.1" xmlns="http://www.w3.org/2000/svg" width="512" height="512">
<path d="M0 0 C1.98 0.99 1.98 0.99 4 2 C4 123.44 4 244.88 4 370 C-158.5 463.75 -158.5 463.75 -161.75048828 465.62524414 C-163.91557071 466.87435518 -166.08060982 468.12354129 -168.24560547 469.37280273 C-173.68615706 472.51202309 -179.12747216 475.64990563 -184.5703125 478.78515625 C-197.23231844 486.08082074 -209.87465456 493.40891957 -222.4921875 500.78125 C-223.38647461 501.29816406 -224.28076172 501.81507813 -225.20214844 502.34765625 C-227.20472087 503.5303273 -229.18500844 504.75105651 -231.14941406 505.99609375 C-232.19581055 506.64707031 -233.24220703 507.29804688 -234.3203125 507.96875 C-235.26406738 508.57138672 -236.20782227 509.17402344 -237.18017578 509.79492188 C-240.65984254 511.28198985 -242.39397579 511.0144794 -246 510 C-247.34293615 509.35289513 -248.67836367 508.68956481 -250 508 C-250.36668336 477.06169417 -250.64901059 446.12397408 -250.81704527 415.18400445 C-250.8370515 411.51369798 -250.85776115 407.84339579 -250.87890625 404.1730957 C-250.88310322 403.44254548 -250.88730018 402.71199525 -250.89162433 401.95930714 C-250.96084551 390.20079434 -251.0867676 378.44356038 -251.23444474 366.6858009 C-251.38520205 354.57990843 -251.47317505 342.47467559 -251.50541592 330.36788327 C-251.52521482 323.58427761 -251.57399953 316.8037234 -251.69168091 310.0210247 C-252.58040364 256.75398225 -252.58040364 256.75398225 -235.8989563 232.79483223 C-233.12966615 228.71906631 -230.94721015 224.40128455 -228.75 220 C-227.97751409 218.52937675 -227.20194487 217.06036455 -226.421875 215.59375 C-223.5943164 210.2397372 -220.79776427 204.86962484 -218 199.5 C-214.36959963 192.53344733 -210.72767797 185.57331784 -207.0625 178.625 C-203.1805243 171.26437076 -199.33514361 163.88512986 -195.5 156.5 C-191.27177404 148.35793258 -187.02705813 140.22521152 -182.74267578 132.11254883 C-179.9502587 126.82073216 -177.18994336 121.51293174 -174.43896484 116.19946289 C-172.42533491 112.32151214 -170.39300497 108.4535824 -168.35595703 104.58789062 C-167.14673231 102.28004367 -165.96038713 99.961945 -164.77734375 97.640625 C-160.91848663 90.24008999 -157.44047951 85.82829651 -150 82 C-148.75411039 81.31161765 -147.51084677 80.6184717 -146.26953125 79.921875 C-143.24585644 78.22808319 -140.21310136 76.55199785 -137.17578125 74.8828125 C-131.60654569 71.80223208 -126.11460899 68.5947756 -120.625 65.375 C-111.78264438 60.19177087 -102.90578309 55.07312118 -94 50 C-84.27998623 44.46129264 -74.59349644 38.86853515 -64.9375 33.21875 C-56.56475102 28.32169125 -48.17053013 23.46253408 -39.75439453 18.64038086 C-34.20855239 15.45693537 -28.69906315 12.22736608 -23.234375 8.90625 C-21.60048828 7.92301758 -21.60048828 7.92301758 -19.93359375 6.91992188 C-17.86007357 5.66944928 -15.79446418 4.40573356 -13.73828125 3.12695312 C-12.34416016 2.29067383 -12.34416016 2.29067383 -10.921875 1.4375 C-9.70902832 0.69306641 -9.70902832 0.69306641 -8.47167969 -0.06640625 C-5.23665814 -1.28832668 -3.31349816 -0.87538816 0 0 Z " fill="#EBE7F7" transform="translate(379,1)"/>
<path d="M0 0 C7.86581434 7.86581434 7.01326801 15.00043231 7.11352539 25.98364258 C7.11336994 28.45394446 7.10789436 30.92425058 7.09765625 33.39453125 C7.0962413 34.70789963 7.09482635 36.02126801 7.09336853 37.37443542 C7.0896019 40.81843063 7.07982378 44.26238174 7.06866455 47.70635986 C7.05832243 51.23978072 7.05384386 54.7732089 7.04882812 58.30664062 C7.03819446 65.20444487 7.02119111 72.1022203 7 79 C14.73103552 74.78974843 22.44184047 70.54705568 30.125 66.25 C31.20942383 65.64526855 32.29384766 65.04053711 33.41113281 64.41748047 C38.38962976 61.63061247 43.34506262 58.8212282 48.2265625 55.8671875 C48.99983887 55.40022461 49.77311523 54.93326172 50.56982422 54.45214844 C51.98121885 53.59298369 53.38694506 52.72440755 54.78564453 51.84472656 C58.28606302 49.71167321 60.85969223 48.27023352 65 49 C67.48002593 51.48002593 67.29694693 52.32832513 67.3125 55.75 C67.15206583 61.95345463 65.72896977 65.33613788 61.19921875 69.6953125 C56.45239804 73.68207934 51.10100633 76.58920087 45.70159912 79.59561157 C43.83494805 80.64757146 41.98919856 81.73022741 40.14501953 82.82104492 C34.38728815 86.19443797 28.96218501 89.17874103 22.5625 91.19921875 C16.42224139 93.34339542 11.34717999 95.13169435 8 101 C5.71430282 109.98678405 6.01094065 119.67555946 6.25341797 128.87817383 C6.27200867 129.82663177 6.29059937 130.77508972 6.30975342 131.75228882 C6.35745747 133.56426571 6.44013256 135.37575268 6.56231689 137.18423462 C6.76078622 143.16284838 6.76078622 143.16284838 4.50630188 145.64363098 C2.7218402 146.93663064 0.95862194 147.99483444 -1 149 C-1.85722656 149.50144531 -2.71445313 150.00289062 -3.59765625 150.51953125 C-4.41105469 150.94621094 -5.22445312 151.37289062 -6.0625 151.8125 C-14.14046418 156.13173799 -22.09055935 160.67477031 -29.96875 165.34765625 C-31.35412126 166.16934739 -32.7395388 166.99096052 -34.125 167.8125 C-35.17324951 168.43415039 -35.17324951 168.43415039 -36.24267578 169.06835938 C-42.73095892 172.89100426 -49.32468573 176.51159754 -55.96142578 180.06958008 C-60.80079049 182.68962146 -65.3657149 185.54117186 -69.91552734 188.63476562 C-72.69103731 190.45259787 -75.57674947 191.93360319 -78.5625 193.375 C-79.59503906 193.87773437 -80.62757813 194.38046875 -81.69140625 194.8984375 C-82.45324219 195.26195312 -83.21507812 195.62546875 -84 196 C-86.48659621 193.51340379 -87.0343111 191.39516054 -88.125 188.0625 C-88.47820312 187.00160156 -88.83140625 185.94070313 -89.1953125 184.84765625 C-90 182 -90 182 -90 179 C-90.66 179 -91.32 179 -92 179 C-91.48929447 173.90177068 -90.36461968 170.16072984 -87.97265625 165.640625 C-87.66833679 165.05852264 -87.36401733 164.47642029 -87.05047607 163.87667847 C-86.06421911 161.99580401 -85.06358199 160.12301906 -84.0625 158.25 C-83.37168543 156.93914192 -82.68183299 155.62777637 -81.99291992 154.31591797 C-80.62667294 151.71826965 -79.25481965 149.12373019 -77.87695312 146.53222656 C-76.31108404 143.58542715 -74.75329072 140.63476353 -73.203125 137.6796875 C-71.6253614 134.6722036 -70.04338425 131.66702447 -68.45703125 128.6640625 C-65.61923394 123.28583837 -62.80999964 117.89278515 -60 112.5 C-56.36958052 105.53345723 -52.72767802 98.57331793 -49.0625 91.625 C-45.1805243 84.26437076 -41.33514361 76.88512986 -37.5 69.5 C-33.27177404 61.35793258 -29.02705813 53.22521152 -24.74267578 45.11254883 C-22.47714218 40.81921149 -20.228335 36.51778592 -17.99609375 32.20703125 C-2.71299391 2.71299391 -2.71299391 2.71299391 0 0 Z " fill="#D5CCF0" transform="translate(221,88)"/>
<path d="M0 0 C1.175625 0.0825 2.35125 0.165 3.5625 0.25 C6.05827705 3.99366557 6.29876385 6.91766853 5.5625 11.25 C1.41283293 21.57591572 -9.29770561 26.52202864 -18.4375 31.75 C-20.58991262 32.99337037 -22.74225445 34.23686328 -24.89453125 35.48046875 C-25.98588379 36.10872559 -27.07723633 36.73698242 -28.20166016 37.38427734 C-33.18684604 40.25863908 -38.15586901 43.16050079 -43.125 46.0625 C-44.10082031 46.63162109 -45.07664062 47.20074219 -46.08203125 47.78710938 C-54.66241418 52.79233275 -63.23163894 57.81649994 -71.79989624 62.84243774 C-80.97198913 68.22234895 -90.1526275 73.58734887 -99.33984375 78.94140625 C-106.59280925 83.16989477 -113.83748897 87.41235485 -121.07922363 91.66003418 C-130.94477792 97.44664222 -140.81193272 103.230492 -150.6875 109 C-151.64462891 109.56009766 -152.60175781 110.12019531 -153.58789062 110.69726562 C-155.36655608 111.73556 -157.14767428 112.76966824 -158.93164062 113.79882812 C-160.60514758 114.76797518 -162.27059836 115.75116584 -163.92773438 116.74804688 C-164.70955078 117.20759766 -165.49136719 117.66714844 -166.296875 118.140625 C-167.3173291 118.75212402 -167.3173291 118.75212402 -168.35839844 119.37597656 C-170.91924506 120.45251847 -172.68732742 120.62115412 -175.4375 120.25 C-178.15970851 116.16668723 -178.16887789 113.04285936 -177.4375 108.25 C-173.55027429 97.8337447 -161.72614381 93.14765428 -152.6875 87.9375 C-150.55707334 86.70219938 -148.42687515 85.46650466 -146.296875 84.23046875 C-145.18119141 83.58384277 -144.06550781 82.9372168 -142.91601562 82.27099609 C-137.52679733 79.14339953 -132.15467853 75.98659351 -126.78112793 72.83218384 C-117.34122003 67.29108978 -107.89473382 61.76148471 -98.4375 56.25 C-89.70111962 51.15810982 -80.9729009 46.05243494 -72.25 40.9375 C-71.64467438 40.58255463 -71.03934875 40.22760925 -70.41567993 39.86190796 C-66.08940198 37.3249769 -61.76341863 34.78754371 -57.4375 32.25 C-53.10903483 29.71096252 -48.78046748 27.17209957 -44.45162964 24.63369751 C-43.24025841 23.92330838 -42.02893385 23.21283966 -40.81765747 22.50228882 C-34.32336736 18.69276928 -27.82523298 14.89010713 -21.31640625 11.10546875 C-19.63865112 10.12936646 -19.63865112 10.12936646 -17.92700195 9.13354492 C-15.81307051 7.90444091 -13.69835945 6.6766765 -11.58276367 5.45043945 C-10.65310791 4.90991943 -9.72345215 4.36939941 -8.765625 3.8125 C-7.9499707 3.33941406 -7.13431641 2.86632812 -6.29394531 2.37890625 C-2.70548985 0.1967629 -2.70548985 0.1967629 0 0 Z " fill="#453A6D" transform="translate(348.4375,287.75)"/>
<path d="M0 0 C1.875 1.4375 1.875 1.4375 3 4 C3.28356421 9.87545048 1.93027295 15.50403201 -2 20 C-8.94939707 25.42289472 -16.95363759 29.57635864 -24.5625 34 C-25.8562665 34.75495698 -27.14988392 35.51016948 -28.44335938 36.265625 C-31.69011429 38.16108998 -34.93864896 40.05347912 -38.18780518 41.94482422 C-40.86440231 43.50331033 -43.53963412 45.06413368 -46.21484375 46.625 C-49.10916287 48.31365575 -52.00360293 50.00209991 -54.89868164 51.68945312 C-62.77343754 56.27995992 -70.63775529 60.88811478 -78.5 65.5 C-88.29275873 71.24429835 -98.09329022 76.97495917 -107.90234375 82.69140625 C-116.38921478 87.63926333 -124.86447842 92.60678012 -133.33758545 97.57815552 C-139.91017724 101.43438767 -146.48509202 105.28645762 -153.0703125 109.12109375 C-154.17697266 109.765625 -155.28363281 110.41015625 -156.42382812 111.07421875 C-158.50796462 112.28731589 -160.5925759 113.49959784 -162.67773438 114.7109375 C-163.60134766 115.24847656 -164.52496094 115.78601563 -165.4765625 116.33984375 C-166.28174316 116.80769287 -167.08692383 117.27554199 -167.91650391 117.75756836 C-169.64272764 118.78695113 -171.3277078 119.88513854 -173 121 C-175.5625 120.8125 -175.5625 120.8125 -178 120 C-180.50843048 116.23735427 -180.58443895 113.34822579 -180 109 C-178.63422914 103.5160651 -175.94952015 100.67827017 -171.1875 97.7578125 C-169.71059692 96.84841919 -169.71059692 96.84841919 -168.20385742 95.9206543 C-162.59365387 92.55743923 -156.96442108 89.2298885 -151.3125 85.9375 C-150.02788688 85.18703365 -148.74338359 84.43637927 -147.45898438 83.68554688 C-144.239791 81.80437649 -141.01917188 79.92566485 -137.7979126 78.04803467 C-135.12917616 76.49238157 -132.46111177 74.93557687 -129.79296875 73.37890625 C-126.89586015 71.68890604 -123.99859335 69.99918018 -121.10083008 68.31030273 C-113.22627819 63.71980656 -105.36208814 59.11179338 -97.5 54.5 C-88.67309264 49.32225686 -79.84146149 44.15287128 -71 39 C-62.80206038 34.21987836 -54.60477096 29.43864283 -46.41430664 24.64572144 C-45.18575103 23.92707309 -43.95691248 23.2089082 -42.7277832 22.49124146 C-36.03859388 18.58485766 -29.37837659 14.63979114 -22.77734375 10.5859375 C-21.62367314 9.88068539 -20.46994702 9.17552408 -19.31616211 8.47045898 C-17.15610751 7.14624676 -15.00164293 5.81285865 -12.85375977 4.46899414 C-11.89139404 3.87981201 -10.92902832 3.29062988 -9.9375 2.68359375 C-9.10089844 2.16337646 -8.26429688 1.64315918 -7.40234375 1.10717773 C-4.6912169 -0.1423101 -2.95154917 -0.32930249 0 0 Z " fill="#453A6D" transform="translate(351,227)"/>
<path d="M0 0 C2.49577705 3.74366557 2.73626385 6.66766853 2 11 C-2.10822345 21.22278859 -12.63010885 26.13684791 -21.6875 31.3125 C-23.82709643 32.54770343 -25.9664067 33.78340264 -28.10546875 35.01953125 C-29.22743652 35.66615723 -30.3494043 36.3127832 -31.50537109 36.97900391 C-36.90590461 40.09698048 -42.28045071 43.25937513 -47.65737915 46.41781616 C-50.739465 48.22794628 -53.82278658 50.03596775 -56.90625 51.84375 C-57.5089119 52.19708908 -58.11157379 52.55042816 -58.73249817 52.91447449 C-64.48323231 56.28506629 -70.24090512 59.64371592 -76 63 C-84.73638038 68.09189018 -93.4645991 73.19756506 -102.1875 78.3125 C-102.79282562 78.66744537 -103.39815125 79.02239075 -104.02182007 79.38809204 C-108.34809802 81.9250231 -112.67408137 84.46245629 -117 87 C-121.32828897 89.53893413 -125.65666483 92.07771986 -129.98532104 94.61602783 C-131.19752828 95.32687573 -132.40970711 96.03777206 -133.62185669 96.74871826 C-140.09325053 100.54406437 -146.56770546 104.33401213 -153.05078125 108.109375 C-154.71500122 109.07870972 -154.71500122 109.07870972 -156.4128418 110.06762695 C-158.50102332 111.28320666 -160.58970079 112.49793494 -162.67895508 113.71166992 C-163.60216553 114.24896729 -164.52537598 114.78626465 -165.4765625 115.33984375 C-166.28174316 115.80769287 -167.08692383 116.27554199 -167.91650391 116.75756836 C-169.64272764 117.78695113 -171.3277078 118.88513854 -173 120 C-176.0625 120.3125 -176.0625 120.3125 -179 120 C-181.72220851 115.91668723 -181.73137789 112.79285936 -181 108 C-176.9854993 97.24269715 -164.45623717 92.43444559 -155.125 87.125 C-152.80389396 85.79562723 -150.4833645 84.46532307 -148.1640625 83.1328125 C-147.57195984 82.79276184 -146.97985718 82.45271118 -146.36981201 82.10235596 C-140.04396815 78.46210299 -133.77100947 74.73376506 -127.5 71 C-117.63661074 65.13140414 -107.72184881 59.36079587 -97.76953125 53.64453125 C-89.97485058 49.15953405 -82.22851258 44.59796176 -74.5 40 C-64.53282505 34.0703256 -54.51539569 28.23591907 -44.4597168 22.45776367 C-36.30826494 17.76900809 -28.1997532 13.01131867 -20.11401367 8.21020508 C-18.47987676 7.24005939 -16.84469658 6.27166785 -15.20825195 5.30541992 C-13.78666734 4.46504259 -12.36825462 3.6192643 -10.95385742 2.7668457 C-7.0836979 0.4723831 -4.55639024 -0.74173795 0 0 Z " fill="#453A6D" transform="translate(352,167)"/>
<path d="M0 0 C1.98006681 6.07942387 1.19662028 12.82433903 0 19 C-1.83094952 21.77521279 -3.99940884 22.69956618 -7 24 C-8.69199319 24.92936621 -10.37912129 25.86761978 -12.0625 26.8125 C-13.00996094 27.31910156 -13.95742187 27.82570312 -14.93359375 28.34765625 C-22.03921608 32.17654573 -29.0267465 36.23006225 -35.96875 40.34765625 C-37.35412126 41.16934739 -38.7395388 41.99096052 -40.125 42.8125 C-40.82383301 43.22693359 -41.52266602 43.64136719 -42.24267578 44.06835938 C-48.73095892 47.89100426 -55.32468573 51.51159754 -61.96142578 55.06958008 C-66.80079049 57.68962146 -71.3657149 60.54117186 -75.91552734 63.63476562 C-78.69103731 65.45259787 -81.57674947 66.93360319 -84.5625 68.375 C-85.59503906 68.87773437 -86.62757813 69.38046875 -87.69140625 69.8984375 C-88.45324219 70.26195312 -89.21507812 70.62546875 -90 71 C-92.8241472 68.1758528 -93.53673561 64.79018978 -94.6875 61.0625 C-94.92533203 60.33353516 -95.16316406 59.60457031 -95.40820312 58.85351562 C-97.12270503 53.3681151 -97.12270503 53.3681151 -96 50 C-95.01664673 50.11311523 -95.01664673 50.11311523 -94.01342773 50.22851562 C-85.38899212 50.78242733 -80.23655845 48.00991647 -73.0625 43.5 C-71.3517895 42.4686437 -69.64104331 41.43734282 -67.92855835 40.40893555 C-66.14377655 39.33388379 -64.36504422 38.24927396 -62.58642578 37.1640625 C-57.36924091 33.99721374 -52.05704327 30.99790886 -46.74707031 27.99029541 C-43.83701059 26.34078035 -40.93197259 24.68249222 -38.02734375 23.0234375 C-37.45273407 22.69536102 -36.87812439 22.36728455 -36.28610229 22.02926636 C-32.05724724 19.61179661 -27.84095363 17.17317858 -23.62890625 14.7265625 C-23.03113373 14.37978455 -22.43336121 14.03300659 -21.81747437 13.67572021 C-18.96256387 12.01952349 -16.1095398 10.3603491 -13.25976562 8.6953125 C-11.74092773 7.81359375 -11.74092773 7.81359375 -10.19140625 6.9140625 C-8.86411499 6.1398999 -8.86411499 6.1398999 -7.51000977 5.35009766 C-5.05756198 4.03096175 -2.60454744 2.97915317 0 2 C0 1.34 0 0.68 0 0 Z " fill="#C6BDE5" transform="translate(227,213)"/>
<path d="M0 0 C2.375 1.5625 2.375 1.5625 4 3 C2.02 3.66 0.04 4.32 -2 5 C-2 5.66 -2 6.32 -2 7 C-3.43294498 7.84114171 -4.87154405 8.67265687 -6.3125 9.5 C-7.11300781 9.9640625 -7.91351563 10.428125 -8.73828125 10.90625 C-11 12 -11 12 -14 12 C-14 12.66 -14 13.32 -14 14 C-14.74382935 14.40557129 -14.74382935 14.40557129 -15.50268555 14.81933594 C-28.75988176 22.0568763 -41.91194975 29.46133676 -55 37 C-56.00305176 37.57766113 -57.00610352 38.15532227 -58.03955078 38.75048828 C-64.58240613 42.52010549 -71.12192324 46.2954834 -77.66064453 50.07226562 C-80.96932895 51.98229429 -84.27935039 53.8899836 -87.58984375 55.796875 C-97.20338845 61.33548668 -106.81295522 66.88033168 -116.39453125 72.47412109 C-118.39986435 73.64443503 -120.40634918 74.81277804 -122.4140625 75.97900391 C-127.14111395 78.72774952 -131.84550482 81.50449828 -136.51171875 84.35546875 C-137.80928101 85.13712402 -137.80928101 85.13712402 -139.13305664 85.93457031 C-140.74348266 86.90584322 -142.34620826 87.89005267 -143.93920898 88.88964844 C-147.52366482 91.03457515 -149.25104304 92.04566811 -153.5234375 91.78515625 C-154.34070313 91.52605469 -155.15796875 91.26695313 -156 91 C-156.495 88.525 -156.495 88.525 -157 86 C-156.36835938 85.64921387 -155.73671875 85.29842773 -155.0859375 84.93701172 C-142.39427938 77.88024864 -129.76263087 70.74112159 -117.23632812 63.39404297 C-109.52204876 58.87399656 -101.76871892 54.42545469 -94 50 C-84.27999345 44.46127999 -74.59349657 38.86853523 -64.9375 33.21875 C-56.56475102 28.32169125 -48.17053013 23.46253408 -39.75439453 18.64038086 C-34.20855239 15.45693537 -28.69906315 12.22736608 -23.234375 8.90625 C-21.60048828 7.92301758 -21.60048828 7.92301758 -19.93359375 6.91992188 C-17.86007357 5.66944928 -15.79446418 4.40573356 -13.73828125 3.12695312 C-12.34416016 2.29067383 -12.34416016 2.29067383 -10.921875 1.4375 C-9.70902832 0.69306641 -9.70902832 0.69306641 -8.47167969 -0.06640625 C-5.2622512 -1.27865976 -3.28126393 -0.86628075 0 0 Z " fill="#DDD6F3" transform="translate(379,1)"/>
<path d="M0 0 C2.48002593 2.48002593 2.29694693 3.32832513 2.3125 6.75 C2.15206583 12.95345463 0.72896977 16.33613788 -3.80078125 20.6953125 C-9.07226041 25.12273027 -15.13437436 28.28718696 -21.125 31.625 C-22.3680201 32.32476519 -23.61061035 33.02529444 -24.8527832 33.7265625 C-27.35825286 35.14022616 -29.8657003 36.55028437 -32.37451172 37.95800781 C-38.56624496 41.43794154 -44.71386304 44.99561331 -50.86572266 48.54541016 C-51.66671387 49.0047998 -52.46770508 49.46418945 -53.29296875 49.9375 C-53.9893042 50.33839844 -54.68563965 50.73929688 -55.40307617 51.15234375 C-57 52 -57 52 -58 52 C-58.38150002 48.66988859 -58.60927788 45.34534872 -58.8125 42 C-58.92142578 41.06542969 -59.03035156 40.13085938 -59.14257812 39.16796875 C-59.28536372 36.02668575 -59.15142557 33.93835851 -58 31 C-54.62046496 27.98914151 -50.8813887 25.97278888 -46.86758423 23.95489502 C-44.44680002 22.71714909 -42.11106091 21.35404393 -39.76530457 19.98080444 C-36.83941816 18.27041744 -33.88608086 16.60834899 -30.9375 14.9375 C-29.15774714 13.92665885 -27.37838156 12.9151455 -25.59951782 11.90274048 C-23.86315843 10.91559844 -22.12470732 9.93213862 -20.38623047 8.94873047 C-18.11824743 7.64353648 -15.86706179 6.30873516 -13.63330078 4.94580078 C-12.57997559 4.30497559 -11.52665039 3.66415039 -10.44140625 3.00390625 C-9.04643921 2.1368103 -9.04643921 2.1368103 -7.62329102 1.25219727 C-4.7794433 -0.10528016 -3.10765616 -0.42535608 0 0 Z " fill="#453A6C" transform="translate(286,137)"/>
<path d="M0 0 C4.455 0.99 4.455 0.99 9 2 C8.01 6.29 7.02 10.58 6 15 C2.5478832 12.6985888 2.37998974 11.90885192 1.3125 8.0625 C1.06113281 7.18722656 0.80976563 6.31195313 0.55078125 5.41015625 C0 3 0 3 0 0 Z " fill="#AB9EDA" transform="translate(130,263)"/>
</svg>
