<?xml version="1.0" encoding="UTF-8"?>
<svg version="1.1" xmlns="http://www.w3.org/2000/svg" width="512" height="512">
<path d="M0 0 C3.46453375 2.87150545 5.78167359 5.95690936 7.625 10.0625 C8.94696913 13.20538348 8.94696913 13.20538348 11.82275391 13.95605469 C14.25 16 14.25 16 14.68133545 18.26599121 C14.81100573 21.40094094 14.78333442 24.50376285 14.7109375 27.640625 C14.70789647 30.0143224 14.70530652 32.38802041 14.703125 34.76171875 C14.66974546 38.50562683 14.62501438 42.24903293 14.56933594 45.99267578 C14.52450977 49.60499711 14.52208815 53.21556904 14.5234375 56.828125 C14.49349701 57.94189514 14.46355652 59.05566528 14.43270874 60.20318604 C14.37247286 66.02032011 14.37247286 66.02032011 16.7752533 71.14390564 C18.61543609 72.9765186 18.61543609 72.9765186 20.56860352 74.57632446 C26.659894 79.73395464 27.12093818 90.03834776 27.9375 97.4375 C28.16824541 99.37397667 28.40121703 101.31018975 28.63671875 103.24609375 C28.73170654 104.08841553 28.82669434 104.9307373 28.92456055 105.79858398 C29.20979079 108.16952255 29.20979079 108.16952255 30.25 111 C44.64254355 103.00699814 58.9490999 94.89172785 73.15234375 86.56640625 C80.57592617 82.2164727 88.02926791 77.91824354 95.49487305 73.64086914 C101.04091785 70.45719115 106.55068716 67.22751783 112.015625 63.90625 C113.10488281 63.25076172 114.19414062 62.59527344 115.31640625 61.91992188 C117.38992643 60.66944928 119.45553582 59.40573356 121.51171875 58.12695312 C122.44113281 57.56943359 123.37054688 57.01191406 124.328125 56.4375 C125.13668945 55.94121094 125.94525391 55.44492188 126.77832031 54.93359375 C130.03868956 53.70209908 131.91087096 54.09076125 135.25 55 C137.72167969 56.16064453 137.72167969 56.16064453 140.171875 57.6328125 C141.56575439 58.45930298 141.56575439 58.45930298 142.98779297 59.30249023 C143.98182129 59.90391846 144.97584961 60.50534668 146 61.125 C148.16360121 62.41093269 150.32768002 63.6960621 152.4921875 64.98046875 C153.60819336 65.6461084 154.72419922 66.31174805 155.87402344 66.99755859 C161.26253101 70.19372139 166.69352595 73.31510214 172.125 76.4375 C174.30998436 77.69646096 176.49487972 78.95557638 178.6796875 80.21484375 C180.30729004 81.15239502 180.30729004 81.15239502 181.96777344 82.10888672 C187.39659942 85.23680148 192.82319281 88.36858448 198.25 91.5 C200.41665583 92.75001879 202.5833225 94.00001878 204.75 95.25 C209.08333333 97.75 213.41666667 100.25 217.75 102.75 C218.82443359 103.36979736 219.89886719 103.98959473 221.00585938 104.62817383 C223.15323373 105.86718039 225.30037267 107.10659503 227.44726562 108.34643555 C232.5407183 111.2872612 237.63655143 114.22372619 242.74072266 117.14590454 C245.1615662 118.53218831 247.58107889 119.92078547 250.00048828 121.30957031 C251.71647617 122.29328204 253.43439193 123.27362835 255.15234375 124.25390625 C256.18488281 124.846875 257.21742188 125.43984375 258.28125 126.05078125 C259.19455078 126.57325439 260.10785156 127.09572754 261.04882812 127.6340332 C263.25 129 263.25 129 265.25 131 C266.42400466 137.53722992 266.70099799 145.51172678 265.25 152 C262.57932458 155.38347002 260.22837842 156.46495145 256.25 158 C253.73127697 159.39187097 251.27939239 160.89365687 248.8125 162.375 C242.60912632 166 242.60912632 166 240.25 166 C240.25368717 166.66721982 240.25737434 167.33443964 240.26117325 168.02187824 C240.34945497 184.24596584 240.41567569 200.46997752 240.45724869 216.69424915 C240.47788672 224.54015025 240.50603078 232.38589116 240.55175781 240.23168945 C240.59158788 247.06894415 240.61742379 253.90608286 240.62635398 260.74345034 C240.63157532 264.36489287 240.64387242 267.98600355 240.67292023 271.60733986 C240.70506153 275.64698727 240.7059619 279.6860553 240.70410156 283.72583008 C240.71848267 284.93064026 240.73286377 286.13545044 240.74768066 287.37677002 C240.74218201 288.47473404 240.73668335 289.57269806 240.73101807 290.70393372 C240.73470524 291.65983304 240.73839241 292.61573236 240.74219131 293.60059834 C240.25 296 240.25 296 238.37228012 297.8061018 C235.82165346 299.24096827 234.16378131 299.40165044 231.25 299.375 C230.404375 299.38273437 229.55875 299.39046875 228.6875 299.3984375 C225.78159286 298.92343345 224.37209747 298.01402769 222.25 296 C222.25 295.34 222.25 294.68 222.25 294 C221.59 294.33 220.93 294.66 220.25 295 C220.24413376 295.88505219 220.23826752 296.77010437 220.23222351 297.68197632 C220.17439 306.01087111 220.10236763 314.33949504 220.01428509 322.66812706 C219.96950136 326.95028183 219.93026328 331.23233969 219.90356445 335.51464844 C219.87761076 339.64507345 219.83726576 343.77512713 219.78681374 347.90532303 C219.77009103 349.48337826 219.75861051 351.0614978 219.75238609 352.63962936 C219.74280311 354.84527538 219.71481665 357.04995978 219.68237305 359.25537109 C219.67126999 360.51223724 219.66016693 361.76910339 219.64872742 363.0640564 C219.45135735 364.51734848 219.45135735 364.51734848 219.25 366 C215.57653229 368.44897847 213.58643601 368.31537716 209.25 368 C206.53261712 365.28261712 206.97662064 363.79392676 206.93115234 359.98974609 C206.90134781 358.09801163 206.90134781 358.09801163 206.87094116 356.1680603 C206.85906386 354.78652115 206.84740105 353.40498014 206.8359375 352.0234375 C206.8172329 350.61380876 206.79766002 349.20419129 206.7772522 347.79458618 C206.72584988 344.08254638 206.68626781 340.37047023 206.64910889 336.65826416 C206.60911978 332.87104241 206.55800429 329.08397285 206.5078125 325.296875 C206.41095743 317.86468762 206.32658363 310.43242683 206.25 303 C205.27089912 303.57134674 205.27089912 303.57134674 204.27201843 304.15423584 C196.93198394 308.437252 189.59127393 312.71910863 182.25 317 C181.47819397 317.45012451 180.70638794 317.90024902 179.91119385 318.36401367 C175.96485424 320.66493032 172.01479581 322.95932253 168.0625 325.25 C166.97259766 325.88550781 165.88269531 326.52101563 164.75976562 327.17578125 C163.71111328 327.78292969 162.66246094 328.39007813 161.58203125 329.015625 C160.67171143 329.54446289 159.7613916 330.07330078 158.82348633 330.61816406 C156.34619526 331.94834787 153.86600654 332.97823203 151.25 334 C151.25444122 334.88505219 151.25888245 335.77010437 151.26345825 336.68197632 C151.30348307 345.0106793 151.33395792 353.33935012 151.35362434 361.66812706 C151.36407483 365.95034248 151.37825697 370.23247864 151.40087891 374.51464844 C151.42256238 378.64488126 151.43455909 382.77503769 151.43975449 386.90532303 C151.44345835 388.48343738 151.4506908 390.06154741 151.46146011 391.63962936 C151.47591549 393.84496951 151.47798048 396.04999142 151.47705078 398.25537109 C151.481492 399.51223724 151.48593323 400.76910339 151.49050903 402.0640564 C151.25 405 151.25 405 149.25 407 C147.12109375 407.23046875 147.12109375 407.23046875 144.6875 407.1875 C143.88183594 407.18105469 143.07617188 407.17460937 142.24609375 407.16796875 C140.25 407 140.25 407 139.25 406 C139.25257526 403.89347589 139.32578658 401.78702394 139.42553711 399.68286133 C139.48496648 398.31303003 139.54299945 396.94313764 139.59983826 395.57319641 C139.64577527 394.47690635 139.64577527 394.47690635 139.6926403 393.35846901 C139.86740573 388.66158086 139.94024549 383.96194725 140.02020931 379.26263905 C140.09591302 375.13937437 140.21440048 371.02680451 140.43286133 366.90844727 C142.03132635 349.04100866 142.03132635 349.04100866 135.84698486 333.11224365 C130.08085936 328.44168318 123.72638551 325.42393249 116.76295471 322.94389343 C114.25 322 114.25 322 111.25 320 C111.26571045 320.64549805 111.2814209 321.29099609 111.29760742 321.95605469 C111.36005802 324.88728029 111.3990223 327.81836579 111.4375 330.75 C111.47520508 332.27367187 111.47520508 332.27367187 111.51367188 333.828125 C111.52333984 334.8078125 111.53300781 335.7875 111.54296875 336.796875 C111.5586792 337.69760742 111.57438965 338.59833984 111.59057617 339.52636719 C111.17546309 342.54136773 110.39869176 343.8603719 108.25 346 C102.11260761 348.16227581 95.55572561 346.59026894 89.4375 345.125 C88.60541016 344.93808594 87.77332031 344.75117188 86.91601562 344.55859375 C83.3479938 343.75171151 79.79905787 342.88726447 76.25 342 C76.25 348.93 76.25 355.86 76.25 363 C74.02109005 364.11445498 72.71944894 364.16480286 70.25 364.1875 C69.54875 364.20167969 68.8475 364.21585937 68.125 364.23046875 C66.25 364 66.25 364 64.25 362 C63.93115234 359.84521484 63.93115234 359.84521484 63.8359375 357.2109375 C63.79726563 356.26992188 63.75859375 355.32890625 63.71875 354.359375 C63.67234375 352.88210938 63.67234375 352.88210938 63.625 351.375 C63.56699219 349.88613281 63.56699219 349.88613281 63.5078125 348.3671875 C63.4133686 345.91164615 63.32780125 343.4561159 63.25 341 C61.64257051 349.94619169 61.64257051 349.94619169 61.3125 359 C61.42385927 362.7862151 60.63233276 364.95061407 58.25 368 C57.25 369 57.25 369 53.375 369.375 C41.3129617 369.21947229 22.10150597 364.85150597 13.25 356 C12.92 380.09 12.59 404.18 12.25 429 C6.80272233 431.17891107 3.20878718 431.89291432 -2.43327332 430.19023132 C-5.21909875 427.55651446 -5.14137785 426.80232325 -5.35127258 423.08357239 C-5.3658255 420.93700123 -5.35234604 418.79013852 -5.31762695 416.64379883 C-5.31872215 414.88749901 -5.31872215 414.88749901 -5.31983948 413.09571838 C-5.31695089 409.88482005 -5.29186215 406.67500851 -5.25696969 403.4643271 C-5.22573198 400.10913448 -5.22277754 396.75392094 -5.21684265 393.39860535 C-5.20129641 387.04487439 -5.16025804 380.69157313 -5.1100952 374.33803147 C-5.05422548 367.10478666 -5.02672132 359.87152141 -5.00161803 352.63811457 C-4.94934237 337.75850354 -4.86138557 322.87929472 -4.75 308 C-5.52257645 308.18614868 -6.29515289 308.37229736 -7.09114075 308.56408691 C-10.63632588 309.14531083 -11.95855967 308.17438483 -15.01171875 306.34375 C-16.03458984 305.74111328 -17.05746094 305.13847656 -18.11132812 304.51757812 C-19.20896484 303.85177734 -20.30660156 303.18597656 -21.4375 302.5 C-22.59869608 301.81030896 -23.76082303 301.12218302 -24.92382812 300.43554688 C-27.34008344 299.00734813 -29.75218654 297.57248601 -32.16162109 296.1328125 C-37.65429021 292.85839712 -43.20480553 289.68433141 -48.75 286.5 C-50.90132154 285.25959986 -53.05236185 284.01871184 -55.203125 282.77734375 C-56.27369141 282.15972168 -57.34425781 281.54209961 -58.44726562 280.90576172 C-61.27547846 279.273811 -64.10346054 277.6414615 -66.93127441 276.00881958 C-68.66636728 275.00708606 -70.40153257 274.00547811 -72.13671875 273.00390625 C-74.29050668 271.76066281 -76.44416471 270.51719428 -78.59765625 269.2734375 C-84.10260312 266.09613354 -89.61433192 262.93106007 -95.13378906 259.77905273 C-95.77381866 259.41343987 -96.41384827 259.047827 -97.07327271 258.67113495 C-98.6321295 257.78066507 -100.19105728 256.89031944 -101.75 256 C-101.74585193 256.82302597 -101.74585193 256.82302597 -101.74162006 257.66267872 C-101.6753937 271.00767448 -101.62592722 284.35264149 -101.59456348 297.6977663 C-101.57888767 304.15135623 -101.55761429 310.60482781 -101.52368164 317.05834961 C-101.49115676 323.28287613 -101.47316143 329.50728862 -101.46536827 335.73189354 C-101.45981241 338.11022933 -101.44896363 340.48855867 -101.43280983 342.86684608 C-101.41112719 346.19042217 -101.40802927 349.51352312 -101.40942383 352.8371582 C-101.398638 353.8269014 -101.38785217 354.81664459 -101.3767395 355.83638 C-101.38292549 357.19303772 -101.38292549 357.19303772 -101.38923645 358.57710266 C-101.38647107 359.36339208 -101.38370569 360.14968149 -101.38085651 360.95979786 C-101.8492413 363.54849218 -102.6704935 364.42962047 -104.75 366 C-107.5625 366.3984375 -107.5625 366.3984375 -110.75 366.375 C-112.3278125 366.38660156 -112.3278125 366.38660156 -113.9375 366.3984375 C-117.14868803 365.9435192 -117.83519156 365.53256477 -119.75 363 C-120.07330799 360.82431984 -120.07330799 360.82431984 -120.00068665 358.24697876 C-119.98143127 357.26877167 -119.9621759 356.29056458 -119.94233704 355.28271484 C-119.90633896 354.21053711 -119.87034088 353.13835937 -119.83325195 352.03369141 C-119.78111798 349.69000117 -119.72940562 347.34630152 -119.67805481 345.00259399 C-119.64568033 343.75666096 -119.61330585 342.51072792 -119.57995033 341.22703934 C-119.43999643 335.31023427 -119.38188928 329.3926507 -119.31734884 323.47465587 C-119.21792058 314.39112415 -119.09689742 305.31125198 -118.82788086 296.23095703 C-118.62716234 289.44427122 -118.54374589 282.66365085 -118.52733421 275.8740654 C-118.50148173 273.29397621 -118.43639077 270.71395627 -118.33043861 268.13591385 C-117.71798823 256.28676106 -117.71798823 256.28676106 -120.75 245 C-126.18230759 239.22455453 -133.27681753 235.9275342 -140.5393095 232.99231529 C-142.75 232 -142.75 232 -144.75 230 C-144.97705078 228.12060547 -144.97705078 228.12060547 -144.9453125 225.8671875 C-144.93886719 225.06152344 -144.93242187 224.25585938 -144.92578125 223.42578125 C-144.90064453 222.16314453 -144.90064453 222.16314453 -144.875 220.875 C-144.86597656 220.02550781 -144.85695312 219.17601562 -144.84765625 218.30078125 C-144.82405647 216.20040116 -144.78818483 214.10016556 -144.75 212 C-143.7290625 211.44054687 -142.708125 210.88109375 -141.65625 210.3046875 C-130.51605027 204.17171439 -119.51039392 197.82414687 -108.5390625 191.39453125 C-107.5996582 190.84490723 -106.66025391 190.2952832 -105.69238281 189.72900391 C-103.59896159 188.49886707 -101.51024959 187.26070097 -99.42480469 186.01708984 C-98.34360352 185.37594238 -97.26240234 184.73479492 -96.1484375 184.07421875 C-95.16278809 183.48600342 -94.17713867 182.89778809 -93.16162109 182.29174805 C-90.75 181 -90.75 181 -88.75 181 C-88.75553076 180.4095414 -88.76106152 179.81908279 -88.76675987 179.21073151 C-88.89946278 164.82093869 -88.99864952 150.43120062 -89.06087303 136.0409317 C-89.09176654 129.08175128 -89.13385934 122.12298015 -89.20263672 115.1640625 C-89.26899493 108.44669477 -89.30371909 101.72983979 -89.31926346 95.01213074 C-89.33033913 92.45087497 -89.35196759 89.88964212 -89.38438034 87.3285675 C-89.42801702 83.73741638 -89.43393061 80.14801475 -89.43115234 76.55664062 C-89.452724 75.50071716 -89.47429565 74.4447937 -89.496521 73.35687256 C-89.4363224 66.15288622 -87.71764311 62.20168623 -82.75 57 C-82.08097656 56.28070313 -81.41195312 55.56140625 -80.72265625 54.8203125 C-73.92316384 48.78558918 -66.41304606 43.85790405 -58.75 39 C-57.81671875 38.40832031 -56.8834375 37.81664062 -55.921875 37.20703125 C-53.75 36 -53.75 36 -51.75 36 C-51.91757813 35.33355469 -52.08515625 34.66710937 -52.2578125 33.98046875 C-54.30679589 24.70817049 -53.68126604 16.31559617 -49.00390625 7.91015625 C-44.08457368 0.41621971 -38.87045617 -4.16386315 -30.25 -6.75 C-20.02577994 -7.77242201 -8.51224218 -6.21078411 0 0 Z M44.25 279 C41.72862993 280.47825736 39.20790957 281.95760644 36.6875 283.4375 C35.65979492 284.03981445 35.65979492 284.03981445 34.61132812 284.65429688 C33.08712828 285.54967885 31.57689264 286.46906524 30.07788086 287.40600586 C27.81984104 288.67879719 25.73748202 289.62927216 23.34594727 290.58032227 C19.0875308 292.43034323 15.16513178 294.27975702 12.25 298 C9.81271525 305.00248555 10.84446257 312.79938332 11.3125 320.0625 C11.38781823 322.09285275 11.45624618 324.12347351 11.51757812 326.15429688 C11.68218339 331.10952214 11.94040036 336.0518039 12.25 341 C13.01183594 340.7834375 13.77367187 340.566875 14.55859375 340.34375 C21.00634386 338.60503087 26.57786876 337.66639344 33.25 338 C35.42350028 328.27065977 37.58985551 318.53977922 39.74229431 308.80575562 C40.72231814 304.37512812 41.71089301 299.94657012 42.70703125 295.51953125 C43.07617981 293.84649943 43.44474826 292.17333941 43.8125 290.5 C43.98040039 289.7680542 44.14830078 289.0361084 44.32128906 288.28198242 C45.07478157 284.79729218 45.25665574 282.4027278 44.25 279 Z M76.25 300 C76.25 306.27 76.25 312.54 76.25 319 C78.23 319.33 80.21 319.66 82.25 320 C82.58 314.39 82.91 308.78 83.25 303 C78.93599434 299.82850141 78.93599434 299.82850141 76.25 300 Z " fill="#F6A149" transform="translate(195.75,44)"/>
<path d="M0 0 C8.94649049 0.32891509 15.96114177 1.42815362 22.25 8.1875 C28.73367593 16.56151197 29.70275271 24.55175779 30 35 C30.51385254 34.76812988 31.02770508 34.53625977 31.55712891 34.29736328 C33.91174844 33.23691006 36.26834724 32.18092659 38.625 31.125 C39.43324219 30.76019531 40.24148438 30.39539063 41.07421875 30.01953125 C46.92102164 27.40510719 52.50505841 25.13776998 58.875 24.1875 C63.42655014 23.34309477 66.57636791 21.71936681 70.30859375 19.0234375 C72 18 72 18 75 18 C75.0933823 34.7676616 75.16394909 51.53523904 75.20724869 68.30309772 C75.22788656 76.08846534 75.2560303 83.87367153 75.30175781 91.65893555 C75.34158839 98.44345254 75.36742391 105.22785264 75.37635398 112.0124833 C75.38157523 115.60598129 75.39387179 119.19914484 75.42292023 122.79253578 C75.45506255 126.80105134 75.45596187 130.80898303 75.45410156 134.81762695 C75.46848267 136.0130864 75.48286377 137.20854584 75.49768066 138.44023132 C75.49218201 139.52978119 75.48668335 140.61933105 75.48101807 141.74189758 C75.48470524 142.69042256 75.48839241 143.63894754 75.49219131 144.61621571 C75 147 75 147 73.12228012 148.80372906 C70.57142914 150.24157361 68.91532037 150.40166452 66 150.375 C65.154375 150.38273438 64.30875 150.39046875 63.4375 150.3984375 C60.53159286 149.92343345 59.12209747 149.01402769 57 147 C57 146.34 57 145.68 57 145 C56.34 145.33 55.68 145.66 55 146 C54.99413376 146.88505219 54.98826752 147.77010437 54.98222351 148.68197632 C54.92439 157.01087111 54.85236763 165.33949504 54.76428509 173.66812706 C54.71950136 177.95028183 54.68026328 182.23233969 54.65356445 186.51464844 C54.62761076 190.64507345 54.58726576 194.77512713 54.53681374 198.90532303 C54.52009103 200.48337826 54.50861051 202.0614978 54.50238609 203.63962936 C54.49280311 205.84527538 54.46481665 208.04995978 54.43237305 210.25537109 C54.41571846 212.14067032 54.41571846 212.14067032 54.39872742 214.0640564 C54.20135735 215.51734848 54.20135735 215.51734848 54 217 C50.32653229 219.44897847 48.33643601 219.31537716 44 219 C41.28261712 216.28261712 41.72662064 214.79392676 41.68115234 210.98974609 C41.65134781 209.09801163 41.65134781 209.09801163 41.62094116 207.1680603 C41.60906386 205.78652115 41.59740105 204.40498014 41.5859375 203.0234375 C41.5672329 201.61380876 41.54766002 200.20419129 41.5272522 198.79458618 C41.47584988 195.08254638 41.43626781 191.37047023 41.39910889 187.65826416 C41.35911978 183.87104241 41.30800429 180.08397285 41.2578125 176.296875 C41.16095743 168.86468762 41.07658363 161.43242683 41 154 C40.02089912 154.57134674 40.02089912 154.57134674 39.02201843 155.15423584 C31.68198394 159.437252 24.34127393 163.71910863 17 168 C16.22819397 168.45012451 15.45638794 168.90024902 14.66119385 169.36401367 C10.71485424 171.66493032 6.76479581 173.95932253 2.8125 176.25 C1.72259766 176.88550781 0.63269531 177.52101563 -0.49023438 178.17578125 C-2.06321289 179.08650391 -2.06321289 179.08650391 -3.66796875 180.015625 C-4.57828857 180.54446289 -5.4886084 181.07330078 -6.42651367 181.61816406 C-8.90380474 182.94834787 -11.38399346 183.97823203 -14 185 C-13.99555878 185.88505219 -13.99111755 186.77010437 -13.98654175 187.68197632 C-13.94651693 196.0106793 -13.91604208 204.33935012 -13.89637566 212.66812706 C-13.88592517 216.95034248 -13.87174303 221.23247864 -13.84912109 225.51464844 C-13.82743762 229.64488126 -13.81544091 233.77503769 -13.81024551 237.90532303 C-13.80654165 239.48343738 -13.7993092 241.06154741 -13.78853989 242.63962936 C-13.77408451 244.84496951 -13.77201952 247.04999142 -13.77294922 249.25537109 C-13.768508 250.51223724 -13.76406677 251.76910339 -13.75949097 253.0640564 C-14 256 -14 256 -16 258 C-18.12890625 258.23046875 -18.12890625 258.23046875 -20.5625 258.1875 C-21.36816406 258.18105469 -22.17382812 258.17460937 -23.00390625 258.16796875 C-25 258 -25 258 -26 257 C-25.99742474 254.89347589 -25.92421342 252.78702394 -25.82446289 250.68286133 C-25.76503352 249.31303003 -25.70700055 247.94313764 -25.65016174 246.57319641 C-25.61953707 245.84233637 -25.58891239 245.11147633 -25.5573597 244.35846901 C-25.38259427 239.66158086 -25.30975451 234.96194725 -25.22979069 230.26263905 C-25.15408698 226.13937437 -25.03559952 222.02680451 -24.81713867 217.90844727 C-23.21867365 200.04100866 -23.21867365 200.04100866 -29.40301514 184.11224365 C-35.16914064 179.44168318 -41.52361449 176.42393249 -48.48704529 173.94389343 C-51 173 -51 173 -54 171 C-53.98428955 171.64549805 -53.9685791 172.29099609 -53.95239258 172.95605469 C-53.88994198 175.88728029 -53.8509777 178.81836579 -53.8125 181.75 C-53.78736328 182.76578125 -53.76222656 183.7815625 -53.73632812 184.828125 C-53.72666016 185.8078125 -53.71699219 186.7875 -53.70703125 187.796875 C-53.6913208 188.69760742 -53.67561035 189.59833984 -53.65942383 190.52636719 C-54.07453691 193.54136773 -54.85130824 194.8603719 -57 197 C-63.13739239 199.16227581 -69.69427439 197.59026894 -75.8125 196.125 C-76.64458984 195.93808594 -77.47667969 195.75117188 -78.33398438 195.55859375 C-81.9020062 194.75171151 -85.45094213 193.88726447 -89 193 C-89 199.93 -89 206.86 -89 214 C-91.22890995 215.11445498 -92.53055106 215.16480286 -95 215.1875 C-95.70125 215.20167969 -96.4025 215.21585938 -97.125 215.23046875 C-99 215 -99 215 -101 213 C-101.31884766 210.84521484 -101.31884766 210.84521484 -101.4140625 208.2109375 C-101.47207031 206.79941406 -101.47207031 206.79941406 -101.53125 205.359375 C-101.57765625 203.88210938 -101.57765625 203.88210938 -101.625 202.375 C-101.68300781 200.88613281 -101.68300781 200.88613281 -101.7421875 199.3671875 C-101.8366314 196.91164615 -101.92219875 194.4561159 -102 192 C-103.60742949 200.94619169 -103.60742949 200.94619169 -103.9375 210 C-103.82614073 213.7862151 -104.61766724 215.95061407 -107 219 C-108 220 -108 220 -111.875 220.375 C-124.8319853 220.20793285 -143.5992139 215.4007861 -153 206 C-153.1953125 202.7421875 -153.1953125 202.7421875 -153.125 198.875 C-153.09792969 196.95300781 -153.09792969 196.95300781 -153.0703125 194.9921875 C-153.04710937 194.00476563 -153.02390625 193.01734375 -153 192 C-149.47751287 190.11729136 -146.49448944 188.62629248 -142.5 188.25 C-141.7884375 188.17265625 -141.076875 188.0953125 -140.34375 188.015625 C-137.48063993 187.9965376 -134.8155548 188.50568802 -132 189 C-131.91145752 188.33492432 -131.82291504 187.66984863 -131.73168945 186.98461914 C-130.22140921 176.42805972 -128.06822577 166.01324791 -125.85131836 155.58569336 C-125.40574494 153.47253806 -124.9686772 151.3575728 -124.53979492 149.2409668 C-123.91405538 146.15501413 -123.26274509 143.07546326 -122.60546875 139.99609375 C-122.41881149 139.05132675 -122.23215424 138.10655975 -122.0398407 137.13316345 C-121.15907402 133.13096499 -120.60413124 130.63960281 -117.75048828 127.6184082 C-116.84282715 127.0843335 -115.93516602 126.55025879 -115 126 C-113.96447998 125.36545898 -112.92895996 124.73091797 -111.86206055 124.07714844 C-110.14176636 123.10310059 -110.14176636 123.10310059 -108.38671875 122.109375 C-107.77230423 121.75989807 -107.15788971 121.41042114 -106.52485657 121.050354 C-104.5813648 119.94613282 -102.63452017 118.84798538 -100.6875 117.75 C-99.361101 116.99779619 -98.03492678 116.24519587 -96.70898438 115.4921875 C-93.47524221 113.65686705 -90.23846671 111.82697387 -87 110 C-87 109.34 -87 108.68 -87 108 C-88.95173106 106.62048803 -90.89896864 105.36525208 -92.9375 104.125 C-133.44434793 78.75591264 -133.44434793 78.75591264 -135.625 70.6875 C-134.61841665 66.35919158 -131.56445797 64.43221838 -128 62 C-123.03182642 59.29008714 -118.610694 58.10956262 -113 59 C-109.17180031 60.46593029 -105.6456525 62.3932429 -102.0625 64.375 C-101.14404297 64.86355469 -100.22558594 65.35210937 -99.27929688 65.85546875 C-90.372641 70.6452973 -81.69590232 75.84109715 -73 81 C-72.9906543 79.81559326 -72.98130859 78.63118652 -72.97167969 77.41088867 C-72.9314684 72.96927828 -72.86562665 68.52833811 -72.79248047 64.0871582 C-72.76444997 62.17383507 -72.74314735 60.2604 -72.72900391 58.34692383 C-72.5287184 32.77046514 -72.5287184 32.77046514 -64.1171875 23.8359375 C-50.46808511 12 -50.46808511 12 -46 12 C-45.34 10.35 -44.68 8.7 -44 7 C-36.43545684 7.88253003 -36.43545684 7.88253003 -34.12841797 8.50488281 C-25.1023503 10.60454618 -13.09261643 10.2738937 -4.7578125 6.22265625 C-2.33057114 4.53437504 -1.06590445 2.74089716 0 0 Z M-89 151 C-89 157.27 -89 163.54 -89 170 C-87.02 170.33 -85.04 170.66 -83 171 C-82.67 165.39 -82.34 159.78 -82 154 C-86.31400566 150.82850141 -86.31400566 150.82850141 -89 151 Z " fill="#2BA6B2" transform="translate(361,193)"/>
<path d="M0 0 C8.94649049 0.32891509 15.96114177 1.42815362 22.25 8.1875 C28.73367593 16.56151197 29.70275271 24.55175779 30 35 C24.65406535 38.36276535 19.26177176 41.39926133 13.5625 44.125 C-1.36360951 51.42479718 -18.56227125 60.84340687 -28 75 C-28.21327275 77.7767644 -28.31128236 80.45657868 -28.31884766 83.23510742 C-28.32889328 84.07435257 -28.3389389 84.91359772 -28.34928894 85.77827454 C-28.3801951 88.55399893 -28.39717667 91.32962656 -28.4140625 94.10546875 C-28.43276817 96.02933082 -28.45234113 97.95318464 -28.4727478 99.87702942 C-28.52413847 104.94207906 -28.56372706 110.00715532 -28.60089111 115.07232666 C-28.64088732 120.24034243 -28.69199963 125.40824681 -28.7421875 130.57617188 C-28.83902888 140.71736974 -28.92340737 150.85863041 -29 161 C-34.19240401 159.33840358 -39.22519602 157.58078342 -44.17578125 155.27734375 C-45.3167627 154.7469751 -46.45774414 154.21660645 -47.63330078 153.67016602 C-48.85978659 153.09279348 -50.08618394 152.51523299 -51.3125 151.9375 C-51.94363708 151.64285858 -52.57477417 151.34821716 -53.22503662 151.04464722 C-61.49912231 147.18173413 -69.69138419 143.17578637 -77.83203125 139.0390625 C-78.64946304 138.62481522 -79.46689484 138.21056793 -80.30909729 137.7837677 C-84.33776597 135.74032264 -88.35839944 133.68309784 -92.3684082 131.60327148 C-93.84175716 130.85100304 -95.31529909 130.0991124 -96.7890625 129.34765625 C-97.46068924 128.99317413 -98.13231598 128.63869202 -98.82429504 128.27346802 C-102.42803122 126.43596984 -102.42803122 126.43596984 -106.38818359 126.22827148 C-108.00198606 126.89118247 -108.00198606 126.89118247 -109 128 C-109.07205511 129.68608966 -109.08386068 131.37500659 -109.0625 133.0625 C-109.041875 134.691875 -109.02125 136.32125 -109 138 C-104.545 140.475 -104.545 140.475 -100 143 C-99.95044885 149.01398527 -99.91420869 155.02785086 -99.89013672 161.04199219 C-99.88009821 163.08660961 -99.86646458 165.13121274 -99.84912109 167.17578125 C-99.8247783 170.11982761 -99.81349522 173.06368363 -99.8046875 176.0078125 C-99.79436493 176.9174173 -99.78404236 177.82702209 -99.77340698 178.76419067 C-99.77255581 183.61238971 -100.1749548 187.43435105 -102 192 C-103.21364575 197.97083744 -104.15214665 203.89790234 -103.9375 210 C-103.82614073 213.7862151 -104.61766724 215.95061407 -107 219 C-108 220 -108 220 -111.875 220.375 C-124.8319853 220.20793285 -143.5992139 215.4007861 -153 206 C-153.1953125 202.7421875 -153.1953125 202.7421875 -153.125 198.875 C-153.09792969 196.95300781 -153.09792969 196.95300781 -153.0703125 194.9921875 C-153.04710937 194.00476563 -153.02390625 193.01734375 -153 192 C-149.47751287 190.11729136 -146.49448944 188.62629248 -142.5 188.25 C-141.7884375 188.17265625 -141.076875 188.0953125 -140.34375 188.015625 C-137.48063993 187.9965376 -134.8155548 188.50568802 -132 189 C-131.91145752 188.33492432 -131.82291504 187.66984863 -131.73168945 186.98461914 C-130.22140921 176.42805972 -128.06822577 166.01324791 -125.85131836 155.58569336 C-125.40574494 153.47253806 -124.9686772 151.3575728 -124.53979492 149.2409668 C-123.91405538 146.15501413 -123.26274509 143.07546326 -122.60546875 139.99609375 C-122.41881149 139.05132675 -122.23215424 138.10655975 -122.0398407 137.13316345 C-121.15907402 133.13096499 -120.60413124 130.63960281 -117.75048828 127.6184082 C-116.84282715 127.0843335 -115.93516602 126.55025879 -115 126 C-113.96447998 125.36545898 -112.92895996 124.73091797 -111.86206055 124.07714844 C-110.14176636 123.10310059 -110.14176636 123.10310059 -108.38671875 122.109375 C-107.77230423 121.75989807 -107.15788971 121.41042114 -106.52485657 121.050354 C-104.5813648 119.94613282 -102.63452017 118.84798538 -100.6875 117.75 C-99.361101 116.99779619 -98.03492678 116.24519587 -96.70898438 115.4921875 C-93.47524221 113.65686705 -90.23846671 111.82697387 -87 110 C-87 109.34 -87 108.68 -87 108 C-88.95173106 106.62048803 -90.89896864 105.36525208 -92.9375 104.125 C-133.44434793 78.75591264 -133.44434793 78.75591264 -135.625 70.6875 C-134.61841665 66.35919158 -131.56445797 64.43221838 -128 62 C-123.03182642 59.29008714 -118.610694 58.10956262 -113 59 C-109.17180031 60.46593029 -105.6456525 62.3932429 -102.0625 64.375 C-101.14404297 64.86355469 -100.22558594 65.35210937 -99.27929688 65.85546875 C-90.372641 70.6452973 -81.69590232 75.84109715 -73 81 C-72.9906543 79.81559326 -72.98130859 78.63118652 -72.97167969 77.41088867 C-72.9314684 72.96927828 -72.86562665 68.52833811 -72.79248047 64.0871582 C-72.76444997 62.17383507 -72.74314735 60.2604 -72.72900391 58.34692383 C-72.5287184 32.77046514 -72.5287184 32.77046514 -64.1171875 23.8359375 C-50.46808511 12 -50.46808511 12 -46 12 C-45.34 10.35 -44.68 8.7 -44 7 C-36.43545684 7.88253003 -36.43545684 7.88253003 -34.12841797 8.50488281 C-25.1023503 10.60454618 -13.09261643 10.2738937 -4.7578125 6.22265625 C-2.33057114 4.53437504 -1.06590445 2.74089716 0 0 Z " fill="#292928" transform="translate(361,193)"/>
<path d="M0 0 C3.43866191 2.85006213 5.82925341 5.73776024 7.25 10 C7.37047541 12.33105907 7.42534303 14.66586142 7.4375 17 C7.45167969 18.2375 7.46585937 19.475 7.48046875 20.75 C7.25 24 7.25 24 5.25 27 C4.59 26.01 3.93 25.02 3.25 24 C-0.1391571 24.60520662 -2.05430129 25.91300745 -4.75 28 C-8.1157625 29.12192083 -10.55526749 29.06748851 -14.09765625 28.9921875 C-15.96454102 28.96705078 -15.96454102 28.96705078 -17.86914062 28.94140625 C-20.50209493 28.89706725 -23.13492967 28.84495962 -25.76757812 28.78515625 C-27.01087891 28.77097656 -28.25417969 28.75679687 -29.53515625 28.7421875 C-30.67863525 28.7201123 -31.82211426 28.69803711 -33.00024414 28.67529297 C-33.90766357 28.78244629 -34.81508301 28.88959961 -35.75 29 C-36.41 29.99 -37.07 30.98 -37.75 32 C-40.3125 32.625 -40.3125 32.625 -42.75 33 C-43.08 33.33 -43.41 33.66 -43.75 34 C-43.73818176 36.23069245 -43.63958322 38.4611476 -43.5 40.6875 C-43.39945313 42.51861328 -43.39945313 42.51861328 -43.296875 44.38671875 C-42.49476195 49.68639424 -40.82086173 52.95347603 -37 56.6875 C-34.46778217 59.57927746 -34.45938732 61.78089869 -34.6875 65.5625 C-35.31999195 70.19033717 -36.64768935 72.48404794 -39.75 76 C-39.39868041 80.3953984 -37.42145055 84.07574221 -35.4375 87.9375 C-34.91833008 88.96218384 -34.91833008 88.96218384 -34.38867188 90.00756836 C-31.28134795 96.08287131 -28.02229101 102.07489273 -24.75 108.0625 C-24.24025635 108.99682861 -23.7305127 109.93115723 -23.20532227 110.89379883 C-20.87933667 115.14712535 -18.53660786 119.38777101 -16.1328125 123.59765625 C-15.74738281 124.28529053 -15.36195313 124.9729248 -14.96484375 125.68139648 C-14.25927484 126.93969265 -13.54124482 128.19111542 -12.80859375 129.43383789 C-11.8828125 131.1015625 -11.8828125 131.1015625 -10.75 134 C-11.96377637 137.85841197 -14.10616296 139.09407215 -17.5703125 140.9609375 C-18.56796631 141.50741943 -19.56562012 142.05390137 -20.59350586 142.61694336 C-21.67639893 143.19710205 -22.75929199 143.77726074 -23.875 144.375 C-26.17161585 145.63221128 -28.46716381 146.89137501 -30.76171875 148.15234375 C-31.34742142 148.47278152 -31.93312408 148.7932193 -32.53657532 149.12336731 C-38.31532977 152.29066749 -44.00647479 155.59902334 -49.6875 158.9375 C-51.64570532 160.08485392 -53.60404046 161.23198631 -55.5625 162.37890625 C-56.55507812 162.96043457 -57.54765625 163.54196289 -58.5703125 164.14111328 C-63.84617366 167.22545042 -69.13144457 170.29341721 -74.42166138 173.35305786 C-76.161525 174.35996751 -77.89998758 175.36929682 -79.63842773 176.37866211 C-81.20765991 177.28563843 -81.20765991 177.28563843 -82.80859375 178.2109375 C-83.73986084 178.75024902 -84.67112793 179.28956055 -85.63061523 179.84521484 C-87.75 181 -87.75 181 -88.75 181 C-88.89037402 166.01379961 -88.99607048 151.02765031 -89.06087303 136.0409317 C-89.09176654 129.08175128 -89.13385934 122.12298015 -89.20263672 115.1640625 C-89.26899493 108.44669477 -89.30371909 101.72983979 -89.31926346 95.01213074 C-89.33033913 92.45087497 -89.35196759 89.88964212 -89.38438034 87.3285675 C-89.42801702 83.73741638 -89.43393061 80.14801475 -89.43115234 76.55664062 C-89.452724 75.50071716 -89.47429565 74.4447937 -89.496521 73.35687256 C-89.4363224 66.15288622 -87.71764311 62.20168623 -82.75 57 C-82.08097656 56.28070313 -81.41195312 55.56140625 -80.72265625 54.8203125 C-73.92316384 48.78558918 -66.41304606 43.85790405 -58.75 39 C-57.81671875 38.40832031 -56.8834375 37.81664062 -55.921875 37.20703125 C-53.75 36 -53.75 36 -51.75 36 C-51.91757813 35.33355469 -52.08515625 34.66710937 -52.2578125 33.98046875 C-54.30679589 24.70817049 -53.68126604 16.31559617 -49.00390625 7.91015625 C-44.08457368 0.41621971 -38.87045617 -4.16386315 -30.25 -6.75 C-20.02577994 -7.77242201 -8.51224218 -6.21078411 0 0 Z " fill="#638BAA" transform="translate(195.75,44)"/>
<path d="M0 0 C6.18166287 1.62839106 11.31090634 4.94247095 16.75 8.1875 C18.91367549 9.46419778 21.07775166 10.74021671 23.2421875 12.015625 C24.35819336 12.67498047 25.47419922 13.33433594 26.62402344 14.01367188 C32.0212633 17.18925356 37.44764 20.3137656 42.875 23.4375 C45.05991376 24.69658348 47.24480949 25.95569823 49.4296875 27.21484375 C50.51475586 27.83987793 51.59982422 28.46491211 52.71777344 29.10888672 C59.22871257 32.86028024 65.73663194 36.61690994 72.24511719 40.37255859 C77.68585336 43.51182246 83.12731477 46.64981497 88.5703125 49.78515625 C89.65449463 50.410271 90.73867676 51.03538574 91.85571289 51.67944336 C94.02018614 52.92614504 96.1860224 54.17048357 98.35327148 55.41235352 C103.83052714 58.55820683 109.2656889 61.75576685 114.65234375 65.0546875 C115.72919434 65.70622803 116.80604492 66.35776855 117.91552734 67.02905273 C119.95322014 68.26478932 121.9816438 69.51599654 123.99853516 70.78540039 C128.82067492 73.69161201 132.95730639 76.03587846 138.70532227 75.5847168 C143.60563759 74.33604617 147.69537016 71.60758172 151.9375 68.9375 C154.06441018 67.64729277 156.19204004 66.35827133 158.3203125 65.0703125 C159.41633789 64.3990332 160.51236328 63.72775391 161.64160156 63.03613281 C167.14393745 59.70017168 172.72880905 56.50977967 178.3125 53.3125 C184.47663086 49.78279361 190.62895925 46.24789494 196.6875 42.5390625 C197.55850342 42.01272217 198.42950684 41.48638184 199.3269043 40.9440918 C200.93655626 39.96843496 202.53769274 38.97852983 204.12817383 37.97192383 C209.2871996 34.86803841 209.2871996 34.86803841 212.6796875 35.49609375 C213.44539062 35.99238281 214.21109375 36.48867188 215 37 C215.88300781 37.56976563 216.76601563 38.13953125 217.67578125 38.7265625 C218.54589844 39.35304688 219.41601562 39.97953125 220.3125 40.625 C221.19550781 41.25664062 222.07851563 41.88828125 222.98828125 42.5390625 C223.65214844 43.02117187 224.31601562 43.50328125 225 44 C221.94924617 46.39566738 218.7865206 48.34488457 215.4140625 50.2578125 C214.32585205 50.87865723 213.2376416 51.49950195 212.11645508 52.13916016 C211.54633698 52.46329895 210.97621887 52.78743774 210.38882446 53.12139893 C198.94902964 59.62281609 198.94902964 59.62281609 187.8125 66.625 C178.13433361 72.84033622 168.01326316 78.34032952 158 84 C157.67 127.23 157.34 170.46 157 215 C151.55272233 217.17891107 147.95878718 217.89291432 142.31672668 216.19023132 C139.53090125 213.55651446 139.60862215 212.80232325 139.39872742 209.08357239 C139.3841745 206.93700123 139.39765396 204.79013852 139.43237305 202.64379883 C139.43127785 200.88749901 139.43127785 200.88749901 139.43016052 199.09571838 C139.43304911 195.88482005 139.45813785 192.67500851 139.49303031 189.4643271 C139.52426802 186.10913448 139.52722246 182.75392094 139.53315735 179.39860535 C139.54870359 173.04487439 139.58974196 166.69157313 139.6399048 160.33803147 C139.69577452 153.10478666 139.72327868 145.87152141 139.74838197 138.63811457 C139.80065763 123.75850354 139.88861443 108.87929472 140 94 C139.22742355 94.18614868 138.45484711 94.37229736 137.65885925 94.56408691 C134.11367412 95.14531083 132.79144033 94.17438483 129.73828125 92.34375 C128.71541016 91.74111328 127.69253906 91.13847656 126.63867188 90.51757812 C125.54103516 89.85177734 124.44339844 89.18597656 123.3125 88.5 C122.15130392 87.81030896 120.98917697 87.12218302 119.82617188 86.43554688 C117.40991656 85.00734813 114.99781346 83.57248601 112.58837891 82.1328125 C107.09570979 78.85839712 101.54519447 75.68433141 96 72.5 C93.84867846 71.25959986 91.69763815 70.01871184 89.546875 68.77734375 C88.47630859 68.15972168 87.40574219 67.54209961 86.30273438 66.90576172 C83.47452154 65.273811 80.64653946 63.6414615 77.81872559 62.00881958 C76.08363272 61.00708606 74.34846743 60.00547811 72.61328125 59.00390625 C70.45949332 57.76066281 68.30583529 56.51719428 66.15234375 55.2734375 C60.64739688 52.09613354 55.13566808 48.93106007 49.61621094 45.77905273 C48.97618134 45.41343987 48.33615173 45.047827 47.67672729 44.67113495 C46.1178705 43.78066507 44.55894272 42.89031944 43 42 C43.00276538 42.54868398 43.00553076 43.09736795 43.00837994 43.66267872 C43.0746063 57.00767448 43.12407278 70.35264149 43.15543652 83.6977663 C43.17111233 90.15135623 43.19238571 96.60482781 43.22631836 103.05834961 C43.25884324 109.28287613 43.27683857 115.50728862 43.28463173 121.73189354 C43.29018759 124.11022933 43.30103637 126.48855867 43.31719017 128.86684608 C43.33887281 132.19042217 43.34197073 135.51352312 43.34057617 138.8371582 C43.351362 139.8269014 43.36214783 140.81664459 43.3732605 141.83638 C43.36707451 143.19303772 43.36707451 143.19303772 43.36076355 144.57710266 C43.36352893 145.36339208 43.36629431 146.14968149 43.36914349 146.95979786 C42.9007587 149.54849218 42.0795065 150.42962047 40 152 C37.1875 152.3984375 37.1875 152.3984375 34 152.375 C32.948125 152.38273438 31.89625 152.39046875 30.8125 152.3984375 C27.60131197 151.9435192 26.91480844 151.53256477 25 149 C24.67669201 146.82431984 24.67669201 146.82431984 24.74931335 144.24697876 C24.76856873 143.26877167 24.7878241 142.29056458 24.80766296 141.28271484 C24.84366104 140.21053711 24.87965912 139.13835937 24.91674805 138.03369141 C24.96888202 135.69000117 25.02059438 133.34630152 25.07194519 131.00259399 C25.10431967 129.75666096 25.13669415 128.51072792 25.17004967 127.22703934 C25.31000357 121.31023427 25.36811072 115.3926507 25.43265116 109.47465587 C25.53207942 100.39112415 25.65310258 91.31125198 25.92211914 82.23095703 C26.12283766 75.44427122 26.20625411 68.66365085 26.22266579 61.8740654 C26.24851827 59.29397621 26.31360923 56.71395627 26.41956139 54.13591385 C27.03201177 42.28676106 27.03201177 42.28676106 24 31 C18.56769241 25.22455453 11.47318247 21.9275342 4.2106905 18.99231529 C2 18 2 18 0 16 C-0.14507695 13.25514407 -0.18652423 10.61519457 -0.125 7.875 C-0.11146484 6.74384766 -0.11146484 6.74384766 -0.09765625 5.58984375 C-0.0740687 3.72642746 -0.03819719 1.86317407 0 0 Z " fill="#F37900" transform="translate(51,258)"/>
<path d="M0 0 C0.0933823 16.7676616 0.16394909 33.53523904 0.20724869 50.30309772 C0.22788656 58.08846534 0.2560303 65.87367153 0.30175781 73.65893555 C0.34158839 80.44345254 0.36742391 87.22785264 0.37635398 94.0124833 C0.38157523 97.60598129 0.39387179 101.19914484 0.42292023 104.79253578 C0.45506255 108.80105134 0.45596187 112.80898303 0.45410156 116.81762695 C0.46848267 118.0130864 0.48286377 119.20854584 0.49768066 120.44023132 C0.49218201 121.52978119 0.48668335 122.61933105 0.48101807 123.74189758 C0.48470524 124.69042256 0.48839241 125.63894754 0.49219131 126.61621571 C0 129 0 129 -1.87771988 130.80372906 C-4.42857086 132.24157361 -6.08467963 132.40166452 -9 132.375 C-9.845625 132.38273438 -10.69125 132.39046875 -11.5625 132.3984375 C-14.43365432 131.9291142 -15.83441027 130.89489101 -18 129 C-17.875 127.25 -17.875 127.25 -17 125 C-11.77777778 121 -11.77777778 121 -9 121 C-9 85.03 -9 49.06 -9 12 C-19.08415636 14.68910836 -27.301469 17.11638168 -36.375 21.6875 C-37.44862793 22.21714355 -38.52225586 22.74678711 -39.62841797 23.29248047 C-42.76060356 24.84568072 -45.88147735 26.41958391 -49 28 C-49.83982422 28.42007324 -50.67964844 28.84014648 -51.54492188 29.27294922 C-65.81114204 36.42712756 -79.77627338 44.47697401 -91 56 C-91.69103821 56.65034714 -92.38207642 57.30069427 -93.09405518 57.9707489 C-95.8986315 62.42825774 -95.57186579 66.40489232 -95.54589844 71.57348633 C-95.56140495 73.16929031 -95.56140495 73.16929031 -95.57722473 74.79733276 C-95.60669059 78.30905274 -95.60815276 81.82019728 -95.609375 85.33203125 C-95.62435401 87.76870323 -95.64108057 90.20536504 -95.65948486 92.64201355 C-95.70320143 99.05187441 -95.72316722 105.4615983 -95.73822021 111.87158203 C-95.7577756 118.41381951 -95.79974744 124.95590874 -95.83984375 131.49804688 C-95.91519269 144.33198105 -95.96621724 157.16589255 -96 170 C-93.69 169.01 -91.38 168.02 -89 167 C-88.95372021 176.22269206 -88.91815306 185.44534434 -88.89637566 194.66812706 C-88.88592517 198.95034248 -88.87174303 203.23247864 -88.84912109 207.51464844 C-88.82743762 211.64488126 -88.81544091 215.77503769 -88.81024551 219.90532303 C-88.80654165 221.48343738 -88.7993092 223.06154741 -88.78853989 224.63962936 C-88.77408451 226.84496951 -88.77201952 229.04999142 -88.77294922 231.25537109 C-88.768508 232.51223724 -88.76406677 233.76910339 -88.75949097 235.0640564 C-89 238 -89 238 -91 240 C-93.12890625 240.23046875 -93.12890625 240.23046875 -95.5625 240.1875 C-96.77099609 240.17783203 -96.77099609 240.17783203 -98.00390625 240.16796875 C-100 240 -100 240 -101 239 C-100.99742474 236.89347589 -100.92421342 234.78702394 -100.82446289 232.68286133 C-100.76503352 231.31303003 -100.70700055 229.94313764 -100.65016174 228.57319641 C-100.61953707 227.84233637 -100.58891239 227.11147633 -100.5573597 226.35846901 C-100.38259427 221.66158086 -100.30975451 216.96194725 -100.22979069 212.26263905 C-100.15408698 208.13937437 -100.03559952 204.02680451 -99.81713867 199.90844727 C-98.21867365 182.04100866 -98.21867365 182.04100866 -104.40301514 166.11224365 C-110.16914064 161.44168318 -116.52361449 158.42393249 -123.48704529 155.94389343 C-126 155 -126 155 -129 153 C-128.98428955 153.64549805 -128.9685791 154.29099609 -128.95239258 154.95605469 C-128.88994198 157.88728029 -128.8509777 160.81836579 -128.8125 163.75 C-128.78736328 164.76578125 -128.76222656 165.7815625 -128.73632812 166.828125 C-128.72666016 167.8078125 -128.71699219 168.7875 -128.70703125 169.796875 C-128.6913208 170.69760742 -128.67561035 171.59833984 -128.65942383 172.52636719 C-129.07453691 175.54136773 -129.85130824 176.8603719 -132 179 C-138.13739239 181.16227581 -144.69427439 179.59026894 -150.8125 178.125 C-152.06063477 177.84462891 -152.06063477 177.84462891 -153.33398438 177.55859375 C-156.9020062 176.75171151 -160.45094213 175.88726447 -164 175 C-164 181.93 -164 188.86 -164 196 C-166.22890995 197.11445498 -167.53055106 197.16480286 -170 197.1875 C-170.70125 197.20167969 -171.4025 197.21585938 -172.125 197.23046875 C-174 197 -174 197 -176 195 C-176.24291992 192.97680664 -176.24291992 192.97680664 -176.23046875 190.41015625 C-176.22917969 189.41798096 -176.22789062 188.42580566 -176.2265625 187.40356445 C-176.21367187 186.30101318 -176.20078125 185.19846191 -176.1875 184.0625 C-176.17783203 182.34003052 -176.17783203 182.34003052 -176.16796875 180.58276367 C-176.01501363 162.05249027 -175.48324561 143.5239866 -175 125 C-177.59220269 123.95440564 -180.17846336 122.93654636 -182.8125 122 C-185 120 -185 120 -185.41796875 117.6875 C-185.62334472 110.95899188 -185.62334472 110.95899188 -183.78125 108.125 C-182 107 -182 107 -179.95703125 107.15136719 C-175.66135556 108.38417504 -171.87068603 110.41255369 -167.90625 112.453125 C-167.00547729 112.90919128 -166.10470459 113.36525757 -165.17663574 113.83514404 C-161.35033626 115.77246404 -157.53092446 117.7231633 -153.71191406 119.67480469 C-137.37397331 128.00813486 -120.78363779 135.61772323 -104 143 C-104.0199855 141.94479156 -104.03997101 140.88958313 -104.06056213 139.80239868 C-104.24349218 129.82828466 -104.37815047 119.85451356 -104.46630955 109.87909889 C-104.51315929 104.75120426 -104.57663817 99.62467022 -104.67895508 94.49755859 C-104.77718867 89.54371272 -104.8306494 84.59117013 -104.85389519 79.63642502 C-104.87044677 77.75212472 -104.90277019 75.86789092 -104.95157051 73.98414993 C-105.36406738 57.39219338 -105.36406738 57.39219338 -99.71459961 51.00537109 C-98.18673491 49.62048794 -96.61589265 48.28107878 -95 47 C-94.24324478 46.31797516 -93.48648956 45.63595032 -92.70680237 44.93325806 C-74.03542882 28.21329468 -41.1803497 9.92526528 -16.125 6.1875 C-11.57344986 5.34309477 -8.42363209 3.71936681 -4.69140625 1.0234375 C-3 0 -3 0 0 0 Z M-164 133 C-164 139.27 -164 145.54 -164 152 C-162.02 152.33 -160.04 152.66 -158 153 C-157.67 147.39 -157.34 141.78 -157 136 C-161.31400566 132.82850141 -161.31400566 132.82850141 -164 133 Z " fill="#027D8E" transform="translate(436,211)"/>
<path d="M0 0 C2.31 1.32 4.62 2.64 7 4 C7 21.49 7 38.98 7 57 C4.03 56.67 1.06 56.34 -2 56 C-1.67 56.66 -1.34 57.32 -1 58 C-0.90038177 60.95978906 -0.86023108 63.89547657 -0.8671875 66.85546875 C-0.86623077 67.74929764 -0.86527405 68.64312653 -0.86428833 69.56404114 C-0.86360628 71.46644155 -0.86546226 73.36884427 -0.86962891 75.27124023 C-0.87489548 78.13075278 -0.86972772 80.99010228 -0.86328125 83.84960938 C-0.85963963 89.23409026 -0.90574925 94.61635011 -1 100 C-1.01987976 101.1802475 -1.01987976 101.1802475 -1.04016113 102.38433838 C-1.08778712 104.50415368 -1.16545872 106.61999998 -1.2578125 108.73828125 C-1.30309082 109.91044189 -1.34836914 111.08260254 -1.39501953 112.2902832 C-2 115 -2 115 -4.04638672 116.39135742 C-4.6910791 116.59220947 -5.33577148 116.79306152 -6 117 C-6.85831266 112.92567808 -7.71270274 108.85055931 -8.56347656 104.7746582 C-8.853416 103.38836498 -9.14442379 102.00229474 -9.43652344 100.61645508 C-9.85633299 98.62378763 -10.27228675 96.63034833 -10.6875 94.63671875 C-10.93886719 93.43748779 -11.19023437 92.23825684 -11.44921875 91.00268555 C-12 88 -12 88 -12 85 C-11.34 84.34 -10.68 83.68 -10 83 C-11.65 81.68 -13.3 80.36 -15 79 C-17.34058637 81.12780579 -18.70700306 83.11562221 -20 86 C-19.01 86 -18.02 86 -17 86 C-16.34 98.21 -15.68 110.42 -15 123 C-15.99 123.33 -16.98 123.66 -18 124 C-18.5576001 122.91452881 -18.5576001 122.91452881 -19.12646484 121.80712891 C-28.09835484 104.32027314 -28.09835484 104.32027314 -37.5 87.0625 C-40.2756134 82.10712957 -43.04873877 77.1549499 -45.6875 72.125 C-46.16574219 71.22007813 -46.64398438 70.31515625 -47.13671875 69.3828125 C-48.13074184 66.63912886 -48.14432942 65.65398465 -47 63 C-46.50757813 62.36449219 -46.01515625 61.72898438 -45.5078125 61.07421875 C-42.66711182 57.16641549 -42.44240614 52.7042976 -43 48 C-44.53252357 45.46945699 -46.29920764 43.45230166 -48.2734375 41.25390625 C-52.24430476 36.07021754 -52.64468115 28.31787527 -52 22 C-50.75 20.0625 -50.75 20.0625 -49 19 C-47.68 19 -46.36 19 -45 19 C-44.34 18.01 -43.68 17.02 -43 16 C-40.29785156 15.70703125 -40.29785156 15.70703125 -36.890625 15.8125 C-35.04597656 15.84730469 -35.04597656 15.84730469 -33.1640625 15.8828125 C-30.57029846 15.96047011 -27.97654821 16.03858945 -25.3828125 16.1171875 C-24.14789063 16.14039062 -22.91296875 16.16359375 -21.640625 16.1875 C-19.94728027 16.23970703 -19.94728027 16.23970703 -18.21972656 16.29296875 C-13.58697984 15.87142674 -10.28294533 14.28294533 -7 11 C-4.9375 11.25 -4.9375 11.25 -3 12 C-2.505 12.99 -2.505 12.99 -2 14 C-0.64908472 11.29816945 -0.66141942 8.88191794 -0.4375 5.875 C-0.35371094 4.77929688 -0.26992187 3.68359375 -0.18359375 2.5546875 C-0.09271484 1.29011719 -0.09271484 1.29011719 0 0 Z " fill="#EBC5A4" transform="translate(203,56)"/>
<path d="M0 0 C2.02464958 1.4357306 3.81824805 2.93615626 5.6171875 4.64453125 C6.44669922 5.43150391 6.44669922 5.43150391 7.29296875 6.234375 C14.63772962 13.98009056 16.32613306 23.09249126 16.1796875 33.45703125 C16.17380615 34.51075928 16.1679248 35.5644873 16.16186523 36.65014648 C15.98679727 43.95064939 14.93325596 49.51815195 11.78515625 56.140625 C10.69184272 58.48448445 10.22776217 60.22008982 9.9921875 62.76953125 C9.6171875 65.64453125 9.6171875 65.64453125 8.2421875 67.51953125 C3.25085355 70.97507014 -3.614651 70.16088022 -9.3828125 69.64453125 C-12.7072037 68.54473266 -15.85949263 67.16785112 -18.3828125 64.64453125 C-18.58860411 61.15064707 -18.70247489 57.65841937 -18.80859375 54.16015625 C-19.46141959 50.16326338 -20.56808867 48.49622143 -23.3828125 45.64453125 C-26.09160585 44.29013457 -28.39214518 44.57951674 -31.3828125 44.64453125 C-32.3728125 47.11953125 -32.3728125 47.11953125 -33.3828125 49.64453125 C-36.18849257 49.29153896 -37.18662595 48.87517679 -39.05078125 46.68359375 C-39.55222656 45.88695312 -40.05367188 45.0903125 -40.5703125 44.26953125 C-41.07949219 43.47804687 -41.58867187 42.6865625 -42.11328125 41.87109375 C-44.06405847 38.44973062 -44.50134645 35.8233735 -44.4453125 31.95703125 C-44.43628906 31.14878906 -44.42726563 30.34054688 -44.41796875 29.5078125 C-44.40056641 28.58548828 -44.40056641 28.58548828 -44.3828125 27.64453125 C-45.0015625 27.56203125 -45.6203125 27.47953125 -46.2578125 27.39453125 C-48.3828125 26.64453125 -48.3828125 26.64453125 -49.609375 24.94921875 C-51.53498767 19.21128201 -51.34495413 12.72275717 -48.8203125 7.26953125 C-35.67352567 -6.88854687 -17.22058501 -9.79597213 0 0 Z " fill="#341808" transform="translate(352.3828125,121.35546875)"/>
<path d="M0 0 C2.61206055 1.3034668 2.61206055 1.3034668 5.38671875 2.94921875 C6.9190918 3.85124023 6.9190918 3.85124023 8.48242188 4.77148438 C9.54009766 5.40376953 10.59777344 6.03605469 11.6875 6.6875 C12.72583984 7.30044922 13.76417969 7.91339844 14.83398438 8.54492188 C16.89597563 9.76401764 18.95447602 10.98903901 21.00927734 12.22021484 C22.98328355 13.39494996 24.96794035 14.55199235 26.96337891 15.68994141 C27.86878418 16.21120605 28.77418945 16.7324707 29.70703125 17.26953125 C30.91516479 17.95366089 30.91516479 17.95366089 32.14770508 18.65161133 C34 20 34 20 35 23 C34.70291674 24.34187571 34.36609329 25.67528698 34 27 C33.89068471 28.43399229 33.8249935 29.87173698 33.79467773 31.30957031 C33.77473251 32.15013977 33.75478729 32.99070923 33.73423767 33.85675049 C33.71752518 34.75480408 33.70081268 35.65285767 33.68359375 36.578125 C33.6524221 37.96798615 33.6524221 37.96798615 33.62062073 39.38592529 C33.55533039 42.34054272 33.49633569 45.29524768 33.4375 48.25 C33.39429527 50.25521732 33.35068035 52.26042585 33.30664062 54.265625 C33.19967001 59.17699404 33.09834482 64.08845097 33 69 C32.3618335 68.65098633 31.72366699 68.30197266 31.06616211 67.94238281 C23.57880734 63.85239767 16.07419217 59.79508694 8.5625 55.75 C7.40556641 55.12609375 6.24863281 54.5021875 5.05664062 53.859375 C3.94611328 53.26125 2.83558594 52.663125 1.69140625 52.046875 C0.69310791 51.50901367 -0.30519043 50.97115234 -1.33374023 50.41699219 C-2.65353882 49.71558105 -2.65353882 49.71558105 -4 49 C-4.70261963 48.61618164 -5.40523926 48.23236328 -6.12915039 47.83691406 C-10.34696415 45.95009877 -14.35011299 46.41488025 -18.56640625 47.91015625 C-24.04375615 50.44883854 -27.54855226 53.0529249 -31 58 C-36.11474759 54.10866466 -40.37694283 49.9713836 -43 44 C-43 42.68 -43 41.36 -43 40 C-41.68 40 -40.36 40 -39 40 C-39.33 38.02 -39.66 36.04 -40 34 C-38.68 34.33 -37.36 34.66 -36 35 C-36.14809031 32.58627089 -36.14809031 32.58627089 -37 30 C-39.04564138 28.32779838 -39.04564138 28.32779838 -41.5625 27.1875 C-42.38878906 26.76855469 -43.21507812 26.34960938 -44.06640625 25.91796875 C-45.02353516 25.46357422 -45.02353516 25.46357422 -46 25 C-44.54426703 20.6328011 -41.18454484 19.65554719 -37.3125 17.625 C-31.81922074 14.68315487 -26.40109997 11.67326685 -21.0859375 8.41796875 C-20.10455811 7.81968262 -19.12317871 7.22139648 -18.11206055 6.60498047 C-16.18477815 5.42373768 -14.26413976 4.23157536 -12.35083008 3.02783203 C-11.46548584 2.48884277 -10.5801416 1.94985352 -9.66796875 1.39453125 C-8.49657349 0.66520386 -8.49657349 0.66520386 -7.30151367 -0.07885742 C-4.34801005 -1.26094814 -3.00539113 -0.98488259 0 0 Z " fill="#FEFEFD" transform="translate(256,206)"/>
<path d="M0 0 C3 1 3 1 4.5859375 3.75390625 C5.19055449 5.01952317 5.78613912 6.28947575 6.375 7.5625 C9.87612352 14.84723172 13.63117612 21.96659499 17.5 29.0625 C18.05679443 30.09028564 18.61358887 31.11807129 19.18725586 32.17700195 C21.64941569 36.7164847 24.1269348 41.24344975 26.68359375 45.73046875 C27.0703125 46.42068115 27.45703125 47.11089355 27.85546875 47.82202148 C28.85985882 49.61165786 29.88044141 51.39218026 30.90234375 53.171875 C32 56 32 56 31.36987305 57.99169922 C29.62259582 60.55329295 27.90649341 61.49143411 25.1796875 62.9609375 C23.6803064 63.78247314 23.6803064 63.78247314 22.15063477 64.62060547 C21.06967529 65.19955566 19.98871582 65.77850586 18.875 66.375 C16.60949102 67.6124143 14.34520076 68.85206208 12.08203125 70.09375 C11.50128342 70.411091 10.92053558 70.72843201 10.32218933 71.0553894 C2.92908188 75.10856367 -4.31269732 79.41974494 -11.55712891 83.73193359 C-12.5063623 84.29219238 -13.4555957 84.85245117 -14.43359375 85.4296875 C-15.26947021 85.92710449 -16.10534668 86.42452148 -16.96655273 86.93701172 C-19 88 -19 88 -21 88 C-22.13338218 76.17724242 -22.21908472 64.37077392 -22.24023438 52.50317383 C-22.25003093 49.17700015 -22.28118926 45.85142251 -22.3125 42.52539062 C-22.31902396 40.38542027 -22.32427681 38.24544559 -22.328125 36.10546875 C-22.3404718 35.1240239 -22.3528186 34.14257904 -22.36553955 33.13139343 C-22.33597734 23.91973756 -20.47942267 16.71777652 -14.109375 9.92578125 C-9.88128405 6.06569081 -5.13162575 2.56581288 0 0 Z " fill="#2B2B2B" transform="translate(153,122)"/>
<path d="M0 0 C0.66 0.33 1.32 0.66 2 1 C1.505 1.61875 1.01 2.2375 0.5 2.875 C-1.66357347 7.38244472 -1.19894533 11.02636676 -1 16 C1.97 17.65 4.94 19.3 8 21 C8.04955115 27.01398527 8.08579131 33.02785086 8.10986328 39.04199219 C8.11990179 41.08660961 8.13353542 43.13121274 8.15087891 45.17578125 C8.1752217 48.11982761 8.18650478 51.06368363 8.1953125 54.0078125 C8.20563507 54.9174173 8.21595764 55.82702209 8.22659302 56.76419067 C8.22744419 61.61238971 7.8250452 65.43435105 6 70 C4.78635425 75.97083744 3.84785335 81.89790234 4.0625 88 C4.17385927 91.7862151 3.38233276 93.95061407 1 97 C0 98 0 98 -3.875 98.375 C-16.8319853 98.20793285 -35.5992139 93.4007861 -45 84 C-45.1953125 80.7421875 -45.1953125 80.7421875 -45.125 76.875 C-45.10695312 75.59367187 -45.08890625 74.31234375 -45.0703125 72.9921875 C-45.04710937 72.00476563 -45.02390625 71.01734375 -45 70 C-41.47751287 68.11729136 -38.49448944 66.62629248 -34.5 66.25 C-33.43265625 66.13398438 -33.43265625 66.13398438 -32.34375 66.015625 C-29.48063993 65.9965376 -26.8155548 66.50568802 -24 67 C-23.91145752 66.33492432 -23.82291504 65.66984863 -23.73168945 64.98461914 C-22.22140921 54.42805972 -20.06822577 44.01324791 -17.85131836 33.58569336 C-17.40574494 31.47253806 -16.9686772 29.3575728 -16.53979492 27.2409668 C-15.91405538 24.15501413 -15.26274509 21.07546326 -14.60546875 17.99609375 C-14.41881149 17.05132675 -14.23215424 16.10655975 -14.0398407 15.13316345 C-13.10700962 10.89438469 -12.58604307 8.58660614 -9.45898438 5.45654297 C-8.64751953 4.97588379 -7.83605469 4.49522461 -7 4 C-6.35675781 3.57074219 -5.71351563 3.14148438 -5.05078125 2.69921875 C-3.40094606 1.73897759 -1.70093331 0.86651319 0 0 Z " fill="#201C1C" transform="translate(253,315)"/>
<path d="M0 0 C0 43.23 0 86.46 0 131 C-5.43769601 133.1750784 -9.03732482 133.90261333 -14.668396 132.18704224 C-17.45177212 129.5762382 -17.41330043 128.80326899 -17.70220947 125.10617065 C-17.76265131 122.96963173 -17.79486766 120.83219064 -17.80566406 118.69482422 C-17.83048859 117.52866074 -17.85531311 116.36249725 -17.88088989 115.16099548 C-17.95408036 111.29207746 -17.98802097 107.42418486 -18.015625 103.5546875 C-18.02930567 102.22038277 -18.04358774 100.88608408 -18.05846405 99.55179214 C-18.12684417 93.27964482 -18.17516648 87.00782372 -18.19447351 80.73532951 C-18.21684604 73.50744271 -18.30439434 66.28429974 -18.44947648 59.05785549 C-18.55784952 53.46439791 -18.60800933 47.87226845 -18.6146791 42.27777302 C-18.61990566 38.93855801 -18.65630671 35.60732701 -18.73877716 32.26858139 C-19.20496397 11.9398966 -19.20496397 11.9398966 -15.4806366 6.97422028 C-11.34023776 3.28964595 -5.67649424 0 0 0 Z " fill="#5D5C5C" transform="translate(208,342)"/>
<path d="M0 0 C2.00000351 0.66665613 4.0000027 1.33332524 6 2 C7.04479019 2.28643372 8.08958038 2.57286743 9.16603088 2.86798096 C13.11681547 4.42177783 15.22791277 5.74416009 18 9 C20.34136481 16.76337149 19.46280476 25.41746727 19.27734375 33.421875 C19.26256827 35.84846587 19.25267407 38.27509096 19.24745178 40.70172119 C19.22455473 45.77996538 19.16295311 50.85566533 19.07006836 55.93310547 C18.9510892 62.44922824 18.89720256 68.96370001 18.86814022 75.48078537 C18.83826106 81.69053984 18.77858589 87.89988941 18.71484375 94.109375 C18.70465651 95.2977169 18.69446926 96.48605881 18.68397331 97.71041107 C18.64932875 101.06231715 18.59378993 104.41316573 18.53100586 107.76464844 C18.52293915 108.76209579 18.51487244 109.75954315 18.50656128 110.78721619 C18.47436241 112.15394218 18.47436241 112.15394218 18.44151306 113.54827881 C18.4222824 114.73619837 18.4222824 114.73619837 18.40266323 115.9481163 C17.89654842 118.52716659 17.07784804 119.42833924 15 121 C12.1875 121.3984375 12.1875 121.3984375 9 121.375 C7.948125 121.38273437 6.89625 121.39046875 5.8125 121.3984375 C2.59712761 120.94292641 1.91955626 120.53366768 0 118 C-0.36914349 115.78800678 -0.36914349 115.78800678 -0.36076355 113.15950012 C-0.36488754 112.16250595 -0.36901154 111.16551178 -0.3732605 110.13830566 C-0.36247467 109.04570435 -0.35168884 107.95310303 -0.34057617 106.82739258 C-0.34101425 105.67603317 -0.34145233 104.52467377 -0.34190369 103.33842468 C-0.33980965 99.52362247 -0.31644888 95.70925692 -0.29296875 91.89453125 C-0.287375 89.25323222 -0.28310386 86.61193008 -0.28010559 83.97062683 C-0.27077833 77.72327456 -0.24615548 71.47607963 -0.21605712 65.22879666 C-0.18253418 58.11642998 -0.16603243 51.00405582 -0.15097082 43.89162982 C-0.11960643 29.26100535 -0.06683277 14.63050487 0 0 Z " fill="#5D5D5C" transform="translate(76,289)"/>
<path d="M0 0 C3.43866191 2.85006213 5.82925341 5.73776024 7.25 10 C7.37047541 12.33105907 7.42534303 14.66586142 7.4375 17 C7.45167969 18.2375 7.46585938 19.475 7.48046875 20.75 C7.25 24 7.25 24 5.25 27 C4.59 26.01 3.93 25.02 3.25 24 C-0.1391571 24.60520662 -2.05430129 25.91300745 -4.75 28 C-8.1157625 29.12192083 -10.55526749 29.06748851 -14.09765625 28.9921875 C-15.96454102 28.96705078 -15.96454102 28.96705078 -17.86914062 28.94140625 C-20.50209493 28.89706725 -23.13492967 28.84495962 -25.76757812 28.78515625 C-27.01087891 28.77097656 -28.25417969 28.75679687 -29.53515625 28.7421875 C-30.67863525 28.7201123 -31.82211426 28.69803711 -33.00024414 28.67529297 C-34.36137329 28.83602295 -34.36137329 28.83602295 -35.75 29 C-36.41 29.99 -37.07 30.98 -37.75 32 C-40.3125 32.625 -40.3125 32.625 -42.75 33 C-44.11532549 34.13701597 -44.11532549 34.13701597 -43.84765625 37.16015625 C-43.83605469 38.44792969 -43.82445312 39.73570313 -43.8125 41.0625 C-43.80347656 42.35285156 -43.79445312 43.64320312 -43.78515625 44.97265625 C-43.77355469 45.97167969 -43.76195312 46.97070312 -43.75 48 C-48.8929849 43.48833959 -52.60869287 35.64615896 -53.75 28.9375 C-53.75 17.35793922 -50.48776365 8.29028262 -42.6796875 -0.23828125 C-31.3535862 -10.57850733 -11.85489899 -8.64968556 0 0 Z " fill="#331707" transform="translate(195.75,44)"/>
<path d="M0 0 C2 0.125 2 0.125 4 1 C8.3228713 8.03077229 6.97142723 19.59773075 5.56494141 27.41943359 C3.78966397 34.83999792 1.77482703 42.9318006 -5 47.28515625 C-12.06375 49.80989502 -18.5071958 47.51948256 -25.0703125 44.546875 C-32.98164528 40.36969129 -40.94139062 34.32500275 -43.80859375 25.515625 C-44.86255399 20.71828874 -45.50033482 15.90328127 -45 11 C-43.75 9.0625 -43.75 9.0625 -42 8 C-40.68 8 -39.36 8 -38 8 C-37.34 7.01 -36.68 6.02 -36 5 C-33.29785156 4.70703125 -33.29785156 4.70703125 -29.890625 4.8125 C-28.04597656 4.84730469 -28.04597656 4.84730469 -26.1640625 4.8828125 C-23.57029846 4.96047011 -20.97654821 5.03858945 -18.3828125 5.1171875 C-17.14789063 5.14039062 -15.91296875 5.16359375 -14.640625 5.1875 C-12.94728027 5.23970703 -12.94728027 5.23970703 -11.21972656 5.29296875 C-6.58697984 4.87142674 -3.28294533 3.28294533 0 0 Z " fill="#FCD4B6" transform="translate(196,67)"/>
<path d="M0 0 C0.76570313 0.49628906 1.53140625 0.99257813 2.3203125 1.50390625 C3.64482422 2.35855469 3.64482422 2.35855469 4.99609375 3.23046875 C6.30126953 4.17019531 6.30126953 4.17019531 7.6328125 5.12890625 C8.95732422 6.07636719 8.95732422 6.07636719 10.30859375 7.04296875 C10.97246094 7.52507812 11.63632812 8.0071875 12.3203125 8.50390625 C9.26955867 10.89957363 6.1068331 12.84879082 2.734375 14.76171875 C1.64616455 15.38256348 0.5579541 16.0034082 -0.56323242 16.64306641 C-1.13335052 16.9672052 -1.70346863 17.29134399 -2.29086304 17.62530518 C-13.73065786 24.12672234 -13.73065786 24.12672234 -24.8671875 31.12890625 C-37.15596991 39.22414166 -50.24864067 46.1273386 -63.18286133 53.12646484 C-66.43341147 54.91971838 -69.6231712 56.8063312 -72.8046875 58.71875 C-74.6796875 59.50390625 -74.6796875 59.50390625 -77.6796875 58.50390625 C-77.3496875 52.89390625 -77.0196875 47.28390625 -76.6796875 41.50390625 C-77.3396875 41.17390625 -77.9996875 40.84390625 -78.6796875 40.50390625 C-77.74769531 40.46523438 -76.81570312 40.4265625 -75.85546875 40.38671875 C-70.19679351 39.56235104 -65.66810245 36.30845777 -60.8671875 33.37890625 C-58.72187501 32.09808555 -56.57602257 30.81816888 -54.4296875 29.5390625 C-53.32109375 28.87406738 -52.2125 28.20907227 -51.0703125 27.52392578 C-44.45608795 23.58339483 -37.77046308 19.76573476 -31.08984375 15.93920898 C-26.02064928 13.03018261 -20.97709955 10.09456224 -15.9921875 7.04296875 C-14.68568237 6.25345825 -14.68568237 6.25345825 -13.3527832 5.44799805 C-11.74313124 4.47234121 -10.14199476 3.48243608 -8.55151367 2.47583008 C-3.3924879 -0.62805534 -3.3924879 -0.62805534 0 0 Z " fill="#F38B1F" transform="translate(263.6796875,293.49609375)"/>
<path d="M0 0 C2.18284504 2.65737657 3.27633685 4.65569263 4 8 C3.41734375 8.40089844 2.8346875 8.80179688 2.234375 9.21484375 C-14.46348192 19.53636646 -14.46348192 19.53636646 -27 34 C-27.09189837 35.43182823 -27.12193458 36.86786948 -27.12025452 38.30264282 C-27.12162918 39.20570663 -27.12300385 40.10877045 -27.12442017 41.03919983 C-27.12082489 42.0325383 -27.11722961 43.02587677 -27.11352539 44.04931641 C-27.11367142 45.09324051 -27.11381744 46.13716461 -27.1139679 47.21272278 C-27.11326922 50.67569023 -27.10547891 54.1386044 -27.09765625 57.6015625 C-27.09579191 59.99767019 -27.09436808 62.39377827 -27.09336853 64.78988647 C-27.08954461 71.10608975 -27.07971538 77.42227014 -27.06866455 83.73846436 C-27.05844774 90.17980642 -27.05387033 96.62115217 -27.04882812 103.0625 C-27.03809302 115.7083434 -27.02101808 128.3541698 -27 141 C-30.3 142.65 -33.6 144.3 -37 146 C-37.13909617 131.01378081 -37.24607043 116.02765971 -37.31087303 101.0409317 C-37.34176654 94.08175128 -37.38385934 87.12298015 -37.45263672 80.1640625 C-37.51899493 73.44669477 -37.55371909 66.72983979 -37.56926346 60.01213074 C-37.58033913 57.45087497 -37.60196759 54.88964212 -37.63438034 52.3285675 C-37.67801702 48.73741638 -37.68393061 45.14801475 -37.68115234 41.55664062 C-37.702724 40.50071716 -37.72429565 39.4447937 -37.746521 38.35687256 C-37.6863224 31.15288622 -35.96764311 27.20168623 -31 22 C-30.33097656 21.28070313 -29.66195312 20.56140625 -28.97265625 19.8203125 C-20.1887576 12.02437791 -10.22420401 5.72975957 0 0 Z " fill="#507381" transform="translate(144,79)"/>
<path d="M0 0 C2.44140625 0.65234375 2.44140625 0.65234375 5 2 C5.71484375 4.50390625 5.71484375 4.50390625 5.9375 7.5625 C6.70923836 13.71414521 8.57057956 18.53676719 13 23 C13.99 23 14.98 23 16 23 C16.66 21.35 17.32 19.7 18 18 C20.91916538 17.65248031 23.13195476 17.46719982 25.69921875 19.04296875 C27.88339965 20.84637235 29.72206192 22.44412384 31 25 C31.02584529 27.29161562 31.04582442 29.58329931 31.0625 31.875 C31.27303447 36.67925189 31.27303447 36.67925189 33.38671875 40.8125 C40.44538185 44.83756575 50.37423885 43.74020152 58 42 C58.3125 45.25 58.3125 45.25 58 49 C54.15109366 53.33001963 48.39822987 55.57305771 42.69921875 56.2890625 C40.29245211 56.40081949 37.90894825 56.40980022 35.5 56.375 C34.69691406 56.38660156 33.89382813 56.39820313 33.06640625 56.41015625 C27.42259108 56.38271469 23.09551292 55.48519994 18 53 C16.5 49.3125 16.5 49.3125 16 46 C14.824375 45.835 13.64875 45.67 12.4375 45.5 C6.92795419 44.13973913 4.1506121 40.51587735 1 36 C-4.52592954 25.70167676 -2.80191185 10.8574084 0 0 Z " fill="#F5CBAB" transform="translate(303,147)"/>
<path d="M0 0 C0.0933823 16.7676616 0.16394909 33.53523904 0.20724869 50.30309772 C0.22788656 58.08846534 0.2560303 65.87367153 0.30175781 73.65893555 C0.34158839 80.44345254 0.36742391 87.22785264 0.37635398 94.0124833 C0.38157523 97.60598129 0.39387179 101.19914484 0.42292023 104.79253578 C0.45506255 108.80105134 0.45596187 112.80898303 0.45410156 116.81762695 C0.46848267 118.0130864 0.48286377 119.20854584 0.49768066 120.44023132 C0.49218201 121.52978119 0.48668335 122.61933105 0.48101807 123.74189758 C0.48470524 124.69042256 0.48839241 125.63894754 0.49219131 126.61621571 C0 129 0 129 -1.87771988 130.80372906 C-4.42857086 132.24157361 -6.08467963 132.40166452 -9 132.375 C-9.845625 132.38273438 -10.69125 132.39046875 -11.5625 132.3984375 C-14.43365432 131.9291142 -15.83441027 130.89489101 -18 129 C-17.875 127.25 -17.875 127.25 -17 125 C-11.77777778 121 -11.77777778 121 -9 121 C-9 84.7 -9 48.4 -9 11 C-13.26272499 9.29491 -16.51311093 8.5278693 -21 8 C-21 7.67 -21 7.34 -21 7 C-20.3709375 6.91363281 -19.741875 6.82726562 -19.09375 6.73828125 C-13.4197137 5.80685059 -9.36353151 4.39829207 -4.69140625 1.0234375 C-3 0 -3 0 0 0 Z " fill="#5B5F5F" transform="translate(436,211)"/>
<path d="M0 0 C2.79802171 1.34719564 5.58779111 2.71393601 8.3359375 4.16015625 C10.87567908 5.48714685 13.41920529 6.55412853 16.1015625 7.55859375 C20.40334746 9.36370242 24.25592075 11.09546434 27 15 C29.20932053 22.3925716 29.46697995 31.4230559 28 39 C26.60061458 41.48534046 25.79578089 42.719637 23.08325195 43.67529297 C17.13047296 44.2047582 11.98191318 43.5127183 6.1875 42.125 C4.93936523 41.84462891 4.93936523 41.84462891 3.66601562 41.55859375 C0.0979938 40.75171151 -3.45094213 39.88726447 -7 39 C-7 31.41 -7 23.82 -7 16 C-5.35 16 -3.7 16 -2 16 C-1.34 10.72 -0.68 5.44 0 0 Z " fill="#1F1C1C" transform="translate(279,347)"/>
<path d="M0 0 C1.35192347 15.92265418 1.35192347 15.92265418 -1.44140625 20.21484375 C-3.8715224 21.80571675 -6.32311808 22.86707449 -9 24 C-10.97124389 25.08237494 -12.90900768 26.21490182 -14.85083008 27.34912109 C-20.80620368 30.81211475 -26.87139637 34.04495626 -33.08203125 37.02734375 C-35.23772586 38.0729798 -35.23772586 38.0729798 -38 40 C-39.5328697 40.28207082 -41.07734906 40.50302767 -42.625 40.6875 C-50.26792643 41.93574234 -57.12543882 45.1584262 -64.15991211 48.27563477 C-66 49 -66 49 -70 50 C-70.33 46.7 -70.66 43.4 -71 40 C-70.3299292 39.63648438 -69.6598584 39.27296875 -68.96948242 38.8984375 C-62.38657692 35.31871373 -55.83534547 31.68795419 -49.3125 28 C-48.33498779 27.44747559 -47.35747559 26.89495117 -46.3503418 26.32568359 C-37.0587224 21.05863405 -27.82941384 15.68684262 -18.61328125 10.2890625 C-17.25323975 9.49290527 -17.25323975 9.49290527 -15.86572266 8.68066406 C-13.7959611 7.46680833 -11.72817083 6.24958917 -9.66162109 5.03027344 C-8.57059082 4.38864258 -7.47956055 3.74701172 -6.35546875 3.0859375 C-5.35539795 2.49603027 -4.35532715 1.90612305 -3.32495117 1.29833984 C-1 0 -1 0 0 0 Z " fill="#F38B1F" transform="translate(461,178)"/>
<path d="M0 0 C11.45359101 1.1453591 11.45359101 1.1453591 15.54931641 5.86816406 C20.3591975 12.93647132 21.78134686 20.97638501 22.75 29.3125 C22.93755859 30.75592773 22.93755859 30.75592773 23.12890625 32.22851562 C24.28685109 41.42208866 24.28685109 41.42208866 24 45 C21.54296875 47.02734375 21.54296875 47.02734375 18.1875 48.9375 C17.10855469 49.56527344 16.02960938 50.19304687 14.91796875 50.83984375 C9.95441849 53.57647714 4.97589426 56.28587586 0 59 C0 39.53 0 20.06 0 0 Z " fill="#262626" transform="translate(201,112)"/>
<path d="M0 0 C0.04627979 9.22269206 0.08184694 18.44534434 0.10362434 27.66812706 C0.11407483 31.95034248 0.12825697 36.23247864 0.15087891 40.51464844 C0.17256238 44.64488126 0.18455909 48.77503769 0.18975449 52.90532303 C0.19345835 54.48343738 0.2006908 56.06154741 0.21146011 57.63962936 C0.22591549 59.84496951 0.22798048 62.04999142 0.22705078 64.25537109 C0.231492 65.51223724 0.23593323 66.76910339 0.24050903 68.0640564 C0 71 0 71 -2 73 C-4.12890625 73.23046875 -4.12890625 73.23046875 -6.5625 73.1875 C-7.36816406 73.18105469 -8.17382812 73.17460937 -9.00390625 73.16796875 C-11 73 -11 73 -12 72 C-12.09429342 69.82194281 -12.11742538 67.6407872 -12.11352539 65.46069336 C-12.11367142 64.77779739 -12.11381744 64.09490143 -12.1139679 63.39131165 C-12.11326876 61.12412386 -12.1054764 58.85701726 -12.09765625 56.58984375 C-12.09579207 55.02185613 -12.09436817 53.45386793 -12.09336853 51.88587952 C-12.08954334 47.75123497 -12.07971306 43.61662534 -12.06866455 39.48199463 C-12.05845044 35.26599602 -12.05387091 31.04999178 -12.04882812 26.83398438 C-12.03809079 18.55597353 -12.02101436 10.2779911 -12 2 C-10.60201172 2.29197266 -10.60201172 2.29197266 -9.17578125 2.58984375 C-4.85249885 3.14820126 -3.58724791 0 0 0 Z " fill="#5C5C5D" transform="translate(347,378)"/>
<path d="M0 0 C0.06941953 9.22267087 0.12277008 18.44525222 0.15543652 27.66812706 C0.17111243 31.95039452 0.19238549 36.23248364 0.22631836 40.51464844 C0.25884364 44.6448912 0.2768385 48.77496211 0.28463173 52.90532303 C0.29018758 54.48345268 0.30103646 56.06157261 0.31719017 57.63962936 C0.33887438 59.84508561 0.34197082 62.04982592 0.34057617 64.25537109 C0.34723801 65.51223724 0.35389984 66.76910339 0.36076355 68.0640564 C0.24171158 69.03291779 0.12265961 70.00177917 0 71 C-3.67346771 73.44897847 -5.66356399 73.31537716 -10 73 C-12 71 -12 71 -12.24050903 68.2918396 C-12.23606781 67.14156281 -12.23162659 65.99128601 -12.22705078 64.80615234 C-12.22689972 63.50495453 -12.22674866 62.20375671 -12.22659302 60.86312866 C-12.21637893 59.43739673 -12.20594692 58.01166635 -12.1953125 56.5859375 C-12.19158295 55.13148187 -12.1887357 53.67702373 -12.18673706 52.2225647 C-12.179096 48.39201944 -12.15944357 44.56162554 -12.1373291 40.73114014 C-12.11688078 36.82338509 -12.10773752 32.91560561 -12.09765625 29.0078125 C-12.07619802 21.33847262 -12.04205651 13.66925751 -12 6 C-10.18889433 4.99747693 -8.37607722 3.99804504 -6.5625 3 C-5.55316406 2.443125 -4.54382813 1.88625 -3.50390625 1.3125 C-1 0 -1 0 0 0 Z " fill="#5C5C5C" transform="translate(415,339)"/>
<path d="M0 0 C5.17192998 0.4128426 9.56595941 3.12218571 14.09375 5.453125 C15.93516104 6.38667496 17.7766349 7.32010104 19.61816406 8.25341797 C20.57952271 8.74340271 21.54088135 9.23338745 22.53137207 9.73822021 C40.79814019 19.04060887 59.18009653 27.87740323 78 36 C78 40.95 78 45.9 78 51 C69.91732184 46.62497237 61.91153037 42.13219167 53.9375 37.5625 C52.71591605 36.86317479 51.49431745 36.16387516 50.27270508 35.46459961 C46.51381881 33.31202784 42.75674268 31.15631002 39 29 C38.10438354 28.48614746 38.10438354 28.48614746 37.19067383 27.96191406 C24.05616039 20.42557005 10.93459486 12.87601568 -2 5 C-1.125 1.125 -1.125 1.125 0 0 Z " fill="#55B6C0" transform="translate(254,318)"/>
<path d="M0 0 C0.66 0 1.32 0 2 0 C2.598125 0.825 3.19625 1.65 3.8125 2.5 C9.5820618 9.72912356 19.32225865 14.27757134 28 17 C26.125 22.75 26.125 22.75 25 25 C25.99 25 26.98 25 28 25 C28.66 37.21 29.32 49.42 30 62 C28.515 62.495 28.515 62.495 27 63 C26.6282666 62.27635254 26.2565332 61.55270508 25.87353516 60.80712891 C16.90164516 43.32027314 16.90164516 43.32027314 7.5 26.0625 C4.7243866 21.10712957 1.95126123 16.1549499 -0.6875 11.125 C-1.16574219 10.22007813 -1.64398438 9.31515625 -2.13671875 8.3828125 C-3.11028293 5.69559916 -3.11015623 4.60351359 -2 2 C-1.34 1.34 -0.68 0.68 0 0 Z " fill="#F7F7F7" transform="translate(158,117)"/>
<path d="M0 0 C1.69271945 0.5974304 3.35380887 1.28426473 5 2 C6.08104004 2.40444336 7.16208008 2.80888672 8.27587891 3.22558594 C12.24201381 7.26494398 11.68172638 10.70647331 11.67977905 16.21099854 C11.64914125 17.60422164 11.61784531 18.9974304 11.5859375 20.390625 C11.57474205 21.81978575 11.5662035 23.24896958 11.56021118 24.67816162 C11.53733905 28.43363403 11.47843371 32.18770644 11.4119873 35.94262695 C11.35052752 39.7766628 11.32318853 43.61092568 11.29296875 47.4453125 C11.22868551 54.96417885 11.12632986 62.48189302 11 70 C8.77109005 71.11445498 7.46944894 71.16480286 5 71.1875 C3.948125 71.20876953 3.948125 71.20876953 2.875 71.23046875 C1 71 1 71 -1 69 C-1.24291992 66.9609375 -1.24291992 66.9609375 -1.23046875 64.375 C-1.22917969 63.37766846 -1.22789062 62.38033691 -1.2265625 61.3527832 C-1.21367187 60.24636475 -1.20078125 59.13994629 -1.1875 58 C-1.18105469 56.84910889 -1.17460937 55.69821777 -1.16796875 54.51245117 C-1.01780223 36.33878296 -0.48663112 18.16713043 0 0 Z " fill="#5C5C5C" transform="translate(261,337)"/>
<path d="M0 0 C-0.13019531 1.03640625 -0.26039063 2.0728125 -0.39453125 3.140625 C-0.53524863 4.51027412 -0.67449461 5.88007497 -0.8125 7.25 C-0.90208984 7.93191406 -0.99167969 8.61382812 -1.08398438 9.31640625 C-1.35053818 11.60335109 -1.35053818 11.60335109 -1 15 C3.69301438 20.10710389 11.61835475 23.2992199 18.41796875 24.38671875 C22.04267426 24.4751262 24.9627494 24.02483374 28 22 C27.38910658 27.49804075 27.38910658 27.49804075 25.70703125 29.66796875 C22.22095467 32.38822531 18.18765732 31.51608453 14 31 C2.46009926 28.85035802 -12.42217404 25.57782596 -21 17 C-21.1953125 13.7421875 -21.1953125 13.7421875 -21.125 9.875 C-21.10695312 8.59367187 -21.08890625 7.31234375 -21.0703125 5.9921875 C-21.04710937 5.00476563 -21.02390625 4.01734375 -21 3 C-13.51510583 -0.85114887 -8.18650238 -1.18249479 0 0 Z " fill="#383434" transform="translate(229,382)"/>
<path d="M0 0 C3.06382739 0.32432407 3.98970965 0.98901487 6.140625 3.28515625 C7.18476563 4.65994141 7.18476563 4.65994141 8.25 6.0625 C8.95640625 6.98160156 9.6628125 7.90070313 10.390625 8.84765625 C10.92171875 9.55792969 11.4528125 10.26820313 12 11 C12.33 9.68 12.66 8.36 13 7 C14.32 7.33 15.64 7.66 17 8 C17.45572917 10.01822917 17.91145833 12.03645833 18.3671875 14.0546875 C18.90474428 16.20719964 18.90474428 16.20719964 21 18 C20.443125 18.09796875 19.88625 18.1959375 19.3125 18.296875 C10.45441578 20.03258069 4.38084009 22.60134488 -1 30 C-6.11474759 26.10866466 -10.37694283 21.9713836 -13 16 C-13 14.68 -13 13.36 -13 12 C-11.68 12 -10.36 12 -9 12 C-9.33 10.02 -9.66 8.04 -10 6 C-8.68 6.33 -7.36 6.66 -6 7 C-6 5.35 -6 3.7 -6 2 C-4.68 2 -3.36 2 -2 2 C-1.67 2.33 -1.34 2.66 -1 3 C-0.67 2.01 -0.34 1.02 0 0 Z " fill="#FED6B6" transform="translate(226,234)"/>
<path d="M0 0 C2.4375 0.375 2.4375 0.375 5 1 C6.68089594 4.36179188 6.14150004 8.15887923 6.1328125 11.85546875 C6.13376923 12.74929764 6.13472595 13.64312653 6.13571167 14.56404114 C6.13639372 16.46644155 6.13453774 18.36884427 6.13037109 20.27124023 C6.12510452 23.13075278 6.13027228 25.99010228 6.13671875 28.84960938 C6.14036037 34.23409026 6.09425075 39.61635011 6 45 C5.98674683 45.78683167 5.97349365 46.57366333 5.95983887 47.38433838 C5.91221288 49.50415368 5.83454128 51.61999998 5.7421875 53.73828125 C5.69690918 54.91044189 5.65163086 56.08260254 5.60498047 57.2902832 C5 60 5 60 2.95361328 61.39135742 C2.3089209 61.59220947 1.66422852 61.79306152 1 62 C0.14168734 57.92567808 -0.71270274 53.85055931 -1.56347656 49.7746582 C-1.853416 48.38836498 -2.14442379 47.00229474 -2.43652344 45.61645508 C-2.85633299 43.62378763 -3.27228675 41.63034833 -3.6875 39.63671875 C-3.93886719 38.43748779 -4.19023437 37.23825684 -4.44921875 36.00268555 C-5 33 -5 33 -5 30 C-4.34 29.34 -3.68 28.68 -3 28 C-4.65 26.68 -6.3 25.36 -8 24 C-7.30733439 20.36350555 -5.74839661 17.49462064 -4 14.25 C-1.47231534 9.31557252 -0.21218209 5.51673445 0 0 Z " fill="#F6F6F5" transform="translate(196,111)"/>
<path d="M0 0 C3.465 1.98 3.465 1.98 7 4 C7 21.49 7 38.98 7 57 C-4 56 -4 56 -7 54 C-6.80664062 53.3709375 -6.61328125 52.741875 -6.4140625 52.09375 C-6.15367187 51.2378125 -5.89328125 50.381875 -5.625 49.5 C-5.36976563 48.6646875 -5.11453125 47.829375 -4.8515625 46.96875 C-4.57054687 45.9890625 -4.28953125 45.009375 -4 44 C-3.63777344 42.78957031 -3.27554688 41.57914063 -2.90234375 40.33203125 C-1.6595113 35.29522656 -1.81841794 30.34411393 -1.9375 25.1875 C-1.97193193 23.32690049 -2.00207271 21.46621523 -2.02734375 19.60546875 C-2.04531006 18.79231201 -2.06327637 17.97915527 -2.08178711 17.14135742 C-2 15 -2 15 -1 12 C-0.77674186 9.94106379 -0.59294241 7.87766347 -0.4375 5.8125 C-0.35371094 4.72582031 -0.26992187 3.63914063 -0.18359375 2.51953125 C-0.12300781 1.68808594 -0.06242188 0.85664062 0 0 Z " fill="#638BA9" transform="translate(203,56)"/>
<path d="M0 0 C0 9.24 0 18.48 0 28 C-3.63 26.02 -7.26 24.04 -11 22 C-13.72706641 20.53741191 -16.4550559 19.07740565 -19.1875 17.625 C-19.85330078 17.27050781 -20.51910156 16.91601562 -21.20507812 16.55078125 C-22.80312126 15.70002447 -24.40151932 14.8499344 -26 14 C-21.60688408 11.07125606 -17.01478752 8.50366212 -12.4375 5.875 C-11.46619141 5.31167969 -10.49488281 4.74835938 -9.49414062 4.16796875 C-8.56666016 3.63558594 -7.63917969 3.10320312 -6.68359375 2.5546875 C-5.83337646 2.06468262 -4.98315918 1.57467773 -4.10717773 1.06982422 C-2 0 -2 0 0 0 Z " fill="#F4A14B" transform="translate(289,247)"/>
<path d="M0 0 C2.31 0.33 4.62 0.66 7 1 C7.01417969 1.72445313 7.02835937 2.44890625 7.04296875 3.1953125 C7.25808184 9.72292033 7.25808184 9.72292033 10.0625 15.4375 C14.69736551 19.48068055 19.04049202 22.19052918 25.3125 22.375 C29.0838401 22.28187031 29.0838401 22.28187031 32 20 C32.495 18.515 32.495 18.515 33 17 C33.66 17 34.32 17 35 17 C35.21079572 20.09167049 35.23506168 22.42018118 34.0625 25.3125 C30.78114476 27.9972452 27.15084215 27.9232136 23 28 C19.66466258 27.61501284 16.4502278 26.90639873 13.1875 26.125 C12.35541016 25.93808594 11.52332031 25.75117188 10.66601562 25.55859375 C7.0979938 24.75171151 3.54905787 23.88726447 0 23 C0 15.41 0 7.82 0 0 Z " fill="#383434" transform="translate(272,363)"/>
<path d="M0 0 C3.26460973 1.80412643 4.88929795 2.83394693 7 6 C6.01 6.33 5.02 6.66 4 7 C4.15146484 7.64437012 4.30292969 8.28874023 4.45898438 8.95263672 C5.15067451 11.92424397 5.82540031 14.8994684 6.5 17.875 C6.73847656 18.88820312 6.97695312 19.90140625 7.22265625 20.9453125 C8.68372858 27.45752058 9.24578837 33.32684578 9 40 C5.04 41.98 5.04 41.98 1 44 C0.0052138 40.02085521 -0.34006885 36.25748759 -0.5625 32.1875 C-0.6049585 31.4457251 -0.64741699 30.7039502 -0.69116211 29.93969727 C-1.07732571 22.62279055 -1.09596595 15.32540059 -1 8 C-1.99 8 -2.98 8 -4 8 C-2.25 2.25 -2.25 2.25 0 0 Z " fill="#0E0F0F" transform="translate(187,134)"/>
<path d="M0 0 C1.41539062 0.68835938 1.41539062 0.68835938 2.859375 1.390625 C17.06430618 8.22120806 30.40597304 11.84684983 46 14 C45.67 14.66 45.34 15.32 45 16 C30.60617584 17.17982165 13.9586428 12.06261438 2 4 C0.62890625 1.78515625 0.62890625 1.78515625 0 0 Z " fill="#1C1714" transform="translate(208,397)"/>
<path d="M0 0 C2.75008135 0.64548853 5.50006756 1.29137766 8.25 1.9375 C9.02730469 2.11990234 9.80460937 2.30230469 10.60546875 2.49023438 C11.35957031 2.66748047 12.11367188 2.84472656 12.890625 3.02734375 C13.58188477 3.18968506 14.27314453 3.35202637 14.98535156 3.51928711 C16.34419385 3.84351887 17.69911055 4.18460316 19.04980469 4.54125977 C23.87647338 5.67662662 27.6563037 5.45258816 31.9375 3 C32.948125 2.34 33.95875 1.68 35 1 C33.53365027 5.6434408 33.53365027 5.6434408 31.24609375 7.171875 C22.12515415 10.53472577 9.10201786 5.31864199 0 3 C0 2.01 0 1.02 0 0 Z " fill="#1C1714" transform="translate(272,383)"/>
</svg>
