<?xml version="1.0" encoding="UTF-8"?>
<svg version="1.1" xmlns="http://www.w3.org/2000/svg" width="512" height="512">
<path d="M0 0 C1.36064752 0.02570247 2.72134548 0.04884247 4.08207703 0.06962585 C6.99612453 0.116648 9.90953841 0.1766422 12.82318115 0.24407959 C17.44829721 0.34318911 22.07170738 0.36010886 26.69775391 0.36181641 C33.9212203 0.36664546 41.14180161 0.42963158 48.36436653 0.54448128 C52.48564981 0.60843061 56.60498255 0.65080532 60.72680664 0.64770508 C64.81658089 0.64538578 68.90258275 0.69639377 72.99138451 0.78401756 C74.52083019 0.80785305 76.05069464 0.81329816 77.58025551 0.79860878 C83.87942388 0.74758712 89.32485495 0.71909873 94.49325562 4.74691772 C97.01494142 7.49910153 99.22293721 10.2999818 101.39453125 13.33203125 C102.50337465 14.61698599 103.62463919 15.8915889 104.76953125 17.14453125 C106.88751989 19.57501002 108.98374524 22.02303684 111.0703125 24.48046875 C116.66678532 31.06221655 122.35063485 37.52835043 128.23828125 43.8515625 C131.45422564 47.30572499 134.5997108 50.80638717 137.6875 54.375 C139.73086556 56.71762275 141.81133984 59.02476547 143.89453125 61.33203125 C148.69360917 66.65537818 153.43531075 72.02066464 158.07421875 77.484375 C163.66761444 84.06364367 169.34952726 90.52623307 175.23388672 96.84716797 C178.45529703 100.30775491 181.64711142 103.78160762 184.68286514 107.40703583 C186.33860203 109.34829258 186.33860203 109.34829258 188.20186996 110.92090607 C192.52165115 114.97063393 193.8951087 118.13486662 194.3237915 124.04870605 C194.38359928 126.75766351 194.40615271 129.4502009 194.39550781 132.15820312 C194.41484134 133.65381168 194.43704434 135.14938547 194.46188354 136.64491272 C194.51920712 140.68847101 194.53173912 144.73095964 194.53239918 148.77488136 C194.53609101 152.1571663 194.55939798 155.53921508 194.58186507 158.92141867 C194.63357827 166.90266738 194.64633672 174.8833561 194.63671875 182.86474609 C194.62766894 191.08656766 194.69280629 199.30552185 194.79300714 207.52667379 C194.87609662 214.59881307 194.90882025 221.67002195 194.90237403 228.74264383 C194.89929176 232.96130954 194.91599183 237.17755102 194.98297882 241.39573669 C195.04414331 245.3634337 195.04231934 249.32628237 194.99298477 253.29409599 C194.98541324 254.74532838 194.99982448 256.19687634 195.03841019 257.64761543 C195.15061831 262.16798374 195.00829706 266.08595665 193.39453125 270.33203125 C189.42526675 273.98662892 185.29102912 276.0505447 180.39453125 278.33203125 C178.36942078 279.49177975 176.35321246 280.66740151 174.3515625 281.8671875 C172.30448651 283.04488474 170.25627303 284.22060663 168.20703125 285.39453125 C166.50410343 286.37354238 164.80117745 287.35255672 163.09835815 288.33175659 C161.35057664 289.33650424 159.60232529 290.34043039 157.85400391 291.34423828 C152.36313888 294.49925755 146.8790578 297.66601088 141.39453125 300.83203125 C139.22789984 302.08209237 137.06123311 303.33209225 134.89453125 304.58203125 C133.82203125 305.20078125 132.74953125 305.81953125 131.64453125 306.45703125 C17.89453124 372.08203125 17.89453124 372.08203125 14.64404297 373.95727539 C12.47896054 375.20638643 10.31392143 376.45557254 8.14892578 377.70483398 C2.70837419 380.84405434 -2.73294091 383.98193688 -8.17578125 387.1171875 C-18.99911042 393.3533105 -29.81368226 399.60394727 -40.60546875 405.89453125 C-41.56598145 406.45406494 -42.52649414 407.01359863 -43.51611328 407.59008789 C-44.43247559 408.12496826 -45.34883789 408.65984863 -46.29296875 409.2109375 C-47.17726562 409.72285645 -48.0615625 410.23477539 -48.97265625 410.76220703 C-50.77288464 411.83559988 -52.54854182 412.95100838 -54.30078125 414.10107422 C-55.16445312 414.66068848 -56.028125 415.22030273 -56.91796875 415.796875 C-58.05685547 416.56245728 -58.05685547 416.56245728 -59.21875 417.34350586 C-62.43869759 418.67713595 -64.27257911 418.24190904 -67.60546875 417.33203125 C-70.07714844 416.17138672 -70.07714844 416.17138672 -72.52734375 414.69921875 C-73.45659668 414.1482251 -74.38584961 413.59723145 -75.34326172 413.02954102 C-76.33729004 412.42811279 -77.33131836 411.82668457 -78.35546875 411.20703125 C-80.51906996 409.92109856 -82.68314877 408.63596915 -84.84765625 407.3515625 C-85.96366211 406.68592285 -87.07966797 406.0202832 -88.22949219 405.33447266 C-93.61799976 402.13830986 -99.0489947 399.01692911 -104.48046875 395.89453125 C-106.66545311 394.63557029 -108.85034847 393.37645487 -111.03515625 392.1171875 C-112.12022461 391.49215332 -113.20529297 390.86711914 -114.32324219 390.22314453 C-119.75206817 387.09522977 -125.17866156 383.96344677 -130.60546875 380.83203125 C-132.77212458 379.58201246 -134.93879125 378.33201247 -137.10546875 377.08203125 C-202.10546875 339.58203125 -202.10546875 339.58203125 -205.35668945 337.70629883 C-207.51925458 336.45868385 -209.68185214 335.21112509 -211.84448242 333.96362305 C-217.32417246 330.80259676 -222.80326233 327.64053816 -228.28125 324.4765625 C-229.39306641 323.83460938 -230.50488281 323.19265625 -231.65039062 322.53125 C-233.71311006 321.34022371 -235.77563622 320.14886256 -237.83789062 318.95703125 C-244.72500858 314.98105738 -251.62667525 311.03095292 -258.53198242 307.08666992 C-259.50279503 306.53203819 -260.47360764 305.97740646 -261.47383881 305.40596771 C-263.85099711 304.0478984 -266.2282084 302.68992192 -268.60546875 301.33203125 C-268.90936881 281.52193253 -269.13849786 261.71230769 -269.27902699 241.90036011 C-269.34601722 232.70084646 -269.43731352 223.5027823 -269.58618164 214.30419922 C-269.71589998 206.28505005 -269.79965712 198.26695053 -269.82861918 190.24678135 C-269.84554723 186.00081469 -269.88520987 181.75785026 -269.97995949 177.5128479 C-270.06851252 173.51289117 -270.09536772 169.5171574 -270.07586861 165.51631355 C-270.07943244 164.05201264 -270.10513498 162.58756427 -270.15513992 161.12411308 C-270.30298794 156.57218544 -270.20239205 152.61990267 -268.60546875 148.33203125 C-264.62992544 144.67674723 -260.52066845 142.58911869 -255.60546875 140.33203125 C-254.06718893 139.4524495 -252.53660492 138.55883221 -251.0234375 137.63671875 C-249.61430345 136.82504571 -248.20412636 136.01518105 -246.79296875 135.20703125 C-245.15336948 134.26350089 -243.51406074 133.31946555 -241.875 132.375 C-240.59423584 131.63709229 -240.59423584 131.63709229 -239.28759766 130.88427734 C-236.49580631 129.26856559 -233.71181115 127.64011118 -230.9296875 126.0078125 C-220.66968778 119.98987083 -210.37485025 114.05276851 -199.98046875 108.26953125 C-189.35601779 102.35537133 -178.87756167 96.22272046 -168.42822266 90.00585938 C-156.27486157 82.79919585 -144.07437819 75.67009384 -131.73388672 68.78833008 C-125.89778643 65.5224525 -120.12668359 62.14845281 -114.35546875 58.76953125 C-105.51012993 53.59202955 -96.63413533 48.47092166 -87.73046875 43.39453125 C-75.43127724 36.3811558 -63.1609202 29.31904976 -50.90234375 22.23486328 C-48.029241 20.57661663 -45.15449374 18.92130284 -42.27853394 17.26802063 C-40.49549057 16.24301053 -38.71278898 15.2174084 -36.93017578 14.19165039 C-34.69742973 12.90714985 -32.46407106 11.62371333 -30.22998047 10.34155273 C-29.21693848 9.75833252 -28.20389648 9.1751123 -27.16015625 8.57421875 C-26.27827637 8.06745605 -25.39639648 7.56069336 -24.48779297 7.03857422 C-21.74216881 5.50003417 -21.74216881 5.50003417 -19.95835876 4.02931213 C-13.63867964 -0.6826996 -7.64419314 -0.24692683 0 0 Z " fill="#A7A7A7" transform="translate(293.60546875,46.66796875)"/>
<path d="M0 0 C1.78655754 0.00704704 1.78655754 0.00704704 3.60920715 0.01423645 C5.56765816 0.03776436 5.56765816 0.03776436 7.56567383 0.06176758 C8.94914693 0.07209837 10.3326263 0.08161629 11.71611023 0.09037781 C14.6844048 0.11066073 17.65257398 0.13699671 20.62078857 0.16668701 C25.27904282 0.21053903 29.93702798 0.21891985 34.59545898 0.22436523 C41.81221273 0.23603574 49.02676409 0.30409972 56.24261665 0.41870308 C60.36387427 0.48273147 64.48318114 0.52507288 68.60498047 0.52197266 C72.69475472 0.51965336 76.78075658 0.57066134 80.86955833 0.65828514 C82.39900401 0.68212063 83.92886847 0.68756574 85.45842934 0.67287636 C91.7575977 0.62185469 97.20302878 0.59336631 102.37142944 4.6211853 C104.89311525 7.37336911 107.10111104 10.17424938 109.27270508 13.20629883 C110.38154848 14.49125357 111.50281302 15.76585648 112.64770508 17.01879883 C114.76569372 19.4492776 116.86191907 21.89730442 118.94848633 24.35473633 C124.54495914 30.93648413 130.22880868 37.40261801 136.11645508 43.72583008 C139.33239947 47.17999257 142.47788463 50.68065475 145.56567383 54.24926758 C147.60903938 56.59189033 149.68951367 58.89903305 151.77270508 61.20629883 C156.571783 66.52964576 161.31348458 71.89493221 165.95239258 77.35864258 C171.54578827 83.93791125 177.22770109 90.40050065 183.11206055 96.72143555 C186.91955479 100.81162077 190.62186217 104.97666375 194.27270508 109.20629883 C195.58428729 110.7071014 196.89677917 112.2071095 198.21020508 113.70629883 C199.23103841 114.87296549 200.25187174 116.03963216 201.27270508 117.20629883 C198.49533162 120.19515151 195.83341517 122.21680791 192.25708008 124.16723633 C191.26587158 124.71371826 190.27466309 125.2602002 189.25341797 125.82324219 C188.18728271 126.40340088 187.12114746 126.98355957 186.02270508 127.58129883 C183.74436742 128.83861407 181.46704769 130.09777537 179.19067383 131.35864258 C178.32139503 131.83929924 178.32139503 131.83929924 177.43455505 132.32966614 C171.68456398 135.51604036 166.00471563 138.81694783 160.33520508 142.14379883 C158.34439016 143.31058579 156.35350407 144.47725133 154.36254883 145.64379883 C153.36594238 146.22774414 152.36933594 146.81168945 151.3425293 147.41333008 C146.03943258 150.51066921 140.71875572 153.57743741 135.39770508 156.64379883 C133.77747437 157.57760376 133.77747437 157.57760376 132.12451172 158.53027344 C129.93474174 159.79206709 127.74488153 161.05370417 125.55493164 162.31518555 C120.12610565 165.44310031 114.69951227 168.57488331 109.27270508 171.70629883 C107.10604925 172.95631762 104.93938258 174.20631761 102.77270508 175.45629883 C101.70020508 176.07504883 100.62770508 176.69379883 99.52270508 177.33129883 C63.77270508 197.95629883 63.77270508 197.95629883 60.5222168 199.83154297 C58.35713437 201.08065401 56.19209526 202.32984012 54.02709961 203.57910156 C48.58654802 206.71832192 43.14523292 209.85620446 37.70239258 212.99145508 C27.25064192 219.01377278 16.80980241 225.05314971 6.39770508 231.14379883 C-3.51928886 236.94209772 -13.47225645 242.67622909 -23.46313477 248.34619141 C-29.01572057 251.49936211 -34.5474143 254.67918415 -40.02807617 257.95629883 C-40.99527588 258.52848145 -41.96247559 259.10066406 -42.95898438 259.69018555 C-44.75830513 260.7568611 -46.55032342 261.83598684 -48.33349609 262.92944336 C-49.12344971 263.39463379 -49.91340332 263.85982422 -50.72729492 264.33911133 C-51.40791992 264.7504834 -52.08854492 265.16185547 -52.78979492 265.58569336 C-54.72729492 266.20629883 -54.72729492 266.20629883 -56.83154297 265.46801758 C-59.50774818 263.68686773 -61.41242913 261.48672976 -63.53979492 259.08129883 C-64.19999634 258.33988647 -64.19999634 258.33988647 -64.87353516 257.58349609 C-66.16470497 256.13025279 -67.44619342 254.66842554 -68.72729492 253.20629883 C-69.6631543 252.14088867 -69.6631543 252.14088867 -70.61791992 251.05395508 C-71.73387682 249.77894825 -72.84715635 248.50159315 -73.95776367 247.22192383 C-75.97844448 244.92022118 -78.0404211 242.65865504 -80.10229492 240.39379883 C-83.15588359 237.01688901 -86.07158697 233.57412751 -88.91479492 230.01879883 C-93.81732978 223.95309665 -99.14987529 218.32464906 -104.49682617 212.65161133 C-107.43762071 209.5285396 -110.29128669 206.3435779 -113.09057617 203.09301758 C-115.10603264 200.76971096 -117.16577955 198.48881418 -119.22729492 196.20629883 C-124.02637284 190.88295189 -128.76807442 185.51766544 -133.40698242 180.05395508 C-134.40926491 178.87529604 -135.41188004 177.69691981 -136.41479492 176.51879883 C-136.92236328 175.92236572 -137.42993164 175.32593262 -137.95288086 174.71142578 C-142.10322895 169.86568052 -146.39811302 165.16956613 -150.80615234 160.55712891 C-153.56882409 157.62785438 -155.79935592 154.74409935 -157.72729492 151.20629883 C-155.8542825 150.03644389 -153.978722 148.87066885 -152.10229492 147.70629883 C-151.0581543 147.05661133 -150.01401367 146.40692383 -148.93823242 145.73754883 C-142.95277721 142.08454373 -136.82428701 138.66844727 -130.72729492 135.20629883 C-136.76821691 134.87843397 -142.80990005 134.56828373 -148.85229492 134.26879883 C-149.78436768 134.22239258 -150.71644043 134.17598633 -151.67675781 134.12817383 C-163.94968753 133.52903767 -176.2144731 133.11582538 -188.50073242 132.92114258 C-189.72825226 132.90156998 -190.95577209 132.88199738 -192.2204895 132.86183167 C-198.29314964 132.7695893 -204.36564324 132.69447058 -210.4387207 132.63623047 C-212.67033005 132.60760275 -214.90193819 132.57888023 -217.13354492 132.55004883 C-218.16289154 132.54484726 -219.19223816 132.53964569 -220.2527771 132.5342865 C-221.66812241 132.51405174 -221.66812241 132.51405174 -223.11206055 132.4934082 C-224.34647888 132.48247131 -224.34647888 132.48247131 -225.60583496 132.47131348 C-227.72729492 132.20629883 -227.72729492 132.20629883 -230.72729492 130.20629883 C-230.04852295 129.82932861 -229.36975098 129.4523584 -228.67041016 129.06396484 C-212.41400881 120.05600286 -212.41400881 120.05600286 -196.41064453 110.61083984 C-189.76495291 106.57605478 -182.9687365 102.8080768 -176.19116211 99.00073242 C-170.86191126 95.99985456 -165.57209596 92.95600453 -160.35229492 89.76879883 C-153.74290194 85.73646274 -146.99185139 81.97124631 -140.22729492 78.20629883 C-132.99397616 74.17953018 -125.80584911 70.12090203 -118.73876953 65.80859375 C-112.32831524 61.91988294 -105.805081 58.22789587 -99.28979492 54.51879883 C-90.40761323 49.46150617 -81.5468262 44.37248006 -72.72729492 39.20629883 C-64.0924033 34.14984377 -55.42117034 29.16033413 -46.72729492 24.20629883 C-37.51532541 18.95609869 -28.32456577 13.67217556 -19.16479492 8.33129883 C-18.15352539 7.74219727 -17.14225586 7.1530957 -16.1003418 6.54614258 C-4.82977616 -0.03943429 -4.82977616 -0.03943429 0 0 Z " fill="#BFBFBF" transform="translate(285.727294921875,46.793701171875)"/>
<path d="M0 0 C0.3015598 12.37799602 0.53236608 24.75511518 0.67355824 37.13603973 C0.74133583 42.88563495 0.83320658 48.63271312 0.98071289 54.38085938 C1.12225067 59.9313261 1.19974759 65.47937714 1.23340416 71.0315094 C1.25737751 73.14651028 1.30419961 75.2613825 1.37449074 77.37535095 C1.88916238 93.499061 1.88916238 93.499061 -1.24064445 97.64240837 C-4.71843162 100.7310346 -8.69028162 102.3094506 -13 104 C-15.03256963 105.14662535 -17.05017828 106.32071188 -19.04296875 107.53515625 C-21.09004474 108.71285349 -23.13825822 109.88857538 -25.1875 111.0625 C-26.89042782 112.04151113 -28.5933538 113.02052547 -30.2961731 113.99972534 C-32.04395461 115.00447299 -33.79220596 116.00839914 -35.54052734 117.01220703 C-41.03139237 120.1672263 -46.51547345 123.33397963 -52 126.5 C-54.16663141 127.75006112 -56.33329814 129.000061 -58.5 130.25 C-59.5725 130.86875 -60.645 131.4875 -61.75 132.125 C-175.5 197.75 -175.5 197.75 -178.75048828 199.62524414 C-180.91557071 200.87435518 -183.08060982 202.12354129 -185.24560547 203.37280273 C-190.68615706 206.51202309 -196.12747216 209.64990563 -201.5703125 212.78515625 C-212.39364167 219.02127925 -223.20821351 225.27191602 -234 231.5625 C-235.44076904 232.40180054 -235.44076904 232.40180054 -236.91064453 233.25805664 C-242.31599563 236.41315827 -247.68220923 239.61915574 -253.00390625 242.91381836 C-255 244 -255 244 -257 244 C-257.20857902 231.58710487 -257.36846936 219.17462686 -257.46630955 206.76033592 C-257.51327023 200.99568136 -257.57695699 195.23222601 -257.67895508 189.46826172 C-257.77678544 183.90496684 -257.83056607 178.34282479 -257.85389519 172.77873611 C-257.87051832 170.65670238 -257.90298162 168.53473144 -257.95157051 166.41318893 C-258.3168342 149.8031904 -258.3168342 149.8031904 -255.13864136 145.45117188 C-252.79175835 143.84826984 -250.68546852 142.9017148 -248 142 C-246.99453125 141.40348633 -245.9890625 140.80697266 -244.953125 140.19238281 C-244.06109375 139.70092773 -243.1690625 139.20947266 -242.25 138.703125 C-240.73321655 137.86213257 -240.73321655 137.86213257 -239.18579102 137.00415039 C-238.13447998 136.42528076 -237.08316895 135.84641113 -236 135.25 C-228.81107379 131.25824176 -221.63363437 127.26001356 -214.5625 123.0625 C-207.59230165 118.92682031 -200.58498988 114.85878933 -193.5625 110.8125 C-192.45527588 110.17449463 -191.34805176 109.53648926 -190.20727539 108.87915039 C-187.93662932 107.57110523 -185.66587642 106.26324552 -183.39501953 104.95556641 C-177.9283002 101.80667946 -172.46425113 98.65316736 -167 95.5 C-164.83334689 94.2499765 -162.66668021 92.99997653 -160.5 91.75 C-159.4275 91.13125 -158.355 90.5125 -157.25 89.875 C-95.5 54.25 -95.5 54.25 -92.24951172 52.37475586 C-90.08442929 51.12564482 -87.91939018 49.87645871 -85.75439453 48.62719727 C-80.31384294 45.48797691 -74.87252784 42.35009437 -69.4296875 39.21484375 C-58.89740507 33.14636231 -48.37365544 27.0640067 -37.875 20.9375 C-36.90852539 20.37393799 -35.94205078 19.81037598 -34.94628906 19.22973633 C-29.70173386 16.16924739 -24.46464481 13.09656235 -19.234375 10.01171875 C-18.12852051 9.36146729 -17.02266602 8.71121582 -15.88330078 8.04125977 C-13.74933859 6.78624184 -11.61741863 5.5277434 -9.48779297 4.26538086 C-8.05910889 3.42632202 -8.05910889 3.42632202 -6.6015625 2.5703125 C-5.75932129 2.07289551 -4.91708008 1.57547852 -4.04931641 1.06298828 C-2 0 -2 0 0 0 Z " fill="#A5A5A5" transform="translate(487,221)"/>
<path d="M0 0 C2.64311244 19.13087175 2.64311244 19.13087175 -1.24951172 24.82910156 C-5.020733 28.07909714 -9.66444655 29.83747639 -14.21435547 31.74462891 C-19.51739599 34.13448293 -24.43779759 37.22792754 -29.4375 40.1875 C-31.68446272 41.48608 -33.93318641 42.78161738 -36.18359375 44.07421875 C-42.79115029 47.87919815 -49.39591026 51.6890074 -56 55.5 C-62.52232439 59.26365365 -69.04513763 63.02644623 -75.5703125 66.78515625 C-86.02206199 72.80747329 -96.46299548 78.84669337 -106.875 84.9375 C-116.14499777 90.35921178 -125.45831752 95.70204915 -134.78845215 101.01922607 C-142.92570022 105.65775244 -151.03970831 110.33379692 -159.125 115.0625 C-176.98169262 125.50603136 -194.91312924 135.81779094 -212.88302612 146.06500244 C-223.31120999 152.01351835 -233.69059683 158.04329834 -244.05078125 164.109375 C-244.90752441 164.60373047 -245.76426758 165.09808594 -246.64697266 165.60742188 C-248.12350525 166.48126935 -249.58067897 167.38966429 -251.00537109 168.34570312 C-252.79296875 169.515625 -252.79296875 169.515625 -256 171 C-260.16893925 169.94826369 -263.66438133 168.21420071 -267.359375 166.05078125 C-268.37902344 165.4578125 -269.39867187 164.86484375 -270.44921875 164.25390625 C-271.53847656 163.61324219 -272.62773437 162.97257813 -273.75 162.3125 C-274.90720972 161.63743361 -276.06476857 160.96296538 -277.22265625 160.2890625 C-279.62570582 158.88984195 -282.0272392 157.48807065 -284.42773438 156.08447266 C-289.93786812 152.86550635 -295.47007617 149.68480155 -301 146.5 C-303.16676979 145.25017876 -305.33343615 144.0001782 -307.5 142.75 C-308.5725 142.13125 -309.645 141.5125 -310.75 140.875 C-340 124 -369.25 107.125 -398.5 90.25 C-399.5732251 89.63084717 -400.6464502 89.01169434 -401.75219727 88.3737793 C-403.91159395 87.1279423 -406.07093669 85.88201182 -408.23022461 84.63598633 C-413.75767597 81.44651047 -419.28615121 78.25883115 -424.81640625 75.07421875 C-434.58011894 69.45024164 -444.34303524 63.82522407 -454.0625 58.125 C-454.76511963 57.71403076 -455.46773926 57.30306152 -456.19165039 56.87963867 C-460.87952283 54.12047717 -460.87952283 54.12047717 -462 53 C-463.13743827 45.53892592 -463.61123834 37.40469098 -462 30 C-459.24779941 26.47920828 -457.10784177 25.36431375 -452.9753418 23.73730469 C-449.66126629 22.39115085 -446.95705062 20.61044268 -444.03755188 18.53315735 C-432.21425063 10.57225365 -419.48774161 12.16355785 -405.8125 12.8125 C-403.25094606 12.89972665 -400.68925231 12.98293387 -398.12744141 13.06225586 C-391.66276114 13.27452326 -385.20199831 13.54350532 -378.74041748 13.83422852 C-373.99465399 14.04455591 -369.24809862 14.23066711 -364.50132751 14.4165802 C-352.9969071 14.86945084 -341.49760921 15.39932642 -330 16 C-333.35366977 18.79782759 -336.70867818 21.1054068 -340.51953125 23.234375 C-341.54111328 23.80800781 -342.56269531 24.38164062 -343.61523438 24.97265625 C-344.67033203 25.55917969 -345.72542969 26.14570313 -346.8125 26.75 C-347.88693359 27.35199219 -348.96136719 27.95398438 -350.06835938 28.57421875 C-352.71000458 30.05354006 -355.3539124 31.52864431 -358 33 C-354.32759787 38.06401519 -350.5051048 42.78936294 -346.1875 47.3125 C-342.51044555 51.22495837 -338.97486694 55.1735781 -335.625 59.375 C-330.79751343 65.39173965 -325.51729536 70.94530903 -320.23046875 76.5546875 C-317.28967421 79.67775922 -314.43600823 82.86272092 -311.63671875 86.11328125 C-309.62126228 88.43658787 -307.56151538 90.71748465 -305.5 93 C-300.70092208 98.32334693 -295.9592205 103.68863339 -291.3203125 109.15234375 C-285.72825096 115.73004312 -280.04735585 122.19074179 -274.16503906 128.51074219 C-268.57866829 134.51284288 -263.21724907 140.67606174 -258 147 C-253.89102713 145.7423893 -250.34593014 144.22023808 -246.640625 142.05078125 C-245.62097656 141.4578125 -244.60132813 140.86484375 -243.55078125 140.25390625 C-242.46152344 139.61324219 -241.37226563 138.97257813 -240.25 138.3125 C-239.09279028 137.63743361 -237.93523143 136.96296538 -236.77734375 136.2890625 C-234.37429418 134.88984195 -231.9727608 133.48807065 -229.57226562 132.08447266 C-224.06213188 128.86550635 -218.52992383 125.68480155 -213 122.5 C-210.83323021 121.25017876 -208.66656385 120.0001782 -206.5 118.75 C-141.5 81.25 -141.5 81.25 -138.24951172 79.37475586 C-136.08442929 78.12564482 -133.91939018 76.87645871 -131.75439453 75.62719727 C-126.31384294 72.48797691 -120.87252784 69.35009437 -115.4296875 66.21484375 C-104.97793801 60.19252671 -94.53700452 54.15330663 -84.125 48.0625 C-74.85733917 42.64215502 -65.54640471 37.30059615 -56.21859741 31.98480225 C-47.93308582 27.2618144 -39.6714482 22.50000555 -31.4375 17.6875 C-30.46675537 17.12015137 -29.49601074 16.55280273 -28.49584961 15.96826172 C-26.59707025 14.85807727 -24.69838648 13.74772931 -22.79980469 12.63720703 C-18.22370154 9.961296 -13.64502968 7.28989041 -9.0625 4.625 C-8.25675537 4.15408936 -7.45101074 3.68317871 -6.62084961 3.19799805 C-1.11450386 0 -1.11450386 0 0 0 Z " fill="#B2B2B2" transform="translate(487,165)"/>
<path d="M0 0 C8.02358348 0.37985599 16.03809098 0.52481343 24.06873894 0.60702324 C28.3117327 0.6556238 32.55430868 0.73113053 36.79686451 0.80842304 C40.2977005 0.87173514 43.79798503 0.92523581 47.29928589 0.95440674 C51.2464323 0.98991106 55.19051959 1.09127606 59.13641357 1.19778442 C60.32002975 1.20031723 61.50364594 1.20285004 62.72312927 1.20545959 C70.68638188 1.48950719 70.68638188 1.48950719 74.12786865 4.18313599 C75.89037963 6.18193965 77.39008364 8.20469587 78.87078857 10.41653442 C80.36649085 12.08705904 81.86583124 13.75434274 83.37078857 15.41653442 C86.63469706 19.03329788 89.85869807 22.68043051 93.05828857 26.35403442 C95.14290022 28.72617871 97.25507502 31.07209508 99.37078857 33.41653442 C104.16986649 38.73988136 108.91156807 44.10516781 113.55047607 49.56887817 C119.14520597 56.14971621 124.8281397 62.61419341 130.71453857 68.93606567 C133.93048296 72.39022817 137.07596812 75.89089035 140.16375732 79.45950317 C142.20712288 81.80212593 144.28759717 84.10926865 146.37078857 86.41653442 C152.36330305 93.06369334 158.22646243 99.81592603 164.05828857 106.60403442 C164.56980469 107.1986145 165.0813208 107.79319458 165.6083374 108.40579224 C166.10100098 108.98039185 166.59366455 109.55499146 167.10125732 110.14700317 C167.53849121 110.65642456 167.9757251 111.16584595 168.4262085 111.69070435 C170.27825766 113.903335 172.07409832 116.15884654 173.87078857 118.41653442 C169.9627442 120.70624955 166.04833597 122.98451488 162.12762451 125.25247192 C160.7950888 126.02540748 159.46433774 126.80142837 158.13543701 127.58059692 C156.22372114 128.70076527 154.30583816 129.80964009 152.38641357 130.91653442 C151.7945929 131.26651489 151.20277222 131.61649536 150.59301758 131.9770813 C147.30235027 133.85847659 145.78212378 134.41653442 141.87078857 134.41653442 C139.96056238 132.6928185 138.35078721 131.03988647 136.68328857 129.10403442 C136.19771484 128.55787476 135.71214111 128.01171509 135.21185303 127.44900513 C132.23486971 124.07385456 129.37877533 120.61115653 126.55828857 117.10403442 C121.70126564 111.06557347 116.39870054 105.48337692 111.08953857 99.84622192 C107.13762841 95.6484452 103.34733085 91.33362937 99.61639404 86.93899536 C93.55038261 79.7963143 87.41342032 72.75584683 81.02703857 65.89700317 C77.80788902 62.4393981 74.65834614 58.93624391 71.57000732 55.36184692 C69.57672429 53.07988152 67.5358583 50.84424868 65.49578857 48.60403442 C62.36656031 45.1412336 59.36578509 41.60974439 56.43328857 37.97903442 C55.30213623 36.62358521 55.30213623 36.62358521 54.14813232 35.24075317 C51.87078857 32.41653442 51.87078857 32.41653442 49.74969482 29.31106567 C46.40618925 24.83181124 43.85339803 21.77177386 38.18914795 20.75686646 C36.73991712 20.70578776 35.28965773 20.68013122 33.83953857 20.67434692 C33.02590851 20.65122437 32.21227844 20.62810181 31.37399292 20.60427856 C29.54725089 20.55334487 27.72021881 20.51218304 25.89306641 20.47909546 C22.65915154 20.41215355 19.42884874 20.30152972 16.19647217 20.18167114 C8.71359701 19.9042465 1.22986544 19.65905641 -6.25421143 19.41653442 C-11.31935387 19.25101534 -16.38445595 19.0843166 -21.44952393 18.91653442 C-22.67479797 18.87600952 -23.90007202 18.83548462 -25.16247559 18.79373169 C-37.15370475 18.39184218 -49.14170675 17.91640724 -61.12921143 17.41653442 C-60.38687256 16.82324341 -59.64453369 16.22995239 -58.87969971 15.61868286 C-57.28935614 14.34539163 -55.70401545 13.06568795 -54.13262939 11.76907349 C-37.09032302 -1.67775723 -20.62345068 -0.98159713 0 0 Z " fill="#BFBFBF" transform="translate(196.12921142578125,114.58346557617188)"/>
<path d="M0 0 C0.99090134 0.01383224 1.98180267 0.02766449 3.00273132 0.04191589 C4.08496475 0.06772232 5.16719818 0.09352875 6.28222656 0.12011719 C7.41686844 0.13935745 8.55151031 0.15859772 9.72053528 0.17842102 C13.45499457 0.24578024 17.18880754 0.32970839 20.92285156 0.41699219 C22.19184296 0.44509979 23.46083435 0.4732074 24.76828003 0.50216675 C31.32454075 0.64837062 37.88034671 0.80717086 44.43603516 0.97705078 C50.55063913 1.13323443 56.66495481 1.24765598 62.7807312 1.34555054 C67.08765244 1.42235262 71.39320199 1.53275749 75.69909668 1.65344238 C77.71012162 1.70381301 79.72151779 1.74117824 81.73303223 1.76501465 C99.11715656 1.9900825 99.11715656 1.9900825 104.23535156 7.01464844 C105.25864254 8.366468 106.2409295 9.75063707 107.17285156 11.16699219 C108.30332758 12.47212083 109.44744164 13.76567823 110.61035156 15.04199219 C111.17625 15.69941406 111.74214844 16.35683594 112.32519531 17.03417969 C114.41001706 19.4407604 116.53806689 21.80464163 118.67285156 24.16699219 C123.47192948 29.49033912 128.21363106 34.85562557 132.85253906 40.31933594 C138.92083263 47.45720638 145.12387339 54.42868481 151.50488281 61.28808594 C155.7291238 65.84630791 159.78842757 70.53189539 163.80566406 75.27246094 C169.55422434 82.04088073 175.42527157 88.64201476 181.51147461 95.10888672 C185.63817829 99.52077164 189.45797937 104.09695397 193.22753906 108.81933594 C194.97128917 110.92374119 196.77084843 112.83351823 198.73535156 114.72949219 C199.53972656 115.53386719 200.34410156 116.33824219 201.17285156 117.16699219 C201.17285156 117.82699219 201.17285156 118.48699219 201.17285156 119.16699219 C200.43123779 119.58062012 199.68962402 119.99424805 198.92553711 120.42041016 C196.16863799 121.95881301 193.41235939 123.49832018 190.65649414 125.03857422 C189.46468378 125.70438101 188.27262866 126.36974988 187.08032227 127.03466797 C185.36442472 127.9916796 183.64948542 128.9504087 181.93457031 129.90917969 C180.38709106 130.77325439 180.38709106 130.77325439 178.80834961 131.65478516 C176.88848386 132.75637371 175.01455722 133.93918842 173.17285156 135.16699219 C170.02143863 135.10092483 169.00764344 134.01141037 166.69238281 131.83105469 C165.78064614 130.82647931 164.87881914 129.81285023 163.98535156 128.79199219 C163.49977783 128.25034424 163.0142041 127.70869629 162.51391602 127.15063477 C159.53044379 123.79551217 156.67175087 120.35557934 153.86035156 116.85449219 C149.00332862 110.81603124 143.70076353 105.23383469 138.39160156 99.59667969 C134.44497484 95.40451511 130.65633629 91.0980134 126.93457031 86.70556641 C120.72224792 79.37546347 114.4000931 72.20486552 107.81665039 65.20532227 C104.64638005 61.81447831 101.63469109 58.35903575 98.73535156 54.72949219 C94.53235692 49.4738138 89.97661882 44.61553035 85.34301758 39.74267578 C80.9775892 35.12255289 77.02378316 30.35101082 73.23535156 25.24121094 C69.21051285 21.19350382 63.99587377 20.88510766 58.51049805 20.57543945 C57.86669662 20.53849 57.22289518 20.50154055 56.55958462 20.46347141 C47.97013796 20.00149023 39.36924848 19.82482373 30.77050781 19.63183594 C28.95347947 19.58870427 27.13645786 19.54528777 25.31944275 19.50160217 C20.58995761 19.38864369 15.86039234 19.27949501 11.13079834 19.17120361 C6.28343239 19.05951975 1.43615437 18.94414449 -3.41113281 18.82910156 C-12.88305662 18.60483339 -22.35506942 18.38459938 -31.82714844 18.16699219 C-30.5464772 14.32497849 -29.29690795 14.02037606 -25.80371094 12.10058594 C-24.78277344 11.53275391 -23.76183594 10.96492188 -22.70996094 10.37988281 C-21.63488281 9.79400391 -20.55980469 9.208125 -19.45214844 8.60449219 C-17.33973577 7.43730765 -15.22773792 6.26937197 -13.11621094 5.10058594 C-11.7039624 4.32799438 -11.7039624 4.32799438 -10.26318359 3.53979492 C-3.85383593 -0.0721275 -3.85383593 -0.0721275 0 0 Z " fill="#BFBFBF" transform="translate(241.8271484375,71.8330078125)"/>
<path d="M0 0 C0 3.3 0 6.6 0 10 C-188.5 118.75 -188.5 118.75 -191.75097656 120.62548828 C-193.91447476 121.87371034 -196.07788643 123.12208239 -198.24121094 124.37060547 C-203.70565017 127.52405256 -209.17163645 130.67476096 -214.640625 133.8203125 C-216.84383665 135.08839113 -219.04696237 136.35661906 -221.25 137.625 C-222.31541016 138.23802979 -223.38082031 138.85105957 -224.47851562 139.48266602 C-229.82399409 142.565307 -235.15179959 145.67398363 -240.453125 148.83203125 C-241.47245117 149.43901855 -242.49177734 150.04600586 -243.54199219 150.67138672 C-245.47219544 151.82383722 -247.40004851 152.98023579 -249.32519531 154.14111328 C-250.17694336 154.65013184 -251.02869141 155.15915039 -251.90625 155.68359375 C-252.65197266 156.13275146 -253.39769531 156.58190918 -254.16601562 157.04467773 C-256 158 -256 158 -258 158 C-259.30863371 156.52931586 -260.5446856 154.99398682 -261.75 153.4375 C-265.67613449 148.52030244 -269.80783425 143.88913004 -274.125 139.3125 C-279.29948283 133.81810044 -284.36893601 128.2769948 -289.25439453 122.52246094 C-295.32040597 115.37977988 -301.45736826 108.33931241 -307.84375 101.48046875 C-311.06289955 98.02286368 -314.21244243 94.51970949 -317.30078125 90.9453125 C-319.29406428 88.6633471 -321.33493027 86.42771426 -323.375 84.1875 C-326.42858867 80.81059018 -329.34429205 77.36782868 -332.1875 73.8125 C-337.60102187 67.11457488 -343.54433729 60.9283465 -349.44384766 54.66064453 C-351.4254918 52.54593737 -353.38193014 50.41144214 -355.3125 48.25 C-355.82425781 47.67765625 -356.33601563 47.1053125 -356.86328125 46.515625 C-358 45 -358 45 -359 42 C-360.97347412 42.00785522 -360.97347412 42.00785522 -362.98681641 42.01586914 C-385.39036655 42.0969118 -407.79027725 42.16933552 -430.1875 41.5625 C-431.32182465 41.5330278 -431.32182465 41.5330278 -432.47906494 41.50296021 C-442.33878911 41.23987732 -452.16364194 40.72752807 -462 40 C-462.71577551 36.34812795 -463.06804581 33.63135576 -462 30 C-459.19535821 27.43964862 -456.3580374 25.86526013 -452.97509766 24.14379883 C-450.39637826 22.80834462 -448.05757709 21.37849757 -445.72338867 19.65332031 C-433.23173801 10.82403896 -420.53640083 12.11379499 -405.8125 12.8125 C-403.25094606 12.89972665 -400.68925231 12.98293387 -398.12744141 13.06225586 C-391.66276114 13.27452326 -385.20199831 13.54350532 -378.74041748 13.83422852 C-373.99465399 14.04455591 -369.24809862 14.23066711 -364.50132751 14.4165802 C-352.9969071 14.86945084 -341.49760921 15.39932642 -330 16 C-333.35366977 18.79782759 -336.70867818 21.1054068 -340.51953125 23.234375 C-341.54111328 23.80800781 -342.56269531 24.38164062 -343.61523438 24.97265625 C-344.67033203 25.55917969 -345.72542969 26.14570313 -346.8125 26.75 C-347.88693359 27.35199219 -348.96136719 27.95398438 -350.06835938 28.57421875 C-352.71000458 30.05354006 -355.3539124 31.52864431 -358 33 C-354.32759787 38.06401519 -350.5051048 42.78936294 -346.1875 47.3125 C-342.51044555 51.22495837 -338.97486694 55.1735781 -335.625 59.375 C-330.79751343 65.39173965 -325.51729536 70.94530903 -320.23046875 76.5546875 C-317.28967421 79.67775922 -314.43600823 82.86272092 -311.63671875 86.11328125 C-309.62126228 88.43658787 -307.56151538 90.71748465 -305.5 93 C-300.70092208 98.32334693 -295.9592205 103.68863339 -291.3203125 109.15234375 C-285.72825096 115.73004312 -280.04735585 122.19074179 -274.16503906 128.51074219 C-268.57866829 134.51284288 -263.21724907 140.67606174 -258 147 C-253.89102713 145.7423893 -250.34593014 144.22023808 -246.640625 142.05078125 C-245.62097656 141.4578125 -244.60132813 140.86484375 -243.55078125 140.25390625 C-242.46152344 139.61324219 -241.37226563 138.97257813 -240.25 138.3125 C-239.09279028 137.63743361 -237.93523143 136.96296538 -236.77734375 136.2890625 C-234.37429418 134.88984195 -231.9727608 133.48807065 -229.57226562 132.08447266 C-224.06213188 128.86550635 -218.52992383 125.68480155 -213 122.5 C-210.83323021 121.25017876 -208.66656385 120.0001782 -206.5 118.75 C-141.5 81.25 -141.5 81.25 -138.24951172 79.37475586 C-136.08442929 78.12564482 -133.91939018 76.87645871 -131.75439453 75.62719727 C-126.31384294 72.48797691 -120.87252784 69.35009437 -115.4296875 66.21484375 C-104.97793801 60.19252671 -94.53700452 54.15330663 -84.125 48.0625 C-74.85733917 42.64215502 -65.54640471 37.30059615 -56.21859741 31.98480225 C-47.93308582 27.2618144 -39.6714482 22.50000555 -31.4375 17.6875 C-30.46675537 17.12015137 -29.49601074 16.55280273 -28.49584961 15.96826172 C-26.59707025 14.85807727 -24.69838648 13.74772931 -22.79980469 12.63720703 C-18.22370154 9.961296 -13.64502968 7.28989041 -9.0625 4.625 C-8.25675537 4.15408936 -7.45101074 3.68317871 -6.62084961 3.19799805 C-1.11450386 0 -1.11450386 0 0 0 Z " fill="#999999" transform="translate(487,165)"/>
<path d="M0 0 C1.11864843 4.66469083 1.36041961 8.36526247 0 13 C-4.25829365 16.8005995 -9.11622956 19.07664088 -14.21435547 21.58349609 C-19.41397909 24.22751154 -24.40461309 27.24217294 -29.4375 30.1875 C-31.68517223 31.48485156 -33.93388505 32.7804018 -36.18359375 34.07421875 C-42.79115029 37.87919815 -49.39591026 41.6890074 -56 45.5 C-62.52232439 49.26365365 -69.04513763 53.02644623 -75.5703125 56.78515625 C-86.02206199 62.80747329 -96.46299548 68.84669337 -106.875 74.9375 C-116.14499777 80.35921178 -125.45831752 85.70204915 -134.78845215 91.01922607 C-142.92570022 95.65775244 -151.03970831 100.33379692 -159.125 105.0625 C-174.04656826 113.78941654 -189.00912037 122.44525836 -204.0234375 131.01171875 C-204.60937683 131.34602905 -205.19531616 131.68033936 -205.79901123 132.02478027 C-208.16047326 133.3718931 -210.52202199 134.71885275 -212.8840332 136.06500244 C-222.36058643 141.4670078 -231.79479537 146.93877939 -241.18798828 152.48461914 C-246.37424107 155.53198911 -251.58407497 158.38103156 -257 161 C-258.3445634 149.81190453 -258.3445634 149.81190453 -255.62890625 146.15234375 C-253.17786204 144.51353641 -250.66047538 143.27502028 -248 142 C-246.03906539 140.93285716 -244.09526168 139.83744709 -242.14990234 138.7421875 C-239.83548041 137.44271952 -237.51000359 136.16458611 -235.18359375 134.88671875 C-229.57128019 131.78219537 -224.03381032 128.5543706 -218.5 125.3125 C-210.05731393 120.36831732 -201.60196465 115.44771407 -193.125 110.5625 C-192.04541016 109.94028564 -190.96582031 109.31807129 -189.85351562 108.67700195 C-187.6631748 107.41488483 -185.47274498 106.15292215 -183.28222656 104.89111328 C-177.85340058 101.76319852 -172.42680719 98.63141552 -167 95.5 C-164.83334417 94.24998121 -162.6666775 92.99998122 -160.5 91.75 C-159.4275 91.13125 -158.355 90.5125 -157.25 89.875 C-69.5 39.25 -69.5 39.25 -66.24902344 37.37451172 C-64.08552524 36.12628966 -61.92211357 34.87791761 -59.75878906 33.62939453 C-54.29434983 30.47594744 -48.82836355 27.32523904 -43.359375 24.1796875 C-41.15616335 22.91160887 -38.95303763 21.64338094 -36.75 20.375 C-35.68458984 19.76197021 -34.61917969 19.14894043 -33.52148438 18.51733398 C-28.17600591 15.434693 -22.84820041 12.32601637 -17.546875 9.16796875 C-16.52754883 8.56098145 -15.50822266 7.95399414 -14.45800781 7.32861328 C-12.52780456 6.17616278 -10.59995149 5.01976421 -8.67480469 3.85888672 C-7.39718262 3.09535889 -7.39718262 3.09535889 -6.09375 2.31640625 C-5.34802734 1.86724854 -4.60230469 1.41809082 -3.83398438 0.95532227 C-2 0 -2 0 0 0 Z " fill="#A5A5A5" transform="translate(487,175)"/>
<path d="M0 0 C0 3.3 0 6.6 0 10 C-94.25 64.375 -94.25 64.375 -188.5 118.75 C-189.57290283 119.3689917 -190.64580566 119.9879834 -191.7512207 120.62573242 C-193.91378583 121.8733474 -196.07638339 123.12090616 -198.23901367 124.3684082 C-203.71870371 127.52943449 -209.19779358 130.69149309 -214.67578125 133.85546875 C-220.07565153 136.97415481 -225.47796252 140.08858028 -230.88134766 143.20117188 C-233.9999975 144.99999856 -237.11532062 146.80449259 -240.23046875 148.609375 C-242.15352523 149.71895904 -244.07669641 150.82834434 -246 151.9375 C-246.88469971 152.45207764 -247.76939941 152.96665527 -248.6809082 153.49682617 C-249.4874585 153.96064697 -250.29400879 154.42446777 -251.125 154.90234375 C-251.82882813 155.30960693 -252.53265625 155.71687012 -253.2578125 156.13647461 C-255 157 -255 157 -257 157 C-257.6708631 153.80733825 -257.83550814 151.1739042 -257 148 C-253.99174289 145.02062216 -250.37095138 143.29189613 -246.625 141.375 C-244.40329247 140.16210539 -242.18195024 138.94854143 -239.9609375 137.734375 C-238.8069043 137.11884766 -237.65287109 136.50332031 -236.46386719 135.86914062 C-230.98613933 132.91329875 -225.62590496 129.76094456 -220.25 126.625 C-210.5518756 121.02415086 -200.82603224 115.47226721 -191.09783936 109.92391968 C-182.01204122 104.74014875 -172.96178959 99.49805979 -163.93261719 94.21630859 C-153.40888681 88.06207011 -142.8460408 81.97620913 -132.28222656 75.89111328 C-126.85340058 72.76319852 -121.42680719 69.63141552 -116 66.5 C-113.83334417 65.24998121 -111.6666775 63.99998122 -109.5 62.75 C-108.4275 62.13125 -107.355 61.5125 -106.25 60.875 C-70.5 40.25 -70.5 40.25 -67.24951172 38.37475586 C-65.08442929 37.12564482 -62.91939018 35.87645871 -60.75439453 34.62719727 C-55.31384294 31.48797691 -49.87252784 28.35009437 -44.4296875 25.21484375 C-42.24474762 23.95580561 -40.05985151 22.69669149 -37.875 21.4375 C-36.81547119 20.82704834 -35.75594238 20.21659668 -34.66430664 19.58764648 C-29.12158455 16.39058916 -23.5875513 13.17944404 -18.06640625 9.9453125 C-16.95346191 9.29377197 -15.84051758 8.64223145 -14.69384766 7.97094727 C-12.56082811 6.72084876 -10.42894736 5.46880464 -8.29833984 4.21459961 C-7.35297363 3.6603833 -6.40760742 3.10616699 -5.43359375 2.53515625 C-4.18147095 1.79857788 -4.18147095 1.79857788 -2.90405273 1.04711914 C-1 0 -1 0 0 0 Z " fill="#838383" transform="translate(487,165)"/>
<path d="M0 0 C0.66 0 1.32 0 2 0 C2.3046875 2.78515625 2.3046875 2.78515625 2 6 C0.0703125 7.80859375 0.0703125 7.80859375 -2.875 9.4375 C-3.43743408 9.758396 -3.99986816 10.07929199 -4.5793457 10.40991211 C-5.91678124 11.17129027 -7.25986957 11.92278184 -8.60693359 12.66699219 C-11.33596321 14.18714131 -14.03732807 15.75082182 -16.73828125 17.3203125 C-21.74822487 20.23004991 -26.7673913 23.12321011 -31.79174805 26.00798035 C-37.86637604 29.49630134 -43.93330177 32.99791282 -50 36.5 C-52.16663141 37.75006112 -54.33329814 39.000061 -56.5 40.25 C-57.5725 40.86875 -58.645 41.4875 -59.75 42.125 C-173.5 107.75 -173.5 107.75 -176.75048828 109.62524414 C-178.91557071 110.87435518 -181.08060982 112.12354129 -183.24560547 113.37280273 C-188.68615706 116.51202309 -194.12747216 119.64990563 -199.5703125 122.78515625 C-210.39364167 129.02127925 -221.20821351 135.27191602 -232 141.5625 C-233.44076904 142.40180054 -233.44076904 142.40180054 -234.91064453 143.25805664 C-240.31599563 146.41315827 -245.68220923 149.61915574 -251.00390625 152.91381836 C-253 154 -253 154 -255 154 C-255.38671875 151.26171875 -255.38671875 151.26171875 -255 148 C-252.88966779 146.2357252 -251.19328263 145.07865516 -248.8125 143.8125 C-248.23435547 143.48314453 -247.65621094 143.15378906 -247.06054688 142.81445312 C-245.38247061 141.86069905 -243.69137817 140.92996057 -242 140 C-240.61361328 139.13955078 -240.61361328 139.13955078 -239.19921875 138.26171875 C-237 137 -237 137 -235 137 C-235.2371875 135.82824219 -235.474375 134.65648437 -235.71875 133.44921875 C-235.71484375 131.23193359 -235.71484375 131.23193359 -235 129 C-231.55669007 125.92844706 -227.57486194 123.93758788 -223.5 121.8125 C-221.34333533 120.63226784 -219.18707713 119.45129258 -217.03125 118.26953125 C-215.99871094 117.7173291 -214.96617187 117.16512695 -213.90234375 116.59619141 C-211.31473581 115.17309411 -208.82708652 113.67008804 -206.34375 112.07421875 C-203 110 -203 110 -201 110 C-201 111.98 -201 113.96 -201 116 C-180.66970445 104.81983472 -180.66970445 104.81983472 -160.62890625 93.1328125 C-158.23850699 91.70150439 -155.8256776 90.37517617 -153.33984375 89.1171875 C-152.23769531 88.54226563 -151.13554687 87.96734375 -150 87.375 C-149.05125 86.90835938 -148.1025 86.44171875 -147.125 85.9609375 C-146.073125 84.99027344 -146.073125 84.99027344 -145 84 C-144.98195313 82.75992188 -144.96390625 81.51984375 -144.9453125 80.2421875 C-144.80175781 78.11767578 -144.80175781 78.11767578 -144 76 C-140.30656035 72.9488635 -136.13650735 70.90458761 -131.875 68.75 C-130.74578125 68.151875 -129.6165625 67.55375 -128.453125 66.9375 C-126.27419867 65.78425093 -124.08917278 64.64243339 -121.89746094 63.51367188 C-119.49603836 62.25913699 -117.15297336 60.95426189 -114.8203125 59.578125 C-112 58 -112 58 -110 58 C-109.67 59.65 -109.34 61.3 -109 63 C-93.36444626 54.31668355 -77.77165273 45.56659746 -62.42089844 36.38574219 C-60 35 -60 35 -57.80566406 33.99707031 C-55.62948736 33.05879622 -55.62948736 33.05879622 -53 31 C-52.90889075 29.03204014 -52.81838598 27.06404076 -52.73583984 25.09570312 C-50.97788572 20.08897513 -44.25288152 17.98627014 -39.8125 15.75 C-37.54728062 14.55899513 -35.28292989 13.3663364 -33.01953125 12.171875 C-32.00995361 11.6572168 -31.00037598 11.14255859 -29.96020508 10.61230469 C-26.89097713 9.00180565 -26.89097713 9.00180565 -23.7487793 6.80175781 C-21 5 -21 5 -19 5 C-19 6.98 -19 8.96 -19 11 C-16.01931287 9.356909 -13.04071332 7.71007008 -10.0625 6.0625 C-9.21236328 5.59392578 -8.36222656 5.12535156 -7.48632812 4.64257812 C-6.67744141 4.19462891 -5.86855469 3.74667969 -5.03515625 3.28515625 C-3.91185913 2.66459351 -3.91185913 2.66459351 -2.76586914 2.03149414 C-1.03748855 1.1221285 -1.03748855 1.1221285 0 0 Z " fill="#858585" transform="translate(485,311)"/>
<path d="M0 0 C1.58794499 0.0228743 3.17591988 0.04374998 4.76391602 0.06274414 C8.94981302 0.12041104 13.13425226 0.2116741 17.3192749 0.31390381 C19.85810806 0.37459619 22.39699026 0.42799836 24.93603516 0.47900391 C40.04492406 0.78571455 55.15302431 1.18959204 70.25 1.875 C71.03882568 1.91036865 71.82765137 1.9457373 72.64038086 1.98217773 C77.42480906 2.22530947 82.12747636 2.73199454 86.875 3.375 C82.94217702 7.55877002 78.17620569 10.4702506 73.375 13.5625 C72.47007812 14.21669922 71.56515625 14.87089844 70.6328125 15.54492188 C59.54765425 22.520425 47.59019829 20.93873098 34.97927094 20.44903946 C31.20989003 20.31641256 27.43925109 20.24131391 23.66845703 20.16088867 C14.52914071 19.96002976 5.39167079 19.70909294 -3.74609375 19.44787598 C-8.09172081 19.32447703 -12.43746696 19.20542095 -16.78320312 19.0859375 C-25.2305871 18.85307219 -33.67783311 18.61561126 -42.125 18.375 C-42.125 17.385 -42.125 16.395 -42.125 15.375 C-41.62162109 15.09825439 -41.11824219 14.82150879 -40.59960938 14.53637695 C-38.27344214 13.25575899 -35.94921943 11.97164945 -33.625 10.6875 C-32.43777344 10.03491211 -32.43777344 10.03491211 -31.2265625 9.36914062 C-30.44023438 8.93408203 -29.65390625 8.49902344 -28.84375 8.05078125 C-28.04050293 7.61282227 -27.23725586 7.17486328 -26.40966797 6.72363281 C-24.13996644 5.45365632 -24.13996644 5.45365632 -22.31298828 3.94042969 C-15.69226485 -1.18776072 -7.95196542 -0.20540132 0 0 Z " fill="#A9A9A9" transform="translate(142.125,135.625)"/>
<path d="M0 0 C1.05695068 0.00112793 2.11390137 0.00225586 3.20288086 0.00341797 C4.36698486 0.01646973 5.53108887 0.02952148 6.73046875 0.04296875 C8.57620483 0.05481201 8.57620483 0.05481201 10.45922852 0.06689453 C14.61258993 0.10333878 18.76504991 0.16123411 22.91796875 0.23046875 C23.64697388 0.24249329 24.375979 0.25451782 25.1270752 0.26690674 C49.42381979 0.68252465 73.66275204 1.77413822 97.91796875 3.23046875 C79.09241973 18.43961225 63.87907645 21.97998575 40.20803833 20.37533569 C23.32032173 19.30703982 6.39510532 18.98467383 -10.51953125 18.66796875 C-12.72721845 18.62459795 -14.93490079 18.58097915 -17.14257812 18.53710938 C-22.45567692 18.4320545 -27.76882612 18.3299932 -33.08203125 18.23046875 C-33.08203125 17.57046875 -33.08203125 16.91046875 -33.08203125 16.23046875 C-31.9696106 15.61002686 -31.9696106 15.61002686 -30.8347168 14.97705078 C-28.07781767 13.43864793 -25.32153908 11.89914075 -22.56567383 10.35888672 C-21.37386347 9.69307993 -20.18180835 9.02771106 -18.98950195 8.36279297 C-17.27360441 7.40578133 -15.55866511 6.44705223 -13.84375 5.48828125 C-12.81209717 4.91223145 -11.78044434 4.33618164 -10.7175293 3.74267578 C-4.16217809 -0.0186809 -4.16217809 -0.0186809 0 0 Z " fill="#A8A8A8" transform="translate(95.08203125,156.76953125)"/>
<path d="M0 0 C4.16921042 0.29156448 8.31842235 0.40358874 12.49609375 0.47119141 C35.28281644 0.85958015 58.0255174 1.98234084 80.77734375 3.26416016 C80.20902832 3.68995361 79.64071289 4.11574707 79.05517578 4.55444336 C77.5841886 5.65855089 76.11858614 6.76988611 74.65966797 7.88989258 C56.74463626 21.20308742 42.47922806 21.88580109 21.14230347 20.41616821 C4.23126044 19.32920899 -12.72129894 19.01881874 -29.66015625 18.70166016 C-31.86784345 18.65828936 -34.07552579 18.61467056 -36.28320312 18.57080078 C-41.59630192 18.46574591 -46.90945112 18.3636846 -52.22265625 18.26416016 C-35.80105583 4.85382873 -21.17638546 -1.73223777 0 0 Z " fill="#A8A8A8" transform="translate(296.22265625,50.73583984375)"/>
<path d="M0 0 C4.91596179 0.26920573 9.83522503 0.44486181 14.75494385 0.62988281 C30.45594927 1.24679807 46.13744646 2.1482558 61.81744385 3.16113281 C60.6387674 4.10016449 60.6387674 4.10016449 59.4362793 5.0581665 C57.90971813 6.28401928 56.39573896 7.52652374 54.91607666 8.80859375 C35.61861668 24.96437555 11.96005104 21.3592806 -11.60412598 20.31121826 C-17.93197427 20.04581754 -24.26241708 19.86148728 -30.5927124 19.66503906 C-43.79281054 19.24274106 -56.98805126 18.7309088 -70.18255615 18.16113281 C-50.10126384 -2.79744157 -26.83416449 -1.56535887 0 0 Z " fill="#A8A8A8" transform="translate(242.18255615234375,92.8388671875)"/>
<path d="M0 0 C6.98480544 0.3308006 13.971679 0.54054491 20.96114349 0.73971367 C36.55670231 1.18425134 52.14777841 1.72002865 67.73876953 2.30419922 C58.54533929 12.10090206 44.30083731 19.82943317 30.92445374 20.69091797 C25.18030247 20.77902519 19.47550008 20.5785772 13.73876953 20.30419922 C11.2689505 20.2395274 8.79896268 20.18103478 6.32885742 20.12841797 C0.03668992 19.97555261 -6.24833274 19.73444762 -12.53631592 19.46142578 C-17.40282736 19.25601305 -22.27034968 19.09059072 -27.13833618 18.92456055 C-39.51878973 18.49902865 -51.89056118 17.9527904 -64.26123047 17.30419922 C-63.5188916 16.7109082 -62.77655273 16.11761719 -62.01171875 15.50634766 C-60.42137518 14.23305643 -58.83603449 12.95335275 -57.26464844 11.65673828 C-39.39419984 -2.44351856 -21.55938349 -1.0320119 0 0 Z " fill="#A8A8A8" transform="translate(199.26123046875,114.69580078125)"/>
<path d="M0 0 C1.01732712 0.01371643 2.03465424 0.02743286 3.08280945 0.04156494 C4.19847794 0.06225037 5.31414642 0.08293579 6.46362305 0.10424805 C8.20981682 0.13152985 8.20981682 0.13152985 9.99128723 0.15936279 C13.81944257 0.22192681 17.64736489 0.2933438 21.4753418 0.3659668 C22.77107117 0.38891815 24.06680054 0.41186951 25.40179443 0.43551636 C49.67644667 0.87080745 73.9174481 1.7868063 98.1628418 3.0534668 C85.19079294 13.54393108 73.28578784 21.18474585 56.14331055 20.4987793 C54.80396007 20.46888308 53.46454096 20.44194044 52.12507629 20.41769409 C49.2797532 20.360418 46.43593687 20.28344096 43.59155273 20.19067383 C39.10350404 20.04577179 34.61530114 19.95620767 30.12573242 19.8737793 C22.42479992 19.72637908 14.72605653 19.52768478 7.02685547 19.30883789 C3.0519606 19.19616075 -0.92316236 19.09676993 -4.89847279 19.00003242 C-7.99976356 18.92249654 -11.10076816 18.83630069 -14.20175743 18.7475853 C-15.67092227 18.70696686 -17.14017802 18.66950457 -18.60950661 18.63531876 C-20.63199814 18.58738767 -22.65416006 18.52610039 -24.67626953 18.46411133 C-26.39466789 18.41747849 -26.39466789 18.41747849 -28.14778137 18.36990356 C-30.8371582 18.0534668 -30.8371582 18.0534668 -32.8371582 16.0534668 C-29.17140549 13.93480918 -25.50521767 11.81690712 -21.83862305 9.69970703 C-20.59110694 8.97921211 -19.34371041 8.25851012 -18.09643555 7.53759766 C-16.30459412 6.50197889 -14.51232537 5.46710323 -12.7199707 4.43237305 C-11.10179443 3.49760132 -11.10179443 3.49760132 -9.45092773 2.54394531 C-5.85815977 0.49520177 -4.11944963 -0.0645692 0 0 Z " fill="#A8A8A8" transform="translate(58.837158203125,177.946533203125)"/>
<path d="M0 0 C1.49107269 0.02068794 1.49107269 0.02068794 3.01226807 0.04179382 C4.09771912 0.06764053 5.18317017 0.09348724 6.30151367 0.12011719 C7.43925232 0.13972 8.57699097 0.15932281 9.74920654 0.17951965 C13.48960106 0.24771792 17.22943971 0.33177738 20.96948242 0.41699219 C23.54035959 0.46859228 26.11124182 0.51994138 28.68212891 0.57104492 C51.85700895 1.05876267 75.00743547 1.99682526 98.15698242 3.16699219 C94.1822525 7.44180856 89.19318281 10.27495333 84.28198242 13.35449219 C83.32678711 14.00869141 82.3715918 14.66289063 81.38745117 15.33691406 C74.50973829 19.58126841 69.40728482 20.59196961 61.45654297 20.37915039 C60.07869361 20.36021854 60.07869361 20.36021854 58.67300892 20.34090424 C55.83382507 20.29801544 52.99568915 20.23395075 50.15698242 20.16699219 C48.47963082 20.13634297 46.80226277 20.1065772 45.12487793 20.07780457 C40.1388196 19.98558565 35.15390584 19.85906727 30.16870117 19.72949219 C28.36026057 19.68442448 26.55181417 19.63958889 24.74336243 19.5949707 C20.06316235 19.47889615 15.38304593 19.35974427 10.70294189 19.23986816 C5.89535244 19.11729942 1.08768775 18.99775594 -3.7199707 18.87792969 C-13.09439407 18.64384925 -22.46873156 18.40650566 -31.84301758 18.16699219 C-30.56234635 14.32497849 -29.31277709 14.02037606 -25.81958008 12.10058594 C-24.79864258 11.53275391 -23.77770508 10.96492188 -22.72583008 10.37988281 C-21.65075195 9.79400391 -20.57567383 9.208125 -19.46801758 8.60449219 C-17.35560491 7.43730765 -15.24360706 6.26937197 -13.13208008 5.10058594 C-11.71983154 4.32799438 -11.71983154 4.32799438 -10.27905273 3.53979492 C-3.86962761 -0.07217115 -3.86962761 -0.07217115 0 0 Z " fill="#A8A8A8" transform="translate(241.843017578125,71.8330078125)"/>
<path d="M0 0 C1.18459305 0.01114334 2.3691861 0.02228668 3.5896759 0.0337677 C5.52299019 0.08243233 5.52299019 0.08243233 7.49536133 0.13208008 C8.86969831 0.15264067 10.24406577 0.17124387 11.61845398 0.18803406 C14.56509614 0.22619631 17.51132521 0.27498225 20.45770264 0.32977295 C25.10274299 0.4100443 29.74668682 0.42453695 34.39233398 0.42749023 C41.61183043 0.43460007 48.8286793 0.49930705 56.04727364 0.6140461 C60.16854157 0.67802221 64.28785891 0.72038539 68.40966797 0.71728516 C72.49944222 0.71496586 76.58544408 0.76597384 80.67424583 0.85359764 C82.20369151 0.87743313 83.73355597 0.88287824 85.26311684 0.86818886 C91.5622852 0.81716719 97.00771628 0.78867881 102.17611694 4.8164978 C104.69780275 7.56868161 106.90579854 10.36956188 109.07739258 13.40161133 C110.18623598 14.68656607 111.30750052 15.96116898 112.45239258 17.21411133 C114.57038122 19.6445901 116.66660657 22.09261692 118.75317383 24.55004883 C124.34964664 31.13179663 130.03349618 37.59793051 135.92114258 43.92114258 C139.13708697 47.37530507 142.28257213 50.87596725 145.37036133 54.44458008 C147.41372688 56.78720283 149.49420117 59.09434555 151.57739258 61.40161133 C156.3764705 66.72495826 161.11817208 72.09024471 165.75708008 77.55395508 C171.35047577 84.13322375 177.03238859 90.59581315 182.91674805 96.91674805 C186.72424229 101.00693327 190.42654967 105.17197625 194.07739258 109.40161133 C195.38897479 110.9024139 196.70146667 112.402422 198.01489258 113.90161133 C199.03572591 115.06827799 200.05655924 116.23494466 201.07739258 117.40161133 C199.38989258 119.46411133 199.38989258 119.46411133 197.07739258 121.40161133 C194.2111574 121.63400878 192.74174397 120.93608951 190.51879883 119.14770508 C186.17003824 114.97972438 182.50530146 110.25503575 178.73754883 105.56958008 C174.50708127 100.43551751 169.85456022 95.67179524 165.29614258 90.83129883 C161.34423241 86.6335221 157.55393485 82.31870628 153.82299805 77.92407227 C147.75698661 70.78139121 141.62002432 63.74092374 135.23364258 56.88208008 C132.01769819 53.42791758 128.87221303 49.9272554 125.78442383 46.35864258 C123.74105827 44.01601982 121.66058399 41.70887711 119.57739258 39.40161133 C114.68371333 33.97332847 109.85880869 28.49388866 105.11645508 22.93286133 C104.58576416 22.31121094 104.05507324 21.68956055 103.50830078 21.04907227 C102.45052911 19.80891516 101.39430873 18.56743279 100.33984375 17.32446289 C98.19968512 14.81437006 96.08227352 12.40635512 93.71411133 10.10473633 C92.07739258 8.40161133 92.07739258 8.40161133 92.07739258 6.40161133 C91.19559326 6.41208496 90.31379395 6.42255859 89.40527344 6.43334961 C65.60860416 6.6709704 41.8587972 6.19278049 18.07739258 5.40161133 C17.35829082 5.37769569 16.63918907 5.35378006 15.89829636 5.32913971 C6.95761422 5.03079406 -1.98266549 4.72140911 -10.92260742 4.40161133 C-7.20686766 0.95617785 -5.05938328 -0.09324146 0 0 Z " fill="#CDCDCD" transform="translate(285.922607421875,46.598388671875)"/>
<path d="M0 0 C0.95675629 0.0203833 1.91351257 0.0407666 2.89926147 0.06176758 C6.07028944 0.13428806 9.23991821 0.23090218 12.41015625 0.33203125 C14.62849142 0.39845879 16.84683468 0.46461638 19.06518555 0.53051758 C22.55600505 0.63458399 26.0467004 0.74042336 29.5372467 0.85331726 C36.90475684 1.08103707 44.26106034 1.17860729 51.63200378 1.17289734 C56.50476113 1.17668731 61.37606552 1.23562596 66.24832153 1.30239868 C68.58668327 1.32199012 70.92537116 1.31813656 73.26364136 1.28964233 C92.57437395 1.07963185 92.57437395 1.07963185 98.73608398 6.19018555 C101.60426529 9.03064807 104.02544985 12.08921542 106.29377747 15.42285156 C108.01366296 17.93463815 109.9643653 20.243514 111.91015625 22.58203125 C112.60753906 23.4534375 113.30492187 24.32484375 114.0234375 25.22265625 C118.22526701 30.23536514 122.75734305 34.9407145 127.2421875 39.69921875 C130.18298204 42.82229047 133.03664802 46.00725217 135.8359375 49.2578125 C137.85139397 51.58111912 139.91114087 53.8620159 141.97265625 56.14453125 C146.77173417 61.46787818 151.51343575 66.83316464 156.15234375 72.296875 C161.21359985 78.24966894 166.32237592 84.12471228 171.66015625 89.83203125 C176.08199656 94.56157694 180.23735718 99.43733644 184.29296875 104.48828125 C187.86683542 108.84353095 191.66447127 112.99423982 195.47265625 117.14453125 C194.50225593 119.65139874 194.0201414 120.88244911 191.546875 122.06640625 C189.47265625 122.14453125 189.47265625 122.14453125 187.8671875 121.09765625 C187.08408203 120.25460937 187.08408203 120.25460937 186.28515625 119.39453125 C185.36863281 118.41226563 185.36863281 118.41226563 184.43359375 117.41015625 C181.58011361 114.11330669 178.86493978 110.71008538 176.1328125 107.3125 C172.4592122 102.85424721 168.45723102 98.69546264 164.49707031 94.4934082 C160.95271319 90.73247292 157.47158366 86.93855335 154.1015625 83.01953125 C152.13600536 80.75701944 150.11592316 78.54762442 148.09765625 76.33203125 C145.04406758 72.95512143 142.1283642 69.51235993 139.28515625 65.95703125 C134.37860894 59.88636463 129.04065008 54.2538421 123.69140625 48.57421875 C119.73949608 44.37644203 115.94919852 40.0616262 112.21826172 35.66699219 C110.74219701 33.92893753 109.264243 32.19251491 107.78515625 30.45703125 C107.27863525 29.86237061 106.77211426 29.26770996 106.25024414 28.6550293 C102.02989784 23.73008015 97.6661384 18.95145125 93.21801758 14.23168945 C89.57296946 10.34515766 89.57296946 10.34515766 88.47265625 8.14453125 C81.93159627 7.81856953 75.38990715 7.50813492 68.84765625 7.20703125 C67.34300308 7.13742188 67.34300308 7.13742188 65.80795288 7.06640625 C53.04024712 6.48579826 40.27959894 6.06077877 27.5 5.859375 C26.26888489 5.8398024 25.03776978 5.8202298 23.76934814 5.80006409 C17.71594264 5.70813468 11.66270519 5.63282989 5.60888672 5.57446289 C3.39290215 5.54585165 1.17691899 5.51713005 -1.0390625 5.48828125 C-2.05887711 5.48307968 -3.07869171 5.47787811 -4.12940979 5.47251892 C-5.0634111 5.45902908 -5.99741241 5.44553925 -6.9597168 5.43164062 C-7.77361374 5.42434937 -8.58751068 5.41705811 -9.42607117 5.4095459 C-11.52734375 5.14453125 -11.52734375 5.14453125 -14.52734375 3.14453125 C-9.81758184 -0.54249811 -5.69348649 -0.1964793 0 0 Z " fill="#CDCDCD" transform="translate(69.52734375,173.85546875)"/>
<path d="M0 0 C0.33 0.66 0.66 1.32 1 2 C1.92071289 1.99476318 2.84142578 1.98952637 3.79003906 1.98413086 C23.34532876 1.88926056 42.88642584 1.99843387 62.4375 2.4375 C63.35849487 2.45714813 64.27948975 2.47679626 65.22839355 2.49703979 C73.95982715 2.68677298 82.69019602 2.90971564 91.41015625 3.41015625 C92.54718994 3.47468994 93.68422363 3.53922363 94.85571289 3.60571289 C100.99563612 4.37564658 104.44695955 5.8949282 108.4375 10.625 C109.20964844 11.52476563 109.98179687 12.42453125 110.77734375 13.3515625 C111.51082031 14.22554687 112.24429688 15.09953125 113 16 C114.16347482 17.33611947 115.32987756 18.66969839 116.5 20 C117.05945313 20.64324219 117.61890625 21.28648438 118.1953125 21.94921875 C120.22958141 24.26088797 122.3022231 26.5353143 124.375 28.8125 C127.40973184 32.16801725 130.3041891 35.58838182 133.125 39.125 C137.63864242 44.71558166 142.54273131 49.8858817 147.48852539 55.09399414 C151.76253727 59.6169255 155.74442945 64.2786998 159.62109375 69.1484375 C163.79383821 74.15024942 168.31679337 78.82989775 172.78125 83.5703125 C176.28935005 87.29666763 179.67997691 91.10535753 183 95 C184.95729319 97.29255668 186.91583349 99.58404406 188.875 101.875 C189.38853027 102.47594482 189.90206055 103.07688965 190.43115234 103.69604492 C194.86881592 108.8761233 199.40229067 113.96109634 204 119 C202.4370936 120.79734236 201.21334897 121.90616012 199.01953125 122.87109375 C197 123 197 123 195.32421875 121.84765625 C194.78410156 121.25855469 194.24398437 120.66945313 193.6875 120.0625 C193.08035156 119.41023438 192.47320312 118.75796875 191.84765625 118.0859375 C191.23792969 117.39757812 190.62820313 116.70921875 190 116 C189.44183594 115.37351562 188.88367188 114.74703125 188.30859375 114.1015625 C187.16023003 112.79599818 186.01856192 111.48452133 184.8828125 110.16796875 C182.7842468 107.75157049 180.645603 105.37470976 178.5 103 C175.23295665 99.37976277 172.00479224 95.73016435 168.8046875 92.05078125 C166.77041859 89.73911203 164.6977769 87.4646857 162.625 85.1875 C159.57141133 81.81059018 156.65570795 78.36782868 153.8125 74.8125 C148.90996514 68.74679782 143.57741963 63.11835023 138.23046875 57.4453125 C135.28967421 54.32224078 132.43600823 51.13727908 129.63671875 47.88671875 C127.62126228 45.56341213 125.56151538 43.28251535 123.5 41 C118.60632075 35.57171714 113.78141611 30.09227734 109.0390625 24.53125 C108.50837158 23.90959961 107.97768066 23.28794922 107.4309082 22.64746094 C106.37313653 21.40730383 105.31691615 20.16582146 104.26245117 18.92285156 C102.12229255 16.41275873 100.00488095 14.0047438 97.63671875 11.703125 C96 10 96 10 96 8 C95.0103273 8.00507568 94.0206546 8.01015137 93.00099182 8.01538086 C81.50368523 8.05541321 70.02075768 7.84313708 58.52734375 7.5625 C56.62350367 7.51748498 54.71965938 7.47264786 52.81581116 7.42797852 C47.8659541 7.31137422 42.91615705 7.19239482 37.96636963 7.07287598 C32.89102603 6.95076091 27.81562796 6.8309539 22.74023438 6.7109375 C12.82676909 6.47618387 2.91336582 6.23891446 -7 6 C-7 5.34 -7 4.68 -7 4 C-4.69 2.68 -2.38 1.36 0 0 Z " fill="#CDCDCD" transform="translate(209,88)"/>
<path d="M0 0 C0.82211472 -0.00616837 1.64422943 -0.01233673 2.49125671 -0.01869202 C3.39173233 -0.01477951 4.29220795 -0.010867 5.2199707 -0.00683594 C6.65135124 -0.01154152 6.65135124 -0.01154152 8.11164856 -0.01634216 C11.2898606 -0.02144659 14.46758719 -0.00876709 17.64575195 0.00878906 C18.7351709 0.01421722 19.82458984 0.01964539 20.94702148 0.02523804 C26.79526104 0.05908497 32.64302515 0.11242986 38.4909668 0.18017578 C43.54349942 0.23834844 48.59535204 0.27168722 53.64819336 0.28662109 C60.01928249 0.30926765 66.38729394 0.39130959 72.75723267 0.51306152 C75.21125526 0.55167026 77.6656387 0.57197332 80.1199646 0.57336426 C100.48548549 0.61156535 100.48548549 0.61156535 105.63378906 4.67602539 C108.15504913 7.42061598 110.05263369 10.06865976 111.95825195 13.25878906 C113.11734004 14.63735296 114.29960877 15.99738085 115.52075195 17.32128906 C116.07504883 17.959375 116.6293457 18.59746094 117.20043945 19.25488281 C119.15828781 21.48682994 121.15075097 23.68499765 123.14575195 25.88378906 C126.76192613 29.88609709 130.27832394 33.96162095 133.77075195 38.07128906 C138.79893728 43.98130105 144.00590002 49.69919267 149.2902832 55.37988281 C153.52571545 59.95018086 157.59351387 64.65043569 161.6262207 69.39941406 C167.22617634 75.98298359 172.91186065 82.45242876 178.80200195 88.77832031 C182.01419425 92.22845278 185.15704492 95.72405936 188.23950195 99.29003906 C191.06182854 102.52288588 193.95752031 105.68960099 196.8449707 108.86425781 C197.89104492 110.04955078 197.89104492 110.04955078 198.95825195 111.25878906 C199.72782227 112.12117188 200.49739258 112.98355469 201.2902832 113.87207031 C201.84071289 114.6596875 202.39114258 115.44730469 202.95825195 116.25878906 C202.62825195 117.24878906 202.29825195 118.23878906 201.95825195 119.25878906 C199.39575195 120.44628906 199.39575195 120.44628906 196.95825195 121.25878906 C191.55240519 116.11807919 186.78706052 110.67414502 182.1184082 104.86035156 C179.76512426 102.02619766 177.25869695 99.46932908 174.6184082 96.90722656 C170.56888018 92.88628344 166.96201584 88.44147255 163.27075195 84.09472656 C157.2032875 76.96238892 151.00401943 69.99364504 144.6262207 63.13769531 C140.39078845 58.56739726 136.32299004 53.86714243 132.2902832 49.11816406 C126.69032757 42.53459454 121.00464326 36.06514937 115.11450195 29.73925781 C112.45716381 26.8850798 109.8299817 24.01381358 107.27075195 21.07128906 C106.75963867 20.50804932 106.24852539 19.94480957 105.72192383 19.36450195 C103.95825195 17.25878906 103.95825195 17.25878906 102.39331055 14.75390625 C99.82955224 11.09951825 97.36881977 7.97927286 92.94015503 6.65560913 C86.76938765 5.61649396 80.51049831 5.71748916 74.27075195 5.69628906 C72.2223996 5.65389305 70.17413428 5.60709102 68.12597656 5.55615234 C63.74517396 5.45630643 59.36534048 5.38704472 54.98364258 5.34130859 C47.60404584 5.2629046 40.22701027 5.10580313 32.84887695 4.94238281 C19.88600897 4.66286586 6.92281674 4.44203299 -6.04174805 4.25878906 C-6.37174805 3.59878906 -6.70174805 2.93878906 -7.04174805 2.25878906 C-3.99780113 0.22949112 -3.41534088 0.00762541 0 0 Z " fill="#CDCDCD" transform="translate(246.041748046875,68.7412109375)"/>
<path d="M0 0 C1.31751755 0.04126259 1.31751755 0.04126259 2.66165161 0.08335876 C5.5801312 0.17615649 8.49828977 0.27666415 11.41650391 0.37744141 C13.44754828 0.44411293 15.47860525 0.51040194 17.50967407 0.57632446 C21.77870271 0.71602261 26.04758953 0.85934341 30.31640625 1.00537109 C35.7608209 1.19147469 41.2054422 1.37032354 46.65018272 1.54660606 C50.85242716 1.68320744 55.05456326 1.82293061 59.25667191 1.96364212 C61.26189275 2.03057414 63.26713907 2.09674771 65.27241135 2.16212082 C95.39082273 3.15076354 95.39082273 3.15076354 98.85009766 6.29541016 C100.07792969 7.84035156 100.07792969 7.84035156 101.33056641 9.41650391 C101.78157715 9.96226074 102.23258789 10.50801758 102.69726562 11.0703125 C103.99516 12.64516536 105.25768494 14.24897123 106.51806641 15.85400391 C107.71672521 17.23744581 108.92365255 18.61382103 110.14306641 19.97900391 C110.68447266 20.60419922 111.22587891 21.22939453 111.78369141 21.87353516 C113.79071179 24.16533546 115.84209492 26.41397143 117.89306641 28.66650391 C120.94665507 32.04341373 123.86235846 35.48617523 126.70556641 39.04150391 C131.61211372 45.11217052 136.95007257 50.74469305 142.29931641 56.42431641 C146.25122657 60.62209313 150.04152413 64.93690896 153.77246094 69.33154297 C159.83847237 76.47422403 165.97543466 83.5146915 172.36181641 90.37353516 C175.57471071 93.82442163 178.71988871 97.31913736 181.79931641 100.88916016 C183.89721559 103.28744036 186.05422363 105.62859207 188.20556641 107.97900391 C191.34419082 111.44970121 194.09699479 114.85397254 196.51806641 118.85400391 C194.76806641 120.41650391 194.76806641 120.41650391 192.51806641 121.85400391 C189.24902657 121.46881028 187.70338359 120.38115088 185.52978516 117.97509766 C184.99192383 117.38760742 184.4540625 116.80011719 183.89990234 116.19482422 C183.34077148 115.56672852 182.78164063 114.93863281 182.20556641 114.29150391 C181.62452148 113.65180664 181.04347656 113.01210937 180.44482422 112.35302734 C176.98417826 108.53177626 173.55876662 104.67837941 170.18994141 100.77587891 C168.16048568 98.44295316 166.0904194 96.14889145 164.01806641 93.85400391 C160.75415793 90.23724045 157.53015691 86.59010782 154.33056641 82.91650391 C152.24595476 80.54435962 150.13377996 78.19844325 148.01806641 75.85400391 C143.21898849 70.53065697 138.47728691 65.16537052 133.83837891 59.70166016 C128.24364901 53.12082212 122.56071528 46.65634492 116.67431641 40.33447266 C113.45837202 36.88031016 110.31288686 33.37964798 107.22509766 29.81103516 C105.1817321 27.4684124 103.10125781 25.16126968 101.01806641 22.85400391 C100.26525391 22.01740234 99.51244141 21.18080078 98.73681641 20.31884766 C97.3021957 18.72510529 95.86487507 17.13378733 94.42431641 15.54541016 C93.79525391 14.84287109 93.16619141 14.14033203 92.51806641 13.41650391 C91.96119141 12.79904297 91.40431641 12.18158203 90.83056641 11.54541016 C89.51806641 9.85400391 89.51806641 9.85400391 88.51806641 6.85400391 C87.26703125 6.86560547 86.01599609 6.87720703 84.72705078 6.88916016 C65.07038376 7.00779922 45.43294634 6.44719478 25.78515625 5.92687988 C21.11805974 5.80396403 16.45087177 5.68462352 11.78369141 5.56494141 C2.69505922 5.33137165 -6.39346835 5.09397612 -15.48193359 4.85400391 C-9.89103689 0.29300922 -7.11983014 -0.25669241 0 0 Z " fill="#CECECE" transform="translate(179.48193359375,110.14599609375)"/>
<path d="M0 0 C1.58530518 -0.00254539 1.58530518 -0.00254539 3.20263672 -0.00514221 C4.35779785 -0.00030319 5.51295898 0.00453583 6.703125 0.00952148 C8.50740967 0.0138192 8.50740967 0.0138192 10.34814453 0.01820374 C22.95790419 0.08200699 35.55305649 0.47230671 48.15380859 0.93017578 C51.97868254 1.06904314 55.80374931 1.20096879 59.62890625 1.33178711 C64.5249829 1.50025138 69.41998243 1.68538694 74.31494141 1.88354492 C78.46420335 2.0497207 82.60705951 2.16431766 86.75927734 2.21362305 C88.06566162 2.24354088 88.06566162 2.24354088 89.3984375 2.27406311 C90.96270227 2.30962608 92.52766177 2.32467282 94.09228516 2.31272888 C99.21224857 2.46742453 101.71939376 4.02647228 105.20999146 7.50080872 C106.70678784 9.14713115 108.12651763 10.77733683 109.40625 12.59936523 C109.83873047 13.1987793 110.27121094 13.79819336 110.71679688 14.41577148 C111.3287793 15.26461914 111.3287793 15.26461914 111.953125 16.13061523 C113.39996454 17.93157634 114.85766389 19.72388863 116.328125 21.50561523 C117.38773438 22.82625977 117.38773438 22.82625977 118.46875 24.17358398 C122.68695298 29.19430671 127.22631719 33.91463984 131.72265625 38.68530273 C134.6666725 41.81179585 137.5241919 44.99944366 140.32421875 48.25561523 C142.28977589 50.51812705 144.30985809 52.72752206 146.328125 54.94311523 C149.38171367 58.32002505 152.29741705 61.76278655 155.140625 65.31811523 C160.04717231 71.38878185 165.38513117 77.02130438 170.734375 82.70092773 C174.24250145 86.42731091 177.63248518 90.23647472 180.953125 94.13061523 C182.40260558 95.825343 183.85275765 97.5194936 185.30322266 99.21337891 C186.35465029 100.44187718 187.40511942 101.6711965 188.45458984 102.90136719 C192.09715754 107.16295217 195.81821557 111.34246113 199.625 115.45874023 C200.953125 117.13061523 200.953125 117.13061523 200.953125 119.13061523 C197.53151923 121.20801874 197.53151923 121.20801874 194.99926758 120.86914062 C192.64340042 120.01882466 191.63491313 119.1003834 189.96484375 117.25170898 C189.42698242 116.66421875 188.88912109 116.07672852 188.33496094 115.47143555 C187.77583008 114.84333984 187.21669922 114.21524414 186.640625 113.56811523 C186.05958008 112.92841797 185.47853516 112.2887207 184.87988281 111.62963867 C181.41613428 107.80496172 177.98623562 103.94919923 174.6171875 100.04077148 C172.63772374 97.76857013 170.6072933 95.54601651 168.578125 93.31811523 C165.52453633 89.94120541 162.60883295 86.49844392 159.765625 82.94311523 C154.86309014 76.87741305 149.53054463 71.24896547 144.18359375 65.57592773 C141.24279921 62.45285601 138.38913323 59.26789431 135.58984375 56.01733398 C133.57438728 53.69402736 131.51464038 51.41313058 129.453125 49.13061523 C124.65404708 43.8072683 119.9123455 38.44198185 115.2734375 32.97827148 C109.55505378 26.25298372 103.75400469 19.64309445 97.69848633 13.21777344 C94.05343821 9.33124165 94.05343821 9.33124165 92.953125 7.13061523 C58.963125 6.14061523 24.973125 5.15061523 -10.046875 4.13061523 C-6.30018045 0.38392069 -5.08931892 0.0039967 0 0 Z " fill="#CECECE" transform="translate(138.046875,131.869384765625)"/>
<path d="M0 0 C1.07896042 0.02663223 1.07896042 0.02663223 2.17971802 0.05380249 C4.57635368 0.1142826 6.97271215 0.18232295 9.36914062 0.25048828 C11.05276427 0.29477486 12.73639899 0.33864196 14.42004395 0.3821106 C17.97120368 0.4748615 21.52224777 0.57104639 25.07324219 0.66992188 C30.41911668 0.81874353 35.76519841 0.95884779 41.11132812 1.09814453 C46.28201994 1.23288663 51.45245187 1.37205485 56.6224823 1.53034973 C58.29088308 1.58135965 59.95928416 1.63235976 61.62768555 1.68334961 C62.83587716 1.7204528 62.83587716 1.7204528 64.06847668 1.75830555 C69.08134184 1.90631127 74.08984761 1.98675723 79.10473633 2.02661133 C80.90370361 2.05532822 80.90370361 2.05532822 82.73901367 2.08462524 C84.89608194 2.11829768 87.0536637 2.13031231 89.2109375 2.11459351 C95.14739499 2.23955215 98.43378837 3.22210092 102.76811218 7.36036682 C104.70492382 9.56952054 106.37988916 11.88638206 107.97460938 14.35107422 C109.36530066 16.46166797 111.00204936 18.27734352 112.71289062 20.13330078 C113.24527344 20.74947266 113.77765625 21.36564453 114.32617188 22.00048828 C116.31945491 24.28245368 118.3603209 26.51808652 120.40039062 28.75830078 C123.45397929 32.1352106 126.36968267 35.5779721 129.21289062 39.13330078 C134.11943793 45.2039674 139.45739679 50.83648993 144.80664062 56.51611328 C148.75326735 60.70827786 152.54190589 65.01477957 156.26367188 69.40722656 C161.94818488 76.11455159 167.6886122 82.72753771 173.71289062 89.13330078 C178.32298177 94.03669964 182.67133715 99.06866166 186.88085938 104.32470703 C190.43798308 108.67230268 194.22843504 112.80774753 198.02539062 116.94580078 C197.69539062 117.93580078 197.36539063 118.92580078 197.02539062 119.94580078 C194.42773438 120.84814453 194.42773438 120.84814453 191.02539062 120.94580078 C188.45967669 119.18133451 186.58302304 116.88041009 184.58789062 114.50830078 C184.01586914 113.85958008 183.44384766 113.21085937 182.85449219 112.54248047 C181.22733832 110.69121093 179.62469329 108.82111983 178.02539062 106.94580078 C176.77647597 105.5281772 175.52674701 104.11126948 174.27539062 102.69580078 C173.75460937 102.09251953 173.23382813 101.48923828 172.69726562 100.86767578 C170.6678099 98.53475004 168.59774362 96.24068833 166.52539062 93.94580078 C163.26148214 90.32903733 160.03748113 86.6819047 156.83789062 83.00830078 C154.75327898 80.6361565 152.64110418 78.29024013 150.52539062 75.94580078 C145.72631271 70.62245385 140.98461113 65.2571674 136.34570312 59.79345703 C130.27740956 52.65558659 124.07436879 45.68410816 117.69335938 38.82470703 C114.39194896 35.26227734 111.18753213 31.63173259 108.02539062 27.94580078 C107.57663574 27.4234082 107.12788086 26.90101563 106.66552734 26.36279297 C104.10443099 23.38102151 101.545838 20.39712496 98.99023438 17.41064453 C98.51539612 16.87870483 98.04055786 16.34676514 97.55133057 15.79870605 C96.02539062 13.94580078 96.02539062 13.94580078 94.99505615 12.11436462 C93.542546 9.79612961 92.30684007 8.48711242 90.02539062 6.94580078 C84.63032917 5.82573674 79.24833376 5.87370467 73.76367188 5.85986328 C72.13293242 5.83048841 70.5022466 5.79798836 68.87162781 5.76254272 C64.56662679 5.6769938 60.26214723 5.63210321 55.95648193 5.59631348 C51.67763364 5.55462505 47.39946149 5.4780899 43.12109375 5.40283203 C38.12403575 5.31683468 33.12704393 5.23371195 28.12966919 5.16827393 C14.4173951 4.98627911 0.72609302 4.55065297 -12.97460938 3.94580078 C-8.24370446 0.31877368 -6.0470851 -0.16122257 0 0 Z " fill="#CECECE" transform="translate(103.974609375,153.05419921875)"/>
<path d="M0 0 C3.02027344 1.72669922 3.02027344 1.72669922 6.1015625 3.48828125 C10.5440838 6.02756654 14.98821687 8.56397843 19.43548584 11.09494019 C21.81737986 12.45063575 24.19851258 13.80766548 26.57958984 15.16479492 C27.78695062 15.85253415 28.99463867 16.53969911 30.20263672 17.22631836 C30.80479004 17.56864502 31.40694336 17.91097168 32.02734375 18.26367188 C32.62061462 18.60066605 33.2138855 18.93766022 33.82513428 19.28486633 C35.53808559 20.26557238 37.24042316 21.2647444 38.94238281 22.2644043 C41.87971592 23.99635526 41.87971592 23.99635526 44.61230469 25.16723633 C46.90593828 26.25952734 48.37503147 27.04309649 50 29 C50.956612 33.14852533 50.75698769 37.08455829 50.5 41.3125 C50.46390625 42.43462891 50.4278125 43.55675781 50.390625 44.71289062 C50.29646821 47.47874621 50.16512661 50.23762241 50 53 C42.42392609 49.36911583 35.16577779 45.41359288 27.95166016 41.11816406 C18.70785604 35.61673245 9.34720913 30.32357606 0 25 C0 16.75 0 8.5 0 0 Z " fill="#CACACA" transform="translate(129,282)"/>
<path d="M0 0 C3.54702626 1.33409358 6.73906174 2.90907593 10 4.8359375 C10.96035156 5.40038574 11.92070313 5.96483398 12.91015625 6.54638672 C13.92980469 7.1498291 14.94945313 7.75327148 16 8.375 C18.14536024 9.63622175 20.29120389 10.89662153 22.4375 12.15625 C23.52417969 12.79433594 24.61085938 13.43242187 25.73046875 14.08984375 C33.78171186 18.79361661 41.89718716 23.38589824 50 28 C50 35.92 50 43.84 50 52 C46.32895032 50.53158013 43.16308198 49.07412658 39.74609375 47.1640625 C38.73538818 46.60154785 37.72468262 46.0390332 36.68334961 45.45947266 C34.48439394 44.21667816 32.29133365 42.96340475 30.10375977 41.70068359 C24.78497444 38.63562086 19.52921276 35.72114416 13.90625 33.25 C3.18977489 28.27100375 3.18977489 28.27100375 0 24 C-2.28487869 16.19011145 -1.24970458 7.92504966 0 0 Z " fill="#CBCBCB" transform="translate(76,252)"/>
<path d="M0 0 C0 7.92 0 15.84 0 24 C-1.62164062 24.93199219 -3.24328125 25.86398438 -4.9140625 26.82421875 C-6.56216694 27.77272937 -8.21026122 28.7212577 -9.8581543 29.6701355 C-11.03367154 30.34700814 -12.20928965 31.02370564 -13.38500977 31.70022583 C-19.79816506 35.39189603 -26.19746821 39.10309747 -32.5546875 42.890625 C-34.06168213 43.78841675 -34.06168213 43.78841675 -35.59912109 44.7043457 C-37.50802049 45.84483357 -39.41466593 46.98910392 -41.31884766 48.13745117 C-42.17269043 48.64767822 -43.0265332 49.15790527 -43.90625 49.68359375 C-44.65197266 50.13275146 -45.39769531 50.58190918 -46.16601562 51.04467773 C-48 52 -48 52 -50 52 C-50 44.08 -50 36.16 -50 28 C-47.56753906 26.60201172 -47.56753906 26.60201172 -45.0859375 25.17578125 C-43.43783306 24.22727063 -41.78973878 23.2787423 -40.1418457 22.3298645 C-38.96632846 21.65299186 -37.79071035 20.97629436 -36.61499023 20.29977417 C-30.20183494 16.60810397 -23.80253179 12.89690253 -17.4453125 9.109375 C-15.93831787 8.21158325 -15.93831787 8.21158325 -14.40087891 7.2956543 C-12.49197951 6.15516643 -10.58533407 5.01089608 -8.68115234 3.86254883 C-7.82730957 3.35232178 -6.9734668 2.84209473 -6.09375 2.31640625 C-5.34802734 1.86724854 -4.60230469 1.41809082 -3.83398438 0.95532227 C-2 0 -2 0 0 0 Z " fill="#CACACA" transform="translate(436,222)"/>
<path d="M0 0 C1.52333666 7.92330363 2.70801202 16.23498068 0 24 C-5.2750659 30.12284435 -13.29464375 33.09573776 -20.51660156 36.34960938 C-26.3694921 39.12263573 -31.83821018 42.52640762 -37.375 45.875 C-39.37883367 47.06661226 -41.38632615 48.25210647 -43.3984375 49.4296875 C-44.24067871 49.92710449 -45.08291992 50.42452148 -45.95068359 50.93701172 C-48 52 -48 52 -50 52 C-50 44.08 -50 36.16 -50 28 C-48.39253906 27.10539062 -46.78507812 26.21078125 -45.12890625 25.2890625 C-33.85686375 19.00356935 -22.61622749 12.68337326 -11.5234375 6.0859375 C-1.27014149 0 -1.27014149 0 0 0 Z " fill="#CACACA" transform="translate(330,283)"/>
<path d="M0 0 C0.26260373 3.70697705 0.42156838 7.41156358 0.5625 11.125 C0.63791016 12.17171875 0.71332031 13.2184375 0.79101562 14.296875 C1.00625419 21.85414019 1.00625419 21.85414019 -1.6171875 24.84155273 C-3.99738013 26.46663679 -6.41229911 27.73140611 -9 29 C-10.94336471 30.10496216 -12.88332617 31.21592565 -14.8203125 32.33203125 C-16.92013652 33.49533111 -19.02175589 34.65539512 -21.125 35.8125 C-29.11920391 40.24340508 -37.06088393 44.72444424 -44.84814453 49.51098633 C-48.90907207 52 -48.90907207 52 -50 52 C-50.38062339 48.16944228 -50.60914027 44.3437223 -50.8125 40.5 C-50.92142578 39.42234375 -51.03035156 38.3446875 -51.14257812 37.234375 C-51.28002844 33.76639792 -51.15888433 31.2807225 -50 28 C-46.65894033 24.89101394 -42.94656318 22.92256175 -38.88375854 20.94042969 C-36.40260519 19.7017623 -34.02682267 18.31053047 -31.6363678 16.90673828 C-29.84801111 15.85729097 -28.04949529 14.82803755 -26.24609375 13.8046875 C-25.65038574 13.46663086 -25.05467773 13.12857422 -24.44091797 12.78027344 C-23.84166504 12.4402832 -23.24241211 12.10029297 -22.625 11.75 C-21.39441293 11.04968704 -20.16394385 10.3491667 -18.93359375 9.6484375 C-16.61892115 8.33015747 -14.30267938 7.0147949 -11.98535156 5.70117188 C-9.56956748 4.32456217 -7.17003078 2.92509433 -4.7734375 1.515625 C-2 0 -2 0 0 0 Z " fill="#CACACA" transform="translate(383,253)"/>
<path d="M0 0 C3.97384737 1.47674897 7.54766023 3.34718548 11.2265625 5.44921875 C11.81488861 5.78492386 12.40321472 6.12062897 13.0093689 6.46650696 C14.2524241 7.17686678 15.49456537 7.88882802 16.73583984 8.60229492 C18.59614403 9.67092404 20.45990555 10.73330594 22.32421875 11.79492188 C24.74664124 13.17564203 27.15233238 14.58086586 29.55053711 16.00317383 C31.7694846 17.28767886 34.0277034 18.50770434 36.32641602 19.64331055 C39.31477027 21.22070492 41.64198619 22.57696743 44 25 C45.2900939 29.23460007 45.0588172 33.06218889 44.6875 37.4375 C44.63787109 38.55060547 44.58824219 39.66371094 44.53710938 40.81054688 C44.40791403 43.54713921 44.22778025 46.27014135 44 49 C35.25214061 44.44143572 26.56330875 39.79749885 18.16650391 34.61230469 C14.86748602 32.58789001 11.92349477 30.97244853 8.2578125 29.65234375 C4.37522824 28.15869075 2.49570304 27.36990411 0 24 C-1.47233018 16.11698984 -0.72242497 7.93648659 0 0 Z " fill="#CBCBCB" transform="translate(183,314)"/>
<path d="M0 0 C9.10915438 4.26590681 17.81628869 9.11586546 26.5 14.1875 C27.53833984 14.79352051 28.57667969 15.39954102 29.64648438 16.02392578 C31.6010551 17.17275929 33.54685825 18.3366907 35.48193359 19.51806641 C37.87233886 20.99390344 37.87233886 20.99390344 40.03759766 21.88427734 C41.6953125 22.66015625 41.6953125 22.66015625 44 25 C44.72419955 29.10759387 44.56292724 33.09632618 44.375 37.25 C44.33439453 38.93996094 44.33439453 38.93996094 44.29296875 40.6640625 C44.22227604 43.44464237 44.1236504 46.22135359 44 49 C36.43975693 44.90190707 28.92302827 40.73291793 21.4375 36.5 C20.47392578 35.95730469 19.51035156 35.41460937 18.51757812 34.85546875 C16.60414474 33.77424341 14.69861058 32.67890403 12.80175781 31.56884766 C10.02335184 29.95830051 10.02335184 29.95830051 7.08105469 28.69287109 C4.27934738 27.34561014 2.19192068 26.20996471 0 24 C-1.20233601 19.81044004 -0.95526749 15.93880156 -0.625 11.625 C-0.57988281 10.50738281 -0.53476562 9.38976562 -0.48828125 8.23828125 C-0.37069094 5.4866681 -0.20673789 2.74611536 0 0 Z " fill="#CBCBCB" transform="translate(29,225)"/>
<path d="M0 0 C0 7.92 0 15.84 0 24 C-5.60546875 27.203125 -11.2109375 30.40625 -16.81640625 33.609375 C-17.42498474 33.95718018 -18.03356323 34.30498535 -18.6605835 34.66333008 C-19.89369971 35.36787478 -21.12697656 36.0721384 -22.3604126 36.77612305 C-25.58364126 38.61627862 -28.80356129 40.46189469 -32.01855469 42.31640625 C-32.66436493 42.6880188 -33.31017517 43.05963135 -33.97555542 43.44250488 C-35.21494521 44.15584634 -36.45336666 44.87087349 -37.69070435 45.58776855 C-41.88759794 48 -41.88759794 48 -43 48 C-45.65051268 27.9136713 -45.65051268 27.9136713 -41.71826172 22.10742188 C-37.95427157 18.85171989 -33.35816106 17.1264703 -28.79638672 15.2578125 C-23.29287945 12.78233935 -18.22053104 9.49163273 -13.0625 6.375 C-10.99497338 5.14673836 -8.92363821 3.92485343 -6.84765625 2.7109375 C-5.96086182 2.18806152 -5.07406738 1.66518555 -4.16040039 1.12646484 C-2 0 -2 0 0 0 Z " fill="#CACACA" transform="translate(483,195)"/>
<path d="M0 0 C0 7.92 0 15.84 0 24 C-1.60746094 24.89460938 -3.21492188 25.78921875 -4.87109375 26.7109375 C-15.69333657 32.74616166 -26.504031 38.78499821 -37.13452148 45.15380859 C-41.90252605 48 -41.90252605 48 -43 48 C-45.65051268 27.9136713 -45.65051268 27.9136713 -41.71826172 22.10742188 C-37.95427157 18.85171989 -33.35816106 17.1264703 -28.79638672 15.2578125 C-23.29287945 12.78233935 -18.22053104 9.49163273 -13.0625 6.375 C-10.99497338 5.14673836 -8.92363821 3.92485343 -6.84765625 2.7109375 C-5.96086182 2.18806152 -5.07406738 1.66518555 -4.16040039 1.12646484 C-2 0 -2 0 0 0 Z " fill="#CACACA" transform="translate(277,314)"/>
<path d="M0 0 C1.57037494 0.77671531 3.13975977 1.55543259 4.70874023 2.33496094 C5.58280014 2.76838806 6.45686005 3.20181519 7.35740662 3.64837646 C11.35340203 5.69223288 15.20806058 7.95315296 19.0625 10.25 C19.81982422 10.69601562 20.57714844 11.14203125 21.35742188 11.6015625 C26.85679945 14.85679945 26.85679945 14.85679945 28 16 C28.09396057 17.93306498 28.11743517 19.86958838 28.11352539 21.80493164 C28.11344986 23.04614273 28.11337433 24.28735382 28.11329651 25.56617737 C28.10818911 26.9308374 28.1029731 28.29549702 28.09765625 29.66015625 C28.095792 31.04878183 28.09436813 32.43740807 28.09336853 33.82603455 C28.08954387 37.48721115 28.07971403 41.1483483 28.06866455 44.80950928 C28.05844932 48.54292263 28.05387067 52.27634234 28.04882812 56.00976562 C28.03809171 63.33986177 28.02101591 70.66992536 28 78 C26.35 77.34 24.7 76.68 23 76 C23.05349609 74.74453369 23.10699219 73.48906738 23.16210938 72.19555664 C23.34043604 67.50457137 23.41158867 62.81683658 23.45166016 58.12280273 C23.48364266 56.09805164 23.54408954 54.07353143 23.63427734 52.05053711 C23.75963761 49.12474385 23.77987215 46.21332693 23.78125 43.28515625 C23.87231018 41.94397484 23.87231018 41.94397484 23.96520996 40.57569885 C24.04459311 37.48774406 24.04459311 37.48774406 22 33 C16.72 30.03 11.44 27.06 6 24 C6 37.53 6 51.06 6 65 C1 63 1 63 0 62 C-0.09396057 60.06693502 -0.11743517 58.13041162 -0.11352539 56.19506836 C-0.11344986 54.95385727 -0.11337433 53.71264618 -0.11329651 52.43382263 C-0.10818911 51.0691626 -0.1029731 49.70450298 -0.09765625 48.33984375 C-0.095792 46.95121817 -0.09436813 45.56259193 -0.09336853 44.17396545 C-0.08954387 40.51278885 -0.07971403 36.8516517 -0.06866455 33.19049072 C-0.05844932 29.45707737 -0.05387067 25.72365766 -0.04882812 21.99023438 C-0.03809171 14.66013823 -0.02101591 7.33007464 0 0 Z " fill="#B2B2B2" transform="translate(174,365)"/>
<path d="M0 0 C1.73888652 0.94729504 3.47762758 1.89485711 5.21630859 2.8425293 C6.18458588 3.3701738 7.15286316 3.8978183 8.15048218 4.44145203 C11.98904093 6.5409574 15.81072354 8.66927503 19.625 10.8125 C20.33011719 11.20630859 21.03523438 11.60011719 21.76171875 12.00585938 C26.88131868 14.88131868 26.88131868 14.88131868 28 16 C28.09396057 17.93306498 28.11743517 19.86958838 28.11352539 21.80493164 C28.11344986 23.04614273 28.11337433 24.28735382 28.11329651 25.56617737 C28.10818911 26.9308374 28.1029731 28.29549702 28.09765625 29.66015625 C28.095792 31.04878183 28.09436813 32.43740807 28.09336853 33.82603455 C28.08954387 37.48721115 28.07971403 41.1483483 28.06866455 44.80950928 C28.05844932 48.54292263 28.05387067 52.27634234 28.04882812 56.00976562 C28.03809171 63.33986177 28.02101591 70.66992536 28 78 C25.52534485 76.75332642 25.52534485 76.75332642 23 75 C22.46842957 73.10531616 22.46842957 73.10531616 22.59448242 70.94677734 C22.62648239 70.13518158 22.65848236 69.32358582 22.69145203 68.48739624 C22.74557755 67.61241486 22.79970306 66.73743347 22.85546875 65.8359375 C22.9023763 63.97273612 22.94588656 62.10944669 22.98632812 60.24609375 C23.0747862 57.31301023 23.18673959 54.38788485 23.35961914 51.45849609 C23.51489749 48.62316621 23.56719093 45.79995167 23.60546875 42.9609375 C23.68186081 42.0981015 23.75825287 41.2352655 23.83695984 40.34628296 C23.97462947 37.36115099 23.97462947 37.36115099 22 33 C16.72 30.03 11.44 27.06 6 24 C6 37.53 6 51.06 6 65 C1 63 1 63 0 62 C-0.09396057 60.06693502 -0.11743517 58.13041162 -0.11352539 56.19506836 C-0.11344986 54.95385727 -0.11337433 53.71264618 -0.11329651 52.43382263 C-0.10818911 51.0691626 -0.1029731 49.70450298 -0.09765625 48.33984375 C-0.095792 46.95121817 -0.09436813 45.56259193 -0.09336853 44.17396545 C-0.08954387 40.51278885 -0.07971403 36.8516517 -0.06866455 33.19049072 C-0.05844932 29.45707737 -0.05387067 25.72365766 -0.04882812 21.99023438 C-0.03809171 14.66013823 -0.02101591 7.33007464 0 0 Z " fill="#B2B2B2" transform="translate(84,313)"/>
<path d="M0 0 C1.93873142 0.95583968 3.8759433 1.91476192 5.8125 2.875 C6.89144531 3.40867187 7.97039062 3.94234375 9.08203125 4.4921875 C12 6 12 6 15 8 C15.266487 11.05075084 15.34757146 13.89626179 15.29296875 16.9453125 C15.28872391 17.8303244 15.28447906 18.7153363 15.28010559 19.62716675 C15.26328259 22.46008445 15.22562425 25.29229652 15.1875 28.125 C15.17245782 30.04295849 15.15876861 31.96092811 15.14648438 33.87890625 C15.11336727 38.58621031 15.06156055 43.29298544 15 48 C12.9967068 47.3432955 10.99728155 46.67476726 9 46 C8.163479 45.73880371 7.32695801 45.47760742 6.46508789 45.20849609 C3.4375537 43.81610615 1.96739129 42.72908049 0 40 C-1.56358131 33.40150181 -0.83855715 26.3394969 -0.5625 19.625 C-0.51733202 17.72535461 -0.47627145 15.82560681 -0.43945312 13.92578125 C-0.34049998 9.28132173 -0.18535442 4.64178173 0 0 Z " fill="#B1B1B1" transform="translate(181,391)"/>
<path d="M0 0 C1.93873142 0.95583968 3.8759433 1.91476192 5.8125 2.875 C6.89144531 3.40867187 7.97039062 3.94234375 9.08203125 4.4921875 C12 6 12 6 15 8 C15.266487 11.05075084 15.34757146 13.89626179 15.29296875 16.9453125 C15.28872391 17.8303244 15.28447906 18.7153363 15.28010559 19.62716675 C15.26328259 22.46008445 15.22562425 25.29229652 15.1875 28.125 C15.17245782 30.04295849 15.15876861 31.96092811 15.14648438 33.87890625 C15.11336727 38.58621031 15.06156055 43.29298544 15 48 C12.9967068 47.3432955 10.99728155 46.67476726 9 46 C8.163479 45.73880371 7.32695801 45.47760742 6.46508789 45.20849609 C3.4375537 43.81610615 1.96739129 42.72908049 0 40 C-1.56358131 33.40150181 -0.83855715 26.3394969 -0.5625 19.625 C-0.51733202 17.72535461 -0.47627145 15.82560681 -0.43945312 13.92578125 C-0.34049998 9.28132173 -0.18535442 4.64178173 0 0 Z " fill="#B2B2B2" transform="translate(91,339)"/>
</svg>
