<?xml version="1.0" encoding="UTF-8"?>
<svg version="1.1" xmlns="http://www.w3.org/2000/svg" width="512" height="512">
<path d="M0 0 C3.62456757 1.0747764 6.82516383 2.92191207 10.11328125 4.765625 C11.10110596 5.31847168 12.08893066 5.87131836 13.10668945 6.44091797 C14.69356567 7.33641357 14.69356567 7.33641357 16.3125 8.25 C17.42262451 8.87406738 18.53274902 9.49813477 19.67651367 10.14111328 C28.08587771 14.88369692 36.43691436 19.72246106 44.76489258 24.60644531 C52.47854463 29.12670684 60.23165875 33.57476045 68 38 C77.72142984 43.53953103 87.40895304 49.13375187 97.06689453 54.78344727 C107.59084625 60.93766742 118.15380137 67.02369996 128.71777344 73.10888672 C134.14659945 76.2368015 139.57317249 79.36861966 145 82.5 C147.16015357 83.74609839 149.32030983 84.99219214 151.48046875 86.23828125 C155.87959075 88.77615993 160.27794321 91.31536583 164.67578125 93.85546875 C178.09707868 101.6057816 191.53575759 109.32452423 205 117 C205 120.96 205 124.92 205 129 C199.72 131.97 194.44 134.94 189 138 C189.01633987 139.27262695 189.03267975 140.54525391 189.04951477 141.85644531 C189.19515603 153.86244584 189.27218054 165.86719799 189.28240681 177.87409973 C189.28985954 184.04699392 189.32129679 190.21780605 189.40795898 196.39013672 C189.49074353 202.34961899 189.50998615 208.30626183 189.48558617 214.26623535 C189.48737517 216.53728369 189.51188178 218.80843365 189.55968666 221.07897949 C189.90292862 238.39263413 189.90292862 238.39263413 186.75728035 242.70275688 C183.29869981 245.84136959 179.34470557 247.3543615 175 249 C172.82072906 250.2177069 170.65758705 251.46520561 168.51953125 252.75390625 C166.28500298 254.02545846 164.04928614 255.29492382 161.8125 256.5625 C159.34182403 257.96765477 156.87211894 259.37451273 154.40234375 260.78125 C153.78224426 261.13417618 153.16214478 261.48710236 152.52325439 261.85072327 C146.29361915 265.39784056 140.0824978 268.97679664 133.875 272.5625 C132.81128174 273.17681885 131.74756348 273.7911377 130.65161133 274.42407227 C128.50690413 275.66292223 126.3622912 276.90193541 124.21777344 278.14111328 C117.74353938 281.88123605 111.26666962 285.61679676 104.7890625 289.35107422 C99.74417389 292.2599974 94.70095864 295.17169641 89.66400146 298.09432983 C87.88319999 299.1274294 86.10184142 300.15956171 84.3203125 301.19140625 C82.08742917 302.48506088 79.8555909 303.78052164 77.625 305.078125 C75.63681118 306.22904855 73.63959601 307.36457487 71.63208008 308.48144531 C69.03513609 309.91765521 69.03513609 309.91765521 66.9050293 311.52636719 C64.82523095 312.92910264 63.49407447 313.67406981 61 314 C56.62263544 312.61694076 52.93872151 310.29892776 49.0625 307.875 C47.94931396 307.2142749 46.83612793 306.5535498 45.68920898 305.87280273 C42.44308352 303.94099313 39.22161715 301.97230156 36 300 C33.8398115 298.72068641 31.67202879 297.45554562 29.50195312 296.19311523 C27.5056596 295.02936457 25.51806614 293.85172431 23.53125 292.671875 C17.90132145 289.33998092 12.2308083 286.07852327 6.5625 282.8125 C4.90166382 281.85549194 4.90166382 281.85549194 3.20727539 280.87915039 C0.93662932 279.57110523 -1.33412358 278.26324552 -3.60498047 276.95556641 C-9.07169975 273.80667949 -14.53577646 270.6532151 -20 267.5 C-26.52232439 263.73634635 -33.04513763 259.97355377 -39.5703125 256.21484375 C-51.0544882 249.59777108 -62.52196894 242.95366023 -73.96582031 236.26708984 C-84.52620282 230.10080946 -95.12126766 223.9950405 -105.71777344 217.89111328 C-111.14659942 214.76319852 -116.57319281 211.63141552 -122 208.5 C-124.16665583 207.24998121 -126.3333225 205.99998122 -128.5 204.75 C-150.16666667 192.25 -171.83333333 179.75 -193.5 167.25 C-194.5732251 166.63084717 -195.6464502 166.01169434 -196.75219727 165.3737793 C-198.91159395 164.1279423 -201.07093669 162.88201182 -203.23022461 161.63598633 C-208.75767597 158.44651047 -214.28615121 155.25883115 -219.81640625 152.07421875 C-229.58011894 146.45024164 -239.34303524 140.82522407 -249.0625 135.125 C-249.76511963 134.71403076 -250.46773926 134.30306152 -251.19165039 133.87963867 C-255.87952283 131.12047717 -255.87952283 131.12047717 -257 130 C-257.17452847 127.67632485 -257.28447848 125.38037734 -257.3515625 123.05273438 C-257.37580292 122.32577362 -257.40004333 121.59881287 -257.42501831 120.849823 C-257.636879 114.12030232 -257.76131711 107.38872021 -257.85931396 100.65666962 C-257.92628024 96.13365549 -258.02173243 91.61532264 -258.18652344 87.09472656 C-258.3451902 82.72288982 -258.42916647 78.3553194 -258.46209717 73.98078918 C-258.48717782 72.31855006 -258.53827252 70.65648139 -258.61651611 68.99589539 C-258.85735906 63.64038894 -258.80439067 59.09102702 -257 54 C-253.40133928 50.11534718 -248.67055953 47.94849554 -243.88512993 45.85529518 C-241.0524433 44.57008763 -238.42400232 42.96977608 -235.76171875 41.3671875 C-233.73772536 40.20182805 -231.7129689 39.03779303 -229.6875 37.875 C-228.5850293 37.24029785 -227.48255859 36.6055957 -226.34667969 35.95166016 C-222.89849703 33.96653544 -219.44936074 31.98307685 -216 30 C-212.67197732 28.08639904 -209.3442543 26.1722886 -206.01757812 24.25634766 C-203.85193442 23.00945208 -201.68527837 21.76431299 -199.51757812 20.52099609 C-194.18801615 17.45544115 -188.8953777 14.34442462 -183.65234375 11.1328125 C-182.64655273 10.52131348 -181.64076172 9.90981445 -180.60449219 9.27978516 C-178.70811583 8.12272258 -176.81895231 6.95372516 -174.93847656 5.77099609 C-174.09639648 5.25875488 -173.25431641 4.74651367 -172.38671875 4.21875 C-171.29170044 3.5371582 -171.29170044 3.5371582 -170.17456055 2.84179688 C-167.31123818 1.73337254 -165.90831342 2.06912884 -163 3 C-160.42651367 4.26831055 -160.42651367 4.26831055 -157.66796875 5.88671875 C-156.63494629 6.48798584 -155.60192383 7.08925293 -154.53759766 7.70874023 C-153.43206543 8.36173096 -152.3265332 9.01472168 -151.1875 9.6875 C-150.0191112 10.37054703 -148.85032203 11.05290961 -147.68115234 11.73461914 C-144.6876978 13.48197799 -141.69888235 15.2371069 -138.71124268 16.99438477 C-136.12130977 18.5163641 -133.52755101 20.03176717 -130.93359375 21.546875 C-129.97090576 22.10930908 -129.00821777 22.67174316 -128.01635742 23.2512207 C-126.08663919 24.37665884 -124.15580803 25.50019085 -122.22387695 26.62182617 C-117.26865322 29.49959372 -112.32744763 32.39674135 -107.41543579 35.34754944 C-104.86655703 36.87386768 -102.30792689 38.38332369 -99.74749756 39.89016724 C-98.50894476 40.62425977 -97.27465907 41.36560468 -96.04498291 42.11447144 C-94.33030764 43.15754746 -92.59900632 44.17314186 -90.8671875 45.1875 C-89.87831543 45.77917969 -88.88944336 46.37085938 -87.87060547 46.98046875 C-84.1165393 48.31377206 -82.57262926 47.6354254 -79 46 C-77.35577421 45.15205726 -75.73768465 44.25167158 -74.1484375 43.3046875 C-72.76978516 42.49064453 -72.76978516 42.49064453 -71.36328125 41.66015625 C-70.37714844 41.07105469 -69.39101562 40.48195312 -68.375 39.875 C-66.21686539 38.60034343 -64.05798044 37.3269566 -61.8984375 36.0546875 C-60.77018555 35.38920898 -59.64193359 34.72373047 -58.47949219 34.03808594 C-53.26868971 30.97680817 -48.01471697 27.99112087 -42.76199341 25.00256348 C-32.95897953 19.42470852 -23.18101425 13.80624568 -13.4375 8.125 C-12.42623047 7.53589844 -11.41496094 6.94679688 -10.37304688 6.33984375 C-6.862671 4.28867339 -3.3836562 2.2557708 0 0 Z " fill="#A36C42" transform="translate(282,99)"/>
<path d="M0 0 C3.62456757 1.0747764 6.82516383 2.92191207 10.11328125 4.765625 C11.10110596 5.31847168 12.08893066 5.87131836 13.10668945 6.44091797 C14.69356567 7.33641357 14.69356567 7.33641357 16.3125 8.25 C17.42262451 8.87406738 18.53274902 9.49813477 19.67651367 10.14111328 C28.08587771 14.88369692 36.43691436 19.72246106 44.76489258 24.60644531 C52.47854463 29.12670684 60.23165875 33.57476045 68 38 C77.72142984 43.53953103 87.40895304 49.13375187 97.06689453 54.78344727 C107.59084625 60.93766742 118.15380137 67.02369996 128.71777344 73.10888672 C134.14659945 76.2368015 139.57317249 79.36861966 145 82.5 C147.16015357 83.74609839 149.32030983 84.99219214 151.48046875 86.23828125 C155.87959075 88.77615993 160.27794321 91.31536583 164.67578125 93.85546875 C178.09706615 101.60577436 191.53500558 109.32586445 205 117 C202.86205237 119.30683173 200.76652151 120.85534603 198.02734375 122.390625 C196.82259399 123.0717334 196.82259399 123.0717334 195.59350586 123.76660156 C194.71702393 124.25612305 193.84054199 124.74564453 192.9375 125.25 C191.02046382 126.33267933 189.10381431 127.4160435 187.1875 128.5 C186.17558594 129.07105469 185.16367187 129.64210937 184.12109375 130.23046875 C178.87473433 133.20493786 173.65745193 136.22950833 168.4375 139.25 C159.85534874 144.20961162 151.25837576 149.14216046 142.64755249 154.05172729 C133.28386206 159.39123784 123.93693578 164.75807008 114.625 170.1875 C113.17480469 171.02982178 113.17480469 171.02982178 111.6953125 171.88916016 C106.70125631 174.79927477 101.74585933 177.7593596 96.828125 180.796875 C95.32838135 181.71303589 95.32838135 181.71303589 93.79833984 182.64770508 C91.89925969 183.81040398 90.00837248 184.98663105 88.12744141 186.1784668 C87.27843262 186.69578369 86.42942383 187.21310059 85.5546875 187.74609375 C84.81718262 188.20685303 84.07967773 188.6676123 83.31982422 189.14233398 C80.15814859 190.31124227 78.23237864 189.86121928 75 189 C72.52832031 187.83935547 72.52832031 187.83935547 70.078125 186.3671875 C69.14871094 185.81611328 68.21929687 185.26503906 67.26171875 184.69726562 C66.26785156 184.09591797 65.27398437 183.49457031 64.25 182.875 C62.08901872 181.59034303 59.92754336 180.30651686 57.765625 179.0234375 C56.64994141 178.35795898 55.53425781 177.69248047 54.38476562 177.00683594 C48.95287357 173.78625366 43.47596849 170.64484821 38 167.5 C29.47998566 162.59621596 20.98269867 157.65551171 12.5 152.6875 C5.04717066 148.32649512 -2.44336262 144.05319661 -10.00732422 139.88842773 C-26.10727944 130.99711379 -41.94367358 121.62525617 -57.81884766 112.34082031 C-66.10417538 107.50376063 -74.4319861 102.74294339 -82.76730347 97.99285889 C-96.5814805 90.1185504 -110.37490438 82.19800999 -124 74 C-124 76.97 -124 79.94 -124 83 C-122.93193115 83.60920288 -122.93193115 83.60920288 -121.84228516 84.23071289 C-108.42584883 91.88514062 -95.01493805 99.54929529 -81.625 107.25 C-80.00585693 108.17824585 -80.00585693 108.17824585 -78.35400391 109.12524414 C-77.34257324 109.70781982 -76.33114258 110.29039551 -75.2890625 110.890625 C-74.40943848 111.39625977 -73.52981445 111.90189453 -72.62353516 112.42285156 C-71.75776855 112.94331055 -70.89200195 113.46376953 -70 114 C-68.91372314 114.50764893 -67.82744629 115.01529785 -66.70825195 115.53833008 C-63.65596212 118.31271378 -63.5699966 118.78158281 -63.30297852 122.68920898 C-63.29716927 124.62499398 -63.32460435 126.56106181 -63.37890625 128.49609375 C-63.38502426 129.5217897 -63.39114227 130.54748566 -63.39744568 131.60426331 C-63.42439151 134.88300584 -63.49352027 138.15940045 -63.5625 141.4375 C-63.58402449 143.6412518 -63.60293503 145.84503079 -63.61914062 148.04882812 C-63.66124851 152.09335676 -63.70716977 156.13750415 -63.79125977 160.18139648 C-63.81507469 161.3990696 -63.81507469 161.3990696 -63.83937073 162.64134216 C-64.01103091 165.16197634 -64.45421604 167.53551513 -65 170 C-68.3914178 169.32986605 -71.0112775 168.02453945 -74.015625 166.33203125 C-75.0068335 165.77588135 -75.99804199 165.21973145 -77.01928711 164.64672852 C-78.08542236 164.04143311 -79.15155762 163.4361377 -80.25 162.8125 C-81.36318604 162.184646 -82.47637207 161.55679199 -83.62329102 160.90991211 C-93.10260671 155.54697604 -102.51428458 150.0700557 -111.91015625 144.5625 C-118.21570419 140.8678669 -124.54294436 137.21147319 -130.875 133.5625 C-131.95515381 132.93996338 -133.03530762 132.31742676 -134.14819336 131.67602539 C-136.33796334 130.41423174 -138.52782355 129.15259466 -140.71777344 127.89111328 C-146.14659942 124.76319852 -151.57319281 121.63141552 -157 118.5 C-159.16665583 117.24998121 -161.3333225 115.99998122 -163.5 114.75 C-170 111 -170 111 -176.5 107.25 C-177.57266113 106.63116943 -178.64532227 106.01233887 -179.75048828 105.37475586 C-181.91557071 104.12564482 -184.08060982 102.87645871 -186.24560547 101.62719727 C-191.68615706 98.48797691 -197.12747216 95.35009437 -202.5703125 92.21484375 C-204.75526908 90.95583458 -206.9401652 89.69672048 -209.125 88.4375 C-210.19177979 87.82269775 -211.25855957 87.20789551 -212.35766602 86.57446289 C-220.86660724 81.6654335 -229.35344203 76.71904363 -237.82275391 71.74194336 C-244.14947838 68.03600338 -250.54413531 64.47599443 -257 61 C-257.3671875 57.75 -257.3671875 57.75 -257 54 C-254.6328125 51.875 -254.6328125 51.875 -251.125 50 C-249.73803874 49.23220875 -248.35134028 48.46394265 -246.96484375 47.6953125 C-246.18093262 47.27282227 -245.39702148 46.85033203 -244.58935547 46.41503906 C-240.6729211 44.27477378 -236.82398883 42.02110568 -232.96533203 39.77880859 C-229.61593955 37.83343674 -226.26018575 35.89949717 -222.90234375 33.96875 C-221.7613623 33.31261719 -220.62038086 32.65648437 -219.44482422 31.98046875 C-218.30803223 31.32691406 -217.17124023 30.67335937 -216 30 C-212.67197732 28.08639904 -209.3442543 26.1722886 -206.01757812 24.25634766 C-203.85193442 23.00945208 -201.68527837 21.76431299 -199.51757812 20.52099609 C-194.18801615 17.45544115 -188.8953777 14.34442462 -183.65234375 11.1328125 C-182.64655273 10.52131348 -181.64076172 9.90981445 -180.60449219 9.27978516 C-178.70811583 8.12272258 -176.81895231 6.95372516 -174.93847656 5.77099609 C-174.09639648 5.25875488 -173.25431641 4.74651367 -172.38671875 4.21875 C-171.29170044 3.5371582 -171.29170044 3.5371582 -170.17456055 2.84179688 C-167.31123818 1.73337254 -165.90831342 2.06912884 -163 3 C-160.42651367 4.26831055 -160.42651367 4.26831055 -157.66796875 5.88671875 C-156.63494629 6.48798584 -155.60192383 7.08925293 -154.53759766 7.70874023 C-153.43206543 8.36173096 -152.3265332 9.01472168 -151.1875 9.6875 C-150.0191112 10.37054703 -148.85032203 11.05290961 -147.68115234 11.73461914 C-144.6876978 13.48197799 -141.69888235 15.2371069 -138.71124268 16.99438477 C-136.12130977 18.5163641 -133.52755101 20.03176717 -130.93359375 21.546875 C-129.97090576 22.10930908 -129.00821777 22.67174316 -128.01635742 23.2512207 C-126.08663919 24.37665884 -124.15580803 25.50019085 -122.22387695 26.62182617 C-117.26865322 29.49959372 -112.32744763 32.39674135 -107.41543579 35.34754944 C-104.86655703 36.87386768 -102.30792689 38.38332369 -99.74749756 39.89016724 C-98.50894476 40.62425977 -97.27465907 41.36560468 -96.04498291 42.11447144 C-94.33030764 43.15754746 -92.59900632 44.17314186 -90.8671875 45.1875 C-89.87831543 45.77917969 -88.88944336 46.37085938 -87.87060547 46.98046875 C-84.1165393 48.31377206 -82.57262926 47.6354254 -79 46 C-77.35577421 45.15205726 -75.73768465 44.25167158 -74.1484375 43.3046875 C-72.76978516 42.49064453 -72.76978516 42.49064453 -71.36328125 41.66015625 C-70.37714844 41.07105469 -69.39101562 40.48195312 -68.375 39.875 C-66.21686539 38.60034343 -64.05798044 37.3269566 -61.8984375 36.0546875 C-60.77018555 35.38920898 -59.64193359 34.72373047 -58.47949219 34.03808594 C-53.26868971 30.97680817 -48.01471697 27.99112087 -42.76199341 25.00256348 C-32.95897953 19.42470852 -23.18101425 13.80624568 -13.4375 8.125 C-12.42623047 7.53589844 -11.41496094 6.94679688 -10.37304688 6.33984375 C-6.862671 4.28867339 -3.3836562 2.2557708 0 0 Z " fill="#D9DEFE" transform="translate(282,99)"/>
<path d="M0 0 C0 3.63 0 7.26 0 11 C-5.28 13.97 -10.56 16.94 -16 20 C-15.97549019 21.90894043 -15.97549019 21.90894043 -15.95048523 23.85644531 C-15.80484397 35.86244584 -15.72781946 47.86719799 -15.71759319 59.87409973 C-15.71014046 66.04699392 -15.67870321 72.21780605 -15.59204102 78.39013672 C-15.50925647 84.34961899 -15.49001385 90.30626183 -15.51441383 96.26623535 C-15.51262483 98.53728369 -15.48811822 100.80843365 -15.44031334 103.07897949 C-15.09707138 120.39263413 -15.09707138 120.39263413 -18.24271965 124.70275688 C-21.70130019 127.84136959 -25.65529443 129.3543615 -30 131 C-32.17927094 132.2177069 -34.34241295 133.46520561 -36.48046875 134.75390625 C-38.71499702 136.02545846 -40.95071386 137.29492382 -43.1875 138.5625 C-45.65817597 139.96765477 -48.12788106 141.37451273 -50.59765625 142.78125 C-51.21775574 143.13417618 -51.83785522 143.48710236 -52.47674561 143.85072327 C-58.70638085 147.39784056 -64.9175022 150.97679664 -71.125 154.5625 C-72.18871826 155.17681885 -73.25243652 155.7911377 -74.34838867 156.42407227 C-76.49309587 157.66292223 -78.6377088 158.90193541 -80.78222656 160.14111328 C-87.25646062 163.88123605 -93.73333038 167.61679676 -100.2109375 171.35107422 C-105.25582611 174.2599974 -110.29904136 177.17169641 -115.33599854 180.09432983 C-117.11680001 181.1274294 -118.89815858 182.15956171 -120.6796875 183.19140625 C-122.91257083 184.48506088 -125.1444091 185.78052164 -127.375 187.078125 C-128.38820313 187.66464844 -129.40140625 188.25117188 -130.4453125 188.85546875 C-131.32719238 189.36746826 -132.20907227 189.87946777 -133.11767578 190.40698242 C-136.68725998 192.37983833 -140.35208643 194.17604321 -144 196 C-144 155.41 -144 114.82 -144 73 C-139.53308145 74.48897285 -136.14599898 75.86931765 -132.125 78.125 C-131.15820312 78.66382813 -130.19140625 79.20265625 -129.1953125 79.7578125 C-128.47085937 80.16773438 -127.74640625 80.57765625 -127 81 C-127.268125 79.845 -127.53625 78.69 -127.8125 77.5 C-127.76171875 75.25390625 -127.76171875 75.25390625 -127 73 C-123.84285054 70.1542065 -120.12123011 68.2937009 -116.39306641 66.30078125 C-112.58495716 64.23083572 -108.85295865 62.03152823 -105.10693359 59.85180664 C-101.72961545 57.88933802 -98.34456183 55.94087577 -94.95703125 53.99609375 C-88.29919259 50.17356442 -81.64894037 46.33798165 -75 42.5 C-72.83464059 41.25129311 -70.669276 40.00259522 -68.50390625 38.75390625 C-64.15503198 36.24521679 -59.80895644 33.73176879 -55.46484375 31.21484375 C-43.51079657 24.29431449 -31.52257432 17.44523425 -19.44506836 10.74194336 C-13.85306628 7.63131899 -8.33500801 4.43338963 -2.88085938 1.08618164 C-1 0 -1 0 0 0 Z " fill="#898DBE" transform="translate(487,217)"/>
<path d="M0 0 C7.26337909 3.94040717 14.49423356 7.93302561 21.6875 12 C22.67661377 12.55905029 23.66572754 13.11810059 24.68481445 13.6940918 C32.7180333 18.2474948 40.69742201 22.88924316 48.66479492 27.55664062 C57.00516665 32.43645261 65.39033371 37.23509597 73.78662109 42.01766968 C81.95051312 46.66908236 90.08265614 51.37122954 98.1875 56.125 C106.38457516 60.93081791 114.63697249 65.62522338 122.9375 70.25 C131.9290546 75.25995308 140.83876252 80.38090041 149.68994141 85.63378906 C164.65855435 94.48650075 179.72582241 103.16980983 194.84033203 111.77050781 C197.89570302 113.50992091 200.94793558 115.2547927 204 117 C203.67 119.97 203.34 122.94 203 126 C199 125 199 125 186 118 C186 158.26 186 198.52 186 240 C182.37193866 238.54877547 179.25771216 237.12455815 175.88671875 235.234375 C174.89873291 234.68144775 173.91074707 234.12852051 172.89282227 233.55883789 C171.30618774 232.66346313 171.30618774 232.66346313 169.6875 231.75 C168.57882568 231.12665771 167.47015137 230.50331543 166.32788086 229.86108398 C156.86059123 224.52126695 147.46700035 219.05876975 138.08984375 213.5625 C131.78429571 209.86786684 125.45704876 206.21148529 119.125 202.5625 C117.51238281 201.63304565 117.51238281 201.63304565 115.8671875 200.68481445 C113.68255042 199.42594017 111.4978169 198.16723324 109.31298828 196.90869141 C105.95685919 194.97514555 102.60134452 193.04053831 99.24609375 191.10546875 C98.1365332 190.46593262 97.02697266 189.82639648 95.88378906 189.16748047 C93.69265992 187.90247545 91.50316718 186.63463117 89.31542969 185.36376953 C84.29238274 182.4494764 79.25706162 179.57899085 74.14453125 176.82421875 C73.24984131 176.3334082 72.35515137 175.84259766 71.43334961 175.33691406 C69.77642797 174.43057998 68.10965344 173.54193965 66.43188477 172.67480469 C64.41969952 171.56293156 62.67256131 170.5772433 61 169 C60.5078125 165.69140625 60.5078125 165.69140625 61 163 C67.67416286 164.89886302 73.20204296 167.63459535 79.0625 171.3125 C80.80633861 172.3830644 82.55117726 173.4520011 84.296875 174.51953125 C85.21404297 175.08236816 86.13121094 175.64520508 87.07617188 176.22509766 C92.28154886 179.38500837 97.54814024 182.43972001 102.8125 185.5 C103.81998291 186.08692627 104.82746582 186.67385254 105.86547852 187.27856445 C110.89809167 190.20759185 115.94249021 193.11421923 121 196 C121.42318532 190.34501859 121.72979433 184.69935646 121.93383789 179.03222656 C122.01889252 177.11034708 122.13461127 175.1895544 122.2824707 173.27148438 C123.06948045 163.96683879 123.06948045 163.96683879 121 155 C116.85292332 150.51535161 111.28044891 148.08182833 105.6572113 145.92330933 C104 145 104 145 103 142 C107.53847198 143.34927545 111.31932246 145.19159348 115.375 147.625 C116.43460937 148.25664062 117.49421875 148.88828125 118.5859375 149.5390625 C119.78089844 150.26222656 119.78089844 150.26222656 121 151 C122.14292064 145.67305411 123.23383265 140.15854138 121 135 C116.18906625 130.38432541 109.80307846 127.7095058 103.74414062 125.09643555 C103.16857422 124.73461182 102.59300781 124.37278809 102 124 C102 123.01 102 122.02 102 121 C106.91393392 122.43638068 111.00392773 124.54318247 115.375 127.125 C118.654375 129.043125 118.654375 129.043125 122 131 C122 125.39 122 119.78 122 114 C120.35 113.34 118.7 112.68 117 112 C115.38188627 111.15106911 113.77694044 110.27647368 112.1875 109.375 C111.39730469 108.92898438 110.60710937 108.48296875 109.79296875 108.0234375 C109.20128906 107.68570313 108.60960937 107.34796875 108 107 C108 106.01 108 105.02 108 104 C111.80668057 105.04683716 114.91431851 106.4689702 118.21875 108.58203125 C118.92966797 109.03425049 119.64058594 109.48646973 120.37304688 109.95239258 C120.90994141 110.29810303 121.44683594 110.64381348 122 111 C122.96938664 104.02512098 123.71321911 96.64515065 121 90 C115.9658917 84.72518313 109.04135184 81.947209 102.43603516 79.11669922 C100.2740907 78.12564551 98.44666308 77.06052142 96.51171875 75.69140625 C94.08995808 73.72071792 94.08995808 73.72071792 91 74 C89.97956697 73.02085934 88.98328624 72.01643896 88 71 C86.30061914 69.93117751 84.56829957 68.91397461 82.81640625 67.93359375 C81.80642578 67.36576172 80.79644531 66.79792969 79.75585938 66.21289062 C78.70205078 65.62701172 77.64824219 65.04113281 76.5625 64.4375 C74.98758789 63.55288086 74.98758789 63.55288086 73.38085938 62.65039062 C68.16042852 59.60923358 68.16042852 59.60923358 62.66992188 57.13989258 C62.11884766 56.76372803 61.56777344 56.38756348 61 56 C60.79272461 53.65332031 60.79272461 53.65332031 60.96484375 50.828125 C60.74335159 47.14259157 60.57085193 45.56510465 57.91455078 42.93554688 C54.87220618 41.00935079 51.78380386 39.35950327 48.5625 37.75 C46.79715869 36.80295384 45.03184934 35.85584125 43.26861572 34.90487671 C41.42919651 33.91895566 39.58136115 32.95039349 37.73193359 31.98339844 C31.67744642 28.79462151 25.78771924 25.31695451 19.875 21.875 C18.26927124 20.95219238 18.26927124 20.95219238 16.63110352 20.01074219 C14.64179215 18.8671368 12.65668674 17.71616992 10.67675781 16.55639648 C8.96653622 15.56199091 7.24280747 14.59023654 5.50292969 13.64868164 C0.19241738 10.65902953 0.19241738 10.65902953 -0.78125 7.32421875 C-0.52083333 4.8828125 -0.26041667 2.44140625 0 0 Z " fill="#AEB4F0" transform="translate(157,172)"/>
<path d="M0 0 C4.16249619 1.26712911 7.71309564 2.82404657 11.44921875 5.046875 C12.46306641 5.645 13.47691406 6.243125 14.52148438 6.859375 C15.56626953 7.48328125 16.61105469 8.1071875 17.6875 8.75 C24.51580143 12.80148746 31.35974782 16.77965507 38.34594727 20.55322266 C42.64861079 22.89869079 46.88698234 25.35269517 51.125 27.8125 C51.97320312 28.30169922 52.82140625 28.79089844 53.6953125 29.29492188 C54.4996875 29.76091797 55.3040625 30.22691406 56.1328125 30.70703125 C56.85355957 31.1244458 57.57430664 31.54186035 58.31689453 31.97192383 C60 33 60 33 61 34 C61.08685603 35.56172745 61.10702219 37.12729344 61.09765625 38.69140625 C61.09282227 40.10776367 61.09282227 40.10776367 61.08789062 41.55273438 C61.07532227 43.04256836 61.07532227 43.04256836 61.0625 44.5625 C61.05798828 45.55958984 61.05347656 46.55667969 61.04882812 47.58398438 C61.03700007 50.05604849 61.02051849 52.52799518 61 55 C57.56068166 53.6926925 54.38699095 52.18963666 51.1875 50.375 C50.39730469 49.92898438 49.60710937 49.48296875 48.79296875 49.0234375 C48.20128906 48.68570313 47.60960937 48.34796875 47 48 C47 48.99 47 49.98 47 51 C47.639375 51.226875 48.27875 51.45375 48.9375 51.6875 C53.144195 53.49036929 57.0189271 55.74207806 61 58 C61 63.61 61 69.22 61 75 C54.25 72.75 54.25 72.75 51.3515625 71.0546875 C50.73925781 70.70019531 50.12695312 70.34570312 49.49609375 69.98046875 C48.87863281 69.61566406 48.26117188 69.25085938 47.625 68.875 C46.98433594 68.50246094 46.34367187 68.12992187 45.68359375 67.74609375 C44.11951523 66.83565998 42.55934466 65.91851809 41 65 C41 65.99 41 66.98 41 68 C41.67546875 68.24621094 42.3509375 68.49242187 43.046875 68.74609375 C46.6177622 70.26230379 49.89802797 72.11877348 53.25 74.0625 C53.88679688 74.42666016 54.52359375 74.79082031 55.1796875 75.16601562 C59.85925752 77.85925752 59.85925752 77.85925752 61 79 C61.07325168 81.86267567 61.09238205 84.700719 61.0625 87.5625 C61.05798828 88.36880859 61.05347656 89.17511719 61.04882812 90.00585938 C61.03700518 92.00393756 61.01906914 94.00197783 61 96 C54.56442169 92.82976438 48.17804317 89.65066187 42 86 C44.84433098 89.34619108 47.63990207 90.75044742 51.63987732 92.45301819 C55.27816461 94.13660114 58.40975461 95.88668984 61 99 C63.47714779 105.79869059 62.40485948 113.48509024 61.9375 120.5625 C61.86217853 122.54466956 61.79375112 124.52711381 61.73242188 126.50976562 C61.56784337 131.34666976 61.3096571 136.17030198 61 141 C53.91233259 137.16162046 46.86888351 133.25662695 39.875 129.25 C38.52257202 128.4772876 38.52257202 128.4772876 37.14282227 127.68896484 C32.83980461 125.22457475 28.54852998 122.74336516 24.28515625 120.2109375 C23.18034912 119.55496582 23.18034912 119.55496582 22.05322266 118.88574219 C20.71065503 118.08571689 19.37021625 117.28209944 18.03271484 116.47363281 C12.14111344 112.95794857 6.20269845 110.10134923 0 107 C0 98.09 0 89.18 0 80 C-1.65 79.34 -3.3 78.68 -5 78 C-6.45830768 77.16013694 -7.89769067 76.28623313 -9.3125 75.375 C-10.35857422 74.70597656 -10.35857422 74.70597656 -11.42578125 74.0234375 C-11.94527344 73.68570313 -12.46476563 73.34796875 -13 73 C-12.67 71.68 -12.34 70.36 -12 69 C-6.06 72.465 -6.06 72.465 0 76 C0 64.78 0 53.56 0 42 C-0.66 41.67 -1.32 41.34 -2 41 C-1.84152588 40.34749268 -1.68305176 39.69498535 -1.51977539 39.02270508 C-0.86737065 35.22870641 -0.76782648 31.4755131 -0.68359375 27.63671875 C-0.66281265 26.84473587 -0.64203156 26.05275299 -0.62062073 25.23677063 C-0.55552196 22.72043072 -0.49642577 20.20399128 -0.4375 17.6875 C-0.394277 15.97590139 -0.35066152 14.26431265 -0.30664062 12.55273438 C-0.19988153 8.36859016 -0.09850365 4.18434638 0 0 Z " fill="#ACB2EE" transform="translate(218,228)"/>
<path d="M0 0 C4.10897287 1.2576107 7.65406986 2.77976192 11.359375 4.94921875 C12.88908936 5.83879272 12.88908936 5.83879272 14.44970703 6.74633789 C15.53880371 7.38692139 16.62790039 8.02750488 17.75 8.6875 C18.9057488 9.36182715 20.06184266 10.03556318 21.21826172 10.70874023 C23.61980548 12.10729796 26.01984804 13.50838294 28.41894531 14.91113281 C33.97231834 18.15475891 39.55059311 21.35521464 45.125 24.5625 C53.39123048 29.3266771 61.63972757 34.12003649 69.875 38.9375 C78.55262241 44.01275123 87.26605568 49.02258767 96 54 C105.72115617 59.5400173 115.40894658 65.13374809 125.06689453 70.78344727 C135.56308664 76.92143409 146.09813338 82.9914769 156.63427734 89.06054688 C160.1489325 91.08582038 163.66255469 93.11287479 167.17578125 95.140625 C167.76593018 95.48122452 168.3560791 95.82182404 168.96411133 96.17274475 C171.79692756 97.80769907 174.62969 99.44274655 177.46240234 101.07788086 C178.47898926 101.66448486 179.49557617 102.25108887 180.54296875 102.85546875 C181.43008545 103.36746826 182.31720215 103.87946777 183.23120117 104.40698242 C186.48352348 106.27819334 189.74217509 108.13838577 193 110 C193 118.25 193 126.5 193 135 C186.88869636 131.94434818 181.00948905 128.94085017 175.1875 125.4375 C168.84714764 121.66658024 162.47334566 117.96229304 156.0625 114.3125 C144.79399425 107.89180584 133.56122874 101.40994484 122.33056641 94.92333984 C117.96730734 92.40363929 113.60297586 89.88580023 109.23852539 87.36816406 C107.07747941 86.12155088 104.91650949 84.87480584 102.75561523 83.62792969 C97.31467303 80.48843692 91.87293898 77.3503312 86.4296875 74.21484375 C72.9252231 66.43385306 59.44614274 58.61088105 45.98974609 50.74707031 C41.90958842 48.36281355 37.8293866 45.97866392 33.74462891 43.60229492 C31.72311252 42.41879894 29.70828195 41.22380058 27.70068359 40.0168457 C22.98032883 37.19788654 18.34526469 34.6433825 13.26953125 32.51953125 C2.95039278 27.97381941 2.95039278 27.97381941 0 24 C-2.20316892 16.19344262 -1.17668419 7.916655 0 0 Z " fill="#A46C43" transform="translate(25,160)"/>
<path d="M0 0 C6.18163604 1.62838399 11.31095843 4.94241683 16.75 8.1875 C18.91105633 9.46292098 21.072529 10.73763673 23.234375 12.01171875 C24.35005859 12.67091309 25.46574219 13.33010742 26.61523438 14.00927734 C32.0559192 17.20917233 37.52816652 20.35376781 43 23.5 C52.39995444 28.91171306 61.77214376 34.36896901 71.13232422 39.84912109 C79.21118251 44.56683015 87.34721191 49.17927854 95.51635742 53.73876953 C100.14174629 56.33125395 104.64373293 58.97521655 109 62 C108.67 63.32 108.34 64.64 108 66 C103.38 63.36 98.76 60.72 94 58 C93.67 63.94 93.34 69.88 93 76 C89.37193866 74.54877547 86.25771216 73.12455815 82.88671875 71.234375 C81.89833008 70.68120605 80.90994141 70.12803711 79.89160156 69.55810547 C78.83424805 68.96143066 77.77689453 68.36475586 76.6875 67.75 C75.58245117 67.12883301 74.47740234 66.50766602 73.33886719 65.86767578 C64.77605528 61.03877546 56.27240362 56.11170541 47.79125977 51.14086914 C40.92493155 47.11664539 34.03604158 43.13445143 27.125 39.1875 C26.23264648 38.67751465 25.34029297 38.1675293 24.42089844 37.64208984 C20.25193649 35.24390984 20.25193649 35.24390984 16 33 C16 26.07 16 19.14 16 12 C13.525 11.01 13.525 11.01 11 10 C9.04906292 8.98372238 7.11153494 7.94133262 5.1875 6.875 C3.72376953 6.06675781 3.72376953 6.06675781 2.23046875 5.2421875 C1.49441406 4.83226562 0.75835937 4.42234375 0 4 C0 2.68 0 1.36 0 0 Z " fill="#ABB1EB" transform="translate(67,218)"/>
<path d="M0 0 C4.90565988 1.41886778 9.04032118 3.61429376 13.375 6.25 C14.89414713 7.15819492 16.41370198 8.06570806 17.93359375 8.97265625 C18.74940918 9.46137207 19.56522461 9.95008789 20.40576172 10.45361328 C25.06416707 13.23041918 29.7516827 15.95729264 34.4375 18.6875 C35.44941406 19.27764893 36.46132812 19.86779785 37.50390625 20.47583008 C48.21730514 26.71889588 58.95983571 32.91120867 69.70458984 39.10009766 C73.00914988 41.00527518 76.31153479 42.91416988 79.61328125 44.82421875 C91.33394633 51.60178679 103.07553841 58.33733788 114.8815918 64.96533203 C115.77531494 65.46790527 116.66903809 65.97047852 117.58984375 66.48828125 C118.37222412 66.92696533 119.15460449 67.36564941 119.96069336 67.81762695 C121.67938968 68.8141128 123.34698156 69.8979877 125 71 C125.34057617 73.61376953 125.34057617 73.61376953 125.29296875 76.8828125 C125.28330078 78.04941406 125.27363281 79.21601563 125.26367188 80.41796875 C125.23853516 81.64128906 125.21339844 82.86460937 125.1875 84.125 C125.16719727 85.97158203 125.16719727 85.97158203 125.14648438 87.85546875 C125.11103543 90.90407843 125.06162079 93.951825 125 97 C122.36 95.68 119.72 94.36 117 93 C117.21785156 91.93523437 117.43570313 90.87046875 117.66015625 89.7734375 C118.26412027 84.83706115 118.36939004 80.48871506 116 76 C109.77771871 70.3616118 101.654775 67.05618182 94.12841797 63.5078125 C90.12544296 61.57848726 86.34989043 59.37885857 82.5625 57.0625 C81.2200823 56.26338264 79.87628091 55.46658607 78.53125 54.671875 C77.82226562 54.25228516 77.11328125 53.83269531 76.3828125 53.40039062 C68.10609691 48.53612417 59.76719347 43.77699325 51.44775391 38.98632812 C47.97840334 36.98755768 44.5103806 34.98650573 41.04296875 32.984375 C30.04194265 26.63271797 19.03719131 20.28863226 8 14 C8 18.95 8 23.9 8 29 C3 27 3 27 0 25 C-0.34057617 22.47802734 -0.34057617 22.47802734 -0.29296875 19.3359375 C-0.28330078 18.21445313 -0.27363281 17.09296875 -0.26367188 15.9375 C-0.23853516 14.761875 -0.21339844 13.58625 -0.1875 12.375 C-0.17396484 11.19164062 -0.16042969 10.00828125 -0.14648438 8.7890625 C-0.11103916 5.85892461 -0.06162769 2.92968541 0 0 Z " fill="#3B4A52" transform="translate(59,204)"/>
<path d="M0 0 C6.56239714 3.56764637 13.11306979 7.15347538 19.625 10.8125 C20.33011719 11.20630859 21.03523438 11.60011719 21.76171875 12.00585938 C26.88131868 14.88131868 26.88131868 14.88131868 28 16 C28.08874135 19.10251201 28.11518455 22.1826812 28.09765625 25.28515625 C28.0962413 26.21597519 28.09482635 27.14679413 28.09336853 28.1058197 C28.08775172 31.09141191 28.0751964 34.07693029 28.0625 37.0625 C28.05748716 39.08137913 28.05292388 41.10025943 28.04882812 43.11914062 C28.03777683 48.07945572 28.02050095 53.03971532 28 58 C24.37615895 56.11540217 20.77490393 54.20428631 17.19995117 52.22851562 C14.5576225 50.78105694 11.94236783 49.54060846 9.13793945 48.44335938 C5.21432229 46.6626889 2.80359591 45.29316644 0 42 C-2.09025896 35.09295377 -1.21709707 27.60070795 -0.8125 20.5 C-0.74723455 18.51320948 -0.68792863 16.52621369 -0.63476562 14.5390625 C-0.49202588 9.6876162 -0.268133 4.84606765 0 0 Z " fill="#384851" transform="translate(282,329)"/>
<path d="M0 0 C2.49780469 1.32712733 4.97044693 2.67985209 7.42602539 4.08447266 C10.04546526 5.55056614 12.7026766 6.72418123 15.47827148 7.86474609 C26.77913204 12.88423705 26.77913204 12.88423705 28.87823486 18.24133301 C30.12053572 24.68442071 29.55093382 31.12736656 29.0625 37.625 C28.97711879 39.60253902 28.89957048 41.58043265 28.83007812 43.55859375 C28.6436835 48.38122259 28.35125565 53.18668496 28 58 C25.50219531 56.67287267 23.02955307 55.32014791 20.57397461 53.91552734 C17.95453474 52.44943386 15.2973234 51.27581877 12.52172852 50.13525391 C1.22086796 45.11576295 1.22086796 45.11576295 -0.87823486 39.75866699 C-2.12053572 33.31557929 -1.55093382 26.87263344 -1.0625 20.375 C-0.97711879 18.39746098 -0.89957048 16.41956735 -0.83007812 14.44140625 C-0.6436835 9.61877741 -0.35125565 4.81331504 0 0 Z " fill="#384850" transform="translate(251,311)"/>
<path d="M0 0 C0.42307156 5.79742044 0.72975985 11.58575795 0.93383789 17.39501953 C1.01890833 19.36536076 1.13463722 21.33464125 1.2824707 23.30126953 C2.44152643 39.12699235 2.44152643 39.12699235 -1.54620361 43.81945801 C-5.56714507 47.05928914 -10.07582606 49.13016833 -14.82766724 51.08282471 C-17.88569829 52.3739485 -20.68183151 53.9772228 -23.5625 55.625 C-25.04001682 56.41974159 -26.51844007 57.21282129 -28 58 C-31.49999526 21.41648315 -31.49999526 21.41648315 -25.92138672 12.78320312 C-20.87130508 8.27310251 -15.04575463 5.75416692 -8.5871582 3.86743164 C-5.89177518 2.963714 -2.70341401 0 0 0 Z " fill="#273339" transform="translate(405,329)"/>
<path d="M0 0 C0.32281905 5.83442903 0.5578377 11.66361512 0.71411133 17.50488281 C0.77926353 19.48822571 0.86782452 21.47094928 0.98071289 23.45214844 C1.86797404 39.43087869 1.86797404 39.43087869 -1.1930542 43.64086914 C-4.64297221 46.72792872 -8.74097291 48.33691297 -13 50 C-14.45007983 50.81279885 -15.88664301 51.65112545 -17.296875 52.53125 C-19.00617188 53.50578125 -19.00617188 53.50578125 -20.75 54.5 C-21.35070312 54.84546875 -21.95140625 55.1909375 -22.5703125 55.546875 C-26.87301587 58 -26.87301587 58 -28 58 C-31.72448166 22.46939996 -31.72448166 22.46939996 -26.95941162 14.19250488 C-21.8676918 8.06752247 -13.94632477 5.15476732 -6.54370117 2.84570312 C-4.33525788 2.11146303 -2.17963749 0 0 0 Z " fill="#273239" transform="translate(436,311)"/>
<path d="M0 0 C0.72058594 0.41507813 1.44117187 0.83015625 2.18359375 1.2578125 C9.00033741 5.16946132 15.84181177 9.03262152 22.70703125 12.85864258 C34.18216545 19.25680811 45.56798312 25.78969574 56.90234375 32.43359375 C63.25046566 36.15334883 69.62359042 39.82900653 76 43.5 C84.30824733 48.28452556 92.59998734 53.09573728 100.875 57.9375 C109.55256873 63.01284192 118.2660566 68.02258819 127 73 C136.70291088 78.52961944 146.37412261 84.11016815 156.01196289 89.75268555 C161.40999679 92.91132674 166.81713532 96.05311985 172.23828125 99.171875 C172.84122009 99.51886948 173.44415894 99.86586395 174.06536865 100.22337341 C177.00536769 101.91489091 179.94653173 103.60431654 182.88916016 105.29125977 C183.93507324 105.89252686 184.98098633 106.49379395 186.05859375 107.11328125 C187.45549438 107.91439331 187.45549438 107.91439331 188.88061523 108.73168945 C191 110 191 110 192 111 C192.04063832 112.66617115 192.042721 114.33388095 192 116 C188.6085822 115.32986605 185.9887225 114.02453945 182.984375 112.33203125 C181.9931665 111.77588135 181.00195801 111.21973145 179.98071289 110.64672852 C178.91457764 110.04143311 177.84844238 109.4361377 176.75 108.8125 C175.08022095 107.87071899 175.08022095 107.87071899 173.37670898 106.90991211 C163.89739329 101.54697604 154.48571542 96.0700557 145.08984375 90.5625 C138.78429581 86.8678669 132.45705564 83.21147319 126.125 79.5625 C125.04484619 78.93996338 123.96469238 78.31742676 122.85180664 77.67602539 C120.66203666 76.41423174 118.47217645 75.15259466 116.28222656 73.89111328 C110.85340058 70.76319852 105.42680719 67.63141552 100 64.5 C97.83334417 63.24998121 95.6666775 61.99998122 93.5 60.75 C87 57 87 57 80.5 53.25 C79.42733887 52.63116943 78.35467773 52.01233887 77.24951172 51.37475586 C75.08442929 50.12564482 72.91939018 48.87645871 70.75439453 47.62719727 C65.31384294 44.48797691 59.87252784 41.35009437 54.4296875 38.21484375 C52.24473092 36.95583458 50.0598348 35.69672048 47.875 34.4375 C46.80822021 33.82269775 45.74144043 33.20789551 44.64233398 32.57446289 C36.13339276 27.6654335 27.64655797 22.71904363 19.17724609 17.74194336 C12.85052162 14.03600338 6.45586469 10.47599443 0 7 C0 4.69 0 2.38 0 0 Z " fill="#B1B6F2" transform="translate(25,153)"/>
<path d="M0 0 C3.78518732 1.4160506 7.19749321 3.15421065 10.69921875 5.16796875 C11.81248535 5.80613525 12.92575195 6.44430176 14.07275391 7.10180664 C15.27771682 7.79695534 16.4826309 8.4921887 17.6875 9.1875 C18.94434799 9.90968618 20.20134912 10.6316059 21.45849609 11.35327148 C24.68637148 13.20743067 27.91189349 15.06563953 31.13653564 16.92541504 C33.99525204 18.57392183 36.85518454 20.22031688 39.71484375 21.8671875 C45.07278109 24.95479176 50.42792501 28.04720933 55.78222656 31.14111328 C61.18670645 34.26324605 66.59347412 37.38141204 72 40.5 C74.1666775 41.74998122 76.33334417 42.99998121 78.5 44.25 C79.5725 44.86875 80.645 45.4875 81.75 46.125 C102.33333333 58 122.91666667 69.875 143.5 81.75 C144.57427246 82.3697168 145.64854492 82.98943359 146.75537109 83.62792969 C148.90432957 84.86782537 151.05309523 86.10805529 153.20166016 87.34863281 C158.27724766 90.27872574 163.35473735 93.20536409 168.43914795 96.12011719 C170.8404023 97.49696526 173.24055526 98.87572692 175.640625 100.25463867 C177.33486603 101.22696703 179.03069581 102.1965254 180.7265625 103.16601562 C181.75265625 103.75576172 182.77875 104.34550781 183.8359375 104.953125 C184.73876465 105.47036133 185.6415918 105.98759766 186.57177734 106.52050781 C188.83050883 107.8967307 190.91665478 109.37335316 193 111 C192.67 112.32 192.34 113.64 192 115 C181.96269207 109.2783879 171.92897873 103.55136158 161.9375 97.75 C154.68448315 93.53907026 147.40652177 89.37278384 140.12088013 85.21862793 C129.7398528 79.29942596 119.39164655 73.32821902 109.0793457 67.28979492 C101.41509046 62.80879287 93.71348953 58.39540804 86 54 C71.05006639 45.47937089 56.17727061 36.82915139 41.35839844 28.08251953 C40.68325195 27.68403809 40.00810547 27.28555664 39.3125 26.875 C38.65282227 26.48554199 37.99314453 26.09608398 37.31347656 25.69482422 C30.7399711 21.82552839 24.11401134 18.04862663 17.47973633 14.28466797 C15.82338434 13.34302001 14.17006995 12.39600644 12.52001953 11.44335938 C10.74082931 10.42431534 8.94872663 9.42765805 7.14794922 8.44726562 C6.23158691 7.93357422 5.31522461 7.41988281 4.37109375 6.890625 C3.53376709 6.43204102 2.69644043 5.97345703 1.83374023 5.50097656 C1.22860596 5.0056543 0.62347168 4.51033203 0 4 C0 2.68 0 1.36 0 0 Z " fill="#AFB0E7" transform="translate(25,180)"/>
<path d="M0 0 C3.65116095 1.36610577 6.91513966 3.01504892 10.265625 5.00390625 C11.23757813 5.57947266 12.20953125 6.15503906 13.2109375 6.74804688 C14.21382813 7.34681641 15.21671875 7.94558594 16.25 8.5625 C17.77753906 9.46645508 17.77753906 9.46645508 19.3359375 10.38867188 C26.85498768 14.85498768 26.85498768 14.85498768 28 16 C28.08685603 17.56172745 28.10702219 19.12729344 28.09765625 20.69140625 C28.09443359 21.63564453 28.09121094 22.57988281 28.08789062 23.55273438 C28.07951172 24.54595703 28.07113281 25.53917969 28.0625 26.5625 C28.05798828 27.55958984 28.05347656 28.55667969 28.04882812 29.58398438 C28.03700007 32.05604849 28.02051849 34.52799518 28 37 C24.59437331 35.41328757 21.25931889 33.72142046 17.93554688 31.97021484 C15.86833096 30.9339994 13.76312383 30.03032395 11.640625 29.11328125 C2.91409564 24.97743054 2.91409564 24.97743054 0 21 C-1.91530892 14.18632831 -0.99252619 6.91523535 0 0 Z " fill="#3B4A54" transform="translate(282,264)"/>
<path d="M0 0 C3.40562669 1.58671243 6.74068111 3.27857954 10.06445312 5.02978516 C12.13166904 6.0660006 14.23687617 6.96967605 16.359375 7.88671875 C25.08590436 12.02256946 25.08590436 12.02256946 28 16 C29.91530892 22.81367169 28.99252619 30.08476465 28 37 C24.34883905 35.63389423 21.08486034 33.98495108 17.734375 31.99609375 C16.76242187 31.42052734 15.79046875 30.84496094 14.7890625 30.25195312 C13.78617187 29.65318359 12.78328125 29.05441406 11.75 28.4375 C10.73164063 27.83486328 9.71328125 27.23222656 8.6640625 26.61132812 C1.14501232 22.14501232 1.14501232 22.14501232 0 21 C-0.08685603 19.43827255 -0.10702219 17.87270656 -0.09765625 16.30859375 C-0.09443359 15.36435547 -0.09121094 14.42011719 -0.08789062 13.44726562 C-0.07951172 12.45404297 -0.07113281 11.46082031 -0.0625 10.4375 C-0.05798828 9.44041016 -0.05347656 8.44332031 -0.04882812 7.41601562 C-0.03700007 4.94395151 -0.02051849 2.47200482 0 0 Z " fill="#3B4A54" transform="translate(251,246)"/>
<path d="M0 0 C2.80730165 1.3330762 5.57805246 2.70728731 8.33203125 4.1484375 C10.88647885 5.48137559 13.46077888 6.5981745 16.13671875 7.6640625 C24.31465085 11.2595824 24.31465085 11.2595824 27 15 C28.82211136 21.81769951 27.9217504 29.08829011 27 36 C6.3641147 27.852972 6.3641147 27.852972 0 21 C-2.57373595 14.26812196 -1.40135492 6.9097577 0 0 Z " fill="#3A4A53" transform="translate(221,229)"/>
<path d="M0 0 C3.32634031 1.33053613 6.20030237 2.56738862 9.28515625 4.27734375 C10.06310547 4.70853516 10.84105469 5.13972656 11.64257812 5.58398438 C12.84043945 6.25397461 12.84043945 6.25397461 14.0625 6.9375 C14.86494141 7.38029297 15.66738281 7.82308594 16.49414062 8.27929688 C17.27080078 8.71177734 18.04746094 9.14425781 18.84765625 9.58984375 C19.54898682 9.98034912 20.25031738 10.37085449 20.97290039 10.77319336 C21.64184326 11.17803955 22.31078613 11.58288574 23 12 C23.73758545 12.4439209 24.4751709 12.8878418 25.23510742 13.34521484 C27 15 27 15 27.45410156 17.26831055 C27.42268066 18.56442261 27.42268066 18.56442261 27.390625 19.88671875 C27.37128906 21.2934082 27.37128906 21.2934082 27.3515625 22.72851562 C27.31804687 23.70498047 27.28453125 24.68144531 27.25 25.6875 C27.23195312 26.67556641 27.21390625 27.66363281 27.1953125 28.68164062 C27.14815447 31.12206842 27.08236042 33.56054769 27 36 C26.14019531 35.50371094 25.28039062 35.00742187 24.39453125 34.49609375 C16.3328912 29.85795279 8.20662458 25.37686644 0 21 C0 14.07 0 7.14 0 0 Z " fill="#3A4A53" transform="translate(221,315)"/>
<path d="M0 0 C0 6.93 0 13.86 0 21 C-3.5235263 22.97592828 -7.04720601 24.95157891 -10.57128906 26.92651367 C-11.7702747 27.59854934 -12.9691685 28.27074892 -14.16796875 28.94311523 C-15.89038362 29.90912192 -17.61315558 30.87449181 -19.3359375 31.83984375 C-20.37282715 32.42113037 -21.4097168 33.00241699 -22.47802734 33.60131836 C-23.97017299 34.42885974 -25.47387461 35.23693731 -27 36 C-27.79291871 29.07861727 -28.60021858 21.84776971 -27 15 C-23.37293745 10.70253252 -19.12967191 9.09973845 -14 7 C-11.72001016 5.73958976 -9.53022839 4.37095937 -7.3125 3 C-2.25669643 0 -2.25669643 0 0 0 Z " fill="#28343B" transform="translate(466,315)"/>
<path d="M0 0 C6.75149471 2.25049824 6.75149471 2.25049824 10.19921875 4.3125 C10.93333984 4.74820312 11.66746094 5.18390625 12.42382812 5.6328125 C13.17083984 6.08398438 13.91785156 6.53515625 14.6875 7 C15.82541992 7.67675781 15.82541992 7.67675781 16.98632812 8.3671875 C20.03777217 10.1878196 23.04257051 12.02838034 26 14 C26.34057617 16.15478516 26.34057617 16.15478516 26.29296875 18.7890625 C26.28330078 19.73007812 26.27363281 20.67109375 26.26367188 21.640625 C26.23853516 22.62546875 26.21339844 23.6103125 26.1875 24.625 C26.16719727 26.11386719 26.16719727 26.11386719 26.14648438 27.6328125 C26.11105743 30.08908072 26.06166196 32.54427285 26 35 C22.444218 33.65788025 19.20894833 32.07755303 15.91796875 30.1796875 C14.98662109 29.64472656 14.05527344 29.10976563 13.09570312 28.55859375 C12.13599609 28.00300781 11.17628906 27.44742187 10.1875 26.875 C9.20845703 26.31167969 8.22941406 25.74835938 7.22070312 25.16796875 C4.81211965 23.78156461 2.40583311 22.3911714 0 21 C0 14.07 0 7.14 0 0 Z " fill="#384851" transform="translate(314,283)"/>
<path d="M0 0 C6.24882258 3.36671257 12.45720251 6.79986217 18.625 10.3125 C19.24068848 10.66183594 19.85637695 11.01117188 20.49072266 11.37109375 C24.87990141 13.87990141 24.87990141 13.87990141 26 15 C26.08685603 16.56172745 26.10702219 18.12729344 26.09765625 19.69140625 C26.09443359 20.63564453 26.09121094 21.57988281 26.08789062 22.55273438 C26.07951172 23.54595703 26.07113281 24.53917969 26.0625 25.5625 C26.05798828 26.55958984 26.05347656 27.55667969 26.04882812 28.58398438 C26.03700007 31.05604849 26.02051849 33.52799518 26 36 C22.33257676 34.09452369 18.687302 32.16363301 15.0703125 30.1640625 C12.56844387 28.79138704 10.2285875 27.6973824 7.5546875 26.6484375 C4.05132209 25.08427174 2.25705107 24.13785149 0 21 C-1.33145111 14.10274039 -0.66746752 6.94632982 0 0 Z " fill="#384850" transform="translate(314,368)"/>
<path d="M0 0 C0.79554966 6.59035224 1.58716004 13.4847975 0 20 C-3.644014 24.21968762 -7.92523414 25.87655454 -13 28 C-15.29756551 29.26429223 -17.51135296 30.6304431 -19.75 32 C-24.86607143 35 -24.86607143 35 -26 35 C-27.3998937 28.09744723 -28.59730466 20.71788676 -26 14 C-20.11796289 7.76552678 -11.75165208 4.35944235 -4 1 C-2 0 -2 0 0 0 Z " fill="#273239" transform="translate(373,369)"/>
<path d="M0 0 C3.65116095 1.36610577 6.91513966 3.01504892 10.265625 5.00390625 C11.23757813 5.57947266 12.20953125 6.15503906 13.2109375 6.74804688 C14.21382813 7.34681641 15.21671875 7.94558594 16.25 8.5625 C17.77753906 9.46645508 17.77753906 9.46645508 19.3359375 10.38867188 C26.85498768 14.85498768 26.85498768 14.85498768 28 16 C28.07325168 18.86267567 28.09238205 21.700719 28.0625 24.5625 C28.05798828 25.36880859 28.05347656 26.17511719 28.04882812 27.00585938 C28.03700518 29.00393756 28.01906914 31.00197783 28 33 C24.59773101 31.41485195 21.25766919 29.73452232 17.93554688 27.98779297 C16.59067873 27.30144881 15.23111013 26.64346682 13.86132812 26.00830078 C3.34313798 21.10304983 3.34313798 21.10304983 0 17 C-1.84937668 11.45058922 -0.94455749 5.6542261 0 0 Z " fill="#3B4A54" transform="translate(251,291)"/>
<path d="M0 0 C3.65116095 1.36610577 6.91513966 3.01504892 10.265625 5.00390625 C11.23757813 5.57947266 12.20953125 6.15503906 13.2109375 6.74804688 C14.21382813 7.34681641 15.21671875 7.94558594 16.25 8.5625 C17.77753906 9.46645508 17.77753906 9.46645508 19.3359375 10.38867188 C26.85498768 14.85498768 26.85498768 14.85498768 28 16 C28.07325168 18.86267567 28.09238205 21.700719 28.0625 24.5625 C28.05798828 25.36880859 28.05347656 26.17511719 28.04882812 27.00585938 C28.03700518 29.00393756 28.01906914 31.00197783 28 33 C21.42810062 29.44950351 14.89106867 25.83927436 8.375 22.1875 C7.30862305 21.59207397 7.30862305 21.59207397 6.22070312 20.98461914 C1.11744741 18.11744741 1.11744741 18.11744741 0 17 C-0.07325168 14.13732433 -0.09238205 11.299281 -0.0625 8.4375 C-0.05798828 7.63119141 -0.05347656 6.82488281 -0.04882812 5.99414062 C-0.03700518 3.99606244 -0.01906914 1.99802217 0 0 Z " fill="#3A4A54" transform="translate(282,309)"/>
<path d="M0 0 C0.66 0 1.32 0 2 0 C3.52436229 11.465289 3.52436229 11.465289 2 17 C-1.19338084 20.49454522 -4.75780466 22.22597445 -9.06542969 24.10986328 C-12.43201677 25.6589012 -15.56581636 27.61143542 -18.75 29.5 C-24.80617978 33 -24.80617978 33 -26 33 C-27.35168071 18.01470025 -27.35168071 18.01470025 -24.55859375 13.8515625 C-22.12691917 12.25505509 -19.67017393 11.16138943 -17 10 C-14.87867825 8.84676665 -12.78671974 7.64847934 -10.69335938 6.4453125 C-8.56770263 5.22632502 -6.42718287 4.03829874 -4.28125 2.85546875 C-1.23907264 1.32822427 -1.23907264 1.32822427 0 0 Z " fill="#29343C" transform="translate(403,309)"/>
<path d="M0 0 C5.40193032 1.51527998 9.804968 4.0580505 14.5625 6.9375 C15.6752832 7.60168945 15.6752832 7.60168945 16.81054688 8.27929688 C18.24402918 9.13581212 19.67138174 10.00269346 21.09155273 10.88110352 C23.1300856 12.1315807 23.1300856 12.1315807 26.0078125 13.2734375 C28 15 28 15 28.37963867 16.8215332 C28.49427005 19.13245019 28.43568756 21.37725945 28.3125 23.6875 C28.28994141 24.48478516 28.26738281 25.28207031 28.24414062 26.10351562 C28.18526944 28.06981334 28.09558755 30.03514491 28 32 C18.22549431 28.88911523 7.36766621 24.31882751 0 17 C-2.47355394 11.45828781 -1.35586613 5.7179203 0 0 Z " fill="#3A4A54" transform="translate(251,271)"/>
<path d="M0 0 C9.77450569 3.11088477 20.63233379 7.68117249 28 15 C30.47355394 20.54171219 29.35586613 26.2820797 28 32 C23.03808061 30.22931506 18.57621635 27.6366217 14 25.0625 C13.2059375 24.61970703 12.411875 24.17691406 11.59375 23.72070312 C10.06240521 22.86442616 8.53691776 21.99756551 7.01831055 21.11889648 C4.87396649 19.88191724 4.87396649 19.88191724 1.95703125 18.7265625 C0 17 0 17 -0.37744141 15.1784668 C-0.49440982 12.86718125 -0.43571267 10.62321143 -0.3125 8.3125 C-0.28994141 7.51521484 -0.26738281 6.71792969 -0.24414062 5.89648438 C-0.18526944 3.93018666 -0.09558755 1.96485509 0 0 Z " fill="#3A4A54" transform="translate(282,289)"/>
<path d="M0 0 C1.52436229 11.465289 1.52436229 11.465289 0 17 C-3.19338084 20.49454522 -6.75780466 22.22597445 -11.06542969 24.10986328 C-14.43201677 25.6589012 -17.56581636 27.61143542 -20.75 29.5 C-26.80617978 33 -26.80617978 33 -28 33 C-29.52436229 21.534711 -29.52436229 21.534711 -28 16 C-24.80661916 12.50545478 -21.24219534 10.77402555 -16.93457031 8.89013672 C-13.56798323 7.3410988 -10.43418364 5.38856458 -7.25 3.5 C-1.19382022 0 -1.19382022 0 0 0 Z " fill="#29343C" transform="translate(436,291)"/>
<path d="M0 0 C0 5.61 0 11.22 0 17 C-3.66392868 19.14026432 -7.32917583 21.27781511 -10.99853516 23.40869141 C-12.24683697 24.1346749 -13.49423865 24.86220842 -14.74072266 25.59130859 C-16.5305426 26.63786202 -18.32350512 27.67883383 -20.1171875 28.71875 C-21.19597168 29.34716797 -22.27475586 29.97558594 -23.38623047 30.62304688 C-26 32 -26 32 -28 32 C-28 26.39 -28 20.78 -28 15 C-24.33607132 12.85973568 -20.67082417 10.72218489 -17.00146484 8.59130859 C-15.75316303 7.8653251 -14.50576135 7.13779158 -13.25927734 6.40869141 C-11.4694574 5.36213798 -9.67649488 4.32116617 -7.8828125 3.28125 C-6.80402832 2.65283203 -5.72524414 2.02441406 -4.61376953 1.37695312 C-2 0 -2 0 0 0 Z " fill="#29343C" transform="translate(405,289)"/>
<path d="M0 0 C0 5.61 0 11.22 0 17 C-3.66392868 19.14026432 -7.32917583 21.27781511 -10.99853516 23.40869141 C-12.24683697 24.1346749 -13.49423865 24.86220842 -14.74072266 25.59130859 C-16.5305426 26.63786202 -18.32350512 27.67883383 -20.1171875 28.71875 C-21.19597168 29.34716797 -22.27475586 29.97558594 -23.38623047 30.62304688 C-26 32 -26 32 -28 32 C-28 26.39 -28 20.78 -28 15 C-24.33607132 12.85973568 -20.67082417 10.72218489 -17.00146484 8.59130859 C-15.75316303 7.8653251 -14.50576135 7.13779158 -13.25927734 6.40869141 C-11.4694574 5.36213798 -9.67649488 4.32116617 -7.8828125 3.28125 C-6.80402832 2.65283203 -5.72524414 2.02441406 -4.61376953 1.37695312 C-2 0 -2 0 0 0 Z " fill="#29343C" transform="translate(436,271)"/>
<path d="M0 0 C3.53761923 1.33747942 6.76744207 2.90437839 10.046875 4.78515625 C11.43712891 5.58083008 11.43712891 5.58083008 12.85546875 6.39257812 C13.81066406 6.94365234 14.76585937 7.49472656 15.75 8.0625 C17.20599609 8.89491211 17.20599609 8.89491211 18.69140625 9.74414062 C25.85956743 13.85956743 25.85956743 13.85956743 27 15 C27.07325168 17.86267567 27.09238205 20.700719 27.0625 23.5625 C27.05798828 24.36880859 27.05347656 25.17511719 27.04882812 26.00585938 C27.03700518 28.00393756 27.01906914 30.00197783 27 32 C2.41841402 22.39483452 2.41841402 22.39483452 -1.02001953 14.72460938 C-1.92155952 9.66428529 -1.17529829 4.95643473 0 0 Z " fill="#3B4A54" transform="translate(221,274)"/>
<path d="M0 0 C9.05538181 4.90499848 18.03022122 9.94012479 27 15 C27 20.94 27 26.88 27 33 C24.958125 31.824375 22.91625 30.64875 20.8125 29.4375 C13.94083094 25.49647977 6.98955771 21.72776411 0 18 C0 12.06 0 6.12 0 0 Z " fill="#3B4A54" transform="translate(221,253)"/>
<path d="M0 0 C2.24427711 1.04769693 4.44870722 2.14203754 6.64453125 3.2890625 C9.22856074 4.60664681 11.79897011 5.7931454 14.44921875 6.9609375 C26.09148658 12.46968231 26.09148658 12.46968231 27.76123047 17.12011719 C28.48047595 22.17514114 27.88712614 27.00194295 27 32 C21.58762192 30.47937949 17.15144495 27.93583016 12.375 25.0625 C11.62476563 24.61970703 10.87453125 24.17691406 10.1015625 23.72070312 C8.66778373 22.86780813 7.24206701 22.00116196 5.82617188 21.11889648 C3.9185582 19.91671047 3.9185582 19.91671047 1.4921875 18.7265625 C-1.09558518 15.73233338 -0.41188039 12.10734983 -0.25 8.3125 C-0.23195312 7.51521484 -0.21390625 6.71792969 -0.1953125 5.89648438 C-0.14822247 3.93047551 -0.07647899 1.96508506 0 0 Z " fill="#3A4A54" transform="translate(221,294)"/>
<path d="M0 0 C1.59049533 5.77526526 2.7522834 11.42911313 0 17 C-5.6169227 22.28278433 -19.01575965 32 -27 32 C-28.77914555 20.52121651 -28.77914555 20.52121651 -27 15 C-23.66956457 10.95634283 -18.63036844 8.97033999 -13.93701172 6.89355469 C-11.20752884 5.63442848 -8.71947548 4.05112314 -6.1875 2.4375 C-2.24390244 0 -2.24390244 0 0 0 Z " fill="#29343C" transform="translate(466,274)"/>
<path d="M0 0 C0.33 0 0.66 0 1 0 C1 5.94 1 11.88 1 18 C-8 23 -17 28 -26 33 C-26 27.06 -26 21.12 -26 15 C-23.31037109 13.50146484 -23.31037109 13.50146484 -20.56640625 11.97265625 C-18.83546327 11.00638688 -17.10452677 10.04010584 -15.3737793 9.07348633 C-14.16838663 8.40068258 -12.96265835 7.72847976 -11.7565918 7.05688477 C-10.02565339 6.09288084 -8.29600957 5.12655352 -6.56640625 4.16015625 C-5.52427979 3.57886963 -4.48215332 2.99758301 -3.40844727 2.39868164 C-1.12440597 1.20986135 -1.12440597 1.20986135 0 0 Z " fill="#29343C" transform="translate(465,253)"/>
<path d="M0 0 C1.35168071 14.98529975 1.35168071 14.98529975 -1.44140625 19.1484375 C-3.87157392 20.74395555 -6.33344405 21.8352974 -9 23 C-10.37197152 23.76322949 -11.734647 24.54330462 -13.08984375 25.3359375 C-24.48754695 32 -24.48754695 32 -27 32 C-27 26.39 -27 20.78 -27 15 C-23.31664514 12.86177051 -19.63259141 10.72485849 -15.9465332 8.59130859 C-14.6918514 7.86454591 -13.43761819 7.13700823 -12.18383789 6.40869141 C-10.38544171 5.36418631 -8.58547009 4.32244544 -6.78515625 3.28125 C-5.70113525 2.65283203 -4.61711426 2.02441406 -3.50024414 1.37695312 C-1 0 -1 0 0 0 Z " fill="#29343C" transform="translate(466,294)"/>
<path d="M0 0 C3.555782 1.34211975 6.79105167 2.92244697 10.08203125 4.8203125 C11.01337891 5.35527344 11.94472656 5.89023437 12.90429688 6.44140625 C13.86400391 6.99699219 14.82371094 7.55257813 15.8125 8.125 C16.79154297 8.68832031 17.77058594 9.25164062 18.77929688 9.83203125 C21.18788035 11.21843539 23.59416689 12.6088286 26 14 C26 19.61 26 25.22 26 31 C16.92623465 27.97541155 6.74891996 24.05440483 0 17 C-2.28595364 11.4693497 -1.21296175 5.68744289 0 0 Z " fill="#384851" transform="translate(314,348)"/>
<path d="M0 0 C0.87333859 5.63465118 1.77173055 11.46530192 0 17 C-3.29733377 21.05328359 -8.32057799 23.0508371 -13.00683594 25.10644531 C-15.91861839 26.41182549 -18.66287182 27.99045218 -21.4375 29.5625 C-23.6959375 30.7690625 -23.6959375 30.7690625 -26 32 C-26 26.06 -26 20.12 -26 14 C-22.45901534 12.00421857 -18.91735241 10.00972833 -15.3737793 8.01855469 C-14.16761975 7.340283 -12.96188912 6.661248 -11.7565918 5.98144531 C-10.0276508 5.00647324 -8.2970538 4.0344396 -6.56640625 3.0625 C-5.52427979 2.47597656 -4.48215332 1.88945312 -3.40844727 1.28515625 C-1 0 -1 0 0 0 Z " fill="#27333A" transform="translate(373,348)"/>
<path d="M0 0 C9.07376535 3.02458845 19.25108004 6.94559517 26 14 C28.28595364 19.5306503 27.21296175 25.31255711 26 31 C22.444218 29.65788025 19.20894833 28.07755303 15.91796875 26.1796875 C14.98662109 25.64472656 14.05527344 25.10976563 13.09570312 24.55859375 C12.13599609 24.00300781 11.17628906 23.44742187 10.1875 22.875 C9.20845703 22.31167969 8.22941406 21.74835938 7.22070312 21.16796875 C4.81211965 19.78156461 2.40583311 18.3911714 0 17 C0 11.39 0 5.78 0 0 Z " fill="#384851" transform="translate(314,328)"/>
<path d="M0 0 C21.16573034 10.16573034 21.16573034 10.16573034 26 15 C26.07325168 17.86267567 26.09238205 20.700719 26.0625 23.5625 C26.05798828 24.36880859 26.05347656 25.17511719 26.04882812 26.00585938 C26.03700518 28.00393756 26.01906914 30.00197783 26 32 C19.75117742 28.63328743 13.54279749 25.20013783 7.375 21.6875 C6.75931152 21.33816406 6.14362305 20.98882812 5.50927734 20.62890625 C1.12009859 18.12009859 1.12009859 18.12009859 0 17 C-0.07325168 14.13732433 -0.09238205 11.299281 -0.0625 8.4375 C-0.05798828 7.63119141 -0.05347656 6.82488281 -0.04882812 5.99414062 C-0.03700518 3.99606244 -0.01906914 1.99802217 0 0 Z " fill="#384851" transform="translate(314,307)"/>
<path d="M0 0 C1.50278571 5.74676387 2.68196633 11.45610856 0 17 C-5.77157606 22.41373349 -17.80651014 31 -26 31 C-27.00094432 25.36069276 -28.00850187 19.51008299 -26 14 C-22.06068702 9.63905936 -16.45719131 7.32700025 -11.16357422 4.99365234 C-9.04477374 4.02056298 -7.07129234 2.92603461 -5.06640625 1.73828125 C-2 0 -2 0 0 0 Z " fill="#273339" transform="translate(373,328)"/>
<path d="M0 0 C1.53107254 11.51575925 1.53107254 11.51575925 0 17 C-3.24171668 20.49265526 -6.81929522 22.26440925 -11.16015625 24.15722656 C-14.17030655 25.53607991 -16.92186624 27.28000519 -19.75 29 C-24.86607143 32 -24.86607143 32 -26 32 C-27.35168071 17.01470025 -27.35168071 17.01470025 -24.55859375 12.8515625 C-22.12783509 11.25565643 -19.66785816 10.16378507 -17 9 C-14.87902237 7.82969725 -12.78787007 6.61343822 -10.69335938 5.39648438 C-1.38421659 0 -1.38421659 0 0 0 Z " fill="#273339" transform="translate(373,307)"/>
<path d="M0 0 C0.75849637 3.88075131 0.97383184 7.14380553 0 11 C-3.46135901 14.4651694 -7.53300124 16.48692968 -11.875 18.6875 C-13.00292969 19.30560547 -14.13085938 19.92371094 -15.29296875 20.56054688 C-23.50325305 25 -23.50325305 25 -26 25 C-26.0868329 21.541824 -26.14033282 18.08392656 -26.1875 14.625 C-26.21263672 13.64015625 -26.23777344 12.6553125 -26.26367188 11.640625 C-26.27333984 10.69960938 -26.28300781 9.75859375 -26.29296875 8.7890625 C-26.3086792 7.91975098 -26.32438965 7.05043945 -26.34057617 6.15478516 C-26.22818604 5.44370605 -26.1157959 4.73262695 -26 4 C-23 2 -23 2 -20 2.25 C-17 3 -17 3 -14 5 C-8.69329142 4.70518286 -4.95539821 0 0 0 Z " fill="#28333A" transform="translate(373,293)"/>
<path d="M0 0 C17.49100975 8.68704272 17.49100975 8.68704272 21 12 C21.90100626 15.19170014 21.72163886 17.78542691 21 21 C16.69235185 19.43358249 12.93828536 17.31663844 9 15 C8.67 19.95 8.34 24.9 8 30 C3 28 3 28 0 26 C-0.34057617 23.38623047 -0.34057617 23.38623047 -0.29296875 20.1171875 C-0.2784668 18.36728516 -0.2784668 18.36728516 -0.26367188 16.58203125 C-0.23853516 15.35871094 -0.21339844 14.13539063 -0.1875 12.875 C-0.17396484 11.64394531 -0.16042969 10.41289062 -0.14648438 9.14453125 C-0.11103543 6.09592157 -0.06162079 3.048175 0 0 Z " fill="#3B484F" transform="translate(197,283)"/>
<path d="M0 0 C0.54703967 3.79550984 0.7153999 7.21784906 0 11 C-2.40437177 13.9319978 -5.66908706 15.28041619 -9 17 C-10.4428979 17.8515967 -11.87996222 18.71311999 -13.3125 19.58203125 C-16.33472358 21.40920617 -19.35691226 23.23513379 -22.40234375 25.0234375 C-23.04679443 25.40419434 -23.69124512 25.78495117 -24.35522461 26.17724609 C-26 27 -26 27 -28 27 C-29.00280047 23.02593887 -29.23857642 19.93999825 -28 16 C-24.02671354 12.61180258 -19.6928142 10.35726265 -15.03613281 8.03759766 C-11.97640439 6.47838353 -9.06803981 4.70686972 -6.125 2.9375 C-1.1292517 0 -1.1292517 0 0 0 Z " fill="#2A353D" transform="translate(436,256)"/>
<path d="M0 0 C0.84137619 3.91203974 1.06500888 7.11554732 0 11 C-3.30858158 14.07187005 -7.05824963 16.0178943 -11.06542969 18.01318359 C-13.72987397 19.37230573 -16.29311505 20.8870861 -18.87255859 22.3996582 C-26.72182161 27 -26.72182161 27 -28 27 C-28.84143874 23.08766947 -29.06996502 19.88376725 -28 16 C-24.66285094 12.94629469 -20.89061834 11.00224806 -16.8828125 8.98681641 C-13.7453792 7.34243033 -10.79515684 5.40651459 -7.8125 3.5 C-2.24615385 0 -2.24615385 0 0 0 Z " fill="#2A353D" transform="translate(405,274)"/>
<path d="M0 0 C0.66960336 3.84575967 0.87907809 7.17604257 0 11 C-3.07205036 14.24612565 -6.72676577 16.06099902 -10.6875 18.0625 C-11.69490234 18.61615234 -12.70230469 19.16980469 -13.74023438 19.74023438 C-18.07728719 22.09627033 -22.39107494 24.22709705 -27 26 C-28.17403488 21.9637755 -28.41294486 18.99661546 -27 15 C-22.75877338 11.04152182 -17.24822849 8.58970097 -12.09033203 6.04101562 C-9.50105301 4.75151717 -7.00290881 3.32383827 -4.5 1.875 C-1 0 -1 0 0 0 Z " fill="#29353D" transform="translate(466,239)"/>
<path d="M0 0 C3.96 1.98 3.96 1.98 8 4 C8 12.58 8 21.16 8 30 C5.36 28.68 2.72 27.36 0 26 C0 17.42 0 8.84 0 0 Z " fill="#3A484F" transform="translate(176,271)"/>
<path d="M0 0 C5.75 1.875 5.75 1.875 8 3 C8 11.58 8 20.16 8 29 C3 27 3 27 0 25 C-0.34057617 22.47802734 -0.34057617 22.47802734 -0.29296875 19.3359375 C-0.28330078 18.21445313 -0.27363281 17.09296875 -0.26367188 15.9375 C-0.23853516 14.761875 -0.21339844 13.58625 -0.1875 12.375 C-0.17396484 11.19164062 -0.16042969 10.00828125 -0.14648438 8.7890625 C-0.11103916 5.85892461 -0.06162769 2.92968541 0 0 Z " fill="#3C4950" transform="translate(59,204)"/>
<path d="M0 0 C1.98 0.66 3.96 1.32 6 2 C6 10.58 6 19.16 6 28 C1 26 1 26 -1 25 C-1.02886984 21.02084841 -1.04675406 17.04172347 -1.0625 13.0625 C-1.07087891 11.92619141 -1.07925781 10.78988281 -1.08789062 9.61914062 C-1.09111328 8.53955078 -1.09433594 7.45996094 -1.09765625 6.34765625 C-1.10289307 5.34742432 -1.10812988 4.34719238 -1.11352539 3.31665039 C-1 1 -1 1 0 0 Z " fill="#38474F" transform="translate(40,193)"/>
<path d="M0 0 C0.72445312 0.39832031 1.44890625 0.79664063 2.1953125 1.20703125 C7.09133453 3.89005132 11.97918814 6.55744288 17 9 C16.67 11.97 16.34 14.94 16 18 C12.20950293 16.57250019 8.72877544 14.83763458 5.1875 12.875 C3.72376953 12.06675781 3.72376953 12.06675781 2.23046875 11.2421875 C1.49441406 10.83226562 0.75835937 10.42234375 0 10 C0 6.7 0 3.4 0 0 Z " fill="#A26D47" transform="translate(67,208)"/>
<path d="M0 0 C2.29416573 1.12012792 4.58529094 2.24582841 6.875 3.375 C7.52597656 3.69210937 8.17695313 4.00921875 8.84765625 4.3359375 C11.58177041 5.68890121 13.82772518 6.82772518 16 9 C16.1953125 11.1640625 16.1953125 11.1640625 16.125 13.625 C16.10695312 14.44226563 16.08890625 15.25953125 16.0703125 16.1015625 C16.04710937 16.72804688 16.02390625 17.35453125 16 18 C12.64142879 16.38045183 9.31896048 14.69899168 6 13 C5.34 12.7009375 4.68 12.401875 4 12.09375 C2.375 11.25 2.375 11.25 0 9 C-0.48920498 5.93715143 -0.3544949 3.07228915 0 0 Z " fill="#A36D45" transform="translate(160,262)"/>
<path d="M0 0 C4.61069302 1.58492573 9.54754702 3.47194586 13 7 C13.68259411 10.10554267 13.4902966 12.87435917 13 16 C8.38930698 14.41507427 3.45245298 12.52805414 0 9 C-0.68259411 5.89445733 -0.4902966 3.12564083 0 0 Z " fill="#A46F49" transform="translate(205,288)"/>
<path d="M0 0 C2 1 2 1 3 2 C3.08631874 3.34267413 3.10706473 4.68974322 3.09765625 6.03515625 C3.09443359 6.84404297 3.09121094 7.65292969 3.08789062 8.48632812 C3.07951172 9.33646484 3.07113281 10.18660156 3.0625 11.0625 C3.05798828 11.91650391 3.05347656 12.77050781 3.04882812 13.65039062 C3.03700373 15.76695663 3.01906769 17.88348685 3 20 C2.67 20 2.34 20 2 20 C1.67 14.72 1.34 9.44 1 4 C-1.45566406 5.40765625 -1.45566406 5.40765625 -3.9609375 6.84375 C-6.09883056 8.06272412 -8.23685837 9.28146194 -10.375 10.5 C-11.45523437 11.12003906 -12.53546875 11.74007813 -13.6484375 12.37890625 C-14.6796875 12.96542969 -15.7109375 13.55195313 -16.7734375 14.15625 C-17.72653809 14.70087891 -18.67963867 15.24550781 -19.66162109 15.80664062 C-22 17 -22 17 -24 17 C-22.52110256 13.15914878 -20.56193275 11.79492069 -17.0625 9.73046875 C-16.08539063 9.15232422 -15.10828125 8.57417969 -14.1015625 7.97851562 C-13.07804687 7.38748047 -12.05453125 6.79644531 -11 6.1875 C-9.97648437 5.57712891 -8.95296875 4.96675781 -7.8984375 4.33789062 C-2.2456977 1.03051582 -2.2456977 1.03051582 0 0 Z " fill="#787DA7" transform="translate(371,345)"/>
<path d="M0 0 C0.66 0.33 1.32 0.66 2 1 C0.71723729 4.84828813 -0.57086026 5.18588205 -4.05859375 7.13671875 C-5.08404297 7.71357422 -6.10949219 8.29042969 -7.16601562 8.88476562 C-8.24560547 9.47966797 -9.32519531 10.07457031 -10.4375 10.6875 C-11.51322266 11.29400391 -12.58894531 11.90050781 -13.69726562 12.52539062 C-21.71532269 17 -21.71532269 17 -24 17 C-22.52110256 13.15914878 -20.56193275 11.79492069 -17.0625 9.73046875 C-16.08539063 9.15232422 -15.10828125 8.57417969 -14.1015625 7.97851562 C-13.07804687 7.38748047 -12.05453125 6.79644531 -11 6.1875 C-9.97648437 5.57712891 -8.95296875 4.96675781 -7.8984375 4.33789062 C-2.2456977 1.03051582 -2.2456977 1.03051582 0 0 Z " fill="#8186B4" transform="translate(371,304)"/>
<path d="M0 0 C2.98928414 0.23599612 4.59115638 0.64566887 6.875 2.625 C8.46941325 5.99098353 7.75430117 8.43421263 7 12 C4.6875 11.8125 4.6875 11.8125 2 11 C-0.13258157 8.35265737 -0.94177194 6.64050865 -1.25 3.25 C-1 1 -1 1 0 0 Z " fill="#42515E" transform="translate(108,249)"/>
<path d="M0 0 C0.66 0.33 1.32 0.66 2 1 C0.71038807 4.8688358 -0.61079519 5.19502904 -4.12890625 7.13671875 C-5.68061523 8.00200195 -5.68061523 8.00200195 -7.26367188 8.88476562 C-8.35228516 9.47966797 -9.44089844 10.07457031 -10.5625 10.6875 C-11.65498047 11.29400391 -12.74746094 11.90050781 -13.87304688 12.52539062 C-16.57755922 14.02527302 -19.28655955 15.51634906 -22 17 C-22.33 16.34 -22.66 15.68 -23 15 C-19.22465345 10.58136814 -14.34809302 8.04146159 -9.375 5.1875 C-8.50359375 4.67251953 -7.6321875 4.15753906 -6.734375 3.62695312 C-5.90164063 3.14548828 -5.06890625 2.66402344 -4.2109375 2.16796875 C-3.07084229 1.50704224 -3.07084229 1.50704224 -1.90771484 0.83276367 C-1.27816895 0.55795166 -0.64862305 0.28313965 0 0 Z " fill="#8185B3" transform="translate(463,251)"/>
<path d="M0 0 C0.66 0.33 1.32 0.66 2 1 C0.76159428 4.71521715 -0.25278467 5.02035066 -3.5859375 6.91796875 C-4.98199219 7.71557617 -4.98199219 7.71557617 -6.40625 8.52929688 C-7.87578125 9.35010742 -7.87578125 9.35010742 -9.375 10.1875 C-10.34695313 10.74630859 -11.31890625 11.30511719 -12.3203125 11.88085938 C-19.60299336 16 -19.60299336 16 -23 16 C-21.74036418 12.22109253 -20.53429855 11.82668089 -17.16015625 9.828125 C-16.17982422 9.24675781 -15.19949219 8.66539062 -14.18945312 8.06640625 C-13.15755859 7.46699219 -12.12566406 6.86757813 -11.0625 6.25 C-10.03447266 5.63511719 -9.00644531 5.02023437 -7.94726562 4.38671875 C-2.23972999 1.03639908 -2.23972999 1.03639908 0 0 Z " fill="#8186B4" transform="translate(370,325)"/>
<path d="M0 0 C0.66 0.33 1.32 0.66 2 1 C2 1.66 2 2.32 2 3 C-0.01953125 4.42041016 -0.01953125 4.42041016 -2.8125 6.0390625 C-3.80507813 6.61914062 -4.79765625 7.19921875 -5.8203125 7.796875 C-6.86960937 8.40015625 -7.91890625 9.0034375 -9 9.625 C-10.04929687 10.23601562 -11.09859375 10.84703125 -12.1796875 11.4765625 C-14.78268858 12.99103586 -17.38951889 14.49846843 -20 16 C-20.66 15.34 -21.32 14.68 -22 14 C-18.4301466 10.13094129 -13.9559513 7.86155131 -9.4375 5.25 C-8.12362305 4.47076172 -8.12362305 4.47076172 -6.78320312 3.67578125 C-5.94595703 3.18980469 -5.10871094 2.70382812 -4.24609375 2.203125 C-3.47966553 1.75614258 -2.7132373 1.30916016 -1.92358398 0.84863281 C-1.28880127 0.56858398 -0.65401855 0.28853516 0 0 Z " fill="#8185B3" transform="translate(463,292)"/>
<path d="M0 0 C0.66 0.33 1.32 0.66 2 1 C2 1.66 2 2.32 2 3 C-0.203125 4.51220703 -0.203125 4.51220703 -3.25 6.2578125 C-4.3328125 6.88300781 -5.415625 7.50820313 -6.53125 8.15234375 C-7.6759375 8.80332031 -8.820625 9.45429688 -10 10.125 C-11.15664282 10.78968149 -12.3128983 11.45503749 -13.46875 12.12109375 C-16.30874705 13.75409205 -19.15256522 15.38001661 -22 17 C-22.33 16.34 -22.66 15.68 -23 15 C-19.22465345 10.58136814 -14.34809302 8.04146159 -9.375 5.1875 C-8.50359375 4.67251953 -7.6321875 4.15753906 -6.734375 3.62695312 C-5.90164063 3.14548828 -5.06890625 2.66402344 -4.2109375 2.16796875 C-3.07084229 1.50704224 -3.07084229 1.50704224 -1.90771484 0.83276367 C-1.27816895 0.55795166 -0.64862305 0.28313965 0 0 Z " fill="#8186B4" transform="translate(402,327)"/>
<path d="M0 0 C0.66 0.33 1.32 0.66 2 1 C0.75072272 4.74783185 -0.30867439 5.03417197 -3.69140625 6.91796875 C-5.10776367 7.71557617 -5.10776367 7.71557617 -6.55273438 8.52929688 C-7.54595703 9.07650391 -8.53917969 9.62371094 -9.5625 10.1875 C-10.55958984 10.74630859 -11.55667969 11.30511719 -12.58398438 11.88085938 C-15.05151461 13.26220405 -17.52351834 14.63478849 -20 16 C-20.33 15.34 -20.66 14.68 -21 14 C-17.39617751 9.8854754 -13.04460135 7.41012831 -8.375 4.6875 C-7.59898437 4.22021484 -6.82296875 3.75292969 -6.0234375 3.27148438 C-5.2809375 2.83513672 -4.5384375 2.39878906 -3.7734375 1.94921875 C-3.09716309 1.55049561 -2.42088867 1.15177246 -1.72412109 0.7409668 C-1.15516113 0.49644775 -0.58620117 0.25192871 0 0 Z " fill="#8085B3" transform="translate(402,286)"/>
<path d="M0 0 C0.66 0.33 1.32 0.66 2 1 C0.80010777 4.5996767 0.01596192 4.86867665 -3.18359375 6.69921875 C-4.02857422 7.18583984 -4.87355469 7.67246094 -5.74414062 8.17382812 C-6.63294922 8.67333984 -7.52175781 9.17285156 -8.4375 9.6875 C-9.32244141 10.19861328 -10.20738281 10.70972656 -11.11914062 11.23632812 C-17.7168725 15 -17.7168725 15 -20 15 C-19.64822478 12.31145798 -19.31669248 11.25664836 -17.17407227 9.52026367 C-16.39604248 9.07400635 -15.6180127 8.62774902 -14.81640625 8.16796875 C-13.54893555 7.43610352 -13.54893555 7.43610352 -12.25585938 6.68945312 C-11.36705078 6.19380859 -10.47824219 5.69816406 -9.5625 5.1875 C-8.67755859 4.67251953 -7.79261719 4.15753906 -6.88085938 3.62695312 C-2.01179479 0.85681509 -2.01179479 0.85681509 0 0 Z " fill="#8185B3" transform="translate(430,270)"/>
<path d="M0 0 C0.66 0.33 1.32 0.66 2 1 C0.82133987 4.53598038 0.22233937 4.73114995 -2.9296875 6.4453125 C-3.72503906 6.88230469 -4.52039063 7.31929688 -5.33984375 7.76953125 C-6.17644531 8.21683594 -7.01304687 8.66414063 -7.875 9.125 C-8.70386719 9.58003906 -9.53273438 10.03507812 -10.38671875 10.50390625 C-13.5764078 12.24045748 -16.54742079 13.84914026 -20 15 C-19.64822478 12.31145798 -19.31669248 11.25664836 -17.17407227 9.52026367 C-16.39604248 9.07400635 -15.6180127 8.62774902 -14.81640625 8.16796875 C-13.54893555 7.43610352 -13.54893555 7.43610352 -12.25585938 6.68945312 C-11.36705078 6.19380859 -10.47824219 5.69816406 -9.5625 5.1875 C-8.67755859 4.67251953 -7.79261719 4.15753906 -6.88085938 3.62695312 C-2.01179479 0.85681509 -2.01179479 0.85681509 0 0 Z " fill="#8185B3" transform="translate(462,272)"/>
<path d="M0 0 C0.66 0.33 1.32 0.66 2 1 C2 1.66 2 2.32 2 3 C-4.93 6.96 -11.86 10.92 -19 15 C-19.33 14.34 -19.66 13.68 -20 13 C-16.50904207 9.0246945 -12.43925015 6.72274091 -7.875 4.1875 C-7.14667969 3.76791016 -6.41835938 3.34832031 -5.66796875 2.91601562 C-3.81494731 1.87647402 -1.91035606 0.92998652 0 0 Z " fill="#8186B4" transform="translate(400,308)"/>
<path d="M0 0 C0.66 0.33 1.32 0.66 2 1 C0.82409367 4.52771899 0.2509215 4.71219328 -2.89453125 6.41015625 C-3.68537109 6.84263672 -4.47621094 7.27511719 -5.29101562 7.72070312 C-6.12310547 8.16349609 -6.95519531 8.60628906 -7.8125 9.0625 C-8.63298828 9.50916016 -9.45347656 9.95582031 -10.29882812 10.41601562 C-13.83824184 12.33642744 -17.39133697 14.21271208 -21 16 C-20.42083132 13.09893884 -19.57300164 11.41622985 -17.16357422 9.66601562 C-14.78561541 8.29192412 -12.37988731 7.00597746 -9.9375 5.75 C-8.27942564 4.87077589 -6.62184635 3.99061732 -4.96484375 3.109375 C-4.2287085 2.72749023 -3.49257324 2.34560547 -2.73413086 1.95214844 C-1.02654094 1.11970783 -1.02654094 1.11970783 0 0 Z " fill="#8085B3" transform="translate(433,309)"/>
<path d="M0 0 C0.66 0.33 1.32 0.66 2 1 C2 1.66 2 2.32 2 3 C0.25585938 4.23681641 0.25585938 4.23681641 -2.15625 5.6015625 C-3.01347656 6.09140625 -3.87070312 6.58125 -4.75390625 7.0859375 C-5.66011719 7.59382813 -6.56632812 8.10171875 -7.5 8.625 C-8.40621094 9.140625 -9.31242187 9.65625 -10.24609375 10.1875 C-12.4936856 11.46507852 -14.74502104 12.73551992 -17 14 C-17.33 13.34 -17.66 12.68 -18 12 C-14.70779797 8.33556408 -11.11391279 6.07789721 -6.875 3.6875 C-5.92560547 3.1296582 -5.92560547 3.1296582 -4.95703125 2.56054688 C-3.34135328 1.63950752 -1.67336865 0.81152089 0 0 Z " fill="#8185B3" transform="translate(462,313)"/>
<path d="M0 0 C0.66 0.33 1.32 0.66 2 1 C2 1.66 2 2.32 2 3 C0.25585938 4.23681641 0.25585938 4.23681641 -2.15625 5.6015625 C-3.01347656 6.09140625 -3.87070312 6.58125 -4.75390625 7.0859375 C-5.66011719 7.59382813 -6.56632812 8.10171875 -7.5 8.625 C-8.40621094 9.140625 -9.31242187 9.65625 -10.24609375 10.1875 C-12.4936856 11.46507852 -14.74502104 12.73551992 -17 14 C-17.33 13.34 -17.66 12.68 -18 12 C-14.70779797 8.33556408 -11.11391279 6.07789721 -6.875 3.6875 C-5.92560547 3.1296582 -5.92560547 3.1296582 -4.95703125 2.56054688 C-3.34135328 1.63950752 -1.67336865 0.81152089 0 0 Z " fill="#8186B4" transform="translate(431,290)"/>
<path d="M0 0 C4.91441412 1.43652105 9.00238358 3.54159615 13.375 6.125 C14.01566406 6.49753906 14.65632813 6.87007813 15.31640625 7.25390625 C16.88048477 8.16434002 18.44065534 9.08148191 20 10 C19.01 11.485 19.01 11.485 18 13 C12.06 9.7 6.12 6.4 0 3 C0 2.01 0 1.02 0 0 Z " fill="#A6ACE6" transform="translate(286,329)"/>
<path d="M0 0 C1.98928833 0.87312655 3.96626817 1.77433893 5.9375 2.6875 C7.03964844 3.18636719 8.14179688 3.68523437 9.27734375 4.19921875 C12 6 12 6 12.87890625 8.70703125 C12.91886719 9.46371094 12.95882812 10.22039062 13 11 C9.69922518 9.86535866 6.70244518 8.36542129 3.6875 6.625 C2.99011719 6.22539062 2.29273438 5.82578125 1.57421875 5.4140625 C1.05472656 4.94742187 0.53523437 4.48078125 0 4 C0 2.68 0 1.36 0 0 Z " fill="#AEAFE5" transform="translate(184,285)"/>
<path d="M0 0 C1.15628906 0.63228516 1.15628906 0.63228516 2.3359375 1.27734375 C3.33882812 1.82519531 4.34171875 2.37304688 5.375 2.9375 C6.37273438 3.48277344 7.37046875 4.02804688 8.3984375 4.58984375 C9.92070346 5.4149759 11.45128783 6.22564391 13 7 C13 8.32 13 9.64 13 11 C8.50202887 9.31326082 4.27113698 7.18326108 0 5 C0 3.35 0 1.7 0 0 Z " fill="#AFAFE2" transform="translate(25,193)"/>
<path d="M0 0 C2.91517292 1.07401108 4.77810176 1.77810176 7 4 C7.125 6.625 7.125 6.625 7 9 C5.35 8.67 3.7 8.34 2 8 C1.67 8.99 1.34 9.98 1 11 C0 10 0 10 -0.09765625 7.71484375 C-0.08605469 6.79832031 -0.07445313 5.88179687 -0.0625 4.9375 C-0.05347656 4.01839844 -0.04445313 3.09929687 -0.03515625 2.15234375 C-0.02355469 1.44207031 -0.01195313 0.73179687 0 0 Z " fill="#435260" transform="translate(99,243)"/>
<path d="M0 0 C0.66 0.33 1.32 0.66 2 1 C-2.25699162 5.8245905 -7.28911194 9.05863995 -13 12 C-13.66 12 -14.32 12 -15 12 C-13.50843611 7.65287629 -10.26304428 5.92002193 -6.5 3.6875 C-5.90574219 3.31560547 -5.31148438 2.94371094 -4.69921875 2.56054688 C-3.17369803 1.63593669 -1.5896236 0.80945307 0 0 Z " fill="#8287B5" transform="translate(362,350)"/>
<path d="M0 0 C3.96 1.98 7.92 3.96 12 6 C12 7.32 12 8.64 12 10 C7.40004237 8.68572639 3.73569635 7.02413514 0 4 C0 2.68 0 1.36 0 0 Z " fill="#B0B2E9" transform="translate(47,206)"/>
<path d="M0 0 C4.75 1.875 4.75 1.875 7 3 C6.67 3.66 6.34 4.32 6 5 C4.68 4.34 3.36 3.68 2 3 C3.63412443 4.70840281 4.86906094 5.93453047 7 7 C7 7.66 7 8.32 7 9 C4.525 8.01 4.525 8.01 2 7 C3.65 8.98 5.3 10.96 7 13 C1.125 11.125 1.125 11.125 0 10 C-0.07205511 8.31391034 -0.08386068 6.62499341 -0.0625 4.9375 C-0.05347656 4.01839844 -0.04445312 3.09929687 -0.03515625 2.15234375 C-0.02355469 1.44207031 -0.01195312 0.73179687 0 0 Z " fill="#4F5D70" transform="translate(137,265)"/>
<path d="M0 0 C1.32 0.66 2.64 1.32 4 2 C4 8.93 4 15.86 4 23 C3.67 23 3.34 23 3 23 C3 16.4 3 9.8 3 3 C1.02 3.99 -0.96 4.98 -3 6 C-3.99 5.67 -4.98 5.34 -6 5 C-2.25 1.125 -2.25 1.125 0 0 Z " fill="#7379A1" transform="translate(370,366)"/>
<path d="M0 0 C2.4375 0.125 2.4375 0.125 5 1 C6.3125 3.5625 6.3125 3.5625 7 6 C6.01 5.34 5.02 4.68 4 4 C4 3.34 4 2.68 4 2 C3.01 2 2.02 2 1 2 C1.33 4.31 1.66 6.62 2 9 C3.32 8.67 4.64 8.34 6 8 C6 9.32 6 10.64 6 12 C1.39529412 10.54588235 1.39529412 10.54588235 -0.3125 8.1875 C-1.10601304 5.66268577 -1.21339782 3.63190639 -1 1 C-0.67 0.67 -0.34 0.34 0 0 Z " fill="#445260" transform="translate(129,261)"/>
<path d="M0 0 C1.32 0.33 2.64 0.66 4 1 C4.33 2.98 4.66 4.96 5 7 C4.01 7 3.02 7 2 7 C0 5 0 5 -0.125 2.375 C-0.08375 1.59125 -0.0425 0.8075 0 0 Z " fill="#A2AAE1" transform="translate(109,251)"/>
<path d="M0 0 C2.475 0.495 2.475 0.495 5 1 C5 2.65 5 4.3 5 6 C4.01 6 3.02 6 2 6 C2 5.01 2 4.02 2 3 C1.34 3 0.68 3 0 3 C0 2.01 0 1.02 0 0 Z " fill="#6B7796" transform="translate(101,246)"/>
<path d="M0 0 C0.33 0 0.66 0 1 0 C0.67 2.31 0.34 4.62 0 7 C-2.375 6.75 -2.375 6.75 -5 6 C-6.3125 3.9375 -6.3125 3.9375 -7 2 C-5.824375 2.495 -5.824375 2.495 -4.625 3 C-2.15667503 4.11866511 -2.15667503 4.11866511 0 4 C0 2.68 0 1.36 0 0 Z " fill="#536175" transform="translate(115,254)"/>
<path d="M0 0 C0.66 1.32 1.32 2.64 2 4 C3.32 3.67 4.64 3.34 6 3 C6 4.32 6 5.64 6 7 C3.5625 6.3125 3.5625 6.3125 1 5 C0.1875 2.375 0.1875 2.375 0 0 Z " fill="#4B5A6B" transform="translate(129,266)"/>
</svg>
