<?xml version="1.0" encoding="UTF-8"?>
<svg version="1.1" xmlns="http://www.w3.org/2000/svg" width="512" height="512">
<path d="M0 0 C3.51953125 1.64453125 3.51953125 1.64453125 6.8125 3.8125 C7.91207031 4.52019531 9.01164063 5.22789063 10.14453125 5.95703125 C15.62634731 9.87904192 15.62634731 9.87904192 17 14 C17.09594817 16.0163392 17.13095288 18.03575657 17.13422108 20.05437469 C17.13867892 21.32848693 17.14313676 22.60259917 17.14772969 23.91532087 C17.14764039 25.33738678 17.14745053 26.75945268 17.14717102 28.18151855 C17.15046957 29.685946 17.15419512 31.19037256 17.1583125 32.69479799 C17.16834192 36.83976055 17.17205082 40.98470862 17.17470181 45.12968159 C17.17860217 49.59614491 17.18818081 54.06259674 17.19691467 58.52905273 C17.21668849 69.32216374 17.22674725 80.1152757 17.23564246 90.9084003 C17.24002457 95.99057498 17.24539165 101.07274862 17.25063133 106.15492249 C17.26764586 123.04924046 17.2821395 139.94355777 17.28938007 156.837883 C17.29128999 161.22330221 17.29321032 165.60872143 17.29516602 169.99414062 C17.29564976 171.08412371 17.2961335 172.1741068 17.2966319 173.29711968 C17.30493013 190.94961396 17.33026257 208.60204042 17.36274669 226.2545051 C17.39582326 244.37666342 17.41382945 262.4987873 17.41702431 280.62097597 C17.41918904 290.79634586 17.42793212 300.97161692 17.45348549 311.1469574 C17.47520077 319.81406051 17.48323888 328.48104079 17.47351871 337.14816803 C17.46897618 341.56877933 17.47085737 345.98913725 17.49028015 350.40971375 C17.50792843 354.46150661 17.50690078 358.51286155 17.49138286 362.56465918 C17.48900928 364.02572993 17.49331738 365.48683114 17.50521151 366.94785541 C17.59195982 378.31322509 16.08080618 388.20966804 8.74121094 397.24731445 C2.85518337 403.17213105 -5.32596971 406.98235468 -12.5625 411 C-20.64938247 415.52941137 -28.69167486 420.12421163 -36.6875 424.8125 C-45.42603349 429.93249371 -54.20014672 434.98646766 -63 440 C-72.72134099 445.53968899 -82.40895092 451.13375063 -92.06689453 456.78344727 C-102.59084625 462.93766742 -113.15380137 469.02369996 -123.71777344 475.10888672 C-128.06571949 477.61403326 -132.41219906 480.12171714 -136.75854492 482.62963867 C-138.90965218 483.87085526 -141.06085573 485.111905 -143.2121582 486.3527832 C-148.2458636 489.25627178 -153.2790232 492.1606941 -158.31021118 495.06854248 C-160.08362608 496.09345403 -161.85721646 497.11806123 -163.63085938 498.14257812 C-165.84995773 499.42452738 -168.06873016 500.70704107 -170.28710938 501.99023438 C-173.18823912 503.66574326 -176.09326147 505.33424504 -179 507 C-179.86125488 507.49814209 -180.72250977 507.99628418 -181.60986328 508.50952148 C-182.79878174 509.18736694 -182.79878174 509.18736694 -184.01171875 509.87890625 C-184.69580811 510.27150635 -185.37989746 510.66410645 -186.0847168 511.06860352 C-189.59787851 512.77704353 -192.33811973 513.0991816 -196 512 C-210.89564385 504.31306845 -210.89564385 504.31306845 -213 498 C-213.09594817 495.9836608 -213.13095288 493.96424343 -213.13422108 491.94562531 C-213.13867892 490.67151307 -213.14313676 489.39740083 -213.14772969 488.08467913 C-213.14764039 486.66261322 -213.14745053 485.24054732 -213.14717102 483.81848145 C-213.15046957 482.314054 -213.15419512 480.80962744 -213.1583125 479.30520201 C-213.16834192 475.16023945 -213.17205082 471.01529138 -213.17470181 466.87031841 C-213.17860217 462.40385509 -213.18818081 457.93740326 -213.19691467 453.47094727 C-213.21668849 442.67783626 -213.22674725 431.8847243 -213.23564246 421.0915997 C-213.24002457 416.00942502 -213.24539165 410.92725138 -213.25063133 405.84507751 C-213.26764586 388.95075954 -213.2821395 372.05644223 -213.28938007 355.162117 C-213.29128999 350.77669779 -213.29321032 346.39127857 -213.29516602 342.00585938 C-213.29564976 340.91587629 -213.2961335 339.8258932 -213.2966319 338.70288032 C-213.30493013 321.05038604 -213.33026257 303.39795958 -213.36274669 285.7454949 C-213.39582326 267.62333658 -213.41382945 249.5012127 -213.41702431 231.37902403 C-213.41918904 221.20365414 -213.42793212 211.02838308 -213.45348549 200.8530426 C-213.47520077 192.18593949 -213.48323888 183.51895921 -213.47351871 174.85183197 C-213.46897618 170.43122067 -213.47085737 166.01086275 -213.49028015 161.59028625 C-213.50792843 157.53849339 -213.50690078 153.48713845 -213.49138286 149.43534082 C-213.48900928 147.97427007 -213.49331738 146.51316886 -213.50521151 145.05214459 C-213.59194211 133.68909596 -212.08449824 123.78029301 -204.7355957 114.74975586 C-198.48568064 108.44884979 -189.69232813 104.48552591 -182 100.25 C-174.81107379 96.25824176 -167.63363437 92.26001356 -160.5625 88.0625 C-153.59230165 83.92682031 -146.58498988 79.85878933 -139.5625 75.8125 C-138.45527588 75.17449463 -137.34805176 74.53648926 -136.20727539 73.87915039 C-133.93662932 72.57110523 -131.66587642 71.26324552 -129.39501953 69.95556641 C-123.9283002 66.80667946 -118.46425113 63.65316736 -113 60.5 C-110.83334689 59.2499765 -108.66668021 57.99997653 -106.5 56.75 C-105.4275 56.13125 -104.355 55.5125 -103.25 54.875 C-91.33333333 48 -79.41666667 41.125 -67.5 34.25 C-66.4265332 33.63068604 -65.35306641 33.01137207 -64.24707031 32.37329102 C-62.09019097 31.12895002 -59.93329008 29.88464636 -57.77636719 28.64038086 C-51.06211852 24.76704917 -44.34839427 20.89281267 -37.63623047 17.01586914 C-35.40743072 15.73017146 -33.17731999 14.44674331 -30.94580078 13.16577148 C-26.4479471 10.58246519 -21.95901054 7.99615526 -17.5390625 5.28125 C-16.90323242 4.89702881 -16.26740234 4.51280762 -15.61230469 4.11694336 C-14.04366157 3.16486781 -12.48596485 2.19481359 -10.9296875 1.22265625 C-7.20398283 -0.3322045 -3.94349814 -0.67823938 0 0 Z " fill="#F4F3F9" transform="translate(354,0)"/>
<path d="M0 0 C0.7425 0.4640625 1.485 0.928125 2.25 1.40625 C3.013125 1.8703125 3.77625 2.334375 4.5625 2.8125 C5.119375 3.1734375 5.67625 3.534375 6.25 3.90625 C6.25 4.56625 6.25 5.22625 6.25 5.90625 C4.60644531 6.45539062 4.60644531 6.45539062 2.9296875 7.015625 C-2.61797568 9.10238301 -7.5523052 12.1214152 -12.625 15.15625 C-14.77043286 16.42385513 -16.91628046 17.69075852 -19.0625 18.95703125 C-20.1659375 19.61010254 -21.269375 20.26317383 -22.40625 20.93603516 C-27.79118035 24.10896067 -33.20779384 27.22635533 -38.625 30.34375 C-40.80730936 31.6015318 -42.98960093 32.85934447 -45.171875 34.1171875 C-48.4615029 36.01219299 -51.75125929 37.9069753 -55.04101562 39.80175781 C-66.62681766 46.47581312 -78.20553353 53.16089084 -89.75 59.90625 C-101.28992559 66.64895595 -112.86435521 73.33087525 -124.44580078 80.00195312 C-127.77614252 81.92131662 -131.10509148 83.84307353 -134.43359375 85.765625 C-143.66956274 91.09967328 -152.9053472 96.43339291 -162.17236328 101.71337891 C-164.7447182 103.18010171 -167.31402451 104.65204124 -169.8828125 106.125 C-173.11655483 107.97875409 -176.36229149 109.80868116 -179.6171875 111.625 C-181.14086773 112.48915549 -182.66431713 113.35371816 -184.1875 114.21875 C-185.20759155 114.77719604 -185.20759155 114.77719604 -186.24829102 115.34692383 C-194.54493486 120.10595493 -199.22860026 126.69098314 -201.75 135.90625 C-202.30549192 140.94988899 -202.28726918 145.9718183 -202.25120544 151.03912354 C-202.2551034 152.56140974 -202.26074781 154.0836923 -202.26797634 155.60596633 C-202.28267731 159.76769925 -202.27258196 163.92905172 -202.25823963 168.09077215 C-202.24710349 172.58702258 -202.25908099 177.08322079 -202.26808167 181.57946777 C-202.2819968 190.37803197 -202.27447135 199.1764524 -202.25940608 207.97500971 C-202.2425296 218.22194237 -202.24575818 228.46883939 -202.24950016 238.71578166 C-202.25537527 256.99642254 -202.24121925 275.27699447 -202.21655273 293.55761719 C-202.19261892 311.29722679 -202.18555439 329.03674434 -202.19604492 346.77636719 C-202.20745113 366.09902411 -202.20938895 385.42163848 -202.19494683 404.74429488 C-202.19342099 406.80399433 -202.19190063 408.86369379 -202.19038582 410.92339325 C-202.189628 411.93679168 -202.18887019 412.95019011 -202.18808941 413.99429758 C-202.1833454 421.13801237 -202.18519876 428.28170817 -202.18945122 435.42542267 C-202.19437486 444.12726974 -202.18840658 452.82902976 -202.16855692 461.53085688 C-202.1586781 465.97109578 -202.15358627 470.41120205 -202.16144943 474.85144806 C-202.1684984 478.91499278 -202.16172013 482.97826965 -202.1438458 487.04177901 C-202.13979633 488.51263528 -202.14080956 489.9835159 -202.14736467 491.45436314 C-202.15550835 493.45246817 -202.14341301 495.45062506 -202.13031673 497.44870377 C-202.1292876 498.55890137 -202.12825848 499.66909897 -202.12719816 500.81293893 C-201.69419024 504.36393234 -200.50774447 506.81471749 -198.75 509.90625 C-202.22308412 508.61151369 -205.26918012 507.11626844 -208.375 505.09375 C-209.13039062 504.61292969 -209.88578125 504.13210938 -210.6640625 503.63671875 C-213.96966305 500.89443215 -215.57997703 498.23828546 -216.12719816 493.95111215 C-216.12822729 492.84715243 -216.12925642 491.7431927 -216.13031673 490.60577965 C-216.13875668 489.32768531 -216.14719662 488.04959098 -216.15589231 486.73276651 C-216.15009716 485.31658399 -216.14401614 483.90040262 -216.13768005 482.48422241 C-216.14185263 480.97806578 -216.14732974 479.47191229 -216.15399987 477.96576464 C-216.16848403 473.82525964 -216.16420046 469.68495318 -216.15683305 465.54443717 C-216.15211081 461.07935947 -216.16460309 456.61432531 -216.17485046 452.14926147 C-216.19206438 443.39983363 -216.19287283 434.65047753 -216.18763756 425.90103714 C-216.18359821 418.78787502 -216.18503664 411.67473413 -216.19038582 404.56157303 C-216.19113424 403.54964422 -216.19188266 402.5377154 -216.19265376 401.49512208 C-216.19418524 399.43941079 -216.19572358 397.3836995 -216.19726873 395.32798822 C-216.21100401 376.03920456 -216.20554964 356.75046144 -216.19408352 337.4616787 C-216.18415767 319.8222367 -216.19707878 302.18289969 -216.22101771 284.54347388 C-216.2454142 266.43028278 -216.25501475 248.31714056 -216.24836498 230.20393336 C-216.24487301 220.0353119 -216.24710301 209.86677112 -216.26461601 199.69816208 C-216.27934517 191.03841321 -216.27996446 182.37880177 -216.2625451 173.71905558 C-216.2540372 169.30249087 -216.25188021 164.88617161 -216.26719666 160.46961975 C-216.28106084 156.42159142 -216.27625856 152.37401838 -216.25695742 148.32601626 C-216.25320226 146.86635783 -216.2561054 145.40666278 -216.26656907 143.94703703 C-216.34214374 132.59172734 -214.82939557 122.6802727 -207.4855957 113.65600586 C-201.23568064 107.35509979 -192.44232813 103.39177591 -184.75 99.15625 C-177.56107379 95.16449176 -170.38363437 91.16626356 -163.3125 86.96875 C-156.34230165 82.83307031 -149.33498988 78.76503933 -142.3125 74.71875 C-141.20527588 74.08074463 -140.09805176 73.44273926 -138.95727539 72.78540039 C-136.68662932 71.47735523 -134.41587642 70.16949552 -132.14501953 68.86181641 C-126.6783002 65.71292946 -121.21425113 62.55941736 -115.75 59.40625 C-113.58334689 58.1562265 -111.41668021 56.90622653 -109.25 55.65625 C-108.1775 55.0375 -107.105 54.41875 -106 53.78125 C-94.08333333 46.90625 -82.16666667 40.03125 -70.25 33.15625 C-69.1765332 32.53693604 -68.10306641 31.91762207 -66.99707031 31.27954102 C-64.84019097 30.03520002 -62.68329008 28.79089636 -60.52636719 27.54663086 C-53.81211852 23.67329917 -47.09839427 19.79906267 -40.38623047 15.92211914 C-38.15743072 14.63642146 -35.92731999 13.35299331 -33.69580078 12.07202148 C-29.1979471 9.48871519 -24.70901054 6.90240526 -20.2890625 4.1875 C-19.65323242 3.80327881 -19.01740234 3.41905762 -18.36230469 3.02319336 C-16.79366157 2.07111781 -15.23596485 1.10106359 -13.6796875 0.12890625 C-8.98618909 -1.82984709 -4.81792186 -1.91621892 0 0 Z " fill="#C2B5EF" transform="translate(356.75,1.09375)"/>
<path d="M0 0 C4.9636957 3.55592486 7.32226652 8.54448367 8.859375 14.33203125 C10.49811375 28.29762178 8.32822993 40.51017525 2.859375 53.33203125 C2.17488281 54.99685547 2.17488281 54.99685547 1.4765625 56.6953125 C-3.55482968 67.77875071 -11.31004802 77.54082217 -22.140625 83.33203125 C-23.295625 83.95078125 -24.450625 84.56953125 -25.640625 85.20703125 C-31.40398999 87.05954142 -35.98466614 87.43034992 -41.453125 84.64453125 C-46.71845285 80.11390031 -50.59552095 74.93016593 -51.42944336 67.89575195 C-51.54402486 65.13839527 -51.55708465 62.40395377 -51.515625 59.64453125 C-51.50402344 58.66210449 -51.49242187 57.67967773 -51.48046875 56.66748047 C-51.02054975 36.24504773 -41.55988526 19.11649736 -27.05078125 5.0546875 C-19.04950653 -2.16118602 -9.87808698 -5.41763298 0 0 Z " fill="#FE4858" transform="translate(244.140625,347.66796875)"/>
<path d="M0 0 C1.63012838 1.63012838 1.20976456 3.44437445 1.25 5.6875 C1.18536666 10.22476078 0.65407742 13.19582237 -2 17 C-7.49588789 22.21924923 -14.05039443 25.62935852 -20.625 29.3125 C-21.872598 30.01750239 -23.11982428 30.72316295 -24.36669922 31.42944336 C-26.95525744 32.89499773 -29.54538213 34.35772362 -32.13671875 35.81835938 C-37.56525776 38.88066444 -42.97620999 41.97366009 -48.38641357 45.06820679 C-50.13568608 46.06861134 -51.88542783 47.06819104 -53.63525391 48.06762695 C-61.43551707 52.52434753 -69.22122822 57.00588724 -77 61.5 C-90.02888302 69.0273155 -103.09236753 76.4933756 -116.16131592 83.95080566 C-121.3002899 86.88321937 -126.43895533 89.81617222 -131.57696533 92.75027466 C-133.3939909 93.78765958 -135.21138901 94.82438955 -137.02880859 95.86108398 C-138.68323975 96.80576538 -138.68323975 96.80576538 -140.37109375 97.76953125 C-141.33974365 98.32229736 -142.30839355 98.87506348 -143.30639648 99.44458008 C-145.11773845 100.49053854 -146.91044172 101.56938842 -148.68383789 102.6784668 C-151.39519283 104.22548527 -152.92771578 104.49820825 -156 104 C-157.98704255 101.01943617 -158.33550299 100.20240057 -158.4375 96.8125 C-158.47746094 96.09707031 -158.51742187 95.38164062 -158.55859375 94.64453125 C-157.51092942 89.68460989 -155.06137092 85.60294626 -151.03930664 82.4753418 C-148.67527175 81.02491579 -146.27253866 79.71835229 -143.8125 78.4375 C-141.91333308 77.40107508 -140.01492954 76.36325039 -138.1171875 75.32421875 C-137.1178418 74.78458496 -136.11849609 74.24495117 -135.08886719 73.68896484 C-129.81614253 70.80588634 -124.63275206 67.76972548 -119.4375 64.75 C-110.20207804 59.41186831 -100.95064345 54.10231768 -91.6875 48.8125 C-90.80096237 48.30621567 -90.80096237 48.30621567 -89.89651489 47.78970337 C-84.98041157 44.98253517 -80.06339656 42.17696564 -75.14599609 39.37207031 C-65.95337417 34.12828488 -56.76747015 28.87333907 -47.60083008 23.58422852 C-45.41805954 22.32519338 -43.23431025 21.0678535 -41.04956055 19.81225586 C-35.86694468 16.82983974 -30.6969343 13.83016021 -25.5639801 10.76313782 C-23.18341193 9.34227002 -20.79663266 7.93202968 -18.40927124 6.52261353 C-16.72084403 5.51980406 -15.04157922 4.50161894 -13.36254883 3.4831543 C-12.3392749 2.88027588 -11.31600098 2.27739746 -10.26171875 1.65625 C-9.36412842 1.11806641 -8.46653809 0.57988281 -7.54174805 0.02539062 C-4.53233235 -1.18866623 -3.04883811 -0.99439643 0 0 Z " fill="#453A6D" transform="translate(344,77)"/>
<path d="M0 0 C0.20855565 12.93444359 0.36845792 25.86848713 0.46630955 38.80426979 C0.51327502 44.81103536 0.57697158 50.81665051 0.67895508 56.82275391 C0.77676675 62.61946275 0.83056246 68.41506548 0.85389519 74.21253586 C0.87052154 76.42387689 0.90299085 78.6351575 0.95157051 80.84602737 C1.01695589 83.9450668 1.02590133 87.03954163 1.02172852 90.13916016 C1.054086 91.05266235 1.08644348 91.96616455 1.11978149 92.90734863 C1.08118599 95.55795025 0.94686078 97.5201031 0 100 C-2.71889989 102.59147663 -5.67984959 104.28246254 -9 106 C-9.98871094 106.62648438 -10.97742188 107.25296875 -11.99609375 107.8984375 C-12.80175781 108.38570313 -13.60742188 108.87296875 -14.4375 109.375 C-15.26121094 109.87773437 -16.08492188 110.38046875 -16.93359375 110.8984375 C-19 112 -19 112 -21 112 C-21.44123874 99.02260998 -21.77830102 86.04701611 -21.98443127 73.06363964 C-22.0833995 67.0336193 -22.21744679 61.00874606 -22.43334961 54.98168945 C-22.64062659 49.15862924 -22.75354598 43.34049764 -22.80266762 37.51403236 C-22.83763933 35.29783775 -22.90595303 33.08189865 -23.00887108 30.86781883 C-23.64055637 16.70828112 -23.64055637 16.70828112 -21 11 C-16.22459307 5.90074613 -7.24927367 0 0 0 Z " fill="#5DADF9" transform="translate(339,162)"/>
<path d="M0 0 C2.35020498 2.35020498 2.31914802 2.91909622 2.375 6.125 C2.21938737 11.22745616 1.07481365 14.91554605 -2 19 C-8.34760425 24.11274903 -15.88704398 27.83375556 -23 31.75 C-30.40290063 35.85839054 -37.78209555 39.99030078 -45.0625 44.3125 C-46.39179707 45.09787634 -47.72122198 45.88303635 -49.05078125 46.66796875 C-51.09641462 47.87565654 -53.1416427 49.08397276 -55.18505859 50.29541016 C-57.36701153 51.58320613 -59.55726052 52.8556779 -61.75 54.125 C-62.40621338 54.51598877 -63.06242676 54.90697754 -63.73852539 55.30981445 C-67.25918125 57.32903441 -69.91079708 58.69134006 -74 58 C-76.46996424 55.53003576 -76.32331778 54.66102667 -76.375 51.25 C-76.24799 46.33894675 -75.38306516 43.72137167 -72 40 C-65.92312359 34.8135947 -59.04458162 31.06400989 -52.0625 27.25 C-49.82344964 26.01180645 -47.58516984 24.77221846 -45.34765625 23.53125 C-44.2611377 22.92925781 -43.17461914 22.32726562 -42.05517578 21.70703125 C-38.00345884 19.44319835 -33.99376282 17.11423111 -30 14.75 C-29.33911377 14.36054199 -28.67822754 13.97108398 -27.99731445 13.56982422 C-24.43339529 11.46317347 -20.89079251 9.32475167 -17.359375 7.1640625 C-16.58851563 6.69774414 -15.81765625 6.23142578 -15.0234375 5.75097656 C-13.54901202 4.85859447 -12.07987203 3.95739736 -10.6171875 3.04589844 C-4.25009994 -0.791077 -4.25009994 -0.791077 0 0 Z " fill="#453A6D" transform="translate(262,168)"/>
<path d="M0 0 C0.30198313 8.98796178 0.53255876 17.97416496 0.67355824 26.9661026 C0.74125635 31.14231689 0.83294331 35.31504869 0.98071289 39.48925781 C1.12259231 43.52259578 1.19980736 47.55260019 1.23340416 51.58824158 C1.25732155 53.12284369 1.30404105 54.6572742 1.37449074 56.19044495 C1.58724501 61.01502579 1.53688497 65.35612119 0 70 C-3.86848213 73.77414598 -8.08410216 75.84663943 -13 78 C-14.60719423 78.82747921 -16.2120242 79.65959988 -17.8125 80.5 C-18.864375 80.995 -19.91625 81.49 -21 82 C-21.44215858 72.93429791 -21.77869361 63.87234782 -21.98443127 54.79818249 C-22.08324201 50.58299468 -22.21687095 46.37522198 -22.43334961 42.16430664 C-23.7998896 14.90356816 -23.7998896 14.90356816 -19.10601807 8.35943604 C-14.03923664 3.88334259 -6.94155882 0 0 0 Z " fill="#0CDAB0" transform="translate(308,210)"/>
<path d="M0 0 C0.20879841 9.02289016 0.36857376 18.04494562 0.46630955 27.06972694 C0.51322647 31.26073318 0.576821 35.45008361 0.67895508 39.64013672 C0.77696013 43.68625432 0.83059901 47.73078296 0.85389519 51.77799606 C0.87048864 53.3195536 0.90289655 54.86102679 0.95157051 56.40190506 C1.31803658 68.48706363 1.31803658 68.48706363 -1.96586609 72.25656128 C-4.26173579 73.80785163 -6.44668848 74.93940941 -9 76 C-9.91652344 76.55429687 -10.83304688 77.10859375 -11.77734375 77.6796875 C-12.84662109 78.27136719 -12.84662109 78.27136719 -13.9375 78.875 C-14.66839844 79.28492188 -15.39929688 79.69484375 -16.15234375 80.1171875 C-18 81 -18 81 -20 81 C-20.44220235 72.06470494 -20.77871197 63.13321814 -20.98443127 54.18933392 C-21.08323484 50.03462219 -21.2168431 45.887436 -21.43334961 41.73706055 C-22.80158066 14.84146437 -22.80158066 14.84146437 -18.08990479 8.38092041 C-13.48898662 4.36802446 -6.37368006 0 0 0 Z " fill="#06DAAE" transform="translate(214,264)"/>
<path d="M0 0 C2 2 2 2 2.375 5.25 C1.91790371 9.82096292 1.0180463 11.54028838 -2 15 C-8.40948954 19.84769448 -15.53849467 23.6365757 -22.5625 27.5 C-42.84924517 38.66726503 -42.84924517 38.66726503 -62.63183594 50.69067383 C-65 52 -65 52 -67.75 51.8125 C-70 51 -70 51 -71 49 C-71.4135212 45.36101342 -71.15517651 43.32384663 -69.5625 40 C-63.44273912 32.8354019 -54.02687998 28.61145214 -45.9375 24 C-44.22675894 23.01890297 -42.51602394 22.03779512 -40.80570984 21.05595398 C-39.63574034 20.38433409 -38.46558358 19.71304032 -37.29524231 19.04206848 C-31.03488887 15.45149445 -24.79674173 11.82322699 -18.5625 8.1875 C-17.54470459 7.59517578 -16.52690918 7.00285156 -15.47827148 6.39257812 C-14.53798096 5.84408203 -13.59769043 5.29558594 -12.62890625 4.73046875 C-11.80463135 4.24989014 -10.98035645 3.76931152 -10.13110352 3.27416992 C-3.97332014 -0.40752001 -3.97332014 -0.40752001 0 0 Z " fill="#473C6E" transform="translate(337,301)"/>
<path d="M0 0 C2.0625 0.875 2.0625 0.875 3.0625 1.875 C3.046875 3.765625 3.046875 3.765625 2.8125 6.125 C2.74546875 6.89328125 2.6784375 7.6615625 2.609375 8.453125 C1.73867205 12.3090952 0.12350461 15.06693869 -3.03686523 17.47387695 C-3.84841064 17.93238037 -4.65995605 18.39088379 -5.49609375 18.86328125 C-6.42599121 19.39695312 -7.35588867 19.930625 -8.31396484 20.48046875 C-9.32410645 21.04378906 -10.33424805 21.60710937 -11.375 22.1875 C-12.94822021 23.0846875 -12.94822021 23.0846875 -14.55322266 24 C-17.40690197 25.62564612 -20.26630915 27.24066781 -23.12774658 28.8526001 C-26.85317885 30.95724129 -30.56515799 33.08548347 -34.27897644 35.21052551 C-37.29002958 36.9333541 -40.30200913 38.65443764 -43.31811523 40.3684082 C-44.42743408 40.999646 -45.53675293 41.63088379 -46.6796875 42.28125 C-47.74026367 42.88324219 -48.80083984 43.48523438 -49.89355469 44.10546875 C-53.57016375 46.24278528 -57.15898 48.50659985 -60.72314453 50.82617188 C-63.3484241 52.06963395 -65.06512643 52.22200618 -67.9375 51.875 C-69.9375 49.875 -69.9375 49.875 -70.375 47.25 C-69.75774496 42.48831828 -68.11440477 39.47628942 -64.9375 35.875 C-60.9287784 32.95643825 -56.61476856 30.64614513 -52.25 28.3125 C-51.0049913 27.62740879 -49.76119198 26.94011563 -48.51855469 26.25073242 C-45.95031559 24.82765895 -43.37750105 23.41343077 -40.80126953 22.00488281 C-34.70867011 18.66131541 -28.70143692 15.16984676 -22.6875 11.6875 C-21.0928894 10.77085571 -21.0928894 10.77085571 -19.46606445 9.83569336 C-14.40613006 6.92082378 -9.41215365 3.9706367 -4.5612793 0.71704102 C-2.9375 -0.125 -2.9375 -0.125 0 0 Z " fill="#463C6E" transform="translate(335.9375,329.125)"/>
<path d="M0 0 C0.48466078 7.05890289 0.81548553 14.11350065 1.04370117 21.18530273 C1.13885087 23.58536909 1.26824224 25.98434489 1.43334961 28.38061523 C2.73910949 47.82956501 2.73910949 47.82956501 -1.91009521 53.21087646 C-6.42498338 56.79507574 -13.95650755 62 -20 62 C-20.48466078 54.94109711 -20.81548553 47.88649935 -21.04370117 40.81469727 C-21.13885087 38.41463091 -21.26824224 36.01565511 -21.43334961 33.61938477 C-22.73910949 14.17043499 -22.73910949 14.17043499 -18.08990479 8.78912354 C-13.57501662 5.20492426 -6.04349245 0 0 0 Z " fill="#F6E042" transform="translate(245,266)"/>
<path d="M0 0 C5.22902232 2.86785527 7.7199069 6.96230049 10.1875 12.25 C11.17495697 16.82820957 11.98387646 20.81718143 10.875 25.4375 C9.18847656 27.03173828 9.18847656 27.03173828 6.953125 28.3828125 C6.13674561 28.88586914 5.32036621 29.38892578 4.47924805 29.90722656 C3.61984619 30.4122168 2.76044434 30.91720703 1.875 31.4375 C1.05362549 31.93475586 0.23225098 32.43201172 -0.61401367 32.94433594 C-3.08298965 34.42557544 -5.56894485 35.87308306 -8.0625 37.3125 C-8.91134766 37.81007813 -9.76019531 38.30765625 -10.63476562 38.8203125 C-11.44494141 39.28953125 -12.25511719 39.75875 -13.08984375 40.2421875 C-14.18220337 40.87616455 -14.18220337 40.87616455 -15.29663086 41.52294922 C-17.125 42.4375 -17.125 42.4375 -19.125 42.4375 C-19.125 28.9075 -19.125 15.3775 -19.125 1.4375 C-7.08422499 -3.07779063 -7.08422499 -3.07779063 0 0 Z " fill="#F7DE42" transform="translate(242.125,346.5625)"/>
<path d="M0 0 C0.32311734 5.26470957 0.55794105 10.52358984 0.71411133 15.79589844 C0.77921984 17.58533237 0.86775157 19.37408143 0.98071289 21.16113281 C1.7088657 32.98290784 1.7088657 32.98290784 0 38 C-3.79854481 42.07289573 -7.894498 43.93437025 -13 46 C-15.68559693 47.29798004 -18.34020925 48.64943457 -21 50 C-21.37327912 44.7538013 -21.64391207 39.51541877 -21.82397461 34.2590332 C-21.89903746 32.47608868 -22.00115007 30.69405678 -22.1315918 28.91430664 C-23.15947632 14.51989241 -23.15947632 14.51989241 -19.55987549 10.31951904 C-15.98358847 7.43226942 -12.03079367 5.51913035 -7.79983521 3.77609253 C-5.3612458 2.72456792 -2.61763932 0 0 0 Z " fill="#FE4C5C" transform="translate(277,260)"/>
</svg>
