<?xml version="1.0" encoding="UTF-8"?>
<svg version="1.1" xmlns="http://www.w3.org/2000/svg" width="512" height="512">
<path d="M0 0 C12.4253768 6.17644168 12.4253768 6.17644168 16 12 C17.2577567 15.77327009 17.13462358 19.28921918 17.12025452 23.21928406 C17.12153615 24.49107198 17.12153615 24.49107198 17.12284368 25.78855258 C17.12449557 28.6398994 17.11898184 31.49118786 17.11352539 34.3425293 C17.11324343 36.38235472 17.11340143 38.42218025 17.1139679 40.46200562 C17.11425552 46.00918056 17.10836435 51.55633401 17.10139394 57.10350394 C17.09515468 62.89711127 17.09455615 68.69071906 17.09336853 74.48432922 C17.09025691 85.45964235 17.08204579 96.43494555 17.07201904 107.4102543 C17.06085267 119.9034343 17.05534613 132.39661477 17.05032361 144.88979852 C17.03986305 170.59320452 17.02226686 196.29660171 17 222 C17.7580682 221.99221936 18.5161364 221.98443872 19.29717636 221.97642231 C20.29011829 221.9703707 21.28306023 221.9643191 22.30609131 221.95808411 C23.29103451 221.95030347 24.27597771 221.94252283 25.29076767 221.93450642 C34.06744887 222.14667586 42.33898117 227.53021526 49.75 231.8125 C50.64332031 232.30814453 51.53664063 232.80378906 52.45703125 233.31445312 C65.15698182 240.58091969 71.87267182 250.74256391 75.9375 264.75 C81.17007346 291.27037233 75.48703878 321.69135471 63.00390625 345.46875 C61.84076091 348.40150557 61.8773736 349.11758087 63 352 C64.82727968 354.17604629 64.82727968 354.17604629 67.1484375 356.30078125 C67.98890625 357.11353516 68.829375 357.92628906 69.6953125 358.76367188 C71.47181856 360.45342436 73.25044319 362.14095249 75.03125 363.82617188 C80.64418772 369.26316889 84.29996125 373.11234205 85.43359375 381.02734375 C85.44492085 389.46603588 84.20182633 394.72540489 78.25 400.8125 C72.41530029 404.73970173 67.13035282 406.75056345 60 406 C52.16254853 404.42510514 47.78598938 400.55197548 42.4375 394.8125 C41.71498047 394.06291016 40.99246094 393.31332031 40.24804688 392.54101562 C38.48412915 390.70700846 36.73586267 388.86051494 35 387 C34.47833252 387.39179443 33.95666504 387.78358887 33.41918945 388.18725586 C31.97345058 389.27243475 30.52722143 390.3569607 29.08056641 391.44091797 C27.52531894 392.60634983 25.97132342 393.77345274 24.41796875 394.94140625 C16.99435147 400.33685489 9.65932481 404.73438034 0.40625 405.71875 C-6.74030702 406.8447578 -12.02937165 409.92878128 -18.125 413.6875 C-19.83424782 414.70753499 -21.54351396 415.72754073 -23.25384521 416.74575806 C-25.01413373 417.79674286 -26.76953685 418.85553665 -28.52441406 419.91552734 C-33.96798413 423.19339844 -39.48825788 426.33866937 -45 429.5 C-47.16701384 430.74939804 -49.33367983 431.99939959 -51.5 433.25 C-97 459.5 -97 459.5 -142.5 485.75 C-143.57386963 486.3699585 -144.64773926 486.98991699 -145.75415039 487.62866211 C-147.90551933 488.86899629 -150.05833727 490.10682079 -152.21264648 491.34204102 C-157.27383338 494.24801318 -162.31698764 497.17636275 -167.31021118 500.19747925 C-169.08012844 501.26675452 -170.85467544 502.32789146 -172.63085938 503.38671875 C-174.85922672 504.71841238 -177.07862675 506.06527062 -179.28710938 507.4296875 C-185.15920969 510.9147247 -190.08707617 513.66512082 -197 512 C-199.73054433 510.88788084 -202.03339841 509.44482521 -204.4375 507.75 C-205.04787109 507.35425781 -205.65824219 506.95851563 -206.28710938 506.55078125 C-209.55860907 504.35054441 -211.62715338 502.69601033 -213 499 C-213.25299966 496.15623659 -213.25299966 496.15623659 -213.25726891 492.79134274 C-213.2637178 491.50827266 -213.27016669 490.22520258 -213.276811 488.90325159 C-213.2738686 487.47626706 -213.27073315 486.04928292 -213.26742554 484.62229919 C-213.27116096 483.10875775 -213.27576204 481.59521823 -213.28115618 480.08168179 C-213.29341564 475.91615473 -213.29312224 471.75070781 -213.29076743 467.58516681 C-213.29035999 463.09485624 -213.30139163 458.60457161 -213.31088257 454.11427307 C-213.32751111 445.31325467 -213.33299301 436.51226306 -213.33410732 427.71123027 C-213.33505719 420.55609505 -213.33916442 413.40096868 -213.34550858 406.24583626 C-213.36312823 385.9609762 -213.37234664 365.67613732 -213.37084763 345.39126956 C-213.37076772 344.29720676 -213.3706878 343.20314395 -213.37060547 342.07592773 C-213.37052371 340.98052892 -213.37044195 339.8851301 -213.37035771 338.75653739 C-213.36954523 321.01357126 -213.38867134 303.27069012 -213.4168822 285.52774858 C-213.44561835 267.31063286 -213.459422 249.09355856 -213.45769465 230.8764196 C-213.45703086 220.64853299 -213.46251778 210.42073539 -213.48405075 200.19286919 C-213.50227243 191.48186635 -213.50660197 182.77099285 -213.4930319 174.05997919 C-213.48650645 169.6170885 -213.48636959 165.17444585 -213.5037384 160.73157883 C-213.51949363 156.65946398 -213.51658068 152.58779332 -213.49917014 148.51568914 C-213.49610554 147.04724925 -213.49971222 145.578776 -213.51089029 144.11037546 C-213.59666925 132.03655343 -212.06323205 122.04366544 -203.43652344 113.09082031 C-198.78490219 109.09918861 -193.49670876 106.27072817 -188.125 103.375 C-186.88062234 102.68687408 -185.63731386 101.99681156 -184.39501953 101.30493164 C-181.84573875 99.88655742 -179.29254154 98.4756622 -176.73632812 97.06982422 C-171.06815685 93.94224872 -165.47403115 90.68670087 -159.875 87.4375 C-157.72678496 86.19622951 -155.57834736 84.95534409 -153.4296875 83.71484375 C-152.36975586 83.10237793 -151.30982422 82.48991211 -150.21777344 81.85888672 C-144.81329355 78.73675395 -139.40652588 75.61858796 -134 72.5 C-131.8333225 71.25001878 -129.66665583 70.00001879 -127.5 68.75 C-114.5 61.25 -114.5 61.25 -111.24951172 59.37475586 C-109.08442929 58.12564482 -106.91939018 56.87645871 -104.75439453 55.62719727 C-99.31384294 52.48797691 -93.87252784 49.35009437 -88.4296875 46.21484375 C-76.95716783 39.60448718 -65.50027688 32.96888061 -54.06933594 26.28686523 C-48.74466599 23.17669787 -43.41307476 20.07898645 -38.0703125 17 C-37.48916687 16.66508545 -36.90802124 16.3301709 -36.30926514 15.98510742 C-33.50788817 14.37126114 -30.70559212 12.75903111 -27.90234375 11.1484375 C-26.88527344 10.56320312 -25.86820313 9.97796875 -24.8203125 9.375 C-23.84312256 8.81312988 -22.86593262 8.25125977 -21.85913086 7.67236328 C-18.25812873 5.56606454 -14.71345641 3.37317004 -11.18237305 1.15185547 C-7.30541122 -0.89440316 -4.19529636 -1.21735588 0 0 Z " fill="#F3F2F9" transform="translate(320,0)"/>
<path d="M0 0 C5.74840566 3.76113781 8.44563924 10.09490986 10.25 16.5 C10.52821125 18.95140859 10.73557345 21.41179765 10.875 23.875 C10.98714844 25.74285156 10.98714844 25.74285156 11.1015625 27.6484375 C11.15054688 28.58945313 11.19953125 29.53046875 11.25 30.5 C12.32314453 29.62988281 12.32314453 29.62988281 13.41796875 28.7421875 C25.36742526 19.37430827 38.61090068 11.9542604 54.25 13.5 C62.0407804 15.62762923 69.04269055 19.29238066 76 23.3125 C76.89332031 23.80814453 77.78664063 24.30378906 78.70703125 24.81445312 C91.40698182 32.08091969 98.12267182 42.24256391 102.1875 56.25 C107.42007346 82.77037233 101.73703878 113.19135471 89.25390625 136.96875 C88.09076091 139.90150557 88.1273736 140.61758087 89.25 143.5 C91.07727968 145.67604629 91.07727968 145.67604629 93.3984375 147.80078125 C94.23890625 148.61353516 95.079375 149.42628906 95.9453125 150.26367188 C97.72181856 151.95342436 99.50044319 153.64095249 101.28125 155.32617188 C106.89418772 160.76316889 110.54996125 164.61234205 111.68359375 172.52734375 C111.69492085 180.96603588 110.45182633 186.22540489 104.5 192.3125 C98.66530029 196.23970173 93.38035282 198.25056345 86.25 197.5 C78.41254853 195.92510514 74.03598938 192.05197548 68.6875 186.3125 C67.96498047 185.56291016 67.24246094 184.81332031 66.49804688 184.04101562 C64.73412915 182.20700846 62.98586267 180.36051494 61.25 178.5 C60.72833252 178.89179443 60.20666504 179.28358887 59.66918945 179.68725586 C58.22345058 180.77243475 56.77722143 181.8569607 55.33056641 182.94091797 C53.77531894 184.10634983 52.22132342 185.27345274 50.66796875 186.44140625 C41.48956965 193.11222171 32.55071111 197.58961652 21.125 197.8125 C19.26488281 197.86857422 19.26488281 197.86857422 17.3671875 197.92578125 C8.7700769 197.49180772 0.87824654 192.42648753 -6.375 188.1875 C-7.1690625 187.73955078 -7.963125 187.29160156 -8.78125 186.83007812 C-20.8581133 179.83143685 -28.00617869 171.84037736 -32.125 158.375 C-33.48439083 153.2295372 -34.17370246 148.79628079 -33.75 143.5 C-50.8893025 152.81096331 -67.88429413 162.36041257 -84.70532227 172.23486328 C-93.09363311 177.14680693 -101.55412056 181.92236145 -110.05371094 186.63891602 C-114.48990649 189.10201567 -118.91287634 191.56994157 -123.2578125 194.19140625 C-123.90476074 194.57828613 -124.55170898 194.96516602 -125.21826172 195.36376953 C-126.84523796 196.34423562 -128.46224452 197.34119681 -130.078125 198.33984375 C-133.17881974 199.68619804 -134.58995675 199.58136232 -137.75 198.5 C-139.44470335 196.80529665 -139.08208662 194.75978877 -139.1875 192.4375 C-139.27837891 191.05884766 -139.27837891 191.05884766 -139.37109375 189.65234375 C-138.23719404 183.89726785 -134.98587196 180.10981901 -130.27026367 176.71459961 C-127.26685638 174.8815476 -124.21802492 173.17738538 -121.125 171.5 C-119.37981773 170.5238811 -117.63464909 169.54773708 -115.89019775 168.5703125 C-114.06886209 167.55296212 -112.24338745 166.5433909 -110.41699219 165.53515625 C-105.07714857 162.58088396 -99.78835819 159.53760973 -94.49533081 156.50054932 C-92.16011677 155.16183645 -89.8223151 153.82767758 -87.48454285 152.49343872 C-80.00045932 148.22141408 -72.52817174 143.92913251 -65.0625 139.625 C-63.99193359 139.00810303 -62.92136719 138.39120605 -61.81835938 137.75561523 C-57.00289353 134.9756489 -52.19717755 132.18175485 -47.41796875 129.33984375 C-46.62028076 128.86595215 -45.82259277 128.39206055 -45.00073242 127.90380859 C-43.54657664 127.0372144 -42.09473906 126.16671296 -40.64575195 125.29150391 C-35.9681456 122.5 -35.9681456 122.5 -33.75 122.5 C-33.74742187 121.87738281 -33.74484375 121.25476563 -33.7421875 120.61328125 C-33.43327225 113.23020674 -31.85401763 106.58200884 -29.8125 99.5 C-29.41490479 98.12001831 -29.41490479 98.12001831 -29.00927734 96.7121582 C-27.84246373 92.78185771 -26.67379823 89.13343877 -24.75 85.5 C-25.74 85.995 -25.74 85.995 -26.75 86.5 C-31.89906185 87.01322348 -36.35554346 87.11975846 -41.125 85 C-48.73824771 77.74928789 -50.79375684 69.69535276 -51.125 59.4375 C-50.79049955 40.66830797 -42.4606856 22.46060159 -29.40625 9.1015625 C-21.37696555 1.44400418 -11.23415544 -5.44686324 0 0 Z " fill="#645697" transform="translate(293.75,208.5)"/>
<path d="M0 0 C3.1840397 1.41243224 6.09761164 3.0787973 9 5 C9 5.66 9 6.32 9 7 C8.47535156 7.17273438 7.95070313 7.34546875 7.41015625 7.5234375 C-0.78271697 10.49522845 -7.94048961 14.97300294 -15.37548828 19.43847656 C-20.36555549 22.4074505 -25.40453263 25.29206612 -30.4375 28.1875 C-32.68360361 29.48175372 -34.92969723 30.77602478 -37.17578125 32.0703125 C-39.45049125 33.3802597 -41.72523069 34.69015579 -44 36 C-56.68347618 43.30469788 -69.36249179 50.61598343 -82 58 C-93.55012389 64.74866475 -105.13485821 71.43634944 -116.7265625 78.11328125 C-119.9647516 79.9796838 -123.20139438 81.84873763 -126.4375 83.71875 C-136.00710762 89.24735648 -145.58051971 94.76842966 -155.18380737 100.23834229 C-160.45667637 103.24181897 -165.72304494 106.25647866 -170.98681641 109.27587891 C-173.61531028 110.77988342 -176.25020231 112.27185461 -178.88671875 113.76171875 C-188.72985903 119.38998769 -195.65376099 124.84447661 -199 136 C-199.56641242 141.03168166 -199.52830036 146.04575459 -199.48774719 151.102005 C-199.49021025 152.63310155 -199.49442859 154.1641961 -199.50024194 155.69528359 C-199.51109113 159.8859556 -199.49709674 164.07622763 -199.47892153 168.2668606 C-199.46367166 172.79238946 -199.47158383 177.31788605 -199.47660828 181.84342957 C-199.48282758 190.70096188 -199.46786087 199.55833775 -199.44588266 208.41584001 C-199.42117798 218.72850019 -199.41827737 229.04113185 -199.41647889 239.35381725 C-199.41260411 257.74934003 -199.39014615 276.14479237 -199.35668945 294.5402832 C-199.32423841 312.39738255 -199.30300536 330.25444471 -199.29516602 348.11157227 C-199.29468052 349.21213451 -199.29419503 350.31269674 -199.29369483 351.44660936 C-199.29176618 355.87016567 -199.28985405 360.29372199 -199.28797873 364.71727832 C-199.28045061 381.72918956 -199.26482334 398.74109467 -199.24748212 415.75299842 C-199.24224408 420.89434671 -199.23731106 426.03569489 -199.2331202 431.17704415 C-199.22420559 441.98618595 -199.21243925 452.79530993 -199.19155417 463.60443602 C-199.18294892 468.07475887 -199.17586718 472.54506936 -199.17303848 477.01539993 C-199.17037537 481.10408459 -199.16309717 485.19273356 -199.15204801 489.28140392 C-199.14883722 490.7636969 -199.14730981 492.24599464 -199.1475983 493.72829107 C-199.1477232 495.73703945 -199.14115582 497.74578496 -199.13422108 499.75452137 C-199.13243251 500.87209601 -199.13064394 501.98967065 -199.12880117 503.1411112 C-199.01775746 505.605853 -198.71722389 507.65163016 -198 510 C-202.8783336 508.32307283 -209.20821392 505.78355049 -212.0945164 501.29966217 C-213.25572885 498.3505239 -213.25324578 495.9622528 -213.25726891 492.79134274 C-213.2637178 491.50827266 -213.27016669 490.22520258 -213.276811 488.90325159 C-213.2738686 487.47626706 -213.27073315 486.04928292 -213.26742554 484.62229919 C-213.27116096 483.10875775 -213.27576204 481.59521823 -213.28115618 480.08168179 C-213.29341564 475.91615473 -213.29312224 471.75070781 -213.29076743 467.58516681 C-213.29035999 463.09485624 -213.30139163 458.60457161 -213.31088257 454.11427307 C-213.32751111 445.31325467 -213.33299301 436.51226306 -213.33410732 427.71123027 C-213.33505719 420.55609505 -213.33916442 413.40096868 -213.34550858 406.24583626 C-213.36312823 385.9609762 -213.37234664 365.67613732 -213.37084763 345.39126956 C-213.37076772 344.29720676 -213.3706878 343.20314395 -213.37060547 342.07592773 C-213.37052371 340.98052892 -213.37044195 339.8851301 -213.37035771 338.75653739 C-213.36954523 321.01357126 -213.38867134 303.27069012 -213.4168822 285.52774858 C-213.44561835 267.31063286 -213.459422 249.09355856 -213.45769465 230.8764196 C-213.45703086 220.64853299 -213.46251778 210.42073539 -213.48405075 200.19286919 C-213.50227243 191.48186635 -213.50660197 182.77099285 -213.4930319 174.05997919 C-213.48650645 169.6170885 -213.48636959 165.17444585 -213.5037384 160.73157883 C-213.51949363 156.65946398 -213.51658068 152.58779332 -213.49917014 148.51568914 C-213.49610554 147.04724925 -213.49971222 145.578776 -213.51089029 144.11037546 C-213.59666925 132.03655343 -212.06323205 122.04366544 -203.43652344 113.09082031 C-198.78490219 109.09918861 -193.49670876 106.27072817 -188.125 103.375 C-186.88062234 102.68687408 -185.63731386 101.99681156 -184.39501953 101.30493164 C-181.84573875 99.88655742 -179.29254154 98.4756622 -176.73632812 97.06982422 C-171.06815685 93.94224872 -165.47403115 90.68670087 -159.875 87.4375 C-157.72678496 86.19622951 -155.57834736 84.95534409 -153.4296875 83.71484375 C-152.36975586 83.10237793 -151.30982422 82.48991211 -150.21777344 81.85888672 C-144.81329355 78.73675395 -139.40652588 75.61858796 -134 72.5 C-131.8333225 71.25001878 -129.66665583 70.00001879 -127.5 68.75 C-114.5 61.25 -114.5 61.25 -111.24951172 59.37475586 C-109.08442929 58.12564482 -106.91939018 56.87645871 -104.75439453 55.62719727 C-99.31384294 52.48797691 -93.87252784 49.35009437 -88.4296875 46.21484375 C-76.95716783 39.60448718 -65.50027688 32.96888061 -54.06933594 26.28686523 C-48.74466599 23.17669787 -43.41307476 20.07898645 -38.0703125 17 C-37.48916687 16.66508545 -36.90802124 16.3301709 -36.30926514 15.98510742 C-33.50788817 14.37126114 -30.70559212 12.75903111 -27.90234375 11.1484375 C-26.88527344 10.56320312 -25.86820313 9.97796875 -24.8203125 9.375 C-23.35404419 8.53255737 -23.35404419 8.53255737 -21.8581543 7.6730957 C-18.26100435 5.56740948 -14.72647367 3.36607415 -11.20678711 1.13354492 C-7.44446057 -0.79902307 -4.07553092 -0.98350486 0 0 Z " fill="#C3B6EF" transform="translate(320,0)"/>
<path d="M0 0 C1.94326172 -0.05607422 1.94326172 -0.05607422 3.92578125 -0.11328125 C10.68000195 0.65121517 14.92615573 4.9542416 19.07421875 10.03125 C27.83290306 22.41641135 25.90202257 40.2187623 23.6875 54.5625 C19.44040119 73.81336845 9.57598679 91.39981724 -4.3125 105.3125 C-5.03179687 106.04339844 -5.75109375 106.77429688 -6.4921875 107.52734375 C-14.28015233 114.96886887 -23.81064132 119.75593451 -34.6875 119.58203125 C-41.68642492 118.86339164 -46.41504413 114.97772018 -50.7734375 109.6640625 C-59.24293626 96.72335627 -58.69734457 79.93431529 -55.79077148 65.31738281 C-52.00861314 48.23828099 -44.10037902 31.27916692 -32.3125 18.3125 C-31.466875 17.3740625 -30.62125 16.435625 -29.75 15.46875 C-21.36191078 6.47387565 -12.5397948 0.2356638 0 0 Z " fill="#DCD6F2" transform="translate(353.3125,259.6875)"/>
<path d="M0 0 C5.83795591 4.24578612 9.59509917 9.83961483 10.75 17 C11.98558996 38.75712751 5.38630257 58.90754307 -8.8515625 75.55078125 C-15.51014422 82.35034271 -22.59636319 86.86058951 -32.1875 87.4375 C-36.64677877 87.33020908 -39.3689732 86.40843068 -42.78515625 83.546875 C-50.03719719 75.88871977 -50.73459857 66.08719742 -50.5546875 55.9921875 C-49.62278114 40.14977935 -41.8552825 23.69486632 -31.25 12 C-30.68539062 11.36707031 -30.12078125 10.73414063 -29.5390625 10.08203125 C-21.40360374 1.44961008 -11.9446005 -3.67526169 0 0 Z " fill="#473B6D" transform="translate(208.25,257)"/>
<path d="M0 0 C0.44123874 12.97739002 0.77830102 25.95298389 0.98443127 38.93636036 C1.0833995 44.9663807 1.21744679 50.99125394 1.43334961 57.01831055 C1.64062659 62.84137076 1.75354598 68.65950236 1.80266762 74.48596764 C1.83763933 76.70216225 1.90595303 78.91810135 2.00887108 81.13218117 C2.64055637 95.29171888 2.64055637 95.29171888 0 101 C-5.04454823 106.38664714 -12.05720549 109.70410999 -19 112 C-19.66 112 -20.32 112 -21 112 C-21.20855565 99.06555641 -21.36845792 86.13151287 -21.46630955 73.19573021 C-21.51327502 67.18896464 -21.57697158 61.18334949 -21.67895508 55.17724609 C-21.77676675 49.38053725 -21.83056246 43.58493452 -21.85389519 37.78746414 C-21.87052154 35.57612311 -21.90299085 33.3648425 -21.95157051 31.15397263 C-22.01695589 28.0549332 -22.02590133 24.96045837 -22.02172852 21.86083984 C-22.07026474 20.49058655 -22.07026474 20.49058655 -22.11978149 19.09265137 C-22.08118599 16.44204975 -21.94686078 14.4798969 -21 12 C-18.28110011 9.40852337 -15.32015041 7.71753746 -12 6 C-11.01128906 5.37351562 -10.02257812 4.74703125 -9.00390625 4.1015625 C-8.19824219 3.61429687 -7.39257812 3.12703125 -6.5625 2.625 C-5.73878906 2.12226562 -4.91507812 1.61953125 -4.06640625 1.1015625 C-2 0 -2 0 0 0 Z " fill="#5DADF9" transform="translate(305,72)"/>
<path d="M0 0 C5.11184073 4.29738942 9.99253603 8.751541 14.75 13.4375 C15.40871094 14.06720703 16.06742187 14.69691406 16.74609375 15.34570312 C21.60797058 20.14347813 24.44148771 24.10047725 25.43359375 31.02734375 C25.44492085 39.46603588 24.20182633 44.72540489 18.25 50.8125 C12.41530029 54.73970173 7.13035282 56.75056345 0 56 C-7.83745147 54.42510514 -12.21401062 50.55197548 -17.5625 44.8125 C-18.28501953 44.06291016 -19.00753906 43.31332031 -19.75195312 42.54101562 C-21.51587085 40.70700846 -23.26413733 38.86051494 -25 37 C-23.5128016 33.0285415 -21.9996371 30.70320658 -19 27.6875 C-13.39339326 21.6642472 -9.33860059 14.86734719 -5.12255859 7.83398438 C-3.49131333 5.16893122 -1.75435872 2.58537075 0 0 Z " fill="#7768AC" transform="translate(380,350)"/>
<path d="M0 0 C2.35020498 2.35020498 2.31914802 2.91909622 2.375 6.125 C2.18458987 11.29918831 1.33962473 14.97137387 -2 19 C-4.65478516 20.86865234 -4.65478516 20.86865234 -7.8515625 22.7734375 C-8.42622757 23.11805527 -9.00089264 23.46267303 -9.5929718 23.81773376 C-15.74060735 27.48610524 -21.95879576 31.03410623 -28.1875 34.5625 C-30.63092863 35.94795309 -33.07361239 37.33470881 -35.515625 38.72265625 C-36.43927101 39.24740036 -36.43927101 39.24740036 -37.38157654 39.78274536 C-41.75230149 42.27238663 -46.09213245 44.8109738 -50.421875 47.37109375 C-51.61289542 48.0717741 -52.80405515 48.77221771 -53.99536133 49.47241211 C-56.24773611 50.79917092 -58.4952018 52.13430803 -60.73706055 53.47875977 C-61.7506665 54.07358154 -62.76427246 54.66840332 -63.80859375 55.28125 C-64.69345459 55.80783203 -65.57831543 56.33441406 -66.48999023 56.87695312 C-69.26043148 58.11652415 -71.00018445 58.38456725 -74 58 C-76.43907744 55.56092256 -76.34891288 54.74131058 -76.4375 51.375 C-76.47746094 50.55773437 -76.51742187 49.74046875 -76.55859375 48.8984375 C-75.50193022 43.41560995 -73.07729182 39.54226027 -68.57055664 36.19628906 C-65.53298181 34.33933874 -62.44797687 32.62386689 -59.3125 30.9375 C-57.56808491 29.96645211 -55.82368698 28.99537173 -54.08035278 28.02238464 C-52.27044726 27.0152526 -50.45609733 26.01650026 -48.64111328 25.01855469 C-42.79196831 21.79067222 -37.02789598 18.4156904 -31.25 15.0625 C-29.0953625 13.82237718 -26.94042629 12.58277318 -24.78515625 11.34375 C-21.31930573 9.347528 -17.86631516 7.33388522 -14.43359375 5.28125 C-13.78422852 4.89702881 -13.13486328 4.51280762 -12.46582031 4.11694336 C-10.85158271 3.15979177 -9.2437699 2.19182538 -7.63671875 1.22265625 C-4.79543149 -0.09485918 -3.09014106 -0.4308114 0 0 Z " fill="#453A6D" transform="translate(231,388)"/>
<path d="M0 0 C3.06011002 1.57377087 3.73247888 2.99142101 5.1875 6.125 C7.88500007 22.40024407 3.19504085 37.30379222 -5.95703125 50.71875 C-10.25695816 56.29507626 -14.95829844 61.84026615 -21.8125 64.125 C-24.5 64.125 -24.5 64.125 -26.8125 63.125 C-31.82214485 56.32619628 -31.45454216 49.13934926 -30.421875 41.07421875 C-27.44898253 25.77144535 -19.56356992 10.9307213 -6.5625 1.9375 C-4.06572979 0.54268404 -2.91479366 0.12954639 0 0 Z " fill="#F0EEF7" transform="translate(200.8125,267.875)"/>
<path d="M0 0 C3.34821627 4.11352285 3.54364626 8.20425134 3.5 13.3125 C3.49355469 14.10358154 3.48710937 14.89466309 3.48046875 15.7097168 C2.96418844 32.72828579 -4.76933426 47.5119985 -16.921875 59.29296875 C-20.99012744 62.63474754 -23.73827387 63.23916937 -29 63 C-34.25946114 53.70202406 -34.07571361 45.32380848 -31.4375 35.125 C-27.3384583 22.13992384 -21.20150758 8.93357436 -9.3125 1.375 C-5.80372191 -0.08147392 -3.73513524 -0.76400494 0 0 Z " fill="#F2F1F8" transform="translate(288,220)"/>
<path d="M0 0 C0.44220235 8.93529506 0.77871197 17.86678186 0.98443127 26.81066608 C1.08323484 30.96537781 1.2168431 35.112564 1.43334961 39.26293945 C2.80158066 66.15853563 2.80158066 66.15853563 -1.91009521 72.61907959 C-6.51101338 76.63197554 -13.62631994 81 -20 81 C-20 57.57 -20 34.14 -20 10 C-2 0 -2 0 0 0 Z " fill="#06DAAE" transform="translate(180,175)"/>
<path d="M0 0 C0.30198313 8.98796178 0.53255876 17.97416496 0.67355824 26.9661026 C0.74125635 31.14231689 0.83294331 35.31504869 0.98071289 39.48925781 C1.12259231 43.52259578 1.19980736 47.55260019 1.23340416 51.58824158 C1.25732155 53.12284369 1.30404105 54.6572742 1.37449074 56.19044495 C1.58725201 61.01518464 1.54977048 65.35992004 0 70 C-3.95223705 73.76040676 -8.01731406 75.76106042 -13 78 C-14.38393196 78.84093201 -14.38393196 78.84093201 -15.79582214 79.69885254 C-18 81 -18 81 -20 81 C-20.34866404 72.02955686 -20.61458752 63.06146605 -20.77718258 54.08570957 C-20.85525736 49.91675517 -20.96094788 45.75245542 -21.1315918 41.58618164 C-21.29548393 37.55920931 -21.384422 33.53668654 -21.42315865 29.50663567 C-21.45072685 27.97547194 -21.50458309 26.44453383 -21.58595085 24.91528511 C-21.83748161 19.98866803 -21.77300497 15.68766865 -20 11 C-15.83813926 6.7343377 -10.35114606 4.4226125 -5 2 C-2 0 -2 0 0 0 Z " fill="#06DAAE" transform="translate(273,121)"/>
<path d="M0 0 C1.07724406 13.13211809 1.07724406 13.13211809 -1.27734375 17.21484375 C-2.4708965 18.4083965 -3.68764844 19.57902568 -4.921875 20.73046875 C-14.26001264 30.92869802 -18.62431263 46.72346675 -18.3046875 60.21875 C-17.86641544 64.21938722 -16.68210144 67.35544688 -15 71 C-9.66149403 71.50842914 -7.26773545 70.1038076 -3 67 C-2.34 67 -1.68 67 -1 67 C-0.54971478 73.30399313 -1.38797371 77.71378634 -5 83 C-8.95598817 84.97799408 -13.68815624 84.42141249 -18 84 C-23.60372545 81.50945536 -26.37357611 77.36186915 -29 72 C-34.06057529 58.26415278 -30.97358663 42.81549025 -25.19921875 29.81640625 C-21.15697134 21.18333501 -10.87356202 0 0 0 Z " fill="#463C6E" transform="translate(274,211)"/>
<path d="M0 0 C0.48476139 6.91642671 0.81551681 13.82845778 1.04370117 20.75805664 C1.13883759 23.10965453 1.26822036 25.4601399 1.43334961 27.80786133 C2.5118211 43.54419606 2.5118211 43.54419606 0 50 C-4.91514788 55.63384789 -11.99984398 58.70777986 -19 61 C-19.33 61 -19.66 61 -20 61 C-20.22852429 53.98973385 -20.38593408 46.98042959 -20.49438477 39.96728516 C-20.53959816 37.5828055 -20.60098271 35.19857472 -20.67895508 32.81494141 C-20.78836778 29.38381619 -20.83921548 25.95599088 -20.87890625 22.5234375 C-20.92535782 21.46071625 -20.97180939 20.397995 -21.01966858 19.30307007 C-21.0246056 12.03614518 -21.0246056 12.03614518 -18.03413391 9.01199341 C-15.74722276 7.47137914 -13.47858082 6.20212214 -11 5 C-10.08347656 4.44570312 -9.16695312 3.89140625 -8.22265625 3.3203125 C-7.50980469 2.92585937 -6.79695312 2.53140625 -6.0625 2.125 C-5.33160156 1.71507812 -4.60070312 1.30515625 -3.84765625 0.8828125 C-2 0 -2 0 0 0 Z " fill="#F7E041" transform="translate(211,177)"/>
<path d="M0 0 C5.73997893 3.75562426 8.4636775 10.09707781 10.25 16.5 C11.91342575 29.78013673 11.91342575 29.78013673 8.84765625 34.79296875 C7.51682935 36.02582067 6.13802711 37.2080108 4.7265625 38.34765625 C1.58047046 41.0818782 -0.74211873 44.14080935 -3.1875 47.5 C-3.6505957 48.13389648 -4.11369141 48.76779297 -4.59082031 49.42089844 C-8.88856214 55.44971676 -12.47404382 61.81641007 -15.97265625 68.33203125 C-17.75 71.5 -17.75 71.5 -19.75 73.5 C-20.6875 71 -20.6875 71 -20.75 67.5 C-19.50390625 65.8125 -19.50390625 65.8125 -17.75 64 C-6.33692511 52.06192366 -3.24360812 36.37191051 -3.44921875 20.44140625 C-3.70648258 17.07024777 -3.90813774 15.25178625 -5.75 12.5 C-11.52662212 11.92233779 -14.81364457 13.77649356 -19.75 16.5 C-19.75 11.55 -19.75 6.6 -19.75 1.5 C-13.27851769 -1.80458671 -6.83090486 -3.34120347 0 0 Z " fill="#0ED6AE" transform="translate(293.75,208.5)"/>
<path d="M0 0 C2.86553561 33.2426623 2.86553561 33.2426623 -1.734375 40.87939453 C-6.45497727 45.36459443 -13.33734781 49 -20 49 C-23.02840389 15.71698302 -23.02840389 15.71698302 -18.15136719 8.12060547 C-13.56813468 4.03231629 -6.3734298 0 0 0 Z " fill="#FE4858" transform="translate(242,171)"/>
<path d="M0 0 C5.87449467 4.27235976 9.48925051 9.81372792 10.75 17 C10.9253125 17.72316406 11.100625 18.44632812 11.28125 19.19140625 C11.68653238 21.91324586 11.75299075 23.41763921 10.75 26 C2.05458716 33 2.05458716 33 -2.25 33 C-2.28738281 31.90300781 -2.32476562 30.80601562 -2.36328125 29.67578125 C-2.42896653 28.22132143 -2.49541299 26.76689584 -2.5625 25.3125 C-2.58505859 24.59126953 -2.60761719 23.87003906 -2.63085938 23.12695312 C-2.85678337 18.62901178 -3.49937312 15.73878775 -6.25 12 C-11.53137429 12.51525603 -14.82221156 14.25477117 -19.25 17 C-19.25 12.05 -19.25 7.1 -19.25 2 C-12.26129959 -1.4943502 -7.46262688 -2.29619289 0 0 Z " fill="#FA4A5B" transform="translate(208.25,257)"/>
<path d="M0 0 C4.33701455 3.08156297 5.57886419 5.91626976 6.6875 11.125 C7.59248253 18.50731116 5.42069311 23.18329854 1 29 C-3.10615911 33.32227275 -8.5132206 35.68808363 -14.4453125 36.21875 C-20.40909091 36.29545455 -20.40909091 36.29545455 -23 35 C-22.41912542 31.40335195 -21.10279602 29.8056298 -18.5625 27.25 C-13.1418604 21.38008216 -9.24717403 14.65891805 -5.13867188 7.85009766 C-3.49722923 5.1831053 -1.75741306 2.59178119 0 0 Z " fill="#DBD5EF" transform="translate(380,350)"/>
<path d="M0 0 C3.08347331 1.43173732 5.69074392 3.14678434 8.40625 5.1875 C9.23253906 5.80367188 10.05882812 6.41984375 10.91015625 7.0546875 C12.63671875 8.3515625 14.36328125 9.6484375 16.08984375 10.9453125 C17.32927734 11.86957031 17.32927734 11.86957031 18.59375 12.8125 C19.34333984 13.37582031 20.09292969 13.93914062 20.86523438 14.51953125 C22.85162425 15.89710081 24.81093103 16.98355801 27 18 C20.0802618 18.51047249 14.69713036 18.22271774 9 14 C4.57897577 9.90161462 1.35095006 6.0042225 0 0 Z " fill="#C2B7E7" transform="translate(299,361)"/>
<path d="M0 0 C0.66 0.66 1.32 1.32 2 2 C1.45730469 2.86882812 0.91460937 3.73765625 0.35546875 4.6328125 C-0.36732392 5.7967903 -1.08997248 6.96085759 -1.8125 8.125 C-2.16892578 8.69476563 -2.52535156 9.26453125 -2.89257812 9.8515625 C-5.13935199 13.47938085 -7.14824719 17.15629859 -9 21 C-9.33 21 -9.66 21 -10 21 C-10.9375 18.5 -10.9375 18.5 -11 15 C-9.46311996 12.80128434 -7.71966831 10.96614071 -5.859375 9.03515625 C-3.31841512 6.25397957 -1.73465054 3.33052904 0 0 Z " fill="#21C7AF" transform="translate(284,261)"/>
</svg>
