<?xml version="1.0" encoding="UTF-8"?>
<svg version="1.1" xmlns="http://www.w3.org/2000/svg" width="512" height="512">
<path d="M0 0 C2.61165905 1.10921192 2.61165905 1.10921192 5 3 C5.63085651 5.96162701 5.63085651 5.96162701 5.63923645 9.6627655 C5.64759213 10.34319847 5.6559478 11.02363144 5.66455668 11.72468358 C5.68654439 14.00992557 5.67286387 16.29356933 5.65942383 18.57885742 C5.66787372 20.21475956 5.6785163 21.85065164 5.69119263 23.48652649 C5.7194085 27.93262758 5.71685519 32.37824739 5.70889878 36.82441115 C5.70577987 41.46897657 5.73078997 46.11338703 5.75285339 50.75788879 C5.79035118 59.55514269 5.80244477 68.35224199 5.8054778 77.1495679 C5.81016242 87.16403191 5.84306654 97.17834045 5.87837565 107.19273603 C5.95038231 127.79513965 5.98683843 148.3974803 6 169 C7.08004303 169.5365773 8.16008606 170.0731546 9.27285767 170.62599182 C10.71400107 171.343777 12.15511051 172.06163037 13.59619141 172.77954102 C14.30518082 173.13154823 15.01417023 173.48355545 15.74464417 173.84622955 C22.07952687 177.00502571 28.25086638 180.38484839 34.375 183.9375 C35.36371094 184.49373047 36.35242188 185.04996094 37.37109375 185.62304688 C53.55803681 194.99611864 63.05961686 207.39932722 67.94140625 225.48828125 C78.02450223 270.05848811 63.42536228 317.92378496 40 356 C36.87594543 360.82786679 33.49501981 365.43565046 30 370 C29.27167969 370.95261719 28.54335938 371.90523438 27.79296875 372.88671875 C12.12324754 392.67856482 -8.18186543 410.33527757 -34 414 C-48.81712459 415.4332641 -59.69877789 409.36221198 -72 402 C-80.09334925 410.00601095 -87.61846585 418.41991211 -94.75390625 427.28515625 C-97.0883059 430.10673495 -99.51990598 432.80590712 -102 435.5 C-105.29331699 439.07792463 -108.44651321 442.71539666 -111.5 446.5 C-115.33719031 451.25595419 -119.39385101 455.75504801 -123.53125 460.25 C-125.94378104 462.93737634 -128.2325621 465.68965444 -130.5 468.5 C-134.33719031 473.25595419 -138.39385101 477.75504801 -142.53125 482.25 C-145.72203209 485.80428891 -148.70123943 489.50970715 -151.69921875 493.2265625 C-154.91539071 497.10344211 -158.31470573 500.79847478 -161.73828125 504.4921875 C-164.05028299 506.9774773 -164.05028299 506.9774773 -166.0703125 509.77734375 C-168 512 -168 512 -171.5625 512.6875 C-182.78880329 511.85745909 -191.47991718 502.50933984 -199 495 C-199.71671875 494.29488281 -200.4334375 493.58976562 -201.171875 492.86328125 C-204.45208064 489.40785095 -206.48515285 486.21889866 -208.1875 481.75390625 C-208.53167969 480.86131104 -208.87585938 479.96871582 -209.23046875 479.04907227 C-209.48441406 478.37287842 -209.73835938 477.69668457 -210 477 C-210.53367188 477.35416992 -211.06734375 477.70833984 -211.6171875 478.07324219 C-214.05778279 479.66617398 -216.52714528 481.20767136 -219 482.75 C-220.25876953 483.58724609 -220.25876953 483.58724609 -221.54296875 484.44140625 C-222.37441406 484.95058594 -223.20585937 485.45976562 -224.0625 485.984375 C-224.81660156 486.46616211 -225.57070312 486.94794922 -226.34765625 487.44433594 C-229.5553458 488.11634454 -230.33722969 487.53576526 -233.16577148 486.034729 C-233.88433823 485.658465 -234.60290497 485.282201 -235.34324646 484.89453506 C-235.88997513 484.59933849 -236.4367038 484.30414192 -237 484 C-237.27465683 454.45420662 -237.48657944 424.90847411 -237.61278395 395.36166906 C-237.62778969 391.86130918 -237.64332182 388.36095182 -237.65917969 384.8605957 C-237.66390128 383.81545371 -237.66390128 383.81545371 -237.66871825 382.74919773 C-237.72071763 371.51581622 -237.81520895 360.28318318 -237.92583355 349.05024343 C-238.03866246 337.49578646 -238.10393619 325.94176176 -238.12906194 314.38677984 C-238.14461841 307.90805316 -238.1808086 301.43101505 -238.26876068 294.95283318 C-238.3511151 288.83654145 -238.37516176 282.72260946 -238.35729218 276.60581589 C-238.36055395 274.37872866 -238.38388842 272.15155025 -238.4304657 269.92494774 C-238.7547723 253.60045756 -234.94567866 242.47697238 -226.50612497 228.53244603 C-224.17184737 224.60751805 -222.09250503 220.55722153 -220 216.5 C-219.18881025 214.95764351 -218.37645814 213.41589731 -217.5625 211.875 C-214.69370618 206.42429175 -211.84673064 200.96225472 -209 195.5 C-205.34783421 188.49229101 -201.68530286 181.49034069 -198 174.5 C-192.29908817 163.68452967 -186.65017659 152.8420372 -181 142 C-177.47569495 135.23726509 -173.94972028 128.47541328 -170.41845703 121.71630859 C-169.49412379 119.94623429 -168.57058177 118.17574652 -167.64794922 116.40478516 C-167.00043701 115.16220947 -167.00043701 115.16220947 -166.33984375 113.89453125 C-165.91977051 113.08757812 -165.49969727 112.280625 -165.06689453 111.44921875 C-164.23538611 109.86711942 -163.39399488 108.29017221 -162.54248047 106.71875 C-160.59801596 103.12802828 -158.79442973 99.59256609 -157.29296875 95.79296875 C-151.58334671 82.31890588 -140.00803635 77.34151711 -127.52392578 70.85888672 C-121.92054584 67.90307857 -116.46894694 64.69558728 -111 61.5 C-108.83409586 60.24867922 -106.66742698 58.9986812 -104.5 57.75 C-103.4275 57.13125 -102.355 56.5125 -101.25 55.875 C-65.5 35.25 -65.5 35.25 -62.24731445 33.37353516 C-60.08950197 32.12858718 -57.93178647 30.8834711 -55.77416992 29.63818359 C-50.22283408 26.43447349 -44.66963459 23.2340637 -39.11328125 20.0390625 C-37.98237061 19.3881665 -36.85145996 18.73727051 -35.6862793 18.06665039 C-33.46572174 16.78869292 -31.24454632 15.51180834 -29.02270508 14.23608398 C-24.38339282 11.56479163 -19.76122726 8.87938366 -15.2109375 6.05859375 C-14.51701904 5.62981934 -13.82310059 5.20104492 -13.1081543 4.75927734 C-11.35051227 3.66407444 -9.6024688 2.55350593 -7.85546875 1.44140625 C-4.80759574 -0.09712335 -3.34480358 -0.5655465 0 0 Z " fill="#EEEBF9" transform="translate(339,0)"/>
<path d="M0 0 C0 17.82 0 35.64 0 54 C1.65 53.34 3.3 52.68 5 52 C18.49654573 50.02980053 30.20531857 51.3623884 41.70751953 58.59130859 C44.41635032 60.2558404 47.18342481 61.79193555 49.96484375 63.33203125 C52.10285287 64.53155712 54.23957273 65.73338385 56.375 66.9375 C57.37394287 67.49775879 58.37288574 68.05801758 59.40209961 68.63525391 C75.56787142 78.0277328 85.06053234 90.40271942 89.94140625 108.48828125 C100.02450223 153.05848811 85.42536228 200.92378496 62 239 C58.87594543 243.82786679 55.49501981 248.43565046 52 253 C51.27167969 253.95261719 50.54335938 254.90523437 49.79296875 255.88671875 C34.12324754 275.67856482 13.81813457 293.33527757 -12 297 C-23.34888104 298.09778005 -32.57507348 295.05297709 -42.5 289.8125 C-43.54256958 289.28765015 -43.54256958 289.28765015 -44.60620117 288.75219727 C-49.23573927 286.17214391 -50.87843721 283.94289874 -52.40332031 278.88891602 C-53.75938216 274.59601482 -57.0879686 271.33291094 -60 268 C-60.66 267.24460937 -61.32 266.48921875 -62 265.7109375 C-68.55884902 258.69393359 -76.45699768 253.39161721 -85.27734375 249.5859375 C-88 248 -88 248 -89.2421875 245.625 C-89.45101562 244.75875 -89.65984375 243.8925 -89.875 243 C-90.09929687 242.13375 -90.32359375 241.2675 -90.5546875 240.375 C-91 238 -91 238 -91 235 C-92.06476563 235.6290625 -93.12953125 236.258125 -94.2265625 236.90625 C-100.98346085 240.8927965 -107.74244158 244.87209286 -114.5625 248.75 C-123.10480089 253.61010398 -131.58433901 258.57756491 -140.0703125 263.53515625 C-141.0387207 264.09734863 -142.00712891 264.65954102 -143.00488281 265.23876953 C-145.09529552 266.46800309 -147.1718564 267.72096565 -149.23730469 268.99169922 C-150.29079102 269.63252441 -151.34427734 270.27334961 -152.4296875 270.93359375 C-153.8525708 271.81422485 -153.8525708 271.81422485 -155.30419922 272.71264648 C-158.16473605 274.0786681 -159.87471337 274.35870159 -163 274 C-164.82793089 272.17206911 -164.34619549 269.64719905 -164.5234375 267.203125 C-163.48644095 262.83845294 -160.16424215 260.74777289 -156.5703125 258.43945312 C-153.5088833 256.62159758 -150.41801619 254.86646213 -147.3125 253.125 C-145.5704058 252.13444086 -143.8283188 251.14386878 -142.08666992 250.15252686 C-140.27577081 249.12303551 -138.46296396 248.09696634 -136.64990234 247.07128906 C-130.78752645 243.75024735 -124.95835567 240.37167021 -119.125 237 C-118.08770752 236.40203613 -117.05041504 235.80407227 -115.98168945 235.18798828 C-113.98304208 234.0357569 -111.99046733 232.87291658 -110.00463867 231.69873047 C-107 230 -107 230 -103.61450195 228.39892578 C-97.65199879 225.65576271 -97.65199879 225.65576271 -94.01171875 220.53808594 C-93.69066459 217.58206422 -93.74863679 214.84186501 -93.9375 211.875 C-93.95753586 209.71490488 -93.96910729 207.55471637 -93.97265625 205.39453125 C-93.99416748 203.77732178 -93.99416748 203.77732178 -94.01611328 202.12744141 C-93.82185486 164.42364713 -74.86146799 115.86146799 -48 89 C-48.0025666 87.13816088 -48.07555097 85.27639051 -48.17553711 83.41723633 C-48.46454216 77.40783886 -48.65436855 71.40645282 -48.77020931 65.39185047 C-48.84585586 61.75215101 -48.96407869 58.1245982 -49.18286133 54.49047852 C-50.54052058 31.13559146 -50.54052058 31.13559146 -44.74905396 24.37072754 C-39.0238346 19.80499154 -32.6338333 16.89818959 -25.87130737 14.18600464 C-22.26934281 12.69819921 -19.16970371 10.86973751 -15.87890625 8.7890625 C-14.96818359 8.24765625 -14.05746094 7.70625 -13.11914062 7.1484375 C-11.32436306 6.07897494 -9.53014046 5.00858076 -7.73632812 3.9375 C-6.85525391 3.41414063 -5.97417969 2.89078125 -5.06640625 2.3515625 C-4.30271729 1.89604004 -3.53902832 1.44051758 -2.75219727 0.97119141 C-1 0 -1 0 0 0 Z " fill="#014069" transform="translate(317,117)"/>
<path d="M0 0 C0.74636719 -0.02900391 1.49273437 -0.05800781 2.26171875 -0.08789062 C6.06346101 -0.13162748 8.02829396 0.02311776 11.33984375 2.0546875 C24.8078804 16.13158656 24.97505042 36.08712857 24.77734375 54.35546875 C24.53192003 63.35555941 23.01805038 71.69060414 20.5 80.3125 C20.28037598 81.06821289 20.06075195 81.82392578 19.83447266 82.60253906 C12.84497233 106.01959111 2.20081836 127.30086159 -14.5 145.3125 C-15.345625 146.22773438 -16.19125 147.14296875 -17.0625 148.0859375 C-28.53015777 160.01946887 -43.59288062 170.1069604 -60.625 170.5625 C-69.64855927 170.25941862 -69.64855927 170.25941862 -73.2421875 166.48046875 C-78.67787085 159.44674115 -81.0951341 151.75934304 -83.5 143.3125 C-83.77154907 142.41289551 -83.77154907 142.41289551 -84.04858398 141.49511719 C-85.12828986 136.27468964 -84.68484056 130.74574415 -84.6875 125.4375 C-84.69974609 124.1896875 -84.71199219 122.941875 -84.72460938 121.65625 C-84.74248429 110.14480335 -83.58619973 98.84838718 -80.4375 87.75 C-80.22907471 87.01168945 -80.02064941 86.27337891 -79.8059082 85.51269531 C-72.55579081 61.1067621 -59.92831868 39.8039139 -42.5 21.3125 C-41.91605469 20.67570312 -41.33210938 20.03890625 -40.73046875 19.3828125 C-29.76733913 7.82916302 -15.95913938 0.2067246 0 0 Z " fill="#C9C4DA" transform="translate(354.5,210.6875)"/>
<path d="M0 0 C0.99 1.485 0.99 1.485 2 3 C0.71719132 6.84842603 -0.49952643 7.12677617 -4 9.0625 C-5.09957031 9.68125 -6.19914063 10.3 -7.33203125 10.9375 C-7.92967285 11.27136719 -8.52731445 11.60523438 -9.14306641 11.94921875 C-11.66853398 13.37830269 -14.15798435 14.86498037 -16.65063477 16.3503418 C-24.38102964 20.95077456 -32.20384182 25.37284964 -40.0625 29.75 C-51.46968275 36.10720894 -62.76327249 42.64346559 -74.02490234 49.25439453 C-78.97058306 52.1562177 -83.92250519 55.04732607 -88.875 57.9375 C-90.34259766 58.79444458 -90.34259766 58.79444458 -91.83984375 59.66870117 C-100.4962315 64.71802526 -109.18031159 69.71879489 -117.86865234 74.71289062 C-124.57237682 78.57400663 -131.24114481 82.48410312 -137.81469727 86.5637207 C-141.78867235 89 -141.78867235 89 -144 89 C-143.83734146 89.56164856 -143.67468292 90.12329712 -143.50709534 90.70196533 C-142.97002279 93.13584956 -142.879779 95.2777898 -142.88647461 97.76855469 C-142.88658791 99.17956451 -142.88658791 99.17956451 -142.88670349 100.61907959 C-142.89186478 101.62650208 -142.89702606 102.63392456 -142.90234375 103.671875 C-142.9037587 104.70942932 -142.90517365 105.74698364 -142.90663147 106.815979 C-142.91222553 110.12734876 -142.92477697 113.43865071 -142.9375 116.75 C-142.94251577 118.99609277 -142.94707854 121.24218661 -142.95117188 123.48828125 C-142.96219301 128.9922106 -142.97892526 134.49610046 -143 140 C-136.32527546 136.72486325 -129.73839921 133.40976564 -123.375 129.5625 C-121.91343182 128.6915806 -120.45114263 127.82187049 -118.98828125 126.953125 C-118.19760254 126.48326172 -117.40692383 126.01339844 -116.59228516 125.52929688 C-111.60395765 122.58647492 -106.58145592 119.70266469 -101.5625 116.8125 C-99.90323486 115.85645874 -99.90323486 115.85645874 -98.21044922 114.88110352 C-95.93876335 113.57237584 -93.66695245 112.26386516 -91.39501953 110.95556641 C-84.85833245 107.19036696 -78.3250674 103.41923265 -71.79174805 99.64819336 C-66.75112985 96.73918938 -61.70955136 93.83189852 -56.66400146 90.93145752 C-54.88250422 89.90724335 -53.10135678 88.88242349 -51.3203125 87.85742188 C-49.08923375 86.57366625 -46.85750427 85.29104061 -44.625 84.00976562 C-39.53147674 81.07742558 -34.50265913 78.11637589 -29.62548828 74.83374023 C-28 74 -28 74 -25 74.1875 C-24.34 74.455625 -23.68 74.72375 -23 75 C-21.34840989 80.78056537 -21.34840989 80.78056537 -22.90039062 83.68505859 C-27.52365105 89.21237242 -33.0652416 92.22525924 -39.375 95.5625 C-41.6378046 96.79357915 -43.89949733 98.02670386 -46.16015625 99.26171875 C-47.30500488 99.88353027 -48.44985352 100.5053418 -49.62939453 101.14599609 C-54.74665198 103.96074715 -59.7803259 106.91158979 -64.8125 109.875 C-73.50758103 114.97744667 -82.24038911 120.00953636 -91 125 C-100.00018802 130.13063017 -108.98486892 135.28664331 -117.9375 140.5 C-118.86498047 141.03882813 -119.79246094 141.57765625 -120.74804688 142.1328125 C-122.50166691 143.15649292 -124.24631591 144.19577336 -125.97947693 145.25372314 C-129 147 -129 147 -132.33815002 148.54803467 C-139.20264126 151.90315749 -139.20264126 151.90315749 -143.1448822 158.19799805 C-143.5178182 162.1223354 -143.48913032 165.93207811 -143.3125 169.859375 C-143.29796989 171.2956242 -143.28994158 172.73195243 -143.28808594 174.16827393 C-143.26920966 177.93056176 -143.17717258 181.68716997 -143.0647583 185.44769287 C-142.89515814 191.47737013 -142.82969653 197.50850253 -142.77963257 203.54016876 C-142.75041265 205.64218958 -142.68494817 207.74074206 -142.61450195 209.84173584 C-142.59218506 211.11696106 -142.56986816 212.39218628 -142.546875 213.70605469 C-142.51432617 214.82776062 -142.48177734 215.94946655 -142.44824219 217.10516357 C-143 220 -143 220 -145.38793945 222.30718994 C-160.34425816 232 -160.34425816 232 -165 232 C-165 232.66 -165 233.32 -165 234 C-167.45570175 235.33838733 -169.91429916 236.67086232 -172.375 238 C-173.07367188 238.3815625 -173.77234375 238.763125 -174.4921875 239.15625 C-179.7734375 242 -179.7734375 242 -182 242 C-182 242.66 -182 243.32 -182 244 C-182.52464844 244.24492187 -183.04929688 244.48984375 -183.58984375 244.7421875 C-193.18186188 249.37061555 -202.23705249 254.94837455 -211.36523438 260.41699219 C-212.92845227 261.35324759 -214.49280229 262.28761565 -216.05834961 263.2199707 C-217.53060352 264.09681726 -219.00029581 264.97798322 -220.46704102 265.86401367 C-221.13405029 266.26080322 -221.80105957 266.65759277 -222.48828125 267.06640625 C-223.07134033 267.41646729 -223.65439941 267.76652832 -224.25512695 268.12719727 C-226.14442785 269.07224424 -227.93904509 269.56113219 -230 270 C-234.40774487 259.62642369 -234.40774487 259.62642369 -235 254 C-235.66 254 -236.32 254 -237 254 C-236.53127648 247.9622055 -234.61090061 243.75319468 -231.6875 238.5 C-230.77394753 236.81292866 -229.86122356 235.12540848 -228.94921875 233.4375 C-228.46759277 232.55320313 -227.9859668 231.66890625 -227.48974609 230.7578125 C-224.9380048 226.03403838 -222.47376112 221.26493037 -220 216.5 C-215.94915712 208.72402956 -211.87808326 200.95907406 -207.7890625 193.203125 C-203.99096987 185.9940065 -200.22447536 178.76854023 -196.45874023 171.54248047 C-193.34092931 165.56239235 -190.20900429 159.59003418 -187.0625 153.625 C-183.18052331 146.26436888 -179.33542291 138.88498617 -175.5 131.5 C-173.33418818 127.33288838 -171.16750594 123.16623068 -169 119 C-168.53529297 118.10651855 -168.07058594 117.21303711 -167.59179688 116.29248047 C-167.15416016 115.45217285 -166.71652344 114.61186523 -166.265625 113.74609375 C-165.84539062 112.93881836 -165.42515625 112.13154297 -164.9921875 111.29980469 C-164.16881771 109.73397801 -163.33556526 108.17330552 -162.4921875 106.61816406 C-160.56513173 103.06323714 -158.78387634 99.5633185 -157.296875 95.80078125 C-151.58369082 82.32236984 -140.01377322 77.34449609 -127.52392578 70.85888672 C-121.92054584 67.90307857 -116.46894694 64.69558728 -111 61.5 C-108.83409586 60.24867922 -106.66742698 58.9986812 -104.5 57.75 C-103.4275 57.13125 -102.355 56.5125 -101.25 55.875 C-65.5 35.25 -65.5 35.25 -62.24731445 33.37353516 C-60.08950197 32.12858718 -57.93178647 30.8834711 -55.77416992 29.63818359 C-50.22283408 26.43447349 -44.66963459 23.2340637 -39.11328125 20.0390625 C-37.98237061 19.3881665 -36.85145996 18.73727051 -35.6862793 18.06665039 C-33.46572174 16.78869292 -31.24454632 15.51180834 -29.02270508 14.23608398 C-24.38339282 11.56479163 -19.76122726 8.87938366 -15.2109375 6.05859375 C-14.51701904 5.62981934 -13.82310059 5.20104492 -13.1081543 4.75927734 C-11.35051227 3.66407444 -9.6024688 2.55350593 -7.85546875 1.44140625 C-4.88063562 -0.0602537 -3.27205465 -0.59959117 0 0 Z " fill="#D5CDF0" transform="translate(339,0)"/>
<path d="M0 0 C0.99 0.495 0.99 0.495 2 1 C1.24074219 1.81984375 0.48148437 2.6396875 -0.30078125 3.484375 C-1.30478454 4.57282716 -2.3086854 5.66137382 -3.3125 6.75 C-3.81201172 7.28882813 -4.31152344 7.82765625 -4.82617188 8.3828125 C-7.37956993 11.15603952 -9.81096449 13.92190229 -12 17 C-11.38253906 17.21914063 -10.76507813 17.43828125 -10.12890625 17.6640625 C3.72623825 22.8518335 17.05950262 32.64117432 24 46 C25.17983865 49.0711378 25.26344281 50.94291964 24 54 C21.77655761 56.93171637 19.36149118 59.5174668 16.78515625 62.14453125 C14.17253099 64.82311339 11.83131441 67.57647334 9.5 70.5 C5.66280969 75.25595419 1.60614899 79.75504801 -2.53125 84.25 C-4.94378104 86.93737634 -7.2325621 89.68965444 -9.5 92.5 C-13.33719031 97.25595419 -17.39385101 101.75504801 -21.53125 106.25 C-23.94378104 108.93737634 -26.2325621 111.68965444 -28.5 114.5 C-32.32617083 119.24229624 -36.36985363 123.72954369 -40.49609375 128.2109375 C-43.89481329 131.9967187 -47.0924253 135.92135722 -50.28515625 139.8828125 C-52.7876694 142.97247566 -52.7876694 142.97247566 -56.375 143.4375 C-68.5362423 143.17782935 -78.32471091 131.85609476 -86.20703125 123.72265625 C-90.033577 119.52553975 -93.49427159 115.41647636 -94.3515625 109.625 C-93.85451387 105.91370353 -92.1601532 104.69915772 -89.4375 102.1875 C-85.67558264 98.61050836 -82.1524711 95.00147215 -78.77734375 91.0625 C-76.7202376 88.67535264 -74.61315228 86.33765244 -72.5 84 C-69.81016569 81.01937279 -67.13689636 78.02754767 -64.5 75 C-59.62856797 69.41020011 -54.6410485 63.92465102 -49.671875 58.421875 C-45.68845259 54.00488281 -41.7306289 49.57018599 -37.83203125 45.078125 C-34.91466477 41.76887347 -31.9138333 38.53509004 -28.91796875 35.296875 C-27.18904015 33.22638617 -26.14422047 31.41349583 -25 29 C-25.64324219 29.37697021 -26.28648437 29.75394043 -26.94921875 30.14233398 C-33.26229665 33.83978483 -39.58266952 37.52444672 -45.90869141 41.19970703 C-48.60420888 42.76950215 -51.29309108 44.34993062 -53.98046875 45.93359375 C-55.38240346 46.74810028 -56.78471415 47.56196023 -58.1875 48.375 C-58.81462891 48.74939209 -59.44175781 49.12378418 -60.08789062 49.50952148 C-63.51634125 51.47614516 -66.02746202 52.5374183 -70 52 C-71 51 -71 51 -71.5 47.3125 C-71.45178657 44.82110521 -71.37133929 43.47446771 -69.82202148 41.49487305 C-64.47689325 37.06409546 -58.65526008 33.79745272 -52.5625 30.5 C-50.32581753 29.2687517 -48.09016676 28.03562766 -45.85546875 26.80078125 C-44.71899902 26.17381348 -43.5825293 25.5468457 -42.41162109 24.90087891 C-37.02513574 21.89964984 -31.69701368 18.80125866 -26.375 15.6875 C-25.38298584 15.10863037 -24.39097168 14.52976074 -23.36889648 13.93334961 C-18.96625431 11.35620221 -14.5804705 8.75747539 -10.234375 6.0859375 C-9.53006348 5.65450439 -8.82575195 5.22307129 -8.10009766 4.77856445 C-6.82423686 3.99301901 -5.55271731 3.20035829 -4.28662109 2.39916992 C-2.89302895 1.53943836 -1.45054559 0.75970711 0 0 Z " fill="#002F4E" transform="translate(224,369)"/>
<path d="M0 0 C0.75539063 -0.02900391 1.51078125 -0.05800781 2.2890625 -0.08789062 C6.12062963 -0.13143116 8.13474151 0.01256134 11.47265625 2.0546875 C24.91985782 16.16082635 25.1002227 36.07120908 24.90234375 54.35546875 C24.65692003 63.35555941 23.14305038 71.69060414 20.625 80.3125 C20.40537598 81.06821289 20.18575195 81.82392578 19.95947266 82.60253906 C14.04920091 102.40383166 5.36753876 126.15411609 -10.375 140.3125 C-10.705 140.3125 -11.035 140.3125 -11.375 140.3125 C-11.375 94.4425 -11.375 48.5725 -11.375 1.3125 C-7.57279525 0.04509842 -3.96375078 0.05021644 0 0 Z " fill="#E7E4F4" transform="translate(354.375,210.6875)"/>
<path d="M0 0 C1.56482151 26.87580944 1.56482151 26.87580944 -8 39 C-23.27543813 64.19998894 -34.51790048 96.65706181 -33.94140625 126.37109375 C-33.71564221 142.14487105 -33.71564221 142.14487105 -36.27783203 145.84570312 C-39.68665964 149.00190948 -43.50901722 150.79111387 -48 152 C-50 151 -50 151 -50.8515625 148.82421875 C-54.06635593 135.78644538 -53.45174441 122.33603083 -53 109 C-52.96712891 107.96633301 -52.93425781 106.93266602 -52.90039062 105.86767578 C-52.64941352 101.16037875 -52.23205616 96.663036 -51.01318359 92.10400391 C-48.57176671 82.95272561 -47.81018258 74.88257648 -48.3046875 65.39453125 C-50.02677118 29.40522264 -50.02677118 29.40522264 -44.72460938 22.32128906 C-38.8490682 16.93108423 -31.9638452 14.44291409 -24.42675781 12.15527344 C-19.1503518 10.37642239 -14.68557296 7.51974241 -10 4.5625 C-2.35489885 0 -2.35489885 0 0 0 Z " fill="#C8AC4A" transform="translate(258,196)"/>
<path d="M0 0 C0.66 0 1.32 0 2 0 C2.22844831 7.43754946 2.38590508 14.87419332 2.49438477 22.31445312 C2.53960905 24.8444194 2.60100123 27.37415092 2.67895508 29.90332031 C2.7883142 33.54290626 2.83920636 37.17938197 2.87890625 40.8203125 C2.92535782 41.94865509 2.97180939 43.07699768 3.01966858 44.23953247 C3.02458674 51.91325427 3.02458674 51.91325427 0.14482117 54.96772766 C-2.17006424 56.53873934 -4.47819264 57.79392608 -7 59 C-8.03165283 59.61222412 -9.06330566 60.22444824 -10.1262207 60.85522461 C-11.51200317 61.62104858 -11.51200317 61.62104858 -12.92578125 62.40234375 C-13.97056641 62.98306641 -15.01535156 63.56378906 -16.09179688 64.16210938 C-17.15462891 64.74798828 -18.21746094 65.33386719 -19.3125 65.9375 C-21.434205 67.11217788 -23.55530048 68.28795737 -25.67578125 69.46484375 C-26.71299316 70.03960449 -27.75020508 70.61436523 -28.81884766 71.20654297 C-33.13108271 73.63767717 -37.3816107 76.16916671 -41.62573242 78.71704102 C-44 80 -44 80 -46 80 C-46 62.51 -46 45.02 -46 27 C-41.730625 24.56625 -37.46125 22.1325 -33.0625 19.625 C-24.62458179 14.80718609 -16.19085731 9.98346396 -7.8125 5.0625 C-7.11970947 4.65660645 -6.42691895 4.25071289 -5.71313477 3.83251953 C-2.68305164 2.15192391 -2.68305164 2.15192391 0 0 Z " fill="#FE6673" transform="translate(198,264)"/>
<path d="M0 0 C0.33 0 0.66 0 1 0 C1.45771227 9.66543312 1.83593286 19.32993321 2.11652184 29.00213814 C2.24928045 33.49502097 2.40795883 37.98366564 2.62890625 42.47314453 C4.22658661 75.55834922 4.22658661 75.55834922 -2.78952026 83.46383667 C-5.15591889 85.58136667 -7.54863139 87.37938267 -10.28504944 88.98985291 C-12.72797247 90.42879328 -14.86012323 92.22199425 -17.0625 94 C-27.69781683 100.92084044 -40.03919235 106.638169 -53 105 C-53.66 104.34 -54.32 103.68 -55 103 C-52.71147466 98.51777452 -50.41837678 94.03792706 -48.12133789 89.56005859 C-47.34343917 88.04212135 -46.56671031 86.52358391 -45.79125977 85.00439453 C-41.5579558 76.71292006 -37.23609277 68.54082007 -32.48120117 60.53466797 C-30.55212168 57.23357958 -28.85965689 53.8761793 -27.1875 50.4375 C-20.60746058 37.07321304 -13.55326627 23.96026893 -6.4375 10.875 C-5.9125293 9.90804199 -5.38755859 8.94108398 -4.84667969 7.94482422 C-4.35973633 7.0529541 -3.87279297 6.16108398 -3.37109375 5.2421875 C-2.93724365 4.4466748 -2.50339355 3.65116211 -2.05639648 2.83154297 C-1 1 -1 1 0 0 Z " fill="#B4ADCB" transform="translate(342,276)"/>
<path d="M0 0 C0 17.82 0 35.64 0 54 C-7.92 57.96 -7.92 57.96 -16 62 C-26.19281498 68.59535087 -35.61801324 76.20802476 -44 85 C-44.99861889 86.0013792 -45.99844062 87.00156182 -47 88 C-47.56034526 80.2918643 -47.98439745 72.58860137 -48.24349213 64.86513329 C-48.3680235 61.27542719 -48.53590358 57.69976415 -48.81054688 54.11816406 C-50.52742143 31.12513666 -50.52742143 31.12513666 -44.76730347 24.38897705 C-39.03894784 19.82433224 -32.63890569 16.91498423 -25.87835693 14.1930542 C-22.27641747 12.70008126 -19.1716516 10.87030161 -15.87890625 8.7890625 C-14.96818359 8.24765625 -14.05746094 7.70625 -13.11914062 7.1484375 C-11.32436306 6.07897494 -9.53014046 5.00858076 -7.73632812 3.9375 C-6.85525391 3.41414063 -5.97417969 2.89078125 -5.06640625 2.3515625 C-3.9208728 1.66827881 -3.9208728 1.66827881 -2.75219727 0.97119141 C-1 0 -1 0 0 0 Z " fill="#09D4AB" transform="translate(317,117)"/>
<path d="M0 0 C0.66 0 1.32 0 2 0 C2.14953125 0.86882812 2.2990625 1.73765625 2.453125 2.6328125 C3.97093243 9.71812179 3.97093243 9.71812179 8.62109375 14.953125 C10.69586039 15.9151824 12.79391208 16.82829367 14.91015625 17.6953125 C26.25328196 22.48495092 35.82336887 33.46878465 42.234375 43.67578125 C43 46 43 46 42.5390625 48.3203125 C40.3435464 52.14296237 37.55338053 55.2825848 34.625 58.5625 C34.0475 59.22185547 33.47 59.88121094 32.875 60.56054688 C30.01263317 63.8117512 27.11434128 66.985379 24 70 C24 69.071875 24 68.14375 24 67.1875 C22.54135287 57.29667356 12.54956096 48.72341347 5 43 C-0.71181919 39.33373589 -6.3626431 36.4749682 -13 35 C-8.68339698 28.99926777 -3.97966692 23.45993937 1 18 C0.19820312 18.46148437 -0.60359375 18.92296875 -1.4296875 19.3984375 C-8.11342557 23.23287227 -14.81931503 27.02106357 -21.5625 30.75 C-31.76780353 36.39577239 -41.8860101 42.19265106 -52 48 C-52 44.45758001 -51.54599081 44.15581893 -49.18359375 41.70703125 C-48.58708008 41.08030518 -47.99056641 40.4535791 -47.37597656 39.80786133 C-46.7362793 39.14939209 -46.09658203 38.49092285 -45.4375 37.8125 C-44.14899015 36.45904641 -42.86122184 35.10488645 -41.57421875 33.75 C-40.95466309 33.10160156 -40.33510742 32.45320313 -39.69677734 31.78515625 C-37.67688514 29.66005527 -35.69706919 27.50450966 -33.75 25.3125 C-33.24984375 24.75175781 -32.7496875 24.19101562 -32.234375 23.61328125 C-30.91965131 22.02706792 -30.91965131 22.02706792 -30.140625 20.04296875 C-27.66208764 15.60367067 -22.84360784 13.20559068 -18.515625 10.80078125 C-17.49855469 10.23166016 -16.48148438 9.66253906 -15.43359375 9.07617188 C-14.38300781 8.49416016 -13.33242187 7.91214844 -12.25 7.3125 C-10.15027362 6.14330533 -8.05127383 4.97280451 -5.953125 3.80078125 C-4.56335449 3.02988159 -4.56335449 3.02988159 -3.14550781 2.2434082 C-1.08831342 1.17405797 -1.08831342 1.17405797 0 0 Z " fill="#DED9F0" transform="translate(224,352)"/>
<path d="M0 0 C0.99 0.495 0.99 0.495 2 1 C1.35933594 1.70125 0.71867187 2.4025 0.05859375 3.125 C-4.4164794 8.03357501 -8.8651887 12.95900535 -13.22265625 17.97265625 C-16.05311616 21.20124678 -18.93961207 24.37913175 -21.81640625 27.56640625 C-23.70848685 29.67511146 -25.57905758 31.79919801 -27.4375 33.9375 C-31.08937053 38.13164365 -34.84266184 42.23094292 -38.58984375 46.33984375 C-41.16993136 49.18755795 -43.70201856 52.07244018 -46.22265625 54.97265625 C-49.04822597 58.19566874 -51.9288025 61.36877836 -54.8046875 64.546875 C-56.77984101 66.75398604 -58.70541472 68.9947025 -60.625 71.25 C-66.07683915 77.46634993 -71.46998952 81.56525838 -79 85 C-79.96239452 83.75312408 -80.91974009 82.50235031 -81.875 81.25 C-82.67550781 80.20585937 -82.67550781 80.20585937 -83.4921875 79.140625 C-85.83903037 75.80883771 -86.98457 73.81779025 -87.0625 69.6875 C-85.81417684 65.35508433 -84.19825542 63.77302372 -80.94921875 60.80078125 C-79.04590445 59.04240872 -77.37320574 57.21598936 -75.6875 55.25 C-72.84271749 51.95133084 -69.93700707 48.71693361 -67 45.5 C-63.50952669 41.67156861 -60.04427245 37.82810214 -56.66796875 33.8984375 C-55.49414566 32.5624234 -54.2846083 31.25736894 -53.05078125 29.9765625 C-48.97422708 25.66021103 -47.12512646 23.00606997 -47 17 C-46.67 17 -46.34 17 -46 17 C-45.505 19.97 -45.505 19.97 -45 23 C-39.71688812 22.50805368 -36.11253629 21.28363837 -31.54296875 18.61328125 C-30.95510086 18.27378952 -30.36723297 17.93429779 -29.7615509 17.58451843 C-27.89715747 16.50438966 -26.04242108 15.40879878 -24.1875 14.3125 C-22.95567602 13.59597635 -21.72325782 12.88047323 -20.49023438 12.16601562 C-15.94931064 9.52672641 -11.4162717 6.88065523 -6.95556641 4.10693359 C-6.0588623 3.5495752 -5.1621582 2.9922168 -4.23828125 2.41796875 C-3.46137939 1.92449951 -2.68447754 1.43103027 -1.8840332 0.92260742 C-1.26230225 0.61814697 -0.64057129 0.31368652 0 0 Z " fill="#968EB6" transform="translate(199,397)"/>
<path d="M0 0 C1.65159011 5.78056537 1.65159011 5.78056537 0.09960938 8.68505859 C-4.52365105 14.21237242 -10.0652416 17.22525924 -16.375 20.5625 C-18.6378046 21.79357915 -20.89949733 23.02670386 -23.16015625 24.26171875 C-24.30500488 24.88353027 -25.44985352 25.5053418 -26.62939453 26.14599609 C-31.74665198 28.96074715 -36.7803259 31.91158979 -41.8125 34.875 C-50.50757393 39.97744251 -59.24014248 45.00997628 -68 50 C-78.8926075 56.20676076 -89.74236407 62.48399146 -100.5625 68.81640625 C-101.4390625 69.3283252 -102.315625 69.84024414 -103.21875 70.36767578 C-105.2440747 71.5563451 -107.26423033 72.75383496 -109.28125 73.95654297 C-110.3640625 74.59865723 -111.446875 75.24077148 -112.5625 75.90234375 C-113.55378906 76.49394287 -114.54507813 77.08554199 -115.56640625 77.69506836 C-118 79 -118 79 -120 79 C-121.55768821 74.19319447 -121.75578658 70.77795946 -120 66 C-114.73583144 61.00908374 -107.67170293 57.98842685 -101.27636719 54.7109375 C-95.82829927 51.86592558 -90.55386846 48.72795985 -85.25 45.625 C-83.04796282 44.35488299 -80.84482799 43.08666717 -78.640625 41.8203125 C-71.01442045 37.4340134 -63.39468637 33.03653485 -55.77514648 28.63867188 C-50.22344009 25.43487726 -44.66994947 22.23424476 -39.11328125 19.0390625 C-37.98237061 18.38808594 -36.85145996 17.73710938 -35.6862793 17.06640625 C-33.46600372 15.78877173 -31.24483529 14.51268736 -29.02270508 13.23828125 C-24.37556451 10.56498582 -19.75088226 7.87572828 -15.2109375 5.0234375 C-14.51701904 4.59015137 -13.82310059 4.15686523 -13.1081543 3.71044922 C-11.34874093 2.60161847 -9.60144547 1.47362004 -7.85546875 0.34375 C-4.64295492 -1.16802121 -3.30960393 -1.12563239 0 0 Z " fill="#463B6D" transform="translate(316,75)"/>
<path d="M0 0 C0.13526616 2.5850867 0.23417653 5.16308752 0.3125 7.75 C0.35439453 8.47960937 0.39628906 9.20921875 0.43945312 9.9609375 C0.52610544 13.77363914 0.4332335 15.5448784 -2.2421875 18.35546875 C-3.15226562 18.89816406 -4.06234375 19.44085938 -5 20 C-6.11181641 20.68255859 -6.11181641 20.68255859 -7.24609375 21.37890625 C-19.5049505 28 -19.5049505 28 -22 28 C-22 28.66 -22 29.32 -22 30 C-24.45570175 31.33838733 -26.91429916 32.67086232 -29.375 34 C-30.07367188 34.3815625 -30.77234375 34.763125 -31.4921875 35.15625 C-36.7734375 38 -36.7734375 38 -39 38 C-39 38.66 -39 39.32 -39 40 C-39.52464844 40.24492187 -40.04929688 40.48984375 -40.58984375 40.7421875 C-50.18186188 45.37061555 -59.23705249 50.94837455 -68.36523438 56.41699219 C-69.92845227 57.35324759 -71.49280229 58.28761565 -73.05834961 59.2199707 C-74.53060352 60.09681726 -76.00029581 60.97798322 -77.46704102 61.86401367 C-78.13405029 62.26080322 -78.80105957 62.65759277 -79.48828125 63.06640625 C-80.07134033 63.41646729 -80.65439941 63.76652832 -81.25512695 64.12719727 C-83.14442785 65.07224424 -84.93904509 65.56113219 -87 66 C-89.70071112 59.72019113 -91.70024676 53.71539173 -93 47 C-91.72125 47.103125 -90.4425 47.20625 -89.125 47.3125 C-79.59761516 47.29493374 -70.76061302 40.20667435 -62.8125 35.5 C-54.74885098 30.75873425 -46.65576951 26.08100499 -38.5 21.5 C-29.12327819 16.22997887 -19.8182865 10.84404047 -10.5390625 5.40429688 C-9.58128906 4.84291016 -8.62351562 4.28152344 -7.63671875 3.703125 C-6.36380981 2.95530762 -6.36380981 2.95530762 -5.06518555 2.19238281 C-1.26801802 0 -1.26801802 0 0 0 Z " fill="#C6BDE5" transform="translate(196,204)"/>
<path d="M0 0 C0.99 1.485 0.99 1.485 2 3 C0.71719132 6.84842603 -0.49952643 7.12677617 -4 9.0625 C-5.09957031 9.68125 -6.19914063 10.3 -7.33203125 10.9375 C-7.92967285 11.27136719 -8.52731445 11.60523438 -9.14306641 11.94921875 C-11.66853398 13.37830269 -14.15798435 14.86498037 -16.65063477 16.3503418 C-24.38102964 20.95077456 -32.20384182 25.37284964 -40.0625 29.75 C-51.46968275 36.10720894 -62.76327249 42.64346559 -74.02490234 49.25439453 C-78.97058292 52.15621762 -83.92247573 55.04737677 -88.875 57.9375 C-89.85484863 58.50952148 -90.83469727 59.08154297 -91.84423828 59.67089844 C-100.45326946 64.69178084 -109.0873796 69.66871224 -117.72363281 74.64257812 C-126.51369783 79.70912978 -135.26921574 84.83205667 -144 90 C-144.33 89.34 -144.66 88.68 -145 88 C-145.99 87.67 -146.98 87.34 -148 87 C-147.81054688 84.69995117 -147.81054688 84.69995117 -147 82 C-144.86132812 80.3059082 -144.86132812 80.3059082 -142.03125 78.80078125 C-140.99427979 78.23689697 -139.95730957 77.6730127 -138.88891602 77.09204102 C-137.21140259 76.21116821 -137.21140259 76.21116821 -135.5 75.3125 C-133.18543349 74.05870181 -130.8716318 72.8034907 -128.55859375 71.546875 C-126.86065674 70.63325195 -126.86065674 70.63325195 -125.12841797 69.70117188 C-121.21873849 67.57516543 -117.3816674 65.34595601 -113.5625 63.0625 C-106.59373425 58.92444569 -99.58495128 54.85876709 -92.5625 50.8125 C-91.45527588 50.17449463 -90.34805176 49.53648926 -89.20727539 48.87915039 C-86.93662932 47.57110523 -84.66587642 46.26324552 -82.39501953 44.95556641 C-75.8480988 41.18447227 -69.30468935 37.40728924 -62.76098633 33.63061523 C-57.29578707 30.47680921 -51.82908972 27.32565671 -46.359375 24.1796875 C-45.26455811 23.5494165 -44.16974121 22.91914551 -43.04174805 22.26977539 C-40.86677871 21.01783316 -38.69117138 19.76699857 -36.51489258 18.51733398 C-31.19395649 15.45376472 -25.90219009 12.35203512 -20.65234375 9.16796875 C-19.64655273 8.56098145 -18.64076172 7.95399414 -17.60449219 7.32861328 C-15.71000737 6.18158422 -13.82096727 5.02549597 -11.93847656 3.85888672 C-11.09639648 3.34986816 -10.25431641 2.84084961 -9.38671875 2.31640625 C-8.29170044 1.64266968 -8.29170044 1.64266968 -7.17456055 0.95532227 C-4.56054628 -0.19305966 -2.82457603 -0.39923647 0 0 Z " fill="#DDD6F3" transform="translate(339,0)"/>
<path d="M0 0 C0 4.62 0 9.24 0 14 C-1.03898437 14.49628906 -2.07796875 14.99257812 -3.1484375 15.50390625 C-18.6283135 22.99932729 -32.07965751 32.49659728 -44 45 C-44.99861889 46.0013792 -45.99844062 47.00156182 -47 48 C-49.36303262 22.23688541 -49.36303262 22.23688541 -45.70507812 15.67822266 C-42.3874457 12.23456709 -38.38578706 10.36478387 -33.94482422 8.72167969 C-31.26371953 7.72678319 -28.79129867 6.36818901 -26.25 5.0625 C-17.42544488 1.37579697 -9.57363105 -0.41624483 0 0 Z " fill="#1D9F95" transform="translate(317,157)"/>
<path d="M0 0 C0.33 0 0.66 0 1 0 C1.02505615 0.84183838 1.0501123 1.68367676 1.07592773 2.55102539 C1.17160279 5.70266144 1.27080076 8.85416226 1.37231445 12.00561523 C1.41537294 13.3642958 1.45706565 14.72302041 1.49731445 16.08178711 C1.55572893 18.04552303 1.61961803 20.00909364 1.68359375 21.97265625 C1.72025146 23.15093994 1.75690918 24.32922363 1.79467773 25.54321289 C2.0043293 29.07288765 2.4521498 32.50818611 3 36 C-12.87176375 45.37702265 -12.87176375 45.37702265 -20.5625 49.75 C-29.10480089 54.61010398 -37.58433901 59.57756491 -46.0703125 64.53515625 C-47.0387207 65.09734863 -48.00712891 65.65954102 -49.00488281 66.23876953 C-51.09529552 67.46800309 -53.1718564 68.72096565 -55.23730469 69.99169922 C-56.29079102 70.63252441 -57.34427734 71.27334961 -58.4296875 71.93359375 C-59.37827637 72.52068115 -60.32686523 73.10776855 -61.30419922 73.71264648 C-64.16473605 75.0786681 -65.87471337 75.35870159 -69 75 C-70.82793089 73.17206911 -70.34619549 70.64719905 -70.5234375 68.203125 C-69.48644095 63.83845294 -66.16424215 61.74777289 -62.5703125 59.43945312 C-59.5088833 57.62159758 -56.41801619 55.86646213 -53.3125 54.125 C-51.5704058 53.13444086 -49.8283188 52.14386878 -48.08666992 51.15252686 C-46.27577081 50.12303551 -44.46296396 49.09696634 -42.64990234 48.07128906 C-36.78752645 44.75024735 -30.95835567 41.37167021 -25.125 38 C-24.08770752 37.40203613 -23.05041504 36.80407227 -21.98168945 36.18798828 C-19.98211264 35.03522108 -17.98926896 33.87068235 -16.00390625 32.69360352 C-13 31 -13 31 -9.62109375 29.44506836 C-3.48193374 26.62532831 -3.48193374 26.62532831 0.03662109 21.19970703 C0.40700775 17.92140196 0.41030956 14.85666591 0.25 11.5625 C0.24355469 10.44939453 0.23710937 9.33628906 0.23046875 8.18945312 C0.20698971 5.45414509 0.1288065 2.73203697 0 0 Z " fill="#473C6E" transform="translate(223,316)"/>
<path d="M0 0 C0.99 0.495 0.99 0.495 2 1 C1.25234375 1.79664063 0.5046875 2.59328125 -0.265625 3.4140625 C-1.26063721 4.48416997 -2.25541648 5.55449408 -3.25 6.625 C-3.74113281 7.14707031 -4.23226562 7.66914063 -4.73828125 8.20703125 C-7.88465468 11.60511455 -10.47088322 15.10438875 -13 19 C-14.62449243 20.70779973 -16.29220027 22.37550757 -18 24 C-18.825 24.886875 -19.65 25.77375 -20.5 26.6875 C-23.0660057 29.06105527 -24.79284618 29.75979447 -28 31 C-29.69128168 31.89043132 -31.36655708 32.8117209 -33.02734375 33.7578125 C-33.97818848 34.29768799 -34.9290332 34.83756348 -35.90869141 35.39379883 C-36.90819824 35.96509521 -37.90770508 36.5363916 -38.9375 37.125 C-39.96278809 37.70596436 -40.98807617 38.28692871 -42.04443359 38.88549805 C-46.5346005 41.43327349 -51.01437448 43.99364696 -55.44921875 46.63671875 C-56.39970093 47.19818604 -56.39970093 47.19818604 -57.36938477 47.77099609 C-59.00415295 48.74080851 -60.63130824 49.72342207 -62.2578125 50.70703125 C-65.13661391 52.06441482 -66.86199264 52.37410408 -70 52 C-71 51 -71 51 -71.5 47.3125 C-71.45178657 44.82110521 -71.37133929 43.47446771 -69.82202148 41.49487305 C-64.47689325 37.06409546 -58.65526008 33.79745272 -52.5625 30.5 C-50.32581753 29.2687517 -48.09016676 28.03562766 -45.85546875 26.80078125 C-44.71899902 26.17381348 -43.5825293 25.5468457 -42.41162109 24.90087891 C-37.02513574 21.89964984 -31.69701368 18.80125866 -26.375 15.6875 C-25.38298584 15.10863037 -24.39097168 14.52976074 -23.36889648 13.93334961 C-18.96625431 11.35620221 -14.5804705 8.75747539 -10.234375 6.0859375 C-9.53006348 5.65450439 -8.82575195 5.22307129 -8.10009766 4.77856445 C-6.82423686 3.99301901 -5.55271731 3.20035829 -4.28662109 2.39916992 C-2.89302895 1.53943836 -1.45054559 0.75970711 0 0 Z " fill="#453A6D" transform="translate(224,369)"/>
<path d="M0 0 C0.33 0 0.66 0 1 0 C1 11.88 1 23.76 1 36 C4.96 33.69 8.92 31.38 13 29 C13.66 29 14.32 29 15 29 C15.12605438 36.43720816 15.12605438 36.43720816 14.48510742 39.29882812 C13.97628524 42.13204839 13.99811239 44.58609986 14.140625 47.45703125 C14.53946315 63.70745601 14.53946315 63.70745601 11.71337891 67.91601562 C8.32254281 71.04092408 4.45174626 72.80167558 0 74 C-2 73 -2 73 -2.8515625 70.82421875 C-7.65786739 51.33198225 -6.67056799 27.63823525 -1.9375 8.1875 C-1.75123047 7.38763672 -1.56496094 6.58777344 -1.37304688 5.76367188 C-0.92390723 3.8404329 -0.46327163 1.91988384 0 0 Z " fill="#ABA4C3" transform="translate(210,274)"/>
<path d="M0 0 C0.66 0 1.32 0 2 0 C3.32 4.62 4.64 9.24 6 14 C3.27240713 16.72759287 1.33824392 18.04574621 -2.0078125 19.8046875 C-7.67988982 22.82793265 -13.28307759 25.95635801 -18.875 29.125 C-19.85154541 29.67760498 -20.82809082 30.23020996 -21.83422852 30.79956055 C-31.90611173 36.50391116 -41.95631288 42.24618018 -52 48 C-52 44.45758001 -51.54599081 44.15581893 -49.18359375 41.70703125 C-48.58708008 41.08030518 -47.99056641 40.4535791 -47.37597656 39.80786133 C-46.7362793 39.14939209 -46.09658203 38.49092285 -45.4375 37.8125 C-44.14899015 36.45904641 -42.86122184 35.10488645 -41.57421875 33.75 C-40.95466309 33.10160156 -40.33510742 32.45320313 -39.69677734 31.78515625 C-37.67688514 29.66005527 -35.69706919 27.50450966 -33.75 25.3125 C-33.24984375 24.75175781 -32.7496875 24.19101562 -32.234375 23.61328125 C-30.91965131 22.02706792 -30.91965131 22.02706792 -30.140625 20.04296875 C-27.66208764 15.60367067 -22.84360784 13.20559068 -18.515625 10.80078125 C-17.49855469 10.23166016 -16.48148438 9.66253906 -15.43359375 9.07617188 C-14.38300781 8.49416016 -13.33242187 7.91214844 -12.25 7.3125 C-10.15027362 6.14330533 -8.05127383 4.97280451 -5.953125 3.80078125 C-4.56335449 3.02988159 -4.56335449 3.02988159 -3.14550781 2.2434082 C-1.08831342 1.17405797 -1.08831342 1.17405797 0 0 Z " fill="#9991B6" transform="translate(224,352)"/>
<path d="M0 0 C0.495 0.99 0.495 0.99 1 2 C-0.13102471 4.57077153 -1.32550813 7.01750138 -2.62890625 9.5 C-3.01561996 10.25031494 -3.40233368 11.00062988 -3.80076599 11.77368164 C-4.62521598 13.36946199 -5.45355077 14.96324019 -6.28540039 16.55517578 C-7.54067162 18.9582127 -8.78408627 21.36706807 -10.02539062 23.77734375 C-14.10787284 31.67086081 -18.25494878 39.47784761 -23 47 C-27.07154978 46.19117007 -28.20561178 44.89110578 -30.5625 41.4375 C-34.3099606 35.80826733 -37.79308909 30.00806162 -37 23 C-35.59936523 21.41235352 -35.59936523 21.41235352 -33.62109375 20.06640625 C-32.88874512 19.56254395 -32.15639648 19.05868164 -31.40185547 18.53955078 C-27.33058749 15.92993339 -23.22710257 13.39566222 -19.0625 10.9375 C-17.79889648 10.18243164 -17.79889648 10.18243164 -16.50976562 9.41210938 C-11.06267394 6.17069146 -5.55853649 3.04606119 0 0 Z " fill="#E3E1EC" transform="translate(310,333)"/>
<path d="M0 0 C11.88837684 0.26633838 22.82597975 11.6061409 30.56640625 19.625 C34.61274529 24.35805454 37.40655818 29.35339337 39.0625 35.375 C37.0625 37.375 37.0625 37.375 33.625 37.875 C21.48410253 37.45936567 11.74330677 26.23678823 3.85546875 18.09765625 C-0.08978916 13.77033125 -3.65058023 9.60284741 -4.1875 3.5625 C-3.80481858 0.2140376 -3.43327174 0.43829001 0 0 Z " fill="#000E18" transform="translate(133.9375,474.625)"/>
<path d="M0 0 C0 4.02501367 -1.5406099 5.55668766 -3.8125 8.875 C-14.35846533 24.85078108 -21.86708538 41.73530271 -28.12133789 59.78955078 C-29 62 -29 62 -31 65 C-31 49.49 -31 33.98 -31 18 C-18.3125 10.6875 -18.3125 10.6875 -14.3371582 8.3972168 C-13.29390381 7.79562744 -12.25064941 7.19403809 -11.17578125 6.57421875 C-10.11270752 5.96151123 -9.04963379 5.34880371 -7.9543457 4.7175293 C-5.28855273 3.16775212 -2.63954753 1.5939709 0 0 Z " fill="#F6DD44" transform="translate(242,204)"/>
<path d="M0 0 C1.43780399 2.79572998 2.12561425 4.37192876 1.5 7.5 C-2.94708245 14.91180408 -11.99049253 18.71273676 -19.25 22.9375 C-21.02774515 23.9791665 -22.80458913 25.02235874 -24.5814209 26.06558228 C-26.30220218 27.07464269 -28.02510961 28.08007449 -29.74804688 29.08544922 C-33.56291666 31.33141084 -37.33819465 33.63828019 -41.10058594 35.97094727 C-43 37 -43 37 -45 37 C-44.88573491 34.58239124 -44.75900339 32.16652782 -44.625 29.75 C-44.5940625 29.06808594 -44.563125 28.38617188 -44.53125 27.68359375 C-44.31740626 24.01260962 -43.98922945 21.13748384 -42 18 C-42 18.99 -42 19.98 -42 21 C-36.06731268 17.82642375 -30.20439504 14.56002197 -24.4140625 11.1328125 C-23.29902344 10.47539062 -22.18398438 9.81796875 -21.03515625 9.140625 C-19.31498397 8.12389087 -17.59490367 7.10694726 -15.88134766 6.07910156 C-14.18985051 5.06620054 -12.48955401 4.06803977 -10.7890625 3.0703125 C-9.79600098 2.48008301 -8.80293945 1.88985352 -7.77978516 1.28173828 C-4.89802827 -0.04701841 -3.12760344 -0.28069152 0 0 Z " fill="#A7A1BF" transform="translate(315,289)"/>
<path d="M0 0 C1.90220115 30.53764465 1.90220115 30.53764465 -4.875 38.25 C-7.6171875 41.015625 -7.6171875 41.015625 -10 43 C-10.66 43.66 -11.32 44.32 -12 45 C-12 36.75 -12 28.5 -12 20 C-17.94 23.465 -17.94 23.465 -24 27 C-24 22.66595029 -21.41610595 20.54723797 -18.6875 17.4375 C-18.1514917 16.8192334 -17.6154834 16.2009668 -17.06323242 15.56396484 C-3.34062106 0 -3.34062106 0 0 0 Z " fill="#C5C2D4" transform="translate(270,176)"/>
<path d="M0 0 C0 7.26 0 14.52 0 22 C-3.66392868 24.14026432 -7.32917583 26.27781511 -10.99853516 28.40869141 C-12.24683697 29.1346749 -13.49423865 29.86220842 -14.74072266 30.59130859 C-16.5305426 31.63786202 -18.32350512 32.67883383 -20.1171875 33.71875 C-21.19597168 34.34716797 -22.27475586 34.97558594 -23.38623047 35.62304688 C-26 37 -26 37 -28 37 C-28.33 37.99 -28.66 38.98 -29 40 C-29.33 39.34 -29.66 38.68 -30 38 C-28.83299884 35.65371345 -27.61661444 33.47771529 -26.25 31.25 C-25.84458984 30.58403809 -25.43917969 29.91807617 -25.02148438 29.23193359 C-6.82659017 0 -6.82659017 0 0 0 Z " fill="#A1B5C6" transform="translate(317,228)"/>
<path d="M0 0 C0.66 0.33 1.32 0.66 2 1 C-8.43585623 11.97153706 -20.49192709 23.15358155 -36 26 C-38.33300933 26.03888349 -40.66709801 26.0448635 -43 26 C-38.92939759 22.49498031 -34.6398571 20.02418011 -29.9375 17.5 C-21.92241712 13.14401303 -14.11064743 8.5063576 -6.37475586 3.671875 C-5.57046143 3.17816406 -4.76616699 2.68445313 -3.9375 2.17578125 C-3.22464844 1.73145752 -2.51179688 1.28713379 -1.77734375 0.8293457 C-1.19082031 0.55566162 -0.60429687 0.28197754 0 0 Z " fill="#D4CFE9" transform="translate(339,354)"/>
<path d="M0 0 C10.42086821 -0.75788132 18.53909188 4.25930034 27 10 C27 10.33 27 10.66 27 11 C26.35973877 11.02505615 25.71947754 11.0501123 25.05981445 11.07592773 C22.14386274 11.1923546 19.2281971 11.31486867 16.3125 11.4375 C15.30509766 11.47681641 14.29769531 11.51613281 13.25976562 11.55664062 C12.28330078 11.59853516 11.30683594 11.64042969 10.30078125 11.68359375 C9.40528564 11.72025146 8.50979004 11.75690918 7.5871582 11.79467773 C4.57697612 11.98240361 4.57697612 11.98240361 0 13 C0 8.71 0 4.42 0 0 Z " fill="#B3B0C8" transform="translate(317,158)"/>
<path d="M0 0 C0.66 0 1.32 0 2 0 C2.24234375 0.65226562 2.4846875 1.30453125 2.734375 1.9765625 C4.70376741 7.11213194 6.7353687 11.56942895 10 16 C8.71186658 16.83878455 7.41936744 17.67086783 6.125 18.5 C5.40570313 18.9640625 4.68640625 19.428125 3.9453125 19.90625 C2 21 2 21 0 21 C0 14.07 0 7.14 0 0 Z " fill="#D6CEEF" transform="translate(110,466)"/>
<path d="M0 0 C2.97 0.33 5.94 0.66 9 1 C8.690625 1.845625 8.38125 2.69125 8.0625 3.5625 C6.98461179 7.0497854 6.43418696 10.38177535 6 14 C2.24084505 11.4938967 2.27436746 10.18050197 1.3125 5.875 C1.06113281 4.77929688 0.80976562 3.68359375 0.55078125 2.5546875 C0.27814453 1.29011719 0.27814453 1.29011719 0 0 Z " fill="#AB9EDA" transform="translate(103,251)"/>
<path d="M0 0 C3.33333333 3.33333333 6.66666667 6.66666667 10 10 C5.89041233 8.54955729 2.56741255 6.48889248 -1 4 C-0.67 2.68 -0.34 1.36 0 0 Z " fill="#001F32" transform="translate(267,397)"/>
</svg>
