<?xml version="1.0" encoding="UTF-8"?>
<svg version="1.1" xmlns="http://www.w3.org/2000/svg" width="512" height="512">
<path d="M0 0 C10.14972787 8.39015559 13.39487214 17.32329322 16.1640625 29.87109375 C16.40188446 30.92544113 16.63970642 31.97978851 16.88473511 33.06608582 C17.40361797 35.36825562 17.92005072 37.67097871 18.43432617 39.97418213 C19.71144008 45.69032761 21.00511505 51.40272361 22.29846954 57.11521149 C22.60670519 58.47695804 22.914742 59.83874962 23.22258759 61.20058441 C27.11555713 78.42185679 31.11486891 95.61819373 35.125 112.8125 C35.30416458 113.58094868 35.48332916 114.34939735 35.66792297 115.14113235 C40.47661074 135.76546477 45.3005629 156.38625863 50.15991211 176.99871826 C50.71238183 179.34237957 51.26431773 181.68616679 51.81567383 184.03009033 C52.57038838 187.23669169 53.32772585 190.44266149 54.0859375 193.6484375 C54.30079803 194.5627655 54.51565857 195.47709351 54.73703003 196.41912842 C55.14607869 198.14317216 55.56316552 199.86533283 55.98910522 201.58528137 C56.44108839 203.434894 56.86443976 205.29160607 57.26797485 207.15238953 C58.5535703 212.91947682 58.5535703 212.91947682 61.99072266 217.56274414 C63.37590088 218.26065063 63.37590088 218.26065063 64.7890625 218.97265625 C65.8195874 219.51720459 66.8501123 220.06175293 67.91186523 220.62280273 C69.01344971 221.15977783 70.11503418 221.69675293 71.25 222.25 C73.54633098 223.44907018 75.84190356 224.64959389 78.13671875 225.8515625 C79.2561084 226.42293945 80.37549805 226.99431641 81.52880859 227.58300781 C85.46439723 229.62248806 89.26862798 231.83580155 93.0625 234.125 C94.4028213 234.92196125 95.74399875 235.71748402 97.0859375 236.51171875 C97.79459961 236.93114746 98.50326172 237.35057617 99.23339844 237.78271484 C103.09275213 240.04963207 106.97193402 242.28193186 110.85058594 244.515625 C113.07380393 245.79607364 115.29581265 247.07862425 117.51660156 248.36328125 C123.11999579 251.60348356 128.73569952 254.81700171 134.3828125 257.98046875 C136.52604212 259.19531169 138.66927131 260.41015541 140.8125 261.625 C142.28988647 262.43855957 142.28988647 262.43855957 143.79711914 263.26855469 C149.66214408 266.61533585 155.50011186 269.98685132 158.625 276.1875 C159.52528414 280.93441942 159.47002454 285.49674984 159.3125 290.3125 C159.31443359 291.56160156 159.31636719 292.81070312 159.31835938 294.09765625 C159.13723716 305.80189874 159.13723716 305.80189874 154.625 310.1875 C151.08461507 312.75099255 147.3994104 314.98691679 143.625 317.1875 C142.18423096 318.03828125 142.18423096 318.03828125 140.71435547 318.90625 C137.67415808 320.68538463 134.62054707 322.43923802 131.5625 324.1875 C129.8461132 325.17321612 128.12972872 326.1589363 126.41348267 327.14489746 C124.64832425 328.15855824 122.88255668 329.17115132 121.11669922 330.18359375 C115.6130492 333.34042738 110.11965798 336.51505119 104.625 339.6875 C102.45837945 340.93757993 100.29171268 342.18757976 98.125 343.4375 C97.0525 344.05625 95.98 344.675 94.875 345.3125 C59.125 365.9375 59.125 365.9375 55.87451172 367.81274414 C53.70942929 369.06185518 51.54439018 370.31104129 49.37939453 371.56030273 C43.93884294 374.69952309 38.49752784 377.83740563 33.0546875 380.97265625 C23.34982337 386.56456837 13.64939902 392.16328664 3.97802734 397.81298828 C1.93516131 399.00591918 -0.10875811 400.19704828 -2.15380859 401.38623047 C-6.31025386 403.80390427 -10.45964936 406.22662869 -14.5625 408.734375 C-27.71240801 416.70280069 -40.78756071 419.34763937 -55.9921875 416.1171875 C-63.16755608 414.22805272 -69.18134907 410.72658692 -75.5 406.9375 C-76.72422739 406.2186493 -77.94934463 405.50131218 -79.17529297 404.78540039 C-81.68878001 403.31528347 -84.19768619 401.83779343 -86.703125 400.35400391 C-92.27267539 397.06016215 -97.88972145 393.8487721 -103.5 390.625 C-105.64618579 389.386027 -107.79201918 388.14644337 -109.9375 386.90625 C-114.26908507 384.4032051 -118.60244603 381.90328227 -122.9375 379.40625 C-133.39212951 373.38310261 -143.83548442 367.34227555 -154.25 361.25 C-163.51766083 355.82965502 -172.82859529 350.48809615 -182.15640259 345.17230225 C-191.43303679 339.88434505 -200.67735816 334.54339964 -209.89013672 329.14477539 C-214.5393814 326.4207253 -219.19538582 323.71165111 -223.87890625 321.046875 C-224.74507568 320.55227783 -225.61124512 320.05768066 -226.50366211 319.5480957 C-228.10455162 318.63547126 -229.70801724 317.72734239 -231.31469727 316.82495117 C-243.08974723 310.09768095 -243.08974723 310.09768095 -245.375 304.1875 C-245.90826478 299.61797916 -245.8836622 295.03478015 -245.9375 290.4375 C-245.98712891 289.18710937 -246.03675781 287.93671875 -246.08789062 286.6484375 C-246.20293882 276.28314311 -246.20293882 276.28314311 -242.578125 271.73828125 C-237.86139522 267.27205522 -232.22941596 264.22034587 -226.5625 261.125 C-224.81898361 260.14642558 -223.07548016 259.16782715 -221.33279419 258.18777466 C-219.53478169 257.1790004 -217.73326371 256.17672315 -215.93115234 255.17529297 C-210.37420282 252.07936729 -204.8783288 248.87741029 -199.375 245.6875 C-197.22423256 244.44613934 -195.07318957 243.20525597 -192.921875 241.96484375 C-189.01214235 239.70927403 -185.10271394 237.45317896 -181.19372559 235.19631958 C-179.45863272 234.19458606 -177.72346743 233.19297811 -175.98828125 232.19140625 C-173.83449332 230.94816281 -171.68083529 229.70469428 -169.52734375 228.4609375 C-168.03654297 227.60048828 -168.03654297 227.60048828 -166.515625 226.72265625 C-165.52884766 226.13073486 -164.54207031 225.53881348 -163.52539062 224.92895508 C-160.375 223.1875 -160.375 223.1875 -156.70898438 221.7175293 C-152.07667455 219.77871654 -147.8333529 217.77947583 -145.28967285 213.2585144 C-143.20120691 208.06057551 -142.10577107 202.61575098 -141.0206604 197.13565063 C-140.35302381 193.76401803 -139.61824244 190.41304382 -138.8659668 187.05932617 C-138.01135945 183.23972328 -137.16067446 179.41962381 -136.33512878 175.59364319 C-133.7530757 163.65372452 -130.91168335 151.78227899 -128.01953125 139.9140625 C-127.66267557 138.44873172 -127.66267557 138.44873172 -127.29861069 136.95379829 C-126.32529256 132.95859812 -125.35112389 128.96360705 -124.37558174 124.96894932 C-121.80134834 114.42766131 -119.25179743 103.88046587 -116.70703125 93.33203125 C-116.37546713 91.95865003 -116.37546713 91.95865003 -116.03720474 90.55752373 C-112.2324611 74.7958977 -108.46808278 59.02479458 -104.73188782 43.2467804 C-103.79922127 39.31017983 -102.8586804 35.37552837 -101.91360092 31.44189072 C-101.36923549 29.16337183 -100.83494605 26.88262262 -100.3006897 24.60171509 C-99.95588446 23.15990364 -99.61063969 21.71819721 -99.26489258 20.27661133 C-98.81887444 18.38946159 -98.81887444 18.38946159 -98.36384583 16.46418762 C-96.95179307 11.78514095 -94.81600742 8.59509958 -91.375 5.1875 C-90.88515625 4.6615625 -90.3953125 4.135625 -89.890625 3.59375 C-69.1116161 -16.56806061 -22.90846311 -16.15002763 0 0 Z " fill="#FE7400" transform="translate(299.375,52.8125)"/>
<path d="M0 0 C10.14973571 8.39016207 13.39484308 17.32331156 16.1640625 29.87109375 C16.52147522 31.45553787 16.52147522 31.45553787 16.8861084 33.07199097 C17.40545692 35.37612736 17.92234935 37.68081842 18.43707275 39.98599243 C19.70174432 45.64719943 20.98230222 51.30480115 22.26293564 56.9624157 C22.56876893 58.31382804 22.87440252 59.6652856 23.1798439 61.01678658 C27.10531955 78.38452909 31.14080062 95.72658655 35.18315887 113.0674324 C35.74738039 115.4887581 36.310964 117.91023138 36.87432861 120.33175659 C37.77026007 124.18267013 38.66724637 128.03333632 39.56513977 131.88379288 C39.89547014 133.30077767 40.22552903 134.71782578 40.55528259 136.13494492 C42.30310411 143.64365166 44.08967109 151.13347306 46.05709839 158.58805847 C48.15772075 168.2031835 46.10784626 176.52252803 40.9375 184.75 C27.06033147 204.24572945 2.56458722 213.0688307 -20.3125 217 C-52.4833457 221.93095796 -87.28278427 216.98318498 -114.375 198.25 C-123.41172696 191.28927788 -130.93001834 182.60536489 -133.375 171.1875 C-133.86424443 165.02768327 -133.01739596 159.43278304 -131.51416016 153.47875977 C-131.31564453 152.6573349 -131.11712891 151.83591003 -130.91259766 150.98959351 C-130.25610274 148.28356617 -129.58511536 145.58135676 -128.9140625 142.87890625 C-128.44383926 140.9523711 -127.97457007 139.02560288 -127.50619507 137.09861755 C-126.26632904 132.00800104 -125.01434704 126.92044284 -123.75952148 121.83349609 C-122.52451695 116.81963971 -121.29941933 111.80336889 -120.07421875 106.78710938 C-118.61916175 100.83111303 -117.16357304 94.87525479 -115.70318604 88.92056274 C-111.9642722 73.66568438 -108.30410429 58.39290571 -104.69082642 43.10780334 C-103.76946484 39.21109522 -102.84096154 35.31615059 -101.90779877 31.42225266 C-101.5479076 29.91273765 -101.19124169 28.4024506 -100.83756256 26.89146805 C-100.32170136 24.68828886 -99.7958909 22.48769262 -99.26806641 20.28735352 C-98.97026276 19.02770279 -98.67245911 17.76805206 -98.3656311 16.4702301 C-96.95272457 11.78817358 -94.81821514 8.59728587 -91.375 5.1875 C-90.64023438 4.39859375 -90.64023438 4.39859375 -89.890625 3.59375 C-69.1116161 -16.56806061 -22.90846311 -16.15002763 0 0 Z " fill="#FF7300" transform="translate(299.375,52.8125)"/>
<path d="M0 0 C1.52996771 2.84928473 2.52356212 5.55533229 3.33203125 8.68359375 C3.69047119 10.05946655 3.69047119 10.05946655 4.05615234 11.46313477 C4.30574707 12.44467529 4.5553418 13.42621582 4.8125 14.4375 C5.07240723 15.45577881 5.33231445 16.47405762 5.60009766 17.52319336 C6.13797963 19.63952814 6.673435 21.75648104 7.20654297 23.87402344 C7.95419616 26.81954695 8.7264999 29.75752939 9.50390625 32.6953125 C13.36995809 47.60722675 15.76347962 60.36369645 7.64453125 74.33203125 C1.55513488 83.91507594 -5.54011786 90.73978388 -15 97 C-15.88171875 97.58652344 -16.7634375 98.17304688 -17.671875 98.77734375 C-50.59796841 119.28639346 -94.36229428 123.46717373 -132 117 C-132.74233887 116.87641113 -133.48467773 116.75282227 -134.24951172 116.62548828 C-156.68246498 112.76419338 -179.97014673 104.59772667 -197 89 C-197.71542969 88.36449219 -198.43085938 87.72898437 -199.16796875 87.07421875 C-207.41890179 79.34961165 -214.06101918 68.52224385 -215.19213867 57.05151367 C-215.31326128 50.50703563 -213.94510351 44.6223053 -212.3125 38.3125 C-211.76020872 36.10975306 -211.20946004 33.90661884 -210.66015625 31.703125 C-210.38187988 30.59388672 -210.10360352 29.48464844 -209.81689453 28.34179688 C-209.0207695 25.08496502 -208.27774346 21.82149382 -207.55859375 18.546875 C-207.3371167 17.53842529 -207.11563965 16.52997559 -206.88745117 15.4909668 C-206.46967168 13.57167727 -206.05688947 11.65129161 -205.6496582 9.72973633 C-205.46105225 8.8714624 -205.27244629 8.01318848 -205.078125 7.12890625 C-204.91731445 6.37681885 -204.75650391 5.62473145 -204.59082031 4.84985352 C-204 3 -204 3 -202 1 C-201.67128906 2.23363281 -201.67128906 2.23363281 -201.3359375 3.4921875 C-196.28210487 21.28332189 -186.05900796 31.96713392 -170.08203125 40.8984375 C-135.50960522 59.23064494 -90.54110661 61.06700419 -53.5 49.8125 C-34.1732977 43.08927484 -14.61900591 33.87758315 -4.6875 15.0625 C-2.30978504 10.07246888 -0.90693312 5.44159875 0 0 Z " fill="#F2F1F0" transform="translate(357,269)"/>
<path d="M0 0 C0.33 0 0.66 0 1 0 C1.22042969 0.99966797 1.22042969 0.99966797 1.4453125 2.01953125 C5.13784507 17.19286912 12.38126862 26.49583129 25.40356445 34.72607422 C52.71365601 51.3353452 89.48834958 55.61066846 120.46289062 48.63818359 C141.50171189 43.34608594 163.77746607 35.64613908 175.82421875 16.26953125 C177.37087434 13.28412628 178.441564 10.27295745 179.359375 7.04296875 C180.03542987 4.88701327 180.9708253 3.00730946 182 1 C183.6364748 7.32322277 185.23536392 13.6551317 186.80957031 19.99414062 C187.34834242 22.14535763 187.89539866 24.29451871 188.45117188 26.44140625 C189.25285289 29.5443155 190.02353266 32.65362525 190.7890625 35.765625 C191.03999664 36.70988342 191.29093079 37.65414185 191.54946899 38.62701416 C194.08910334 49.22957845 191.95501324 58.63958497 186.8125 68.12109375 C175.29559084 86.41411542 152.95222633 97.34861537 132.46972656 102.44873047 C94.49466932 110.92517168 53.08425392 109.39738086 18.53125 90.05859375 C5.45549388 81.71774416 -5.82979032 71.36580133 -10 56 C-11.42387996 48.501787 -10.57776526 42.28754987 -8.69140625 34.9609375 C-8.44583481 33.95406891 -8.20026337 32.94720032 -7.94725037 31.90982056 C-7.16745626 28.72758768 -6.36541527 25.55146876 -5.5625 22.375 C-5.02650859 20.2047936 -4.49198873 18.0342232 -3.95898438 15.86328125 C-2.65630366 10.57119406 -1.33536401 5.28392913 0 0 Z " fill="#FE5C01" transform="translate(165,219)"/>
<path d="M0 0 C0.33 0 0.66 0 1 0 C1.14695313 0.94359375 1.14695313 0.94359375 1.296875 1.90625 C3.3225916 13.50173121 8.27814929 22.07784159 17.91796875 29.13671875 C21.21316205 31.24387646 24.55167655 33.1546387 28 35 C29.01320312 35.5465625 30.02640625 36.093125 31.0703125 36.65625 C58.52656936 49.87842775 92.85933617 49.40078995 121.3125 39.8125 C129.61621251 36.85450126 136.82328523 33.12310385 144 28 C144.63035156 27.57074219 145.26070312 27.14148438 145.91015625 26.69921875 C154.05747113 20.63561611 157.29884703 11.39047886 160 2 C162.02427307 5.56357576 162.97482003 9.31013807 163.9453125 13.2578125 C164.12005096 13.96090546 164.29478943 14.66399841 164.474823 15.38839722 C164.84212146 16.87547343 165.20673868 18.36321412 165.56884766 19.8515625 C166.11875367 22.09946627 166.68590349 24.34254865 167.25390625 26.5859375 C170.23823163 38.628644 171.94725797 48.99938114 165.74609375 60.28125 C153.52393228 79.73013909 131.38234429 88.44484338 109.83300781 93.50927734 C76.8394565 100.57513998 40.59817709 95.99096001 11.8359375 78.0234375 C1.52154196 70.89144499 -7.28712461 61.61201741 -10 49 C-10.56249581 42.4880784 -9.46820935 36.64232159 -7.8125 30.37109375 C-7.59053955 29.49598648 -7.3685791 28.62087921 -7.13989258 27.71925354 C-6.43659794 24.95599469 -5.71858482 22.19681749 -5 19.4375 C-4.51724654 17.55168356 -4.03546628 15.66561771 -3.5546875 13.77929688 C-2.38101751 9.18323924 -1.19414247 4.59077908 0 0 Z " fill="#F2F0F0" transform="translate(176,175)"/>
<path d="M0 0 C0.556875 0.7425 1.11375 1.485 1.6875 2.25 C5.28506164 6.52818141 9.43215676 9.38967384 14.26171875 12.14453125 C15.79602539 13.02431641 15.79602539 13.02431641 17.36132812 13.921875 C18.45896484 14.54578125 19.55660156 15.1696875 20.6875 15.8125 C21.84986717 16.47741412 23.01197181 17.14278737 24.17382812 17.80859375 C26.5854146 19.1900913 28.99811344 20.56961565 31.41162109 21.94775391 C36.95170955 25.11338555 42.47493981 28.30823887 48 31.5 C50.16658796 32.75013641 52.33325488 34.000136 54.5 35.25 C76.16666667 47.75 97.83333333 60.25 119.5 72.75 C120.5732251 73.36915283 121.6464502 73.98830566 122.75219727 74.6262207 C124.91159395 75.8720577 127.07093669 77.11798818 129.23022461 78.36401367 C134.75767597 81.55348953 140.28615121 84.74116885 145.81640625 87.92578125 C146.93660156 88.5712793 148.05679688 89.21677734 149.2109375 89.88183594 C151.42249754 91.15580278 153.63472361 92.42861422 155.84765625 93.70019531 C160.61210114 96.44296245 165.36193539 99.20102809 170.05859375 102.05859375 C177.13926028 106.35897295 183.77512269 110.32906832 192 112 C192.63164062 112.17917969 193.26328125 112.35835938 193.9140625 112.54296875 C211.69111133 116.43794012 227.52457824 106.21880264 242.125 97.5625 C244.23402286 96.32231764 246.34341061 95.08275562 248.453125 93.84375 C249.53142578 93.20953125 250.60972656 92.5753125 251.72070312 91.921875 C257.08994733 88.77515892 262.48208191 85.66841381 267.875 82.5625 C268.95410645 81.94060791 270.03321289 81.31871582 271.14501953 80.67797852 C273.33582951 79.41550269 275.5267476 78.15321444 277.71777344 76.89111328 C283.14659942 73.76319852 288.57319281 70.63141552 294 67.5 C296.16665583 66.24998121 298.3333225 64.99998122 300.5 63.75 C301.5725 63.13125 302.645 62.5125 303.75 61.875 C339.5 41.25 339.5 41.25 342.75317383 39.37329102 C344.90940213 38.12923208 347.06549049 36.88493058 349.22143555 35.64038086 C354.79665505 32.42243214 360.37457082 29.20927627 365.95703125 26.00390625 C372.31403915 22.3519699 378.66166006 18.684238 385 15 C386.15266357 14.33218506 386.15266357 14.33218506 387.32861328 13.65087891 C389.18446062 12.57025334 391.03169335 11.47683744 392.875 10.375 C394.26332031 9.55128906 394.26332031 9.55128906 395.6796875 8.7109375 C398.31792421 6.76557104 400.04377378 4.61677014 402 2 C402.66 1.34 403.32 0.68 404 0 C404.11689626 3.37470504 404.18747934 6.7488843 404.25 10.125 C404.28351563 11.07632812 404.31703125 12.02765625 404.3515625 13.0078125 C404.43298769 18.87042618 404.26103878 22.60191026 400 27 C396.46747377 29.5739721 392.7739663 31.79967572 389 34 C388.0394873 34.5671875 387.07897461 35.134375 386.08935547 35.71875 C383.04915808 37.49788463 379.99554707 39.25173802 376.9375 41 C375.2211132 41.98571612 373.50472872 42.9714363 371.78848267 43.95739746 C370.02332425 44.97105824 368.25755668 45.98365132 366.49169922 46.99609375 C360.9880492 50.15292738 355.49465798 53.32755119 350 56.5 C347.83337945 57.75007993 345.66671268 59.00007976 343.5 60.25 C342.4275 60.86875 341.355 61.4875 340.25 62.125 C304.5 82.75 304.5 82.75 301.24951172 84.62524414 C299.08442929 85.87435518 296.91939018 87.12354129 294.75439453 88.37280273 C289.31384294 91.51202309 283.87252784 94.64990563 278.4296875 97.78515625 C268.72482337 103.37706837 259.02439902 108.97578664 249.35302734 114.62548828 C247.31016131 115.81841918 245.26624189 117.00954828 243.22119141 118.19873047 C239.06474614 120.61640427 234.91535064 123.03912869 230.8125 125.546875 C217.66259199 133.51530069 204.58743929 136.16013937 189.3828125 132.9296875 C182.20744392 131.04055272 176.19365093 127.53908692 169.875 123.75 C168.65077261 123.0311493 167.42565537 122.31381218 166.19970703 121.59790039 C163.68621999 120.12778347 161.17731381 118.65029343 158.671875 117.16650391 C153.10232461 113.87266215 147.48527855 110.6612721 141.875 107.4375 C139.72881421 106.198527 137.58298082 104.95894337 135.4375 103.71875 C131.10591493 101.2157051 126.77255397 98.71578227 122.4375 96.21875 C111.98287049 90.19560261 101.53951558 84.15477555 91.125 78.0625 C81.85733917 72.64215502 72.54640471 67.30059615 63.21859741 61.98480225 C53.94196321 56.69684505 44.69764184 51.35589964 35.48486328 45.95727539 C30.8356186 43.2332253 26.17961418 40.52415111 21.49609375 37.859375 C20.62992432 37.36477783 19.76375488 36.87018066 18.87133789 36.3605957 C17.27044838 35.44797126 15.66698276 34.53984239 14.06030273 33.63745117 C2.33761584 26.94009679 2.33761584 26.94009679 0 21 C-0.22705078 18.61816406 -0.22705078 18.61816406 -0.1953125 16.015625 C-0.18886719 15.08105469 -0.18242188 14.14648438 -0.17578125 13.18359375 C-0.15902344 12.21550781 -0.14226563 11.24742187 -0.125 10.25 C-0.11597656 9.26644531 -0.10695312 8.28289062 -0.09765625 7.26953125 C-0.07412785 4.84610593 -0.04125368 2.42317778 0 0 Z " fill="#FF5C00" transform="translate(54,336)"/>
<path d="M0 0 C0.33 0 0.66 0 1 0 C1.22042969 1.16015625 1.22042969 1.16015625 1.4453125 2.34375 C3.00071866 9.5665556 4.90450345 14.62337261 10 20 C10.52980469 20.58136719 11.05960938 21.16273438 11.60546875 21.76171875 C21.53971685 31.52052759 35.7023215 36.1707067 49 39 C50.40185547 39.33644531 50.40185547 39.33644531 51.83203125 39.6796875 C66.83148346 42.81262029 83.28028097 42.00863808 98 38 C98.66225586 37.82307617 99.32451172 37.64615234 100.00683594 37.46386719 C115.08311226 33.36374319 127.1717216 27.23335401 137.4375 15.125 C139.69508021 10.60983958 140.84924637 5.89942076 142 1 C144.88447079 6.12557987 145.81853676 11.94897018 147.14160156 17.62475586 C147.61996571 19.66601783 148.11418442 21.70299862 148.609375 23.74023438 C151.52879848 36.00188809 152.12523716 44.62011776 146 56 C135.28994687 71.98353107 113.94601854 79.65318638 95.85571289 83.41333008 C66.55142255 88.808276 33.73151998 85.16343866 8.8125 68 C-0.49463965 60.69132592 -6.84224787 52.31079673 -8.88647461 40.5065918 C-9.13721194 32.76177395 -6.60752563 25.238438 -4.625 17.8125 C-4.18023448 16.08060513 -3.73750835 14.34818518 -3.296875 12.61523438 C-2.22134691 8.40373098 -1.11842634 4.20030518 0 0 Z " fill="#FE5D01" transform="translate(185,137)"/>
<path d="M0 0 C1.47251793 2.87545618 2.58320953 5.69278311 3.625 8.75 C7.91694762 19.31717789 16.9954645 24.57428472 26.98144531 29.15869141 C47.33356804 37.64120409 74.29929048 38.32449699 95 31 C96.06992187 30.63777344 97.13984375 30.27554688 98.2421875 29.90234375 C107.75249863 26.33295217 118.44407224 20.55399197 123 11 C124.18500282 7.70617584 125.15926507 4.39711595 126 1 C129.07515659 5.61273489 129.84555332 10.7745866 131.125 16.125 C131.40214844 17.2284375 131.67929687 18.331875 131.96484375 19.46875 C134.24300411 28.9180654 135.7177852 38.06024779 131 47 C118.4413423 64.24828305 98.89846496 71.03535703 78.66015625 74.5859375 C53.94459933 77.38193433 27.70658135 73.43098337 7 59 C0.13742007 53.29830559 -6.16997933 46.32878867 -7.22070312 37.05126953 C-7.43286894 29.01463396 -5.48876894 21.60888958 -3.5 13.875 C-3.16168973 12.52370511 -2.82444226 11.17214367 -2.48828125 9.8203125 C-1.66923061 6.54410994 -0.83959765 3.27098568 0 0 Z " fill="#F2F0EF" transform="translate(193,104)"/>
<path d="M0 0 C0.33 0 0.66 0 1 0 C2.05887038 4.24429906 3.09122335 8.49397087 4.10058594 12.75024414 C4.44674078 14.19400635 4.79979787 15.63613329 5.16015625 17.07641602 C7.59370204 26.82749881 9.11115589 34.4323986 4.125 43.75 C-2.4007234 53.73051814 -11.14517068 59.23474369 -22.125 63.375 C-22.75696289 63.613396 -23.38892578 63.85179199 -24.04003906 64.09741211 C-33.63726151 67.50267979 -42.91639649 68.36210541 -53.0625 68.3125 C-54.25045166 68.30758545 -55.43840332 68.3026709 -56.66235352 68.29760742 C-76.31735044 68.03735588 -95.42569135 63.95812989 -110.375 50.25 C-115.99454679 44.27780959 -118.38327034 37.88466713 -118.24023438 29.67797852 C-117.74483028 24.15553185 -116.32023571 18.81062145 -115 13.4375 C-114.71382812 12.23802734 -114.42765625 11.03855469 -114.1328125 9.80273438 C-113.43085247 6.86620157 -112.71973477 3.93221731 -112 1 C-111.67 1 -111.34 1 -111 1 C-110.88785156 1.67804688 -110.77570313 2.35609375 -110.66015625 3.0546875 C-108.64081341 12.58387399 -104.03350337 18.4826121 -96.08203125 24.0390625 C-77.55272833 34.85741327 -52.68463096 36.56354333 -32 31.4375 C-20.8521929 28.05097698 -9.2268483 22.5655805 -3.0703125 12.3046875 C-1.2453543 8.37503298 -0.58600568 4.26822045 0 0 Z " fill="#FE5C00" transform="translate(312,72)"/>
</svg>
