<?xml version="1.0" encoding="UTF-8"?>
<svg version="1.1" xmlns="http://www.w3.org/2000/svg" width="512" height="512">
<path d="M0 0 C1.81952641 0.87018594 3.60485887 1.81382088 5.359375 2.80859375 C6.38345459 3.38536865 7.40753418 3.96214355 8.46264648 4.55639648 C9.54747314 5.17716064 10.6322998 5.7979248 11.75 6.4375 C12.87672119 7.0756665 14.00344238 7.71383301 15.16430664 8.37133789 C22.64203591 12.61845736 30.07214578 16.94169511 37.46875 21.328125 C43.09867855 24.66001908 48.7691917 27.92147673 54.4375 31.1875 C56.09833618 32.14450806 56.09833618 32.14450806 57.79272461 33.12084961 C60.06337068 34.42889477 62.33412358 35.73675448 64.60498047 37.04443359 C70.0716998 40.19332054 75.53574887 43.34683264 81 46.5 C83.16665311 47.7500235 85.33331979 49.00002347 87.5 50.25 C120 69 120 69 152.5 87.75 C153.57266113 88.36883057 154.64532227 88.98766113 155.75048828 89.62524414 C157.91557071 90.87435518 160.08060982 92.12354129 162.24560547 93.37280273 C167.68615706 96.51202309 173.12747216 99.64990563 178.5703125 102.78515625 C211.12858715 121.54476269 211.12858715 121.54476269 219.17871094 126.40234375 C222.04069166 128.08161022 222.04069166 128.08161022 225.36035156 129.50390625 C233.39819624 133.33571039 233.39819624 133.33571039 235.11816406 138.09228516 C235.42609794 141.84489394 235.22466324 144.43682929 234 148 C231.05593755 151.31762003 227.58922415 152.97362818 223.625 154.875 C221.40564174 156.04963272 219.18691237 157.22545429 216.96875 158.40234375 C215.81503906 158.99257324 214.66132813 159.58280273 213.47265625 160.19091797 C207.91467379 163.08635174 202.53206874 166.27192498 197.125 169.4375 C194.94110766 170.6983543 192.7562051 171.95746041 190.5703125 173.21484375 C184.04513757 176.97355381 177.5223655 180.7364175 171 184.5 C168.83334417 185.75001879 166.6666775 187.00001878 164.5 188.25 C163.4275 188.86875 162.355 189.4875 161.25 190.125 C99.49999999 225.75 99.49999999 225.75 96.24951172 227.62524414 C94.08442929 228.87435518 91.91939018 230.12354129 89.75439453 231.37280273 C84.31384294 234.51202309 78.87252784 237.64990563 73.4296875 240.78515625 C63.80976308 246.32804123 54.19360868 251.87679881 44.60522461 257.47412109 C42.60053975 258.64415059 40.59486589 259.81248746 38.58813477 260.97900391 C33.85300757 263.73405908 29.13680587 266.51371298 24.453125 269.35546875 C23.14879517 270.13712402 23.14879517 270.13712402 21.81811523 270.93457031 C20.19582418 271.90766042 18.58021563 272.89201606 16.97290039 273.88964844 C15.89770142 274.53015137 15.89770142 274.53015137 14.80078125 275.18359375 C14.18372314 275.56056396 13.56666504 275.93753418 12.9309082 276.32592773 C9.51715429 277.51765546 6.86687243 276.40916968 3.7019043 274.9152832 C2.91726807 274.46499756 2.13263184 274.01471191 1.32421875 273.55078125 C-0.02192505 272.78447388 -0.02192505 272.78447388 -1.39526367 272.00268555 C-2.35795166 271.44492432 -3.32063965 270.88716309 -4.3125 270.3125 C-5.32868408 269.73089111 -6.34486816 269.14928223 -7.3918457 268.55004883 C-15.50849237 263.89352882 -23.5888398 259.17374458 -31.66333008 254.44458008 C-39.41223231 249.90989881 -47.19914408 245.44437449 -55 241 C-64.72134099 235.46031101 -74.40895092 229.86624937 -84.06689453 224.21655273 C-94.59084625 218.06233258 -105.15380137 211.97630004 -115.71777344 205.89111328 C-121.14659942 202.76319852 -126.57319281 199.63141552 -132 196.5 C-134.16665583 195.24998121 -136.3333225 193.99998122 -138.5 192.75 C-151.5 185.25 -164.5 177.75 -177.5 170.25 C-178.57419189 169.6302832 -179.64838379 169.01056641 -180.75512695 168.37207031 C-182.90473634 167.13189239 -185.05431358 165.89165873 -187.20385742 164.65136719 C-192.27309212 161.7264977 -197.34264936 158.80219167 -202.4133606 155.87988281 C-204.80426597 154.50193062 -207.19498672 153.12365828 -209.58569336 151.74536133 C-211.26983963 150.77459018 -212.95425231 149.80428126 -214.63867188 148.83398438 C-215.66154297 148.24423828 -216.68441406 147.65449219 -217.73828125 147.046875 C-218.63587158 146.52963867 -219.53346191 146.01240234 -220.45825195 145.47949219 C-221.29702881 144.99125977 -222.13580566 144.50302734 -223 144 C-223.91370361 143.57122559 -224.82740723 143.14245117 -225.76879883 142.70068359 C-228 141 -228 141 -228.85302734 138.10498047 C-229.13532183 129.30786678 -229.13532183 129.30786678 -226.14941406 125.86816406 C-223.39631913 124.0150986 -220.61744459 122.5602745 -217.625 121.125 C-215.40564174 119.95036728 -213.18691237 118.77454571 -210.96875 117.59765625 C-209.81503906 117.00742676 -208.66132813 116.41719727 -207.47265625 115.80908203 C-201.91467379 112.91364826 -196.53206874 109.72807502 -191.125 106.5625 C-188.94110766 105.3016457 -186.7562051 104.04253959 -184.5703125 102.78515625 C-178.04513757 99.02644619 -171.5223655 95.2635825 -165 91.5 C-162.83334417 90.24998121 -160.6666775 88.99998122 -158.5 87.75 C-157.4275 87.13125 -156.355 86.5125 -155.25 85.875 C-67.5 35.25 -67.5 35.25 -64.24780273 33.3737793 C-62.08840605 32.1279423 -59.92906331 30.88201182 -57.76977539 29.63598633 C-52.24232403 26.44651047 -46.71384879 23.25883115 -41.18359375 20.07421875 C-40.06299561 19.42839844 -38.94239746 18.78257812 -37.7878418 18.1171875 C-35.58066654 16.84592661 -33.37251865 15.5763527 -31.16333008 14.30859375 C-26.32815516 11.52802468 -21.51554587 8.7250086 -16.765625 5.80078125 C-15.59108765 5.08402222 -15.59108765 5.08402222 -14.39282227 4.3527832 C-12.97401274 3.48246066 -11.56232816 2.60035674 -10.15991211 1.70385742 C-6.23059306 -0.69833514 -4.38671803 -1.29006742 0 0 Z " fill="#587380" transform="translate(253,118)"/>
<path d="M0 0 C1.91433991 0.99957569 3.80106538 2.05342155 5.66015625 3.15234375 C7.2215332 4.06983398 7.2215332 4.06983398 8.81445312 5.00585938 C9.88630859 5.64330078 10.95816406 6.28074219 12.0625 6.9375 C13.13822266 7.57107422 14.21394531 8.20464844 15.32226562 8.85742188 C18.21875868 10.56514965 21.11135173 12.27904146 24 14 C25.37877319 14.65053345 25.37877319 14.65053345 26.78540039 15.31420898 C29 17 29 17 29.85302734 19.89501953 C30.13532183 28.69213322 30.13532183 28.69213322 27.14941406 32.13183594 C24.39631913 33.9849014 21.61744459 35.4397255 18.625 36.875 C16.40564174 38.04963272 14.18691237 39.22545429 11.96875 40.40234375 C10.23818359 41.28768799 10.23818359 41.28768799 8.47265625 42.19091797 C2.91467379 45.08635174 -2.46793126 48.27192498 -7.875 51.4375 C-10.05889234 52.6983543 -12.2437949 53.95746041 -14.4296875 55.21484375 C-20.95486243 58.97355381 -27.4776345 62.7364175 -34 66.5 C-36.16665583 67.75001879 -38.3333225 69.00001878 -40.5 70.25 C-41.5725 70.86875 -42.645 71.4875 -43.75 72.125 C-105.5 107.75 -105.5 107.75 -108.75048828 109.62524414 C-110.91557071 110.87435518 -113.08060982 112.12354129 -115.24560547 113.37280273 C-120.68615706 116.51202309 -126.12747216 119.64990563 -131.5703125 122.78515625 C-141.19023692 128.32804123 -150.80639132 133.87679881 -160.39477539 139.47412109 C-162.39946025 140.64415059 -164.40513411 141.81248746 -166.41186523 142.97900391 C-171.14699243 145.73405908 -175.86319413 148.51371298 -180.546875 151.35546875 C-181.41642822 151.87657227 -182.28598145 152.39767578 -183.18188477 152.93457031 C-184.80417582 153.90766042 -186.41978437 154.89201606 -188.02709961 155.88964844 C-188.74389893 156.31665039 -189.46069824 156.74365234 -190.19921875 157.18359375 C-190.81627686 157.56056396 -191.43333496 157.93753418 -192.0690918 158.32592773 C-195.59096749 159.55540033 -198.27350191 158.34927928 -201.52026367 156.78833008 C-202.39400635 156.28712646 -203.26774902 155.78592285 -204.16796875 155.26953125 C-205.14443359 154.71330078 -206.12089844 154.15707031 -207.12695312 153.58398438 C-208.13693359 152.99939453 -209.14691406 152.41480469 -210.1875 151.8125 C-211.17814453 151.24724609 -212.16878906 150.68199219 -213.18945312 150.09960938 C-219.50935403 146.48172512 -225.77072703 142.77154632 -232 139 C-231.34 138.67 -230.68 138.34 -230 138 C-230 134.37 -230 130.74 -230 127 C-228.40542969 126.13375 -226.81085938 125.2675 -225.16796875 124.375 C-219.52343451 121.29534356 -213.9097729 118.16462149 -208.3125 115 C-206.82882935 114.16142456 -206.82882935 114.16142456 -205.31518555 113.3059082 C-197.2819667 108.7525052 -189.30257799 104.11075684 -181.33520508 99.44335938 C-173.5864406 94.90968689 -165.80031269 90.44406499 -158 86 C-148.27865901 80.46031101 -138.59104908 74.86624937 -128.93310547 69.21655273 C-118.40915375 63.06233258 -107.84619863 56.97630004 -97.28222656 50.89111328 C-91.85340058 47.76319852 -86.42680719 44.63141552 -81 41.5 C-78.83334417 40.24998121 -76.6666775 38.99998122 -74.5 37.75 C-73.4275 37.13125 -72.355 36.5125 -71.25 35.875 C-61.5 30.25 -61.5 30.25 -58.24609375 28.37280273 C-56.0923828 27.13023981 -53.93873633 25.88756511 -51.78515625 24.64477539 C-46.76315738 21.74685377 -41.74057193 18.84996651 -36.71557617 15.95724487 C-34.94954478 14.94052802 -33.18372569 13.92344342 -31.41796875 12.90625 C-29.21265845 11.63599127 -27.00695784 10.36640982 -24.80078125 9.09765625 C-23.79402344 8.51757812 -22.78726563 7.9375 -21.75 7.33984375 C-20.29980469 6.51202393 -20.29980469 6.51202393 -18.8203125 5.66748047 C-16.93033455 4.55005064 -15.06998381 3.38103207 -13.2421875 2.16455078 C-12.37851562 1.59591309 -11.51484375 1.02727539 -10.625 0.44140625 C-9.87476563 -0.07607178 -9.12453125 -0.5935498 -8.3515625 -1.12670898 C-4.95088596 -2.38960558 -3.26630122 -1.43839028 0 0 Z " fill="#D9DEFE" transform="translate(458,236)"/>
<path d="M0 0 C1.94874821 0.94024737 3.86262346 1.95453154 5.74609375 3.01953125 C6.83083984 3.62990234 7.91558594 4.24027344 9.03320312 4.86914062 C10.15662109 5.51044922 11.28003906 6.15175781 12.4375 6.8125 C13.55705078 7.44220703 14.67660156 8.07191406 15.83007812 8.72070312 C21.01732816 11.65450092 26.07022735 14.65481346 31 18 C27.57142523 20.86477513 24.12061062 23.20603564 20.23046875 25.3984375 C18.5453418 26.35363281 18.5453418 26.35363281 16.82617188 27.328125 C16.23376709 27.66134766 15.6413623 27.99457031 15.03100586 28.33789062 C11.86326896 30.11997861 8.70372498 31.91650744 5.54296875 33.7109375 C4.90221405 34.07419128 4.26145935 34.43744507 3.60128784 34.81170654 C-2.29515335 38.15788702 -8.15169511 41.57043543 -14 45 C-22.63461783 50.05691318 -31.30606948 55.04607481 -40 60 C-49.72124506 65.53985933 -59.40894868 71.13374932 -69.06689453 76.78344727 C-79.59084625 82.93766742 -90.15380137 89.02369996 -100.71777344 95.10888672 C-106.14659942 98.23680148 -111.57319281 101.36858448 -117 104.5 C-119.16665583 105.75001879 -121.3333225 107.00001878 -123.5 108.25 C-124.5725 108.86875 -125.645 109.4875 -126.75 110.125 C-136.5 115.75 -136.5 115.75 -139.75390625 117.62719727 C-141.9076172 118.86976019 -144.06126367 120.11243489 -146.21484375 121.35522461 C-151.23684262 124.25314623 -156.25942807 127.15003349 -161.28442383 130.04275513 C-163.05045522 131.05947198 -164.81627431 132.07655658 -166.58203125 133.09375 C-168.78734155 134.36400873 -170.99304216 135.63359018 -173.19921875 136.90234375 C-178.86414009 140.16638294 -184.48323534 143.48428892 -190.0390625 146.93139648 C-192 148 -192 148 -194 148 C-194 151.96 -194 155.92 -194 160 C-204.00318993 155.18833902 -213.48946762 149.70967453 -223 144 C-223.88324951 143.5872583 -224.76649902 143.1745166 -225.67651367 142.74926758 C-228 141 -228 141 -228.85302734 138.10498047 C-229.13532183 129.30786678 -229.13532183 129.30786678 -226.14941406 125.86816406 C-223.39631913 124.0150986 -220.61744459 122.5602745 -217.625 121.125 C-215.40564174 119.95036728 -213.18691237 118.77454571 -210.96875 117.59765625 C-209.81503906 117.00742676 -208.66132813 116.41719727 -207.47265625 115.80908203 C-201.91467379 112.91364826 -196.53206874 109.72807502 -191.125 106.5625 C-188.94110766 105.3016457 -186.7562051 104.04253959 -184.5703125 102.78515625 C-178.04513757 99.02644619 -171.5223655 95.2635825 -165 91.5 C-162.83334417 90.24998121 -160.6666775 88.99998122 -158.5 87.75 C-157.4275 87.13125 -156.355 86.5125 -155.25 85.875 C-67.5 35.25 -67.5 35.25 -64.24780273 33.3737793 C-62.08840605 32.1279423 -59.92906331 30.88201182 -57.76977539 29.63598633 C-52.24232403 26.44651047 -46.71384879 23.25883115 -41.18359375 20.07421875 C-40.06299561 19.42839844 -38.94239746 18.78257812 -37.7878418 18.1171875 C-35.58066654 16.84592661 -33.37251865 15.5763527 -31.16333008 14.30859375 C-26.32815516 11.52802468 -21.51554587 8.7250086 -16.765625 5.80078125 C-15.59108765 5.08402222 -15.59108765 5.08402222 -14.39282227 4.3527832 C-12.97401274 3.48246066 -11.56232816 2.60035674 -10.15991211 1.70385742 C-6.22789032 -0.69998746 -4.38813174 -1.30053113 0 0 Z " fill="#D9DEFE" transform="translate(253,118)"/>
<path d="M0 0 C-1.26827726 3.80483177 -2.43121169 4.10984818 -5.87109375 6.046875 C-6.90685547 6.63662109 -7.94261719 7.22636719 -9.00976562 7.83398438 C-10.14091797 8.46626953 -11.27207031 9.09855469 -12.4375 9.75 C-13.61838641 10.41895566 -14.79871698 11.0888934 -15.97851562 11.75976562 C-18.43258956 13.15421893 -20.88901404 14.54439313 -23.34716797 15.93164062 C-28.92079499 19.08167162 -34.45857174 22.29378813 -40 25.5 C-42.16649563 26.75029642 -44.33316295 28.00029538 -46.5 29.25 C-47.5725 29.86875 -48.645 30.4875 -49.75 31.125 C-163.5 96.75 -163.5 96.75 -166.75317383 98.62670898 C-168.90940213 99.87076792 -171.06549049 101.11506942 -173.22143555 102.35961914 C-178.21447507 105.24154067 -183.2087388 108.1212475 -188.20825195 110.9919281 C-205.25032453 120.75134975 -205.25032453 120.75134975 -222 131 C-217.99347202 134.43861236 -213.80712099 136.89004043 -209.1875 139.375 C-201.92980779 143.34285771 -194.75899385 147.4390008 -187.625 151.625 C-173.54320643 159.87846714 -159.3635265 167.95608495 -145.18164062 176.03598022 C-138.51282259 179.83638693 -131.85101911 183.64507696 -125.25 187.5625 C-116.90841159 192.49041758 -108.52217518 197.34020351 -100.11328125 202.15234375 C-94.4308249 205.41081522 -88.79083342 208.71933643 -83.20703125 212.14453125 C-82.12172119 212.80227539 -81.03641113 213.46001953 -79.91821289 214.13769531 C-77.84856535 215.39508155 -75.78858586 216.66855975 -73.73999023 217.95996094 C-68.71329146 221.15973603 -68.71329146 221.15973603 -63 221.7578125 C-62.01 221.17773438 -61.02 220.59765625 -60 220 C-59.2462207 219.58451904 -58.49244141 219.16903809 -57.71582031 218.7409668 C-54.86172552 217.14881303 -52.05657781 215.48693826 -49.25 213.8125 C-47.08632451 212.53580222 -44.92224834 211.25978329 -42.7578125 209.984375 C-41.64180664 209.32501953 -40.52580078 208.66566406 -39.37597656 207.98632812 C-33.9787367 204.81074644 -28.55236 201.6862344 -23.125 198.5625 C-20.94008624 197.30341652 -18.75519051 196.04430177 -16.5703125 194.78515625 C-15.48524414 194.16012207 -14.40017578 193.53508789 -13.28222656 192.89111328 C-7.85340058 189.76319852 -2.42680719 186.63141552 3 183.5 C5.16665583 182.24998121 7.3333225 180.99998122 9.5 179.75 C10.5725 179.13125 11.645 178.5125 12.75 177.875 C100.50000001 127.25 100.50000001 127.25 103.75341797 125.37304688 C105.90871311 124.1295949 108.06398673 122.88610564 110.21923828 121.64257812 C115.22337674 118.75537125 120.2277052 115.8684957 125.23284912 112.98303223 C126.98341241 111.97380896 128.73390411 110.96446164 130.484375 109.95507812 C132.66392165 108.6983234 134.84359832 107.44179414 137.0234375 106.18554688 C138.52390625 105.32026367 138.52390625 105.32026367 140.0546875 104.4375 C141.03018555 103.87804687 142.00568359 103.31859375 143.01074219 102.7421875 C145.10412947 101.52212774 147.18181781 100.27491479 149.24707031 99.0078125 C150.30249023 98.36585938 151.35791016 97.72390625 152.4453125 97.0625 C153.39164551 96.47597656 154.33797852 95.88945312 155.31298828 95.28515625 C158.15440538 93.92615029 159.8957021 93.72399982 163 94 C163.33 94.99 163.66 95.98 164 97 C161.35921766 98.52352827 158.71843269 100.047052 156.07763672 101.57055664 C153.74328358 102.91732423 151.40896765 104.26415607 149.07470703 105.61108398 C143.16021511 109.02377298 137.24511559 112.43539406 131.328125 115.84375 C120.86993676 121.86955329 110.42143626 127.91082033 100 134 C88.45270484 140.74701194 76.87097973 147.43339318 65.28222656 154.10888672 C59.85340058 157.23680148 54.42680719 160.36858448 49 163.5 C46.83334417 164.75001879 44.6666775 166.00001878 42.5 167.25 C41.4275 167.86875 40.355 168.4875 39.25 169.125 C3.5 189.75 3.5 189.75 0.24731445 191.62646484 C-1.91049803 192.87141282 -4.06821353 194.1165289 -6.22583008 195.36181641 C-11.77716592 198.56552651 -17.33036541 201.7659363 -22.88671875 204.9609375 C-25.15370754 206.26551777 -27.42063562 207.57020356 -29.6875 208.875 C-30.77168213 209.49834229 -31.85586426 210.12168457 -32.97290039 210.76391602 C-39.62022659 214.59554242 -46.23314928 218.47666598 -52.72729492 222.56396484 C-55.41769518 224.22341839 -56.76468929 225 -60 225 C-60 228.63 -60 232.26 -60 236 C-64.23874857 235.47188606 -67.26608915 234.56371885 -70.921875 232.3671875 C-72.31575439 231.54069702 -72.31575439 231.54069702 -73.73779297 230.69750977 C-74.73182129 230.09608154 -75.72584961 229.49465332 -76.75 228.875 C-78.91360121 227.58906731 -81.07768002 226.3039379 -83.2421875 225.01953125 C-84.35819336 224.3538916 -85.47419922 223.68825195 -86.62402344 223.00244141 C-92.01253101 219.80627861 -97.44352595 216.68489786 -102.875 213.5625 C-105.05998436 212.30353904 -107.24487972 211.04442362 -109.4296875 209.78515625 C-111.05729004 208.84760498 -111.05729004 208.84760498 -112.71777344 207.89111328 C-118.14659942 204.76319852 -123.57319281 201.63141552 -129 198.5 C-131.16665583 197.24998121 -133.3333225 195.99998122 -135.5 194.75 C-148.5 187.25 -161.5 179.75 -174.5 172.25 C-175.57386963 171.6305249 -176.64773926 171.0110498 -177.75415039 170.37280273 C-179.90721037 169.13052194 -182.06004478 167.88785012 -184.21264648 166.64477539 C-189.24101461 163.74163888 -194.27139814 160.84221133 -199.31021118 157.95724487 C-201.08432545 156.94122816 -202.85769919 155.92393072 -204.63085938 154.90625 C-206.84815314 153.63417708 -209.06681075 152.36447715 -211.28710938 151.09765625 C-213.28064668 149.9526763 -215.265146 148.7917672 -217.23876953 147.61279297 C-219.96078587 145.97784546 -219.96078587 145.97784546 -222.74169922 144.65673828 C-225.31514982 143.27944799 -227.12100141 142.24037789 -229 140 C-229.74318308 135.89553518 -229.54012625 132.12096324 -229 128 C-227.9162207 127.38294189 -227.9162207 127.38294189 -226.81054688 126.75341797 C-213.14961858 118.97152151 -199.50963683 111.15857684 -185.93896484 103.2199707 C-175.41304776 97.06463149 -164.84815833 90.97742889 -154.28222656 84.89111328 C-148.85340058 81.76319852 -143.42680719 78.63141552 -138 75.5 C-135.83334417 74.24998121 -133.6666775 72.99998122 -131.5 71.75 C-130.4275 71.13125 -129.355 70.5125 -128.25 69.875 C-66.5 34.25 -66.5 34.25 -63.24731445 32.37353516 C-61.08950197 31.12858718 -58.93178647 29.8834711 -56.77416992 28.63818359 C-51.22283408 25.43447349 -45.66963459 22.2340637 -40.11328125 19.0390625 C-38.98245117 18.38808594 -37.85162109 17.73710937 -36.68652344 17.06640625 C-34.46559624 15.78848924 -32.24361734 14.51239801 -30.02050781 13.23828125 C-25.38118565 10.57092089 -20.76706095 7.88772551 -16.24609375 5.0234375 C-15.55668701 4.59015137 -14.86728027 4.15686523 -14.15698242 3.71044922 C-12.41271009 2.60327956 -10.68215066 1.47458195 -8.953125 0.34375 C-5.45382502 -1.24852406 -3.65309771 -1.00624248 0 0 Z " fill="#2B373F" transform="translate(288,138)"/>
<path d="M0 0 C0.6356722 4.15739828 0.84961304 7.86221486 0 12 C-2.90504299 15.26991639 -6.47936065 16.91276722 -10.375 18.8125 C-12.59429362 19.99637733 -14.81302515 21.18130882 -17.03125 22.3671875 C-18.18496094 22.96370117 -19.33867187 23.56021484 -20.52734375 24.17480469 C-26.07619172 27.09122675 -31.46471241 30.27374561 -36.875 33.4375 C-39.05896301 34.6982319 -41.24386506 35.95733844 -43.4296875 37.21484375 C-49.95486243 40.97355381 -56.4776345 44.7364175 -63 48.5 C-65.16665583 49.75001879 -67.3333225 51.00001878 -69.5 52.25 C-70.5725 52.86875 -71.645 53.4875 -72.75 54.125 C-134.5 89.75 -134.5 89.75 -137.75048828 91.62524414 C-139.91557071 92.87435518 -142.08060982 94.12354129 -144.24560547 95.37280273 C-149.68615706 98.51202309 -155.12747216 101.64990563 -160.5703125 104.78515625 C-171.20784139 110.91437272 -181.8353559 117.05974331 -192.4375 123.25 C-193.41686523 123.82129639 -194.39623047 124.39259277 -195.40527344 124.98120117 C-200.15821864 127.75428401 -204.90787056 130.53275852 -209.65234375 133.3203125 C-211.39315969 134.33866044 -213.13404158 135.35689566 -214.875 136.375 C-215.67220459 136.84583008 -216.46940918 137.31666016 -217.29077148 137.80175781 C-222.77338552 141 -222.77338552 141 -225 141 C-225 137.04 -225 133.08 -225 129 C-223.4015625 128.07960938 -221.803125 127.15921875 -220.15625 126.2109375 C-217.93739199 124.93247861 -215.71861636 123.65387808 -213.5 122.375 C-212.91377869 122.03709442 -212.32755737 121.69918884 -211.72357178 121.3510437 C-203.50853204 116.6144932 -195.3095522 111.85159901 -187.125 107.0625 C-177.85507201 101.64067002 -168.54168133 96.29795019 -159.21154785 90.98077393 C-150.0871716 85.77954871 -140.99867226 80.51972122 -131.93310547 75.21655273 C-121.40915375 69.06233258 -110.84619863 62.97630004 -100.28222656 56.89111328 C-94.85340058 53.76319852 -89.42680719 50.63141552 -84 47.5 C-81.83334417 46.24998121 -79.6666775 44.99998122 -77.5 43.75 C-76.4275 43.13125 -75.355 42.5125 -74.25 41.875 C-64.5 36.25 -64.5 36.25 -61.24780273 34.3737793 C-59.08840605 33.1279423 -56.92906331 31.88201182 -54.76977539 30.63598633 C-49.24232403 27.44651047 -43.71384879 24.25883115 -38.18359375 21.07421875 C-35.93487417 19.77868343 -33.68617595 18.48311104 -31.4375 17.1875 C-29.82004883 16.25635376 -29.82004883 16.25635376 -28.16992188 15.30639648 C-23.31758267 12.5088363 -18.47430694 9.69879849 -13.66015625 6.8359375 C-12.86359619 6.36260986 -12.06703613 5.88928223 -11.24633789 5.40161133 C-9.7938606 4.5357448 -8.34365882 3.66604464 -6.89624023 2.79174805 C-2.21802943 0 -2.21802943 0 0 0 Z " fill="#8C8FC1" transform="translate(487,254)"/>
<path d="M0 0 C-1.26827726 3.80483177 -2.43121169 4.10984818 -5.87109375 6.046875 C-6.90685547 6.63662109 -7.94261719 7.22636719 -9.00976562 7.83398438 C-10.14091797 8.46626953 -11.27207031 9.09855469 -12.4375 9.75 C-13.61838641 10.41895566 -14.79871698 11.0888934 -15.97851562 11.75976562 C-18.43258956 13.15421893 -20.88901404 14.54439313 -23.34716797 15.93164062 C-28.92079499 19.08167162 -34.45857174 22.29378813 -40 25.5 C-42.16649563 26.75029642 -44.33316295 28.00029538 -46.5 29.25 C-47.5725 29.86875 -48.645 30.4875 -49.75 31.125 C-163.5 96.75 -163.5 96.75 -166.75317383 98.62670898 C-168.90940213 99.87076792 -171.06549049 101.11506942 -173.22143555 102.35961914 C-178.21448649 105.24154727 -183.20874064 108.12129742 -188.20829773 110.9919281 C-191.07706094 112.63924225 -193.94478904 114.28835493 -196.8125 115.9375 C-197.90183838 116.56342041 -198.99117676 117.18934082 -200.11352539 117.83422852 C-206.76605539 121.67011134 -213.33246499 125.60191335 -219.77734375 129.77734375 C-222 131 -222 131 -225 131 C-225.66 130.67 -226.32 130.34 -227 130 C-227.33 133.3 -227.66 136.6 -228 140 C-228.33 140 -228.66 140 -229 140 C-229 136.04 -229 132.08 -229 128 C-227.9162207 127.38294189 -227.9162207 127.38294189 -226.81054688 126.75341797 C-213.14961858 118.97152151 -199.50963683 111.15857684 -185.93896484 103.2199707 C-175.41304776 97.06463149 -164.84815833 90.97742889 -154.28222656 84.89111328 C-148.85340058 81.76319852 -143.42680719 78.63141552 -138 75.5 C-135.83334417 74.24998121 -133.6666775 72.99998122 -131.5 71.75 C-130.4275 71.13125 -129.355 70.5125 -128.25 69.875 C-66.5 34.25 -66.5 34.25 -63.24731445 32.37353516 C-61.08950197 31.12858718 -58.93178647 29.8834711 -56.77416992 28.63818359 C-51.22283408 25.43447349 -45.66963459 22.2340637 -40.11328125 19.0390625 C-38.98245117 18.38808594 -37.85162109 17.73710937 -36.68652344 17.06640625 C-34.46559624 15.78848924 -32.24361734 14.51239801 -30.02050781 13.23828125 C-25.38118565 10.57092089 -20.76706095 7.88772551 -16.24609375 5.0234375 C-15.55668701 4.59015137 -14.86728027 4.15686523 -14.15698242 3.71044922 C-12.41271009 2.60327956 -10.68215066 1.47458195 -8.953125 0.34375 C-5.45382502 -1.24852406 -3.65309771 -1.00624248 0 0 Z " fill="#3C4C55" transform="translate(288,138)"/>
<path d="M0 0 C0.33 0.99 0.66 1.98 1 3 C-1.64078234 4.52352827 -4.28156731 6.047052 -6.92236328 7.57055664 C-9.25671642 8.91732423 -11.59103235 10.26415607 -13.92529297 11.61108398 C-19.83978489 15.02377298 -25.75488441 18.43539406 -31.671875 21.84375 C-42.13006324 27.86955329 -52.57856374 33.91082033 -63 40 C-74.54729516 46.74701194 -86.12902027 53.43339318 -97.71777344 60.10888672 C-103.14659942 63.23680148 -108.57319281 66.36858448 -114 69.5 C-116.16665583 70.75001879 -118.3333225 72.00001878 -120.5 73.25 C-121.5725 73.86875 -122.645 74.4875 -123.75 75.125 C-159.5 95.75 -159.5 95.75 -162.75268555 97.62646484 C-164.91049803 98.87141282 -167.06821353 100.1165289 -169.22583008 101.36181641 C-174.77716592 104.56552651 -180.33036541 107.7659363 -185.88671875 110.9609375 C-188.15373718 112.26546627 -190.42066572 113.57015126 -192.6875 114.875 C-194.31486084 115.81110107 -194.31486084 115.81110107 -195.97509766 116.76611328 C-203.1309551 120.89249972 -210.22016013 125.11086486 -217.2421875 129.4609375 C-221.41018041 131.78698454 -221.41018041 131.78698454 -224 132 C-224.99 131.34 -225.98 130.68 -227 130 C-227 129.34 -227 128.68 -227 128 C-226.14341797 127.51926025 -226.14341797 127.51926025 -225.26953125 127.02880859 C-213.18625718 120.24037143 -201.15439352 113.37311092 -189.19287109 106.37231445 C-178.58353211 100.16403197 -167.93371497 94.02671226 -157.28222656 87.89111328 C-151.85340058 84.76319852 -146.42680719 81.63141552 -141 78.5 C-138.83334417 77.24998121 -136.6666775 75.99998122 -134.5 74.75 C-133.4275 74.13125 -132.355 73.5125 -131.25 72.875 C-69.5 37.25 -69.5 37.25 -66.24829102 35.37402344 C-64.08731012 34.12729744 -61.92634002 32.88055273 -59.76538086 31.63378906 C-54.26181149 28.45854117 -48.75803968 25.28364505 -43.25390625 22.109375 C-42.14362061 21.4687915 -41.03333496 20.82820801 -39.8894043 20.16821289 C-37.69504853 18.90300021 -35.49991515 17.63913512 -33.30395508 16.37670898 C-28.28786085 13.49033162 -23.28636557 10.58505818 -18.3203125 7.61328125 C-17.44818115 7.09540039 -16.5760498 6.57751953 -15.67749023 6.04394531 C-14.06999202 5.08754771 -12.46751683 4.12263256 -10.87133789 3.14746094 C-4.47614094 -0.64196127 -4.47614094 -0.64196127 0 0 Z " fill="#3C4C55" transform="translate(451,232)"/>
<path d="M0 0 C0.66 0 1.32 0 2 0 C2 0.66 2 1.32 2 2 C2.69834961 2.259021 3.39669922 2.51804199 4.11621094 2.78491211 C7.28639545 4.12067306 10.1631978 5.71819415 13.140625 7.44140625 C13.70827576 7.76914536 14.27592651 8.09688446 14.86077881 8.43455505 C16.05165144 9.12300971 17.24160078 9.8130637 18.43066406 10.50463867 C20.25628193 11.56615266 22.08491123 12.62232291 23.9140625 13.67773438 C32.85086462 18.85086462 32.85086462 18.85086462 34 20 C34.07244053 22.01964199 34.08377188 24.04167124 34.0625 26.0625 C34.05347656 27.16722656 34.04445313 28.27195312 34.03515625 29.41015625 C34.02355469 30.26480469 34.01195312 31.11945313 34 32 C28.23982516 29.8544937 23.09428799 26.73344767 17.7890625 23.66015625 C16.00835741 22.62983562 14.22318673 21.60759417 12.4375 20.5859375 C11.303125 19.93109375 10.16875 19.27625 9 18.6015625 C7.96875 18.00682129 6.9375 17.41208008 5.875 16.79931641 C3.0655714 15.04103781 0.54157954 13.12284964 -2 11 C-1.34 11 -0.68 11 0 11 C0 7.37 0 3.74 0 0 Z " fill="#AFB5F2" transform="translate(228,363)"/>
<path d="M0 0 C4.24555308 1.28934664 7.87225844 2.90767136 11.6953125 5.15234375 C12.74074219 5.76400391 13.78617188 6.37566406 14.86328125 7.00585938 C15.93964844 7.64330078 17.01601563 8.28074219 18.125 8.9375 C19.20910156 9.57107422 20.29320313 10.20464844 21.41015625 10.85742188 C31.42814683 16.74562277 31.42814683 16.74562277 34 19 C34.390625 21.91796875 34.390625 21.91796875 34.25 25.1875 C34.21390625 26.27417969 34.1778125 27.36085938 34.140625 28.48046875 C34.09421875 29.31191406 34.0478125 30.14335937 34 31 C24.61681717 26.55247982 15.66950205 21.47440756 6.81176758 16.06420898 C4.84188294 14.87118386 4.84188294 14.87118386 2.015625 13.5859375 C0 12 0 12 -0.48828125 9.08203125 C-0.43027344 8.00308594 -0.37226563 6.92414063 -0.3125 5.8125 C-0.26738281 4.72582031 -0.22226562 3.63914063 -0.17578125 2.51953125 C-0.11777344 1.68808594 -0.05976563 0.85664063 0 0 Z " fill="#B1B7F5" transform="translate(25,247)"/>
<path d="M0 0 C0.99 0.66 1.98 1.32 3 2 C3 2.99 3 3.98 3 5 C-0.60875236 7.10392821 -4.22005862 9.20338301 -7.83374023 11.29882812 C-9.06133057 12.01148691 -10.2882293 12.72533846 -11.5144043 13.44042969 C-13.28251176 14.47128731 -15.05310658 15.49775292 -16.82421875 16.5234375 C-17.88729248 17.14138184 -18.95036621 17.75932617 -20.0456543 18.39599609 C-22.67134411 19.82156275 -25.16427968 21.06300087 -28 22 C-30.70199362 21.09062497 -32.59921328 19.60052448 -35 18 C-31.1681374 13.70670462 -25.91717076 11.2193999 -20.99487305 8.36499023 C-19.19652522 7.31775567 -17.40998591 6.25210074 -15.62304688 5.18554688 C-14.48287109 4.52232422 -13.34269531 3.85910156 -12.16796875 3.17578125 C-11.12922607 2.56645752 -10.0904834 1.95713379 -9.02026367 1.3293457 C-5.68998919 -0.13644886 -3.59756369 -0.41533257 0 0 Z " fill="#D4DAF9" transform="translate(368,184)"/>
<path d="M0 0 C2.6490324 0.90823968 4.83352731 2.246073 7.1875 3.75 C1.7643033 8.25850769 -4.14466268 11.62923026 -10.25 15.125 C-11.36955078 15.79144531 -12.48910156 16.45789063 -13.64257812 17.14453125 C-14.72861328 17.76457031 -15.81464844 18.38460938 -16.93359375 19.0234375 C-17.9177124 19.59497559 -18.90183105 20.16651367 -19.91577148 20.75537109 C-23.66437641 22.0425027 -25.28806884 21.44707264 -28.8125 19.75 C-30.6875 18.125 -30.6875 18.125 -31.8125 16.75 C-27.8618839 14.48897707 -23.91086622 12.2286581 -19.95947266 9.96899414 C-18.61496055 9.19998257 -17.2705589 8.43077783 -15.92626953 7.66137695 C-13.99540668 6.55629641 -12.06414926 5.45190829 -10.1328125 4.34765625 C-9.22959763 3.83042747 -9.22959763 3.83042747 -8.30813599 3.30274963 C-2.03687576 -0.28094838 -2.03687576 -0.28094838 0 0 Z " fill="#D4DAF9" transform="translate(171.8125,295.25)"/>
<path d="M0 0 C2.49624975 0.96793358 4.66227909 2.3035481 6.9140625 3.7421875 C3.07452801 8.04497196 -2.21514437 10.56572827 -7.14599609 13.43212891 C-8.95602084 14.48931581 -10.75310545 15.56651566 -12.55078125 16.64453125 C-13.70498658 17.31898075 -14.85991177 17.99220016 -16.015625 18.6640625 C-17.05960449 19.27862305 -18.10358398 19.89318359 -19.17919922 20.52636719 C-22.44695572 21.89319294 -23.77858305 21.8501049 -27.0859375 20.7421875 C-29.3984375 19.6796875 -29.3984375 19.6796875 -31.0859375 18.7421875 C-29.92919657 15.27196471 -29.48204495 15.11335303 -26.40234375 13.47265625 C-25.26466553 12.85547729 -25.26466553 12.85547729 -24.10400391 12.22583008 C-23.29366699 11.79810303 -22.48333008 11.37037598 -21.6484375 10.9296875 C-20.00039917 10.04334347 -18.35325695 9.15533115 -16.70703125 8.265625 C-15.91022949 7.83604492 -15.11342773 7.40646484 -14.29248047 6.96386719 C-10.76572507 5.01123563 -7.38691977 2.83656819 -4.03125 0.60546875 C-2.0859375 -0.2578125 -2.0859375 -0.2578125 0 0 Z " fill="#D5DAFA" transform="translate(220.0859375,267.2578125)"/>
<path d="M0 0 C2.45063118 1.19542984 3.72473173 2.29971531 5.5625 4.25 C1.25355276 6.95784869 -3.0821409 9.61775627 -7.4375 12.25 C-8.13230469 12.6718457 -8.82710938 13.09369141 -9.54296875 13.52832031 C-11.66491057 14.80670329 -13.79895666 16.06212601 -15.9375 17.3125 C-16.60716797 17.71847412 -17.27683594 18.12444824 -17.96679688 18.54272461 C-20.88860431 20.22614765 -22.84703263 21.28920115 -26.26171875 21.0625 C-28.4153706 20.25826376 -30.42781881 19.36648955 -32.4375 18.25 C-32.4375 17.59 -32.4375 16.93 -32.4375 16.25 C-28.4868839 13.98897707 -24.53586622 11.7286581 -20.58447266 9.46899414 C-19.23996055 8.69998257 -17.8955589 7.93077783 -16.55126953 7.16137695 C-14.62040668 6.05629641 -12.68914926 4.95190829 -10.7578125 3.84765625 C-9.85459763 3.33042747 -9.85459763 3.33042747 -8.93313599 2.80274963 C-2.61854898 -0.80570738 -2.61854898 -0.80570738 0 0 Z " fill="#D5DBFA" transform="translate(269.4375,239.75)"/>
<path d="M0 0 C2.29322899 1.2478405 3.65711154 2.45635437 5.43359375 4.32421875 C-0.69427263 8.47837738 -6.89381479 12.47218551 -13.25390625 16.26171875 C-14.06923828 16.76767578 -14.88457031 17.27363281 -15.72460938 17.79492188 C-21.72883989 21.35280463 -21.72883989 21.35280463 -26 21.20703125 C-28.32433862 20.40748707 -30.43777468 19.55227542 -32.56640625 18.32421875 C-32.56640625 17.66421875 -32.56640625 17.00421875 -32.56640625 16.32421875 C-32.01291504 16.02241699 -31.45942383 15.72061523 -30.88916016 15.40966797 C-28.32207035 14.00832009 -25.75679358 12.60368069 -23.19140625 11.19921875 C-22.27415771 10.69946533 -21.35690918 10.19971191 -20.41186523 9.68481445 C-14.95840302 6.69764479 -9.64505219 3.61456442 -4.5390625 0.0546875 C-2.56640625 -0.67578125 -2.56640625 -0.67578125 0 0 Z " fill="#D5DAFA" transform="translate(317.56640625,211.67578125)"/>
</svg>
