<?xml version="1.0" encoding="UTF-8"?>
<svg version="1.1" xmlns="http://www.w3.org/2000/svg" width="512" height="512">
<path d="M0 0 C4.19715666 1.77047243 7.96458403 4.07442716 11.8125 6.5 C13.38874146 7.4597876 13.38874146 7.4597876 14.99682617 8.43896484 C17.07123477 9.70499367 19.14021974 10.97996096 21.203125 12.26464844 C23.56691828 13.73128973 25.94425218 15.16327107 28.34375 16.5703125 C39.03047243 22.89513659 39.03047243 22.89513659 40.55331993 27.77197933 C42.1083471 34.2513896 42.30579006 40.48557203 42.31884766 47.12915039 C42.32889328 48.31064667 42.3389389 49.49214294 42.34928894 50.70944214 C42.38001571 54.5888422 42.39712705 58.46817357 42.4140625 62.34765625 C42.43170795 65.04765785 42.45226179 67.74763523 42.4727478 70.44761658 C42.51937759 76.81153307 42.55619769 83.1754663 42.58942068 89.53946537 C42.62775432 96.78989266 42.67713469 104.04023186 42.72740483 111.29058468 C42.83048941 126.19365787 42.91982548 141.09678462 43 156 C44.06989166 156.53068588 45.13978333 157.06137177 46.24209595 157.60813904 C47.67527191 158.32127994 49.10840564 159.03450572 50.54150391 159.74780273 C51.24316177 160.09555504 51.94481964 160.44330734 52.66773987 160.8015976 C59.10640741 164.01001955 65.38485575 167.46889695 71.62060547 171.05493164 C73.39296516 172.07281759 75.17079904 173.08063762 76.94921875 174.08789062 C97.12727254 185.59023415 111.34903203 198.26605076 117.96875 221.08203125 C131.49722408 271.35033357 115.68912926 327.29536471 90.87402344 371.47729492 C81.70073334 387.37519279 70.48477705 401.5733889 58 415 C57.32710938 415.73863281 56.65421875 416.47726562 55.9609375 417.23828125 C42.86641192 431.04393275 26.11033134 441.39389985 8 447 C7.23300781 447.2475 6.46601563 447.495 5.67578125 447.75 C-9.99026495 452.04697267 -25.12669367 448.15105049 -38.91772461 440.32910156 C-39.91425049 439.74612305 -40.91077637 439.16314453 -41.9375 438.5625 C-42.99783447 437.9550293 -44.05816895 437.34755859 -45.15063477 436.72167969 C-48.44252214 434.82914398 -51.72218132 432.91678163 -55 431 C-56.61068359 430.06486572 -56.61068359 430.06486572 -58.25390625 429.11083984 C-63.13705507 426.2745692 -68.01343814 423.42661768 -72.87109375 420.546875 C-73.62318115 420.10182617 -74.37526855 419.65677734 -75.15014648 419.19824219 C-77 418 -77 418 -79 416 C-82.38906749 416.38960574 -85.0777111 418.01288612 -88.015625 419.66796875 C-89.50243774 420.5021936 -89.50243774 420.5021936 -91.01928711 421.35327148 C-92.08542236 421.95856689 -93.15155762 422.5638623 -94.25 423.1875 C-95.91977905 424.12928101 -95.91977905 424.12928101 -97.62329102 425.09008789 C-107.10260671 430.45302396 -116.51428458 435.9299443 -125.91015625 441.4375 C-132.21570419 445.1321331 -138.54294436 448.78852681 -144.875 452.4375 C-145.95515381 453.06003662 -147.03530762 453.68257324 -148.14819336 454.32397461 C-150.33796334 455.58576826 -152.52782355 456.84740534 -154.71777344 458.10888672 C-160.14659942 461.23680148 -165.57319281 464.36858448 -171 467.5 C-173.16665583 468.75001879 -175.3333225 470.00001878 -177.5 471.25 C-178.5725 471.86875 -179.645 472.4875 -180.75 473.125 C-190.5 478.75 -190.5 478.75 -193.75390625 480.62719727 C-195.9076172 481.86976019 -198.06126367 483.11243489 -200.21484375 484.35522461 C-205.23684262 487.25314623 -210.25942807 490.15003349 -215.28442383 493.04275513 C-217.05045522 494.05947198 -218.81627431 495.07655658 -220.58203125 496.09375 C-222.78734155 497.36400873 -224.99304216 498.63359018 -227.19921875 499.90234375 C-232.82446027 503.14352004 -238.41074089 506.43326649 -243.94140625 509.83374023 C-248.82869175 512.60254512 -253.54673829 513.04708247 -259 512 C-263.47129904 509.84574549 -267.5165464 507.1764323 -271.66455078 504.46386719 C-274.30081173 502.81145023 -276.99386275 501.29776977 -279.71484375 499.7890625 C-281.19549316 498.95701294 -281.19549316 498.95701294 -282.70605469 498.1081543 C-284.65821512 497.01426027 -286.6183171 495.93439163 -288.58691406 494.87036133 C-289.94187988 494.09728638 -289.94187988 494.09728638 -291.32421875 493.30859375 C-292.12947998 492.86314209 -292.93474121 492.41769043 -293.7644043 491.95874023 C-297.6557507 488.54929694 -299.66902375 484.39529519 -300.36964798 479.32483518 C-300.51492435 476.15582321 -300.53309979 473.00900531 -300.50793457 469.8367157 C-300.51729451 468.01888186 -300.51729451 468.01888186 -300.52684355 466.1643241 C-300.53999894 462.81704868 -300.53531796 459.47067635 -300.52289867 456.1234566 C-300.51382603 452.50709849 -300.52782904 448.89081771 -300.53881836 445.2744751 C-300.55658625 438.19582952 -300.55277089 431.11735379 -300.5411678 424.03870162 C-300.53212478 418.28287019 -300.53091323 412.52708627 -300.53526306 406.77124977 C-300.53587599 405.95122735 -300.53648893 405.13120494 -300.53712043 404.28633336 C-300.53839938 402.62029966 -300.53969623 400.95426597 -300.5410108 399.2882323 C-300.55241208 383.67196577 -300.53931111 368.05579321 -300.51780933 352.43954209 C-300.49994878 339.05380452 -300.50303471 325.66820576 -300.52148438 312.2824707 C-300.54291639 296.72575672 -300.55130294 281.16912514 -300.53903532 265.61239845 C-300.53776118 263.95166482 -300.53650369 262.29093118 -300.53526306 260.63019753 C-300.53464596 259.81316451 -300.53402886 258.9961315 -300.53339306 258.15433991 C-300.52994639 252.41010561 -300.53575394 246.66592378 -300.54518127 240.92169762 C-300.55642902 233.91439244 -300.55330357 226.90726638 -300.5320583 219.89998158 C-300.52158344 216.32791805 -300.5173644 212.75615254 -300.53065491 209.18409157 C-300.54487257 205.30397286 -300.52783618 201.42433654 -300.50793457 197.54423523 C-300.51685746 196.4261218 -300.52578034 195.30800837 -300.53497362 194.15601271 C-300.41598235 182.16063522 -296.13834489 171.03631238 -288.2109375 161.94921875 C-282.63925735 156.58190525 -270.12500279 146 -262 146 C-261.98582031 145.39414063 -261.97164062 144.78828125 -261.95703125 144.1640625 C-261.49835488 136.10623438 -259.24708372 128.54985013 -253.0625 123 C-247.6921311 119.49282031 -242.4166973 118.00235095 -236 119 C-233.42215564 119.98963685 -230.96021394 121.08225333 -228.4921875 122.3203125 C-224.28858789 123.46674876 -220.92807228 121.48984509 -217.19506836 119.51953125 C-216.25284424 118.95621094 -215.31062012 118.39289063 -214.33984375 117.8125 C-213.29892578 117.19632812 -212.25800781 116.58015625 -211.18554688 115.9453125 C-210.11369141 115.30335937 -209.04183594 114.66140625 -207.9375 114 C-205.80266436 112.72600582 -203.66600955 111.45505394 -201.52734375 110.1875 C-200.11569946 109.34251953 -200.11569946 109.34251953 -198.67553711 108.48046875 C-196.1654686 107.09155959 -193.68591664 105.99827837 -191 105 C-190.98582031 104.31035156 -190.97164063 103.62070313 -190.95703125 102.91015625 C-190.54974748 94.88556513 -188.83863979 89.05189755 -183.2421875 83.14453125 C-178.27987703 78.91551767 -173.48347342 77.54107944 -167 78 C-162.94407913 78.87994835 -159.05747974 80.16033877 -155.21606445 81.72802734 C-151.9112956 82.13361427 -150.17143384 80.78449184 -147.31640625 79.140625 C-146.22392578 78.51929687 -145.13144531 77.89796875 -144.00585938 77.2578125 C-142.86955078 76.59523438 -141.73324219 75.93265625 -140.5625 75.25 C-139.43005859 74.60289063 -138.29761719 73.95578125 -137.13085938 73.2890625 C-134.07834886 71.54065931 -131.03440413 69.77961913 -128 68 C-127.07501709 67.4939624 -126.15003418 66.9879248 -125.19702148 66.46655273 C-122.72345742 65.13790192 -122.72345742 65.13790192 -122.03125 62.14453125 C-121.8559375 61.04496094 -121.680625 59.94539063 -121.5 58.8125 C-120.00742866 51.35793538 -117.73330771 45.98025323 -111.8125 41.0625 C-106.71741389 37.80914415 -101.15480833 37.31217842 -95.3125 38.5859375 C-93.63776264 39.08935558 -91.97288328 39.62777352 -90.32421875 40.2109375 C-85.49917971 41.97364292 -85.49917971 41.97364292 -80.62817383 41.01196289 C-79.82919678 40.5039917 -79.03021973 39.99602051 -78.20703125 39.47265625 C-77.32982422 38.92802734 -76.45261719 38.38339844 -75.54882812 37.82226562 C-74.64583984 37.24154297 -73.74285156 36.66082031 -72.8125 36.0625 C-71.00874938 34.92482783 -69.20286395 33.79053101 -67.39453125 32.66015625 C-66.59893799 32.15105713 -65.80334473 31.64195801 -64.98364258 31.11743164 C-63 30 -63 30 -61 30 C-61.0825 29.071875 -61.165 28.14375 -61.25 27.1875 C-61.19894812 20.89535632 -59.21902489 14.64866588 -55.1640625 9.80859375 C-50.37563931 5.41461921 -46.20987328 3.30281823 -39.6875 2.6875 C-35.82699358 3.01466156 -32.72675757 3.91751542 -29.11328125 5.24609375 C-28.06720703 5.61927734 -28.06720703 5.61927734 -27 6 C-26.37738281 6.268125 -25.75476563 6.53625 -25.11328125 6.8125 C-20.85389629 7.19041216 -17.16768732 3.74534012 -13.6796875 1.56640625 C-8.8494009 -0.48979856 -5.16862449 -1.00191941 0 0 Z " fill="#F2EFF7" transform="translate(345,0)"/>
<path d="M0 0 C0 10.56 0 21.12 0 32 C4.95 32 9.9 32 15 32 C23.15086668 32.95312554 28.94667592 35.03763439 36 39.125 C37.38312378 39.90701782 37.38312378 39.90701782 38.79418945 40.70483398 C40.79662178 41.84345895 42.79427533 42.99052044 44.78759766 44.14501953 C47.59651147 45.76700822 50.41805016 47.36408652 53.24630737 48.95202637 C55.64852857 50.30621109 58.04035315 51.67803277 60.42993164 53.05438232 C62.13066889 54.02990244 63.83962925 54.99104272 65.54882812 55.95166016 C82.86850159 66.07391965 93.30163019 80.74022404 98.49609375 100.04150391 C111.4609886 150.43122605 94.90874169 206.82359248 69.60546875 250.67578125 C60.68253287 265.71652831 49.89575101 279.20685023 38 292 C37.32710937 292.73863281 36.65421875 293.47726562 35.9609375 294.23828125 C22.86641192 308.04393275 6.11033134 318.39389985 -12 324 C-12.76699219 324.2475 -13.53398437 324.495 -14.32421875 324.75 C-29.99030327 329.04698318 -45.12626667 325.15090477 -58.91748047 317.3293457 C-60.41239014 316.45475708 -60.41239014 316.45475708 -61.9375 315.5625 C-62.99855957 314.9543042 -64.05961914 314.3461084 -65.15283203 313.71948242 C-68.44351053 311.82691477 -71.72227619 309.91489877 -75 308 C-77.13402811 306.76547552 -79.2681407 305.53109704 -81.40234375 304.296875 C-83.39412616 303.13695559 -85.38505048 301.9755611 -87.375 300.8125 C-88.76513306 300.00244507 -88.76513306 300.00244507 -90.18334961 299.17602539 C-91.03807861 298.67063232 -91.89280762 298.16523926 -92.7734375 297.64453125 C-93.52028809 297.20471924 -94.26713867 296.76490723 -95.03662109 296.31176758 C-96.97001944 295.02003053 -98.49806841 293.77401204 -100 292 C-100 291.34 -100 290.68 -100 290 C-100.66 290 -101.32 290 -102 290 C-103.76953125 288.09375 -103.76953125 288.09375 -105.8125 285.5 C-106.47894531 284.6646875 -107.14539063 283.829375 -107.83203125 282.96875 C-110.4196172 279.42538905 -112.72157073 275.74703766 -115 272 C-118.58415015 274.01938709 -122.16724137 276.0406452 -125.75 278.0625 C-126.80082764 278.65506592 -127.85165527 279.24763184 -128.93432617 279.8581543 C-135.3326765 283.4724178 -141.69482738 287.13133388 -147.98828125 290.92578125 C-150 292 -150 292 -152 292 C-152.56199702 284.69374915 -152.94450819 277.39309276 -153.20849609 270.07006836 C-153.31856108 267.58618239 -153.46831053 265.10370446 -153.65966797 262.62475586 C-154.90404617 246.07851843 -154.90404617 246.07851843 -152 239 C-146.79318405 233.16713029 -139.72061425 229.9657162 -132.56533813 227.10050964 C-129.85385174 225.93730356 -127.43709942 224.66458191 -125 223 C-124.22451054 220.60749934 -124.22451054 220.60749934 -124.29296875 217.89453125 C-124.24946289 216.42016602 -124.24946289 216.42016602 -124.20507812 214.91601562 C-124.19927734 213.89185547 -124.19347656 212.86769531 -124.1875 211.8125 C-124.16236328 210.77673828 -124.13722656 209.74097656 -124.11132812 208.67382812 C-124.05238057 206.11550421 -124.01615743 203.55889395 -124 201 C-124.77714355 201.45439453 -125.55428711 201.90878906 -126.35498047 202.37695312 C-129.2341723 204.05766681 -132.11555865 205.73448461 -134.99853516 207.40869141 C-136.24683697 208.1346749 -137.49423865 208.86220842 -138.74072266 209.59130859 C-140.5305426 210.63786202 -142.32350512 211.67883383 -144.1171875 212.71875 C-145.19597168 213.34716797 -146.27475586 213.97558594 -147.38623047 214.62304688 C-150 216 -150 216 -152 216 C-152.4330841 208.63728142 -152.72947129 201.27785862 -152.93383789 193.90527344 C-153.01904574 191.40174732 -153.13486448 188.89906058 -153.2824707 186.3984375 C-154.44141295 166.25128929 -154.44141295 166.25128929 -150.46990967 160.96234131 C-146.52041186 157.57028886 -142.01696299 155.65781524 -137.17575073 153.85601807 C-134.08341871 152.63938417 -131.36963627 150.94545569 -128.5625 149.1796875 C-127.62921875 148.62539063 -126.6959375 148.07109375 -125.734375 147.5 C-123.84811473 146.37902247 -121.96275192 145.2565339 -120.078125 144.1328125 C-118.70914063 143.32070313 -118.70914063 143.32070313 -117.3125 142.4921875 C-116.10013672 141.77071533 -116.10013672 141.77071533 -114.86328125 141.03466797 C-113 140 -113 140 -112 140 C-111.505 144.455 -111.505 144.455 -111 149 C-110.74420166 148.36199463 -110.48840332 147.72398926 -110.22485352 147.06665039 C-104.80912911 133.63049028 -99.06513011 120.6496407 -92 108 C-91.67 107.34 -91.34 106.68 -91 106 C-93.475 106.99 -93.475 106.99 -96 108 C-96.22844831 100.56245054 -96.38590508 93.12580668 -96.49438477 85.68554688 C-96.53960905 83.1555806 -96.60100123 80.62584908 -96.67895508 78.09667969 C-96.7883142 74.45709374 -96.83920636 70.82061803 -96.87890625 67.1796875 C-96.92535782 66.05134491 -96.97180939 64.92300232 -97.01966858 63.76046753 C-97.02458571 56.08836478 -97.02458571 56.08836478 -94.15223694 53.03721619 C-91.8353694 51.46479037 -89.52300573 50.20934519 -87 49 C-85.93692627 48.36682861 -84.87385254 47.73365723 -83.77856445 47.08129883 C-82.816521 46.54529053 -81.85447754 46.00928223 -80.86328125 45.45703125 C-79.25549805 44.55887695 -79.25549805 44.55887695 -77.61523438 43.64257812 C-75.98038086 42.73668945 -75.98038086 42.73668945 -74.3125 41.8125 C-73.21099609 41.19697266 -72.10949219 40.58144531 -70.97460938 39.94726562 C-66.02246808 37.1887705 -61.0734659 34.53673295 -56 32 C-55.505 46.355 -55.505 46.355 -55 61 C-51.7 58.03 -48.4 55.06 -45 52 C-44.01 51.34 -43.02 50.68 -42 50 C-41.70389578 47.31323214 -41.70389578 47.31323214 -41.9453125 44.1796875 C-42.08702407 39.23847369 -42.13318427 34.35263371 -41.87890625 29.4140625 C-41.83064697 28.2998291 -41.7823877 27.1855957 -41.73266602 26.03759766 C-40.78842153 22.12280597 -39.19537579 20.7059607 -36.0625 18.25 C-34.21252147 17.49507603 -32.35861831 16.74772786 -30.48242188 16.06054688 C-27.30872394 14.7046712 -24.38259619 12.99452875 -21.421875 11.234375 C-20.55078346 10.71704803 -20.55078346 10.71704803 -19.66209412 10.18927002 C-18.47427718 9.4818898 -17.28701931 8.77357001 -16.10031128 8.06433105 C-13.22279672 6.35127099 -10.32766154 4.67155775 -7.42578125 3 C-6.42973877 2.4225 -5.43369629 1.845 -4.4074707 1.25 C-2 0 -2 0 0 0 Z " fill="#544686" transform="translate(365,123)"/>
<path d="M0 0 C4.19715666 1.77047243 7.96458403 4.07442716 11.8125 6.5 C13.38874146 7.4597876 13.38874146 7.4597876 14.99682617 8.43896484 C17.07123477 9.70499367 19.14021974 10.97996096 21.203125 12.26464844 C23.56691828 13.73128973 25.94425218 15.16327107 28.34375 16.5703125 C38.94896594 22.84689783 38.94896594 22.84689783 41 29 C41.13058281 30.54738975 41.20961978 32.09942468 41.25634766 33.65161133 C41.28532135 34.59301468 41.31429504 35.53441803 41.34414673 36.50434875 C41.44182669 40.80420715 41.51563428 45.1039155 41.56982422 49.40454102 C41.60652698 51.67150512 41.66113945 53.93825188 41.73388672 56.2043457 C41.837322 59.47685703 41.88174519 62.74563737 41.9140625 66.01953125 C41.95737701 67.02909378 42.00069153 68.03865631 42.0453186 69.07881165 C42.02688928 75.95648117 42.02688928 75.95648117 39.12776184 78.90255737 C36.81673022 80.46877378 34.49983291 81.76127825 32 83 C31.03118896 83.57556641 30.06237793 84.15113281 29.06420898 84.74414062 C28.21673096 85.21013672 27.36925293 85.67613281 26.49609375 86.15625 C25.03345093 86.96630493 25.03345093 86.96630493 23.54125977 87.79272461 C22.00489868 88.63782593 22.00489868 88.63782593 20.4375 89.5 C11.92564082 94.22405984 3.46123888 99.01501639 -4.9375 103.9375 C-13.23387296 108.79924676 -21.54343137 113.63626762 -29.875 118.4375 C-30.95515381 119.06003662 -32.03530762 119.68257324 -33.14819336 120.32397461 C-35.33796334 121.58576826 -37.52782355 122.84740534 -39.71777344 124.10888672 C-45.14659942 127.23680148 -50.57319281 130.36858448 -56 133.5 C-58.16665583 134.75001879 -60.3333225 136.00001878 -62.5 137.25 C-63.5725 137.86875 -64.645 138.4875 -65.75 139.125 C-75.5 144.75 -75.5 144.75 -78.75048828 146.62524414 C-80.91557071 147.87435518 -83.08060982 149.12354129 -85.24560547 150.37280273 C-90.68615706 153.51202309 -96.12747216 156.64990563 -101.5703125 159.78515625 C-112.02206199 165.80747329 -122.46299548 171.84669337 -132.875 177.9375 C-142.14499777 183.35921178 -151.45831752 188.70204915 -160.78845215 194.01922607 C-169.9128284 199.22045129 -179.00132774 204.48027878 -188.06689453 209.78344727 C-195.32211767 214.02617297 -202.59356897 218.23991796 -209.875 222.4375 C-211.48362915 223.36502075 -211.48362915 223.36502075 -213.12475586 224.3112793 C-218.71292907 227.53218506 -224.303119 230.74956462 -229.89453125 233.96484375 C-231.0242334 234.61533691 -232.15393555 235.26583008 -233.31787109 235.93603516 C-235.53684762 237.21288718 -237.75719292 238.48736389 -239.97900391 239.75927734 C-244.6267381 242.42891756 -249.24294681 245.11578215 -253.75390625 248.01171875 C-254.78801636 248.66841553 -254.78801636 248.66841553 -255.84301758 249.33837891 C-257.58910554 250.45921939 -259.31890131 251.60533606 -261.046875 252.75390625 C-264 254 -264 254 -266.88671875 253.50390625 C-270.73818131 251.64341304 -274.40291476 249.58620945 -278.0625 247.375 C-278.73732422 246.97410156 -279.41214844 246.57320312 -280.10742188 246.16015625 C-281.56591476 245.29017804 -283.00761157 244.39162619 -284.43432617 243.47045898 C-287.06496503 241.86891377 -287.06496503 241.86891377 -290.41918945 240.73461914 C-294.31197066 239.04477705 -297.58322466 237.54633553 -300 234 C-302.00745456 227.2582114 -301.48564513 220.01749886 -301.20043945 213.06567383 C-301.06327652 209.70651711 -301.01613836 206.35579896 -300.98632812 202.99414062 C-300.94536375 200.83322722 -300.89930406 198.6724032 -300.84765625 196.51171875 C-300.82751968 195.52177414 -300.80738312 194.53182953 -300.78663635 193.5118866 C-300.2419361 181.03302968 -295.26876184 168.74816536 -286.1875 160 C-280.65351347 155.35981886 -269.4905729 146 -262 146 C-261.98582031 145.39414063 -261.97164062 144.78828125 -261.95703125 144.1640625 C-261.49835488 136.10623438 -259.24708372 128.54985013 -253.0625 123 C-247.6921311 119.49282031 -242.4166973 118.00235095 -236 119 C-233.42215564 119.98963685 -230.96021394 121.08225333 -228.4921875 122.3203125 C-224.28858789 123.46674876 -220.92807228 121.48984509 -217.19506836 119.51953125 C-216.25284424 118.95621094 -215.31062012 118.39289063 -214.33984375 117.8125 C-213.29892578 117.19632812 -212.25800781 116.58015625 -211.18554688 115.9453125 C-210.11369141 115.30335937 -209.04183594 114.66140625 -207.9375 114 C-205.80266436 112.72600582 -203.66600955 111.45505394 -201.52734375 110.1875 C-200.11569946 109.34251953 -200.11569946 109.34251953 -198.67553711 108.48046875 C-196.1654686 107.09155959 -193.68591664 105.99827837 -191 105 C-190.98582031 104.31035156 -190.97164063 103.62070313 -190.95703125 102.91015625 C-190.54974748 94.88556513 -188.83863979 89.05189755 -183.2421875 83.14453125 C-178.27987703 78.91551767 -173.48347342 77.54107944 -167 78 C-162.94407913 78.87994835 -159.05747974 80.16033877 -155.21606445 81.72802734 C-151.9112956 82.13361427 -150.17143384 80.78449184 -147.31640625 79.140625 C-146.22392578 78.51929687 -145.13144531 77.89796875 -144.00585938 77.2578125 C-142.86955078 76.59523438 -141.73324219 75.93265625 -140.5625 75.25 C-139.43005859 74.60289063 -138.29761719 73.95578125 -137.13085938 73.2890625 C-134.07834886 71.54065931 -131.03440413 69.77961913 -128 68 C-127.07501709 67.4939624 -126.15003418 66.9879248 -125.19702148 66.46655273 C-122.72345742 65.13790192 -122.72345742 65.13790192 -122.03125 62.14453125 C-121.8559375 61.04496094 -121.680625 59.94539063 -121.5 58.8125 C-120.00742866 51.35793538 -117.73330771 45.98025323 -111.8125 41.0625 C-106.71741389 37.80914415 -101.15480833 37.31217842 -95.3125 38.5859375 C-93.63776264 39.08935558 -91.97288328 39.62777352 -90.32421875 40.2109375 C-85.49917971 41.97364292 -85.49917971 41.97364292 -80.62817383 41.01196289 C-79.82919678 40.5039917 -79.03021973 39.99602051 -78.20703125 39.47265625 C-77.32982422 38.92802734 -76.45261719 38.38339844 -75.54882812 37.82226562 C-74.64583984 37.24154297 -73.74285156 36.66082031 -72.8125 36.0625 C-71.00874938 34.92482783 -69.20286395 33.79053101 -67.39453125 32.66015625 C-66.59893799 32.15105713 -65.80334473 31.64195801 -64.98364258 31.11743164 C-63 30 -63 30 -61 30 C-61.0825 29.071875 -61.165 28.14375 -61.25 27.1875 C-61.19894812 20.89535632 -59.21902489 14.64866588 -55.1640625 9.80859375 C-50.37563931 5.41461921 -46.20987328 3.30281823 -39.6875 2.6875 C-35.82699358 3.01466156 -32.72675757 3.91751542 -29.11328125 5.24609375 C-28.06720703 5.61927734 -28.06720703 5.61927734 -27 6 C-26.37738281 6.268125 -25.75476563 6.53625 -25.11328125 6.8125 C-20.85389629 7.19041216 -17.16768732 3.74534012 -13.6796875 1.56640625 C-8.8494009 -0.48979856 -5.16862449 -1.00191941 0 0 Z " fill="#FE4858" transform="translate(345,0)"/>
<path d="M0 0 C9.69756719 7.88920937 14.72262409 18.45250537 17.75 30.3125 C17.92136475 30.9405957 18.09272949 31.56869141 18.26928711 32.21582031 C19.8679018 38.55891795 20.09726791 44.66524154 20.0625 51.1875 C20.05512817 52.83298828 20.05512817 52.83298828 20.04760742 54.51171875 C19.82159824 70.44130969 16.79624037 85.25141335 11.75 100.3125 C11.50266113 101.06499023 11.25532227 101.81748047 11.00048828 102.59277344 C0.20735255 135.0196081 -20.2272777 167.92282771 -51.25 184.1875 C-61.35004834 188.97641181 -72.80116586 192.69675855 -83.94921875 189.55078125 C-96.51921108 184.79710702 -103.5740796 177.39354631 -109.57421875 165.59375 C-114.41948613 154.11602645 -115.94874119 143.0156911 -115.75 130.625 C-115.74379639 129.92906738 -115.73759277 129.23313477 -115.73120117 128.51611328 C-115.60892047 116.75297804 -114.57203343 105.63340835 -111.25 94.3125 C-110.97091797 93.35939941 -110.69183594 92.40629883 -110.40429688 91.42431641 C-102.54765406 65.28137913 -90.92621855 41.47095812 -72.25 21.3125 C-71.36699219 20.34828125 -70.48398437 19.3840625 -69.57421875 18.390625 C-52.04876683 0.02821228 -24.08570776 -16.62840209 0 0 Z " fill="#F3F1FA" transform="translate(421.25,220.6875)"/>
<path d="M0 0 C0.89589844 -0.02835938 1.79179687 -0.05671875 2.71484375 -0.0859375 C13.71201844 0.01095391 22.63336099 7.50478117 30.375 14.6875 C50.30402365 35.89276655 51.93528096 65.73427647 51.22853088 93.26029968 C49.48849498 147.2401259 23.25390876 200.01114725 -13 239 C-13.67289062 239.73863281 -14.34578125 240.47726562 -15.0390625 241.23828125 C-28.13358808 255.04393275 -44.88966866 265.39389985 -63 271 C-63.76699219 271.2475 -64.53398437 271.495 -65.32421875 271.75 C-78.54728392 275.37689787 -92.97399864 273.39878029 -105 267.0625 C-108.06931387 264.95234671 -110.55806453 262.8119257 -113 260 C-113 259.34 -113 258.68 -113 258 C-113.66 258 -114.32 258 -115 258 C-132.45942766 239.22489245 -136.17474149 213.44919211 -136.1875 188.8125 C-136.20586914 186.97461914 -136.20586914 186.97461914 -136.22460938 185.09960938 C-136.23810822 176.56384002 -135.43741327 168.40922103 -134 160 C-133.85393311 159.12545166 -133.70786621 158.25090332 -133.55737305 157.34985352 C-125.57101726 111.56983513 -104.50384534 68.00978345 -72.32958984 34.39697266 C-71.20018248 33.21032761 -70.09185031 32.00368044 -68.98828125 30.79296875 C-62.80690703 24.2093359 -55.39658499 19.11784955 -48 14 C-47.13246094 13.39800781 -46.26492188 12.79601562 -45.37109375 12.17578125 C-31.69056309 3.35635286 -16.12761932 -0.54669896 0 0 Z M-71 70 C-88.80899788 91.18389822 -99.96922111 116.44498194 -107 143 C-107.34160156 144.21816406 -107.68320312 145.43632812 -108.03515625 146.69140625 C-113.31100196 169.04626875 -112.78526276 197.56643862 -100.71875 217.60546875 C-94.56415889 226.17993318 -86.58628518 232.91981556 -76 235 C-60.74167953 236.60199234 -46.42802094 230.7274739 -34.4375 221.6875 C-1.46326091 194.89593074 20.34792303 153.89650988 24.79711914 111.51489258 C25.96732835 97.00908625 26.05168729 82.77891257 21 69 C20.53207031 67.60974609 20.53207031 67.60974609 20.0546875 66.19140625 C16.37256233 56.02688425 10.30883926 46.96146313 0.62890625 41.71484375 C-26.74180712 29.17555142 -53.52203095 50.22083896 -71 70 Z " fill="#8473C0" transform="translate(416,176)"/>
<path d="M0 0 C1.73335528 0.94507965 3.46666298 1.89024654 5.19995117 2.83544922 C6.64781258 3.62494461 6.64781258 3.62494461 8.12492371 4.4303894 C12.19328016 6.65145582 16.25582128 8.88268587 20.3125 11.125 C21.07111328 11.54136719 21.82972656 11.95773438 22.61132812 12.38671875 C23.72604492 13.00353516 23.72604492 13.00353516 24.86328125 13.6328125 C25.51594971 13.99262207 26.16861816 14.35243164 26.84106445 14.72314453 C27.55351318 15.14450684 28.26596191 15.56586914 29 16 C30.01927991 16.48490528 31.03855982 16.96981056 32.088727 17.46940994 C35.23077563 20.20059902 35.43124514 20.45193133 35.74552441 24.31171799 C35.77423232 26.12968532 35.76953439 27.94835374 35.73930359 29.76629639 C35.74639699 30.76862344 35.7534904 31.77095049 35.76079875 32.80365109 C35.77740871 36.17274629 35.75118524 39.54016226 35.7253418 42.90917969 C35.72859956 45.320409 35.73453357 47.73163596 35.74295044 50.14285278 C35.75537638 55.34089924 35.74964321 60.53859333 35.72788048 65.73659515 C35.69667459 73.26072466 35.70139175 80.78450289 35.71542368 88.30866852 C35.73751335 100.52744037 35.73505435 112.74607241 35.71508789 124.96484375 C35.7133039 126.06183987 35.7133039 126.06183987 35.71148387 127.18099752 C35.71029171 127.91322203 35.70909955 128.64544654 35.70787126 129.39985967 C35.69103869 139.77113119 35.67999926 150.14238706 35.67602539 160.51367188 C35.67573984 161.24289867 35.67545428 161.97212546 35.67516007 162.72345003 C35.67088882 174.89159983 35.67873034 187.05972478 35.69272357 199.22786641 C35.70057017 206.73050146 35.69606499 214.23294866 35.67546699 221.73556069 C35.66022156 227.48824517 35.65953963 233.24085737 35.6640358 238.99355698 C35.66324948 241.35099168 35.65728899 243.70843123 35.64575768 246.06583786 C35.63064034 249.2859813 35.63394172 252.50561104 35.64164734 255.72576904 C35.63270704 256.65691111 35.62376675 257.58805318 35.61455554 258.54741168 C35.65833561 265.16708923 37.02387441 270.04774882 40 276 C33.96748416 273.75676349 28.50823462 270.46579584 22.93457031 267.2878418 C21.01039351 266.19341161 19.07965549 265.11124134 17.1484375 264.02929688 C15.91103457 263.32626618 14.67404152 262.62251345 13.4375 261.91796875 C12.32246094 261.28656982 11.20742188 260.6551709 10.05859375 260.00463867 C5.13576284 256.77815682 1.68590871 253.70659089 0 248 C-0.28549041 244.66037486 -0.26104388 241.33370484 -0.24050903 237.98368835 C-0.24221788 236.96669524 -0.24392673 235.94970214 -0.24568737 234.90189105 C-0.24898471 231.49010531 -0.23797438 228.07851571 -0.22705078 224.66674805 C-0.22648672 222.2226919 -0.22680312 219.77863542 -0.22793579 217.33457947 C-0.2283914 212.07061422 -0.22271421 206.80671016 -0.21146011 201.54276085 C-0.19519924 193.93200372 -0.18999651 186.32127057 -0.18748413 178.71049795 C-0.18310795 166.3622422 -0.16980093 154.01401288 -0.15087891 141.66577148 C-0.13251812 129.67130668 -0.11836259 117.67684907 -0.10986328 105.68237305 C-0.10907511 104.57318112 -0.10907511 104.57318112 -0.10827102 103.44158127 C-0.10566092 99.73188482 -0.10313351 96.02218831 -0.10064721 92.31249177 C-0.07991711 61.54164196 -0.04454489 30.770825 0 0 Z " fill="#CEC5EC" transform="translate(45,234)"/>
<path d="M0 0 C0 0.66 0 1.32 0 2 C0.57234375 2.24492188 1.1446875 2.48984375 1.734375 2.7421875 C12.8379431 8.90658221 19.14229416 23.73938249 23 35.3125 C25.31741306 45.30918379 25.99668322 58.59370567 21.41015625 67.98046875 C18.23284051 72.53080735 14.29305917 76.23564694 9 78 C2.24290965 78.5595043 -2.99339792 78.20352111 -9 75 C-9.32542398 71.50169223 -9.15667763 69.34319862 -7.6875 66.125 C-3.96308509 63.18011379 -1.15675328 63.77187316 3.44140625 64.21484375 C6.12119478 64.26985677 6.12119478 64.26985677 7.77734375 62.19140625 C11.83972675 54.91026612 10.48240604 44.96793248 9 37 C5.32774624 38.98981151 1.66279845 40.99285303 -2 43 C-2.62729004 43.34321289 -3.25458008 43.68642578 -3.90087891 44.04003906 C-19.11226449 52.37780074 -34.13651899 61.05662035 -49 70 C-48.85997559 70.60005859 -48.71995117 71.20011719 -48.57568359 71.81835938 C-46.10416537 83.12047456 -44.23302466 98.35634314 -49.58984375 109.05078125 C-52.83579222 113.53756321 -56.71198946 117.23732982 -62 119 C-63.95475009 119.1447963 -65.9151138 119.22067502 -67.875 119.25 C-68.90367188 119.27578125 -69.93234375 119.3015625 -70.9921875 119.328125 C-74.68879068 118.9248592 -77.35228721 117.64771279 -80 115 C-79.53897759 108.7761975 -79.53897759 108.7761975 -77.79296875 106.26171875 C-74.69222243 104.07971208 -71.31335133 105.11088252 -67.69140625 105.48046875 C-64.73734043 105.23713745 -64.73734043 105.23713745 -62.68359375 102.4296875 C-58.88155979 94.68447679 -60.32690108 85.35041686 -62.5625 77.25 C-65.79408024 68.02015327 -71.20593937 57.99377014 -80 53 C-83.47554777 51.88316765 -85.83226471 51.52121341 -89.26269531 52.92773438 C-91.78133312 54.30228173 -94.20303266 55.77417231 -96.625 57.3125 C-98.28215706 58.3321903 -99.94096378 59.34920544 -101.6015625 60.36328125 C-102.32682129 60.82001221 -103.05208008 61.27674316 -103.79931641 61.74731445 C-106.13352716 63.07600708 -108.48801064 64.05710823 -111 65 C-110.505 64.01 -110.505 64.01 -110 63 C-109.34 63 -108.68 63 -108 63 C-107.98582031 62.39414063 -107.97164063 61.78828125 -107.95703125 61.1640625 C-107.49835488 53.10623438 -105.24708372 45.54985013 -99.0625 40 C-93.6921311 36.49282031 -88.4166973 35.00235095 -82 36 C-79.42215564 36.98963685 -76.96021394 38.08225333 -74.4921875 39.3203125 C-70.28858789 40.46674876 -66.92807228 38.48984509 -63.19506836 36.51953125 C-62.25284424 35.95621094 -61.31062012 35.39289063 -60.33984375 34.8125 C-58.7784668 33.88824219 -58.7784668 33.88824219 -57.18554688 32.9453125 C-56.11369141 32.30335937 -55.04183594 31.66140625 -53.9375 31 C-51.80266436 29.72600582 -49.66600955 28.45505394 -47.52734375 27.1875 C-46.58624756 26.62417969 -45.64515137 26.06085938 -44.67553711 25.48046875 C-42.1654686 24.09155959 -39.68591664 22.99827837 -37 22 C-36.98582031 21.31035156 -36.97164063 20.62070313 -36.95703125 19.91015625 C-36.55274287 11.9445824 -34.95109849 5.79145815 -29.06640625 0.14453125 C-19.72329862 -7.29109883 -9.94463473 -5.70895698 0 0 Z " fill="#FE7B86" transform="translate(191,83)"/>
<path d="M0 0 C0 0.66 0 1.32 0 2 C0.57234375 2.24492187 1.1446875 2.48984375 1.734375 2.7421875 C12.84886088 8.91264345 19.17595001 23.77776427 23 35.375 C25.49710411 46.17946352 25.99097911 60.32481766 20 70 C16.15526154 74.32436378 12.47617443 77.71623066 6.51171875 78.203125 C0.8906566 78.29642064 -3.14435754 78.19450162 -8 75 C-8.33 74.67 -8.66 74.34 -9 74 C-8.79354103 70.3525582 -8.39387411 67.68499845 -6.5625 64.5 C-2.9609839 62.39179546 -0.3296946 63.2152805 3.66015625 64.03125 C6.13036651 64.26813968 6.13036651 64.26813968 7.74609375 62.28125 C11.80667951 54.89376686 10.46071511 45.03393308 9 37 C-0.19967703 41.36054056 -8.88740758 46.38922717 -17.625 51.59423828 C-21.91919984 54.13597375 -26.24163304 56.62895929 -30.5625 59.125 C-31.40240479 59.61057373 -32.24230957 60.09614746 -33.10766602 60.59643555 C-35.07146879 61.7314926 -37.03556654 62.86603493 -39 64 C-38.85997559 64.60005859 -38.71995117 65.20011719 -38.57568359 65.81835938 C-36.10416537 77.12047456 -34.23302466 92.35634314 -39.58984375 103.05078125 C-42.83579222 107.53756321 -46.71198946 111.23732982 -52 113 C-58.75709035 113.5595043 -63.99339792 113.20352111 -70 110 C-70.33583958 106.38972451 -70.27868122 104.46993303 -68.40625 101.3125 C-66 99 -66 99 -62.765625 98.51171875 C-61.60546875 98.56972656 -60.4453125 98.62773438 -59.25 98.6875 C-58.07953125 98.73261719 -56.9090625 98.77773437 -55.703125 98.82421875 C-54.81109375 98.88222656 -53.9190625 98.94023438 -53 99 C-48.91100899 88.37519204 -49.9940117 77.21138249 -54.51953125 66.96875 C-55.00808594 65.9890625 -55.49664062 65.009375 -56 64 C-56.45761719 63.0821875 -56.91523438 62.164375 -57.38671875 61.21875 C-60.85602463 54.90746478 -65.44271519 49.2786424 -72 46 C-77.03237428 45.48940121 -77.03237428 45.48940121 -81.34375 47.78515625 C-82.2203125 48.51605469 -83.096875 49.24695312 -84 50 C-86.03908476 51.287843 -88.10252225 52.53786386 -90.1875 53.75 C-91.75564453 54.67039062 -91.75564453 54.67039062 -93.35546875 55.609375 C-96 57 -96 57 -98 57 C-97.80359018 48.60794425 -96.02367542 41.40815996 -90.2421875 35.07421875 C-85.30393893 30.88570427 -80.43095388 29.54411036 -74 30 C-71.36014838 30.5802294 -68.87141451 31.30994594 -66.32421875 32.2109375 C-61.49917971 33.97364292 -61.49917971 33.97364292 -56.62817383 33.01196289 C-55.82919678 32.5039917 -55.03021973 31.99602051 -54.20703125 31.47265625 C-53.32982422 30.92802734 -52.45261719 30.38339844 -51.54882812 29.82226562 C-50.64583984 29.24154297 -49.74285156 28.66082031 -48.8125 28.0625 C-47.00874938 26.92482783 -45.20286395 25.79053101 -43.39453125 24.66015625 C-42.59893799 24.15105713 -41.80334473 23.64195801 -40.98364258 23.11743164 C-39 22 -39 22 -37 22 C-37.0825 21.071875 -37.165 20.14375 -37.25 19.1875 C-37.19894812 12.89535632 -35.21902489 6.64866588 -31.1640625 1.80859375 C-21.78586867 -6.79706687 -10.48516814 -6.9901121 0 0 Z " fill="#FE7B86" transform="translate(321,8)"/>
<path d="M0 0 C7.80019923 4.60609305 13.72649514 13.7199583 17 22 C16.90820312 23.95385742 16.90820312 23.95385742 16 26 C13.64257812 27.7199707 13.64257812 27.7199707 10.53125 29.42578125 C9.40203125 30.05806641 8.2728125 30.69035156 7.109375 31.34179688 C5.90680676 31.99971661 4.70367781 32.65661245 3.5 33.3125 C-11.4121209 41.4997487 -23.35545325 48.82891397 -28.4921875 65.9296875 C-29.46929922 69.91329682 -30.12611562 73.68285307 -30.20532227 77.7902832 C-30.22526749 78.71086014 -30.24521271 79.63143707 -30.26576233 80.57991028 C-30.29083107 82.05049141 -30.29083107 82.05049141 -30.31640625 83.55078125 C-30.33718735 84.56472458 -30.35796844 85.57866791 -30.37937927 86.62333679 C-30.44461114 89.85299085 -30.50363702 93.08272421 -30.5625 96.3125 C-30.60571029 98.50586748 -30.64932538 100.69922703 -30.69335938 102.89257812 C-30.80026544 108.26163562 -30.90208021 113.6307715 -31 119 C-36.4833018 116.2994436 -41.91324662 113.57284625 -47.19140625 110.484375 C-48.23748047 109.87335938 -49.28355469 109.26234375 -50.36132812 108.6328125 C-51.41771484 108.01148438 -52.47410156 107.39015625 -53.5625 106.75 C-55.19928711 105.79480469 -55.19928711 105.79480469 -56.86914062 104.8203125 C-64.85925752 100.14074248 -64.85925752 100.14074248 -66 99 C-66.11392478 97.52421046 -66.15955431 96.04306572 -66.17700195 94.56298828 C-66.18983719 93.61755157 -66.20267242 92.67211487 -66.21589661 91.69802856 C-66.22328354 90.66588226 -66.23067047 89.63373596 -66.23828125 88.5703125 C-66.246353 87.51020966 -66.25442474 86.45010681 -66.26274109 85.35787964 C-66.27660966 83.10318651 -66.28731933 80.84847213 -66.29516602 78.59375 C-66.31225484 75.17405976 -66.35610133 71.75536763 -66.40039062 68.3359375 C-66.41052819 66.14323627 -66.41904095 63.95052681 -66.42578125 61.7578125 C-66.44328934 60.74590851 -66.46079742 59.73400452 -66.47883606 58.69143677 C-66.44357964 46.91797646 -61.97861138 35.69357934 -54.10546875 26.87890625 C-47.17398243 20.28177734 -38.48462395 15.25421898 -29.6640625 11.62890625 C-26.7401367 10.41284298 -24.10672467 8.91906183 -21.40625 7.265625 C-20.20162109 6.52892578 -20.20162109 6.52892578 -18.97265625 5.77734375 C-17.31719413 4.75477552 -15.66874035 3.72077782 -14.02734375 2.67578125 C-9.00118157 -0.36573262 -5.91544635 -1.90113233 0 0 Z " fill="#D04F5A" transform="translate(111,135)"/>
<path d="M0 0 C10.534394 5.267197 15.72941734 15.5338372 20 26 C17.24940987 28.14209064 14.46657736 29.94919974 11.421875 31.64453125 C10.06835938 32.40262085 10.06835938 32.40262085 8.6875 33.17602539 C7.718125 33.71606201 6.74875 34.25609863 5.75 34.8125 C-4.85955044 40.76251951 -15.37957741 46.85528108 -25.875 53.00390625 C-29.90174561 55.36291297 -33.94216243 57.69492283 -38 60 C-38.46148437 58.97261719 -38.92296875 57.94523437 -39.3984375 56.88671875 C-46.11916885 42.28491736 -46.11916885 42.28491736 -58 32 C-56.71657521 28.14972564 -55.46499108 27.85017765 -51.9609375 25.92578125 C-50.38820068 25.05385132 -50.38820068 25.05385132 -48.78369141 24.16430664 C-47.65882324 23.55321045 -46.53395508 22.94211426 -45.375 22.3125 C-44.23595215 21.68400146 -43.0969043 21.05550293 -41.92333984 20.40795898 C-34.71426786 16.44107577 -27.45865416 12.56812924 -20.16796875 8.75390625 C-16.09259125 6.4976245 -12.26559511 3.93994725 -8.46484375 1.25 C-5.42001708 -0.29412763 -3.37413404 -0.32593676 0 0 Z " fill="#FE7A86" transform="translate(249,53)"/>
<path d="M0 0 C0 17.82 0 35.64 0 54 C-11.385 60.435 -11.385 60.435 -23 67 C-29.18003992 70.72116856 -29.18003992 70.72116856 -35.33203125 74.48828125 C-38 76 -38 76 -40 76 C-40 58.18 -40 40.36 -40 22 C-27.25 14.9375 -27.25 14.9375 -23.30957031 12.75756836 C-16.55729697 9.01157688 -9.8617994 5.19483703 -3.22167969 1.25219727 C-1 0 -1 0 0 0 Z " fill="#5A4B8F" transform="translate(141,404)"/>
<path d="M0 0 C0 17.82 0 35.64 0 54 C-11.385 60.435 -11.385 60.435 -23 67 C-29.18003992 70.72116856 -29.18003992 70.72116856 -35.33203125 74.48828125 C-38 76 -38 76 -40 76 C-40 58.18 -40 40.36 -40 22 C-27.25 14.9375 -27.25 14.9375 -23.30957031 12.75756836 C-16.55729697 9.01157688 -9.8617994 5.19483703 -3.22167969 1.25219727 C-1 0 -1 0 0 0 Z " fill="#5A4B8F" transform="translate(141,328)"/>
<path d="M0 0 C0.33058303 7.40026222 0.55763351 14.79861522 0.71411133 22.20458984 C0.77935124 24.72126387 0.86797179 27.2374476 0.98071289 29.75244141 C1.86140268 49.90868092 1.86140268 49.90868092 -1.09637451 54.82080078 C-4.41912743 58.14044929 -8.6711252 59.45006851 -13 61 C-15.37058898 62.25313866 -17.63817225 63.65873649 -19.921875 65.0625 C-22.19678943 66.37695284 -24.47283165 67.68945575 -26.75 69 C-27.93496274 69.68608238 -29.1198588 70.37227993 -30.3046875 71.05859375 C-31.41585937 71.69925781 -32.52703125 72.33992188 -33.671875 73 C-34.6731543 73.5775 -35.67443359 74.155 -36.70605469 74.75 C-39 76 -39 76 -40 76 C-40 58.18 -40 40.36 -40 22 C-27.75 14.9375 -27.75 14.9375 -23.96777344 12.75756836 C-22.94200195 12.16596924 -21.91623047 11.57437012 -20.859375 10.96484375 C-19.72435547 10.31112793 -18.58933594 9.65741211 -17.41992188 8.98388672 C-15.11660656 7.64774021 -12.8210569 6.30380097 -10.53320312 4.94189453 C-8.91575195 3.98259033 -8.91575195 3.98259033 -7.265625 3.00390625 C-6.29915039 2.42584229 -5.33267578 1.84777832 -4.33691406 1.25219727 C-2 0 -2 0 0 0 Z " fill="#594A8E" transform="translate(197,372)"/>
<path d="M0 0 C0.33058303 7.40026222 0.55763351 14.79861522 0.71411133 22.20458984 C0.77935124 24.72126387 0.86797179 27.2374476 0.98071289 29.75244141 C1.86460095 49.98187938 1.86460095 49.98187938 -1.14169312 54.84799194 C-4.49021746 58.14317962 -8.64824079 59.49469141 -13 61 C-14.90807704 62.05816008 -16.79455701 63.1566269 -18.65234375 64.30078125 C-20.41278235 65.30693067 -22.17448306 66.31087533 -23.9375 67.3125 C-24.83017578 67.82361328 -25.72285156 68.33472656 -26.64257812 68.86132812 C-31.05273681 71.37534742 -35.45127822 73.72563911 -40 76 C-40 58.18 -40 40.36 -40 22 C-27.75 14.9375 -27.75 14.9375 -23.96777344 12.75756836 C-22.94200195 12.16596924 -21.91623047 11.57437012 -20.859375 10.96484375 C-19.72435547 10.31112793 -18.58933594 9.65741211 -17.41992188 8.98388672 C-15.11660656 7.64774021 -12.8210569 6.30380097 -10.53320312 4.94189453 C-8.91575195 3.98259033 -8.91575195 3.98259033 -7.265625 3.00390625 C-6.29915039 2.42584229 -5.33267578 1.84777832 -4.33691406 1.25219727 C-2 0 -2 0 0 0 Z " fill="#594A8E" transform="translate(197,296)"/>
<path d="M0 0 C0.33058303 7.40026222 0.55763351 14.79861522 0.71411133 22.20458984 C0.77935124 24.72126387 0.86797179 27.2374476 0.98071289 29.75244141 C1.86140268 49.90868092 1.86140268 49.90868092 -1.09637451 54.82080078 C-4.41912743 58.14044929 -8.6711252 59.45006851 -13 61 C-15.37058898 62.25313866 -17.63817225 63.65873649 -19.921875 65.0625 C-22.19678943 66.37695284 -24.47283165 67.68945575 -26.75 69 C-27.93496274 69.68608238 -29.1198588 70.37227993 -30.3046875 71.05859375 C-31.41585937 71.69925781 -32.52703125 72.33992188 -33.671875 73 C-34.6731543 73.5775 -35.67443359 74.155 -36.70605469 74.75 C-39 76 -39 76 -40 76 C-40 58.18 -40 40.36 -40 22 C-27.75 14.9375 -27.75 14.9375 -23.96777344 12.75756836 C-22.94200195 12.16596924 -21.91623047 11.57437012 -20.859375 10.96484375 C-19.72435547 10.31112793 -18.58933594 9.65741211 -17.41992188 8.98388672 C-15.11660656 7.64774021 -12.8210569 6.30380097 -10.53320312 4.94189453 C-8.91575195 3.98259033 -8.91575195 3.98259033 -7.265625 3.00390625 C-6.29915039 2.42584229 -5.33267578 1.84777832 -4.33691406 1.25219727 C-2 0 -2 0 0 0 Z " fill="#594A8E" transform="translate(197,220)"/>
<path d="M0 0 C4.03435562 48.85824207 4.03435562 48.85824207 -2.12988281 57.80273438 C-7.50883982 62.97903962 -13.87301472 65.22153931 -20.99023438 67.1171875 C-25.24820597 68.36611882 -28.67436891 70.4854961 -32.375 72.875 C-37.74895397 76 -37.74895397 76 -40 76 C-40.56199702 68.69374915 -40.94450819 61.39309276 -41.20849609 54.07006836 C-41.31856108 51.58618239 -41.46831053 49.10370446 -41.65966797 46.62475586 C-42.89780243 30.16154014 -42.89780243 30.16154014 -40 23 C-34.884238 17.16655617 -27.87264149 14.17887205 -20.83387756 11.248703 C-16.3814663 9.28681891 -12.31576158 6.74635995 -8.1875 4.1875 C-1.18417255 0 -1.18417255 0 0 0 Z " fill="#594A8E" transform="translate(253,187)"/>
<path d="M0 0 C0.25268999 1.99716427 0.47593154 3.9980619 0.6875 6 C0.81511719 7.11375 0.94273437 8.2275 1.07421875 9.375 C0.99681774 13.15542833 0.25430846 15.48770117 -1.16479492 18.91943359 C-2.58652348 22.46107953 -3.52874394 26.126389 -4.5 29.8125 C-4.71430664 30.62203125 -4.92861328 31.4315625 -5.14941406 32.265625 C-7.08537383 39.84594407 -8.32506777 47.47878079 -9.421875 55.21875 C-10 59 -10 59 -11 62 C-11.99 62 -12.98 62 -14 62 C-15.85407977 62.84934412 -15.85407977 62.84934412 -17.765625 64.046875 C-18.49136719 64.48 -19.21710938 64.913125 -19.96484375 65.359375 C-21.09599609 66.04773438 -21.09599609 66.04773438 -22.25 66.75 C-23.73414641 67.64100587 -25.21851902 68.53163508 -26.703125 69.421875 C-27.42306641 69.85435547 -28.14300781 70.28683594 -28.88476562 70.73242188 C-37.67488444 76 -37.67488444 76 -40 76 C-40.4330841 68.63728142 -40.72947129 61.27785862 -40.93383789 53.90527344 C-41.01904574 51.40174732 -41.13486448 48.89906058 -41.2824707 46.3984375 C-42.44141295 26.25128929 -42.44141295 26.25128929 -38.46990967 20.96234131 C-34.52041186 17.57028886 -30.01696299 15.65781524 -25.17575073 13.85601807 C-22.08341871 12.63938417 -19.36963627 10.94545569 -16.5625 9.1796875 C-15.62921875 8.62539063 -14.6959375 8.07109375 -13.734375 7.5 C-11.84811473 6.37902247 -9.96275192 5.2565339 -8.078125 4.1328125 C-7.16546875 3.59140625 -6.2528125 3.05 -5.3125 2.4921875 C-4.50425781 2.01120605 -3.69601563 1.53022461 -2.86328125 1.03466797 C-1 0 -1 0 0 0 Z " fill="#594A8E" transform="translate(253,263)"/>
<path d="M0 0 C0.495 1.485 0.495 1.485 1 3 C2.30942466 3.71248107 3.64656636 4.37514834 5 5 C15.37000469 13.02440839 22.80897538 27.21761314 25 40 C26.03277269 49.90893279 27.12788408 62.52960067 21 71 C16.97004855 75.37051073 13.39469116 78.7485414 7.2578125 79.203125 C5.70707031 79.22632813 5.70707031 79.22632813 4.125 79.25 C3.09632812 79.27578125 2.06765625 79.3015625 1.0078125 79.328125 C-2.68879068 78.9248592 -5.35228721 77.64771279 -8 75 C-7.53897759 68.7761975 -7.53897759 68.7761975 -5.79296875 66.26171875 C-2.69222243 64.07971208 0.68664867 65.11088252 4.30859375 65.48046875 C7.26265957 65.23713745 7.26265957 65.23713745 9.31640625 62.4296875 C13.11844021 54.68447679 11.67309892 45.35041686 9.4375 37.25 C6.20591976 28.02015327 0.79406063 17.99377014 -8 13 C-11.47554777 11.88316765 -13.83226471 11.52121341 -17.26269531 12.92773438 C-19.78133312 14.30228173 -22.20303266 15.77417231 -24.625 17.3125 C-26.28215706 18.3321903 -27.94096378 19.34920544 -29.6015625 20.36328125 C-30.32682129 20.82001221 -31.05208008 21.27674316 -31.79931641 21.74731445 C-34.13352716 23.07600708 -36.48801064 24.05710823 -39 25 C-38.67 24.34 -38.34 23.68 -38 23 C-37.34 23 -36.68 23 -36 23 C-35.98582031 22.39414063 -35.97164063 21.78828125 -35.95703125 21.1640625 C-35.49835488 13.10623438 -33.24708372 5.54985013 -27.0625 0 C-18.19705932 -5.78967555 -9.01172503 -5.25244792 0 0 Z " fill="#DACFF0" transform="translate(119,123)"/>
<path d="M0 0 C3 0.25 3 0.25 5 2.25 C5.24050903 4.42666626 5.24050903 4.42666626 5.22705078 7.15869141 C5.22689972 8.17959869 5.22674866 9.20050598 5.22659302 10.25234985 C5.21627045 11.35759003 5.20594788 12.4628302 5.1953125 13.6015625 C5.1924826 14.7307309 5.18965271 15.85989929 5.18673706 17.02328491 C5.17551462 20.64062971 5.15040622 24.25772966 5.125 27.875 C5.11497287 30.3229131 5.10584656 32.77083007 5.09765625 35.21875 C5.07556857 41.22925064 5.04207074 47.23960783 5 53.25 C6.19689453 53.43369141 6.19689453 53.43369141 7.41796875 53.62109375 C10 54.25 10 54.25 11.3125 56.3125 C11.6528125 57.2715625 11.6528125 57.2715625 12 58.25 C15.02373864 56.60946587 18.04360864 54.96193569 21.0625 53.3125 C22.42012451 52.57338379 22.42012451 52.57338379 23.80517578 51.81933594 C28.08894385 49.4700997 32.32654517 47.0914349 36.45703125 44.48046875 C37.45754517 43.85096313 37.45754517 43.85096313 38.47827148 43.20874023 C39.71253663 42.42217224 40.93797223 41.62151503 42.15258789 40.80493164 C45.20839336 38.86153686 46.74810247 38.23040157 50.4140625 38.515625 C51.26742187 38.75796875 52.12078125 39.0003125 53 39.25 C53.495 42.715 53.495 42.715 54 46.25 C46.84094192 51.21779408 39.38303781 55.56858642 31.8125 59.875 C29.52583971 61.17709491 27.24108157 62.4823794 24.95703125 63.7890625 C23.95647705 64.35834473 22.95592285 64.92762695 21.92504883 65.51416016 C15.01990831 69.25355991 15.01990831 69.25355991 10.9375 75.5625 C8.59020762 81.41149085 5.97006932 86.26009293 0.5625 89.75 C-3.40686109 91.42130993 -5.00828421 91.84668631 -9 90.25 C-12.25893165 86.90530699 -13.28462219 84.05883024 -13.5 79.5 C-13.23908879 73.09318033 -11.0386619 67.25900926 -7.45204163 61.96525574 C-5.79363228 58.8641012 -5.61716649 56.9764096 -5.59936523 53.48168945 C-5.58602646 52.34733963 -5.57268768 51.21298981 -5.5589447 50.04426575 C-5.55882889 48.82954086 -5.55871307 47.61481598 -5.55859375 46.36328125 C-5.53878197 44.48324654 -5.53878197 44.48324654 -5.51856995 42.56523132 C-5.48461751 39.24346675 -5.46220719 35.92209201 -5.44702148 32.60021973 C-5.42510226 27.90922528 -5.39249474 23.21844861 -5.34571838 18.52763367 C-5.32126319 16.0314648 -5.30648473 13.53517948 -5.30210876 11.03889465 C-5.28682884 9.35155464 -5.28682884 9.35155464 -5.27124023 7.63012695 C-5.26696518 6.63705032 -5.26269012 5.64397369 -5.25828552 4.62080383 C-4.84878017 0.86195262 -3.6702932 0.30585777 0 0 Z " fill="#BCB2DE" transform="translate(373,240.75)"/>
<path d="M0 0 C0 0.66 0 1.32 0 2 C0.57234375 2.24492187 1.1446875 2.48984375 1.734375 2.7421875 C12.84886088 8.91264345 19.17595001 23.77776427 23 35.375 C25.49710411 46.17946352 25.99097911 60.32481766 20 70 C16.15526154 74.32436378 12.47617443 77.71623066 6.51171875 78.203125 C0.8906566 78.29642064 -3.14435754 78.19450162 -8 75 C-8.495 74.505 -8.495 74.505 -9 74 C-8.79354103 70.3525582 -8.39387411 67.68499845 -6.5625 64.5 C-2.9609839 62.39179546 -0.3296946 63.2152805 3.66015625 64.03125 C6.13036651 64.26813968 6.13036651 64.26813968 7.74609375 62.28125 C11.86980364 54.77892422 10.65350645 45.36027347 8.375 37.4375 C4.63195032 26.47102112 -0.35181399 17.57062788 -10 10.9375 C-14.0572758 9.66960131 -16.11366884 10.37480697 -20 12 C-20.76570313 12.62261719 -21.53140625 13.24523437 -22.3203125 13.88671875 C-25.18860853 16.1487423 -28.02815393 17.66196454 -31.3125 19.25 C-32.38113281 19.77078125 -33.44976562 20.2915625 -34.55078125 20.828125 C-35.76314453 21.40820312 -35.76314453 21.40820312 -37 22 C-37.58289706 15.44240805 -36.06266061 9.82589909 -33 4 C-24.07744152 -6.65011767 -11.36106267 -7.57404178 0 0 Z " fill="#DACFF1" transform="translate(321,8)"/>
<path d="M0 0 C0 0.66 0 1.32 0 2 C0.57234375 2.24492188 1.1446875 2.48984375 1.734375 2.7421875 C13.16024223 9.08551379 19.60350434 24.67016051 23.42871094 36.62329102 C24.45181238 40.87965536 24.48821941 45.07800825 24.4375 49.4375 C24.42847656 50.36256348 24.41945313 51.28762695 24.41015625 52.24072266 C24.21274186 59.998834 23.4824425 66.22326659 18.05859375 72.10546875 C12.44100701 77.28854602 8.36648235 78.27452315 0.80859375 78.234375 C-3.02521579 77.91444653 -5.62517463 76.79990686 -9 75 C-9.33583958 71.38972451 -9.27868122 69.46993303 -7.40625 66.3125 C-5 64 -5 64 -1.765625 63.51171875 C-0.60546875 63.56972656 0.5546875 63.62773438 1.75 63.6875 C2.92046875 63.73261719 4.0909375 63.77773437 5.296875 63.82421875 C6.18890625 63.88222656 7.0809375 63.94023438 8 64 C12.08899101 53.37519204 11.0059883 42.21138249 6.48046875 31.96875 C5.99191406 30.9890625 5.50335938 30.009375 5 29 C4.54238281 28.0821875 4.08476562 27.164375 3.61328125 26.21875 C0.14397537 19.90746478 -4.44271519 14.2786424 -11 11 C-16.03237428 10.48940121 -16.03237428 10.48940121 -20.34375 12.78515625 C-21.2203125 13.51605469 -22.096875 14.24695313 -23 15 C-25.03908476 16.287843 -27.10252225 17.53786386 -29.1875 18.75 C-30.75564453 19.67039062 -30.75564453 19.67039062 -32.35546875 20.609375 C-35 22 -35 22 -37 22 C-36.80527005 13.67972048 -35.14372637 6.12698404 -29.06640625 0.07421875 C-19.73910308 -7.31356959 -9.88728828 -5.67603586 0 0 Z " fill="#DACFF1" transform="translate(260,43)"/>
<path d="M0 0 C0 0.66 0 1.32 0 2 C0.57234375 2.24492188 1.1446875 2.48984375 1.734375 2.7421875 C12.8379431 8.90658221 19.14229416 23.73938249 23 35.3125 C25.31741306 45.30918379 25.99668322 58.59370567 21.41015625 67.98046875 C18.23284051 72.53080735 14.29305917 76.23564694 9 78 C2.24290965 78.5595043 -2.99339792 78.20352111 -9 75 C-9.32542398 71.50169223 -9.15667763 69.34319862 -7.6875 66.125 C-3.96308509 63.18011379 -1.15675328 63.77187316 3.44140625 64.21484375 C6.12119478 64.26985677 6.12119478 64.26985677 7.77734375 62.19140625 C11.40533911 55.6888331 10.76109055 47.74021642 9.31640625 40.640625 C5.82245901 28.52054246 0.56264702 18.09321126 -10.0625 10.9375 C-13.88812876 9.71655465 -15.30675084 10.5021326 -19 12 C-21.21967877 13.27904659 -23.40697152 14.61557557 -25.5625 16 C-29.30507238 18.39806758 -32.80771138 20.50108116 -37 22 C-36.84170574 14.30114264 -35.86393924 8.154616 -31 2 C-21.46379014 -7.15090845 -11.04854306 -6.34268213 0 0 Z " fill="#DAD0F1" transform="translate(191,83)"/>
<path d="M0 0 C4.05048781 49.05361177 4.05048781 49.05361177 -2.29101562 57.91552734 C-7.94882833 63.93836023 -16.11665978 66.39276627 -24 68 C-25.33443628 68.32889009 -26.66798602 68.66143296 -28 69 C-28.56199702 61.69374915 -28.94450819 54.39309276 -29.20849609 47.07006836 C-29.31856108 44.58618239 -29.46831053 42.10370446 -29.65966797 39.62475586 C-30.90404617 23.07851843 -30.90404617 23.07851843 -28 16 C-22.79318405 10.16713029 -15.72061425 6.9657162 -8.56533813 4.10050964 C-6.0154421 3.00662454 -2.70750344 0 0 0 Z " fill="#594A8E" transform="translate(241,346)"/>
<path d="M0 0 C0 10.56 0 21.12 0 32 C-2.31 32.495 -4.62 32.99 -7 33.5 C-16.05677738 35.63349103 -23.90004942 39.51862513 -32 44 C-33.22420654 44.67699951 -33.22420654 44.67699951 -34.47314453 45.36767578 C-36.65055602 46.5752693 -38.82612345 47.78605747 -41 49 C-43.08688218 26.14061362 -43.08688218 26.14061362 -39.01953125 20.01953125 C-36.25220969 18.3875211 -33.50521162 17.19505217 -30.49853516 16.07666016 C-27.32173501 14.70772439 -24.38600788 12.99454235 -21.41796875 11.23046875 C-20.83748779 10.88583084 -20.25700684 10.54119293 -19.65893555 10.18611145 C-18.47184912 9.47942636 -17.28530827 8.77182403 -16.0993042 8.06332397 C-13.22190764 6.35099044 -10.32721239 4.67138899 -7.42578125 3 C-6.42973877 2.4225 -5.43369629 1.845 -4.4074707 1.25 C-2 0 -2 0 0 0 Z " fill="#FE4B5B" transform="translate(365,123)"/>
<path d="M0 0 C3.11621245 1.69213824 6.1143866 3.50465143 9.11352539 5.39624023 C10.12930664 6.01370117 11.14508789 6.63116211 12.19165039 7.26733398 C14.20043877 8.4906346 16.20323513 9.72383726 18.19946289 10.9675293 C21.88032921 13.24586713 25.60975359 15.4375716 29.34790039 17.62036133 C29.93055664 18.00015137 30.51321289 18.37994141 31.11352539 18.77124023 C31.11352539 19.10124023 31.11352539 19.43124023 31.11352539 19.77124023 C30.54174561 19.76294189 29.96996582 19.75464355 29.38085938 19.74609375 C21.08180772 20.05511414 15.19897623 23.53795896 8.17602539 27.70874023 C7.05389648 28.35520508 5.93176758 29.00166992 4.77563477 29.66772461 C0.82524371 31.95254538 -3.08886683 34.23950171 -6.88647461 36.77124023 C-7.34795898 35.74385742 -7.80944336 34.71647461 -8.28491211 33.65795898 C-15.00564346 19.0561576 -15.00564346 19.0561576 -26.88647461 8.77124023 C-25.5265263 4.69139532 -23.66555477 4.15236186 -19.94897461 2.08374023 C-18.86745117 1.46112305 -17.78592773 0.83850586 -16.67163086 0.19702148 C-11.02626772 -2.28113251 -5.69267095 -2.42334542 0 0 Z " fill="#FE7C87" transform="translate(347.886474609375,1.228759765625)"/>
<path d="M0 0 C0.495 3.465 0.495 3.465 1 7 C-6.15905808 11.96779408 -13.61696219 16.31858642 -21.1875 20.625 C-23.47416029 21.92709491 -25.75891843 23.2323794 -28.04296875 24.5390625 C-29.54380005 25.39298584 -29.54380005 25.39298584 -31.07495117 26.26416016 C-37.98009169 30.00355991 -37.98009169 30.00355991 -42.0625 36.3125 C-45.07157862 43.81053198 -48.42251282 48.75250549 -56 52 C-58.9375 51.75 -58.9375 51.75 -61 51 C-60.27673504 46.92096533 -58.30507433 43.45592498 -56.40234375 39.828125 C-55.87176109 38.8044986 -55.87176109 38.8044986 -55.33045959 37.76019287 C-54.20341293 35.58805469 -53.07054832 33.41901255 -51.9375 31.25 C-51.1708379 29.77494017 -50.40455741 28.29968194 -49.63867188 26.82421875 C-47.76352969 23.21383133 -45.88316501 19.60620879 -44 16 C-43.01 16.33 -42.02 16.66 -41 17 C-41 17.66 -41 18.32 -41 19 C-37.97626136 17.35946587 -34.95639136 15.71193569 -31.9375 14.0625 C-30.57987549 13.32338379 -30.57987549 13.32338379 -29.19482422 12.56933594 C-24.91105615 10.2200997 -20.67345483 7.8414349 -16.54296875 5.23046875 C-15.54245483 4.60096313 -15.54245483 4.60096313 -14.52172852 3.95874023 C-13.28746337 3.17217224 -12.06202777 2.37151503 -10.84741211 1.55493164 C-6.86648974 -0.97680796 -4.5300154 -1.28646963 0 0 Z " fill="#7E6EB7" transform="translate(426,280)"/>
<path d="M0 0 C2.31 0.66 4.62 1.32 7 2 C8.63911346 2.25588516 10.28555635 2.47251289 11.9375 2.625 C12.70964844 2.69976562 13.48179687 2.77453125 14.27734375 2.8515625 C15.13005859 2.92503906 15.13005859 2.92503906 16 3 C15.01 3.33 14.02 3.66 13 4 C13 10.93 13 17.86 13 25 C8.71 25 4.42 25 0 25 C0 16.75 0 8.5 0 0 Z " fill="#BD4252" transform="translate(251,118)"/>
<path d="M0 0 C2.31 0.66 4.62 1.32 7 2 C8.63911346 2.25588516 10.28555635 2.47251289 11.9375 2.625 C12.70964844 2.69976562 13.48179687 2.77453125 14.27734375 2.8515625 C15.13005859 2.92503906 15.13005859 2.92503906 16 3 C15.01 3.33 14.02 3.66 13 4 C13 10.93 13 17.86 13 25 C8.71 25 4.42 25 0 25 C0 16.75 0 8.5 0 0 Z " fill="#BD4252" transform="translate(182,158)"/>
<path d="M0 0 C0.87914063 0.48082031 1.75828125 0.96164063 2.6640625 1.45703125 C5.817579 2.91562495 7.95420195 3.456365 11.375 3.6875 C12.24898437 3.75324219 13.12296875 3.81898438 14.0234375 3.88671875 C14.67570312 3.92410156 15.32796875 3.96148437 16 4 C15.01 4.495 15.01 4.495 14 5 C13.67 11.6 13.34 18.2 13 25 C9.04 25 5.08 25 1 25 C0.27412466 21.37062331 -0.12079859 18.72378217 -0.09765625 15.13671875 C-0.09443359 14.25048828 -0.09121094 13.36425781 -0.08789062 12.45117188 C-0.07951172 11.53916016 -0.07113281 10.62714844 -0.0625 9.6875 C-0.05798828 8.75615234 -0.05347656 7.82480469 -0.04882812 6.86523438 C-0.03709234 4.57675627 -0.02067363 2.28841192 0 0 Z " fill="#BD4151" transform="translate(111,198)"/>
<path d="M0 0 C3.465 1.485 3.465 1.485 7 3 C9.57852838 3.5495514 9.57852838 3.5495514 11.9375 3.6875 C12.70964844 3.75324219 13.48179687 3.81898437 14.27734375 3.88671875 C14.84582031 3.92410156 15.41429687 3.96148437 16 4 C15.01 4.33 14.02 4.66 13 5 C13 11.6 13 18.2 13 25 C10 26 10 26 0 25 C0 16.75 0 8.5 0 0 Z " fill="#BC4252" transform="translate(312,82)"/>
</svg>
