<?xml version="1.0" encoding="UTF-8"?>
<svg version="1.1" xmlns="http://www.w3.org/2000/svg" width="512" height="512">
<path d="M0 0 C6.14860553 3.07430277 10.60210488 7.49216163 13.98828125 13.48828125 C15.26782915 18.01824468 15.14061217 22.47259936 15.125 27.15625 C15.14111328 28.10757813 15.15722656 29.05890625 15.17382812 30.0390625 C15.17811521 36.29820477 14.36921275 41.65595685 11.8125 47.40625 C11.4825 47.73625 11.1525 48.06625 10.8125 48.40625 C10.73930379 51.10279854 10.72007463 53.77316458 10.75 56.46875 C10.75451172 57.22736328 10.75902344 57.98597656 10.76367188 58.76757812 C10.7754932 60.64716871 10.79342922 62.52671899 10.8125 64.40625 C11.68648438 64.65503906 12.56046875 64.90382813 13.4609375 65.16015625 C21.71517632 68.22903992 28.7186025 75.13428663 35.3125 80.90625 C36.2715625 81.7415625 37.230625 82.576875 38.21875 83.4375 C45.28023121 91.51991825 45.43748023 99.98006643 45.4140625 110.3515625 C45.42186502 111.8081815 45.43054007 113.26479606 45.44003296 114.72140503 C45.45490223 117.77259029 45.45442477 120.82331289 45.44384766 123.87451172 C45.43465499 126.9545386 45.4481478 130.03297332 45.48486328 133.11279297 C45.694674 150.84252753 45.05487963 167.04113391 39.53005981 184.09346008 C37.71527678 189.94274513 36.50983812 195.44541519 36.8359375 201.59765625 C36.9136438 203.34985474 36.9136438 203.34985474 36.99291992 205.13745117 C37.05713135 206.40177979 37.12134277 207.6661084 37.1875 208.96875 C37.30717544 211.80950336 37.41164792 214.65068079 37.51171875 217.4921875 C37.55233177 218.64127846 37.55233177 218.64127846 37.59376526 219.81358337 C37.91365692 229.52559229 37.97066612 239.23937594 37.99176025 248.95602417 C37.99716605 251.01457125 38.00643431 253.07311257 38.0199585 255.13162231 C38.12538336 272.01878407 37.4067389 288.67160424 34.1875 305.28125 C30.92763129 323.64030274 33.11141349 342.23143314 34.52508545 360.68060303 C35.56653654 374.45592764 36.10107453 388.15374763 36.0625 401.96875 C36.06145264 402.78472656 36.06040527 403.60070312 36.05932617 404.44140625 C36.03817544 412.14967139 35.98650533 419.80921242 34.97973633 427.46557617 C34.75705934 430.04960447 35.14363165 432.49622075 35.5546875 435.046875 C36.14660576 440.46382391 35.88129069 445.96414178 35.8125 451.40625 C32.62920791 453.2274242 29.8714682 453.80867492 26.25 454.28125 C20.99570178 455.08567476 16.41574458 456.54701324 11.47265625 458.453125 C4.08687141 461.09942676 -4.57491724 462.94377759 -12.1875 460.40625 C-13.125 457.78125 -13.125 457.78125 -13.1875 454.40625 C-10.38358222 450.82004794 -6.71084387 448.66792193 -2.6875 446.65625 C3.35555698 443.43692394 6.96149921 436.41421264 9.8125 430.40625 C8.8225 428.92125 8.8225 428.92125 7.8125 427.40625 C7.28868103 425.07106018 7.28868103 425.07106018 6.89819336 422.24829102 C6.7470961 421.16748764 6.59599884 420.08668427 6.44032288 418.97312927 C6.28341476 417.77672318 6.12650665 416.58031708 5.96484375 415.34765625 C5.7941185 414.07708878 5.62339325 412.8065213 5.44749451 411.49745178 C2.78351155 391.32590899 0.86268998 371.05544438 -1.18481445 350.81420898 C-1.73627819 345.37370859 -2.2980595 339.93436495 -2.87109375 334.49609375 C-3.00917009 333.18497179 -3.00917009 333.18497179 -3.15003586 331.84736252 C-4.59391548 318.30716222 -6.62301729 305.00734219 -9.25415039 291.64282227 C-9.98752285 287.83746223 -10.4253804 284.29918164 -10.1875 280.40625 C-10.8475 280.40625 -11.5075 280.40625 -12.1875 280.40625 C-12.27837891 281.54900391 -12.27837891 281.54900391 -12.37109375 282.71484375 C-12.75762012 287.47803799 -13.14658648 292.22764374 -13.75 296.96875 C-14.53609925 303.90638781 -14.38528209 310.78080234 -13.6875 317.71875 C-11.31539172 344.53388706 -11.60964196 378.04888159 -20.2890625 403.65625 C-21.6831894 407.9234906 -21.54584228 412.2970669 -21.578125 416.74804688 C-21.75356271 421.92833258 -21.75356271 421.92833258 -23.921875 424.31640625 C-26.31834271 425.46918986 -28.46239172 426.10303547 -31.0625 426.65625 C-35.79797594 427.84486078 -39.94404172 429.64645594 -44.25 431.90625 C-51.24121938 435.5564485 -58.14044064 438.86018668 -66.1875 438.40625 C-67.1875 437.40625 -67.1875 437.40625 -67.5625 434.34375 C-66.98587235 428.28915971 -63.77898963 423.39175623 -59.1875 419.40625 C-58.094375 419.035 -57.00125 418.66375 -55.875 418.28125 C-51.83556123 416.53773155 -49.43995745 414.24079672 -47.1484375 410.48828125 C-45.44380022 405.02096901 -46.55842707 399.76204752 -47.44140625 394.19921875 C-49.63712957 379.22837792 -49.34063114 363.82015288 -49.3203125 348.72265625 C-49.32099045 346.8893177 -49.32196449 345.05597924 -49.32321167 343.22264099 C-49.32467196 339.40159235 -49.32259287 335.58056734 -49.31787109 331.75952148 C-49.31224305 326.9847299 -49.31550704 322.20999497 -49.32132339 317.43520546 C-49.34626481 293.07587033 -49.00056769 268.75228146 -48.1875 244.40625 C-48.8475 244.40625 -49.5075 244.40625 -50.1875 244.40625 C-50.21460123 241.8436782 -50.23438771 239.28139635 -50.25 236.71875 C-50.25837891 235.99751953 -50.26675781 235.27628906 -50.27539062 234.53320312 C-50.29293632 230.69069618 -50.12274221 227.13985474 -49.1875 223.40625 C-51.6625 224.39625 -51.6625 224.39625 -54.1875 225.40625 C-53.72927532 221.93683454 -53.29618317 218.73229951 -52.1875 215.40625 C-52.5175 215.07625 -52.8475 214.74625 -53.1875 214.40625 C-53.29769212 212.3908859 -53.33664746 210.37161018 -53.34863281 208.35327148 C-53.35810944 207.04507446 -53.36758606 205.73687744 -53.37734985 204.38903809 C-53.38217916 202.93514126 -53.38659165 201.481243 -53.390625 200.02734375 C-53.39749564 198.52241989 -53.40444498 197.01749639 -53.41146851 195.51257324 C-53.43088138 190.62296415 -53.43514566 185.73339263 -53.4375 180.84375 C-53.43838371 180.01565449 -53.43926743 179.18755898 -53.44017792 178.33436966 C-53.46648802 150.67610723 -52.64232797 123.24612213 -50.36779785 95.67010498 C-50.09640308 92.2624193 -49.87282349 88.85251328 -49.6484375 85.44140625 C-49.49613085 83.26292679 -49.34263686 81.08452974 -49.1875 78.90625 C-49.12900879 78.010271 -49.07051758 77.11429199 -49.01025391 76.19116211 C-48.57182843 70.77904315 -47.42149797 66.37496962 -45.1875 61.40625 C-39.96316199 57.14429005 -32.65836676 57.68467008 -26.1875 57.40625 C-26.46464844 56.46523437 -26.74179688 55.52421875 -27.02734375 54.5546875 C-27.38957031 53.30945313 -27.75179687 52.06421875 -28.125 50.78125 C-28.66447266 48.93660156 -28.66447266 48.93660156 -29.21484375 47.0546875 C-30.82518291 41.01429883 -31.29450027 35.61226584 -31.1875 29.40625 C-32.095 29.365 -33.0025 29.32375 -33.9375 29.28125 C-37.1875 28.40625 -37.1875 28.40625 -39.5625 25.90625 C-41.55792824 21.60840457 -41.78754655 18.0787436 -41.1875 13.40625 C-39.64842912 11.86717912 -37.92417263 12.01565261 -35.79296875 11.6953125 C-28.68611577 10.33235439 -22.98865624 6.78478553 -16.77929688 3.21875 C-10.95559918 -0.00668257 -6.7225683 -1.82469711 0 0 Z " fill="#587380" transform="translate(267.1875,25.59375)"/>
<path d="M0 0 C6.14860553 3.07430277 10.60210488 7.49216163 13.98828125 13.48828125 C15.26782915 18.01824468 15.14061217 22.47259936 15.125 27.15625 C15.14111328 28.10757813 15.15722656 29.05890625 15.17382812 30.0390625 C15.17811521 36.29820477 14.36921275 41.65595685 11.8125 47.40625 C11.4825 47.73625 11.1525 48.06625 10.8125 48.40625 C10.73930379 51.10279854 10.72007463 53.77316458 10.75 56.46875 C10.75451172 57.22736328 10.75902344 57.98597656 10.76367188 58.76757812 C10.7754932 60.64716871 10.79342922 62.52671899 10.8125 64.40625 C11.68648438 64.65503906 12.56046875 64.90382813 13.4609375 65.16015625 C21.71517632 68.22903992 28.7186025 75.13428663 35.3125 80.90625 C36.2715625 81.7415625 37.230625 82.576875 38.21875 83.4375 C45.28023121 91.51991825 45.43748023 99.98006643 45.4140625 110.3515625 C45.42186502 111.8081815 45.43054007 113.26479606 45.44003296 114.72140503 C45.45490223 117.77259029 45.45442477 120.82331289 45.44384766 123.87451172 C45.43465499 126.9545386 45.4481478 130.03297332 45.48486328 133.11279297 C45.69460968 150.83709218 45.06627152 167.04416141 39.52961731 184.08866882 C37.88248765 189.4118658 36.49757832 194.76745066 36.72265625 200.37109375 C36.74263672 201.19029297 36.76261719 202.00949219 36.78320312 202.85351562 C36.84541303 204.5411248 36.91061005 206.22862603 36.97851562 207.91601562 C37.00655273 209.1312793 37.00655273 209.1312793 37.03515625 210.37109375 C37.07781616 211.46345337 37.07781616 211.46345337 37.12133789 212.57788086 C36.96846313 213.48292358 36.96846313 213.48292358 36.8125 214.40625 C33.8125 216.40625 33.8125 216.40625 30.8671875 216.58984375 C27.49334305 217.13213178 27.49334305 217.13213178 25.6953125 220.56640625 C25.0865712 221.85667314 24.50118865 223.1581739 23.9375 224.46875 C23.63070312 225.13197266 23.32390625 225.79519531 23.0078125 226.47851562 C22.25574948 228.11190249 21.53135841 229.75797999 20.8125 231.40625 C20.1525 231.40625 19.4925 231.40625 18.8125 231.40625 C18.4 230.643125 17.9875 229.88 17.5625 229.09375 C15.37552156 225.73517597 13.52818106 224.8182088 9.8125 223.40625 C8.1625 223.40625 6.5125 223.40625 4.8125 223.40625 C4.8125 220.10625 4.8125 216.80625 4.8125 213.40625 C3.224375 213.220625 1.63625 213.035 0 212.84375 C-14.59844259 210.40491066 -34.30437634 204.00817777 -44.1875 192.40625 C-45.1775 190.42625 -46.1675 188.44625 -47.1875 186.40625 C-47.5175 205.54625 -47.8475 224.68625 -48.1875 244.40625 C-48.8475 244.40625 -49.5075 244.40625 -50.1875 244.40625 C-50.21460123 241.8436782 -50.23438771 239.28139635 -50.25 236.71875 C-50.25837891 235.99751953 -50.26675781 235.27628906 -50.27539062 234.53320312 C-50.29293632 230.69069618 -50.12274221 227.13985474 -49.1875 223.40625 C-51.6625 224.39625 -51.6625 224.39625 -54.1875 225.40625 C-53.72927532 221.93683454 -53.29618317 218.73229951 -52.1875 215.40625 C-52.5175 215.07625 -52.8475 214.74625 -53.1875 214.40625 C-53.29769212 212.3908859 -53.33664746 210.37161018 -53.34863281 208.35327148 C-53.35810944 207.04507446 -53.36758606 205.73687744 -53.37734985 204.38903809 C-53.38217916 202.93514126 -53.38659165 201.481243 -53.390625 200.02734375 C-53.39749564 198.52241989 -53.40444498 197.01749639 -53.41146851 195.51257324 C-53.43088138 190.62296415 -53.43514566 185.73339263 -53.4375 180.84375 C-53.43838371 180.01565449 -53.43926743 179.18755898 -53.44017792 178.33436966 C-53.46648802 150.67610723 -52.64232797 123.24612213 -50.36779785 95.67010498 C-50.09640308 92.2624193 -49.87282349 88.85251328 -49.6484375 85.44140625 C-49.49613085 83.26292679 -49.34263686 81.08452974 -49.1875 78.90625 C-49.09976318 77.56228149 -49.09976318 77.56228149 -49.01025391 76.19116211 C-48.57182843 70.77904315 -47.42149797 66.37496962 -45.1875 61.40625 C-39.96316199 57.14429005 -32.65836676 57.68467008 -26.1875 57.40625 C-26.46464844 56.46523437 -26.74179688 55.52421875 -27.02734375 54.5546875 C-27.38957031 53.30945313 -27.75179687 52.06421875 -28.125 50.78125 C-28.48464844 49.55148438 -28.84429687 48.32171875 -29.21484375 47.0546875 C-30.82518291 41.01429883 -31.29450027 35.61226584 -31.1875 29.40625 C-32.095 29.365 -33.0025 29.32375 -33.9375 29.28125 C-37.1875 28.40625 -37.1875 28.40625 -39.5625 25.90625 C-41.55792824 21.60840457 -41.78754655 18.0787436 -41.1875 13.40625 C-39.64842912 11.86717912 -37.92417263 12.01565261 -35.79296875 11.6953125 C-28.68611577 10.33235439 -22.98865624 6.78478553 -16.77929688 3.21875 C-10.95559918 -0.00668257 -6.7225683 -1.82469711 0 0 Z " fill="#4EC2F5" transform="translate(267.1875,25.59375)"/>
<path d="M0 0 C0.33 0 0.66 0 1 0 C1.17015625 0.59167969 1.3403125 1.18335938 1.515625 1.79296875 C1.87914062 2.97826172 1.87914062 2.97826172 2.25 4.1875 C2.48203125 4.96480469 2.7140625 5.74210938 2.953125 6.54296875 C5.40204123 12.2906117 9.33973665 15.16506904 14.6875 18.0625 C15.26177734 18.38798828 15.83605469 18.71347656 16.42773438 19.04882812 C21.14863647 21.67733481 26.03946468 23.86536371 31 26 C31.01458252 26.58040039 31.02916504 27.16080078 31.04418945 27.75878906 C31.38608159 40.1635539 32.11171637 52.47156076 33.4375 64.8125 C33.55971924 65.96073242 33.68193848 67.10896484 33.80786133 68.29199219 C34.3890953 73.47815521 35.0785274 78.58022879 36.09765625 83.69921875 C37.7537813 92.50791863 36.93297847 100.65929388 35.5 109.4375 C34.10482701 118.6095597 33.61207965 127.06768222 34.5 136.3125 C36.87210828 163.12763706 36.57785804 196.64263159 27.8984375 222.25 C26.5043106 226.5172406 26.64165772 230.8908169 26.609375 235.34179688 C26.43393729 240.52208258 26.43393729 240.52208258 24.265625 242.91015625 C21.86915729 244.06293986 19.72510828 244.69678547 17.125 245.25 C12.38952406 246.43861078 8.24345828 248.24020594 3.9375 250.5 C-3.05371938 254.1501985 -9.95294064 257.45393668 -18 257 C-19 256 -19 256 -19.375 252.9375 C-18.79837235 246.88290971 -15.59148963 241.98550623 -11 238 C-9.906875 237.62875 -8.81375 237.2575 -7.6875 236.875 C-3.64806123 235.13148155 -1.25245745 232.83454672 1.0390625 229.08203125 C2.74369978 223.61471901 1.62907293 218.35579752 0.74609375 212.79296875 C-2.14864365 192.54841069 -1.1583382 171.67165464 -1.12857056 151.26982498 C-1.12497307 148.47910711 -1.12337348 145.68839447 -1.12231445 142.89767456 C-1.1000349 95.26266492 -0.56315485 47.63117582 0 0 Z " fill="#37474F" transform="translate(219,207)"/>
<path d="M0 0 C4.99052663 2.03004473 9.34303935 4.73513237 11.7598877 9.70535278 C12.82705969 12.92045592 12.9687505 15.55832429 13.00976562 18.94482422 C13.02898071 20.23162079 13.0481958 21.51841736 13.06799316 22.84420776 C13.07770607 24.24769366 13.08625952 25.65118798 13.09375 27.0546875 C13.09940475 27.77160892 13.10505951 28.48853035 13.11088562 29.22717667 C13.14086413 33.04030053 13.1593124 36.85327391 13.16796875 40.66650391 C13.17665364 43.77376385 13.20409617 46.87988645 13.25 49.98681641 C13.50810683 67.79211974 12.99728122 84.06336061 7.40663147 101.18644714 C5.75309419 106.5061224 4.3726521 111.86303733 4.59765625 117.46484375 C4.62762695 118.69364258 4.62762695 118.69364258 4.65820312 119.94726562 C4.72041303 121.6348748 4.78561005 123.32237603 4.85351562 125.00976562 C4.88155273 126.2250293 4.88155273 126.2250293 4.91015625 127.46484375 C4.93859619 128.1930835 4.96703613 128.92132324 4.99633789 129.67163086 C4.89442139 130.27499268 4.79250488 130.87835449 4.6875 131.5 C1.6875 133.5 1.6875 133.5 -1.2578125 133.68359375 C-4.63165695 134.22588178 -4.63165695 134.22588178 -6.4296875 137.66015625 C-7.0384288 138.95042314 -7.62381135 140.2519239 -8.1875 141.5625 C-8.49429687 142.22572266 -8.80109375 142.88894531 -9.1171875 143.57226562 C-9.86925052 145.20565249 -10.59364159 146.85172999 -11.3125 148.5 C-11.9725 148.5 -12.6325 148.5 -13.3125 148.5 C-13.93125 147.3553125 -13.93125 147.3553125 -14.5625 146.1875 C-16.74947844 142.82892597 -18.59681894 141.9119588 -22.3125 140.5 C-23.97853516 140.45412367 -25.64669688 140.44635549 -27.3125 140.5 C-27.56634161 133.7687903 -27.04150978 127.81677415 -25.3125 121.3125 C-25.09609863 120.47243408 -24.87969727 119.63236816 -24.65673828 118.7668457 C-21.49528762 106.92279735 -17.72596033 94.85486087 -12.59765625 83.703125 C-8.27155908 72.92075517 -12.35581308 59.47572971 -14.2890625 48.4765625 C-16.24100854 37.28753847 -17.45787682 26.10802753 -17.75 14.75 C-17.78448242 14.01088379 -17.81896484 13.27176758 -17.85449219 12.51025391 C-17.88612787 8.47112115 -17.31999087 6.04442951 -14.78515625 2.984375 C-13.96917969 2.16453125 -13.15320313 1.3446875 -12.3125 0.5 C-11.57 0.70625 -10.8275 0.9125 -10.0625 1.125 C-7.35905801 1.77658613 -7.35905801 1.77658613 -5.4375 0.4375 C-3.3125 -0.5 -3.3125 -0.5 0 0 Z " fill="#049BE4" transform="translate(299.3125,108.5)"/>
<path d="M0 0 C6.14860553 3.07430277 10.60210488 7.49216163 13.98828125 13.48828125 C15.26782915 18.01824468 15.14061217 22.47259936 15.125 27.15625 C15.14111328 28.10757813 15.15722656 29.05890625 15.17382812 30.0390625 C15.17811521 36.29820477 14.36921275 41.65595685 11.8125 47.40625 C11.4825 47.73625 11.1525 48.06625 10.8125 48.40625 C10.96840943 50.21395664 11.12507131 52.02160253 11.28613281 53.82885742 C11.92116496 63.0685751 11.92116496 63.0685751 8.7890625 66.84765625 C5.86969843 68.71722035 3.02091137 70.09354258 -0.1875 71.40625 C-1.31027344 71.90640625 -2.43304688 72.4065625 -3.58984375 72.921875 C-6.43433044 74.15302025 -9.28937267 75.3087044 -12.1875 76.40625 C-14.56501786 74.02873214 -14.70439561 72.63942835 -15.4375 69.40625 C-16.12963234 66.70738997 -16.12963234 66.70738997 -17.1875 64.40625 C-20.10416667 63.15625 -20.10416667 63.15625 -23.1875 62.40625 C-26.6760464 57.31629468 -28.20274383 52.46541418 -29.4375 46.46875 C-29.61023438 45.70884766 -29.78296875 44.94894531 -29.9609375 44.16601562 C-31.04064403 39.1488079 -31.3508856 34.53539091 -31.1875 29.40625 C-32.095 29.365 -33.0025 29.32375 -33.9375 29.28125 C-37.1875 28.40625 -37.1875 28.40625 -39.5625 25.90625 C-41.55792824 21.60840457 -41.78754655 18.0787436 -41.1875 13.40625 C-39.64842912 11.86717912 -37.92417263 12.01565261 -35.79296875 11.6953125 C-28.68611577 10.33235439 -22.98865624 6.78478553 -16.77929688 3.21875 C-10.95559918 -0.00668257 -6.7225683 -1.82469711 0 0 Z " fill="#8D6D62" transform="translate(267.1875,25.59375)"/>
<path d="M0 0 C2.89755781 2.89755781 2.93137363 3.42225303 2.9375 7.3125 C2.8413797 8.73141872 2.72551505 10.14970294 2.5625 11.5625 C3.366875 11.541875 4.17125 11.52125 5 11.5 C7.5625 11.5625 7.5625 11.5625 8.5625 12.5625 C8.09267945 18.90507749 8.09267945 18.90507749 6 21.5 C5.525625 21.850625 5.05125 22.20125 4.5625 22.5625 C5.553255 24.22891006 5.553255 24.22891006 7.5625 25.5625 C14.15889938 26.34512365 17.85056459 24.82646309 23.5625 21.5625 C24.0575 28.9875 24.0575 28.9875 24.5625 36.5625 C17.13264838 41.54832148 9.92753954 45.39458799 1.5625 48.5625 C-0.81501786 46.18498214 -0.95439561 44.79567835 -1.6875 41.5625 C-2.37963234 38.86363997 -2.37963234 38.86363997 -3.4375 36.5625 C-6.35416667 35.3125 -6.35416667 35.3125 -9.4375 34.5625 C-12.90918952 29.49052692 -14.45043714 24.65987726 -15.6875 18.6875 C-15.86023438 17.93597656 -16.03296875 17.18445313 -16.2109375 16.41015625 C-17.37204805 11.03771616 -17.59039093 6.05565287 -17.4375 0.5625 C-11.24832705 -1.45845443 -6.26035705 -2.61796749 0 0 Z " fill="#F4B19A" transform="translate(253.4375,53.4375)"/>
<path d="M0 0 C4.6515498 6.9773247 3.10193349 16.93592821 3 25 C-0.18329209 26.8211742 -2.9410318 27.40242492 -6.5625 27.875 C-11.81679822 28.67942476 -16.39675542 30.14076324 -21.33984375 32.046875 C-28.72562859 34.69317676 -37.38741724 36.53752759 -45 34 C-45.9375 31.375 -45.9375 31.375 -46 28 C-43.19608222 24.41379794 -39.52334387 22.26167193 -35.5 20.25 C-30.51818542 17.60727669 -27.93456328 12.63800371 -25 8 C-24.34 7.01 -23.68 6.02 -23 5 C-20.83319364 5.46431565 -19.07950309 5.95549827 -17.13671875 7.04296875 C-13.42476255 8.70554511 -9.8406844 8.08169008 -6 7 C-3.29447612 4.80176185 -1.55221667 3.10443333 0 0 Z " fill="#253137" transform="translate(300,452)"/>
<path d="M0 0 C4.23048962 4.23048962 3.22063358 10.02335531 3.25 15.625 C3.270625 16.58535156 3.29125 17.54570313 3.3125 18.53515625 C3.35084095 25.59947669 2.99984099 32.72096588 -1.97265625 38.15625 C-2.66230469 38.5996875 -3.35195313 39.043125 -4.0625 39.5 C-4.75472656 39.9640625 -5.44695312 40.428125 -6.16015625 40.90625 C-10.03302972 43.20859516 -13.53918812 43.6788192 -18 43 C-20.5 41 -20.5 41 -22 39 C-21.34 38.278125 -20.68 37.55625 -20 36.8125 C-17.8464147 33.78402067 -17.58823246 32.60296594 -18 29 C-19.65 28.67 -21.3 28.34 -23 28 C-23.04898438 27.39671875 -23.09796875 26.7934375 -23.1484375 26.171875 C-23.22320312 25.37265625 -23.29796875 24.5734375 -23.375 23.75 C-23.44460937 22.96109375 -23.51421875 22.1721875 -23.5859375 21.359375 C-24.01507113 18.914123 -24.78600638 17.15163097 -26 15 C-18.33134624 8.00863475 -9.37968442 4.14601435 0 0 Z " fill="#5E4138" transform="translate(279,37)"/>
<path d="M0 0 C0.763125 0.474375 1.52625 0.94875 2.3125 1.4375 C6.85610826 3.6931155 11.97317349 4.32476688 17 4 C20.27790035 2.60162053 20.27790035 2.60162053 23 1 C23.10792837 3.60527105 23.18724878 6.20608311 23.25 8.8125 C23.30027344 9.91948242 23.30027344 9.91948242 23.3515625 11.04882812 C23.45006985 16.49135941 23.45006985 16.49135941 21.2890625 18.93359375 C18.88623428 20.05300007 16.71707075 20.69849558 14.125 21.25 C9.38952406 22.43861078 5.24345828 24.24020594 0.9375 26.5 C-6.05371938 30.1501985 -12.95294064 33.45393668 -21 33 C-22 32 -22 32 -22.375 28.9375 C-21.79837235 22.88290971 -18.59148963 17.98550623 -14 14 C-12.3603125 13.443125 -12.3603125 13.443125 -10.6875 12.875 C-5.15192448 10.70072936 -2.54529813 5.09059626 0 0 Z " fill="#253137" transform="translate(222,431)"/>
<path d="M0 0 C0.33 0 0.66 0 1 0 C1.28996402 5.68823031 1.57453118 11.37669826 1.85449219 17.06542969 C1.95008053 18.99323484 2.04704316 20.92097243 2.14550781 22.84863281 C2.61732704 32.10206713 3.08608676 41.35879243 3.1875 50.625 C3.20167969 51.77226562 3.21585938 52.91953125 3.23046875 54.1015625 C3.0431139 57.27071747 2.62003078 59.99871218 2.00048828 63.08886719 C0.33627034 72.62603781 0.75428551 82.30587693 0.8046875 91.953125 C0.80842404 94.06589625 0.81126798 96.17866926 0.81326294 98.29144287 C0.8208489 103.81513367 0.84045341 109.33871699 0.8626709 114.86236572 C0.8832386 120.51369778 0.89228788 126.16504744 0.90234375 131.81640625 C0.92370464 142.87765103 0.95777882 153.93881653 1 165 C0.34 165 -0.32 165 -1 165 C-1.02710123 162.4374282 -1.04688771 159.87514635 -1.0625 157.3125 C-1.07087891 156.59126953 -1.07925781 155.87003906 -1.08789062 155.12695312 C-1.10543632 151.28444618 -0.93524221 147.73360474 0 144 C-2.475 144.99 -2.475 144.99 -5 146 C-4.54177532 142.53058454 -4.10868317 139.32604951 -3 136 C-3.33 135.67 -3.66 135.34 -4 135 C-4.11019212 132.9846359 -4.14914746 130.96536018 -4.16113281 128.94702148 C-4.1753553 126.98480148 -4.1753553 126.98480148 -4.18986511 124.98294067 C-4.19469592 123.52899301 -4.19910309 122.07504388 -4.203125 120.62109375 C-4.20995341 119.11571215 -4.21685691 117.61033088 -4.22383118 116.10494995 C-4.24311137 111.21579913 -4.24725132 106.32668352 -4.25 101.4375 C-4.2515465 100.19756601 -4.2515465 100.19756601 -4.25312424 98.93258286 C-4.28570469 71.25787137 -3.44265582 43.8038045 -1.17755127 16.21051025 C-0.74378465 10.81012335 -0.37701209 5.40458907 0 0 Z " fill="#059CE5" transform="translate(218,105)"/>
<path d="M0 0 C2 3 2 3 2 6 C0.68 6.33 -0.64 6.66 -2 7 C-1.98667633 7.70362671 -1.97335266 8.40725342 -1.95962524 9.13220215 C-1.83826027 15.83760019 -1.74748361 22.5426818 -1.68912697 29.24893951 C-1.65811349 32.6949281 -1.61621246 36.13999243 -1.54736328 39.58544922 C-0.97679561 68.87734979 -0.97679561 68.87734979 -8 82 C-10.74321937 79.25678063 -10.9528071 76.30834272 -11.625 72.625 C-11.7590625 71.97144531 -11.893125 71.31789063 -12.03125 70.64453125 C-14.36883905 58.16943867 -12.30385775 46.35871362 -10.0625 34.0625 C-9.78097591 32.47347092 -9.50037115 30.88427867 -9.22070312 29.29492188 C-7.3133032 18.5081659 -7.3133032 18.5081659 -6.41796875 14.19824219 C-5.90373142 11.49369024 -5.90436423 8.93776888 -5.9375 6.1875 C-5.94652344 5.21167969 -5.95554688 4.23585938 -5.96484375 3.23046875 C-5.97644531 2.49441406 -5.98804688 1.75835937 -6 1 C-4 0 -4 0 0 0 Z " fill="#577584" transform="translate(255,103)"/>
<path d="M0 0 C3.54859232 0.67623978 6.76013192 1.54757498 10.125 2.875 C11.39730469 3.36613281 11.39730469 3.36613281 12.6953125 3.8671875 C16.48980253 5.73227582 16.48980253 5.73227582 18 8 C18.36328125 11.36328125 18.36328125 11.36328125 18.3125 15.3125 C18.30863281 16.60800781 18.30476563 17.90351563 18.30078125 19.23828125 C17.80338795 25.45892737 16.44482744 29.10000014 11.875 33.375 C11.15054687 34.06335938 10.42609375 34.75171875 9.6796875 35.4609375 C9.12539063 35.96882813 8.57109375 36.47671875 8 37 C0.82197615 28.79654417 -0.58525936 22.27987792 -0.25 11.5 C-0.23195313 10.39140625 -0.21390625 9.2828125 -0.1953125 8.140625 C-0.1485115 5.42616704 -0.08296375 2.71355284 0 0 Z " fill="#049BE5" transform="translate(264,144)"/>
<path d="M0 0 C2.31 0 4.62 0 7 0 C7.71614583 1.953125 8.43229167 3.90625 9.1484375 5.859375 C9.98999011 7.97483752 10.95326494 9.97934624 12 12 C18.50497863 9.4522167 24.62078651 6.96635374 30.28125 2.8203125 C32 2 32 2 34.140625 2.20703125 C36 3 36 3 37.25 5.5625 C37.4975 6.366875 37.745 7.17125 38 8 C32.65720849 14.90424114 26.27902189 20.22831949 19 25 C18.34 25 17.68 25 17 25 C16.16151196 23.54462432 15.32936066 22.08559627 14.5 20.625 C14.0359375 19.81289062 13.571875 19.00078125 13.09375 18.1640625 C12 16 12 16 12 14 C11.31292969 14.27714844 10.62585938 14.55429688 9.91796875 14.83984375 C9.01691406 15.20207031 8.11585938 15.56429687 7.1875 15.9375 C6.29417969 16.29714844 5.40085938 16.65679687 4.48046875 17.02734375 C2.6729091 17.73613486 0.84192591 18.3860247 -1 19 C-1.02690104 16.20826945 -1.04679053 13.41679652 -1.0625 10.625 C-1.07087891 9.8309375 -1.07925781 9.036875 -1.08789062 8.21875 C-1.11328125 2.2265625 -1.11328125 2.2265625 0 0 Z " fill="#089BE3" transform="translate(243,89)"/>
<path d="M0 0 C1.58467728 0.28427417 3.1677057 0.57774818 4.75 0.875 C6.07257813 1.11863281 6.07257813 1.11863281 7.421875 1.3671875 C9.86947744 1.96796264 11.80599857 2.77997117 14 4 C14.78428038 16.59828167 15.19150142 25.71882985 7 36 C0.79840892 29.79840892 -0.28086601 20.92704482 -0.34716797 12.5793457 C-0.29685952 8.38284168 -0.19323954 4.19240624 0 0 Z " fill="#059CE5" transform="translate(224,130)"/>
<path d="M0 0 C5.61562081 2.96674307 5.61562081 2.96674307 6.7890625 6.12109375 C7.08167334 10.1146899 6.12051531 13.48104649 5.0625 17.3125 C4.86720703 18.05306641 4.67191406 18.79363281 4.47070312 19.55664062 C3.9900719 21.37366113 3.49633486 23.18720614 3 25 C2.67 25 2.34 25 2 25 C1.67 22.36 1.34 19.72 1 17 C-0.65 20.96 -2.3 24.92 -4 29 C-4.66 29 -5.32 29 -6 29 C-5.01 24.71 -4.02 20.42 -3 16 C-3.55429687 16.92683594 -4.10859375 17.85367187 -4.6796875 18.80859375 C-5.41119226 20.01839009 -6.14297768 21.22801676 -6.875 22.4375 C-7.23980469 23.04916016 -7.60460937 23.66082031 -7.98046875 24.29101562 C-10.7734375 28.88671875 -10.7734375 28.88671875 -13 30 C-12.37954537 25.76677156 -10.89476441 22.47709705 -8.9375 18.6875 C-8.38964844 17.61886719 -7.84179688 16.55023438 -7.27734375 15.44921875 C-6.85582031 14.64097656 -6.43429687 13.83273437 -6 13 C-8.7609256 15.7609256 -10.83434385 19.35472019 -13.08984375 22.53125 C-15 25 -15 25 -17 26 C-16.40440894 21.13127946 -14.27522585 17.40671159 -11.9375 13.1875 C-11.56044922 12.49462891 -11.18339844 11.80175781 -10.79492188 11.08789062 C-9.86916148 9.38871015 -8.93537688 7.69390575 -8 6 C-9.98 6.33 -11.96 6.66 -14 7 C-7.09251101 -2.1277533 -7.09251101 -2.1277533 0 0 Z " fill="#EEAF9A" transform="translate(279,249)"/>
<path d="M0 0 C0.33 4.95 0.66 9.9 1 15 C-6.42985162 19.98582148 -13.63496046 23.83208799 -22 27 C-24.46301423 24.53698577 -24.76766521 22.72639964 -25.625 19.375 C-26.01558594 17.87066406 -26.01558594 17.87066406 -26.4140625 16.3359375 C-26.70410156 15.17964844 -26.70410156 15.17964844 -27 14 C-26.11957031 13.67386719 -25.23914063 13.34773438 -24.33203125 13.01171875 C-22.58986328 12.35623047 -22.58986328 12.35623047 -20.8125 11.6875 C-19.66394531 11.25824219 -18.51539063 10.82898438 -17.33203125 10.38671875 C-13.67932074 8.86654029 -10.31871001 7.31871001 -7.5 4.5 C-5.63794056 2.63794056 -2.76048918 0 0 0 Z " fill="#F39677" transform="translate(277,75)"/>
<path d="M0 0 C3.5542299 0.64622362 5.59136218 1.42940796 8.4375 3.625 C10.88355705 7.29408557 11.27696402 10.36118769 10.4375 14.625 C7.51561368 18.23891202 5.32124526 20.36812565 0.6875 21 C-3.8378858 20.4778401 -5.3296103 18.78270622 -8.5625 15.625 C-10.04146861 12.66706277 -9.9980582 10.92279776 -9.5625 7.625 C-7.129115 3.28836031 -4.97158731 0.8722083 0 0 Z " fill="#0D9DDE" transform="translate(297.5625,121.375)"/>
<path d="M0 0 C3.5542299 0.64622362 5.59136218 1.42940796 8.4375 3.625 C10.88355705 7.29408557 11.27696402 10.36118769 10.4375 14.625 C7.51561368 18.23891202 5.32124526 20.36812565 0.6875 21 C-3.8378858 20.4778401 -5.3296103 18.78270622 -8.5625 15.625 C-10.04146861 12.66706277 -9.9980582 10.92279776 -9.5625 7.625 C-7.129115 3.28836031 -4.97158731 0.8722083 0 0 Z M-4.3125 4.1875 C-6.88399291 6.51067476 -6.88399291 6.51067476 -7.0625 10.125 C-6.50408486 14.56541145 -6.50408486 14.56541145 -3.5625 17.625 C-0.38781023 18.07852711 1.42734447 18.32011624 4.4375 17.625 C7.16425163 15.65428108 7.16425163 15.65428108 8.4375 12.625 C8.68427006 9.52206707 8.68427006 9.52206707 7.4375 6.625 C5.23261741 4.16083866 5.23261741 4.16083866 2.4375 2.625 C-1.5100115 2.29566039 -1.5100115 2.29566039 -4.3125 4.1875 Z " fill="#EAD05B" transform="translate(297.5625,121.375)"/>
<path d="M0 0 C2.82726984 2.82726984 2.28971809 4.96775124 2.32226562 8.83203125 C2.31904297 9.71246094 2.31582031 10.59289062 2.3125 11.5 C2.32861328 12.38042969 2.34472656 13.26085937 2.36132812 14.16796875 C2.36229492 15.43060547 2.36229492 15.43060547 2.36328125 16.71875 C2.36775269 17.87793945 2.36775269 17.87793945 2.37231445 19.06054688 C2.24945068 19.70056641 2.12658691 20.34058594 2 21 C-1.4352048 23.29013653 -2.985331 23.17842973 -7 23 C-4.71143755 15.3194457 -2.36446331 7.65750046 0 0 Z " fill="#4CC0F4" transform="translate(302,219)"/>
<path d="M0 0 C5.2762722 -0.48535442 7.70136313 0.696702 11.875 3.875 C12.84179688 4.59429687 13.80859375 5.31359375 14.8046875 6.0546875 C15.52914063 6.69664063 16.25359375 7.33859375 17 8 C17 8.66 17 9.32 17 10 C13.57520661 12.07933884 13.57520661 12.07933884 11.1875 11.75 C8.45357058 10.81265277 6.20660249 9.4567147 3.75 7.9375 C2.85796875 7.38964844 1.9659375 6.84179688 1.046875 6.27734375 C0.03367187 5.64505859 0.03367187 5.64505859 -1 5 C-0.67 3.35 -0.34 1.7 0 0 Z " fill="#557786" transform="translate(279,99)"/>
<path d="M0 0 C0.33 0 0.66 0 1 0 C1 10.56 1 21.12 1 32 C0.34 32 -0.32 32 -1 32 C-1.02710123 29.4374282 -1.04688771 26.87514635 -1.0625 24.3125 C-1.07087891 23.59126953 -1.07925781 22.87003906 -1.08789062 22.12695312 C-1.10543632 18.28444618 -0.93524221 14.73360474 0 11 C-1.65 11.66 -3.3 12.32 -5 13 C-4.56615128 7.57689095 -3.35497322 4.29855944 0 0 Z " fill="#F5B19A" transform="translate(218,238)"/>
<path d="M0 0 C1.93816735 0.1141866 3.87555099 0.24173423 5.8125 0.375 C6.89144531 0.44460937 7.97039062 0.51421875 9.08203125 0.5859375 C12 1 12 1 15 3 C14.67 3.99 14.34 4.98 14 6 C8.21101581 6.20674944 3.57067277 5.59162079 -2 4 C-1.34 2.68 -0.68 1.36 0 0 Z " fill="#567B8C" transform="translate(228,86)"/>
<path d="M0 0 C0.99 0.33 1.98 0.66 3 1 C3.2475 2.134375 3.495 3.26875 3.75 4.4375 C4.36875 6.2009375 4.36875 6.2009375 5 8 C8.50104532 9.31001496 8.50104532 9.31001496 12 10 C12.33 10.99 12.66 11.98 13 13 C10.08083462 13.34751969 7.86804524 13.53280018 5.30078125 11.95703125 C3.11660035 10.15362765 1.27793808 8.55587616 0 6 C-0.039992 4.00039988 -0.04346799 1.99952758 0 0 Z " fill="#CFCA6B" transform="translate(288,129)"/>
<path d="M0 0 C-1 2 -1 2 -4.375 3.1875 C-6.69799841 4.10334332 -7.76205568 4.63114514 -9.12890625 6.75 C-9.84443447 8.46450239 -10.43257026 10.23095433 -11 12 C-11.33 12 -11.66 12 -12 12 C-12.4206933 7.70892835 -12.45543836 5.64865463 -9.9375 2.0625 C-6.35134537 -0.45543836 -4.29107165 -0.4206933 0 0 Z " fill="#E4CE5E" transform="translate(301,122)"/>
<path d="M0 0 C0.66 0 1.32 0 2 0 C2 0.66 2 1.32 2 2 C2.66 2.33 3.32 2.66 4 3 C1.525 8.94 1.525 8.94 -1 15 C-1.66 15 -2.32 15 -3 15 C-2.7834375 14.25234375 -2.566875 13.5046875 -2.34375 12.734375 C-2.0653125 11.74953125 -1.786875 10.7646875 -1.5 9.75 C-1.2215625 8.77546875 -0.943125 7.8009375 -0.65625 6.796875 C0.15228866 3.82976587 0.15228866 3.82976587 0 0 Z " fill="#D8A696" transform="translate(276,263)"/>
<path d="M0 0 C0.33 0.99 0.66 1.98 1 3 C-0.21484375 5.26171875 -0.21484375 5.26171875 -1.9375 7.6875 C-2.50339844 8.49574219 -3.06929688 9.30398438 -3.65234375 10.13671875 C-4.09707031 10.75160156 -4.54179687 11.36648438 -5 12 C-6 9 -6 9 -5.29296875 6.9921875 C-4.92816406 6.29351562 -4.56335938 5.59484375 -4.1875 4.875 C-3.83042969 4.17117188 -3.47335937 3.46734375 -3.10546875 2.7421875 C-2 1 -2 1 0 0 Z " fill="#DCA796" transform="translate(272,267)"/>
<path d="M0 0 C2.0625 0.4375 2.0625 0.4375 4 1 C3.67 2.65 3.34 4.3 3 6 C1.68 5.67 0.36 5.34 -1 5 C-1 1 -1 1 0 0 Z " fill="#E5CF5E" transform="translate(297,129)"/>
<path d="M0 0 C3.24208567 0.35049575 4.61527704 0.56221181 6.8125 3.0625 C7.204375 3.701875 7.59625 4.34125 8 5 C7.67 5.66 7.34 6.32 7 7 C5 7 5 7 2.375 4.625 C0 2 0 2 0 0 Z " fill="#D4CB67" transform="translate(300,123)"/>
<path d="M0 0 C0.99 0.33 1.98 0.66 3 1 C3.33 3.31 3.66 5.62 4 8 C3.01 8 2.02 8 1 8 C-0.35439668 5.29120665 -0.06501451 2.99066732 0 0 Z " fill="#C0C674" transform="translate(288,129)"/>
<path d="M0 0 C0.66 0.33 1.32 0.66 2 1 C0.68 3.64 -0.64 6.28 -2 9 C-2.66 8.67 -3.32 8.34 -4 8 C-2.87548273 5.0280615 -1.77706209 2.66559313 0 0 Z " fill="#707C84" transform="translate(272,261)"/>
<path d="M0 0 C1.39195915 4.17587745 -0.17676781 6.13474776 -2 10 C-2.33 10 -2.66 10 -3 10 C-3.36923077 3.47692308 -3.36923077 3.47692308 -1.5 1.0625 C-1.005 0.711875 -0.51 0.36125 0 0 Z " fill="#F5D254" transform="translate(292,124)"/>
</svg>
