<?xml version="1.0" encoding="UTF-8"?>
<svg version="1.1" xmlns="http://www.w3.org/2000/svg" width="512" height="512">
<path d="M0 0 C3.57348391 2.85285252 7.00638296 5.86062032 10.4296875 8.890625 C13.84787161 11.90370482 17.39329818 14.71738438 21 17.5 C26.4597252 21.72920302 31.73198902 26.13550791 36.9543457 30.65356445 C42.21946443 35.20667952 47.59301315 39.61639218 53 44 C60.86015321 50.41446815 68.69447155 56.86003656 76.5234375 63.3125 C79.48466442 65.75283017 82.44829105 68.19019518 85.4140625 70.625 C91.95792195 76.00012982 98.4872528 81.38767707 104.9375 86.875 C109.28635274 90.5741605 113.69500943 94.18245094 118.16796875 97.73046875 C124.08569379 102.47281116 129.91408867 107.32561957 135.76220703 112.15332031 C138.63689463 114.52558052 141.51396207 116.89494137 144.39135742 119.26391602 C145.79924161 120.42305281 147.20695598 121.5823959 148.61450195 122.74194336 C152.20429837 125.69919475 155.7958784 128.65423601 159.390625 131.60546875 C166.47897517 137.42823972 173.55204646 143.26376251 180.52026367 149.23022461 C183.78844163 152.01792581 187.14475003 154.64932145 190.5625 157.25 C195.44506091 161.1180028 199.22128278 165.57558291 200 172 C200.3936483 179.59832758 198.96147531 186.73786013 197.5625 194.1875 C197.33240234 195.44498047 197.10230469 196.70246094 196.86523438 197.99804688 C195.12782626 207.46062614 195.12782626 207.46062614 194.35180664 210.73510742 C193.84542363 213.99514569 195.08328318 215.42503963 196.875 218.125 C206.58462265 232.98298071 199.39010747 255.09160149 196.52001953 271.55908203 C195.87235157 275.27541618 195.24831744 278.99526881 194.63119125 282.71678162 C194.14762352 285.61815808 193.65232984 288.51743951 193.15351105 291.41622925 C192.91890457 292.78699959 192.6876636 294.15835092 192.46007538 295.53030396 C190.5446866 307.00641769 188.0467968 317.14242685 179 325 C168.51675057 331.34573208 156.77034377 335.23884025 145.29449463 339.36129761 C140.92895762 340.92970141 136.57032808 342.51691249 132.21115112 344.10289001 C129.9873051 344.91180818 127.76312266 345.71980211 125.53860474 346.52687073 C115.70805558 350.09542592 105.91141853 353.74995549 96.125 357.4375 C92.9090599 358.64768272 89.69285017 359.8571476 86.4765625 361.06640625 C85.6582193 361.37416992 84.8398761 361.68193359 83.99673462 361.99902344 C70.41254484 367.10416783 56.80819156 372.15553009 43.20751953 377.21655273 C42.19283096 377.59426315 41.1781424 377.97197357 40.13270569 378.36112976 C38.11840573 379.11082465 36.1039523 379.8601073 34.08934021 380.60896301 C28.85175681 382.55764857 23.61966394 384.51977195 18.39428711 386.50097656 C17.31203857 386.91026398 16.22979004 387.31955139 15.11474609 387.74124146 C13.05542365 388.52069816 10.99716219 389.30296619 8.94018555 390.08859253 C2.04265856 392.69639954 -4.69846314 394.82516625 -12 396 C-13.14662109 396.19142578 -13.14662109 396.19142578 -14.31640625 396.38671875 C-38.19092486 399.67533759 -63.26845476 393.71817026 -82.6640625 379.35546875 C-87.02138828 376.00968584 -91.25169805 372.51301845 -95.40551758 368.91821289 C-102.23819997 363.11783746 -109.34877853 358.62928611 -117.1875 354.3125 C-118.42453323 353.62039939 -119.66084839 352.92701396 -120.89648438 352.23242188 C-122.78119118 351.17302443 -124.66621162 350.11426344 -126.55343628 349.05935669 C-132.41376406 345.7822332 -138.21096213 342.40132231 -144 339 C-152.63414521 333.94229035 -161.3060781 328.95392029 -170 324 C-179.72124506 318.46014067 -189.40894868 312.86625068 -199.06689453 307.21655273 C-209.59084625 301.06233258 -220.15380137 294.97630004 -230.71777344 288.89111328 C-233.98174327 287.01051894 -237.24494189 285.12859454 -240.5078125 283.24609375 C-241.5807959 282.62726318 -242.6537793 282.00843262 -243.75927734 281.37084961 C-245.90899699 280.12982944 -248.05777093 278.88716957 -250.20556641 277.64282227 C-255.24863845 274.72393473 -260.29942877 271.82255283 -265.38757324 268.98303223 C-267.1865989 267.97798253 -268.98239801 266.96739349 -270.77734375 265.95507812 C-273.02893356 264.68745079 -275.28644473 263.43026204 -277.55078125 262.18554688 C-284.08741725 258.48751324 -289.53843236 254.92313528 -293 248 C-293.01146032 244.92205816 -292.96641492 241.86124812 -292.89453125 238.78515625 C-292.87046062 235.88403809 -292.85698874 232.98297218 -292.84350586 230.08178711 C-292.82299765 228.08473967 -292.78294385 226.08778793 -292.72241211 224.09155273 C-291.93476405 211.96735432 -291.93476405 211.96735432 -296.65698242 201.32568359 C-298.72304995 199.31445915 -300.79128278 197.76684179 -303.15429688 196.07006836 C-307.91054096 192.61020275 -309.17824883 188.46525352 -311 183 C-312.55854851 167.14352165 -308.89222093 151.29106002 -306.13397217 135.74761963 C-305.62044972 132.82525164 -305.12581448 129.89981459 -304.63119125 126.97419834 C-304.14701451 124.12347561 -303.65191467 121.27473262 -303.15351105 118.42646599 C-302.80696446 116.43683303 -302.46851482 114.44579508 -302.13031006 112.45472717 C-300.30268897 102.26894911 -298.13160793 92.05440716 -290 85 C-283.52929823 80.71175918 -276.36917195 78.04478816 -269.125 75.375 C-267.87362996 74.90768114 -266.62250141 74.43971526 -265.37158203 73.97119141 C-262.52340135 72.90615632 -259.67345803 71.84600809 -256.82226562 70.7890625 C-251.581783 68.84617539 -246.3455725 66.89190046 -241.109375 64.9375 C-233.77164323 62.19965606 -226.43245791 59.46575618 -219.09190369 56.73548889 C-208.06166872 52.63273358 -197.03523582 48.52001893 -186.01268768 44.39666748 C-181.56019177 42.7312608 -177.10729803 41.06691789 -172.65444946 39.40245438 C-169.04744827 38.05402514 -165.44072349 36.70486664 -161.83465576 35.35394287 C-152.56425075 31.88141664 -143.28817956 28.42472764 -134 25 C-133.34911156 24.75986427 -132.69822311 24.51972855 -132.02761078 24.27231598 C-127.56374925 22.62725552 -123.09392177 20.99943098 -118.62109375 19.37890625 C-117.49284683 18.96462875 -116.36459991 18.55035126 -115.2021637 18.1235199 C-109.4772266 16.06541994 -103.99317547 14.4258602 -97.96351624 13.55210876 C-95.18489037 12.77080446 -94.21109074 10.8936703 -92.5859375 8.625 C-88.56257962 4.50254463 -82.28973388 3.00229402 -77 1 C-75.45070801 0.40251953 -75.45070801 0.40251953 -73.87011719 -0.20703125 C-70.33489808 -1.56773437 -66.79382994 -2.91189125 -63.25 -4.25 C-62.10192871 -4.68666992 -60.95385742 -5.12333984 -59.77099609 -5.57324219 C-39.12553739 -13.2373804 -18.37852116 -13.37494472 0 0 Z " fill="#8E7BD3" transform="translate(311,63)"/>
<path d="M0 0 C0.33 0 0.66 0 1 0 C1.07476562 0.82242188 1.14953125 1.64484375 1.2265625 2.4921875 C3.10085629 18.40530928 11.11676477 25.47658004 23 35 C24.7713402 36.45771764 26.54221374 37.91600261 28.3125 39.375 C29.62541016 40.44234375 29.62541016 40.44234375 30.96484375 41.53125 C40.02236325 48.89849881 49.04517371 56.30890982 57.9375 63.875 C62.28134581 67.56996984 66.68511905 71.17402536 71.15234375 74.71875 C80.74255328 82.40144186 90.1812645 90.27326897 99.53833008 98.23754883 C103.4317456 101.54281661 107.40347641 104.73522157 111.40625 107.90625 C115.05401433 110.85083084 118.6145398 113.89451533 122.18359375 116.93359375 C125.41424312 119.67774533 128.67698054 122.36747809 132 125 C135.9014198 128.09073517 139.71091352 131.27378506 143.5 134.5 C147.99499713 138.32515697 152.54337736 142.06217413 157.16796875 145.73046875 C163.08000444 150.46825183 168.90232455 155.31685364 174.74462891 160.14013672 C176.96674748 161.97257873 179.19180351 163.80138335 181.41796875 165.62890625 C188.50177832 171.44655833 195.55385596 177.29487265 202.53564453 183.23461914 C206.48150713 186.58305796 210.49289463 189.83663386 214.5546875 193.04296875 C216.24603864 194.39659003 217.91685652 195.77612323 219.5703125 197.17578125 C238.41100571 213.07776575 258.07215838 222.1774275 283.0625 222.3125 C284.043396 222.31813965 285.02429199 222.3237793 286.03491211 222.32958984 C301.57951831 222.17715375 314.60640926 217.96154743 329 212.5625 C330.98174636 211.82921294 332.96384679 211.09688208 334.94628906 210.36547852 C340.63743 208.26105672 346.32004199 206.13439416 352 204 C352.730979 203.72571167 353.46195801 203.45142334 354.21508789 203.16882324 C360.69569576 200.73633607 367.16702148 198.28016667 373.6328125 195.80859375 C382.28361877 192.50372469 390.95366972 189.25056738 399.625 186 C400.4438266 185.69288086 401.2626532 185.38576172 402.10629272 185.06933594 C412.85495873 181.03843903 423.61060266 177.02656421 434.37109375 173.02734375 C435.50804687 172.6045816 436.645 172.18181946 437.81640625 171.74624634 C443.40294344 169.66898322 448.990122 167.59348474 454.57861328 165.52148438 C460.39184216 163.36373998 466.19854007 161.18918007 472 159 C473.18919037 158.55326431 473.18919037 158.55326431 474.40240479 158.09750366 C476.49508317 157.30710314 478.58237905 156.50420045 480.66796875 155.6953125 C481.78324951 155.26621582 482.89853027 154.83711914 484.04760742 154.39501953 C490.67723098 151.26249088 495.57832324 146.44432415 499 140 C499.75585757 137.808409 499.75585757 137.808409 500.1875 135.6875 C500.5896875 133.8621875 500.5896875 133.8621875 501 132 C502.25406619 135.65197079 501.79301308 138.50563721 501.16723633 142.27807617 C500.85614677 144.18607246 500.85614677 144.18607246 500.53877258 146.13261414 C500.30372363 147.51948919 500.06812935 148.90627191 499.83203125 150.29296875 C499.59319894 151.72294664 499.35473521 153.15298614 499.11662292 154.58308411 C498.61511529 157.58247739 498.1073249 160.58072692 497.59545898 163.57836914 C496.94404966 167.39775728 496.31094663 171.21991659 495.68300343 175.04322338 C495.19471744 178.0002936 494.69515077 180.95537795 494.19244957 183.91002846 C493.95469811 185.31703147 493.72067807 186.72467078 493.49064064 188.13295555 C491.58164632 199.76724725 489.17516641 210.03093174 480 218 C469.51675057 224.34573208 457.77034377 228.23884025 446.29449463 232.36129761 C441.92895762 233.92970141 437.57032808 235.51691249 433.21115112 237.10289001 C430.9873051 237.91180818 428.76312266 238.71980211 426.53860474 239.52687073 C416.70805558 243.09542592 406.91141853 246.74995549 397.125 250.4375 C393.9090599 251.64768272 390.69285017 252.8571476 387.4765625 254.06640625 C386.6582193 254.37416992 385.8398761 254.68193359 384.99673462 254.99902344 C371.41254484 260.10416783 357.80819156 265.15553009 344.20751953 270.21655273 C343.19283096 270.59426315 342.1781424 270.97197357 341.13270569 271.36112976 C339.11840573 272.11082465 337.1039523 272.8601073 335.08934021 273.60896301 C329.85175681 275.55764857 324.61966394 277.51977195 319.39428711 279.50097656 C318.31203857 279.91026398 317.22979004 280.31955139 316.11474609 280.74124146 C314.05542365 281.52069816 311.99716219 282.30296619 309.94018555 283.08859253 C303.04265856 285.69639954 296.30153686 287.82516625 289 289 C287.85337891 289.19142578 287.85337891 289.19142578 286.68359375 289.38671875 C262.80907514 292.67533759 237.73154524 286.71817026 218.3359375 272.35546875 C213.97861172 269.00968584 209.74830195 265.51301845 205.59448242 261.91821289 C198.76180003 256.11783746 191.65122147 251.62928611 183.8125 247.3125 C182.57546677 246.62039939 181.33915161 245.92701396 180.10351562 245.23242188 C178.21880882 244.17302443 176.33378838 243.11426344 174.44656372 242.05935669 C168.58623594 238.7822332 162.78903787 235.40132231 157 232 C148.36585479 226.94229035 139.6939219 221.95392029 131 217 C121.27875494 211.46014067 111.59105132 205.86625068 101.93310547 200.21655273 C91.40915375 194.06233258 80.84619863 187.97630004 70.28222656 181.89111328 C67.01825673 180.01051894 63.75505811 178.12859454 60.4921875 176.24609375 C59.4192041 175.62726318 58.3462207 175.00843262 57.24072266 174.37084961 C55.09100301 173.12982944 52.94222907 171.88716957 50.79443359 170.64282227 C45.75136155 167.72393473 40.70057123 164.82255283 35.61242676 161.98303223 C33.8134011 160.97798253 32.01760199 159.96739349 30.22265625 158.95507812 C27.97106644 157.68745079 25.71355527 156.43026204 23.44921875 155.18554688 C16.91258275 151.48751324 11.46156764 147.92313528 8 141 C7.98853968 137.92205816 8.03358508 134.86124812 8.10546875 131.78515625 C8.12953938 128.88403809 8.14301126 125.98297218 8.15649414 123.08178711 C8.17700235 121.08473967 8.21705615 119.08778793 8.27758789 117.09155273 C9.06523595 104.96735432 9.06523595 104.96735432 4.34301758 94.32568359 C2.27695005 92.31445915 0.20871722 90.76684179 -2.15429688 89.07006836 C-6.91054096 85.61020275 -8.17824883 81.46525352 -10 76 C-11.42960584 60.6432251 -8.05900296 45.52623964 -5.36437988 30.48254395 C-4.75059292 27.03772887 -4.15342935 23.59003402 -3.5546875 20.14257812 C-2.38566356 13.42554652 -1.19881556 6.71177705 0 0 Z " fill="#433969" transform="translate(10,170)"/>
<path d="M0 0 C3.57348391 2.85285252 7.00638296 5.86062032 10.4296875 8.890625 C13.84787161 11.90370482 17.39329818 14.71738438 21 17.5 C26.4597252 21.72920302 31.73198902 26.13550791 36.9543457 30.65356445 C42.21946443 35.20667952 47.59301315 39.61639218 53 44 C60.86015321 50.41446815 68.69447155 56.86003656 76.5234375 63.3125 C79.48466442 65.75283017 82.44829105 68.19019518 85.4140625 70.625 C91.95792195 76.00012982 98.4872528 81.38767707 104.9375 86.875 C109.28635274 90.5741605 113.69500943 94.18245094 118.16796875 97.73046875 C124.08569379 102.47281116 129.91408867 107.32561957 135.76220703 112.15332031 C138.63689463 114.52558052 141.51396207 116.89494137 144.39135742 119.26391602 C145.79924161 120.42305281 147.20695598 121.5823959 148.61450195 122.74194336 C152.20429837 125.69919475 155.7958784 128.65423601 159.390625 131.60546875 C166.47897517 137.42823972 173.55204646 143.26376251 180.52026367 149.23022461 C183.78844163 152.01792581 187.14475003 154.64932145 190.5625 157.25 C195.45664776 161.12718199 199.19568876 165.56551008 200 172 C200.03888349 174.33300933 200.0448635 176.66709801 200 179 C199.34 179 198.68 179 198 179 C197.938125 180.03125 197.87625 181.0625 197.8125 182.125 C196.88701965 186.53882934 195.36885752 189.11217877 192 192 C185.06794067 195.90406777 177.60196873 198.55160845 170.1640625 201.31884766 C168.00269432 202.12399632 165.84500401 202.9384678 163.6875 203.75390625 C162.29187715 204.27660401 160.89605043 204.79875782 159.5 205.3203125 C158.86642578 205.55992706 158.23285156 205.79954163 157.58007812 206.04641724 C144.10538747 211.03027654 128.25175904 212.76120297 114.64453125 207.2421875 C113.77183594 206.83226562 112.89914062 206.42234375 112 206 C111.11699219 205.61070312 110.23398437 205.22140625 109.32421875 204.8203125 C101.4160903 200.9520818 95.18924301 195.26841929 88.66943359 189.46777344 C84.55507487 185.85041095 80.25442948 182.45004695 76 179 C74.16596746 177.500855 72.33264019 176.00084678 70.5 174.5 C67.77618311 172.2700196 65.05119199 170.04164013 62.3203125 167.8203125 C57.31476973 163.74333418 52.35526664 159.61946988 47.4375 155.4375 C42.83170881 151.52244258 38.16907999 147.69558188 33.43359375 143.9375 C22.41526126 135.16528024 11.6205854 126.10393158 0.75195312 117.14746094 C-1.45690627 115.32732221 -3.66592557 113.50737774 -5.875 111.6875 C-6.58833496 111.0996875 -7.30166992 110.511875 -8.03662109 109.90625 C-11.93233617 106.69748026 -15.83671455 103.49984264 -19.75 100.3125 C-23.726896 97.06580797 -27.65147094 93.76278108 -31.5625 90.4375 C-36.02954158 86.64103348 -40.55032912 82.93144788 -45.14453125 79.2890625 C-51.16561115 74.46231445 -57.09414585 69.52103811 -63.04638672 64.60986328 C-65.52568661 62.56681111 -68.0118717 60.532288 -70.5 58.5 C-71.33660156 57.81421875 -72.17320312 57.1284375 -73.03515625 56.421875 C-75.45404255 54.44597315 -77.87997885 52.47952116 -80.30859375 50.515625 C-81.85168148 49.26056294 -83.39465002 48.00535432 -84.9375 46.75 C-86.03964844 45.86344727 -86.03964844 45.86344727 -87.1640625 44.95898438 C-94.46288856 39.00254869 -97.66898875 34.82261119 -98.875 25.29296875 C-99.10865061 19.1377354 -97.17085759 15.05909438 -94.1875 9.8125 C-89.69096962 5.0568036 -82.97303492 3.26094022 -77 1 C-75.96713867 0.60167969 -74.93427734 0.20335937 -73.87011719 -0.20703125 C-70.33489808 -1.56773437 -66.79382994 -2.91189125 -63.25 -4.25 C-62.10192871 -4.68666992 -60.95385742 -5.12333984 -59.77099609 -5.57324219 C-39.12553739 -13.2373804 -18.37852116 -13.37494472 0 0 Z " fill="#907DD5" transform="translate(311,63)"/>
<path d="M0 0 C0.66 0 1.32 0 2 0 C2.18433594 0.556875 2.36867187 1.11375 2.55859375 1.6875 C5.22312501 8.6981778 9.21169662 12.39949547 15 17 C15.87269531 17.72058594 16.74539062 18.44117187 17.64453125 19.18359375 C20.41678622 21.47199306 23.20700677 23.73697917 26 26 C27.83414331 27.49900948 29.66748108 28.99900516 31.5 30.5 C34.1789992 32.69225146 36.85824208 34.88419468 39.5390625 37.07421875 C42.36123066 39.38055255 45.18142931 41.68927237 48 44 C48.63744141 44.52255371 49.27488281 45.04510742 49.93164062 45.58349609 C57.30721335 51.63360859 64.67193129 57.69293161 71.9375 63.875 C76.41736512 67.68631032 80.95913271 71.40616772 85.56640625 75.0625 C96.58473874 83.83471976 107.3794146 92.89606842 118.24804688 101.85253906 C120.45690627 103.67267779 122.66592557 105.49262226 124.875 107.3125 C125.58833496 107.9003125 126.30166992 108.488125 127.03662109 109.09375 C130.93233617 112.30251974 134.83671455 115.50015736 138.75 118.6875 C142.72689511 121.9341913 146.65149962 125.23718582 150.5625 128.5625 C155.16832469 132.47751838 159.83091862 136.30441702 164.56640625 140.0625 C170.47129715 144.76366515 176.28912672 149.57353052 182.08984375 154.40234375 C201.47605487 170.51744315 217.67443481 182.34235344 244 180 C248.67008425 179.10774813 252.98073902 177.69584598 257.40039062 175.99414062 C260.02955494 174.98869762 262.67220459 174.02446259 265.3188324 173.06608582 C268.61340588 171.87011316 271.9004421 170.65394239 275.1875 169.4375 C275.83322968 169.20034271 276.47895935 168.96318542 277.14425659 168.71884155 C279.01011221 168.02975541 280.87039286 167.32563231 282.73046875 166.62109375 C283.81739014 166.2130249 284.90431152 165.80495605 286.02416992 165.38452148 C291.71149484 162.73846195 294.59402921 159.7743299 297 154 C297.68636625 151.76474965 297.68636625 151.76474965 298 150 C298.66 150.33 299.32 150.66 300 151 C299.35513218 154.8799228 298.69755654 158.75746277 298.02856445 162.63330078 C297.69276469 164.594256 297.36681031 166.55688898 297.04101562 168.51953125 C296.82509766 169.76347656 296.60917969 171.00742187 296.38671875 172.2890625 C296.19295654 173.43068848 295.99919434 174.57231445 295.79956055 175.74853516 C293.94035504 183.30911499 290.28751795 187.70660586 284 192 C281.92623332 192.95807325 279.81648249 193.83981045 277.6875 194.66796875 C276.73046173 195.04183968 276.73046173 195.04183968 275.75408936 195.42326355 C265.63454189 199.34632726 255.43538445 203.06488234 245.25 206.8125 C243.12753901 207.59552654 241.00514273 208.37872848 238.8828125 209.16210938 C236.86464098 209.90640632 234.84641389 210.65055263 232.828125 211.39453125 C231.88447083 211.74240189 230.94081665 212.09027252 229.96856689 212.44868469 C228.66009796 212.93005135 228.66009796 212.93005135 227.32519531 213.42114258 C226.55991516 213.70282791 225.79463501 213.98451324 225.00616455 214.2747345 C216.5779267 217.321698 207.08516832 217.23616426 198.6875 214.0625 C193.48115566 211.59523642 189.56458404 208.32013177 185.44140625 204.3359375 C182.99917275 201.99920849 180.46729495 199.90270055 177.8125 197.8125 C176.99136719 197.16023437 176.17023438 196.50796875 175.32421875 195.8359375 C173.87299161 194.68959001 172.41788849 193.54811229 170.95703125 192.4140625 C167.01071071 189.23344594 163.41895933 186.01365632 162 181 C161.68613137 176.31255208 161.76584167 171.68967098 162 167 C161.4124292 166.72704102 160.8248584 166.45408203 160.21948242 166.17285156 C158.05468379 165.02889681 156.3633616 163.80035339 154.48828125 162.234375 C153.82151367 161.68112549 153.15474609 161.12787598 152.46777344 160.55786133 C151.40091309 159.66296997 151.40091309 159.66296997 150.3125 158.75 C148.78266649 157.47772701 147.25271522 156.2055956 145.72265625 154.93359375 C144.94035645 154.28116699 144.15805664 153.62874023 143.35205078 152.95654297 C140.37608371 150.48099801 137.38430698 148.02508344 134.39160156 145.56982422 C128.57724167 140.79876146 122.79126937 135.99855082 117.0625 131.125 C112.71862079 127.43007002 108.31488186 123.82597536 103.84765625 120.28125 C94.26194646 112.60216287 84.82685595 104.73479156 75.47485352 96.7734375 C71.44680241 93.3534543 67.35349436 90.02943012 63.1796875 86.7890625 C61 85 61 85 59.3203125 83.2109375 C54.60981718 78.26608918 50.1853307 78.47750361 43.55859375 78.24609375 C29.90009287 77.30154319 20.12561714 67.9268161 10.1875 59.4375 C9.56520508 58.90777588 8.94291016 58.37805176 8.30175781 57.83227539 C-4.55427972 46.63580409 -4.55427972 46.63580409 -5.14892578 39.11694336 C-5.31652175 30.88974561 -3.8815916 22.94942931 -2.5 14.875 C-2.25837672 13.42720628 -2.01748579 11.97929014 -1.77734375 10.53125 C-1.19332414 7.01938307 -0.59943951 3.50927192 0 0 Z " fill="#4D417A" transform="translate(211,92)"/>
<path d="M0 0 C2.18494429 1.52858586 4.24400407 3.07706262 6.3125 4.75 C6.91336426 5.22864502 7.51422852 5.70729004 8.13330078 6.20043945 C15.26193522 11.92962683 22.13874291 17.95555923 29 24 C27.40628669 27.18742662 24.11977796 27.6334612 20.921875 28.78125 C20.15579926 29.0631015 19.38972351 29.344953 18.60043335 29.63534546 C16.8962094 30.26169135 15.19080683 30.88483672 13.48443604 31.50531006 C8.68454954 33.25133694 3.89372809 35.02197943 -0.8984375 36.7890625 C-1.96744293 37.1825589 -3.03644836 37.5760553 -4.1378479 37.98147583 C-19.2966771 43.56961877 -34.40756262 49.28597266 -49.52372742 54.98825073 C-52.65088664 56.16761469 -55.77843514 57.34594432 -58.90599251 58.52425194 C-61.87640778 59.64345822 -64.8466294 60.76317761 -67.81678391 61.88307571 C-69.21194053 62.40908088 -70.60714478 62.93495976 -72.00239944 63.4607048 C-73.92871135 64.18667651 -75.85477198 64.91331081 -77.78076172 65.64013672 C-79.4082283 66.25391678 -79.4082283 66.25391678 -81.068573 66.88009644 C-82.9705293 67.60670762 -84.86214979 68.36121277 -86.74002075 69.14797974 C-89.75367546 70.28413835 -90.97661995 70.14446875 -94 69 C-96.47666544 67.21876807 -98.6932304 65.18734132 -100.9375 63.125 C-102.25797002 61.94387358 -103.58094939 60.76554737 -104.90625 59.58984375 C-105.57914063 58.99284668 -106.25203125 58.39584961 -106.9453125 57.78076172 C-110.18816883 54.97023486 -113.54997703 52.3205352 -116.9375 49.6875 C-117.54650146 49.21393066 -118.15550293 48.74036133 -118.78295898 48.25244141 C-120.18619486 47.1651322 -121.59269719 46.08204022 -123 45 C-121.53188 42.06376001 -119.63998675 41.95529229 -116.5769043 40.86425781 C-115.40835403 40.44287537 -114.23980377 40.02149292 -113.0358429 39.58734131 C-112.40310266 39.36278008 -111.77036243 39.13821884 -111.11844826 38.90685272 C-107.68989334 37.68934593 -104.27027397 36.44710348 -100.84912109 35.20898438 C-100.12706513 34.94842632 -99.40500917 34.68786827 -98.66107273 34.41941452 C-90.62737761 31.51577174 -82.63518738 28.50402204 -74.64453125 25.484375 C-73.16920211 24.92763317 -71.69385004 24.37095213 -70.21847534 23.81433105 C-66.49915571 22.41068909 -62.7803748 21.00562575 -59.06176758 19.60009766 C-55.28554764 18.1728972 -51.50901558 16.74652358 -47.73242188 15.3203125 C-46.99255476 15.04086037 -46.25268764 14.76140823 -45.49040031 14.47348785 C-41.87272661 13.10742851 -38.25444317 11.74302488 -34.63479614 10.38220215 C-33.95141615 10.12526833 -33.26803616 9.8683345 -32.56394768 9.60361481 C-31.22825102 9.10145197 -29.89252404 8.59936979 -28.5567646 8.09737396 C-24.63141236 6.62025996 -20.7145105 5.12272481 -16.80224609 3.61132812 C-15.08041966 2.95438512 -13.35857877 2.29747998 -11.63671875 1.640625 C-10.52185844 1.20046051 -10.52185844 1.20046051 -9.38447571 0.75140381 C-3.31728155 -1.54230324 -3.31728155 -1.54230324 0 0 Z " fill="#4F4575" transform="translate(193,142)"/>
<path d="M0 0 C3.74199111 1.41779457 6.20186554 2.81164153 9.125 5.5625 C12.4233485 8.58870753 15.77223168 11.49378398 19.25 14.3125 C23.37601265 17.66056334 27.45221014 21.05842395 31.5 24.5 C36.2725469 28.55331962 41.08566583 32.55024823 45.94140625 36.50390625 C49.70135326 39.57236875 53.44393045 42.66159714 57.1875 45.75 C62.77364492 50.35578268 68.37599858 54.94052676 74 59.5 C81.05961374 65.22334848 88.07840274 70.99513915 95.08984375 76.77734375 C100.92855904 81.5920685 106.78485501 86.38533062 112.65625 91.16015625 C118.23671022 95.70630703 123.75106787 100.32116814 129.23388672 104.98388672 C133.22943466 108.37221574 137.2997601 111.6530567 141.40625 114.90625 C145.05401433 117.85083084 148.6145398 120.89451533 152.18359375 123.93359375 C156.19050359 127.33711011 160.27145882 130.63239401 164.39453125 133.89453125 C168.11307839 136.89947414 171.73470026 140.01533534 175.3659668 143.12475586 C178.26012922 145.58616257 181.17691854 147.91710216 184.3125 150.0625 C185.199375 150.701875 186.08625 151.34125 187 152 C187 152.66 187 153.32 187 154 C183.36739655 152.63527177 180.09038593 151.0019884 176.73828125 149.05078125 C175.71541016 148.4578125 174.69253906 147.86484375 173.63867188 147.25390625 C172.54103516 146.61324219 171.44339844 145.97257813 170.3125 145.3125 C169.15059652 144.6376662 167.98848329 143.96319344 166.82617188 143.2890625 C164.4127596 141.88892911 162.0002554 140.48724981 159.58837891 139.08447266 C154.06732929 135.87508732 148.53298399 132.68874937 143 129.5 C140.83327091 128.2501082 138.66660444 127.00010785 136.5 125.75 C135.4275 125.13125 134.355 124.5125 133.25 123.875 C112.66666667 112 92.08333333 100.125 71.5 88.25 C69.8905249 87.32151245 69.8905249 87.32151245 68.24853516 86.37426758 C66.08662116 85.12693452 63.92483683 83.8793767 61.76318359 82.6315918 C56.27485415 79.46391168 50.78417467 76.30043239 45.2890625 73.14453125 C39.87194769 70.03216836 34.46191414 66.90786875 29.05810547 63.77246094 C27.04076481 62.6032215 25.02159374 61.43713369 23.00048828 60.27441406 C20.22262596 58.67358037 17.4540154 57.05784361 14.6875 55.4375 C13.87555176 54.9731958 13.06360352 54.5088916 12.22705078 54.03051758 C6.90795227 50.88523714 2.82919489 47.65838978 0 42 C-0.08902493 40.64154807 -0.11760132 39.27884026 -0.11352539 37.91748047 C-0.11344986 37.07675995 -0.11337433 36.23603943 -0.11329651 35.36984253 C-0.10813522 34.46146637 -0.10297394 33.55309021 -0.09765625 32.6171875 C-0.0962413 31.68778351 -0.09482635 30.75837952 -0.09336853 29.80081177 C-0.08776053 26.82550876 -0.07520668 23.85028036 -0.0625 20.875 C-0.05748603 18.86067817 -0.05292295 16.84635516 -0.04882812 14.83203125 C-0.0377885 9.88799198 -0.02051849 4.94400865 0 0 Z " fill="#363053" transform="translate(18,269)"/>
<path d="M0 0 C-3.31754919 2.80012533 -6.66147424 4.17016165 -10.72119141 5.66381836 C-11.38846252 5.9114241 -12.05573364 6.15902985 -12.7432251 6.41413879 C-14.94374756 7.22897047 -17.14759958 8.03436952 -19.3515625 8.83984375 C-20.89153582 9.40827922 -22.43127645 9.97734545 -23.97079468 10.54701233 C-28.02544639 12.04563151 -32.08291504 13.53646742 -36.14111328 15.02545166 C-41.83482595 17.11610304 -47.52466492 19.21727813 -53.2149353 21.317276 C-56.2413044 22.43412851 -59.2687098 23.5480956 -62.29702759 24.65965271 C-63.00148199 24.91883264 -63.70593639 25.17801256 -64.4317379 25.44504642 C-65.79042897 25.9448622 -67.14957753 26.44343646 -68.50922585 26.94064236 C-73.04499328 28.61034867 -77.49136924 30.43429579 -81.89193726 32.43263245 C-84.57790634 33.15553869 -86.3488422 32.75913457 -89 32 C-90.77001953 30.8359375 -90.77001953 30.8359375 -92.3828125 29.375 C-92.98786621 28.8372998 -93.59291992 28.29959961 -94.21630859 27.74560547 C-94.84617676 27.16955566 -95.47604492 26.59350586 -96.125 26 C-97.45183373 24.81365839 -98.77996978 23.6287718 -100.109375 22.4453125 C-101.09067383 21.56794434 -101.09067383 21.56794434 -102.09179688 20.67285156 C-105.62330034 17.57691224 -109.32392253 14.69663873 -113.0234375 11.8046875 C-115 10 -115 10 -116 7 C-93.34475581 5.22440163 -70.67942315 3.59819025 -48.00521851 2.08483887 C-45.31172524 1.90499484 -42.61840201 1.72287014 -39.92520142 1.53869629 C-12.2552009 -0.34493772 -12.2552009 -0.34493772 0 0 Z " fill="#43386B" transform="translate(188,179)"/>
<path d="M0 0 C3.22995303 2.23612133 5.81980797 4.15702832 8.25 7.25 C8.78935762 10.5535654 8.76621127 12.3426662 7.10546875 15.26171875 C2.68717082 19.99627379 -5.71642359 22.49818953 -12.125 22.75 C-19.16310304 21.77922717 -25.18474368 18.74876812 -29.75 13.25 C-30.9375 9.625 -30.9375 9.625 -30.75 6.25 C-23.79048648 -2.63702585 -9.78084467 -5.08939027 0 0 Z " fill="#A794E9" transform="translate(195.75,249.75)"/>
<path d="M0 0 C1.36125 1.0828125 1.36125 1.0828125 2.75 2.1875 C3.678125 2.80625 4.60625 3.425 5.5625 4.0625 C7.75 6.1875 7.75 6.1875 8.75 9.125 C8.75 12.87898164 8.00198543 14.2098228 5.75 17.1875 C-1.10447848 21.0809976 -9.36020466 23.87624044 -17.25 22.1875 C-22.31428882 20.00307965 -26.86276388 16.52739628 -30.25 12.1875 C-30.8125 9.125 -30.8125 9.125 -30.25 6.1875 C-23.29626379 -2.44588264 -9.57982365 -5.34259396 0 0 Z " fill="#A794E9" transform="translate(199.25,201.8125)"/>
<path d="M0 0 C3.77384099 2.67082496 7.50874861 5.67890373 9.75 9.75390625 C9.24785711 13.34064116 8.5773133 15.0817142 5.75 17.37890625 C4.76 17.83265625 3.77 18.28640625 2.75 18.75390625 C2.01265625 19.10582031 1.2753125 19.45773438 0.515625 19.8203125 C-5.5999899 22.54574957 -11.63065873 24.52402268 -18.15625 22.0234375 C-19.96972214 21.04909392 -21.58824934 19.96749981 -23.25 18.75390625 C-23.82105469 18.38007813 -24.39210937 18.00625 -24.98046875 17.62109375 C-28.08985934 15.39060453 -29.21682595 13.85895742 -30.375 10.19140625 C-30.25 6.75390625 -30.25 6.75390625 -28.65625 4.71484375 C-21.03758482 -1.49387365 -8.98421976 -4.9756356 0 0 Z " fill="#A794E9" transform="translate(156.25,217.24609375)"/>
<path d="M0 0 C3.5 1.75 3.5 1.75 6 4 C6.928125 4.61875 7.85625 5.2375 8.8125 5.875 C11 8 11 8 12 10.9375 C12 14.69148164 11.25198543 16.0223228 9 19 C2.21984205 22.85128187 -6.19443531 25.84117971 -14 24 C-19.12262916 21.55988327 -24.28021802 18.06868461 -27 13 C-27.25 9.4375 -27.25 9.4375 -26 6 C-23.52297974 4.14223481 -20.88616909 3.07975475 -18 2 C-17.22011719 1.64292969 -16.44023437 1.28585937 -15.63671875 0.91796875 C-10.57935847 -0.84274187 -5.27483022 -0.54544272 0 0 Z " fill="#A794E9" transform="translate(231,280)"/>
<path d="M0 0 C7.26475338 5.52121257 7.26475338 5.52121257 9.125 8.375 C9.125 12.3858799 8.35412939 14.03130592 6.125 17.375 C-1.04052952 21.07232991 -8.76890358 23.93331483 -16.875 22.375 C-21.68402267 20.52103236 -27.53133351 17.06233299 -29.875 12.375 C-30.3125 9 -30.3125 9 -29.875 5.375 C-27.375 3.125 -27.375 3.125 -23.875 1.375 C-23.29492188 1.0759375 -22.71484375 0.776875 -22.1171875 0.46875 C-15.45115657 -2.54351502 -6.63548338 -3.51636481 0 0 Z " fill="#A794E9" transform="translate(237.875,233.625)"/>
<path d="M0 0 C2.26060832 1.4715973 4.31241374 2.98133894 6.34375 4.75390625 C6.90964844 5.24375 7.47554687 5.73359375 8.05859375 6.23828125 C9.34375 7.75390625 9.34375 7.75390625 9.84375 11.19140625 C9.34375 14.75390625 9.34375 14.75390625 7.53125 16.94140625 C0.1972416 21.11172475 -8.11573076 24.61054087 -16.65625 22.75390625 C-21.95109476 20.13521559 -27.65707465 16.62653538 -29.65625 10.87890625 C-29.65625 7.75390625 -29.65625 7.75390625 -27.84375 5.12890625 C-20.00720812 -0.71008574 -9.38135229 -4.40095791 0 0 Z " fill="#A895E9" transform="translate(240.65625,185.24609375)"/>
<path d="M0 0 C2.26060832 1.4715973 4.31241374 2.98133894 6.34375 4.75390625 C6.91222656 5.24246094 7.48070312 5.73101562 8.06640625 6.234375 C9.34375 7.75390625 9.34375 7.75390625 9.71875 11.25390625 C9.34375 14.75390625 9.34375 14.75390625 8.20703125 16.3046875 C3.11704916 20.26356246 -4.57551272 23.01292588 -11.03125 23.25390625 C-17.88774018 22.30818347 -24.38997556 19.37535021 -28.65625 13.75390625 C-29.53052131 10.63488429 -29.25411342 9.06933069 -28.65625 5.75390625 C-21.35494225 -0.88364625 -9.17798137 -4.30555302 0 0 Z " fill="#A795E9" transform="translate(275.65625,265.24609375)"/>
<path d="M0 0 C0.886875 0.598125 1.77375 1.19625 2.6875 1.8125 C3.2340625 2.16441406 3.780625 2.51632813 4.34375 2.87890625 C7.43316444 5.08667176 8.65225987 6.70863435 9.875 10.3125 C9.6875 13.8125 9.6875 13.8125 7.9375 16.5 C1.49736376 21.08240464 -5.92847922 23.65715793 -13.88671875 23.33984375 C-18.39823793 22.35907871 -21.82757385 19.74154836 -25.3125 16.8125 C-25.88226563 16.33425781 -26.45203125 15.85601562 -27.0390625 15.36328125 C-28.6381754 13.41589529 -28.74526988 12.31000441 -28.75 9.8125 C-28.76933594 9.131875 -28.78867188 8.45125 -28.80859375 7.75 C-28.09422409 4.96002087 -26.72808281 4.2961192 -24.3125 2.8125 C-16.52632377 -1.3373515 -8.47709447 -3.03895839 0 0 Z " fill="#A895EA" transform="translate(279.3125,217.1875)"/>
<path d="M0 0 C7.23473666 5.3905881 7.23473666 5.3905881 9.1875 8.375 C9.25053034 11.58954756 9.00034224 13.33949801 7.00390625 15.8828125 C1.47160164 20.42763048 -7.50891688 23.36962384 -14.68359375 22.93359375 C-19.0254589 21.79435207 -22.36857146 19.15769426 -25.8125 16.375 C-26.658125 15.715 -27.50375 15.055 -28.375 14.375 C-29.8125 12.375 -29.8125 12.375 -30.3125 9.375 C-29.6927159 5.65629537 -28.64133764 4.79280995 -25.8125 2.375 C-18.11171963 -1.66884577 -8.11869231 -4.24670059 0 0 Z " fill="#A895E9" transform="translate(272.8125,313.625)"/>
<path d="M0 0 C2.05206995 1.21889869 3.85834707 2.53523981 5.703125 4.046875 C6.71375 4.830625 7.724375 5.614375 8.765625 6.421875 C10.703125 9.046875 10.703125 9.046875 10.765625 12.671875 C9.56630076 16.48149316 8.97898707 17.00644897 5.703125 19.046875 C-0.8518177 21.8832395 -8.10955231 24.58893118 -15.296875 23.046875 C-20.86424816 20.67670708 -24.96335462 17.04715556 -28.296875 12.046875 C-28.921875 9.421875 -28.921875 9.421875 -28.296875 7.046875 C-21.75082124 -0.15378414 -9.1296264 -3.78848442 0 0 Z " fill="#A895EA" transform="translate(317.296875,248.953125)"/>
<path d="M0 0 C3.24965753 2.31827033 5.91482718 4.82234071 7.8671875 8.33203125 C7.9921875 11.58203125 7.9921875 11.58203125 6.8671875 14.33203125 C1.62948737 19.0316115 -6.47026058 21.49653509 -13.4453125 21.76953125 C-20.46338179 20.93687896 -25.08739953 18.01705758 -30.1328125 13.33203125 C-31.57016496 10.45732632 -31.51453899 8.51308537 -31.1328125 5.33203125 C-23.90631628 -3.1404126 -9.51225433 -5.40555818 0 0 Z " fill="#A895E9" transform="translate(359.1328125,282.66796875)"/>
<path d="M0 0 C7.97033898 5.25317797 7.97033898 5.25317797 9.75 8.8125 C10.125 11.6875 10.125 11.6875 9.75 14.8125 C5.48055674 19.81805417 -2.12803414 22.1601541 -8.49609375 23.16796875 C-15.71600865 23.46352082 -21.68631576 20.27922003 -26.921875 15.5625 C-28.50008074 13.48298185 -28.80408824 12.21699996 -28.9375 9.625 C-28.25 5.8125 -28.25 5.8125 -26.52734375 4.2109375 C-18.46774287 -0.73818277 -9.09652687 -3.32373097 0 0 Z " fill="#A895E9" transform="translate(314.25,297.1875)"/>
<path d="M0 0 C0.70125 0.721875 1.4025 1.44375 2.125 2.1875 C7.69982002 8.17330001 7.69982002 8.17330001 15 11 C16.11375 11.12375 17.2275 11.2475 18.375 11.375 C25.6254455 11.32017622 34.05375856 7.96416096 40 4 C39.75858867 11.12163417 39.75858867 11.12163417 36.625 14.75 C30.50371684 19.08040415 22.65464238 21.83008495 15.12890625 21.453125 C8.86697881 20.12031109 4.19669602 15.57821384 0 11 C-0.33 10.67 -0.66 10.34 -1 10 C-0.91036938 8.30858344 -0.75422324 6.62040398 -0.5625 4.9375 C-0.46066406 4.01839844 -0.35882813 3.09929687 -0.25390625 2.15234375 C-0.17011719 1.44207031 -0.08632813 0.73179687 0 0 Z " fill="#2C2941" transform="translate(327,292)"/>
<path d="M0 0 C0.45890625 0.39832031 0.9178125 0.79664063 1.390625 1.20703125 C9.73958187 8.55729441 9.73958187 8.55729441 20.5078125 10.359375 C26.97244209 9.42717136 33.58910974 6.60726018 39 3 C39.32861871 7.71020158 38.85694588 10.22068585 36 14 C33.1875 15.546875 33.1875 15.546875 30 16.75 C28.4221875 17.36101562 28.4221875 17.36101562 26.8125 17.984375 C20.41655967 20.29402012 15.63154628 21.22503017 9.375 18.3125 C0.93718274 12.87436548 0.93718274 12.87436548 -1 9 C-0.91348369 7.45386986 -0.75997364 5.91090613 -0.5625 4.375 C-0.46066406 3.55773437 -0.35882813 2.74046875 -0.25390625 1.8984375 C-0.17011719 1.27195312 -0.08632813 0.64546875 0 0 Z " fill="#29263D" transform="translate(285,309)"/>
<path d="M0 0 C0.53625 0.721875 1.0725 1.44375 1.625 2.1875 C6.13085262 7.5233781 10.76400174 11.63464536 17.875 12.4375 C25.38896348 12.299744 33.80316008 9.13122662 40 5 C39.50961538 12.35576923 39.50961538 12.35576923 37.34375 15.09375 C32.11838913 19.34371017 24.44337375 22.19985867 17.6875 22.5625 C13.11321876 21.86472828 9.85232985 20.52066027 6 18 C5.09121094 17.41605469 5.09121094 17.41605469 4.1640625 16.8203125 C1.1263897 14.41014019 0.10401081 12.86528144 -0.3671875 8.9453125 C-0.37426127 5.93895827 -0.26161969 2.99409199 0 0 Z " fill="#2B283F" transform="translate(288,259)"/>
<path d="M0 0 C0.66 0 1.32 0 2 0 C3.0828125 1.36125 3.0828125 1.36125 4.1875 2.75 C7.50593007 6.8208648 11.02280706 9.43816641 16.21484375 10.41796875 C24.64762797 10.92366246 33.05268 7.63154666 40 3 C39.06422018 11.11009174 39.06422018 11.11009174 37 14 C34.601446 15.27844688 32.39385068 16.28950441 29.875 17.25 C29.235625 17.518125 28.59625 17.78625 27.9375 18.0625 C22.22609714 20.31036137 16.92841409 21.03714666 11 18.9375 C2.61000443 13.51896119 2.61000443 13.51896119 0 10 C-0.65220828 6.55834708 -0.50045246 3.45451209 0 0 Z " fill="#2B283F" transform="translate(249,229)"/>
<path d="M0 0 C0.45890625 0.39832031 0.9178125 0.79664063 1.390625 1.20703125 C9.85651085 8.57487074 9.85651085 8.57487074 20.76269531 10.19848633 C24.60262349 9.8578205 27.9594415 8.45556294 31.5 7 C32.22703125 6.71382813 32.9540625 6.42765625 33.703125 6.1328125 C35.47356588 5.43395426 37.23751382 4.71868368 39 4 C38.51538926 10.29993965 38.51538926 10.29993965 36.33203125 13.265625 C30.84390912 17.34724347 23.90217283 19.57181057 17.1875 20.5625 C10.27658597 19.34292694 5.07142613 15.70034617 0 11 C-1.62651522 7.74696956 -1.11453156 4.60774398 -1 1 C-0.67 0.67 -0.34 0.34 0 0 Z " fill="#2B283F" transform="translate(246,277)"/>
<path d="M0 0 C0.639375 0.70125 1.27875 1.4025 1.9375 2.125 C6.39390831 6.50608873 11.58460007 11.24217228 18.0625 11.75 C25.29672856 11.28494245 32.37491319 7.73132413 39 5 C39.2265625 10.671875 39.2265625 10.671875 37.1875 13.625 C30.21983488 18.81659362 22.45013845 20.81511492 13.80078125 20.5234375 C9.14494655 19.6533094 6.3298954 17.22583617 3 14 C2.175 13.360625 1.35 12.72125 0.5 12.0625 C-1.70653814 9.02851006 -1.33194271 6.65136982 -1 3 C-0.67 2.01 -0.34 1.02 0 0 Z " fill="#2D2942" transform="translate(242,324)"/>
<path d="M0 0 C0.43570313 0.38671875 0.87140625 0.7734375 1.3203125 1.171875 C3.19184668 2.80845467 5.09170085 4.40651191 7 6 C7.928125 6.78375 8.85625 7.5675 9.8125 8.375 C15.50331359 11.27619909 20.40504745 10.80094777 26.4296875 8.94140625 C30.8949471 7.26569079 35.02363189 5.65091207 39 3 C38.50961538 10.35576923 38.50961538 10.35576923 36.34375 13.09375 C31.14780543 17.31978492 23.5092392 20.12601471 16.8125 20.6875 C10.24109206 19.50249201 5.21947446 16.06094057 0.375 11.5625 C-1.42909652 8.20032012 -1.3547003 5.75982322 -1 2 C-0.67 1.34 -0.34 0.68 0 0 Z " fill="#2A273E" transform="translate(211,197)"/>
<path d="M0 0 C0.29261719 0.639375 0.58523437 1.27875 0.88671875 1.9375 C2.27419983 4.50799126 3.3792756 4.80195456 6 6 C6.845625 6.680625 7.69125 7.36125 8.5625 8.0625 C12.53708012 11.22178163 16.12347762 11.38496249 21.0234375 11.36328125 C27.33649239 10.5927903 33.34091419 7.8295429 39 5 C39.3125 7.6875 39.3125 7.6875 39 11 C33.61278898 17.49073655 25.64350913 20.35526676 17.3671875 21.30078125 C11.28273904 20.9933788 7.44090064 17.91079313 3 14 C2.154375 13.4225 1.30875 12.845 0.4375 12.25 C-1.99673783 8.43988861 -0.75378843 4.29331673 0 0 Z " fill="#2B2840" transform="translate(207,244)"/>
<path d="M0 0 C0.66 0 1.32 0 2 0 C2.5775 0.7425 3.155 1.485 3.75 2.25 C8.23563404 7.73244161 12.65813137 9.63543251 19.4375 10.375 C26.57978969 10.32109593 34.14218256 6.90521163 40 3 C39.63829787 10.23404255 39.63829787 10.23404255 37.125 13.25 C29.33807328 17.61067896 21.00843487 20.78042813 12 19 C7.07710412 16.69471643 2.83801055 13.70951595 0 9 C-0.29296875 6.640625 -0.29296875 6.640625 -0.1875 4.25 C-0.16042969 3.45078125 -0.13335937 2.6515625 -0.10546875 1.828125 C-0.07066406 1.22484375 -0.03585938 0.6215625 0 0 Z " fill="#5B4C90" transform="translate(164,261)"/>
<path d="M0 0 C2 0 2 0 4.3125 2.25 C5.6428125 3.61125 5.6428125 3.61125 7 5 C11.69059811 9.02051267 14.95960461 10.40075918 21.25 10.359375 C27.84125295 9.49801808 34.49209895 6.67193403 40 3 C39.77042223 4.4409026 39.51543646 5.87777015 39.25 7.3125 C39.11078125 8.11300781 38.9715625 8.91351563 38.828125 9.73828125 C37.48404445 13.40914274 34.99335313 14.51861817 31.58984375 16.16796875 C25.0248454 18.69148063 19.03926825 20.12628292 12 19 C8.625 17.25 8.625 17.25 6 15 C5.071875 14.29875 4.14375 13.5975 3.1875 12.875 C1 11 1 11 0 9 C-0.06950541 7.45976004 -0.08452357 5.91665012 -0.0625 4.375 C-0.05347656 3.55773437 -0.04445313 2.74046875 -0.03515625 1.8984375 C-0.02355469 1.27195313 -0.01195313 0.64546875 0 0 Z " fill="#5B4C90" transform="translate(125,229)"/>
<path d="M0 0 C1.0828125 1.11375 1.0828125 1.11375 2.1875 2.25 C7.01915819 6.97428801 11.42655809 11.23651178 18.4375 11.4375 C25.76408156 11.32831101 32.52511145 8.23744428 39 5 C39.43421101 8.73421466 39.35245269 10.48955128 37.1875 13.625 C30.21860236 18.81751197 22.45438007 20.80817792 13.8046875 20.52734375 C9.19280424 19.66020693 6.27126246 17.23973222 3 14 C2.43796875 13.5565625 1.8759375 13.113125 1.296875 12.65625 C-0.60236982 10.23070843 -0.29436948 8.34046869 -0.1875 5.3125 C-0.16042969 4.31863281 -0.13335937 3.32476562 -0.10546875 2.30078125 C-0.07066406 1.54152344 -0.03585938 0.78226563 0 0 Z " fill="#5A4B8F" transform="translate(168,212)"/>
<path d="M0 0 C0.639375 0.70125 1.27875 1.4025 1.9375 2.125 C6.73132687 6.82456623 11.79223859 11.30284327 18.75 11.6875 C25.87734569 11.2616523 32.67715772 8.16142114 39 5 C38.50660515 12.52427146 38.50660515 12.52427146 36.26953125 14.625 C28.99069023 19.03490024 20.48953275 21.69039369 12 20 C8.64545405 18.38353451 5.82366934 16.41776687 3 14 C2.42636719 13.5565625 1.85273438 13.113125 1.26171875 12.65625 C-0.59002683 10.22547562 -0.29356817 8.31776491 -0.1875 5.3125 C-0.16042969 4.31863281 -0.13335937 3.32476562 -0.10546875 2.30078125 C-0.07066406 1.54152344 -0.03585938 0.78226562 0 0 Z " fill="#29273D" transform="translate(203,292)"/>
<path d="M0 0 C1.29047171 3.87141514 0.6542778 5.31547216 -1 9 C-5.5631371 14.00473101 -13.058677 16.63705803 -19.71484375 17.25 C-21.81155252 17.25 -23.90778458 17.13719445 -26 17 C-26 16.67 -26 16.34 -26 16 C-24.02 16 -22.04 16 -20 16 C-20 13.69 -20 11.38 -20 9 C-20.66 8.67 -21.32 8.34 -22 8 C-21.23816406 7.82984375 -20.47632813 7.6596875 -19.69140625 7.484375 C-9.10474176 5.37566392 -9.10474176 5.37566392 0 0 Z " fill="#5B4C91" transform="translate(366,296)"/>
<path d="M0 0 C1.30781033 2.9722962 0.92221162 4.25929461 -0.03125 7.4375 C-1.61394162 10.95077289 -3.56340988 12.31593015 -7.20507812 13.74804688 C-7.85927734 13.97556641 -8.51347656 14.20308594 -9.1875 14.4375 C-9.82236328 14.69208984 -10.45722656 14.94667969 -11.11132812 15.20898438 C-15.8821992 16.99866402 -19.92128678 17.23162096 -25 17 C-25 16.67 -25 16.34 -25 16 C-23.02 16 -21.04 16 -19 16 C-19 13.69 -19 11.38 -19 9 C-19.99 8.67 -20.98 8.34 -22 8 C-21.39414062 7.90203125 -20.78828125 7.8040625 -20.1640625 7.703125 C-9.1952276 5.77928692 -9.1952276 5.77928692 0 0 Z " fill="#5C4D91" transform="translate(288,232)"/>
<path d="M0 0 C0.33 0 0.66 0 1 0 C1.32861871 4.71020158 0.85694588 7.22068585 -2 11 C-4.8125 12.546875 -4.8125 12.546875 -8 13.75 C-9.051875 14.15734375 -10.10375 14.5646875 -11.1875 14.984375 C-14.71560754 16.25841384 -17.44659093 17.12382638 -21.1875 17.0625 C-23.0746875 17.0315625 -23.0746875 17.0315625 -25 17 C-25 16.67 -25 16.34 -25 16 C-22.69 16 -20.38 16 -18 16 C-18 13.69 -18 11.38 -18 9 C-18.66 8.67 -19.32 8.34 -20 8 C-18.69675781 7.61908203 -18.69675781 7.61908203 -17.3671875 7.23046875 C-16.21476562 6.88628906 -15.06234375 6.54210937 -13.875 6.1875 C-12.73804688 5.85105469 -11.60109375 5.51460938 -10.4296875 5.16796875 C-4.79438784 3.33855631 -4.79438784 3.33855631 0 0 Z " fill="#5D4E93" transform="translate(323,312)"/>
<path d="M0 0 C1.27514492 3.82543475 0.52740413 5.33423008 -1 9 C-5.02165061 14.12925274 -13.38432577 16.56011085 -19.6328125 17.3203125 C-21.8125 17.3125 -21.8125 17.3125 -25 17 C-25 16.67 -25 16.34 -25 16 C-23.02 16 -21.04 16 -19 16 C-19 13.69 -19 11.38 -19 9 C-19.66 8.67 -20.32 8.34 -21 8 C-19.96552734 7.74476563 -19.96552734 7.74476563 -18.91015625 7.484375 C-8.74281723 5.23174822 -8.74281723 5.23174822 0 0 Z " fill="#5A4B8E" transform="translate(327,264)"/>
<path d="M0 0 C0.3125 2.6875 0.3125 2.6875 0 6 C-3.49550557 10.2417371 -6.78041682 12.04867676 -11.9375 13.8125 C-13.71447266 14.44091797 -13.71447266 14.44091797 -15.52734375 15.08203125 C-18.86468227 15.96422985 -21.56983214 16.18329141 -25 16 C-25 15.67 -25 15.34 -25 15 C-23.35 15 -21.7 15 -20 15 C-20.33 12.36 -20.66 9.72 -21 7 C-19.9275 6.773125 -18.855 6.54625 -17.75 6.3125 C-12.7570698 5.08443638 -8.14959822 3.06227908 -3.44140625 1.0234375 C-1 0 -1 0 0 0 Z " fill="#5C4D92" transform="translate(246,249)"/>
<path d="M0 0 C1.30781033 2.9722962 0.92221162 4.25929461 -0.03125 7.4375 C-1.61394162 10.95077289 -3.56340988 12.31593015 -7.20507812 13.74804688 C-7.85927734 13.97556641 -8.51347656 14.20308594 -9.1875 14.4375 C-9.82236328 14.69208984 -10.45722656 14.94667969 -11.11132812 15.20898438 C-15.8821992 16.99866402 -19.92128678 17.23162096 -25 17 C-25 16.67 -25 16.34 -25 16 C-22.69 16 -20.38 16 -18 16 C-18 13.69 -18 11.38 -18 9 C-18.99 8.67 -19.98 8.34 -21 8 C-20.2265625 7.82984375 -19.453125 7.6596875 -18.65625 7.484375 C-8.57915748 5.37577414 -8.57915748 5.37577414 0 0 Z " fill="#5D4D92" transform="translate(249,200)"/>
<path d="M0 0 C-0.48943874 6.36270368 -0.48943874 6.36270368 -2.65234375 9.0625 C-7.80600509 13.31577126 -15.57483366 16.32630669 -22.3125 16.3125 C-23.199375 16.209375 -24.08625 16.10625 -25 16 C-25 15.67 -25 15.34 -25 15 C-23.02 15 -21.04 15 -19 15 C-19 12.36 -19 9.72 -19 7 C-17.86820312 6.57847656 -16.73640625 6.15695312 -15.5703125 5.72265625 C-14.08852006 5.16932869 -12.60675041 4.61594011 -11.125 4.0625 C-10.37863281 3.78470703 -9.63226563 3.50691406 -8.86328125 3.22070312 C-0.24887048 0 -0.24887048 0 0 0 Z " fill="#5C4C91" transform="translate(285,281)"/>
<path d="M0 0 C0.43421101 3.73421466 0.35245269 5.48955128 -1.8125 8.625 C-6.25959186 11.93851943 -12.31082768 15 -18 15 C-18 12.36 -18 9.72 -18 7 C-15.18836219 5.83121737 -12.37575392 4.66488052 -9.5625 3.5 C-8.35883789 2.99919922 -8.35883789 2.99919922 -7.13085938 2.48828125 C-6.36708984 2.17246094 -5.60332031 1.85664063 -4.81640625 1.53125 C-3.75595093 1.09135742 -3.75595093 1.09135742 -2.67407227 0.64257812 C-1 0 -1 0 0 0 Z " fill="#5C4D92" transform="translate(281,329)"/>
<path d="M0 0 C0.66 0 1.32 0 2 0 C2.515625 0.70125 3.03125 1.4025 3.5625 2.125 C5.93199882 4.91979347 7.63447849 6.02731106 10.75 7.8125 C14.83030859 10.37020571 14.83030859 10.37020571 15.58203125 13.16015625 C15.5625 15.375 15.5625 15.375 15 19 C10.84033414 18.46160353 8.4980346 17.18381652 5.25 14.5625 C4.47140625 13.94503906 3.6928125 13.32757813 2.890625 12.69140625 C1 11 1 11 0 9 C-0.06950541 7.45976004 -0.08452357 5.91665012 -0.0625 4.375 C-0.05347656 3.55773437 -0.04445312 2.74046875 -0.03515625 1.8984375 C-0.02355469 1.27195312 -0.01195312 0.64546875 0 0 Z " fill="#2A273E" transform="translate(164,261)"/>
<path d="M0 0 C2 0 2 0 4.3125 2.25 C5.6428125 3.61125 5.6428125 3.61125 7 5 C9.74587131 7.35360398 11.56270161 8.85423387 15 10 C15 12.64 15 15.28 15 18 C8.65113652 17.74086272 5.3311386 15.61254026 1 11 C-0.20272819 8.59454362 -0.10071472 7.05003047 -0.0625 4.375 C-0.05347656 3.55773437 -0.04445313 2.74046875 -0.03515625 1.8984375 C-0.02355469 1.27195313 -0.01195313 0.64546875 0 0 Z " fill="#2B283F" transform="translate(125,229)"/>
<path d="M0 0 C1.0828125 1.11375 1.0828125 1.11375 2.1875 2.25 C5.82956964 5.81113476 9.31744042 8.91886241 14 11 C14 13.64 14 16.28 14 19 C8.66171917 18.86654298 5.40053695 16.74188631 1.5703125 13.25390625 C-1.27695275 9.16715985 -0.61936012 4.75702982 0 0 Z " fill="#29263C" transform="translate(168,212)"/>
<path d="M0 0 C-0.49190083 7.5014876 -0.49190083 7.5014876 -2.65625 9.625 C-5.44228802 11.25947564 -8.17063269 12.21682987 -11.25 13.1875 C-12.32765625 13.53167969 -13.4053125 13.87585938 -14.515625 14.23046875 C-15.33546875 14.48441406 -16.1553125 14.73835938 -17 15 C-17.25 11.6875 -17.25 11.6875 -17 8 C-14.05578758 5.17581543 -10.556596 3.83111628 -6.8125 2.3125 C-5.74644531 1.87550781 -4.68039063 1.43851562 -3.58203125 0.98828125 C-1 0 -1 0 0 0 Z " fill="#5A4B8F" transform="translate(242,297)"/>
<path d="M0 0 C2.97 0.99 5.94 1.98 9 3 C9 5.31 9 7.62 9 10 C7.54207116 10.05399736 6.08357288 10.09279177 4.625 10.125 C3.81289063 10.14820313 3.00078125 10.17140625 2.1640625 10.1953125 C0 10 0 10 -2 8 C-1.34 8 -0.68 8 0 8 C0 5.36 0 2.72 0 0 Z " fill="#3A3259" transform="translate(299,270)"/>
<path d="M0 0 C2.64 0.33 5.28 0.66 8 1 C8 3.64 8 6.28 8 9 C5.03 9 2.06 9 -1 9 C-0.67 6.03 -0.34 3.06 0 0 Z " fill="#423967" transform="translate(258,287)"/>
<path d="M0 0 C2.97 0 5.94 0 9 0 C8.67 2.64 8.34 5.28 8 8 C4.37 8 0.74 8 -3 8 C-2.01 7.67 -1.02 7.34 0 7 C0 4.69 0 2.38 0 0 Z " fill="#493E74" transform="translate(140,240)"/>
<path d="M0 0 C2.97 0 5.94 0 9 0 C8.67 2.64 8.34 5.28 8 8 C4.37 8 0.74 8 -3 8 C-2.01 7.67 -1.02 7.34 0 7 C0 4.69 0 2.38 0 0 Z " fill="#3E3660" transform="translate(182,224)"/>
<path d="M0 0 C2.64 0.33 5.28 0.66 8 1 C8 3.64 8 6.28 8 9 C4.7 9 1.4 9 -2 9 C-1.34 8.67 -0.68 8.34 0 8 C0 5.36 0 2.72 0 0 Z " fill="#443A6B" transform="translate(255,335)"/>
<path d="M0 0 C5.75 0.875 5.75 0.875 8 2 C8 4.31 8 6.62 8 9 C4.7 9 1.4 9 -2 9 C-1.34 8.67 -0.68 8.34 0 8 C0 5.36 0 2.72 0 0 Z " fill="#3C355D" transform="translate(297,319)"/>
<path d="M0 0 C2.97 0 5.94 0 9 0 C8.67 2.64 8.34 5.28 8 8 C4.7 8 1.4 8 -2 8 C-1.34 7.67 -0.68 7.34 0 7 C0 4.69 0 2.38 0 0 Z " fill="#3E3560" transform="translate(217,304)"/>
<path d="M0 0 C2.97 0.33 5.94 0.66 9 1 C9 3.64 9 6.28 9 9 C6.36 9 3.72 9 1 9 C0.67 6.03 0.34 3.06 0 0 Z " fill="#413865" transform="translate(178,271)"/>
<path d="M0 0 C2.64 0.66 5.28 1.32 8 2 C8 4.31 8 6.62 8 9 C5.03 9 2.06 9 -1 9 C-0.67 6.03 -0.34 3.06 0 0 Z " fill="#3F3662" transform="translate(261,239)"/>
<path d="M0 0 C2.64 0.66 5.28 1.32 8 2 C8 4.31 8 6.62 8 9 C5.03 9 2.06 9 -1 9 C-0.67 6.03 -0.34 3.06 0 0 Z " fill="#393258" transform="translate(223,207)"/>
<path d="M0 0 C1.98 0.66 3.96 1.32 6 2 C6 4.31 6 6.62 6 9 C3.36 9 0.72 9 -2 9 C-1.34 8.67 -0.68 8.34 0 8 C0 5.36 0 2.72 0 0 Z " fill="#3A3359" transform="translate(220,255)"/>
<path d="M0 0 C1.98 0 3.96 0 6 0 C6 2.31 6 4.62 6 7 C2.5980513 9.09350689 -0.05272412 9.17942163 -4 9 C-4 8.67 -4 8.34 -4 8 C-2.35 8 -0.7 8 1 8 C0.67 5.36 0.34 2.72 0 0 Z " fill="#524580" transform="translate(225,256)"/>
<path d="M0 0 C1.98 0.66 3.96 1.32 6 2 C6 4.31 6 6.62 6 9 C4.35 9 2.7 9 1 9 C0.67 6.03 0.34 3.06 0 0 Z " fill="#3F3762" transform="translate(340,303)"/>
<path d="M0 0 C1.98 0 3.96 0 6 0 C6.09765625 6.15234375 6.09765625 6.15234375 6 8 C5 9 5 9 3.15234375 9.09765625 C1.1015625 9.06510417 -0.94921875 9.03255208 -3 9 C-3 8.67 -3 8.34 -3 8 C-1.02 8 0.96 8 3 8 C3 5.69 3 3.38 3 1 C2.01 0.67 1.02 0.34 0 0 Z " fill="#534681" transform="translate(266,240)"/>
<path d="M0 0 C1.98 0 3.96 0 6 0 C6 2.64 6 5.28 6 8 C2.78548731 9.60725635 -0.43612536 9.05748185 -4 9 C-4 8.67 -4 8.34 -4 8 C-1.69 8 0.62 8 3 8 C3 5.69 3 3.38 3 1 C2.01 0.67 1.02 0.34 0 0 Z " fill="#564985" transform="translate(228,208)"/>
<path d="M0 0 C1.65 0 3.3 0 5 0 C5.125 3.375 5.125 3.375 5 7 C3 9 3 9 1.0546875 9.1953125 C-0.96354167 9.13020833 -2.98177083 9.06510417 -5 9 C-5 8.67 -5 8.34 -5 8 C-2.69 8 -0.38 8 2 8 C2 5.69 2 3.38 2 1 C1.34 0.67 0.68 0.34 0 0 Z " fill="#554785" transform="translate(303,320)"/>
<path d="M0 0 C0.99 0 1.98 0 3 0 C3 2.64 3 5.28 3 8 C0.03 8 -2.94 8 -6 8 C-6 7.67 -6 7.34 -6 7 C-4.02 7 -2.04 7 0 7 C0 4.69 0 2.38 0 0 Z " fill="#51457F" transform="translate(346,305)"/>
<path d="M0 0 C0.99 0 1.98 0 3 0 C3.125 3.375 3.125 3.375 3 7 C1 9 1 9 -2.625 9.125 C-3.73875 9.08375 -4.8525 9.0425 -6 9 C-6 8.67 -6 8.34 -6 8 C-4.02 8 -2.04 8 0 8 C0 5.36 0 2.72 0 0 Z " fill="#554885" transform="translate(266,288)"/>
<path d="M0 0 C0.99 0.33 1.98 0.66 3 1 C3 3.97 3 6.94 3 10 C1.35 9.67 -0.3 9.34 -2 9 C-1.34 8.67 -0.68 8.34 0 8 C0 5.36 0 2.72 0 0 Z " fill="#353051" transform="translate(299,270)"/>
<path d="M0 0 C0.99 0 1.98 0 3 0 C3 2.97 3 5.94 3 9 C1.68 8.67 0.36 8.34 -1 8 C-0.67 5.36 -0.34 2.72 0 0 Z " fill="#3A3358" transform="translate(258,287)"/>
<path d="M0 0 C0.99 0.33 1.98 0.66 3 1 C3 3.64 3 6.28 3 9 C1.35 9 -0.3 9 -2 9 C-1.34 8.67 -0.68 8.34 0 8 C0 5.36 0 2.72 0 0 Z " fill="#3A3359" transform="translate(255,335)"/>
<path d="M0 0 C0.99 0.33 1.98 0.66 3 1 C3 3.64 3 6.28 3 9 C1.68 8.67 0.36 8.34 -1 8 C-0.67 5.36 -0.34 2.72 0 0 Z " fill="#363051" transform="translate(261,239)"/>
<path d="M0 0 C0.99 0 1.98 0 3 0 C3 2.64 3 5.28 3 8 C1.02 8 -0.96 8 -3 8 C-2.01 7.67 -1.02 7.34 0 7 C0 4.69 0 2.38 0 0 Z " fill="#3E365F" transform="translate(140,240)"/>
<path d="M0 0 C0.99 0.33 1.98 0.66 3 1 C3 3.64 3 6.28 3 9 C2.01 9 1.02 9 0 9 C0 6.03 0 3.06 0 0 Z " fill="#322D4C" transform="translate(338,303)"/>
<path d="M0 0 C0.99 0.33 1.98 0.66 3 1 C3 3.64 3 6.28 3 9 C1.68 8.67 0.36 8.34 -1 8 C-0.67 5.36 -0.34 2.72 0 0 Z " fill="#312C4B" transform="translate(214,302)"/>
<path d="M0 0 C0.99 0.33 1.98 0.66 3 1 C3 3.64 3 6.28 3 9 C2.01 9 1.02 9 0 9 C0 6.03 0 3.06 0 0 Z " fill="#352F50" transform="translate(176,271)"/>
<path d="M0 0 C1.65 0 3.3 0 5 0 C4.67 2.64 4.34 5.28 4 8 C3.01 8 2.02 8 1 8 C0.67 5.36 0.34 2.72 0 0 Z " fill="#4B3F75" transform="translate(186,224)"/>
<path d="M0 0 C0.99 0.33 1.98 0.66 3 1 C3 3.64 3 6.28 3 9 C1.68 8.67 0.36 8.34 -1 8 C-0.67 5.36 -0.34 2.72 0 0 Z " fill="#332D4C" transform="translate(179,222)"/>
<path d="M0 0 C1.32 0.33 2.64 0.66 4 1 C3.67 3.31 3.34 5.62 3 8 C2.01 8 1.02 8 0 8 C0 5.36 0 2.72 0 0 Z " fill="#4A3F75" transform="translate(222,304)"/>
<path d="M0 0 C0.99 0 1.98 0 3 0 C3 2.64 3 5.28 3 8 C2.01 8 1.02 8 0 8 C0 5.36 0 2.72 0 0 Z " fill="#4D417A" transform="translate(184,272)"/>
<path d="M0 0 C0.99 0 1.98 0 3 0 C3 2.64 3 5.28 3 8 C2.01 8 1.02 8 0 8 C0 5.36 0 2.72 0 0 Z " fill="#332E4E" transform="translate(137,239)"/>
<path d="M0 0 C0.99 0 1.98 0 3 0 C3 2.31 3 4.62 3 7 C2.01 7.33 1.02 7.66 0 8 C0 5.36 0 2.72 0 0 Z " fill="#514481" transform="translate(263,336)"/>
<path d="M0 0 C0.99 0.33 1.98 0.66 3 1 C3 3.31 3 5.62 3 8 C2.01 8 1.02 8 0 8 C0 5.36 0 2.72 0 0 Z " fill="#413865" transform="translate(223,256)"/>
<path d="M0 0 C0.99 0.33 1.98 0.66 3 1 C3 3.31 3 5.62 3 8 C2.01 8 1.02 8 0 8 C0 5.36 0 2.72 0 0 Z " fill="#463B6D" transform="translate(302,320)"/>
<path d="M0 0 C0.99 0.33 1.98 0.66 3 1 C3 3.31 3 5.62 3 8 C2.01 8 1.02 8 0 8 C0 5.36 0 2.72 0 0 Z " fill="#443A6A" transform="translate(305,272)"/>
<path d="M0 0 C0.99 0 1.98 0 3 0 C3 2.31 3 4.62 3 7 C2.01 7 1.02 7 0 7 C0 4.69 0 2.38 0 0 Z " fill="#453B6D" transform="translate(228,209)"/>
<path d="M0 0 C1.60461448 4.01153621 0.45438973 7.07314774 -1 11 C-1.99 11.66 -2.98 12.32 -4 13 C-3.52140759 11.39566191 -3.04210442 9.79153584 -2.5625 8.1875 C-2.29566406 7.29417969 -2.02882813 6.40085937 -1.75390625 5.48046875 C-1.19612127 3.64526945 -0.60655425 1.81966274 0 0 Z " fill="#373155" transform="translate(511,302)"/>
</svg>
